# generated by scripts/make_scenery.py
v 0.00000 0.00000 0.19772
v 0.00000 0.00000 0.19772
v 0.00000 0.00000 0.19772
v 0.00000 0.00000 0.19772
v 0.00000 0.00000 0.19772
v 0.00000 0.00000 0.19772
v 0.00000 0.00000 0.19772
v 0.00000 0.00000 0.19772
v 0.00000 0.00000 0.19772
v 0.00000 0.00000 0.19772
v 0.00000 0.00000 0.19772
v 0.00000 0.00000 0.19772
v 0.00000 0.00000 0.19772
v 0.00000 0.00000 0.19772
v 0.04909 0.00000 0.19367
v 0.04475 0.02155 0.19478
v 0.03097 0.03883 0.19478
v 0.01099 0.04816 0.19426
v -0.01104 0.04837 0.19466
v -0.03149 0.03949 0.19639
v -0.04638 0.02234 0.19823
v -0.05176 0.00000 0.19877
v -0.04598 -0.02214 0.19739
v -0.03089 -0.03873 0.19453
v -0.01069 -0.04682 0.19164
v 0.01052 -0.04607 0.19017
v 0.02957 -0.03707 0.19049
v 0.04342 -0.02091 0.19196
v 0.09983 0.00000 0.18519
v 0.09128 0.04396 0.18646
v 0.06156 0.07720 0.18426
v 0.02090 0.09156 0.18014
v -0.02095 0.09178 0.18033
v -0.06210 0.07787 0.18499
v -0.09354 0.04505 0.18860
v -0.10479 0.00000 0.18942
v -0.09267 -0.04463 0.18777
v -0.06105 -0.07656 0.18356
v -0.02068 -0.09061 0.17931
v 0.02035 -0.08915 0.17803
v 0.05822 -0.07301 0.17969
v 0.08715 -0.04197 0.18254
v 0.14996 0.00000 0.16755
v 0.13650 0.06573 0.16824
v 0.08808 0.11045 0.16363
v 0.02822 0.12366 0.15714
v -0.02919 0.12788 0.15909
v -0.09048 0.11346 0.16537
v -0.13345 0.06427 0.16672
v -0.14519 0.00000 0.16540
v -0.12955 -0.06239 0.16477
v -0.08790 -0.11022 0.16350
v -0.03049 -0.13360 0.16173
v 0.03034 -0.13293 0.16142
v 0.08684 -0.10889 0.16274
v 0.13037 -0.06278 0.16518
v 0.18514 0.00000 0.13730
v 0.16864 0.08121 0.13771
v 0.10346 0.12974 0.13343
v 0.03170 0.13889 0.12870
v -0.03478 0.15237 0.13148
v -0.11025 0.13825 0.13562
v -0.15625 0.07524 0.13494
v -0.16395 0.00000 0.13303
v -0.14814 -0.07134 0.13312
v -0.10731 -0.13457 0.13467
v -0.03886 -0.17026 0.13518
v 0.03826 -0.16762 0.13464
v 0.10627 -0.13326 0.13434
v 0.15878 -0.07647 0.13550
v 0.18974 0.00000 0.10000
v 0.17311 0.08336 0.10000
v 0.10387 0.13025 0.10000
v 0.03176 0.13913 0.10000
v -0.03602 0.15781 0.10000
v -0.11242 0.14096 0.10000
v -0.15523 0.07475 0.10000
v -0.16151 0.00000 0.10000
v -0.14799 -0.07127 0.10000
v -0.11258 -0.14117 0.10000
v -0.04164 -0.18245 0.10000
v 0.04013 -0.17582 0.10000
v 0.10809 -0.13554 0.10000
v 0.16071 -0.07739 0.10000
v 0.16945 0.00000 0.06586
v 0.15233 0.07336 0.06594
v 0.09410 0.11800 0.06959
v 0.03086 0.13523 0.07206
v -0.03463 0.15174 0.06865
v -0.10332 0.12956 0.06662
v -0.14144 0.06812 0.06837
v -0.14963 0.00000 0.06986
v -0.13738 -0.06616 0.06928
v -0.10249 -0.12851 0.06689
v -0.03760 -0.16474 0.06596
v 0.03635 -0.15926 0.06709
v 0.09796 -0.12283 0.06835
v 0.14501 -0.06983 0.06758
v 0.13537 0.00000 0.03902
v 0.11923 0.05742 0.04039
v 0.07857 0.09852 0.04324
v 0.02854 0.12505 0.04222
v -0.03154 0.13818 0.03615
v -0.09142 0.11463 0.03395
v -0.12678 0.06105 0.03661
v -0.13587 0.00000 0.03879
v -0.12130 -0.05842 0.03935
v -0.08450 -0.10596 0.03895
v -0.03018 -0.13225 0.03890
v 0.02982 -0.13065 0.03964
v 0.08224 -0.10313 0.04058
v 0.12014 -0.05786 0.03993
v 0.09247 0.00000 0.02109
v 0.08209 0.03953 0.02225
v 0.05764 0.07228 0.02110
v 0.02209 0.09676 0.01530
v -0.02408 0.10552 0.00764
v -0.06992 0.08767 0.00431
v -0.09946 0.04790 0.00579
v -0.10690 0.00000 0.00878
v -0.09277 -0.04468 0.01213
v -0.06178 -0.07747 0.01545
v -0.02147 -0.09407 0.01766
v 0.02120 -0.09289 0.01869
v 0.05885 -0.07379 0.01946
v 0.08434 -0.04062 0.02011
v 0.04824 0.00000 0.00796
v 0.04388 0.02113 0.00707
v 0.03137 0.03933 0.00400
v 0.01178 0.05163 -0.00105
v -0.01239 0.05428 -0.00625
v -0.03574 0.04481 -0.00937
v -0.05176 0.02493 -0.00963
v -0.05641 0.00000 -0.00764
v -0.04927 -0.02373 -0.00434
v -0.03291 -0.04126 -0.00071
v -0.01138 -0.04986 0.00242
v 0.01111 -0.04870 0.00469
v 0.03061 -0.03839 0.00631
v 0.04369 -0.02104 0.00747
v 0.00000 0.00000 -0.00472
v 0.00000 0.00000 -0.00472
v 0.00000 0.00000 -0.00472
v 0.00000 0.00000 -0.00472
v -0.00000 0.00000 -0.00472
v -0.00000 0.00000 -0.00472
v -0.00000 0.00000 -0.00472
v -0.00000 0.00000 -0.00472
v -0.00000 -0.00000 -0.00472
v -0.00000 -0.00000 -0.00472
v -0.00000 -0.00000 -0.00472
v 0.00000 -0.00000 -0.00472
v 0.00000 -0.00000 -0.00472
v 0.00000 -0.00000 -0.00472
vn 0.08220 -0.03461 0.99601
vn 0.04746 0.03780 0.99816
vn 0.00702 0.07001 0.99752
vn 0.01878 0.06732 0.99755
vn 0.05157 0.07470 0.99587
vn 0.04409 0.06876 0.99666
vn 0.02031 0.01931 0.99961
vn 0.02028 -0.05713 0.99816
vn 0.05220 -0.12332 0.99099
vn 0.08201 -0.14666 0.98578
vn 0.07350 -0.14484 0.98672
vn 0.05435 -0.14930 0.98730
vn 0.06222 -0.14312 0.98775
vn 0.08180 -0.10341 0.99127
vn 0.14147 -0.04370 0.98898
vn 0.11456 0.07357 0.99069
vn 0.05472 0.17590 0.98289
vn 0.02805 0.22319 0.97437
vn 0.01037 0.22336 0.97468
vn -0.04273 0.16988 0.98454
vn -0.09561 0.07894 0.99228
vn -0.10776 -0.04041 0.99336
vn -0.05711 -0.15855 0.98570
vn 0.01648 -0.22167 0.97498
vn 0.05680 -0.22872 0.97183
vn 0.07118 -0.21288 0.97448
vn 0.09324 -0.18354 0.97858
vn 0.12497 -0.12982 0.98363
vn 0.26858 -0.03100 0.96276
vn 0.22438 0.16694 0.96010
vn 0.10848 0.34964 0.93058
vn 0.04547 0.43221 0.90063
vn -0.01229 0.41402 0.91018
vn -0.15272 0.31817 0.93565
vn -0.30134 0.16729 0.93873
vn -0.35560 -0.03175 0.93410
vn -0.26404 -0.22720 0.93737
vn -0.10161 -0.32635 0.93977
vn 0.01278 -0.33137 0.94342
vn 0.07927 -0.31014 0.94738
vn 0.15389 -0.26965 0.95058
vn 0.23164 -0.17632 0.95669
vn 0.50518 -0.02164 0.86274
vn 0.41940 0.30853 0.85376
vn 0.21214 0.59176 0.77770
vn 0.10067 0.69783 0.70915
vn -0.02153 0.64735 0.76189
vn -0.30369 0.49643 0.81322
vn -0.57605 0.24669 0.77930
vn -0.68636 -0.03674 0.72633
vn -0.57727 -0.30736 0.75650
vn -0.30126 -0.46914 0.83015
vn -0.05366 -0.49954 0.86463
vn 0.12934 -0.48847 0.86294
vn 0.30172 -0.43539 0.84818
vn 0.44814 -0.27647 0.85014
vn 0.87211 -0.04328 0.48739
vn 0.71696 0.48872 0.49711
vn 0.34223 0.85225 0.39566
vn 0.16666 0.93683 0.30754
vn -0.02028 0.92132 0.38828
vn -0.50003 0.74889 0.43489
vn -0.87128 0.33386 0.35974
vn -0.96102 -0.04561 0.27271
vn -0.87795 -0.35881 0.31696
vn -0.56960 -0.65692 0.49398
vn -0.14361 -0.79499 0.58937
vn 0.23040 -0.79598 0.55976
vn 0.53302 -0.69966 0.47578
vn 0.76727 -0.45615 0.45080
vn 0.96934 -0.07202 -0.23492
vn 0.82727 0.51861 -0.21602
vn 0.39941 0.90566 -0.14234
vn 0.19006 0.97936 -0.06879
vn -0.01608 0.99670 -0.07953
vn -0.55964 0.81363 -0.15753
vn -0.91732 0.34420 -0.20011
vn -0.97761 -0.03919 -0.20673
vn -0.92208 -0.32718 -0.20670
vn -0.70163 -0.69424 -0.16047
vn -0.21746 -0.97151 -0.09428
vn 0.28632 -0.95283 -0.10073
vn 0.61224 -0.77174 -0.17199
vn 0.83349 -0.50610 -0.22171
vn 0.74314 -0.05970 -0.66646
vn 0.63675 0.37555 -0.67343
vn 0.39439 0.75189 -0.52831
vn 0.21986 0.93019 -0.29396
vn -0.03571 0.94901 -0.31322
vn -0.53776 0.72996 -0.42186
vn -0.84835 0.31046 -0.42885
vn -0.91073 -0.03834 -0.41123
vn -0.82340 -0.30616 -0.47779
vn -0.58300 -0.55442 -0.59391
vn -0.19184 -0.75494 -0.62711
vn 0.22799 -0.77424 -0.59040
vn 0.51760 -0.63855 -0.56952
vn 0.67876 -0.41146 -0.60827
vn 0.52584 -0.02786 -0.85013
vn 0.46215 0.25213 -0.85020
vn 0.38169 0.52332 -0.76187
vn 0.27612 0.74603 -0.60596
vn -0.01229 0.80378 -0.59480
vn -0.46786 0.62447 -0.62542
vn -0.75684 0.27756 -0.59174
vn -0.81155 -0.05292 -0.58188
vn -0.68558 -0.32155 -0.65314
vn -0.43205 -0.47364 -0.76746
vn -0.14213 -0.55239 -0.82138
vn 0.14661 -0.56409 -0.81259
vn 0.38304 -0.47671 -0.79122
vn 0.50536 -0.29014 -0.81267
vn 0.36161 -0.00424 -0.93232
vn 0.35321 0.15066 -0.92334
vn 0.35288 0.29302 -0.88860
vn 0.29675 0.42543 -0.85495
vn 0.08446 0.48414 -0.87091
vn -0.24262 0.39737 -0.88501
vn -0.47900 0.17849 -0.85948
vn -0.53324 -0.06980 -0.84308
vn -0.43528 -0.28184 -0.85504
vn -0.25430 -0.39208 -0.88409
vn -0.07058 -0.41161 -0.90862
vn 0.09987 -0.38319 -0.91826
vn 0.25235 -0.30406 -0.91862
vn 0.34009 -0.16871 -0.92514
vn 0.27307 -0.01778 -0.96183
vn 0.29360 0.05363 -0.95442
vn 0.30914 0.11253 -0.94434
vn 0.28167 0.16386 -0.94542
vn 0.16875 0.19244 -0.96669
vn -0.00555 0.15531 -0.98785
vn -0.14226 0.04879 -0.98863
vn -0.18718 -0.08009 -0.97905
vn -0.15196 -0.19567 -0.96883
vn -0.06880 -0.26651 -0.96137
vn 0.02348 -0.27931 -0.95991
vn 0.11099 -0.24952 -0.96199
vn 0.19234 -0.18700 -0.96335
vn 0.24610 -0.10240 -0.96382
vn 0.25403 -0.03271 -0.96664
vn 0.25415 0.01155 -0.96710
vn 0.25405 0.01176 -0.96712
vn 0.25561 0.01043 -0.96672
vn 0.21249 0.02100 -0.97694
vn 0.13183 0.00219 -0.99127
vn 0.07261 -0.04556 -0.99632
vn 0.05151 -0.08906 -0.99469
vn 0.05133 -0.12217 -0.99118
vn 0.06293 -0.14620 -0.98725
vn 0.07922 -0.15889 -0.98411
vn 0.10752 -0.16482 -0.98045
vn 0.16146 -0.15149 -0.97518
vn 0.22151 -0.10205 -0.96980
f 1//1 15//15 16//16
f 1//1 16//16 2//2
f 2//2 16//16 17//17
f 2//2 17//17 3//3
f 3//3 17//17 18//18
f 3//3 18//18 4//4
f 4//4 18//18 19//19
f 4//4 19//19 5//5
f 5//5 19//19 20//20
f 5//5 20//20 6//6
f 6//6 20//20 21//21
f 6//6 21//21 7//7
f 7//7 21//21 22//22
f 7//7 22//22 8//8
f 8//8 22//22 23//23
f 8//8 23//23 9//9
f 9//9 23//23 24//24
f 9//9 24//24 10//10
f 10//10 24//24 25//25
f 10//10 25//25 11//11
f 11//11 25//25 26//26
f 11//11 26//26 12//12
f 12//12 26//26 27//27
f 12//12 27//27 13//13
f 13//13 27//27 28//28
f 13//13 28//28 14//14
f 14//14 28//28 15//15
f 14//14 15//15 1//1
f 15//15 29//29 30//30
f 15//15 30//30 16//16
f 16//16 30//30 31//31
f 16//16 31//31 17//17
f 17//17 31//31 32//32
f 17//17 32//32 18//18
f 18//18 32//32 33//33
f 18//18 33//33 19//19
f 19//19 33//33 34//34
f 19//19 34//34 20//20
f 20//20 34//34 35//35
f 20//20 35//35 21//21
f 21//21 35//35 36//36
f 21//21 36//36 22//22
f 22//22 36//36 37//37
f 22//22 37//37 23//23
f 23//23 37//37 38//38
f 23//23 38//38 24//24
f 24//24 38//38 39//39
f 24//24 39//39 25//25
f 25//25 39//39 40//40
f 25//25 40//40 26//26
f 26//26 40//40 41//41
f 26//26 41//41 27//27
f 27//27 41//41 42//42
f 27//27 42//42 28//28
f 28//28 42//42 29//29
f 28//28 29//29 15//15
f 29//29 43//43 44//44
f 29//29 44//44 30//30
f 30//30 44//44 45//45
f 30//30 45//45 31//31
f 31//31 45//45 46//46
f 31//31 46//46 32//32
f 32//32 46//46 47//47
f 32//32 47//47 33//33
f 33//33 47//47 48//48
f 33//33 48//48 34//34
f 34//34 48//48 49//49
f 34//34 49//49 35//35
f 35//35 49//49 50//50
f 35//35 50//50 36//36
f 36//36 50//50 51//51
f 36//36 51//51 37//37
f 37//37 51//51 52//52
f 37//37 52//52 38//38
f 38//38 52//52 53//53
f 38//38 53//53 39//39
f 39//39 53//53 54//54
f 39//39 54//54 40//40
f 40//40 54//54 55//55
f 40//40 55//55 41//41
f 41//41 55//55 56//56
f 41//41 56//56 42//42
f 42//42 56//56 43//43
f 42//42 43//43 29//29
f 43//43 57//57 58//58
f 43//43 58//58 44//44
f 44//44 58//58 59//59
f 44//44 59//59 45//45
f 45//45 59//59 60//60
f 45//45 60//60 46//46
f 46//46 60//60 61//61
f 46//46 61//61 47//47
f 47//47 61//61 62//62
f 47//47 62//62 48//48
f 48//48 62//62 63//63
f 48//48 63//63 49//49
f 49//49 63//63 64//64
f 49//49 64//64 50//50
f 50//50 64//64 65//65
f 50//50 65//65 51//51
f 51//51 65//65 66//66
f 51//51 66//66 52//52
f 52//52 66//66 67//67
f 52//52 67//67 53//53
f 53//53 67//67 68//68
f 53//53 68//68 54//54
f 54//54 68//68 69//69
f 54//54 69//69 55//55
f 55//55 69//69 70//70
f 55//55 70//70 56//56
f 56//56 70//70 57//57
f 56//56 57//57 43//43
f 57//57 71//71 72//72
f 57//57 72//72 58//58
f 58//58 72//72 73//73
f 58//58 73//73 59//59
f 59//59 73//73 74//74
f 59//59 74//74 60//60
f 60//60 74//74 75//75
f 60//60 75//75 61//61
f 61//61 75//75 76//76
f 61//61 76//76 62//62
f 62//62 76//76 77//77
f 62//62 77//77 63//63
f 63//63 77//77 78//78
f 63//63 78//78 64//64
f 64//64 78//78 79//79
f 64//64 79//79 65//65
f 65//65 79//79 80//80
f 65//65 80//80 66//66
f 66//66 80//80 81//81
f 66//66 81//81 67//67
f 67//67 81//81 82//82
f 67//67 82//82 68//68
f 68//68 82//82 83//83
f 68//68 83//83 69//69
f 69//69 83//83 84//84
f 69//69 84//84 70//70
f 70//70 84//84 71//71
f 70//70 71//71 57//57
f 71//71 85//85 86//86
f 71//71 86//86 72//72
f 72//72 86//86 87//87
f 72//72 87//87 73//73
f 73//73 87//87 88//88
f 73//73 88//88 74//74
f 74//74 88//88 89//89
f 74//74 89//89 75//75
f 75//75 89//89 90//90
f 75//75 90//90 76//76
f 76//76 90//90 91//91
f 76//76 91//91 77//77
f 77//77 91//91 92//92
f 77//77 92//92 78//78
f 78//78 92//92 93//93
f 78//78 93//93 79//79
f 79//79 93//93 94//94
f 79//79 94//94 80//80
f 80//80 94//94 95//95
f 80//80 95//95 81//81
f 81//81 95//95 96//96
f 81//81 96//96 82//82
f 82//82 96//96 97//97
f 82//82 97//97 83//83
f 83//83 97//97 98//98
f 83//83 98//98 84//84
f 84//84 98//98 85//85
f 84//84 85//85 71//71
f 85//85 99//99 100//100
f 85//85 100//100 86//86
f 86//86 100//100 101//101
f 86//86 101//101 87//87
f 87//87 101//101 102//102
f 87//87 102//102 88//88
f 88//88 102//102 103//103
f 88//88 103//103 89//89
f 89//89 103//103 104//104
f 89//89 104//104 90//90
f 90//90 104//104 105//105
f 90//90 105//105 91//91
f 91//91 105//105 106//106
f 91//91 106//106 92//92
f 92//92 106//106 107//107
f 92//92 107//107 93//93
f 93//93 107//107 108//108
f 93//93 108//108 94//94
f 94//94 108//108 109//109
f 94//94 109//109 95//95
f 95//95 109//109 110//110
f 95//95 110//110 96//96
f 96//96 110//110 111//111
f 96//96 111//111 97//97
f 97//97 111//111 112//112
f 97//97 112//112 98//98
f 98//98 112//112 99//99
f 98//98 99//99 85//85
f 99//99 113//113 114//114
f 99//99 114//114 100//100
f 100//100 114//114 115//115
f 100//100 115//115 101//101
f 101//101 115//115 116//116
f 101//101 116//116 102//102
f 102//102 116//116 117//117
f 102//102 117//117 103//103
f 103//103 117//117 118//118
f 103//103 118//118 104//104
f 104//104 118//118 119//119
f 104//104 119//119 105//105
f 105//105 119//119 120//120
f 105//105 120//120 106//106
f 106//106 120//120 121//121
f 106//106 121//121 107//107
f 107//107 121//121 122//122
f 107//107 122//122 108//108
f 108//108 122//122 123//123
f 108//108 123//123 109//109
f 109//109 123//123 124//124
f 109//109 124//124 110//110
f 110//110 124//124 125//125
f 110//110 125//125 111//111
f 111//111 125//125 126//126
f 111//111 126//126 112//112
f 112//112 126//126 113//113
f 112//112 113//113 99//99
f 113//113 127//127 128//128
f 113//113 128//128 114//114
f 114//114 128//128 129//129
f 114//114 129//129 115//115
f 115//115 129//129 130//130
f 115//115 130//130 116//116
f 116//116 130//130 131//131
f 116//116 131//131 117//117
f 117//117 131//131 132//132
f 117//117 132//132 118//118
f 118//118 132//132 133//133
f 118//118 133//133 119//119
f 119//119 133//133 134//134
f 119//119 134//134 120//120
f 120//120 134//134 135//135
f 120//120 135//135 121//121
f 121//121 135//135 136//136
f 121//121 136//136 122//122
f 122//122 136//136 137//137
f 122//122 137//137 123//123
f 123//123 137//137 138//138
f 123//123 138//138 124//124
f 124//124 138//138 139//139
f 124//124 139//139 125//125
f 125//125 139//139 140//140
f 125//125 140//140 126//126
f 126//126 140//140 127//127
f 126//126 127//127 113//113
f 127//127 141//141 142//142
f 127//127 142//142 128//128
f 128//128 142//142 143//143
f 128//128 143//143 129//129
f 129//129 143//143 144//144
f 129//129 144//144 130//130
f 130//130 144//144 145//145
f 130//130 145//145 131//131
f 131//131 145//145 146//146
f 131//131 146//146 132//132
f 132//132 146//146 147//147
f 132//132 147//147 133//133
f 133//133 147//147 148//148
f 133//133 148//148 134//134
f 134//134 148//148 149//149
f 134//134 149//149 135//135
f 135//135 149//149 150//150
f 135//135 150//150 136//136
f 136//136 150//150 151//151
f 136//136 151//151 137//137
f 137//137 151//151 152//152
f 137//137 152//152 138//138
f 138//138 152//152 153//153
f 138//138 153//153 139//139
f 139//139 153//153 154//154
f 139//139 154//154 140//140
f 140//140 154//154 141//141
f 140//140 141//141 127//127
