# generated by scripts/make_scenery.py
v -0.03778 0.07821 0.00000
v -0.03778 0.06681 0.13000
v -0.06124 0.06691 0.00000
v -0.05233 0.05980 0.13000
v -0.06703 0.04153 0.00000
v -0.05592 0.04407 0.13000
v -0.05080 0.02118 0.00000
v -0.04586 0.03145 0.13000
v -0.02477 0.02118 0.00000
v -0.02971 0.03145 0.13000
v -0.00854 0.04153 0.00000
v -0.01965 0.04407 0.13000
v -0.01433 0.06691 0.00000
v -0.02324 0.05980 0.13000
v -0.03156 0.06574 0.13000
v -0.10179 0.08316 0.18029
v -0.04175 0.06192 0.11808
v -0.10810 0.08080 0.17290
v -0.04895 0.04778 0.11513
v -0.11257 0.07203 0.17107
v -0.04775 0.03396 0.12338
v -0.11182 0.06346 0.17619
v -0.03904 0.03087 0.13662
v -0.10642 0.06154 0.18439
v -0.02938 0.04083 0.14487
v -0.10043 0.06772 0.18951
v -0.02606 0.05635 0.14192
v -0.09837 0.07734 0.18768
v -0.09636 0.07914 0.18029
v -0.12667 0.11281 0.21322
v -0.10302 0.08084 0.17301
v -0.13079 0.11386 0.20870
v -0.11165 0.07610 0.17121
v -0.13614 0.11092 0.20759
v -0.11575 0.06850 0.17625
v -0.13869 0.10621 0.21071
v -0.11225 0.06375 0.18433
v -0.13651 0.10326 0.21572
v -0.10377 0.06543 0.18937
v -0.13126 0.10431 0.21885
v -0.09670 0.07228 0.18757
v -0.12687 0.10856 0.21773
v -0.12550 0.11035 0.21322
v -0.13819 0.14855 0.23260
v -0.12871 0.11203 0.20818
v -0.14019 0.14959 0.22948
v -0.13472 0.11110 0.20694
v -0.14391 0.14901 0.22871
v -0.13899 0.10825 0.21042
v -0.14656 0.14725 0.23087
v -0.13832 0.10564 0.21601
v -0.14614 0.14563 0.23434
v -0.13320 0.10523 0.21949
v -0.14297 0.14537 0.23649
v -0.12749 0.10733 0.21825
v -0.13943 0.14667 0.23572
v -0.13242 0.11544 0.21518
v -0.12067 0.10110 0.25547
v -0.13781 0.11244 0.21587
v -0.12401 0.09925 0.25590
v -0.13914 0.10652 0.21456
v -0.12484 0.09558 0.25509
v -0.13541 0.10214 0.21224
v -0.12252 0.09286 0.25365
v -0.12943 0.10259 0.21066
v -0.11881 0.09314 0.25267
v -0.12570 0.10754 0.21100
v -0.11650 0.09621 0.25288
v -0.12703 0.11326 0.21301
v -0.11733 0.09975 0.25413
v -0.10736 0.08370 0.18029
v -0.15948 0.07140 0.23209
v -0.11292 0.07846 0.17382
v -0.16293 0.06816 0.22808
v -0.11300 0.06859 0.17222
v -0.16297 0.06203 0.22709
v -0.10754 0.06150 0.17670
v -0.15959 0.05764 0.22986
v -0.10065 0.06254 0.18388
v -0.15531 0.05828 0.23431
v -0.09752 0.07092 0.18836
v -0.15337 0.06348 0.23709
v -0.10051 0.08034 0.18676
v -0.15523 0.06932 0.23610
v -0.15781 0.07145 0.23209
v -0.20390 0.07261 0.25026
v -0.16008 0.06894 0.22689
v -0.20531 0.07105 0.24704
v -0.16110 0.06296 0.22560
v -0.20594 0.06734 0.24624
v -0.16009 0.05801 0.22920
v -0.20531 0.06427 0.24847
v -0.15782 0.05781 0.23497
v -0.20390 0.06415 0.25205
v -0.15599 0.06253 0.23857
v -0.20277 0.06707 0.25428
v -0.15599 0.06860 0.23729
v -0.20277 0.07084 0.25349
v -0.16534 0.06610 0.23209
v -0.17164 0.03045 0.25897
v -0.16356 0.06220 0.22760
v -0.17054 0.02803 0.25619
v -0.15790 0.05990 0.22650
v -0.16703 0.02661 0.25550
v -0.15263 0.06094 0.22960
v -0.16376 0.02725 0.25742
v -0.15171 0.06453 0.23458
v -0.16319 0.02948 0.26051
v -0.15584 0.06797 0.23768
v -0.16575 0.03161 0.26243
v -0.16190 0.06867 0.23657
v -0.16951 0.03204 0.26175
v -0.11359 0.08065 0.18029
v -0.14443 0.04528 0.21885
v -0.11476 0.07355 0.17334
v -0.14516 0.04087 0.21454
v -0.10906 0.06550 0.17162
v -0.14162 0.03588 0.21348
v -0.10079 0.06257 0.17643
v -0.13650 0.03407 0.21646
v -0.09618 0.06696 0.18415
v -0.13364 0.03679 0.22125
v -0.09869 0.07536 0.18896
v -0.13519 0.04200 0.22423
v -0.10644 0.08146 0.18725
v -0.14000 0.04578 0.22317
v -0.13950 0.04719 0.21976
v -0.15575 0.03958 0.25786
v -0.14466 0.04479 0.21727
v -0.15895 0.03809 0.25632
v -0.14593 0.03886 0.21598
v -0.15974 0.03442 0.25552
v -0.14237 0.03386 0.21685
v -0.15753 0.03131 0.25606
v -0.13664 0.03355 0.21923
v -0.15398 0.03113 0.25753
v -0.13308 0.03818 0.22133
v -0.15177 0.03399 0.25883
v -0.13435 0.04424 0.22156
v -0.15256 0.03775 0.25898
v -0.14307 0.04629 0.21885
v -0.16442 0.03087 0.25086
v -0.14548 0.04180 0.21531
v -0.16591 0.02809 0.24867
v -0.14339 0.03602 0.21444
v -0.16461 0.02451 0.24812
v -0.13837 0.03331 0.21689
v -0.16150 0.02283 0.24964
v -0.13421 0.03571 0.22082
v -0.15892 0.02431 0.25208
v -0.13404 0.04141 0.22327
v -0.15881 0.02784 0.25360
v -0.13798 0.04612 0.22239
v -0.16126 0.03076 0.25306
v -0.03778 0.06618 0.13481
v -0.02144 0.03243 0.23364
v -0.05215 0.05883 0.13517
v -0.03035 0.02787 0.23387
v -0.05570 0.04348 0.13165
v -0.03255 0.01836 0.23168
v -0.04576 0.03170 0.12688
v -0.02639 0.01105 0.22873
v -0.02981 0.03234 0.12446
v -0.01650 0.01145 0.22723
v -0.01987 0.04494 0.12622
v -0.01034 0.01926 0.22832
v -0.02342 0.05999 0.13082
v -0.01254 0.02859 0.23117
v -0.03155 0.02684 0.23066
v -0.06062 -0.03517 0.27412
v -0.03007 0.02051 0.22305
v -0.05971 -0.03910 0.26940
v -0.02210 0.01476 0.22117
v -0.05476 -0.04266 0.26824
v -0.01363 0.01393 0.22644
v -0.04951 -0.04318 0.27150
v -0.01104 0.01864 0.23488
v -0.04791 -0.04026 0.27674
v -0.01629 0.02534 0.24015
v -0.05116 -0.03611 0.28000
v -0.02541 0.02899 0.23827
v -0.05682 -0.03384 0.27884
v -0.06086 -0.04158 0.27412
v -0.04435 -0.07126 0.31829
v -0.05657 -0.04450 0.27072
v -0.04169 -0.07307 0.31618
v -0.05061 -0.04299 0.26988
v -0.03799 -0.07213 0.31566
v -0.04747 -0.03819 0.27223
v -0.03605 -0.06915 0.31712
v -0.04952 -0.03370 0.27601
v -0.03731 -0.06637 0.31946
v -0.05520 -0.03292 0.27836
v -0.04084 -0.06589 0.32092
v -0.06025 -0.03643 0.27752
v -0.04397 -0.06806 0.32040
v -0.06122 -0.03663 0.27412
v -0.07272 -0.08625 0.30716
v -0.05948 -0.04031 0.26943
v -0.07164 -0.08853 0.30426
v -0.05388 -0.04271 0.26828
v -0.06817 -0.09002 0.30354
v -0.04864 -0.04203 0.27152
v -0.06492 -0.08959 0.30555
v -0.04770 -0.03878 0.27672
v -0.06434 -0.08758 0.30878
v -0.05177 -0.03541 0.27997
v -0.06686 -0.08549 0.31079
v -0.05779 -0.03445 0.27881
v -0.07059 -0.08490 0.31007
v -0.02336 0.00992 0.23066
v 0.05575 0.00100 0.26107
v -0.01946 0.01366 0.22224
v 0.05816 0.00332 0.25585
v -0.01705 0.02315 0.22016
v 0.05966 0.00921 0.25456
v -0.01795 0.03123 0.22599
v 0.05910 0.01422 0.25818
v -0.02148 0.03183 0.23533
v 0.05692 0.01459 0.26397
v -0.02498 0.02449 0.24116
v 0.05475 0.01004 0.26758
v -0.02582 0.01473 0.23908
v 0.05422 0.00399 0.26629
v 0.05123 0.00375 0.26107
v 0.08916 -0.04210 0.29097
v 0.05489 0.00336 0.25608
v 0.09143 -0.04234 0.28788
v 0.06009 0.00651 0.25485
v 0.09466 -0.04039 0.28711
v 0.06292 0.01081 0.25830
v 0.09641 -0.03772 0.28925
v 0.06124 0.01304 0.26384
v 0.09537 -0.03634 0.29269
v 0.05632 0.01151 0.26730
v 0.09232 -0.03729 0.29483
v 0.05186 0.00738 0.26607
v 0.08956 -0.03985 0.29407
v 0.05451 0.00133 0.26107
v 0.10906 -0.01545 0.27820
v 0.05694 0.00331 0.25572
v 0.11057 -0.01422 0.27488
v 0.05936 0.00887 0.25440
v 0.11207 -0.01077 0.27407
v 0.05996 0.01381 0.25810
v 0.11244 -0.00771 0.27636
v 0.05828 0.01441 0.26404
v 0.11140 -0.00734 0.28005
v 0.05559 0.01023 0.26775
v 0.10973 -0.00993 0.28234
v 0.05391 0.00440 0.26643
v 0.10869 -0.01354 0.28152
v 0.05580 0.04092 0.00000
v 0.05580 0.02952 0.13000
v 0.03234 0.02962 0.00000
v 0.04126 0.02252 0.13000
v 0.02655 0.00424 0.00000
v 0.03767 0.00678 0.13000
v 0.04278 -0.01611 0.00000
v 0.04773 -0.00584 0.13000
v 0.06882 -0.01611 0.00000
v 0.06387 -0.00584 0.13000
v 0.08505 0.00424 0.00000
v 0.07393 0.00678 0.13000
v 0.07925 0.02962 0.00000
v 0.07034 0.02252 0.13000
v 0.06127 -0.00686 0.13000
v 0.11690 0.01765 0.19946
v 0.06970 0.00306 0.12046
v 0.12213 0.02380 0.19354
v 0.06766 0.01890 0.11810
v 0.12086 0.03362 0.19208
v 0.05669 0.02873 0.12471
v 0.11406 0.03972 0.19617
v 0.04505 0.02515 0.13529
v 0.10684 0.03750 0.20274
v 0.04150 0.01085 0.14190
v 0.10464 0.02863 0.20683
v 0.04872 -0.00339 0.13954
v 0.10912 0.01980 0.20537
v 0.11351 0.04000 0.19726
v 0.10834 0.04944 0.26902
v 0.10452 0.03561 0.19746
v 0.10276 0.04672 0.26914
v 0.10229 0.02600 0.19916
v 0.10139 0.04077 0.27019
v 0.10852 0.01841 0.20108
v 0.10525 0.03606 0.27139
v 0.11850 0.01854 0.20178
v 0.11143 0.03614 0.27182
v 0.12472 0.02631 0.20073
v 0.11529 0.04096 0.27117
v 0.12250 0.03586 0.19872
v 0.11392 0.04688 0.26992
v 0.10834 0.04944 0.26901
v 0.10965 0.05756 0.32502
v 0.10275 0.04682 0.26965
v 0.10618 0.05594 0.32541
v 0.10137 0.04089 0.27084
v 0.10533 0.05226 0.32615
v 0.10524 0.03611 0.27168
v 0.10772 0.04930 0.32667
v 0.11144 0.03609 0.27154
v 0.11157 0.04928 0.32658
v 0.11531 0.04083 0.27052
v 0.11397 0.05222 0.32595
v 0.11393 0.04677 0.26940
v 0.11311 0.05591 0.32526
v 0.11520 0.04445 0.27038
v 0.10538 0.06807 0.30758
v 0.11131 0.04811 0.26722
v 0.10297 0.07034 0.30563
v 0.10518 0.04749 0.26644
v 0.09917 0.06996 0.30514
v 0.10144 0.04305 0.26863
v 0.09685 0.06721 0.30650
v 0.10289 0.03814 0.27213
v 0.09775 0.06416 0.30867
v 0.10845 0.03645 0.27431
v 0.10119 0.06312 0.31002
v 0.11392 0.03926 0.27353
v 0.10459 0.06486 0.30954
v 0.12083 0.01976 0.19946
v 0.16052 0.05803 0.22395
v 0.12091 0.02545 0.19122
v 0.16057 0.06155 0.21884
v 0.11542 0.03356 0.18919
v 0.15716 0.06659 0.21758
v 0.10849 0.03800 0.19489
v 0.15287 0.06933 0.22112
v 0.10534 0.03541 0.20403
v 0.15092 0.06773 0.22678
v 0.10834 0.02775 0.20972
v 0.15278 0.06298 0.23032
v 0.11524 0.02079 0.20769
v 0.15705 0.05867 0.22906
v 0.15979 0.05751 0.22395
v 0.18685 0.07777 0.24881
v 0.16116 0.06155 0.21945
v 0.18770 0.08028 0.24602
v 0.15863 0.06711 0.21834
v 0.18614 0.08372 0.24533
v 0.15410 0.06999 0.22145
v 0.18333 0.08551 0.24726
v 0.15099 0.06802 0.22645
v 0.18140 0.08429 0.25036
v 0.15163 0.06269 0.22956
v 0.18179 0.08099 0.25229
v 0.15555 0.05801 0.22845
v 0.18422 0.07808 0.25160
v 0.15903 0.05709 0.22395
v 0.19196 0.07563 0.24577
v 0.16042 0.06072 0.21911
v 0.19282 0.07788 0.24277
v 0.15846 0.06648 0.21792
v 0.19161 0.08146 0.24203
v 0.15464 0.07004 0.22126
v 0.18923 0.08366 0.24410
v 0.15183 0.06872 0.22663
v 0.18749 0.08284 0.24743
v 0.15214 0.06350 0.22998
v 0.18769 0.07961 0.24951
v 0.15535 0.05833 0.22879
v 0.18968 0.07640 0.24877
v 0.10202 0.02764 0.19946
v 0.11107 -0.02409 0.25344
v 0.10693 0.02158 0.19318
v 0.11411 -0.02785 0.24955
v 0.11679 0.02087 0.19163
v 0.12022 -0.02830 0.24859
v 0.12418 0.02603 0.19597
v 0.12481 -0.02509 0.25128
v 0.12354 0.03318 0.20294
v 0.12441 -0.02066 0.25560
v 0.11534 0.03694 0.20728
v 0.11933 -0.01833 0.25829
v 0.10577 0.03448 0.20573
v 0.11339 -0.01985 0.25733
v 0.11430 -0.02945 0.25344
v 0.15184 -0.05060 0.28928
v 0.11876 -0.02914 0.24915
v 0.15461 -0.05041 0.28662
v 0.12280 -0.02455 0.24809
v 0.15712 -0.04756 0.28596
v 0.12337 -0.01913 0.25106
v 0.15747 -0.04420 0.28780
v 0.12004 -0.01697 0.25582
v 0.15540 -0.04286 0.29076
v 0.11532 -0.01969 0.25880
v 0.15248 -0.04455 0.29260
v 0.11276 -0.02524 0.25774
v 0.15089 -0.04799 0.29194
v 0.11819 -0.01638 0.25242
v 0.12598 -0.01068 0.31100
v 0.11265 -0.01894 0.25353
v 0.12255 -0.01227 0.31169
v 0.11128 -0.02490 0.25457
v 0.12170 -0.01597 0.31234
v 0.11512 -0.02977 0.25476
v 0.12408 -0.01899 0.31245
v 0.12127 -0.02989 0.25396
v 0.12789 -0.01906 0.31195
v 0.12510 -0.02516 0.25276
v 0.13027 -0.01613 0.31121
v 0.12373 -0.01915 0.25208
v 0.12942 -0.01240 0.31079
v 0.05580 0.02930 0.12717
v 0.03824 0.03747 0.22657
v 0.04148 0.02200 0.12574
v 0.02937 0.03294 0.22568
v 0.03794 0.00635 0.12752
v 0.02717 0.02324 0.22679
v 0.04785 -0.00586 0.13117
v 0.03332 0.01567 0.22905
v 0.06375 -0.00543 0.13394
v 0.04317 0.01594 0.23077
v 0.07366 0.00731 0.13374
v 0.04932 0.02384 0.23065
v 0.07012 0.02277 0.13073
v 0.04712 0.03342 0.22878
v 0.03824 0.03760 0.22804
v 0.01232 0.03496 0.29677
v 0.02981 0.03318 0.22496
v 0.00709 0.03221 0.29486
v 0.02773 0.02341 0.22442
v 0.00580 0.02616 0.29453
v 0.03356 0.01564 0.22682
v 0.00942 0.02134 0.29602
v 0.04292 0.01573 0.23036
v 0.01522 0.02140 0.29821
v 0.04876 0.02361 0.23236
v 0.01884 0.02628 0.29945
v 0.04668 0.03334 0.23133
v 0.01755 0.03231 0.29881
v 0.01675 0.03342 0.29695
v -0.01072 0.05169 0.33992
v 0.01160 0.03406 0.29355
v -0.01392 0.05209 0.33782
v 0.00699 0.03000 0.29271
v -0.01678 0.04957 0.33730
v 0.00639 0.02428 0.29506
v -0.01715 0.04603 0.33875
v 0.01025 0.02123 0.29884
v -0.01475 0.04413 0.34109
v 0.01567 0.02313 0.30119
v -0.01139 0.04531 0.34255
v 0.01857 0.02855 0.30035
v -0.00960 0.04867 0.34203
v 0.01232 0.03493 0.29754
v -0.00534 0.02775 0.35121
v 0.00700 0.03239 0.29559
v -0.00863 0.02617 0.35000
v 0.00569 0.02640 0.29466
v -0.00945 0.02246 0.34942
v 0.00937 0.02147 0.29546
v -0.00717 0.01940 0.34992
v 0.01527 0.02131 0.29738
v -0.00351 0.01930 0.35111
v 0.01894 0.02604 0.29897
v -0.00123 0.02224 0.35210
v 0.01763 0.03211 0.29905
v -0.00205 0.02600 0.35214
v 0.03824 0.03715 0.23155
v 0.02890 0.01545 0.29034
v 0.02933 0.03335 0.22906
v 0.02338 0.01310 0.28879
v 0.02712 0.02408 0.22602
v 0.02201 0.00735 0.28690
v 0.03330 0.01631 0.22471
v 0.02584 0.00253 0.28609
v 0.04319 0.01589 0.22613
v 0.03197 0.00228 0.28697
v 0.04936 0.02315 0.22921
v 0.03580 0.00677 0.28888
v 0.04716 0.03261 0.23162
v 0.03443 0.01264 0.29038
v 0.03557 0.00600 0.28834
v 0.04605 0.04044 0.30079
v 0.03372 0.00868 0.28305
v 0.04490 0.04210 0.29751
v 0.02825 0.01130 0.28175
v 0.04151 0.04372 0.29670
v 0.02327 0.01187 0.28540
v 0.03842 0.04408 0.29897
v 0.02253 0.00998 0.29127
v 0.03796 0.04290 0.30260
v 0.02659 0.00704 0.29492
v 0.04048 0.04108 0.30487
v 0.03239 0.00527 0.29362
v 0.04408 0.03998 0.30406
v 0.03431 0.00391 0.28834
v 0.05083 0.02711 0.31849
v 0.03494 0.00875 0.28451
v 0.05123 0.03011 0.31611
v 0.03103 0.01347 0.28356
v 0.04880 0.03304 0.31553
v 0.02552 0.01452 0.28621
v 0.04539 0.03369 0.31717
v 0.02256 0.01110 0.29046
v 0.04355 0.03157 0.31981
v 0.02437 0.00580 0.29311
v 0.04468 0.02828 0.32145
v 0.02960 0.00259 0.29217
v 0.04792 0.02629 0.32086
v 0.04019 0.01471 0.22833
v 0.10651 0.03051 0.27595
v 0.04455 0.01986 0.22094
v 0.10921 0.03370 0.27137
v 0.04417 0.02969 0.21912
v 0.10897 0.03980 0.27024
v 0.03932 0.03680 0.22423
v 0.10597 0.04421 0.27341
v 0.03366 0.03583 0.23243
v 0.10246 0.04361 0.27849
v 0.03146 0.02752 0.23754
v 0.10109 0.03845 0.28166
v 0.03436 0.01812 0.23571
v 0.10289 0.03262 0.28053
v 0.10898 0.03143 0.27595
v 0.13252 0.04871 0.32594
v 0.11174 0.03622 0.27314
v 0.13423 0.05168 0.32419
v 0.10965 0.04202 0.27245
v 0.13293 0.05528 0.32376
v 0.10429 0.04446 0.27439
v 0.12961 0.05679 0.32497
v 0.09969 0.04170 0.27751
v 0.12675 0.05508 0.32690
v 0.09932 0.03582 0.27945
v 0.12652 0.05144 0.32811
v 0.10345 0.03125 0.27876
v 0.12909 0.04860 0.32768
v 0.11138 0.03379 0.27595
v 0.13443 0.07617 0.32054
v 0.11109 0.03844 0.27185
v 0.13425 0.07905 0.31799
v 0.10644 0.04242 0.27083
v 0.13137 0.08152 0.31737
v 0.10093 0.04274 0.27367
v 0.12796 0.08172 0.31913
v 0.09871 0.03916 0.27823
v 0.12658 0.07950 0.32195
v 0.10145 0.03437 0.28107
v 0.12828 0.07653 0.32371
v 0.10709 0.03198 0.28005
v 0.13177 0.07505 0.32308
v 0.09840 0.03568 0.27595
v 0.10854 0.00871 0.33061
v 0.10230 0.03161 0.27335
v 0.11096 0.00619 0.32900
v 0.10845 0.03202 0.27271
v 0.11478 0.00644 0.32860
v 0.11224 0.03659 0.27451
v 0.11712 0.00928 0.32972
v 0.11080 0.04190 0.27739
v 0.11623 0.01256 0.33151
v 0.10522 0.04393 0.27919
v 0.11277 0.01382 0.33262
v 0.09970 0.04116 0.27855
v 0.10935 0.01211 0.33222
vn 0.11280 -0.98982 -0.08680
vn -0.20942 -0.97409 -0.08542
vn 0.84420 -0.52895 -0.08680
vn 0.63100 -0.77106 -0.08542
vn 0.93990 0.33023 -0.08680
vn 0.99627 0.01259 -0.08542
vn 0.32784 0.94074 -0.08680
vn 0.61132 0.78676 -0.08542
vn -0.53110 0.84285 -0.08680
vn -0.23396 0.96849 -0.08542
vn -0.99010 0.11028 -0.08680
vn -0.90307 0.42092 -0.08542
vn -0.70354 -0.70533 -0.08680
vn -0.89214 -0.44360 -0.08542
vn -0.20879 -0.97684 0.04689
vn -0.37848 -0.89989 -0.21670
vn 0.34037 -0.68242 0.64688
vn 0.14324 -0.86950 0.47270
vn 0.67960 0.10941 0.72538
vn 0.60273 -0.20056 0.77233
vn 0.55344 0.80240 0.22329
vn 0.65398 0.60321 0.45656
vn 0.05691 0.87470 -0.48131
vn 0.25841 0.93656 -0.23683
vn -0.43611 0.27188 -0.85784
vn -0.28612 0.54846 -0.78570
vn -0.55436 -0.55213 -0.62277
vn -0.56956 -0.26883 -0.77674
vn -0.72008 -0.69241 0.04530
vn -0.82095 -0.52924 -0.21437
vn -0.09263 -0.76578 0.63639
vn -0.36288 -0.80763 0.46481
vn 0.63266 -0.30055 0.71373
vn 0.39608 -0.51530 0.75999
vn 0.90963 0.35296 0.21909
vn 0.88442 0.12763 0.44890
vn 0.52971 0.70265 -0.47507
vn 0.73441 0.63701 -0.23420
vn -0.22100 0.48518 -0.84602
vn 0.05902 0.62928 -0.77494
vn -0.77721 -0.13567 -0.61444
vn -0.63319 0.11025 -0.76611
vn -0.93414 -0.34883 0.07551
vn -0.95422 -0.20816 -0.21480
vn -0.40725 -0.54151 0.73547
vn -0.66555 -0.51154 0.54348
vn 0.43657 -0.36609 0.82182
vn 0.13440 -0.46876 0.87304
vn 0.96192 0.04534 0.26954
vn 0.84325 -0.11203 0.52572
vn 0.77320 0.38295 -0.50549
vn 0.92722 0.29003 -0.23695
vn 0.01251 0.39253 -0.91965
vn 0.32309 0.43465 -0.84065
vn -0.74733 0.06685 -0.66109
vn -0.51423 0.21294 -0.83079
vn 0.09281 -0.92925 -0.35762
vn -0.21818 -0.93782 -0.26998
vn 0.79934 -0.43183 -0.41783
vn 0.59361 -0.68087 -0.42901
vn 0.89178 0.40290 -0.20591
vn 0.94643 0.10074 -0.30680
vn 0.30053 0.94637 0.11858
vn 0.57460 0.81842 0.00462
vn -0.52919 0.78934 0.31128
vn -0.24189 0.93176 0.27075
vn -0.97259 0.05006 0.22709
vn -0.88820 0.35541 0.29118
vn -0.69577 -0.71479 -0.07060
vn -0.87765 -0.47664 0.05054
vn 0.26731 -0.96276 0.04041
vn 0.04193 -0.98077 -0.19063
vn 0.70314 -0.42994 0.56633
vn 0.59152 -0.69210 0.41365
vn 0.64072 0.43134 0.63515
vn 0.72641 0.12237 0.67628
vn 0.12705 0.97253 0.19503
vn 0.34503 0.84933 0.39950
vn -0.45106 0.78610 -0.42260
vn -0.26544 0.94136 -0.20828
vn -0.65829 0.01243 -0.75266
vn -0.64529 0.32917 -0.68938
vn -0.33859 -0.76589 -0.54660
vn -0.50850 -0.52626 -0.68153
vn 0.00864 -0.99633 0.08515
vn -0.10903 -0.97053 -0.21490
vn 0.31570 -0.55862 0.76700
vn 0.21631 -0.79372 0.56852
vn 0.42304 0.29655 0.85621
vn 0.41618 -0.02237 0.90901
vn 0.24984 0.92520 0.28562
vn 0.34006 0.76267 0.55017
vn -0.07347 0.85396 -0.51512
vn 0.04528 0.97026 -0.23778
vn -0.30345 0.13647 -0.94302
vn -0.24619 0.44408 -0.86150
vn -0.26690 -0.68699 -0.67588
vn -0.31486 -0.41966 -0.85132
vn 0.98952 -0.13355 0.05490
vn 0.92628 -0.31719 -0.20348
vn 0.65044 0.40481 0.64270
vn 0.85366 0.22040 0.47190
vn -0.16949 0.67338 0.71961
vn 0.14703 0.62650 0.76543
vn -0.85284 0.46991 0.22771
vn -0.66151 0.59531 0.45608
vn -0.88503 -0.05237 -0.46258
vn -0.96311 0.15031 -0.22320
vn -0.24183 -0.50018 -0.83147
vn -0.53066 -0.37340 -0.76090
vn 0.59243 -0.53631 -0.60117
vn 0.31020 -0.58145 -0.75212
vn 0.77504 -0.63056 0.04148
vn 0.61471 -0.76121 -0.20661
vn 0.79487 0.02502 0.60626
vn 0.86277 -0.24487 0.44234
vn 0.24632 0.69044 0.68016
vn 0.49084 0.48409 0.72438
vn -0.45754 0.86463 0.20753
vn -0.22102 0.87676 0.42714
vn -0.78670 0.41643 -0.45574
vn -0.73675 0.63743 -0.22556
vn -0.49328 -0.31667 -0.81018
vn -0.66801 -0.05366 -0.74222
vn 0.20175 -0.78262 -0.58890
vn -0.06655 -0.67612 -0.73378
vn 0.12899 -0.98157 -0.14098
vn -0.16907 -0.95019 -0.26181
vn 0.80468 -0.55954 0.19851
vn 0.60730 -0.78972 0.08680
vn 0.89309 0.28949 0.34436
vn 0.94472 -0.02902 0.32660
vn 0.32765 0.92616 0.18674
vn 0.58911 0.75909 0.27701
vn -0.46586 0.87106 -0.15565
vn -0.19174 0.98114 -0.02462
vn -0.88991 0.16568 -0.42499
vn -0.80985 0.46992 -0.35116
vn -0.62517 -0.65882 -0.41846
vn -0.79976 -0.38960 -0.45672
vn 0.60610 -0.79511 0.02114
vn 0.38116 -0.90633 -0.18244
vn 0.86724 -0.11218 0.48509
vn 0.84436 -0.40512 0.35063
vn 0.50225 0.67071 0.54579
vn 0.69822 0.41640 0.58232
vn -0.21403 0.96404 0.15755
vn 0.05280 0.93961 0.33815
vn -0.74222 0.54692 -0.38729
vn -0.60589 0.77052 -0.19800
vn -0.68458 -0.26655 -0.67845
vn -0.78184 0.03646 -0.62241
vn -0.08452 -0.86381 -0.49668
vn -0.34256 -0.70981 -0.61548
vn 0.10132 -0.93624 -0.33645
vn -0.21733 -0.93416 -0.28305
vn 0.82502 -0.46099 -0.32684
vn 0.61420 -0.70403 -0.35650
vn 0.91972 0.37416 -0.11886
vn 0.97560 0.06881 -0.20849
vn 0.31409 0.94033 0.13088
vn 0.59473 0.80240 0.04954
vn -0.53580 0.81118 0.23432
vn -0.24162 0.94433 0.22328
vn -0.98998 0.08397 0.11357
vn -0.90365 0.38773 0.18190
vn -0.70643 -0.69371 -0.14044
vn -0.89284 -0.44828 -0.04343
vn 0.92056 -0.38488 0.06661
vn 0.82288 -0.52976 -0.20546
vn 0.70511 0.18231 0.68526
vn 0.86218 -0.03567 0.50535
vn -0.02487 0.64212 0.76620
vn 0.26840 0.51470 0.81428
vn -0.71970 0.64829 0.24850
vn -0.51133 0.70690 0.48870
vn -0.85616 0.19618 -0.47802
vn -0.88985 0.39621 -0.22622
vn -0.33148 -0.37376 -0.86627
vn -0.58214 -0.18342 -0.79213
vn 0.45923 -0.63236 -0.62388
vn 0.18010 -0.59552 -0.78289
vn 0.85353 0.52017 0.03033
vn 0.94566 0.27985 -0.16555
vn 0.19164 0.85810 0.47638
vn 0.48305 0.80393 0.34694
vn -0.62376 0.57006 0.53474
vn -0.35237 0.74250 0.56968
vn -0.97866 -0.12705 0.16147
vn -0.93151 0.14182 0.33494
vn -0.60582 -0.70830 -0.36235
vn -0.81826 -0.54577 -0.18051
vn 0.21402 -0.73599 -0.64227
vn -0.09790 -0.80252 -0.58854
vn 0.86348 -0.18927 -0.46751
vn 0.68711 -0.43508 -0.58187
vn 0.98107 -0.18030 0.07063
vn 0.91684 -0.34559 -0.19992
vn 0.64789 0.33179 0.68567
vn 0.84860 0.15196 0.50673
vn -0.16537 0.62102 0.76615
vn 0.14902 0.56163 0.81386
vn -0.84632 0.46958 0.25146
vn -0.65512 0.57493 0.49018
vn -0.88218 -0.00848 -0.47083
vn -0.95827 0.18184 -0.22056
vn -0.24595 -0.45319 -0.85681
vn -0.53216 -0.32163 -0.78317
vn 0.58327 -0.52965 -0.61584
vn 0.30234 -0.55636 -0.77398
vn 0.07832 0.99309 0.08736
vn 0.19024 0.95812 -0.21403
vn -0.25695 0.58116 0.77216
vn -0.14048 0.80758 0.57279
vn -0.43417 -0.26242 0.86176
vn -0.40028 0.05479 0.91475
vn -0.31987 -0.90241 0.28869
vn -0.39353 -0.73336 0.55436
vn -0.00014 -0.85688 -0.51552
vn -0.12531 -0.96339 -0.23700
vn 0.28427 -0.16012 -0.94528
vn 0.20240 -0.46208 -0.86343
vn 0.31918 0.66319 -0.67698
vn 0.34284 0.39307 -0.85320
vn 0.74060 0.66682 0.08286
vn 0.81563 0.54083 -0.20555
vn 0.17308 0.65199 0.73821
vn 0.42515 0.72082 0.54741
vn -0.54118 0.16798 0.82396
vn -0.30162 0.37945 0.87467
vn -0.86433 -0.42074 0.27553
vn -0.81741 -0.22622 0.52978
vn -0.55302 -0.67086 -0.49408
vn -0.73382 -0.64011 -0.22754
vn 0.15832 -0.39403 -0.90536
vn -0.11379 -0.55055 -0.82701
vn 0.73403 0.20130 -0.64860
vn 0.57578 -0.02499 -0.81722
vn 0.26516 0.95948 0.09529
vn 0.34790 0.91280 -0.21392
vn -0.09012 0.59631 0.79768
vn 0.05073 0.80353 0.59309
vn -0.40828 -0.20482 0.88958
vn -0.31489 0.10010 0.94384
vn -0.44973 -0.84063 0.30180
vn -0.47363 -0.66781 0.57419
vn -0.18326 -0.83236 -0.52307
vn -0.30597 -0.92194 -0.23749
vn 0.19047 -0.18622 -0.96387
vn 0.06185 -0.47093 -0.88000
vn 0.39004 0.61123 -0.68867
vn 0.35285 0.34561 -0.86951
vn 0.11280 -0.98982 -0.08680
vn -0.20942 -0.97409 -0.08542
vn 0.84420 -0.52895 -0.08680
vn 0.63100 -0.77106 -0.08542
vn 0.93990 0.33023 -0.08680
vn 0.99627 0.01259 -0.08542
vn 0.32784 0.94074 -0.08680
vn 0.61132 0.78676 -0.08542
vn -0.53110 0.84285 -0.08680
vn -0.23396 0.96849 -0.08542
vn -0.99010 0.11028 -0.08680
vn -0.90307 0.42092 -0.08542
vn -0.70354 -0.70533 -0.08680
vn -0.89214 -0.44360 -0.08542
vn -0.42048 0.90715 0.01665
vn -0.18245 0.96388 -0.19402
vn -0.81288 0.30381 0.49692
vn -0.72944 0.58299 0.35783
vn -0.62909 -0.53936 0.55976
vn -0.76249 -0.24778 0.59767
vn -0.00751 -0.98743 0.15785
vn -0.25673 -0.90285 0.34490
vn 0.58379 -0.70300 -0.40616
vn 0.40700 -0.88893 -0.21013
vn 0.69957 0.09975 -0.70757
vn 0.72890 -0.21651 -0.64949
vn 0.25262 0.81634 -0.51940
vn 0.46657 0.60807 -0.64232
vn 0.11702 -0.98351 0.13790
vn -0.20507 -0.97218 0.11321
vn 0.84800 -0.52022 0.10136
vn 0.63481 -0.76105 0.13349
vn 0.94364 0.32623 -0.05575
vn 0.99984 0.01473 0.00971
vn 0.33193 0.91845 -0.21513
vn 0.61514 0.77097 -0.16492
vn -0.52651 0.81047 -0.25676
vn -0.22960 0.93822 -0.25890
vn -0.98525 0.08362 -0.14929
vn -0.89828 0.39053 -0.20147
vn -0.69886 -0.71478 0.02635
vn -0.88736 -0.45968 -0.03586
vn 0.11197 -0.98380 0.13999
vn -0.21098 -0.96667 0.14505
vn 0.84511 -0.53344 0.03518
vn 0.63137 -0.77058 0.08709
vn 0.94103 0.31176 -0.13137
vn 0.99747 -0.00097 -0.07113
vn 0.32751 0.91535 -0.23424
vn 0.61164 0.76263 -0.21047
vn -0.53346 0.82281 -0.19597
vn -0.23558 0.94521 -0.22600
vn -0.99356 0.10383 -0.04537
vn -0.90622 0.40929 -0.10603
vn -0.70632 -0.70019 0.10414
vn -0.89527 -0.44158 0.05910
vn -0.91508 -0.40300 0.01444
vn -0.97561 -0.14243 -0.16700
vn -0.30074 -0.85223 0.42809
vn -0.58349 -0.75134 0.30828
vn 0.54727 -0.68408 0.48221
vn 0.25511 -0.81845 0.51484
vn 0.99038 -0.02517 0.13605
vn 0.90869 -0.29323 0.29715
vn 0.69492 0.62832 -0.34972
vn 0.88510 0.42881 -0.18088
vn -0.11663 0.78430 -0.60932
vn 0.20210 0.80397 -0.55927
vn -0.83315 0.32532 -0.44725
vn -0.62599 0.54974 -0.55309
vn -0.71540 0.69481 0.07377
vn -0.60309 0.76662 -0.22041
vn -0.65293 0.14905 0.74261
vn -0.73878 0.39217 0.54810
vn -0.13715 -0.54045 0.83013
vn -0.35590 -0.30859 0.88210
vn 0.44355 -0.85448 0.27041
vn 0.25722 -0.80798 0.53010
vn 0.65188 -0.55658 -0.51505
vn 0.63890 -0.72995 -0.24285
vn 0.33097 0.12893 -0.93479
vn 0.50173 -0.13325 -0.85470
vn -0.27753 0.68585 -0.67274
vn -0.05101 0.53278 -0.84471
vn -0.62914 0.77550 0.05273
vn -0.45789 0.86472 -0.20638
vn -0.75103 0.15303 0.64229
vn -0.77231 0.42623 0.47102
vn -0.34036 -0.60545 0.71943
vn -0.53762 -0.35367 0.76543
vn 0.29363 -0.92880 0.22607
vn 0.06946 -0.88770 0.45516
vn 0.67353 -0.57352 -0.46629
vn 0.59178 -0.77372 -0.22616
vn 0.51327 0.19285 -0.83628
vn 0.63603 -0.09757 -0.76547
vn -0.06647 0.79322 -0.60529
vn 0.16888 0.63161 -0.75667
vn -0.52283 0.84981 0.06681
vn -0.36906 0.90489 -0.21207
vn -0.65777 0.27558 0.70100
vn -0.66370 0.54094 0.51660
vn -0.33385 -0.52337 0.78398
vn -0.49445 -0.24727 0.83329
vn 0.20500 -0.94543 0.25327
vn 0.01126 -0.86622 0.49953
vn 0.55302 -0.67276 -0.49149
vn 0.47261 -0.84982 -0.23335
vn 0.44814 0.08930 -0.88949
vn 0.54219 -0.21042 -0.81348
vn -0.03066 0.76691 -0.64102
vn 0.16762 0.57050 -0.80401
vn 0.97706 0.20967 0.03718
vn 0.98210 -0.02327 -0.18691
vn 0.46998 0.69247 0.54735
vn 0.72537 0.56073 0.39927
vn -0.39371 0.68400 0.61411
vn -0.08025 0.75219 0.65404
vn -0.96365 0.19064 0.18717
vn -0.82811 0.40693 0.38555
vn -0.81065 -0.41609 -0.41196
vn -0.95505 -0.21506 -0.20403
vn -0.04992 -0.67933 -0.73214
vn -0.36549 -0.64541 -0.67072
vn 0.74568 -0.40083 -0.53225
vn 0.49662 -0.56006 -0.66310
vn 0.44889 0.89183 0.05605
vn 0.61417 0.76555 -0.19163
vn -0.19650 0.76007 0.61942
vn 0.05098 0.88869 0.45566
vn -0.71729 0.07114 0.69314
vn -0.57359 0.35757 0.73698
vn -0.72131 -0.65618 0.22169
vn -0.78923 -0.42788 0.44050
vn -0.20554 -0.87420 -0.43991
vn -0.43355 -0.87619 -0.21054
vn 0.44164 -0.41876 -0.79347
vn 0.22560 -0.64977 -0.72588
vn 0.73289 0.36720 -0.57274
vn 0.69189 0.08087 -0.71746
vn 0.10616 -0.99095 0.08219
vn -0.21403 -0.96909 0.12266
vn 0.83321 -0.54727 -0.07908
vn 0.62132 -0.78339 -0.01595
vn 0.92834 0.30367 -0.21440
vn 0.98438 -0.01255 -0.17561
vn 0.31991 0.92110 -0.22186
vn 0.60176 0.76299 -0.23609
vn -0.53391 0.84009 -0.09586
vn -0.23843 0.95922 -0.15185
vn -0.99019 0.12163 0.06873
vn -0.90350 0.42837 0.01368
vn -0.70534 -0.69326 0.14797
vn -0.89264 -0.42981 0.13585
vn 0.12329 -0.98702 0.10290
vn -0.19465 -0.97979 0.04615
vn 0.84455 -0.51152 0.15838
vn 0.63409 -0.75659 0.15971
vn 0.93892 0.34133 0.04378
vn 0.99427 0.02863 0.10299
vn 0.33534 0.92932 -0.15461
vn 0.61468 0.78458 -0.08130
vn -0.51168 0.80968 -0.28740
vn -0.21885 0.94202 -0.25438
vn -0.96433 0.07250 -0.25459
vn -0.87865 0.38239 -0.28592
vn -0.68174 -0.72711 -0.08089
vn -0.86788 -0.47289 -0.15217
vn 0.12667 -0.99190 0.00957
vn -0.17570 -0.97894 -0.10398
vn 0.81228 -0.52371 0.25677
vn 0.61206 -0.76807 0.18831
vn 0.90199 0.33779 0.26890
vn 0.95443 0.02014 0.29775
vn 0.32824 0.94388 0.03683
vn 0.59361 0.79214 0.14193
vn -0.47692 0.83815 -0.26469
vn -0.19871 0.96661 -0.16181
vn -0.90719 0.10022 -0.40860
vn -0.82588 0.41217 -0.38475
vn -0.63857 -0.71422 -0.28655
vn -0.81564 -0.45368 -0.35902
vn -0.52148 -0.85277 0.02915
vn -0.71321 -0.68088 -0.16652
vn 0.22188 -0.85169 0.47476
vn -0.06221 -0.93636 0.34547
vn 0.81604 -0.22342 0.53307
vn 0.65324 -0.50067 0.56799
vn 0.81359 0.55895 0.16017
vn 0.89438 0.29812 0.33348
vn 0.21637 0.90626 -0.36314
vn 0.47963 0.85850 -0.18147
vn -0.52590 0.55700 -0.64279
vn -0.27869 0.75849 -0.58909
vn -0.85427 -0.22584 -0.46820
vn -0.80956 0.07340 -0.58243
vn 0.12223 -0.98822 -0.09211
vn -0.18511 -0.96417 -0.19001
vn 0.81935 -0.54656 0.17302
vn 0.61586 -0.78299 0.08750
vn 0.91056 0.30947 0.27405
vn 0.96397 -0.00943 0.26584
vn 0.32718 0.93528 0.13490
vn 0.59710 0.77399 0.21073
vn -0.49149 0.85961 -0.13965
vn -0.20850 0.97735 -0.03634
vn -0.92898 0.13945 -0.34285
vn -0.84619 0.44750 -0.28932
vn -0.65585 -0.68291 -0.32169
vn -0.83578 -0.41655 -0.35771
vn 0.12188 -0.93730 -0.32652
vn -0.19741 -0.90910 -0.36685
vn 0.84627 -0.52449 -0.09349
vn 0.63492 -0.74870 -0.19056
vn 0.94105 0.29759 0.16080
vn 0.99667 -0.01043 0.08086
vn 0.33485 0.90990 0.24486
vn 0.61543 0.74979 0.24303
vn -0.51585 0.85135 0.09539
vn -0.22171 0.95949 0.17383
vn -0.97046 0.16604 -0.17505
vn -0.88438 0.46077 -0.07462
vn -0.68664 -0.62999 -0.36282
vn -0.87356 -0.37083 -0.31525
vn -0.96135 0.26237 0.08348
vn -0.90792 0.35618 -0.22095
vn -0.61830 -0.12860 0.77535
vn -0.81844 0.02548 0.57402
vn 0.17207 -0.46972 0.86588
vn -0.13065 -0.37066 0.91953
vn 0.81458 -0.50413 0.28689
vn 0.63753 -0.53393 0.55540
vn 0.82542 -0.20591 -0.52563
vn 0.90766 -0.34138 -0.24417
vn 0.19642 0.20037 -0.95983
vn 0.47631 0.06199 -0.87709
vn -0.59877 0.40878 -0.68875
vn -0.33170 0.37243 -0.86676
vn -0.83212 0.55379 0.03000
vn -0.66566 0.72157 -0.19035
vn -0.83308 -0.15185 0.53190
vn -0.91384 0.12510 0.38633
vn -0.22872 -0.76850 0.59757
vn -0.49552 -0.59053 0.63697
vn 0.52588 -0.83182 0.17756
vn 0.27428 -0.88644 0.37283
vn 0.86248 -0.29412 -0.41185
vn 0.81590 -0.53980 -0.20719
vn 0.52762 0.43970 -0.72683
vn 0.72148 0.18837 -0.66632
vn -0.22655 0.81705 -0.53019
vn 0.06213 0.74973 -0.65882
vn -0.27364 0.95979 0.06261
vn -0.08773 0.97555 -0.20151
vn -0.61008 0.43349 0.66324
vn -0.52953 0.69344 0.48860
vn -0.51895 -0.42470 0.74183
vn -0.60391 -0.11620 0.78854
vn -0.06888 -0.96852 0.23920
vn -0.25486 -0.84371 0.47244
vn 0.40122 -0.78848 -0.46617
vn 0.25478 -0.94125 -0.22166
vn 0.53736 -0.02015 -0.84311
vn 0.54123 -0.33538 -0.77110
vn 0.23702 0.75791 -0.60778
vn 0.38880 0.51768 -0.76213
vn -0.61444 0.78879 0.01656
vn -0.36648 0.91902 -0.14523
vn -0.92040 0.06642 0.38529
vn -0.88641 0.36982 0.27842
vn -0.54842 -0.71504 0.43354
vn -0.75375 -0.46680 0.46255
vn 0.22139 -0.96714 0.12497
vn -0.06841 -0.96085 0.26850
vn 0.80935 -0.50005 -0.30805
vn 0.65355 -0.74029 -0.15760
vn 0.77271 0.33451 -0.53946
vn 0.86847 0.02878 -0.49490
vn 0.13906 0.90810 -0.39499
vn 0.41452 0.76725 -0.48939
vn -0.90031 0.43174 0.05511
vn -0.77099 0.61041 -0.18159
vn -0.76972 -0.23526 0.59344
vn -0.89935 0.01648 0.43693
vn -0.07148 -0.74441 0.66388
vn -0.36224 -0.60885 0.70574
vn 0.66864 -0.71231 0.21338
vn 0.43587 -0.79471 0.42244
vn 0.89330 -0.16313 -0.41882
vn 0.89400 -0.40113 -0.19965
vn 0.43333 0.48959 -0.75666
vn 0.66716 0.27551 -0.69209
vn -0.36490 0.75433 -0.54574
vn -0.07383 0.72569 -0.68405
vn 0.92633 0.37647 0.01389
vn 0.98610 0.09590 -0.13565
vn 0.31006 0.88206 0.35474
vn 0.59403 0.76263 0.25597
vn -0.54369 0.73819 0.39934
vn -0.24931 0.86961 0.42618
vn -0.99204 0.05321 0.11410
vn -0.90885 0.33627 0.24680
vn -0.69737 -0.65709 -0.28619
vn -0.88796 -0.43577 -0.14709
vn 0.11843 -0.85783 -0.50010
vn -0.20236 -0.86515 -0.45888
vn 0.84104 -0.39786 -0.36655
vn 0.63168 -0.62853 -0.45379
f 1//1 2//2 4//4
f 1//1 4//4 3//3
f 3//3 4//4 6//6
f 3//3 6//6 5//5
f 5//5 6//6 8//8
f 5//5 8//8 7//7
f 7//7 8//8 10//10
f 7//7 10//10 9//9
f 9//9 10//10 12//12
f 9//9 12//12 11//11
f 11//11 12//12 14//14
f 11//11 14//14 13//13
f 13//13 14//14 2//2
f 13//13 2//2 1//1
f 15//15 16//16 18//18
f 15//15 18//18 17//17
f 17//17 18//18 20//20
f 17//17 20//20 19//19
f 19//19 20//20 22//22
f 19//19 22//22 21//21
f 21//21 22//22 24//24
f 21//21 24//24 23//23
f 23//23 24//24 26//26
f 23//23 26//26 25//25
f 25//25 26//26 28//28
f 25//25 28//28 27//27
f 27//27 28//28 16//16
f 27//27 16//16 15//15
f 29//29 30//30 32//32
f 29//29 32//32 31//31
f 31//31 32//32 34//34
f 31//31 34//34 33//33
f 33//33 34//34 36//36
f 33//33 36//36 35//35
f 35//35 36//36 38//38
f 35//35 38//38 37//37
f 37//37 38//38 40//40
f 37//37 40//40 39//39
f 39//39 40//40 42//42
f 39//39 42//42 41//41
f 41//41 42//42 30//30
f 41//41 30//30 29//29
f 43//43 44//44 46//46
f 43//43 46//46 45//45
f 45//45 46//46 48//48
f 45//45 48//48 47//47
f 47//47 48//48 50//50
f 47//47 50//50 49//49
f 49//49 50//50 52//52
f 49//49 52//52 51//51
f 51//51 52//52 54//54
f 51//51 54//54 53//53
f 53//53 54//54 56//56
f 53//53 56//56 55//55
f 55//55 56//56 44//44
f 55//55 44//44 43//43
f 57//57 58//58 60//60
f 57//57 60//60 59//59
f 59//59 60//60 62//62
f 59//59 62//62 61//61
f 61//61 62//62 64//64
f 61//61 64//64 63//63
f 63//63 64//64 66//66
f 63//63 66//66 65//65
f 65//65 66//66 68//68
f 65//65 68//68 67//67
f 67//67 68//68 70//70
f 67//67 70//70 69//69
f 69//69 70//70 58//58
f 69//69 58//58 57//57
f 71//71 72//72 74//74
f 71//71 74//74 73//73
f 73//73 74//74 76//76
f 73//73 76//76 75//75
f 75//75 76//76 78//78
f 75//75 78//78 77//77
f 77//77 78//78 80//80
f 77//77 80//80 79//79
f 79//79 80//80 82//82
f 79//79 82//82 81//81
f 81//81 82//82 84//84
f 81//81 84//84 83//83
f 83//83 84//84 72//72
f 83//83 72//72 71//71
f 85//85 86//86 88//88
f 85//85 88//88 87//87
f 87//87 88//88 90//90
f 87//87 90//90 89//89
f 89//89 90//90 92//92
f 89//89 92//92 91//91
f 91//91 92//92 94//94
f 91//91 94//94 93//93
f 93//93 94//94 96//96
f 93//93 96//96 95//95
f 95//95 96//96 98//98
f 95//95 98//98 97//97
f 97//97 98//98 86//86
f 97//97 86//86 85//85
f 99//99 100//100 102//102
f 99//99 102//102 101//101
f 101//101 102//102 104//104
f 101//101 104//104 103//103
f 103//103 104//104 106//106
f 103//103 106//106 105//105
f 105//105 106//106 108//108
f 105//105 108//108 107//107
f 107//107 108//108 110//110
f 107//107 110//110 109//109
f 109//109 110//110 112//112
f 109//109 112//112 111//111
f 111//111 112//112 100//100
f 111//111 100//100 99//99
f 113//113 114//114 116//116
f 113//113 116//116 115//115
f 115//115 116//116 118//118
f 115//115 118//118 117//117
f 117//117 118//118 120//120
f 117//117 120//120 119//119
f 119//119 120//120 122//122
f 119//119 122//122 121//121
f 121//121 122//122 124//124
f 121//121 124//124 123//123
f 123//123 124//124 126//126
f 123//123 126//126 125//125
f 125//125 126//126 114//114
f 125//125 114//114 113//113
f 127//127 128//128 130//130
f 127//127 130//130 129//129
f 129//129 130//130 132//132
f 129//129 132//132 131//131
f 131//131 132//132 134//134
f 131//131 134//134 133//133
f 133//133 134//134 136//136
f 133//133 136//136 135//135
f 135//135 136//136 138//138
f 135//135 138//138 137//137
f 137//137 138//138 140//140
f 137//137 140//140 139//139
f 139//139 140//140 128//128
f 139//139 128//128 127//127
f 141//141 142//142 144//144
f 141//141 144//144 143//143
f 143//143 144//144 146//146
f 143//143 146//146 145//145
f 145//145 146//146 148//148
f 145//145 148//148 147//147
f 147//147 148//148 150//150
f 147//147 150//150 149//149
f 149//149 150//150 152//152
f 149//149 152//152 151//151
f 151//151 152//152 154//154
f 151//151 154//154 153//153
f 153//153 154//154 142//142
f 153//153 142//142 141//141
f 155//155 156//156 158//158
f 155//155 158//158 157//157
f 157//157 158//158 160//160
f 157//157 160//160 159//159
f 159//159 160//160 162//162
f 159//159 162//162 161//161
f 161//161 162//162 164//164
f 161//161 164//164 163//163
f 163//163 164//164 166//166
f 163//163 166//166 165//165
f 165//165 166//166 168//168
f 165//165 168//168 167//167
f 167//167 168//168 156//156
f 167//167 156//156 155//155
f 169//169 170//170 172//172
f 169//169 172//172 171//171
f 171//171 172//172 174//174
f 171//171 174//174 173//173
f 173//173 174//174 176//176
f 173//173 176//176 175//175
f 175//175 176//176 178//178
f 175//175 178//178 177//177
f 177//177 178//178 180//180
f 177//177 180//180 179//179
f 179//179 180//180 182//182
f 179//179 182//182 181//181
f 181//181 182//182 170//170
f 181//181 170//170 169//169
f 183//183 184//184 186//186
f 183//183 186//186 185//185
f 185//185 186//186 188//188
f 185//185 188//188 187//187
f 187//187 188//188 190//190
f 187//187 190//190 189//189
f 189//189 190//190 192//192
f 189//189 192//192 191//191
f 191//191 192//192 194//194
f 191//191 194//194 193//193
f 193//193 194//194 196//196
f 193//193 196//196 195//195
f 195//195 196//196 184//184
f 195//195 184//184 183//183
f 197//197 198//198 200//200
f 197//197 200//200 199//199
f 199//199 200//200 202//202
f 199//199 202//202 201//201
f 201//201 202//202 204//204
f 201//201 204//204 203//203
f 203//203 204//204 206//206
f 203//203 206//206 205//205
f 205//205 206//206 208//208
f 205//205 208//208 207//207
f 207//207 208//208 210//210
f 207//207 210//210 209//209
f 209//209 210//210 198//198
f 209//209 198//198 197//197
f 211//211 212//212 214//214
f 211//211 214//214 213//213
f 213//213 214//214 216//216
f 213//213 216//216 215//215
f 215//215 216//216 218//218
f 215//215 218//218 217//217
f 217//217 218//218 220//220
f 217//217 220//220 219//219
f 219//219 220//220 222//222
f 219//219 222//222 221//221
f 221//221 222//222 224//224
f 221//221 224//224 223//223
f 223//223 224//224 212//212
f 223//223 212//212 211//211
f 225//225 226//226 228//228
f 225//225 228//228 227//227
f 227//227 228//228 230//230
f 227//227 230//230 229//229
f 229//229 230//230 232//232
f 229//229 232//232 231//231
f 231//231 232//232 234//234
f 231//231 234//234 233//233
f 233//233 234//234 236//236
f 233//233 236//236 235//235
f 235//235 236//236 238//238
f 235//235 238//238 237//237
f 237//237 238//238 226//226
f 237//237 226//226 225//225
f 239//239 240//240 242//242
f 239//239 242//242 241//241
f 241//241 242//242 244//244
f 241//241 244//244 243//243
f 243//243 244//244 246//246
f 243//243 246//246 245//245
f 245//245 246//246 248//248
f 245//245 248//248 247//247
f 247//247 248//248 250//250
f 247//247 250//250 249//249
f 249//249 250//250 252//252
f 249//249 252//252 251//251
f 251//251 252//252 240//240
f 251//251 240//240 239//239
f 253//253 254//254 256//256
f 253//253 256//256 255//255
f 255//255 256//256 258//258
f 255//255 258//258 257//257
f 257//257 258//258 260//260
f 257//257 260//260 259//259
f 259//259 260//260 262//262
f 259//259 262//262 261//261
f 261//261 262//262 264//264
f 261//261 264//264 263//263
f 263//263 264//264 266//266
f 263//263 266//266 265//265
f 265//265 266//266 254//254
f 265//265 254//254 253//253
f 267//267 268//268 270//270
f 267//267 270//270 269//269
f 269//269 270//270 272//272
f 269//269 272//272 271//271
f 271//271 272//272 274//274
f 271//271 274//274 273//273
f 273//273 274//274 276//276
f 273//273 276//276 275//275
f 275//275 276//276 278//278
f 275//275 278//278 277//277
f 277//277 278//278 280//280
f 277//277 280//280 279//279
f 279//279 280//280 268//268
f 279//279 268//268 267//267
f 281//281 282//282 284//284
f 281//281 284//284 283//283
f 283//283 284//284 286//286
f 283//283 286//286 285//285
f 285//285 286//286 288//288
f 285//285 288//288 287//287
f 287//287 288//288 290//290
f 287//287 290//290 289//289
f 289//289 290//290 292//292
f 289//289 292//292 291//291
f 291//291 292//292 294//294
f 291//291 294//294 293//293
f 293//293 294//294 282//282
f 293//293 282//282 281//281
f 295//295 296//296 298//298
f 295//295 298//298 297//297
f 297//297 298//298 300//300
f 297//297 300//300 299//299
f 299//299 300//300 302//302
f 299//299 302//302 301//301
f 301//301 302//302 304//304
f 301//301 304//304 303//303
f 303//303 304//304 306//306
f 303//303 306//306 305//305
f 305//305 306//306 308//308
f 305//305 308//308 307//307
f 307//307 308//308 296//296
f 307//307 296//296 295//295
f 309//309 310//310 312//312
f 309//309 312//312 311//311
f 311//311 312//312 314//314
f 311//311 314//314 313//313
f 313//313 314//314 316//316
f 313//313 316//316 315//315
f 315//315 316//316 318//318
f 315//315 318//318 317//317
f 317//317 318//318 320//320
f 317//317 320//320 319//319
f 319//319 320//320 322//322
f 319//319 322//322 321//321
f 321//321 322//322 310//310
f 321//321 310//310 309//309
f 323//323 324//324 326//326
f 323//323 326//326 325//325
f 325//325 326//326 328//328
f 325//325 328//328 327//327
f 327//327 328//328 330//330
f 327//327 330//330 329//329
f 329//329 330//330 332//332
f 329//329 332//332 331//331
f 331//331 332//332 334//334
f 331//331 334//334 333//333
f 333//333 334//334 336//336
f 333//333 336//336 335//335
f 335//335 336//336 324//324
f 335//335 324//324 323//323
f 337//337 338//338 340//340
f 337//337 340//340 339//339
f 339//339 340//340 342//342
f 339//339 342//342 341//341
f 341//341 342//342 344//344
f 341//341 344//344 343//343
f 343//343 344//344 346//346
f 343//343 346//346 345//345
f 345//345 346//346 348//348
f 345//345 348//348 347//347
f 347//347 348//348 350//350
f 347//347 350//350 349//349
f 349//349 350//350 338//338
f 349//349 338//338 337//337
f 351//351 352//352 354//354
f 351//351 354//354 353//353
f 353//353 354//354 356//356
f 353//353 356//356 355//355
f 355//355 356//356 358//358
f 355//355 358//358 357//357
f 357//357 358//358 360//360
f 357//357 360//360 359//359
f 359//359 360//360 362//362
f 359//359 362//362 361//361
f 361//361 362//362 364//364
f 361//361 364//364 363//363
f 363//363 364//364 352//352
f 363//363 352//352 351//351
f 365//365 366//366 368//368
f 365//365 368//368 367//367
f 367//367 368//368 370//370
f 367//367 370//370 369//369
f 369//369 370//370 372//372
f 369//369 372//372 371//371
f 371//371 372//372 374//374
f 371//371 374//374 373//373
f 373//373 374//374 376//376
f 373//373 376//376 375//375
f 375//375 376//376 378//378
f 375//375 378//378 377//377
f 377//377 378//378 366//366
f 377//377 366//366 365//365
f 379//379 380//380 382//382
f 379//379 382//382 381//381
f 381//381 382//382 384//384
f 381//381 384//384 383//383
f 383//383 384//384 386//386
f 383//383 386//386 385//385
f 385//385 386//386 388//388
f 385//385 388//388 387//387
f 387//387 388//388 390//390
f 387//387 390//390 389//389
f 389//389 390//390 392//392
f 389//389 392//392 391//391
f 391//391 392//392 380//380
f 391//391 380//380 379//379
f 393//393 394//394 396//396
f 393//393 396//396 395//395
f 395//395 396//396 398//398
f 395//395 398//398 397//397
f 397//397 398//398 400//400
f 397//397 400//400 399//399
f 399//399 400//400 402//402
f 399//399 402//402 401//401
f 401//401 402//402 404//404
f 401//401 404//404 403//403
f 403//403 404//404 406//406
f 403//403 406//406 405//405
f 405//405 406//406 394//394
f 405//405 394//394 393//393
f 407//407 408//408 410//410
f 407//407 410//410 409//409
f 409//409 410//410 412//412
f 409//409 412//412 411//411
f 411//411 412//412 414//414
f 411//411 414//414 413//413
f 413//413 414//414 416//416
f 413//413 416//416 415//415
f 415//415 416//416 418//418
f 415//415 418//418 417//417
f 417//417 418//418 420//420
f 417//417 420//420 419//419
f 419//419 420//420 408//408
f 419//419 408//408 407//407
f 421//421 422//422 424//424
f 421//421 424//424 423//423
f 423//423 424//424 426//426
f 423//423 426//426 425//425
f 425//425 426//426 428//428
f 425//425 428//428 427//427
f 427//427 428//428 430//430
f 427//427 430//430 429//429
f 429//429 430//430 432//432
f 429//429 432//432 431//431
f 431//431 432//432 434//434
f 431//431 434//434 433//433
f 433//433 434//434 422//422
f 433//433 422//422 421//421
f 435//435 436//436 438//438
f 435//435 438//438 437//437
f 437//437 438//438 440//440
f 437//437 440//440 439//439
f 439//439 440//440 442//442
f 439//439 442//442 441//441
f 441//441 442//442 444//444
f 441//441 444//444 443//443
f 443//443 444//444 446//446
f 443//443 446//446 445//445
f 445//445 446//446 448//448
f 445//445 448//448 447//447
f 447//447 448//448 436//436
f 447//447 436//436 435//435
f 449//449 450//450 452//452
f 449//449 452//452 451//451
f 451//451 452//452 454//454
f 451//451 454//454 453//453
f 453//453 454//454 456//456
f 453//453 456//456 455//455
f 455//455 456//456 458//458
f 455//455 458//458 457//457
f 457//457 458//458 460//460
f 457//457 460//460 459//459
f 459//459 460//460 462//462
f 459//459 462//462 461//461
f 461//461 462//462 450//450
f 461//461 450//450 449//449
f 463//463 464//464 466//466
f 463//463 466//466 465//465
f 465//465 466//466 468//468
f 465//465 468//468 467//467
f 467//467 468//468 470//470
f 467//467 470//470 469//469
f 469//469 470//470 472//472
f 469//469 472//472 471//471
f 471//471 472//472 474//474
f 471//471 474//474 473//473
f 473//473 474//474 476//476
f 473//473 476//476 475//475
f 475//475 476//476 464//464
f 475//475 464//464 463//463
f 477//477 478//478 480//480
f 477//477 480//480 479//479
f 479//479 480//480 482//482
f 479//479 482//482 481//481
f 481//481 482//482 484//484
f 481//481 484//484 483//483
f 483//483 484//484 486//486
f 483//483 486//486 485//485
f 485//485 486//486 488//488
f 485//485 488//488 487//487
f 487//487 488//488 490//490
f 487//487 490//490 489//489
f 489//489 490//490 478//478
f 489//489 478//478 477//477
f 491//491 492//492 494//494
f 491//491 494//494 493//493
f 493//493 494//494 496//496
f 493//493 496//496 495//495
f 495//495 496//496 498//498
f 495//495 498//498 497//497
f 497//497 498//498 500//500
f 497//497 500//500 499//499
f 499//499 500//500 502//502
f 499//499 502//502 501//501
f 501//501 502//502 504//504
f 501//501 504//504 503//503
f 503//503 504//504 492//492
f 503//503 492//492 491//491
f 505//505 506//506 508//508
f 505//505 508//508 507//507
f 507//507 508//508 510//510
f 507//507 510//510 509//509
f 509//509 510//510 512//512
f 509//509 512//512 511//511
f 511//511 512//512 514//514
f 511//511 514//514 513//513
f 513//513 514//514 516//516
f 513//513 516//516 515//515
f 515//515 516//516 518//518
f 515//515 518//518 517//517
f 517//517 518//518 506//506
f 517//517 506//506 505//505
f 519//519 520//520 522//522
f 519//519 522//522 521//521
f 521//521 522//522 524//524
f 521//521 524//524 523//523
f 523//523 524//524 526//526
f 523//523 526//526 525//525
f 525//525 526//526 528//528
f 525//525 528//528 527//527
f 527//527 528//528 530//530
f 527//527 530//530 529//529
f 529//529 530//530 532//532
f 529//529 532//532 531//531
f 531//531 532//532 520//520
f 531//531 520//520 519//519
f 533//533 534//534 536//536
f 533//533 536//536 535//535
f 535//535 536//536 538//538
f 535//535 538//538 537//537
f 537//537 538//538 540//540
f 537//537 540//540 539//539
f 539//539 540//540 542//542
f 539//539 542//542 541//541
f 541//541 542//542 544//544
f 541//541 544//544 543//543
f 543//543 544//544 546//546
f 543//543 546//546 545//545
f 545//545 546//546 534//534
f 545//545 534//534 533//533
f 547//547 548//548 550//550
f 547//547 550//550 549//549
f 549//549 550//550 552//552
f 549//549 552//552 551//551
f 551//551 552//552 554//554
f 551//551 554//554 553//553
f 553//553 554//554 556//556
f 553//553 556//556 555//555
f 555//555 556//556 558//558
f 555//555 558//558 557//557
f 557//557 558//558 560//560
f 557//557 560//560 559//559
f 559//559 560//560 548//548
f 559//559 548//548 547//547
