# generated by scripts/make_scenery.py
v 0.00000 0.00000 0.20750
v 0.00000 0.00000 0.20750
v 0.00000 0.00000 0.20750
v 0.00000 0.00000 0.20750
v 0.00000 0.00000 0.20750
v 0.00000 0.00000 0.20750
v 0.00000 0.00000 0.20750
v 0.00000 0.00000 0.20750
v 0.00000 0.00000 0.20750
v 0.00000 0.00000 0.20750
v 0.00000 0.00000 0.20750
v 0.00000 0.00000 0.20750
v 0.00000 0.00000 0.20750
v 0.00000 0.00000 0.20750
v 0.05683 0.00000 0.20845
v 0.05046 0.02430 0.20687
v 0.03406 0.04271 0.20424
v 0.01179 0.05164 0.20107
v -0.01145 0.05018 0.19822
v -0.03142 0.03940 0.19616
v -0.04474 0.02155 0.19475
v -0.04916 0.00000 0.19381
v -0.04431 -0.02134 0.19385
v -0.03138 -0.03935 0.19605
v -0.01173 -0.05137 0.20055
v 0.01229 -0.05382 0.20535
v 0.03537 -0.04435 0.20825
v 0.05147 -0.02479 0.20901
v 0.10625 0.00000 0.19067
v 0.09439 0.04546 0.18940
v 0.06317 0.07922 0.18646
v 0.02159 0.09460 0.18280
v -0.02103 0.09216 0.18067
v -0.05848 0.07334 0.18005
v -0.08453 0.04071 0.18006
v -0.09282 0.00000 0.17921
v -0.08099 -0.03901 0.17671
v -0.05613 -0.07039 0.17683
v -0.02184 -0.09570 0.18377
v 0.02388 -0.10463 0.19159
v 0.06816 -0.08547 0.19329
v 0.09686 -0.04665 0.19174
v 0.14120 0.00000 0.16361
v 0.12595 0.06065 0.16297
v 0.08484 0.10638 0.16129
v 0.02940 0.12882 0.15952
v -0.02942 0.12888 0.15955
v -0.08186 0.10265 0.15914
v -0.11833 0.05698 0.15916
v -0.13276 0.00000 0.15980
v -0.11437 -0.05508 0.15718
v -0.07547 -0.09464 0.15453
v -0.03002 -0.13151 0.16076
v 0.03375 -0.14787 0.16832
v 0.09318 -0.11685 0.16732
v 0.12904 -0.06214 0.16452
v 0.15994 0.00000 0.13222
v 0.14373 0.06922 0.13214
v 0.09899 0.12413 0.13198
v 0.03562 0.15605 0.13225
v -0.03704 0.16230 0.13354
v -0.10148 0.12725 0.13279
v -0.14080 0.06781 0.13148
v -0.15889 0.00000 0.13201
v -0.14015 -0.06749 0.13134
v -0.09106 -0.11418 0.12942
v -0.03656 -0.16019 0.13310
v 0.04130 -0.18096 0.13739
v 0.10949 -0.13730 0.13538
v 0.14779 -0.07117 0.13304
v 0.16051 0.00000 0.10000
v 0.14742 0.07100 0.10000
v 0.10271 0.12880 0.10000
v 0.03790 0.16604 0.10000
v -0.04059 0.17785 0.10000
v -0.11271 0.14133 0.10000
v -0.15266 0.07352 0.10000
v -0.16786 0.00000 0.10000
v -0.15089 -0.07266 0.10000
v -0.10082 -0.12642 0.10000
v -0.04043 -0.17713 0.10000
v 0.04427 -0.19394 0.10000
v 0.11193 -0.14036 0.10000
v 0.14716 -0.07087 0.10000
v 0.15004 0.00000 0.06977
v 0.13941 0.06713 0.06883
v 0.09628 0.12073 0.06889
v 0.03556 0.15580 0.06781
v -0.03804 0.16668 0.06556
v -0.10810 0.13555 0.06507
v -0.14892 0.07172 0.06670
v -0.15988 0.00000 0.06779
v -0.14228 -0.06852 0.06819
v -0.09790 -0.12277 0.06837
v -0.03838 -0.16814 0.06526
v 0.03981 -0.17440 0.06396
v 0.09852 -0.12354 0.06817
v 0.13187 -0.06351 0.07051
v 0.12882 0.00000 0.04197
v 0.11856 0.05710 0.04072
v 0.08190 0.10270 0.04083
v 0.03019 0.13226 0.03889
v -0.03168 0.13879 0.03587
v -0.09022 0.11314 0.03482
v -0.12691 0.06112 0.03655
v -0.13554 0.00000 0.03895
v -0.11866 -0.05714 0.04068
v -0.08198 -0.10279 0.04077
v -0.03066 -0.13431 0.03794
v 0.03045 -0.13341 0.03836
v 0.07830 -0.09819 0.04343
v 0.11085 -0.05338 0.04458
v 0.09403 0.00000 0.01976
v 0.08606 0.04145 0.01848
v 0.06043 0.07578 0.01729
v 0.02228 0.09763 0.01454
v -0.02305 0.10099 0.01161
v -0.06539 0.08200 0.01050
v -0.09324 0.04490 0.01168
v -0.10071 0.00000 0.01406
v -0.08841 -0.04258 0.01626
v -0.06048 -0.07584 0.01722
v -0.02155 -0.09442 0.01735
v 0.02105 -0.09224 0.01926
v 0.05695 -0.07142 0.02205
v 0.08247 -0.03971 0.02189
v 0.05083 0.00000 0.00301
v 0.04638 0.02234 0.00176
v 0.03270 0.04100 -0.00007
v 0.01194 0.05231 -0.00239
v -0.01219 0.05340 -0.00451
v -0.03453 0.04329 -0.00567
v -0.04987 0.02401 -0.00561
v -0.05484 0.00000 -0.00465
v -0.04875 -0.02348 -0.00326
v -0.03325 -0.04169 -0.00175
v -0.01167 -0.05113 -0.00007
v 0.01145 -0.05017 0.00180
v 0.03161 -0.03963 0.00327
v 0.04550 -0.02191 0.00364
v 0.00000 0.00000 -0.00807
v 0.00000 0.00000 -0.00807
v 0.00000 0.00000 -0.00807
v 0.00000 0.00000 -0.00807
v -0.00000 0.00000 -0.00807
v -0.00000 0.00000 -0.00807
v -0.00000 0.00000 -0.00807
v -0.00000 0.00000 -0.00807
v -0.00000 -0.00000 -0.00807
v -0.00000 -0.00000 -0.00807
v -0.00000 -0.00000 -0.00807
v 0.00000 -0.00000 -0.00807
v 0.00000 -0.00000 -0.00807
v 0.00000 -0.00000 -0.00807
vn -0.01671 0.06062 0.99802
vn -0.03899 0.10677 0.99352
vn -0.08371 0.14189 0.98634
vn -0.12962 0.15157 0.97991
vn -0.17605 0.13995 0.97438
vn -0.22994 0.09529 0.96853
vn -0.26810 0.01295 0.96330
vn -0.26766 -0.05908 0.96170
vn -0.26217 -0.07092 0.96241
vn -0.26314 -0.07009 0.96221
vn -0.20366 -0.08544 0.97531
vn -0.09925 -0.06232 0.99311
vn -0.03452 -0.01059 0.99935
vn -0.01673 0.02635 0.99951
vn 0.20824 0.06644 0.97582
vn 0.14499 0.19558 0.96991
vn 0.03416 0.28151 0.95895
vn -0.07841 0.30003 0.95070
vn -0.17439 0.25924 0.94994
vn -0.24494 0.17646 0.95335
vn -0.29010 0.06099 0.95505
vn -0.31006 -0.06583 0.94844
vn -0.32763 -0.14468 0.93366
vn -0.34057 -0.18091 0.92265
vn -0.24653 -0.21835 0.94422
vn -0.06171 -0.21343 0.97501
vn 0.10227 -0.15680 0.98232
vn 0.19551 -0.06072 0.97882
vn 0.48285 0.05205 0.87416
vn 0.39234 0.28021 0.87610
vn 0.20452 0.43699 0.87591
vn 0.01197 0.47191 0.88157
vn -0.15929 0.41783 0.89445
vn -0.29507 0.31749 0.90118
vn -0.37912 0.15265 0.91267
vn -0.38515 -0.07735 0.91961
vn -0.36856 -0.25382 0.89428
vn -0.41253 -0.32509 0.85096
vn -0.29912 -0.39117 0.87035
vn 0.00494 -0.39944 0.91675
vn 0.28677 -0.31310 0.90539
vn 0.44652 -0.15703 0.88089
vn 0.74030 0.03798 0.67120
vn 0.62905 0.35595 0.69108
vn 0.37621 0.57159 0.72921
vn 0.10636 0.61614 0.78042
vn -0.16062 0.54622 0.82209
vn -0.39724 0.43566 0.80772
vn -0.56350 0.26709 0.78175
vn -0.58609 -0.05011 0.80869
vn -0.46783 -0.34907 0.81197
vn -0.45497 -0.46017 0.76240
vn -0.33624 -0.55350 0.76196
vn 0.07419 -0.59135 0.80300
vn 0.47020 -0.46614 0.74941
vn 0.68214 -0.24661 0.68838
vn 0.95101 0.02386 0.30823
vn 0.83785 0.41750 0.35173
vn 0.56365 0.71248 0.41795
vn 0.22294 0.82249 0.52326
vn -0.17990 0.75732 0.62778
vn -0.54179 0.55414 0.63197
vn -0.77179 0.33505 0.54044
vn -0.86090 -0.01168 0.50864
vn -0.69359 -0.43555 0.57379
vn -0.54230 -0.60491 0.58309
vn -0.37054 -0.73959 0.56187
vn 0.15721 -0.82612 0.54113
vn 0.66499 -0.62177 0.41376
vn 0.89153 -0.32490 0.31562
vn 0.98852 -0.00702 -0.15094
vn 0.90452 0.41456 -0.09993
vn 0.65188 0.75440 -0.07705
vn 0.31501 0.94865 -0.02877
vn -0.16702 0.98428 0.05743
vn -0.67441 0.72121 0.15819
vn -0.92378 0.35705 0.13834
vn -0.99957 -0.00740 0.02838
vn -0.88389 -0.46538 0.04643
vn -0.66776 -0.73351 0.12669
vn -0.40033 -0.91458 0.05736
vn 0.22636 -0.97053 -0.08261
vn 0.73511 -0.65283 -0.18281
vn 0.91427 -0.34656 -0.20978
vn 0.86179 -0.04750 -0.50504
vn 0.80576 0.34897 -0.47851
vn 0.58200 0.65695 -0.47926
vn 0.29501 0.81615 -0.49686
vn -0.09762 0.84612 -0.52398
vn -0.56555 0.67075 -0.47984
vn -0.85295 0.32080 -0.41179
vn -0.89123 -0.03213 -0.45241
vn -0.78007 -0.37708 -0.49931
vn -0.60228 -0.63260 -0.48690
vn -0.31095 -0.75112 -0.58235
vn 0.19270 -0.71647 -0.67048
vn 0.58722 -0.50159 -0.63528
vn 0.75421 -0.31913 -0.57386
vn 0.66000 -0.07756 -0.74725
vn 0.61853 0.24674 -0.74601
vn 0.46040 0.49982 -0.73363
vn 0.24299 0.62761 -0.73964
vn -0.05382 0.63599 -0.76982
vn -0.38706 0.49931 -0.77516
vn -0.62738 0.23791 -0.74148
vn -0.68346 -0.05362 -0.72802
vn -0.59441 -0.30194 -0.74532
vn -0.43412 -0.46942 -0.76888
vn -0.18972 -0.51695 -0.83473
vn 0.14939 -0.47896 -0.86503
vn 0.43403 -0.38444 -0.81476
vn 0.57615 -0.29238 -0.76326
vn 0.46151 -0.08404 -0.88314
vn 0.43441 0.13900 -0.88993
vn 0.34604 0.32000 -0.88196
vn 0.20253 0.42288 -0.88326
vn -0.01137 0.44192 -0.89698
vn -0.24804 0.35196 -0.90255
vn -0.42648 0.16822 -0.88872
vn -0.49008 -0.05233 -0.87010
vn -0.44052 -0.25006 -0.86222
vn -0.30515 -0.38227 -0.87221
vn -0.10494 -0.41622 -0.90319
vn 0.13380 -0.38790 -0.91194
vn 0.33201 -0.32955 -0.88383
vn 0.42529 -0.24829 -0.87033
vn 0.31131 -0.07977 -0.94695
vn 0.29992 0.04629 -0.95284
vn 0.25448 0.15283 -0.95493
vn 0.17314 0.21888 -0.96027
vn 0.04761 0.23961 -0.96970
vn -0.09558 0.19781 -0.97557
vn -0.20977 0.09771 -0.97286
vn -0.26285 -0.03300 -0.96427
vn -0.24583 -0.16219 -0.95565
vn -0.16351 -0.25766 -0.95230
vn -0.03504 -0.29879 -0.95368
vn 0.11628 -0.29350 -0.94886
vn 0.23898 -0.24820 -0.93877
vn 0.29391 -0.17970 -0.93879
vn 0.21229 -0.07990 -0.97394
vn 0.21295 -0.01210 -0.97699
vn 0.18808 0.04144 -0.98128
vn 0.14977 0.07291 -0.98603
vn 0.09101 0.08698 -0.99204
vn 0.01955 0.07102 -0.99728
vn -0.03654 0.02638 -0.99898
vn -0.06229 -0.02721 -0.99769
vn -0.06213 -0.07507 -0.99524
vn -0.04136 -0.11759 -0.99220
vn 0.00835 -0.15654 -0.98764
vn 0.08637 -0.17332 -0.98107
vn 0.15313 -0.15702 -0.97565
vn 0.18920 -0.12767 -0.97360
f 1//1 15//15 16//16
f 1//1 16//16 2//2
f 2//2 16//16 17//17
f 2//2 17//17 3//3
f 3//3 17//17 18//18
f 3//3 18//18 4//4
f 4//4 18//18 19//19
f 4//4 19//19 5//5
f 5//5 19//19 20//20
f 5//5 20//20 6//6
f 6//6 20//20 21//21
f 6//6 21//21 7//7
f 7//7 21//21 22//22
f 7//7 22//22 8//8
f 8//8 22//22 23//23
f 8//8 23//23 9//9
f 9//9 23//23 24//24
f 9//9 24//24 10//10
f 10//10 24//24 25//25
f 10//10 25//25 11//11
f 11//11 25//25 26//26
f 11//11 26//26 12//12
f 12//12 26//26 27//27
f 12//12 27//27 13//13
f 13//13 27//27 28//28
f 13//13 28//28 14//14
f 14//14 28//28 15//15
f 14//14 15//15 1//1
f 15//15 29//29 30//30
f 15//15 30//30 16//16
f 16//16 30//30 31//31
f 16//16 31//31 17//17
f 17//17 31//31 32//32
f 17//17 32//32 18//18
f 18//18 32//32 33//33
f 18//18 33//33 19//19
f 19//19 33//33 34//34
f 19//19 34//34 20//20
f 20//20 34//34 35//35
f 20//20 35//35 21//21
f 21//21 35//35 36//36
f 21//21 36//36 22//22
f 22//22 36//36 37//37
f 22//22 37//37 23//23
f 23//23 37//37 38//38
f 23//23 38//38 24//24
f 24//24 38//38 39//39
f 24//24 39//39 25//25
f 25//25 39//39 40//40
f 25//25 40//40 26//26
f 26//26 40//40 41//41
f 26//26 41//41 27//27
f 27//27 41//41 42//42
f 27//27 42//42 28//28
f 28//28 42//42 29//29
f 28//28 29//29 15//15
f 29//29 43//43 44//44
f 29//29 44//44 30//30
f 30//30 44//44 45//45
f 30//30 45//45 31//31
f 31//31 45//45 46//46
f 31//31 46//46 32//32
f 32//32 46//46 47//47
f 32//32 47//47 33//33
f 33//33 47//47 48//48
f 33//33 48//48 34//34
f 34//34 48//48 49//49
f 34//34 49//49 35//35
f 35//35 49//49 50//50
f 35//35 50//50 36//36
f 36//36 50//50 51//51
f 36//36 51//51 37//37
f 37//37 51//51 52//52
f 37//37 52//52 38//38
f 38//38 52//52 53//53
f 38//38 53//53 39//39
f 39//39 53//53 54//54
f 39//39 54//54 40//40
f 40//40 54//54 55//55
f 40//40 55//55 41//41
f 41//41 55//55 56//56
f 41//41 56//56 42//42
f 42//42 56//56 43//43
f 42//42 43//43 29//29
f 43//43 57//57 58//58
f 43//43 58//58 44//44
f 44//44 58//58 59//59
f 44//44 59//59 45//45
f 45//45 59//59 60//60
f 45//45 60//60 46//46
f 46//46 60//60 61//61
f 46//46 61//61 47//47
f 47//47 61//61 62//62
f 47//47 62//62 48//48
f 48//48 62//62 63//63
f 48//48 63//63 49//49
f 49//49 63//63 64//64
f 49//49 64//64 50//50
f 50//50 64//64 65//65
f 50//50 65//65 51//51
f 51//51 65//65 66//66
f 51//51 66//66 52//52
f 52//52 66//66 67//67
f 52//52 67//67 53//53
f 53//53 67//67 68//68
f 53//53 68//68 54//54
f 54//54 68//68 69//69
f 54//54 69//69 55//55
f 55//55 69//69 70//70
f 55//55 70//70 56//56
f 56//56 70//70 57//57
f 56//56 57//57 43//43
f 57//57 71//71 72//72
f 57//57 72//72 58//58
f 58//58 72//72 73//73
f 58//58 73//73 59//59
f 59//59 73//73 74//74
f 59//59 74//74 60//60
f 60//60 74//74 75//75
f 60//60 75//75 61//61
f 61//61 75//75 76//76
f 61//61 76//76 62//62
f 62//62 76//76 77//77
f 62//62 77//77 63//63
f 63//63 77//77 78//78
f 63//63 78//78 64//64
f 64//64 78//78 79//79
f 64//64 79//79 65//65
f 65//65 79//79 80//80
f 65//65 80//80 66//66
f 66//66 80//80 81//81
f 66//66 81//81 67//67
f 67//67 81//81 82//82
f 67//67 82//82 68//68
f 68//68 82//82 83//83
f 68//68 83//83 69//69
f 69//69 83//83 84//84
f 69//69 84//84 70//70
f 70//70 84//84 71//71
f 70//70 71//71 57//57
f 71//71 85//85 86//86
f 71//71 86//86 72//72
f 72//72 86//86 87//87
f 72//72 87//87 73//73
f 73//73 87//87 88//88
f 73//73 88//88 74//74
f 74//74 88//88 89//89
f 74//74 89//89 75//75
f 75//75 89//89 90//90
f 75//75 90//90 76//76
f 76//76 90//90 91//91
f 76//76 91//91 77//77
f 77//77 91//91 92//92
f 77//77 92//92 78//78
f 78//78 92//92 93//93
f 78//78 93//93 79//79
f 79//79 93//93 94//94
f 79//79 94//94 80//80
f 80//80 94//94 95//95
f 80//80 95//95 81//81
f 81//81 95//95 96//96
f 81//81 96//96 82//82
f 82//82 96//96 97//97
f 82//82 97//97 83//83
f 83//83 97//97 98//98
f 83//83 98//98 84//84
f 84//84 98//98 85//85
f 84//84 85//85 71//71
f 85//85 99//99 100//100
f 85//85 100//100 86//86
f 86//86 100//100 101//101
f 86//86 101//101 87//87
f 87//87 101//101 102//102
f 87//87 102//102 88//88
f 88//88 102//102 103//103
f 88//88 103//103 89//89
f 89//89 103//103 104//104
f 89//89 104//104 90//90
f 90//90 104//104 105//105
f 90//90 105//105 91//91
f 91//91 105//105 106//106
f 91//91 106//106 92//92
f 92//92 106//106 107//107
f 92//92 107//107 93//93
f 93//93 107//107 108//108
f 93//93 108//108 94//94
f 94//94 108//108 109//109
f 94//94 109//109 95//95
f 95//95 109//109 110//110
f 95//95 110//110 96//96
f 96//96 110//110 111//111
f 96//96 111//111 97//97
f 97//97 111//111 112//112
f 97//97 112//112 98//98
f 98//98 112//112 99//99
f 98//98 99//99 85//85
f 99//99 113//113 114//114
f 99//99 114//114 100//100
f 100//100 114//114 115//115
f 100//100 115//115 101//101
f 101//101 115//115 116//116
f 101//101 116//116 102//102
f 102//102 116//116 117//117
f 102//102 117//117 103//103
f 103//103 117//117 118//118
f 103//103 118//118 104//104
f 104//104 118//118 119//119
f 104//104 119//119 105//105
f 105//105 119//119 120//120
f 105//105 120//120 106//106
f 106//106 120//120 121//121
f 106//106 121//121 107//107
f 107//107 121//121 122//122
f 107//107 122//122 108//108
f 108//108 122//122 123//123
f 108//108 123//123 109//109
f 109//109 123//123 124//124
f 109//109 124//124 110//110
f 110//110 124//124 125//125
f 110//110 125//125 111//111
f 111//111 125//125 126//126
f 111//111 126//126 112//112
f 112//112 126//126 113//113
f 112//112 113//113 99//99
f 113//113 127//127 128//128
f 113//113 128//128 114//114
f 114//114 128//128 129//129
f 114//114 129//129 115//115
f 115//115 129//129 130//130
f 115//115 130//130 116//116
f 116//116 130//130 131//131
f 116//116 131//131 117//117
f 117//117 131//131 132//132
f 117//117 132//132 118//118
f 118//118 132//132 133//133
f 118//118 133//133 119//119
f 119//119 133//133 134//134
f 119//119 134//134 120//120
f 120//120 134//134 135//135
f 120//120 135//135 121//121
f 121//121 135//135 136//136
f 121//121 136//136 122//122
f 122//122 136//136 137//137
f 122//122 137//137 123//123
f 123//123 137//137 138//138
f 123//123 138//138 124//124
f 124//124 138//138 139//139
f 124//124 139//139 125//125
f 125//125 139//139 140//140
f 125//125 140//140 126//126
f 126//126 140//140 127//127
f 126//126 127//127 113//113
f 127//127 141//141 142//142
f 127//127 142//142 128//128
f 128//128 142//142 143//143
f 128//128 143//143 129//129
f 129//129 143//143 144//144
f 129//129 144//144 130//130
f 130//130 144//144 145//145
f 130//130 145//145 131//131
f 131//131 145//145 146//146
f 131//131 146//146 132//132
f 132//132 146//146 147//147
f 132//132 147//147 133//133
f 133//133 147//147 148//148
f 133//133 148//148 134//134
f 134//134 148//148 149//149
f 134//134 149//149 135//135
f 135//135 149//149 150//150
f 135//135 150//150 136//136
f 136//136 150//150 151//151
f 136//136 151//151 137//137
f 137//137 151//151 152//152
f 137//137 152//152 138//138
f 138//138 152//152 153//153
f 138//138 153//153 139//139
f 139//139 153//153 154//154
f 139//139 154//154 140//140
f 140//140 154//154 141//141
f 140//140 141//141 127//127
