# generated by scripts/make_scenery.py
v -0.00278 0.05579 0.00000
v -0.00278 0.04439 0.13000
v -0.02623 0.04449 0.00000
v -0.01732 0.03739 0.13000
v -0.03202 0.01911 0.00000
v -0.02091 0.02165 0.13000
v -0.01579 -0.00124 0.00000
v -0.01085 0.00903 0.13000
v 0.01024 -0.00124 0.00000
v 0.00529 0.00903 0.13000
v 0.02647 0.01911 0.00000
v 0.01536 0.02165 0.13000
v 0.02068 0.04449 0.00000
v 0.01177 0.03739 0.13000
v -0.00278 0.04429 0.12803
v 0.02472 0.04593 0.21030
v -0.01656 0.03781 0.13337
v 0.01617 0.04191 0.21361
v -0.01997 0.02228 0.13617
v 0.01406 0.03229 0.21535
v -0.01043 0.00940 0.13432
v 0.01998 0.02430 0.21420
v 0.00487 0.00885 0.12922
v 0.02947 0.02396 0.21104
v 0.01442 0.02106 0.12470
v 0.03538 0.03153 0.20824
v 0.01101 0.03683 0.12417
v 0.03327 0.04131 0.20791
v 0.02472 0.04572 0.21403
v 0.03052 0.02860 0.27069
v 0.01575 0.04129 0.21394
v 0.02495 0.02585 0.27064
v 0.01353 0.03172 0.21203
v 0.02358 0.01992 0.26946
v 0.01974 0.02421 0.20974
v 0.02743 0.01527 0.26803
v 0.02970 0.02443 0.20878
v 0.03360 0.01540 0.26744
v 0.03591 0.03219 0.20989
v 0.03745 0.02021 0.26813
v 0.03369 0.04167 0.21222
v 0.03608 0.02609 0.26957
v 0.03052 0.02849 0.27110
v 0.02294 0.01600 0.30500
v 0.02505 0.02622 0.26925
v 0.01955 0.01459 0.30386
v 0.02369 0.02048 0.26732
v 0.01871 0.01103 0.30266
v 0.02748 0.01560 0.26676
v 0.02106 0.00800 0.30231
v 0.03355 0.01525 0.26798
v 0.02483 0.00779 0.30307
v 0.03734 0.01970 0.27008
v 0.02717 0.01054 0.30437
v 0.03599 0.02559 0.27147
v 0.02633 0.01420 0.30523
v 0.02567 0.02688 0.26914
v 0.00899 0.00782 0.30756
v 0.02406 0.02173 0.26607
v 0.00799 0.00463 0.30566
v 0.02731 0.01650 0.26532
v 0.01000 0.00138 0.30519
v 0.03297 0.01512 0.26744
v 0.01352 0.00053 0.30650
v 0.03679 0.01864 0.27084
v 0.01588 0.00271 0.30861
v 0.03588 0.02440 0.27296
v 0.01532 0.00628 0.30993
v 0.03093 0.02807 0.27220
v 0.01225 0.00856 0.30946
v 0.02472 0.04598 0.21106
v 0.04790 0.04415 0.27461
v 0.01625 0.04177 0.21432
v 0.04265 0.04154 0.27664
v 0.01416 0.03205 0.21548
v 0.04135 0.03552 0.27735
v 0.02002 0.02415 0.21365
v 0.04498 0.03062 0.27622
v 0.02942 0.02401 0.21022
v 0.05081 0.03053 0.27409
v 0.03528 0.03174 0.20777
v 0.05444 0.03532 0.27257
v 0.03319 0.04152 0.20814
v 0.05315 0.04139 0.27280
v 0.04790 0.04394 0.27312
v 0.05657 0.05150 0.31357
v 0.04243 0.04162 0.27491
v 0.05318 0.05006 0.31468
v 0.04108 0.03583 0.27669
v 0.05234 0.04647 0.31578
v 0.04486 0.03093 0.27712
v 0.05469 0.04343 0.31604
v 0.05093 0.03061 0.27588
v 0.05845 0.04324 0.31527
v 0.05472 0.03511 0.27390
v 0.06080 0.04603 0.31405
v 0.05337 0.04104 0.27267
v 0.05996 0.04970 0.31329
v 0.04790 0.04358 0.27773
v 0.04724 0.02264 0.31938
v 0.04231 0.04114 0.27659
v 0.04377 0.02113 0.31868
v 0.04093 0.03559 0.27418
v 0.04292 0.01769 0.31718
v 0.04480 0.03111 0.27231
v 0.04532 0.01492 0.31602
v 0.05100 0.03108 0.27239
v 0.04916 0.01490 0.31607
v 0.05487 0.03551 0.27436
v 0.05156 0.01764 0.31729
v 0.05349 0.04107 0.27674
v 0.05070 0.02109 0.31877
v 0.01456 0.01906 0.13000
v 0.02606 0.06821 0.20943
v 0.01249 0.03307 0.12226
v 0.02478 0.07689 0.20463
v -0.00108 0.04160 0.12034
v 0.01636 0.08218 0.20345
v -0.01593 0.03822 0.12570
v 0.00716 0.08009 0.20677
v -0.02087 0.02549 0.13430
v 0.00409 0.07220 0.21210
v -0.01219 0.01298 0.13966
v 0.00948 0.06444 0.21542
v 0.00358 0.01012 0.13774
v 0.01925 0.06267 0.21424
v 0.02684 0.07269 0.20943
v 0.02140 0.11178 0.25101
v 0.02232 0.07913 0.20325
v 0.01860 0.11577 0.24717
v 0.01253 0.08049 0.20172
v 0.01253 0.11661 0.24623
v 0.00483 0.07574 0.20600
v 0.00775 0.11367 0.24888
v 0.00502 0.06846 0.21287
v 0.00788 0.10916 0.25314
v 0.01297 0.06414 0.21715
v 0.01280 0.10648 0.25579
v 0.02268 0.06602 0.21562
v 0.01882 0.10764 0.25485
v 0.01713 0.11814 0.25101
v -0.02046 0.13167 0.26464
v 0.01439 0.11640 0.24572
v -0.02216 0.13059 0.26136
v 0.01155 0.11104 0.24442
v -0.02392 0.12727 0.26055
v 0.01075 0.10609 0.24808
v -0.02442 0.12420 0.26282
v 0.01258 0.10529 0.25395
v -0.02328 0.12370 0.26646
v 0.01568 0.10922 0.25761
v -0.02136 0.12615 0.26873
v 0.01770 0.11494 0.25630
v -0.02010 0.12969 0.26792
v 0.01840 0.11741 0.25101
v -0.00829 0.13307 0.26868
v 0.01457 0.11683 0.24616
v -0.01066 0.13271 0.26567
v 0.01051 0.11230 0.24496
v -0.01318 0.12990 0.26493
v 0.00926 0.10723 0.24832
v -0.01395 0.12676 0.26701
v 0.01178 0.10545 0.25370
v -0.01240 0.12565 0.27035
v 0.01616 0.10828 0.25706
v -0.00968 0.12741 0.27243
v 0.01910 0.11361 0.25586
v -0.00785 0.13071 0.27168
v 0.01739 0.10516 0.25101
v 0.04667 0.12247 0.26613
v 0.01825 0.10858 0.24591
v 0.04720 0.12459 0.26296
v 0.01611 0.11426 0.24464
v 0.04587 0.12811 0.26218
v 0.01256 0.11793 0.24818
v 0.04368 0.13039 0.26437
v 0.01029 0.11682 0.25384
v 0.04227 0.12970 0.26788
v 0.01101 0.11177 0.25738
v 0.04271 0.12657 0.27007
v 0.01416 0.10658 0.25612
v 0.04467 0.12335 0.26929
v 0.02637 0.07564 0.20943
v 0.01179 0.10961 0.26873
v 0.02004 0.08177 0.20469
v 0.00786 0.11341 0.26578
v 0.01015 0.08083 0.20352
v 0.00173 0.11282 0.26506
v 0.00414 0.07353 0.20680
v -0.00199 0.10830 0.26709
v 0.00655 0.06536 0.21207
v -0.00050 0.10324 0.27036
v 0.01555 0.06249 0.21535
v 0.00508 0.10145 0.27239
v 0.02438 0.06706 0.21418
v 0.01055 0.10429 0.27167
v 0.00918 0.11334 0.26873
v -0.01067 0.12461 0.31354
v 0.00357 0.11414 0.26620
v -0.01415 0.12511 0.31198
v -0.00102 0.11000 0.26558
v -0.01699 0.12254 0.31159
v -0.00112 0.10405 0.26733
v -0.01705 0.11885 0.31268
v 0.00333 0.10076 0.27013
v -0.01429 0.11681 0.31441
v 0.00899 0.10261 0.27187
v -0.01078 0.11796 0.31549
v 0.01159 0.10821 0.27125
v -0.00917 0.12143 0.31511
v 0.01119 0.10414 0.26873
v 0.02073 0.12707 0.31718
v 0.01124 0.10980 0.26619
v 0.02076 0.13058 0.31561
v 0.00654 0.11379 0.26556
v 0.01784 0.13306 0.31522
v 0.00062 0.11312 0.26732
v 0.01418 0.13264 0.31631
v -0.00204 0.10828 0.27013
v 0.01252 0.12963 0.31805
v 0.00054 0.10292 0.27189
v 0.01413 0.12631 0.31914
v 0.00643 0.10107 0.27126
v 0.01778 0.12517 0.31875
v 0.00493 0.11450 0.26688
v -0.01371 0.12529 0.31787
v -0.00033 0.11141 0.26575
v -0.01698 0.12338 0.31717
v -0.00163 0.10544 0.26686
v -0.01778 0.11968 0.31786
v 0.00201 0.10109 0.26938
v -0.01552 0.11699 0.31941
v 0.00785 0.10163 0.27140
v -0.01190 0.11732 0.32067
v 0.01149 0.10666 0.27141
v -0.00964 0.12043 0.32067
v 0.01019 0.11238 0.26940
v -0.01045 0.12398 0.31943
v -0.10183 0.02867 0.00000
v -0.10183 0.01727 0.13000
v -0.12529 0.01738 0.00000
v -0.11638 0.01027 0.13000
v -0.13108 -0.00800 0.00000
v -0.11997 -0.00547 0.13000
v -0.11485 -0.02836 0.00000
v -0.10990 -0.01809 0.13000
v -0.08882 -0.02836 0.00000
v -0.09376 -0.01809 0.13000
v -0.07259 -0.00800 0.00000
v -0.08370 -0.00547 0.13000
v -0.07838 0.01738 0.00000
v -0.08729 0.01027 0.13000
v -0.09939 0.01711 0.13000
v -0.15582 0.01744 0.21174
v -0.11221 0.01174 0.12178
v -0.16376 0.01412 0.20664
v -0.11721 -0.00347 0.11975
v -0.16686 0.00468 0.20539
v -0.11063 -0.01707 0.12544
v -0.16278 -0.00375 0.20891
v -0.09743 -0.01881 0.13456
v -0.15460 -0.00483 0.21457
v -0.08754 -0.00739 0.14025
v -0.14847 0.00225 0.21809
v -0.08842 0.00860 0.13822
v -0.14901 0.01216 0.21683
v -0.15733 0.01714 0.20871
v -0.17961 0.03244 0.28168
v -0.16597 0.01227 0.20736
v -0.18496 0.02942 0.28084
v -0.16810 0.00269 0.20930
v -0.18628 0.02348 0.28204
v -0.16212 -0.00439 0.21308
v -0.18258 0.01909 0.28439
v -0.15253 -0.00364 0.21585
v -0.17663 0.01956 0.28610
v -0.14656 0.00438 0.21552
v -0.17293 0.02453 0.28590
v -0.14869 0.01363 0.21235
v -0.17425 0.03027 0.28393
v -0.17961 0.03237 0.28142
v -0.19339 0.04675 0.33654
v -0.18504 0.02941 0.28097
v -0.19676 0.04492 0.33626
v -0.18638 0.02354 0.28246
v -0.19759 0.04128 0.33719
v -0.18262 0.01918 0.28478
v -0.19526 0.03858 0.33862
v -0.17659 0.01961 0.28617
v -0.19152 0.03885 0.33949
v -0.17283 0.02451 0.28560
v -0.18919 0.04189 0.33913
v -0.17417 0.03019 0.28348
v -0.19002 0.04541 0.33782
v -0.18509 0.03013 0.28355
v -0.20261 0.00491 0.32277
v -0.18585 0.02502 0.28012
v -0.20308 0.00174 0.32064
v -0.18191 0.02030 0.27927
v -0.20063 -0.00118 0.32011
v -0.17623 0.01954 0.28165
v -0.19711 -0.00166 0.32159
v -0.17309 0.02329 0.28546
v -0.19517 0.00067 0.32395
v -0.17486 0.02874 0.28784
v -0.19626 0.00405 0.32543
v -0.18020 0.03178 0.28699
v -0.19958 0.00594 0.32490
v -0.16851 0.00884 0.21174
v -0.17416 -0.03136 0.27581
v -0.16617 0.00038 0.20693
v -0.17271 -0.03661 0.27283
v -0.15717 -0.00384 0.20575
v -0.16713 -0.03923 0.27210
v -0.14829 -0.00064 0.20907
v -0.16163 -0.03724 0.27416
v -0.14622 0.00757 0.21441
v -0.16034 -0.03215 0.27747
v -0.15251 0.01460 0.21773
v -0.16424 -0.02779 0.27953
v -0.16243 0.01517 0.21654
v -0.17039 -0.02744 0.27879
v -0.17315 -0.02912 0.27581
v -0.18448 -0.05074 0.31445
v -0.17357 -0.03455 0.27284
v -0.18474 -0.05410 0.31261
v -0.16922 -0.03890 0.27211
v -0.18204 -0.05680 0.31215
v -0.16336 -0.03890 0.27416
v -0.17841 -0.05680 0.31343
v -0.16042 -0.03455 0.27746
v -0.17658 -0.05410 0.31547
v -0.16261 -0.02912 0.27952
v -0.17794 -0.05074 0.31675
v -0.16827 -0.02670 0.27879
v -0.18145 -0.04924 0.31629
v -0.16723 -0.02602 0.27500
v -0.16087 -0.02316 0.32385
v -0.17277 -0.02861 0.27602
v -0.16430 -0.02477 0.32449
v -0.17414 -0.03460 0.27689
v -0.16515 -0.02849 0.32502
v -0.17031 -0.03947 0.27694
v -0.16277 -0.03151 0.32506
v -0.16415 -0.03956 0.27615
v -0.15896 -0.03157 0.32456
v -0.16032 -0.03480 0.27510
v -0.15658 -0.02861 0.32391
v -0.16169 -0.02877 0.27459
v -0.15743 -0.02487 0.32360
v -0.17427 -0.03188 0.27581
v -0.17591 -0.05688 0.31508
v -0.17244 -0.03700 0.27282
v -0.17477 -0.06005 0.31322
v -0.16668 -0.03919 0.27208
v -0.17121 -0.06141 0.31277
v -0.16134 -0.03681 0.27415
v -0.16789 -0.05994 0.31405
v -0.16043 -0.03165 0.27747
v -0.16733 -0.05674 0.31611
v -0.16464 -0.02760 0.27955
v -0.16994 -0.05423 0.31739
v -0.17080 -0.02770 0.27881
v -0.17376 -0.05429 0.31694
v -0.10183 0.01645 0.12454
v -0.09409 0.03372 0.20485
v -0.11631 0.01016 0.12790
v -0.10307 0.02982 0.20694
v -0.11989 -0.00478 0.13285
v -0.10529 0.02055 0.21000
v -0.10987 -0.01712 0.13565
v -0.09907 0.01290 0.21174
v -0.09380 -0.01757 0.13419
v -0.08911 0.01263 0.21084
v -0.08378 -0.00579 0.12958
v -0.08290 0.01993 0.20798
v -0.08736 0.00936 0.12529
v -0.08512 0.02932 0.20532
v -0.08280 0.02037 0.20824
v -0.07555 0.07733 0.22451
v -0.08655 0.02366 0.19957
v -0.07788 0.07937 0.21913
v -0.09599 0.02622 0.19742
v -0.08373 0.08096 0.21780
v -0.10399 0.02613 0.20343
v -0.08870 0.08090 0.22153
v -0.10454 0.02345 0.21305
v -0.08904 0.07924 0.22749
v -0.09723 0.02020 0.21905
v -0.08450 0.07722 0.23121
v -0.08755 0.01883 0.21691
v -0.07850 0.07638 0.22989
v -0.07565 0.07692 0.22451
v -0.06929 0.11118 0.24891
v -0.07742 0.08072 0.21994
v -0.07038 0.11353 0.24608
v -0.08306 0.08305 0.21881
v -0.07388 0.11498 0.24538
v -0.08832 0.08216 0.22197
v -0.07714 0.11442 0.24734
v -0.08924 0.07872 0.22705
v -0.07771 0.11229 0.25049
v -0.08513 0.07531 0.23021
v -0.07517 0.11018 0.25245
v -0.07908 0.07451 0.22908
v -0.07142 0.10968 0.25175
v -0.07780 0.07344 0.22451
v -0.05658 0.09600 0.24346
v -0.07741 0.07739 0.21975
v -0.05634 0.09845 0.24051
v -0.08089 0.08239 0.21857
v -0.05850 0.10155 0.23978
v -0.08563 0.08466 0.22187
v -0.06144 0.10296 0.24182
v -0.08806 0.08250 0.22715
v -0.06294 0.10161 0.24510
v -0.08634 0.07753 0.23045
v -0.06188 0.09853 0.24714
v -0.08177 0.07350 0.22927
v -0.05905 0.09603 0.24641
v -0.07541 0.07865 0.22451
v -0.07776 0.10037 0.25409
v -0.07802 0.08321 0.22121
v -0.07938 0.10319 0.25204
v -0.08405 0.08442 0.22039
v -0.08312 0.10394 0.25154
v -0.08896 0.08138 0.22268
v -0.08616 0.10206 0.25295
v -0.08904 0.07638 0.22634
v -0.08621 0.09895 0.25523
v -0.08424 0.07318 0.22863
v -0.08324 0.09697 0.25664
v -0.07817 0.07419 0.22781
v -0.07948 0.09760 0.25614
v -0.09409 0.03423 0.20821
v -0.07151 0.02997 0.26128
v -0.10239 0.02990 0.21175
v -0.07666 0.02729 0.26348
v -0.10444 0.02014 0.21265
v -0.07793 0.02124 0.26403
v -0.09870 0.01231 0.21022
v -0.07437 0.01639 0.26253
v -0.08949 0.01230 0.20630
v -0.06866 0.01638 0.26010
v -0.08375 0.02012 0.20384
v -0.06510 0.02123 0.25857
v -0.08580 0.02988 0.20469
v -0.06637 0.02728 0.25910
v -0.07627 0.02816 0.26130
v -0.09455 0.00822 0.28544
v -0.07727 0.02367 0.25714
v -0.09516 0.00544 0.28286
v -0.07393 0.01854 0.25611
v -0.09309 0.00226 0.28222
v -0.06877 0.01664 0.25899
v -0.08990 0.00108 0.28401
v -0.06568 0.01940 0.26361
v -0.08798 0.00279 0.28687
v -0.06698 0.02474 0.26649
v -0.08878 0.00610 0.28866
v -0.07169 0.02864 0.26546
v -0.09171 0.00852 0.28802
v -0.07151 0.02981 0.25975
v -0.05941 0.03620 0.30123
v -0.07688 0.02751 0.26185
v -0.06274 0.03477 0.30253
v -0.07821 0.02169 0.26353
v -0.06356 0.03116 0.30357
v -0.07449 0.01672 0.26353
v -0.06126 0.02808 0.30357
v -0.06853 0.01635 0.26185
v -0.05756 0.02785 0.30253
v -0.06482 0.02085 0.25975
v -0.05526 0.03065 0.30123
v -0.06614 0.02684 0.25882
v -0.05608 0.03436 0.30065
v -0.07076 0.01571 0.26130
v -0.05138 0.02051 0.29019
v -0.06645 0.01888 0.25814
v -0.04871 0.02247 0.28823
v -0.06596 0.02501 0.25736
v -0.04840 0.02627 0.28775
v -0.06965 0.02950 0.25955
v -0.05069 0.02905 0.28910
v -0.07474 0.02896 0.26305
v -0.05385 0.02872 0.29127
v -0.07740 0.02380 0.26524
v -0.05550 0.02552 0.29263
v -0.07563 0.01790 0.26446
v -0.05440 0.02186 0.29214
vn 0.11280 -0.98982 -0.08680
vn -0.20942 -0.97409 -0.08542
vn 0.84420 -0.52895 -0.08680
vn 0.63100 -0.77106 -0.08542
vn 0.93990 0.33023 -0.08680
vn 0.99627 0.01259 -0.08542
vn 0.32784 0.94074 -0.08680
vn 0.61132 0.78676 -0.08542
vn -0.53110 0.84285 -0.08680
vn -0.23396 0.96849 -0.08542
vn -0.99010 0.11028 -0.08680
vn -0.90307 0.42092 -0.08542
vn -0.70354 -0.70533 -0.08680
vn -0.89214 -0.44360 -0.08542
vn 0.08125 -0.99667 -0.00726
vn -0.22397 -0.97003 0.09424
vn 0.77503 -0.56277 -0.28743
vn 0.57320 -0.79633 -0.19314
vn 0.86581 0.28879 -0.40864
vn 0.91966 -0.02899 -0.39163
vn 0.28523 0.91677 -0.27959
vn 0.55453 0.75416 -0.35177
vn -0.52952 0.84830 0.00252
vn -0.24726 0.96340 -0.10357
vn -0.96491 0.13492 0.22527
vn -0.88193 0.44116 0.16607
vn -0.69309 -0.68616 0.22092
vn -0.87157 -0.41929 0.25410
vn 0.10523 -0.94892 -0.29744
vn -0.21567 -0.94063 -0.26212
vn 0.83393 -0.48304 -0.26688
vn 0.62161 -0.72438 -0.29812
vn 0.92928 0.35852 -0.08890
vn 0.98552 0.04909 -0.16232
vn 0.31948 0.94204 0.10247
vn 0.60201 0.79733 0.04301
vn -0.53629 0.82812 0.16314
vn -0.24013 0.95691 0.16326
vn -0.99360 0.10255 0.04741
vn -0.90674 0.40766 0.10788
vn -0.70810 -0.68831 -0.15757
vn -0.89585 -0.43682 -0.08144
vn 0.12555 -0.93964 -0.31830
vn -0.19036 -0.90658 -0.37667
vn 0.84210 -0.53727 -0.04692
vn 0.63297 -0.75860 -0.15452
vn 0.93586 0.28445 0.20798
vn 0.99081 -0.02483 0.13300
vn 0.33622 0.90676 0.25444
vn 0.61369 0.74218 0.26937
vn -0.50528 0.86104 0.05749
vn -0.21441 0.96486 0.15191
vn -0.95496 0.18172 -0.23457
vn -0.86990 0.47553 -0.13093
vn -0.67422 -0.61966 -0.40181
vn -0.85920 -0.35734 -0.36617
vn 0.76513 -0.64375 0.01290
vn 0.55540 -0.81539 -0.16331
vn 0.90316 0.11121 0.41466
vn 0.93565 -0.18862 0.29831
vn 0.37890 0.79883 0.46723
vn 0.62886 0.59632 0.49894
vn -0.41287 0.90132 0.13102
vn -0.13395 0.94837 0.28750
vn -0.87592 0.34150 -0.34080
vn -0.77836 0.60242 -0.17679
vn -0.66158 -0.45907 -0.59293
vn -0.81912 -0.18103 -0.54430
vn 0.06876 -0.89755 -0.43552
vn -0.22554 -0.81201 -0.53830
vn 0.08405 -0.99470 -0.05927
vn -0.21875 -0.97441 0.05173
vn 0.77221 -0.54352 -0.32905
vn 0.57194 -0.78283 -0.24510
vn 0.86225 0.31511 -0.39652
vn 0.91559 -0.00356 -0.40211
vn 0.28638 0.93462 -0.21087
vn 0.55342 0.77659 -0.30107
vn -0.52178 0.84852 0.08810
vn -0.24184 0.97015 -0.01806
vn -0.95364 0.12164 0.27526
vn -0.87136 0.43137 0.23380
vn -0.68403 -0.69867 0.20967
vn -0.86108 -0.43404 0.26486
vn 0.09728 -0.98187 0.16271
vn -0.21830 -0.94974 0.22438
vn 0.81412 -0.57226 -0.09861
vn 0.60534 -0.79595 0.00534
vn 0.90791 0.25652 -0.33149
vn 0.96331 -0.05435 -0.26282
vn 0.30804 0.88039 -0.36058
vn 0.58606 0.71662 -0.37815
vn -0.53379 0.82957 -0.16396
vn -0.24235 0.93640 -0.25382
vn -0.98366 0.14232 0.11030
vn -0.89809 0.43949 0.01655
vn -0.70280 -0.66385 0.25569
vn -0.88739 -0.39991 0.22937
vn 0.11385 -0.88843 -0.44467
vn -0.20902 -0.87245 -0.44175
vn 0.84671 -0.46849 -0.25217
vn 0.63303 -0.69038 -0.35021
vn 0.94260 0.32150 0.09019
vn 0.99900 0.02856 -0.03434
vn 0.32931 0.88667 0.32461
vn 0.61331 0.74299 0.26799
vn -0.53134 0.80143 0.27456
vn -0.23361 0.91493 0.32913
vn -0.99127 0.12997 -0.02227
vn -0.90401 0.41491 0.10304
vn -0.70413 -0.62208 -0.34236
vn -0.89306 -0.38055 -0.24004
vn -0.97261 0.23244 -0.00302
vn -0.85887 0.48180 -0.17379
vn -0.76681 -0.51217 0.38689
vn -0.92711 -0.25548 0.27422
vn 0.00558 -0.89900 0.43790
vn -0.30787 -0.82784 0.46894
vn 0.76294 -0.63677 0.11161
vn 0.53254 -0.80427 0.26373
vn 0.93496 0.07707 -0.34628
vn 0.96128 -0.20252 -0.18687
vn 0.39211 0.70498 -0.59098
vn 0.65550 0.52428 -0.54356
vn -0.45684 0.77413 -0.43821
vn -0.15455 0.82883 -0.53773
vn -0.98672 -0.16093 0.02222
vn -0.97730 0.07483 -0.19820
vn -0.51124 -0.68081 0.52454
vn -0.75767 -0.53133 0.37898
vn 0.35027 -0.72725 0.59026
vn 0.03355 -0.77601 0.62983
vn 0.94908 -0.26530 0.16990
vn 0.80054 -0.47494 0.36546
vn 0.83427 0.35720 -0.42001
vn 0.96575 0.14516 -0.21505
vn 0.09230 0.67149 -0.73525
vn 0.40477 0.61734 -0.67457
vn -0.71812 0.44090 -0.53844
vn -0.45997 0.58604 -0.66707
vn -0.30970 -0.94692 0.08622
vn -0.39987 -0.89006 -0.21885
vn 0.09298 -0.61950 0.77947
vn -0.06868 -0.81336 0.57769
vn 0.46737 0.15609 0.87018
vn 0.35529 -0.14221 0.92388
vn 0.53154 0.79583 0.29004
vn 0.55277 0.61801 0.55903
vn 0.23718 0.81797 -0.52409
vn 0.37506 0.89483 -0.24211
vn -0.19406 0.20585 -0.95915
vn -0.04402 0.47980 -0.87627
vn -0.43745 -0.57960 -0.68754
vn -0.38889 -0.31455 -0.86592
vn -0.47510 -0.87786 0.06028
vn -0.59748 -0.77142 -0.21892
vn 0.08894 -0.71308 0.69541
vn -0.13886 -0.84837 0.51086
vn 0.62634 -0.04004 0.77852
vn 0.46400 -0.31472 0.82804
vn 0.73242 0.63446 0.24701
vn 0.75715 0.42768 0.49377
vn 0.32731 0.80250 -0.49887
vn 0.51984 0.81979 -0.24024
vn -0.28395 0.33754 -0.89746
vn -0.06924 0.56634 -0.82126
vn -0.64106 -0.41029 -0.64862
vn -0.56649 -0.14182 -0.81177
vn -0.53539 0.84139 0.07361
vn -0.40946 0.88527 -0.22054
vn -0.60106 0.29597 0.74238
vn -0.62826 0.55237 0.54788
vn -0.25896 -0.49420 0.82988
vn -0.41809 -0.21801 0.88186
vn 0.23332 -0.93410 0.27023
vn 0.06280 -0.84574 0.52989
vn 0.50507 -0.69247 -0.51516
vn 0.45228 -0.85814 -0.24299
vn 0.35166 0.04872 -0.93486
vn 0.45707 -0.24587 -0.85477
vn -0.11139 0.73136 -0.67284
vn 0.07356 0.53002 -0.84479
vn -0.91469 -0.40410 0.00649
vn -0.97730 -0.13586 -0.16256
vn -0.29561 -0.87110 0.39216
vn -0.57974 -0.76497 0.28057
vn 0.55306 -0.70584 0.44263
vn 0.26124 -0.84135 0.47316
vn 0.99225 -0.03275 0.11988
vn 0.91239 -0.30749 0.27019
vn 0.69124 0.64131 -0.33303
vn 0.88336 0.43460 -0.17550
vn -0.12330 0.80876 -0.57507
vn 0.19602 0.82612 -0.52830
vn -0.83801 0.34351 -0.42397
vn -0.63205 0.57224 -0.52254
vn -0.48859 -0.87251 0.00311
vn -0.71137 -0.68836 -0.14184
vn 0.31213 -0.88943 0.33389
vn 0.01426 -0.97111 0.23822
vn 0.89248 -0.24743 0.37718
vn 0.74358 -0.53325 0.40340
vn 0.81545 0.57006 0.10037
vn 0.92741 0.29550 0.22932
vn 0.13904 0.94746 -0.28809
vn 0.42732 0.89107 -0.15294
vn -0.62740 0.60056 -0.49568
vn -0.38011 0.80499 -0.45552
vn -0.90672 -0.20940 -0.36608
vn -0.88688 0.10208 -0.45058
vn -0.92857 0.37110 0.00716
vn -0.77557 0.61582 -0.13877
vn -0.83934 -0.42415 0.34002
vn -0.95972 -0.13985 0.24368
vn -0.12625 -0.91484 0.38358
vn -0.42923 -0.80482 0.40990
vn 0.67372 -0.73148 0.10502
vn 0.41642 -0.87835 0.23472
vn 0.95819 -0.01214 -0.28588
vn 0.94045 -0.30506 -0.14994
vn 0.51294 0.70150 -0.49477
vn 0.74825 0.48334 -0.45442
vn -0.32675 0.87205 -0.36436
vn -0.01545 0.89317 -0.44945
vn 0.12291 -0.96081 0.24845
vn -0.18146 -0.97341 0.13982
vn 0.81326 -0.45060 0.36820
vn 0.61172 -0.70347 0.36184
vn 0.90358 0.39001 0.17728
vn 0.95644 0.08741 0.27852
vn 0.32588 0.92801 -0.18054
vn 0.59314 0.80370 -0.04740
vn -0.48483 0.75829 -0.43581
vn -0.20463 0.90601 -0.37050
vn -0.91807 0.00864 -0.39632
vn -0.83612 0.31730 -0.44747
vn -0.64760 -0.75643 -0.09179
vn -0.82581 -0.51912 -0.22036
vn 0.11280 -0.98982 -0.08680
vn -0.20942 -0.97409 -0.08542
vn 0.84420 -0.52895 -0.08680
vn 0.63100 -0.77106 -0.08542
vn 0.93990 0.33023 -0.08680
vn 0.99627 0.01259 -0.08542
vn 0.32784 0.94074 -0.08680
vn 0.61132 0.78676 -0.08542
vn -0.53110 0.84285 -0.08680
vn -0.23396 0.96849 -0.08542
vn -0.99010 0.11028 -0.08680
vn -0.90307 0.42092 -0.08542
vn -0.70354 -0.70533 -0.08680
vn -0.89214 -0.44360 -0.08542
vn 0.00203 -0.99998 0.00548
vn -0.26042 -0.94934 -0.17589
vn 0.66154 -0.62175 0.41928
vn 0.45450 -0.83886 0.29957
vn 0.85273 0.22073 0.47342
vn 0.85652 -0.10058 0.50622
vn 0.43162 0.89305 0.12714
vn 0.64291 0.70955 0.28844
vn -0.28468 0.88894 -0.35881
vn -0.02547 0.98150 -0.18977
vn -0.75679 0.21149 -0.61850
vn -0.64532 0.51047 -0.56831
vn -0.62919 -0.62916 -0.45638
vn -0.74989 -0.34883 -0.56213
vn 0.12435 -0.96280 0.23989
vn -0.18526 -0.97160 0.14721
vn 0.82659 -0.46194 0.32150
vn 0.62159 -0.71189 0.32686
vn 0.91847 0.37618 0.12207
vn 0.97226 0.07346 0.22205
vn 0.33081 0.92043 -0.20824
vn 0.60269 0.79307 -0.08830
vn -0.49387 0.76099 -0.42069
vn -0.20883 0.90506 -0.37049
vn -0.93458 0.01791 -0.35530
vn -0.85121 0.32509 -0.41202
vn -0.65944 -0.74925 -0.06132
vn -0.84072 -0.51010 -0.18162
vn 0.12077 -0.95271 0.27886
vn -0.19340 -0.96005 0.20223
vn 0.83356 -0.46012 0.30574
vn 0.62556 -0.70658 0.33080
vn 0.92682 0.36889 0.07021
vn 0.98149 0.06907 0.17862
vn 0.33033 0.91005 -0.25036
vn 0.60638 0.78280 -0.13973
vn -0.50673 0.75588 -0.41458
vn -0.21732 0.89717 -0.38452
vn -0.95406 0.02245 -0.29878
vn -0.86933 0.32605 -0.37141
vn -0.67479 -0.73794 0.00983
vn -0.85869 -0.50049 -0.11029
vn 0.84006 -0.54183 0.02679
vn 0.66435 -0.72757 -0.17114
vn 0.85597 0.19796 0.47763
vn 0.93384 -0.08731 0.34687
vn 0.24340 0.80796 0.53662
vn 0.51596 0.63765 0.57200
vn -0.53636 0.82881 0.15934
vn -0.27461 0.90141 0.33473
vn -0.89615 0.24482 -0.37011
vn -0.84257 0.50535 -0.18626
vn -0.56503 -0.50425 -0.65305
vn -0.76022 -0.25229 -0.59868
vn 0.20766 -0.85435 -0.47641
vn -0.08958 -0.80099 -0.59194
vn 0.99259 -0.12094 0.01169
vn 0.91011 -0.38238 -0.15964
vn 0.69698 0.59357 0.40236
vn 0.88767 0.35831 0.28923
vn -0.11782 0.88344 0.45348
vn 0.20236 0.85116 0.48433
vn -0.83825 0.53040 0.12655
vn -0.62977 0.72505 0.27872
vn -0.92181 -0.19971 -0.33225
vn -0.98211 0.07494 -0.17275
vn -0.30557 -0.75710 -0.57743
vn -0.58934 -0.60963 -0.53013
vn 0.54641 -0.72204 -0.42436
vn 0.25278 -0.81315 -0.52429
vn 0.89307 -0.44981 0.01006
vn 0.72661 -0.66797 -0.16079
vn 0.85783 0.32306 0.39971
vn 0.95725 0.03691 0.28690
vn 0.18986 0.87226 0.45069
vn 0.48008 0.73328 0.48148
vn -0.60784 0.78422 0.12462
vn -0.34557 0.89676 0.27642
vn -0.93458 0.12525 -0.33297
vn -0.89797 0.40424 -0.17387
vn -0.54433 -0.60844 -0.57750
vn -0.76116 -0.37339 -0.53030
vn 0.26905 -0.86437 -0.42483
vn -0.03815 -0.85057 -0.52448
vn 0.10504 -0.99348 0.04429
vn -0.21508 -0.97291 0.08479
vn 0.83198 -0.54531 -0.10226
vn 0.62015 -0.78311 -0.04641
vn 0.92709 0.30886 -0.21239
vn 0.98315 -0.00818 -0.18261
vn 0.31877 0.92580 -0.20317
vn 0.60059 0.76834 -0.22123
vn -0.53492 0.84096 -0.08155
vn -0.23947 0.96172 -0.13320
vn -0.99112 0.11822 0.06090
vn -0.90444 0.42634 0.01519
vn -0.70631 -0.69818 0.11690
vn -0.89358 -0.43465 0.11221
vn 0.99882 -0.04725 0.01161
vn 0.93591 -0.31353 -0.16056
vn 0.65118 0.64233 0.40419
vn 0.85874 0.42210 0.29051
vn -0.18275 0.87125 0.45556
vn 0.13891 0.86253 0.48656
vn -0.87502 0.46712 0.12703
vn -0.68154 0.67612 0.27995
vn -0.90433 -0.26574 -0.33401
vn -0.98479 0.00323 -0.17373
vn -0.24861 -0.77546 -0.58039
vn -0.54249 -0.64944 -0.53285
vn 0.59837 -0.67823 -0.42657
vn 0.31230 -0.79041 -0.52699
vn 0.10430 -0.97434 0.19944
vn -0.21640 -0.95000 0.22512
vn 0.83256 -0.55393 -0.00171
vn 0.62040 -0.77912 0.08985
vn 0.92785 0.26487 -0.26257
vn 0.98409 -0.03999 -0.17310
vn 0.31841 0.86549 -0.38671
vn 0.60080 0.71083 -0.36573
vn -0.53683 0.79565 -0.28064
vn -0.24084 0.90794 -0.34299
vn -0.99386 0.10794 -0.02424
vn -0.90707 0.40292 -0.12199
vn -0.70853 -0.67978 0.18942
vn -0.89619 -0.42394 0.13084
vn -0.99096 0.10069 0.08868
vn -0.95750 0.18499 -0.22129
vn -0.57938 -0.18835 0.79300
vn -0.80478 -0.08126 0.58799
vn 0.25783 -0.38733 0.88515
vn -0.05652 -0.33726 0.93971
vn 0.89024 -0.34640 0.29575
vn 0.72382 -0.39023 0.56903
vn 0.84163 -0.09639 -0.53138
vn 0.94863 -0.20029 -0.24492
vn 0.14861 0.17444 -0.97339
vn 0.44862 0.08953 -0.88923
vn -0.66697 0.26215 -0.69744
vn -0.39969 0.26100 -0.87871
vn -0.98805 0.14364 0.05598
vn -0.92455 0.31958 -0.20755
vn -0.65106 -0.38266 0.65551
vn -0.85331 -0.20051 0.48130
vn 0.16607 -0.65858 0.73395
vn -0.14947 -0.60678 0.78069
vn 0.84803 -0.47635 0.23225
vn 0.65697 -0.59330 0.46517
vn 0.88129 0.02681 -0.47182
vn 0.95874 -0.17023 -0.22767
vn 0.24080 0.47201 -0.84807
vn 0.52861 0.34386 -0.77610
vn -0.59113 0.52400 -0.61318
vn -0.30954 0.56185 -0.76715
vn -0.75089 0.65793 0.05729
vn -0.61365 0.75920 -0.21691
vn -0.72981 0.05857 0.68113
vn -0.80699 0.31445 0.49989
vn -0.19477 -0.61665 0.76276
vn -0.42769 -0.39833 0.81143
vn 0.45133 -0.85928 0.24071
vn 0.23863 -0.84242 0.48310
vn 0.72197 -0.48661 -0.49191
vn 0.69022 -0.68339 -0.23785
vn 0.41334 0.22073 -0.88342
vn 0.58702 -0.04101 -0.80853
vn -0.24214 0.73010 -0.63900
vn 0.00674 0.60100 -0.79922
vn -0.99300 -0.11790 0.00751
vn -0.97286 0.14269 -0.18217
vn -0.54157 -0.71617 0.44023
vn -0.78099 -0.53927 0.31503
vn 0.31712 -0.80782 0.49685
vn -0.00156 -0.84730 0.53112
vn 0.93647 -0.32383 0.13473
vn 0.77851 -0.54944 0.30338
vn 0.85009 0.37134 -0.37344
vn 0.97181 0.13000 -0.19670
vn 0.12303 0.75422 -0.64500
vn 0.43278 0.67941 -0.59254
vn -0.69722 0.53649 -0.47546
vn -0.43268 0.68505 -0.58608
vn 0.07441 -0.99102 -0.11110
vn -0.22188 -0.97494 0.01625
vn 0.74804 -0.53041 -0.39888
vn 0.55213 -0.77252 -0.31363
vn 0.83618 0.32948 -0.43846
vn 0.88853 0.01149 -0.45868
vn 0.27246 0.94114 -0.20004
vn 0.53400 0.78673 -0.30967
vn -0.51863 0.84398 0.13685
vn -0.24449 0.96942 0.02119
vn -0.94138 0.11116 0.31852
vn -0.86072 0.42199 0.28475
vn -0.67745 -0.70550 0.20817
vn -0.85066 -0.44333 0.28256
vn 0.75710 -0.65240 0.03432
vn 0.58519 -0.78456 -0.20497
vn 0.81493 0.01730 0.57930
vn 0.86919 -0.25901 0.42122
vn 0.29026 0.70176 0.65060
vn 0.52933 0.48893 0.69337
vn -0.42183 0.88556 0.19455
vn -0.17847 0.89603 0.40655
vn -0.78512 0.43029 -0.44545
vn -0.72122 0.65574 -0.22326
vn -0.52605 -0.32121 -0.78746
vn -0.69022 -0.05100 -0.72180
vn 0.16030 -0.80305 -0.57394
vn -0.10881 -0.69199 -0.71366
vn 0.09140 -0.98787 0.12554
vn -0.21844 -0.95286 0.21057
vn 0.79536 -0.58098 -0.17283
vn 0.59040 -0.80476 -0.06161
vn 0.88747 0.25375 -0.38472
vn 0.94193 -0.06016 -0.33036
vn 0.29837 0.88774 -0.35057
vn 0.57146 0.72024 -0.39331
vn -0.52833 0.84358 -0.09609
vn -0.24206 0.94878 -0.20305
vn -0.97011 0.15454 0.18708
vn -0.88602 0.45336 0.09715
vn -0.69430 -0.66053 0.28572
vn -0.87550 -0.39295 0.28122
vn -0.24045 0.97066 0.00033
vn 0.02651 0.98316 -0.18082
vn -0.79238 0.44820 0.41383
vn -0.64219 0.70780 0.29430
vn -0.78015 -0.41522 0.46793
vn -0.85930 -0.10394 0.50079
vn -0.21297 -0.96942 0.12190
vn -0.46135 -0.84082 0.28317
vn 0.48206 -0.79708 -0.36369
vn 0.25201 -0.94794 -0.19470
vn 0.78157 -0.02798 -0.62319
vn 0.74360 -0.34464 -0.57296
vn 0.46002 0.75874 -0.46118
vn 0.64324 0.51478 -0.56679
f 1//1 2//2 4//4
f 1//1 4//4 3//3
f 3//3 4//4 6//6
f 3//3 6//6 5//5
f 5//5 6//6 8//8
f 5//5 8//8 7//7
f 7//7 8//8 10//10
f 7//7 10//10 9//9
f 9//9 10//10 12//12
f 9//9 12//12 11//11
f 11//11 12//12 14//14
f 11//11 14//14 13//13
f 13//13 14//14 2//2
f 13//13 2//2 1//1
f 15//15 16//16 18//18
f 15//15 18//18 17//17
f 17//17 18//18 20//20
f 17//17 20//20 19//19
f 19//19 20//20 22//22
f 19//19 22//22 21//21
f 21//21 22//22 24//24
f 21//21 24//24 23//23
f 23//23 24//24 26//26
f 23//23 26//26 25//25
f 25//25 26//26 28//28
f 25//25 28//28 27//27
f 27//27 28//28 16//16
f 27//27 16//16 15//15
f 29//29 30//30 32//32
f 29//29 32//32 31//31
f 31//31 32//32 34//34
f 31//31 34//34 33//33
f 33//33 34//34 36//36
f 33//33 36//36 35//35
f 35//35 36//36 38//38
f 35//35 38//38 37//37
f 37//37 38//38 40//40
f 37//37 40//40 39//39
f 39//39 40//40 42//42
f 39//39 42//42 41//41
f 41//41 42//42 30//30
f 41//41 30//30 29//29
f 43//43 44//44 46//46
f 43//43 46//46 45//45
f 45//45 46//46 48//48
f 45//45 48//48 47//47
f 47//47 48//48 50//50
f 47//47 50//50 49//49
f 49//49 50//50 52//52
f 49//49 52//52 51//51
f 51//51 52//52 54//54
f 51//51 54//54 53//53
f 53//53 54//54 56//56
f 53//53 56//56 55//55
f 55//55 56//56 44//44
f 55//55 44//44 43//43
f 57//57 58//58 60//60
f 57//57 60//60 59//59
f 59//59 60//60 62//62
f 59//59 62//62 61//61
f 61//61 62//62 64//64
f 61//61 64//64 63//63
f 63//63 64//64 66//66
f 63//63 66//66 65//65
f 65//65 66//66 68//68
f 65//65 68//68 67//67
f 67//67 68//68 70//70
f 67//67 70//70 69//69
f 69//69 70//70 58//58
f 69//69 58//58 57//57
f 71//71 72//72 74//74
f 71//71 74//74 73//73
f 73//73 74//74 76//76
f 73//73 76//76 75//75
f 75//75 76//76 78//78
f 75//75 78//78 77//77
f 77//77 78//78 80//80
f 77//77 80//80 79//79
f 79//79 80//80 82//82
f 79//79 82//82 81//81
f 81//81 82//82 84//84
f 81//81 84//84 83//83
f 83//83 84//84 72//72
f 83//83 72//72 71//71
f 85//85 86//86 88//88
f 85//85 88//88 87//87
f 87//87 88//88 90//90
f 87//87 90//90 89//89
f 89//89 90//90 92//92
f 89//89 92//92 91//91
f 91//91 92//92 94//94
f 91//91 94//94 93//93
f 93//93 94//94 96//96
f 93//93 96//96 95//95
f 95//95 96//96 98//98
f 95//95 98//98 97//97
f 97//97 98//98 86//86
f 97//97 86//86 85//85
f 99//99 100//100 102//102
f 99//99 102//102 101//101
f 101//101 102//102 104//104
f 101//101 104//104 103//103
f 103//103 104//104 106//106
f 103//103 106//106 105//105
f 105//105 106//106 108//108
f 105//105 108//108 107//107
f 107//107 108//108 110//110
f 107//107 110//110 109//109
f 109//109 110//110 112//112
f 109//109 112//112 111//111
f 111//111 112//112 100//100
f 111//111 100//100 99//99
f 113//113 114//114 116//116
f 113//113 116//116 115//115
f 115//115 116//116 118//118
f 115//115 118//118 117//117
f 117//117 118//118 120//120
f 117//117 120//120 119//119
f 119//119 120//120 122//122
f 119//119 122//122 121//121
f 121//121 122//122 124//124
f 121//121 124//124 123//123
f 123//123 124//124 126//126
f 123//123 126//126 125//125
f 125//125 126//126 114//114
f 125//125 114//114 113//113
f 127//127 128//128 130//130
f 127//127 130//130 129//129
f 129//129 130//130 132//132
f 129//129 132//132 131//131
f 131//131 132//132 134//134
f 131//131 134//134 133//133
f 133//133 134//134 136//136
f 133//133 136//136 135//135
f 135//135 136//136 138//138
f 135//135 138//138 137//137
f 137//137 138//138 140//140
f 137//137 140//140 139//139
f 139//139 140//140 128//128
f 139//139 128//128 127//127
f 141//141 142//142 144//144
f 141//141 144//144 143//143
f 143//143 144//144 146//146
f 143//143 146//146 145//145
f 145//145 146//146 148//148
f 145//145 148//148 147//147
f 147//147 148//148 150//150
f 147//147 150//150 149//149
f 149//149 150//150 152//152
f 149//149 152//152 151//151
f 151//151 152//152 154//154
f 151//151 154//154 153//153
f 153//153 154//154 142//142
f 153//153 142//142 141//141
f 155//155 156//156 158//158
f 155//155 158//158 157//157
f 157//157 158//158 160//160
f 157//157 160//160 159//159
f 159//159 160//160 162//162
f 159//159 162//162 161//161
f 161//161 162//162 164//164
f 161//161 164//164 163//163
f 163//163 164//164 166//166
f 163//163 166//166 165//165
f 165//165 166//166 168//168
f 165//165 168//168 167//167
f 167//167 168//168 156//156
f 167//167 156//156 155//155
f 169//169 170//170 172//172
f 169//169 172//172 171//171
f 171//171 172//172 174//174
f 171//171 174//174 173//173
f 173//173 174//174 176//176
f 173//173 176//176 175//175
f 175//175 176//176 178//178
f 175//175 178//178 177//177
f 177//177 178//178 180//180
f 177//177 180//180 179//179
f 179//179 180//180 182//182
f 179//179 182//182 181//181
f 181//181 182//182 170//170
f 181//181 170//170 169//169
f 183//183 184//184 186//186
f 183//183 186//186 185//185
f 185//185 186//186 188//188
f 185//185 188//188 187//187
f 187//187 188//188 190//190
f 187//187 190//190 189//189
f 189//189 190//190 192//192
f 189//189 192//192 191//191
f 191//191 192//192 194//194
f 191//191 194//194 193//193
f 193//193 194//194 196//196
f 193//193 196//196 195//195
f 195//195 196//196 184//184
f 195//195 184//184 183//183
f 197//197 198//198 200//200
f 197//197 200//200 199//199
f 199//199 200//200 202//202
f 199//199 202//202 201//201
f 201//201 202//202 204//204
f 201//201 204//204 203//203
f 203//203 204//204 206//206
f 203//203 206//206 205//205
f 205//205 206//206 208//208
f 205//205 208//208 207//207
f 207//207 208//208 210//210
f 207//207 210//210 209//209
f 209//209 210//210 198//198
f 209//209 198//198 197//197
f 211//211 212//212 214//214
f 211//211 214//214 213//213
f 213//213 214//214 216//216
f 213//213 216//216 215//215
f 215//215 216//216 218//218
f 215//215 218//218 217//217
f 217//217 218//218 220//220
f 217//217 220//220 219//219
f 219//219 220//220 222//222
f 219//219 222//222 221//221
f 221//221 222//222 224//224
f 221//221 224//224 223//223
f 223//223 224//224 212//212
f 223//223 212//212 211//211
f 225//225 226//226 228//228
f 225//225 228//228 227//227
f 227//227 228//228 230//230
f 227//227 230//230 229//229
f 229//229 230//230 232//232
f 229//229 232//232 231//231
f 231//231 232//232 234//234
f 231//231 234//234 233//233
f 233//233 234//234 236//236
f 233//233 236//236 235//235
f 235//235 236//236 238//238
f 235//235 238//238 237//237
f 237//237 238//238 226//226
f 237//237 226//226 225//225
f 239//239 240//240 242//242
f 239//239 242//242 241//241
f 241//241 242//242 244//244
f 241//241 244//244 243//243
f 243//243 244//244 246//246
f 243//243 246//246 245//245
f 245//245 246//246 248//248
f 245//245 248//248 247//247
f 247//247 248//248 250//250
f 247//247 250//250 249//249
f 249//249 250//250 252//252
f 249//249 252//252 251//251
f 251//251 252//252 240//240
f 251//251 240//240 239//239
f 253//253 254//254 256//256
f 253//253 256//256 255//255
f 255//255 256//256 258//258
f 255//255 258//258 257//257
f 257//257 258//258 260//260
f 257//257 260//260 259//259
f 259//259 260//260 262//262
f 259//259 262//262 261//261
f 261//261 262//262 264//264
f 261//261 264//264 263//263
f 263//263 264//264 266//266
f 263//263 266//266 265//265
f 265//265 266//266 254//254
f 265//265 254//254 253//253
f 267//267 268//268 270//270
f 267//267 270//270 269//269
f 269//269 270//270 272//272
f 269//269 272//272 271//271
f 271//271 272//272 274//274
f 271//271 274//274 273//273
f 273//273 274//274 276//276
f 273//273 276//276 275//275
f 275//275 276//276 278//278
f 275//275 278//278 277//277
f 277//277 278//278 280//280
f 277//277 280//280 279//279
f 279//279 280//280 268//268
f 279//279 268//268 267//267
f 281//281 282//282 284//284
f 281//281 284//284 283//283
f 283//283 284//284 286//286
f 283//283 286//286 285//285
f 285//285 286//286 288//288
f 285//285 288//288 287//287
f 287//287 288//288 290//290
f 287//287 290//290 289//289
f 289//289 290//290 292//292
f 289//289 292//292 291//291
f 291//291 292//292 294//294
f 291//291 294//294 293//293
f 293//293 294//294 282//282
f 293//293 282//282 281//281
f 295//295 296//296 298//298
f 295//295 298//298 297//297
f 297//297 298//298 300//300
f 297//297 300//300 299//299
f 299//299 300//300 302//302
f 299//299 302//302 301//301
f 301//301 302//302 304//304
f 301//301 304//304 303//303
f 303//303 304//304 306//306
f 303//303 306//306 305//305
f 305//305 306//306 308//308
f 305//305 308//308 307//307
f 307//307 308//308 296//296
f 307//307 296//296 295//295
f 309//309 310//310 312//312
f 309//309 312//312 311//311
f 311//311 312//312 314//314
f 311//311 314//314 313//313
f 313//313 314//314 316//316
f 313//313 316//316 315//315
f 315//315 316//316 318//318
f 315//315 318//318 317//317
f 317//317 318//318 320//320
f 317//317 320//320 319//319
f 319//319 320//320 322//322
f 319//319 322//322 321//321
f 321//321 322//322 310//310
f 321//321 310//310 309//309
f 323//323 324//324 326//326
f 323//323 326//326 325//325
f 325//325 326//326 328//328
f 325//325 328//328 327//327
f 327//327 328//328 330//330
f 327//327 330//330 329//329
f 329//329 330//330 332//332
f 329//329 332//332 331//331
f 331//331 332//332 334//334
f 331//331 334//334 333//333
f 333//333 334//334 336//336
f 333//333 336//336 335//335
f 335//335 336//336 324//324
f 335//335 324//324 323//323
f 337//337 338//338 340//340
f 337//337 340//340 339//339
f 339//339 340//340 342//342
f 339//339 342//342 341//341
f 341//341 342//342 344//344
f 341//341 344//344 343//343
f 343//343 344//344 346//346
f 343//343 346//346 345//345
f 345//345 346//346 348//348
f 345//345 348//348 347//347
f 347//347 348//348 350//350
f 347//347 350//350 349//349
f 349//349 350//350 338//338
f 349//349 338//338 337//337
f 351//351 352//352 354//354
f 351//351 354//354 353//353
f 353//353 354//354 356//356
f 353//353 356//356 355//355
f 355//355 356//356 358//358
f 355//355 358//358 357//357
f 357//357 358//358 360//360
f 357//357 360//360 359//359
f 359//359 360//360 362//362
f 359//359 362//362 361//361
f 361//361 362//362 364//364
f 361//361 364//364 363//363
f 363//363 364//364 352//352
f 363//363 352//352 351//351
f 365//365 366//366 368//368
f 365//365 368//368 367//367
f 367//367 368//368 370//370
f 367//367 370//370 369//369
f 369//369 370//370 372//372
f 369//369 372//372 371//371
f 371//371 372//372 374//374
f 371//371 374//374 373//373
f 373//373 374//374 376//376
f 373//373 376//376 375//375
f 375//375 376//376 378//378
f 375//375 378//378 377//377
f 377//377 378//378 366//366
f 377//377 366//366 365//365
f 379//379 380//380 382//382
f 379//379 382//382 381//381
f 381//381 382//382 384//384
f 381//381 384//384 383//383
f 383//383 384//384 386//386
f 383//383 386//386 385//385
f 385//385 386//386 388//388
f 385//385 388//388 387//387
f 387//387 388//388 390//390
f 387//387 390//390 389//389
f 389//389 390//390 392//392
f 389//389 392//392 391//391
f 391//391 392//392 380//380
f 391//391 380//380 379//379
f 393//393 394//394 396//396
f 393//393 396//396 395//395
f 395//395 396//396 398//398
f 395//395 398//398 397//397
f 397//397 398//398 400//400
f 397//397 400//400 399//399
f 399//399 400//400 402//402
f 399//399 402//402 401//401
f 401//401 402//402 404//404
f 401//401 404//404 403//403
f 403//403 404//404 406//406
f 403//403 406//406 405//405
f 405//405 406//406 394//394
f 405//405 394//394 393//393
f 407//407 408//408 410//410
f 407//407 410//410 409//409
f 409//409 410//410 412//412
f 409//409 412//412 411//411
f 411//411 412//412 414//414
f 411//411 414//414 413//413
f 413//413 414//414 416//416
f 413//413 416//416 415//415
f 415//415 416//416 418//418
f 415//415 418//418 417//417
f 417//417 418//418 420//420
f 417//417 420//420 419//419
f 419//419 420//420 408//408
f 419//419 408//408 407//407
f 421//421 422//422 424//424
f 421//421 424//424 423//423
f 423//423 424//424 426//426
f 423//423 426//426 425//425
f 425//425 426//426 428//428
f 425//425 428//428 427//427
f 427//427 428//428 430//430
f 427//427 430//430 429//429
f 429//429 430//430 432//432
f 429//429 432//432 431//431
f 431//431 432//432 434//434
f 431//431 434//434 433//433
f 433//433 434//434 422//422
f 433//433 422//422 421//421
f 435//435 436//436 438//438
f 435//435 438//438 437//437
f 437//437 438//438 440//440
f 437//437 440//440 439//439
f 439//439 440//440 442//442
f 439//439 442//442 441//441
f 441//441 442//442 444//444
f 441//441 444//444 443//443
f 443//443 444//444 446//446
f 443//443 446//446 445//445
f 445//445 446//446 448//448
f 445//445 448//448 447//447
f 447//447 448//448 436//436
f 447//447 436//436 435//435
f 449//449 450//450 452//452
f 449//449 452//452 451//451
f 451//451 452//452 454//454
f 451//451 454//454 453//453
f 453//453 454//454 456//456
f 453//453 456//456 455//455
f 455//455 456//456 458//458
f 455//455 458//458 457//457
f 457//457 458//458 460//460
f 457//457 460//460 459//459
f 459//459 460//460 462//462
f 459//459 462//462 461//461
f 461//461 462//462 450//450
f 461//461 450//450 449//449
f 463//463 464//464 466//466
f 463//463 466//466 465//465
f 465//465 466//466 468//468
f 465//465 468//468 467//467
f 467//467 468//468 470//470
f 467//467 470//470 469//469
f 469//469 470//470 472//472
f 469//469 472//472 471//471
f 471//471 472//472 474//474
f 471//471 474//474 473//473
f 473//473 474//474 476//476
f 473//473 476//476 475//475
f 475//475 476//476 464//464
f 475//475 464//464 463//463
f 477//477 478//478 480//480
f 477//477 480//480 479//479
f 479//479 480//480 482//482
f 479//479 482//482 481//481
f 481//481 482//482 484//484
f 481//481 484//484 483//483
f 483//483 484//484 486//486
f 483//483 486//486 485//485
f 485//485 486//486 488//488
f 485//485 488//488 487//487
f 487//487 488//488 490//490
f 487//487 490//490 489//489
f 489//489 490//490 478//478
f 489//489 478//478 477//477
