# generated by scripts/make_scenery.py
v -0.02827 0.05780 0.00000
v -0.02827 0.04640 0.13000
v -0.05172 0.04651 0.00000
v -0.04281 0.03940 0.13000
v -0.05752 0.02113 0.00000
v -0.04640 0.02366 0.13000
v -0.04129 0.00077 0.00000
v -0.03634 0.01104 0.13000
v -0.01525 0.00077 0.00000
v -0.02020 0.01104 0.13000
v 0.00098 0.02113 0.00000
v -0.01014 0.02366 0.13000
v -0.00481 0.04651 0.00000
v -0.01373 0.03940 0.13000
v -0.01950 0.04420 0.13000
v -0.05800 0.05677 0.19975
v -0.03393 0.04398 0.12278
v -0.06695 0.05663 0.19527
v -0.04410 0.03157 0.12100
v -0.07325 0.04894 0.19417
v -0.04235 0.01633 0.12599
v -0.07216 0.03949 0.19726
v -0.02999 0.00972 0.13401
v -0.06450 0.03539 0.20223
v -0.01634 0.01673 0.13900
v -0.05604 0.03974 0.20533
v -0.01167 0.03208 0.13722
v -0.05314 0.04925 0.20422
v -0.05221 0.04926 0.19975
v -0.06399 0.08000 0.24913
v -0.05817 0.05558 0.19478
v -0.06769 0.08392 0.24605
v -0.06809 0.05514 0.19355
v -0.07384 0.08365 0.24529
v -0.07451 0.04827 0.19699
v -0.07782 0.07939 0.24742
v -0.07258 0.04015 0.20251
v -0.07662 0.07435 0.25084
v -0.06377 0.03688 0.20594
v -0.07116 0.07233 0.25298
v -0.05471 0.04094 0.20472
v -0.06554 0.07484 0.25222
v -0.06818 0.08495 0.24913
v -0.09859 0.09476 0.28350
v -0.07301 0.08405 0.24534
v -0.10158 0.09421 0.28115
v -0.07628 0.07887 0.24440
v -0.10361 0.09099 0.28057
v -0.07554 0.07329 0.24703
v -0.10315 0.08754 0.28220
v -0.07135 0.07153 0.25124
v -0.10055 0.08644 0.28481
v -0.06685 0.07491 0.25387
v -0.09776 0.08854 0.28644
v -0.06544 0.08088 0.25293
v -0.09689 0.09224 0.28586
v -0.07095 0.08545 0.24825
v -0.07620 0.08777 0.28860
v -0.07649 0.08269 0.24786
v -0.07964 0.08606 0.28837
v -0.07786 0.07666 0.24844
v -0.08049 0.08232 0.28872
v -0.07403 0.07191 0.24954
v -0.07811 0.07938 0.28940
v -0.06788 0.07201 0.25033
v -0.07429 0.07944 0.28990
v -0.06404 0.07689 0.25023
v -0.07191 0.08246 0.28983
v -0.06541 0.08287 0.24930
v -0.07276 0.08617 0.28925
v -0.06214 0.05806 0.19975
v -0.11577 0.05973 0.24059
v -0.06806 0.05436 0.19258
v -0.11944 0.05744 0.23615
v -0.07050 0.04482 0.19081
v -0.12096 0.05152 0.23505
v -0.06762 0.03662 0.19577
v -0.11917 0.04644 0.23813
v -0.06159 0.03594 0.20372
v -0.11543 0.04602 0.24306
v -0.05694 0.04328 0.20868
v -0.11255 0.05057 0.24613
v -0.05719 0.05313 0.20691
v -0.11270 0.05668 0.24504
v -0.11943 0.05919 0.24059
v -0.14995 0.04295 0.27775
v -0.12211 0.05508 0.23679
v -0.15161 0.04041 0.27540
v -0.12063 0.04913 0.23585
v -0.15069 0.03672 0.27481
v -0.11609 0.04581 0.23848
v -0.14788 0.03466 0.27645
v -0.11192 0.04763 0.24270
v -0.14529 0.03579 0.27906
v -0.11125 0.05321 0.24533
v -0.14488 0.03925 0.28069
v -0.11459 0.05835 0.24439
v -0.14695 0.04244 0.28011
v -0.10944 0.05214 0.24059
v -0.10956 0.08977 0.26223
v -0.11194 0.05511 0.23575
v -0.11111 0.09161 0.25923
v -0.11792 0.05621 0.23455
v -0.11482 0.09229 0.25848
v -0.12289 0.05462 0.23791
v -0.11790 0.09131 0.26056
v -0.12311 0.05153 0.24328
v -0.11804 0.08939 0.26390
v -0.11840 0.04927 0.24663
v -0.11512 0.08799 0.26597
v -0.11232 0.04954 0.24544
v -0.11135 0.08816 0.26523
v -0.11658 0.05976 0.24104
v -0.13426 0.05398 0.29026
v -0.12184 0.05719 0.23899
v -0.13753 0.05239 0.28900
v -0.12314 0.05119 0.23815
v -0.13833 0.04866 0.28848
v -0.11950 0.04626 0.23915
v -0.13607 0.04561 0.28910
v -0.11365 0.04613 0.24124
v -0.13245 0.04553 0.29039
v -0.11001 0.05089 0.24284
v -0.13019 0.04848 0.29138
v -0.11131 0.05696 0.24275
v -0.13100 0.05224 0.29132
v -0.02827 0.04605 0.12638
v -0.03044 0.05919 0.22892
v -0.04281 0.03912 0.12744
v -0.03945 0.05490 0.22958
v -0.04640 0.02367 0.13043
v -0.04168 0.04532 0.23143
v -0.03634 0.01133 0.13310
v -0.03544 0.03767 0.23308
v -0.02020 0.01140 0.13343
v -0.02544 0.03771 0.23329
v -0.01014 0.02382 0.13118
v -0.01920 0.04541 0.23189
v -0.01373 0.03924 0.12804
v -0.02142 0.05497 0.22995
v -0.02725 0.05896 0.23116
v -0.08451 0.07091 0.28037
v -0.03403 0.05640 0.22427
v -0.08872 0.06932 0.27610
v -0.03812 0.04743 0.22257
v -0.09125 0.06375 0.27504
v -0.03642 0.03879 0.22734
v -0.09020 0.05840 0.27800
v -0.03022 0.03701 0.23499
v -0.08635 0.05729 0.28274
v -0.02418 0.04341 0.23976
v -0.08261 0.06126 0.28570
v -0.02286 0.05318 0.23805
v -0.08179 0.06732 0.28464
v -0.08036 0.06771 0.28037
v -0.10403 0.10196 0.31213
v -0.08441 0.06924 0.27593
v -0.10654 0.10291 0.30938
v -0.09003 0.06685 0.27483
v -0.11002 0.10143 0.30870
v -0.09299 0.06235 0.27790
v -0.11186 0.09864 0.31061
v -0.09105 0.05911 0.28283
v -0.11066 0.09663 0.31366
v -0.08568 0.05959 0.28591
v -0.10733 0.09693 0.31557
v -0.08092 0.06341 0.28481
v -0.10438 0.09930 0.31489
v -0.08389 0.07070 0.28037
v -0.12426 0.08356 0.30030
v -0.08709 0.06906 0.27531
v -0.12625 0.08255 0.29717
v -0.08984 0.06364 0.27406
v -0.12795 0.07919 0.29640
v -0.09007 0.05852 0.27756
v -0.12809 0.07601 0.29856
v -0.08761 0.05756 0.28317
v -0.12657 0.07542 0.30204
v -0.08430 0.06147 0.28667
v -0.12452 0.07785 0.30421
v -0.08265 0.06732 0.28542
v -0.12349 0.08147 0.30344
v -0.07939 0.06484 0.28037
v -0.08586 0.09778 0.33390
v -0.08260 0.06925 0.27741
v -0.08785 0.10051 0.33207
v -0.08874 0.06973 0.27667
v -0.09166 0.10081 0.33161
v -0.09319 0.06592 0.27872
v -0.09441 0.09845 0.33288
v -0.09260 0.06070 0.28201
v -0.09405 0.09521 0.33492
v -0.08741 0.05798 0.28406
v -0.09083 0.09353 0.33619
v -0.08153 0.05983 0.28333
v -0.08718 0.09467 0.33574
v -0.03044 0.05939 0.23192
v -0.03573 0.05051 0.30036
v -0.03943 0.05510 0.23094
v -0.04130 0.04785 0.29976
v -0.04165 0.04538 0.23013
v -0.04268 0.04182 0.29926
v -0.03543 0.03754 0.23010
v -0.03882 0.03696 0.29923
v -0.02545 0.03749 0.23086
v -0.03263 0.03693 0.29971
v -0.01923 0.04527 0.23185
v -0.02878 0.04175 0.30032
v -0.02145 0.05501 0.23232
v -0.03015 0.04779 0.30061
v -0.03117 0.04888 0.29989
v -0.05447 0.06464 0.33441
v -0.03623 0.04957 0.29637
v -0.05761 0.06507 0.33223
v -0.04091 0.04560 0.29550
v -0.06051 0.06261 0.33169
v -0.04169 0.03995 0.29794
v -0.06100 0.05910 0.33320
v -0.03798 0.03687 0.30185
v -0.05870 0.05720 0.33562
v -0.03257 0.03870 0.30428
v -0.05534 0.05833 0.33713
v -0.02954 0.04404 0.30341
v -0.05346 0.06164 0.33659
v -0.03977 0.04927 0.29989
v -0.06062 0.03167 0.34061
v -0.04209 0.04442 0.29679
v -0.06205 0.02867 0.33869
v -0.03961 0.03878 0.29603
v -0.06052 0.02517 0.33822
v -0.03421 0.03660 0.29817
v -0.05717 0.02382 0.33955
v -0.02996 0.03952 0.30161
v -0.05453 0.02563 0.34168
v -0.03004 0.04534 0.30376
v -0.05459 0.02924 0.34301
v -0.03441 0.04968 0.30299
v -0.05729 0.03193 0.34253
v -0.03441 0.01025 0.13000
v 0.01277 0.00122 0.22427
v -0.01984 0.01257 0.12345
v 0.02180 0.00266 0.22021
v -0.01162 0.02636 0.12184
v 0.02690 0.01121 0.21921
v -0.01593 0.04124 0.12637
v 0.02423 0.02044 0.22202
v -0.02954 0.04600 0.13363
v 0.01579 0.02339 0.22652
v -0.04219 0.03706 0.13816
v 0.00795 0.01785 0.22933
v -0.04436 0.02114 0.13655
v 0.00660 0.00798 0.22833
v 0.02030 0.00119 0.22427
v 0.06924 0.02253 0.28859
v 0.02548 0.00755 0.21852
v 0.07244 0.02647 0.28503
v 0.02395 0.01734 0.21710
v 0.07150 0.03254 0.28415
v 0.01687 0.02319 0.22108
v 0.06711 0.03617 0.28661
v 0.00957 0.02070 0.22746
v 0.06258 0.03462 0.29057
v 0.00755 0.01174 0.23143
v 0.06133 0.02907 0.29303
v 0.01233 0.00306 0.23002
v 0.06429 0.02369 0.29215
v 0.06749 0.02217 0.28859
v 0.11151 0.02837 0.32548
v 0.07084 0.02513 0.28429
v 0.11359 0.03021 0.32281
v 0.07124 0.03123 0.28323
v 0.11384 0.03399 0.32215
v 0.06840 0.03587 0.28621
v 0.11207 0.03687 0.32400
v 0.06444 0.03556 0.29098
v 0.10962 0.03667 0.32695
v 0.06236 0.03053 0.29395
v 0.10833 0.03355 0.32880
v 0.06372 0.02457 0.29289
v 0.10917 0.02986 0.32814
v 0.06910 0.02248 0.28859
v 0.10746 0.03755 0.32610
v 0.07187 0.02619 0.28446
v 0.10917 0.03985 0.32354
v 0.07092 0.03224 0.28344
v 0.10859 0.04360 0.32291
v 0.06696 0.03607 0.28630
v 0.10613 0.04597 0.32468
v 0.06298 0.03480 0.29088
v 0.10366 0.04519 0.32752
v 0.06197 0.02939 0.29374
v 0.10304 0.04183 0.32929
v 0.06469 0.02391 0.29272
v 0.10472 0.03843 0.32866
v 0.06917 0.02251 0.28859
v 0.09667 0.03448 0.32921
v 0.07260 0.02648 0.28528
v 0.09880 0.03694 0.32716
v 0.07176 0.03257 0.28446
v 0.09828 0.04071 0.32665
v 0.06728 0.03620 0.28675
v 0.09550 0.04296 0.32807
v 0.06253 0.03463 0.29043
v 0.09255 0.04199 0.33035
v 0.06110 0.02904 0.29272
v 0.09166 0.03853 0.33177
v 0.06405 0.02365 0.29190
v 0.09350 0.03518 0.33126
v 0.01701 0.00058 0.22427
v 0.04940 0.00617 0.27973
v 0.02461 0.00521 0.21970
v 0.05412 0.00904 0.27690
v 0.02617 0.01503 0.21857
v 0.05509 0.01513 0.27620
v 0.02050 0.02265 0.22173
v 0.05157 0.01985 0.27816
v 0.01188 0.02233 0.22680
v 0.04623 0.01966 0.28130
v 0.00680 0.01431 0.22996
v 0.04307 0.01468 0.28326
v 0.00908 0.00463 0.22884
v 0.04449 0.00868 0.28256
v 0.04914 0.01993 0.28244
v 0.04339 -0.00103 0.32646
v 0.04359 0.01769 0.28081
v 0.03995 -0.00242 0.32545
v 0.04222 0.01215 0.27837
v 0.03910 -0.00586 0.32394
v 0.04606 0.00749 0.27695
v 0.04148 -0.00875 0.32306
v 0.05222 0.00722 0.27763
v 0.04530 -0.00892 0.32348
v 0.05606 0.01154 0.27988
v 0.04769 -0.00624 0.32488
v 0.05469 0.01719 0.28203
v 0.04684 -0.00273 0.32621
v 0.04914 0.02043 0.27898
v 0.05257 0.02202 0.31988
v 0.04357 0.01780 0.27973
v 0.04911 0.02039 0.32034
v 0.04219 0.01180 0.28048
v 0.04826 0.01667 0.32081
v 0.04605 0.00694 0.28067
v 0.05065 0.01366 0.32092
v 0.05223 0.00688 0.28015
v 0.05448 0.01363 0.32060
v 0.05609 0.01167 0.27932
v 0.05687 0.01660 0.32009
v 0.05471 0.01770 0.27880
v 0.05602 0.02033 0.31976
v 0.03371 0.11424 0.00000
v 0.03371 0.10284 0.13000
v 0.01025 0.10294 0.00000
v 0.01916 0.09583 0.13000
v 0.00446 0.07756 0.00000
v 0.01557 0.08010 0.13000
v 0.02069 0.05721 0.00000
v 0.02563 0.06748 0.13000
v 0.04672 0.05721 0.00000
v 0.04178 0.06748 0.13000
v 0.06295 0.07756 0.00000
v 0.05184 0.08010 0.13000
v 0.05716 0.10294 0.00000
v 0.04825 0.09583 0.13000
v 0.01581 0.08931 0.13000
v 0.00528 0.02623 0.21205
v 0.01941 0.07634 0.12109
v 0.00751 0.01819 0.20653
v 0.03378 0.06931 0.11890
v 0.01642 0.01383 0.20517
v 0.04809 0.07353 0.12506
v 0.02529 0.01645 0.20899
v 0.05157 0.08580 0.13494
v 0.02745 0.02406 0.21512
v 0.04160 0.09690 0.14110
v 0.02127 0.03094 0.21894
v 0.02568 0.09846 0.13891
v 0.01140 0.03190 0.21757
v 0.01638 0.03462 0.21203
v 0.00707 0.03036 0.28602
v 0.00743 0.03027 0.21092
v 0.00153 0.02766 0.28533
v 0.00522 0.02052 0.21065
v 0.00016 0.02161 0.28516
v 0.01141 0.01269 0.21145
v 0.00399 0.01676 0.28565
v 0.02134 0.01270 0.21270
v 0.01015 0.01677 0.28643
v 0.02753 0.02052 0.21346
v 0.01399 0.02162 0.28690
v 0.02532 0.03028 0.21317
v 0.01262 0.02767 0.28672
v 0.00707 0.03028 0.28710
v 0.00604 0.02074 0.33179
v 0.00148 0.02763 0.28657
v 0.00257 0.01910 0.33146
v 0.00010 0.02166 0.28564
v 0.00172 0.01540 0.33088
v 0.00397 0.01685 0.28499
v 0.00411 0.01242 0.33048
v 0.01017 0.01683 0.28513
v 0.00796 0.01240 0.33057
v 0.01404 0.02161 0.28595
v 0.01036 0.01537 0.33107
v 0.01266 0.02759 0.28683
v 0.00950 0.01908 0.33162
v 0.00498 0.01637 0.28603
v 0.03073 0.01132 0.32602
v 0.01024 0.01757 0.28298
v 0.03400 0.01207 0.32413
v 0.01312 0.02302 0.28222
v 0.03578 0.01545 0.32366
v 0.01144 0.02860 0.28434
v 0.03474 0.01891 0.32497
v 0.00647 0.03013 0.28773
v 0.03166 0.01985 0.32707
v 0.00196 0.02644 0.28984
v 0.02886 0.01757 0.32839
v 0.00129 0.02031 0.28909
v 0.02845 0.01377 0.32792
v -0.00008 0.02332 0.28603
v 0.00219 -0.00391 0.33904
v 0.00253 0.01831 0.28348
v 0.00381 -0.00702 0.33746
v 0.00856 0.01698 0.28285
v 0.00755 -0.00784 0.33707
v 0.01347 0.02034 0.28461
v 0.01059 -0.00576 0.33816
v 0.01356 0.02586 0.28745
v 0.01064 -0.00234 0.33992
v 0.00876 0.02938 0.28921
v 0.00767 -0.00015 0.34101
v 0.00270 0.02825 0.28858
v 0.00391 -0.00085 0.34062
v 0.00596 0.02804 0.21205
v -0.01654 -0.02948 0.23466
v 0.00855 0.02337 0.20359
v -0.01494 -0.03237 0.22942
v 0.01703 0.01848 0.20150
v -0.00968 -0.03540 0.22812
v 0.02502 0.01707 0.20736
v -0.00472 -0.03628 0.23175
v 0.02650 0.02018 0.21675
v -0.00381 -0.03435 0.23758
v 0.02036 0.02548 0.22261
v -0.00761 -0.03106 0.24121
v 0.01122 0.02898 0.22052
v -0.01328 -0.02889 0.23991
v -0.01308 -0.02606 0.23466
v -0.05692 -0.04928 0.25514
v -0.01389 -0.02939 0.22950
v -0.05743 -0.05135 0.25193
v -0.01183 -0.03511 0.22822
v -0.05615 -0.05489 0.25114
v -0.00846 -0.03889 0.23180
v -0.05406 -0.05724 0.25336
v -0.00631 -0.03790 0.23753
v -0.05273 -0.05662 0.25692
v -0.00700 -0.03288 0.24111
v -0.05315 -0.05351 0.25913
v -0.01001 -0.02761 0.23983
v -0.05502 -0.05024 0.25834
v -0.01377 -0.02642 0.23466
v -0.04782 -0.05007 0.24878
v -0.01393 -0.02966 0.22937
v -0.04792 -0.05208 0.24550
v -0.01119 -0.03507 0.22807
v -0.04622 -0.05543 0.24469
v -0.00762 -0.03858 0.23173
v -0.04401 -0.05761 0.24696
v -0.00590 -0.03755 0.23760
v -0.04295 -0.05697 0.25060
v -0.00733 -0.03275 0.24126
v -0.04383 -0.05399 0.25287
v -0.01083 -0.02780 0.23995
v -0.04600 -0.05092 0.25206
v 0.03371 0.10277 0.12849
v 0.02801 0.10417 0.23299
v 0.01918 0.09573 0.12827
v 0.01901 0.09981 0.23285
v 0.01560 0.08003 0.12935
v 0.01678 0.09007 0.23352
v 0.02565 0.06750 0.13092
v 0.02301 0.08230 0.23449
v 0.04176 0.06757 0.13180
v 0.03301 0.08235 0.23504
v 0.05181 0.08019 0.13132
v 0.03924 0.09017 0.23474
v 0.04823 0.09586 0.12985
v 0.03701 0.09989 0.23383
v 0.02801 0.10414 0.23522
v 0.01467 0.09112 0.31108
v 0.01913 0.10000 0.23320
v 0.00916 0.08855 0.30982
v 0.01693 0.09035 0.23172
v 0.00780 0.08257 0.30891
v 0.02308 0.08245 0.23190
v 0.01162 0.07768 0.30902
v 0.03294 0.08226 0.23360
v 0.01773 0.07756 0.31007
v 0.03909 0.08991 0.23554
v 0.02154 0.08230 0.31128
v 0.03689 0.09965 0.23627
v 0.02018 0.08834 0.31172
v 0.01560 0.09111 0.31027
v -0.02401 0.09355 0.35767
v 0.01100 0.08899 0.30669
v -0.02686 0.09224 0.35545
v 0.00916 0.08313 0.30580
v -0.02800 0.08861 0.35490
v 0.01147 0.07794 0.30828
v -0.02657 0.08539 0.35644
v 0.01620 0.07732 0.31226
v -0.02364 0.08501 0.35890
v 0.01977 0.08174 0.31474
v -0.02142 0.08775 0.36044
v 0.01950 0.08788 0.31385
v -0.02159 0.09155 0.35989
v 0.00909 0.08848 0.31027
v -0.00921 0.06125 0.34490
v 0.00865 0.08363 0.30643
v -0.00948 0.05824 0.34252
v 0.01275 0.07906 0.30549
v -0.00694 0.05541 0.34194
v 0.01829 0.07823 0.30814
v -0.00350 0.05490 0.34358
v 0.02111 0.08176 0.31240
v -0.00176 0.05708 0.34622
v 0.01908 0.08698 0.31506
v -0.00302 0.06032 0.34787
v 0.01373 0.08998 0.31411
v -0.00633 0.06218 0.34728
v 0.00830 0.08726 0.31027
v -0.00588 0.05342 0.35920
v 0.00867 0.08205 0.30692
v -0.00566 0.05019 0.35712
v 0.01356 0.07832 0.30610
v -0.00263 0.04788 0.35661
v 0.01928 0.07888 0.30841
v 0.00093 0.04823 0.35805
v 0.02154 0.08331 0.31213
v 0.00232 0.05097 0.36035
v 0.01862 0.08827 0.31445
v 0.00052 0.05405 0.36179
v 0.01273 0.09003 0.31362
v -0.00314 0.05514 0.36127
v 0.02801 0.10403 0.23189
v 0.03819 0.11193 0.30096
v 0.01909 0.09999 0.23395
v 0.03266 0.10943 0.30223
v 0.01689 0.09044 0.23598
v 0.03129 0.10351 0.30350
v 0.02306 0.08258 0.23647
v 0.03512 0.09863 0.30380
v 0.03296 0.08232 0.23504
v 0.04126 0.09847 0.30291
v 0.03913 0.08987 0.23277
v 0.04509 0.10315 0.30150
v 0.03693 0.09953 0.23137
v 0.04372 0.10914 0.30063
v 0.03819 0.11195 0.30336
v 0.02113 0.10021 0.35897
v 0.03284 0.10955 0.30134
v 0.01782 0.09872 0.35772
v 0.03152 0.10364 0.29998
v 0.01700 0.09506 0.35687
v 0.03522 0.09868 0.30031
v 0.01929 0.09198 0.35708
v 0.04116 0.09839 0.30207
v 0.02298 0.09180 0.35817
v 0.04487 0.10300 0.30394
v 0.02527 0.09466 0.35933
v 0.04354 0.10904 0.30452
v 0.02445 0.09840 0.35969
v 0.03819 0.11143 0.30512
v 0.03666 0.08488 0.35824
v 0.03260 0.10903 0.30390
v 0.03319 0.08339 0.35749
v 0.03122 0.10351 0.30141
v 0.03234 0.07997 0.35594
v 0.03509 0.09904 0.29953
v 0.03473 0.07719 0.35478
v 0.04129 0.09897 0.29968
v 0.03858 0.07715 0.35487
v 0.04516 0.10337 0.30174
v 0.04098 0.07988 0.35615
v 0.04378 0.10891 0.30416
v 0.04012 0.08331 0.35765
v 0.03819 0.11200 0.30146
v 0.04738 0.11538 0.35884
v 0.03267 0.10942 0.30263
v 0.04395 0.11378 0.35956
v 0.03131 0.10343 0.30348
v 0.04311 0.11006 0.36009
v 0.03513 0.09854 0.30339
v 0.04548 0.10703 0.36003
v 0.04125 0.09844 0.30241
v 0.04928 0.10697 0.35943
v 0.04507 0.10320 0.30129
v 0.05164 0.10992 0.35873
v 0.04371 0.10923 0.30087
v 0.05080 0.11366 0.35847
vn 0.11280 -0.98982 -0.08680
vn -0.20942 -0.97409 -0.08542
vn 0.84420 -0.52895 -0.08680
vn 0.63100 -0.77106 -0.08542
vn 0.93990 0.33023 -0.08680
vn 0.99627 0.01259 -0.08542
vn 0.32784 0.94074 -0.08680
vn 0.61132 0.78676 -0.08542
vn -0.53110 0.84285 -0.08680
vn -0.23396 0.96849 -0.08542
vn -0.99010 0.11028 -0.08680
vn -0.90307 0.42092 -0.08542
vn -0.70354 -0.70533 -0.08680
vn -0.89214 -0.44360 -0.08542
vn -0.34219 -0.93943 -0.01961
vn -0.58206 -0.79335 -0.17833
vn 0.43503 -0.83236 0.34340
vn 0.15706 -0.95829 0.23879
vn 0.91337 -0.11385 0.39090
vn 0.80616 -0.41671 0.42007
vn 0.73262 0.67504 0.08712
vn 0.87644 0.42355 0.22902
vn 0.02889 0.94028 -0.33919
vn 0.31500 0.92978 -0.19051
vn -0.66789 0.48212 -0.56700
vn -0.45541 0.72076 -0.52260
vn -0.83303 -0.35443 -0.42477
vn -0.85463 -0.04610 -0.51718
vn -0.93322 -0.35930 0.00104
vn -0.98001 -0.09315 -0.17579
vn -0.34353 -0.84749 0.40465
vn -0.62054 -0.72939 0.28796
vn 0.51186 -0.72714 0.45746
vn 0.21312 -0.84555 0.48952
vn 0.98882 -0.08886 0.11970
vn 0.89319 -0.35415 0.27710
vn 0.72820 0.58670 -0.35428
vn 0.90758 0.37477 -0.18933
vn -0.07376 0.79083 -0.60757
vn 0.24544 0.79232 -0.55855
vn -0.81316 0.36982 -0.44944
vn -0.59461 0.58408 -0.55252
vn -0.27137 -0.96185 0.03461
vn -0.48424 -0.85534 -0.18413
vn 0.40319 -0.74410 0.53269
vn 0.16418 -0.90685 0.38815
vn 0.80128 0.02259 0.59786
vn 0.71568 -0.28670 0.63688
vn 0.62314 0.76087 0.18105
vn 0.75497 0.53814 0.37475
vn 0.00290 0.91481 -0.40388
vn 0.25246 0.94653 -0.20085
vn -0.59237 0.36848 -0.71646
vn -0.41344 0.63096 -0.65647
vn -0.71443 -0.46671 -0.52131
vn -0.74130 -0.17095 -0.64904
vn 0.12058 -0.99004 0.07268
vn -0.19958 -0.97941 0.03043
vn 0.84702 -0.52027 0.10903
vn 0.63510 -0.76414 0.11290
vn 0.94207 0.33512 0.01421
vn 0.99786 0.02049 0.06206
vn 0.33416 0.93200 -0.14038
vn 0.61555 0.78363 -0.08379
vn -0.51894 0.82091 -0.23833
vn -0.22395 0.95063 -0.21483
vn -0.97484 0.08550 -0.20588
vn -0.88848 0.39572 -0.23239
vn -0.69022 -0.72045 -0.06747
vn -0.87763 -0.46322 -0.12324
vn 0.00741 -0.99869 0.05061
vn -0.18627 -0.96082 -0.20527
vn 0.50129 -0.59009 0.63285
vn 0.34434 -0.81633 0.46373
vn 0.65608 0.25851 0.70904
vn 0.65344 -0.06141 0.75449
vn 0.35522 0.90809 0.22179
vn 0.50826 0.73547 0.44806
vn -0.17474 0.86951 -0.46198
vn 0.01814 0.97424 -0.22480
vn -0.53472 0.17181 -0.82738
vn -0.44786 0.47510 -0.75743
vn -0.45366 -0.65961 -0.59926
vn -0.53884 -0.38608 -0.74873
vn 0.50478 -0.86241 0.03789
vn 0.28077 -0.94253 -0.18111
vn 0.81356 -0.22444 0.53643
vn 0.76604 -0.50967 0.39170
vn 0.53468 0.59340 0.60166
vn 0.69904 0.31767 0.64065
vn -0.12184 0.97526 0.18446
vn 0.13023 0.91648 0.37828
vn -0.66164 0.63359 -0.40100
vn -0.51207 0.83585 -0.19784
vn -0.67823 -0.17433 -0.71387
vn -0.74419 0.13649 -0.65388
vn -0.15912 -0.84011 -0.51855
vn -0.39134 -0.65496 -0.64643
vn -0.99689 -0.04165 0.06685
vn -0.96994 0.11893 -0.21232
vn -0.56151 -0.43855 0.70169
vn -0.79603 -0.31454 0.51710
vn 0.29390 -0.54569 0.78476
vn -0.02545 -0.55099 0.83413
vn 0.92520 -0.28239 0.25350
vn 0.76154 -0.41236 0.50002
vn 0.85701 0.15309 -0.49204
vn 0.97232 -0.00305 -0.23362
vn 0.14067 0.43280 -0.89044
vn 0.44817 0.36873 -0.81436
vn -0.68439 0.34614 -0.64172
vn -0.41621 0.42301 -0.80488
vn 0.12375 -0.98971 -0.07181
vn -0.18069 -0.96720 -0.17854
vn 0.81419 -0.54391 0.20313
vn 0.61260 -0.78168 0.11704
vn 0.90453 0.31372 0.28881
vn 0.95738 -0.00531 0.28877
vn 0.32674 0.93738 0.12070
vn 0.59403 0.77727 0.20732
vn -0.48409 0.85742 -0.17460
vn -0.20386 0.97678 -0.06597
vn -0.91739 0.13407 -0.37473
vn -0.83544 0.44297 -0.32530
vn -0.64688 -0.68798 -0.32898
vn -0.82513 -0.42218 -0.37540
vn 0.11437 -0.98506 0.12874
vn -0.20826 -0.97067 0.12007
vn 0.84668 -0.52935 0.05399
vn 0.63317 -0.76781 0.09785
vn 0.94250 0.31502 -0.11158
vn 0.99887 0.00344 -0.04741
vn 0.32968 0.91221 -0.24327
vn 0.61346 0.76230 -0.20632
vn -0.53033 0.81254 -0.24193
vn -0.23284 0.93733 -0.25922
vn -0.98991 0.09105 -0.10857
vn -0.90275 0.39674 -0.16628
vn -0.70299 -0.70896 0.05640
vn -0.89181 -0.45240 0.00252
vn -0.16281 -0.98541 0.04968
vn -0.35915 -0.91235 -0.19655
vn 0.41921 -0.67247 0.60995
vn 0.21897 -0.86722 0.44719
vn 0.71706 0.13777 0.68326
vn 0.66320 -0.17799 0.72697
vn 0.50645 0.83519 0.21440
vn 0.63903 0.63633 0.43211
vn -0.05402 0.89462 -0.44356
vn 0.16466 0.96256 -0.21535
vn -0.54231 0.27130 -0.79517
vn -0.40271 0.55502 -0.72786
vn -0.59073 -0.56539 -0.57565
vn -0.63582 -0.27939 -0.71949
vn -0.79508 -0.60367 0.05852
vn -0.88258 -0.42664 -0.19757
vn -0.16995 -0.74851 0.64097
vn -0.44517 -0.76116 0.47165
vn 0.59899 -0.35617 0.71718
vn 0.34304 -0.54855 0.76251
vn 0.93272 0.27792 0.22976
vn 0.88852 0.05110 0.45598
vn 0.57993 0.67627 -0.45425
vn 0.78051 0.58623 -0.21711
vn -0.19373 0.53892 -0.81978
vn 0.10034 0.65388 -0.74991
vn -0.80566 -0.03071 -0.59158
vn -0.63980 0.20311 -0.74121
vn -0.26775 -0.96035 0.07766
vn -0.39100 -0.89517 -0.21400
vn 0.19152 -0.64403 0.74063
vn 0.01755 -0.83647 0.54774
vn 0.54314 0.14296 0.82738
vn 0.44886 -0.16196 0.87880
vn 0.52233 0.80800 0.27258
vn 0.57816 0.62044 0.52990
vn 0.14476 0.85031 -0.50599
vn 0.30807 0.92156 -0.23625
vn -0.30525 0.23802 -0.92205
vn -0.15801 0.51466 -0.84271
vn -0.48884 -0.56780 -0.66230
vn -0.46913 -0.29386 -0.83281
vn -0.97298 -0.22969 0.02372
vn -0.98813 0.04473 -0.14694
vn -0.44363 -0.79566 0.41245
vn -0.70530 -0.64245 0.29969
vn 0.42170 -0.77943 0.46332
vn 0.11053 -0.86252 0.49381
vn 0.97140 -0.19321 0.13801
vn 0.84502 -0.44976 0.28923
vn 0.79154 0.52156 -0.31850
vn 0.94508 0.28500 -0.15999
vn 0.01755 0.82664 -0.56246
vn 0.33537 0.78849 -0.51557
vn -0.76773 0.49230 -0.41015
vn -0.52499 0.68156 -0.50977
vn 0.11749 -0.98593 -0.11889
vn -0.20443 -0.96860 -0.14152
vn 0.84806 -0.52890 -0.03268
vn 0.63499 -0.76988 -0.06388
vn 0.94365 0.32950 0.03102
vn 0.99981 0.01162 0.01548
vn 0.33228 0.94287 0.02423
vn 0.61533 0.78741 0.03682
vn -0.52567 0.84933 -0.04793
vn -0.22894 0.97331 -0.01595
vn -0.98416 0.11933 -0.13112
vn -0.89725 0.42933 -0.10308
vn -0.69792 -0.69744 -0.16270
vn -0.88634 -0.43490 -0.15896
vn -0.53530 -0.84432 0.02412
vn -0.71882 -0.67189 -0.17851
vn 0.19754 -0.85146 0.48579
vn -0.08539 -0.93212 0.35195
vn 0.80379 -0.23577 0.54620
vn 0.63415 -0.50849 0.58249
vn 0.82692 0.53912 0.15986
vn 0.89796 0.28000 0.33952
vn 0.24952 0.88971 -0.38232
vn 0.50739 0.83960 -0.19400
vn -0.49362 0.55199 -0.67205
vn -0.24345 0.74892 -0.61632
vn -0.84290 -0.21973 -0.49117
vn -0.78917 0.07624 -0.60943
vn 0.66395 -0.74758 0.01687
vn 0.43300 -0.88681 -0.16150
vn 0.90566 -0.02163 0.42344
vn 0.89584 -0.32257 0.30564
vn 0.48436 0.73363 0.47664
vn 0.70276 0.49738 0.50866
vn -0.28271 0.94946 0.13641
vn -0.00085 0.95559 0.29470
vn -0.81792 0.46334 -0.34106
vn -0.68515 0.70703 -0.17514
vn -0.71826 -0.35867 -0.59621
vn -0.83486 -0.06114 -0.54706
vn -0.05876 -0.89758 -0.43692
vn -0.33723 -0.77046 -0.54099
vn 0.20402 0.97893 -0.00842
vn 0.47126 0.86867 -0.15273
vn -0.56589 0.75931 0.32129
vn -0.30535 0.92501 0.22611
vn -0.93090 -0.02466 0.36444
vn -0.87291 0.29210 0.39077
vn -0.61616 -0.78263 0.08852
vn -0.80405 -0.55345 0.21724
vn 0.14132 -0.94383 -0.29869
vn -0.15062 -0.97493 -0.16379
vn 0.77116 -0.38688 -0.50561
vn 0.59534 -0.65496 -0.46541
vn 0.79906 0.46883 -0.37643
vn 0.87210 0.16552 -0.46049
vn -0.43445 0.90013 0.03193
vn -0.19330 0.96572 -0.17328
vn -0.81986 0.28038 0.49922
vn -0.74186 0.56340 0.36361
vn -0.61155 -0.55857 0.56036
vn -0.75507 -0.27111 0.59696
vn 0.03361 -0.98499 0.16931
vn -0.22298 -0.90942 0.35104
vn 0.62980 -0.67777 -0.37945
vn 0.45374 -0.87087 -0.18896
vn 0.72808 0.13175 -0.67271
vn 0.76551 -0.18448 -0.61642
vn 0.25445 0.83398 -0.48963
vn 0.47755 0.63288 -0.60944
vn -0.18598 0.98089 0.05711
vn 0.02171 0.98138 -0.19086
vn -0.61696 0.48334 0.62109
vn -0.49922 0.73608 0.45713
vn -0.61033 -0.38031 0.69488
vn -0.67077 -0.06559 0.73876
vn -0.17109 -0.95971 0.22292
vn -0.36377 -0.81997 0.44195
vn 0.37001 -0.81855 -0.43940
vn 0.19061 -0.95899 -0.20979
vn 0.60550 -0.06314 -0.79334
vn 0.57491 -0.37796 -0.72569
vn 0.35806 0.73769 -0.57237
vn 0.49974 0.48558 -0.71726
vn -0.40787 0.91162 0.05091
vn -0.19509 0.96275 -0.18724
vn -0.73853 0.32138 0.59270
vn -0.67434 0.59651 0.43525
vn -0.53874 -0.51905 0.66359
vn -0.67107 -0.22696 0.70580
vn 0.04105 -0.97680 0.21020
vn -0.18774 -0.88757 0.42067
vn 0.56425 -0.70717 -0.42605
vn 0.41169 -0.88787 -0.20542
vn 0.63688 0.08678 -0.76606
vn 0.67584 -0.22763 -0.70102
vn 0.20424 0.80722 -0.55379
vn 0.40580 0.59597 -0.69292
vn -0.42836 0.90329 0.02390
vn -0.17590 0.97019 -0.16673
vn -0.84389 0.27911 0.45820
vn -0.75618 0.56373 0.33226
vn -0.64659 -0.56274 0.51502
vn -0.78933 -0.27461 0.54913
vn 0.01496 -0.98833 0.15159
vn -0.25037 -0.91353 0.32058
vn 0.64261 -0.67719 -0.35843
vn 0.45484 -0.87192 -0.18130
vn 0.76372 0.13640 -0.63098
vn 0.79527 -0.18111 -0.57857
vn 0.28709 0.83977 -0.46082
vn 0.51457 0.63870 -0.57208
vn -0.16830 0.98574 -0.00101
vn 0.11087 0.98029 -0.16353
vn -0.78232 0.50106 0.37002
vn -0.60677 0.75019 0.26278
vn -0.83297 -0.36187 0.41857
vn -0.89283 -0.04576 0.44807
vn -0.28213 -0.95327 0.10808
vn -0.53190 -0.80819 0.25280
vn 0.45543 -0.82779 -0.32765
vn 0.20423 -0.96298 -0.17598
vn 0.82429 -0.07992 -0.56049
vn 0.76124 -0.39356 -0.51539
vn 0.54671 0.72717 -0.41513
vn 0.71969 0.47127 -0.50985
vn 0.11872 -0.90237 -0.41428
vn -0.20209 -0.87370 -0.44250
vn 0.84673 -0.50749 -0.15970
vn 0.63437 -0.72283 -0.27403
vn 0.94199 0.28513 0.17708
vn 0.99792 -0.01231 0.06334
vn 0.33276 0.87863 0.34247
vn 0.61478 0.72281 0.31557
vn -0.52219 0.82608 0.21192
vn -0.22652 0.92898 0.29273
vn -0.97907 0.16706 -0.11626
vn -0.89247 0.45094 0.01201
vn -0.69384 -0.60217 -0.39495
vn -0.88160 -0.35133 -0.31520
vn 0.10709 -0.99380 0.02980
vn -0.21442 -0.97513 0.05602
vn 0.83710 -0.54120 -0.07974
vn 0.62436 -0.78033 -0.03541
vn 0.93262 0.31374 -0.17827
vn 0.98892 -0.00303 -0.14845
vn 0.32172 0.92725 -0.19161
vn 0.60472 0.77144 -0.19796
vn -0.53559 0.83732 -0.10971
vn -0.23892 0.95990 -0.14667
vn -0.99373 0.11169 0.00576
vn -0.90672 0.42042 -0.03320
vn -0.70771 -0.70324 0.06785
vn -0.89582 -0.44075 0.05701
vn 0.11280 -0.98982 -0.08680
vn -0.20942 -0.97409 -0.08542
vn 0.84420 -0.52895 -0.08680
vn 0.63100 -0.77106 -0.08542
vn 0.93990 0.33023 -0.08680
vn 0.99627 0.01259 -0.08542
vn 0.32784 0.94074 -0.08680
vn 0.61132 0.78676 -0.08542
vn -0.53110 0.84285 -0.08680
vn -0.23396 0.96849 -0.08542
vn -0.99010 0.11028 -0.08680
vn -0.90307 0.42092 -0.08542
vn -0.70354 -0.70533 -0.08680
vn -0.89214 -0.44360 -0.08542
vn 0.98937 -0.14458 0.01581
vn 0.90443 -0.38635 -0.18095
vn 0.70319 0.53841 0.46437
vn 0.89023 0.30925 0.33445
vn -0.10402 0.84592 0.52306
vn 0.21402 0.80145 0.55845
vn -0.82441 0.54639 0.14769
vn -0.61500 0.71962 0.32238
vn -0.91551 -0.13464 -0.37908
vn -0.97256 0.12537 -0.19600
vn -0.30873 -0.68433 -0.66059
vn -0.58941 -0.53381 -0.60633
vn 0.53902 -0.68876 -0.48484
vn 0.24593 -0.76155 -0.59963
vn 0.11943 -0.99195 -0.04211
vn -0.20104 -0.97619 -0.08151
vn 0.84662 -0.52997 0.04859
vn 0.63449 -0.77258 0.02325
vn 0.94177 0.33101 0.05915
vn 0.99763 0.01272 0.06763
vn 0.33323 0.94267 -0.01839
vn 0.61492 0.78838 0.01823
vn -0.52077 0.84440 -0.12563
vn -0.22544 0.97030 -0.08776
vn -0.97713 0.11022 -0.18183
vn -0.89065 0.42149 -0.17053
vn -0.69222 -0.70704 -0.14466
vn -0.87979 -0.44477 -0.16774
vn 0.11434 -0.97211 -0.20475
vn -0.20846 -0.95551 -0.20867
vn 0.84704 -0.51803 -0.11900
vn 0.63340 -0.75726 -0.15927
vn 0.94291 0.33281 0.01239
vn 0.99929 0.01780 -0.03319
vn 0.32976 0.93972 0.09049
vn 0.61368 0.78602 0.07462
vn -0.53070 0.84567 0.05649
vn -0.23305 0.96892 0.08298
vn -0.99053 0.12150 -0.06402
vn -0.90330 0.42877 -0.01440
vn -0.70346 -0.68750 -0.18028
vn -0.89236 -0.42768 -0.14420
vn 0.17048 0.98525 0.01453
vn 0.42487 0.89079 -0.16121
vn -0.55169 0.72338 0.41517
vn -0.30906 0.90278 0.29912
vn -0.88063 -0.07642 0.46759
vn -0.83212 0.24165 0.49918
vn -0.56865 -0.81187 0.13232
vn -0.75042 -0.59475 0.28834
vn 0.14933 -0.92916 -0.33818
vn -0.12550 -0.97660 -0.17465
vn 0.73265 -0.33998 -0.58961
vn 0.57207 -0.61636 -0.54114
vn 0.74207 0.51202 -0.43264
vn 0.81701 0.21471 -0.53516
vn 0.99442 0.10491 0.01135
vn 0.97381 -0.18259 -0.13547
vn 0.54311 0.76502 0.34609
vn 0.78264 0.57044 0.24913
vn -0.31692 0.86461 0.38989
vn 0.00238 0.90923 0.41629
vn -0.93804 0.32868 0.10977
vn -0.77942 0.57865 0.24013
vn -0.85254 -0.43919 -0.28334
vn -0.97405 -0.17235 -0.14670
vn -0.12481 -0.86079 -0.49342
vn -0.43495 -0.77827 -0.45290
vn 0.69717 -0.61865 -0.36226
vn 0.43193 -0.78283 -0.44790
vn 0.93871 -0.33452 0.08325
vn 0.87625 -0.42904 -0.21934
vn 0.63026 0.09168 0.77095
vn 0.81718 -0.07980 0.57083
vn -0.13269 0.49110 0.86094
vn 0.16254 0.37112 0.91425
vn -0.77562 0.56298 0.28544
vn -0.59472 0.58417 0.55232
vn -0.81439 0.25318 -0.52218
vn -0.88436 0.39892 -0.24242
vn -0.21981 -0.20500 -0.95376
vn -0.48828 -0.04514 -0.87152
vn 0.56039 -0.46655 -0.68432
vn 0.29526 -0.41361 -0.86125
vn 0.49720 -0.86343 0.08530
vn 0.37787 -0.90105 -0.21292
vn 0.55789 -0.32658 0.76296
vn 0.58475 -0.58143 0.56569
vn 0.23026 0.47086 0.85163
vn 0.38258 0.19044 0.90408
vn -0.23898 0.92840 0.28454
vn -0.07641 0.83334 0.54745
vn -0.49648 0.70150 -0.51128
vn -0.44659 0.86315 -0.23565
vn -0.34834 -0.03898 -0.93656
vn -0.44920 0.25742 -0.85554
vn 0.09389 -0.73544 -0.67105
vn -0.08228 -0.52772 -0.84542
vn 0.59235 -0.80096 0.08705
vn 0.49407 -0.84161 -0.21815
vn 0.55717 -0.28332 0.78057
vn 0.62224 -0.52719 0.57870
vn 0.14007 0.47031 0.87132
vn 0.31889 0.20649 0.92502
vn -0.34486 0.89242 0.29095
vn -0.18754 0.80696 0.56004
vn -0.53245 0.66517 -0.52349
vn -0.51571 0.82205 -0.24142
vn -0.28146 -0.04033 -0.95873
vn -0.41849 0.24039 -0.87583
vn 0.21913 -0.69282 -0.68701
vn 0.03090 -0.50000 -0.86547
vn 0.11646 -0.99300 0.01964
vn -0.20581 -0.97859 0.00188
vn 0.84789 -0.52971 0.02209
vn 0.63460 -0.77221 0.03118
vn 0.94360 0.32838 -0.04238
vn 0.99985 0.01163 -0.01249
vn 0.33151 0.93510 -0.12523
vn 0.61491 0.78270 -0.09623
vn -0.52745 0.83359 -0.16406
vn -0.23036 0.96036 -0.15700
vn -0.98648 0.10028 -0.12964
vn -0.89945 0.41083 -0.14903
vn -0.69991 -0.71263 -0.04789
vn -0.88853 -0.45209 -0.07832
vn 0.12092 -0.98169 -0.14720
vn -0.19740 -0.95983 -0.19942
vn 0.84315 -0.53687 0.02944
vn 0.63243 -0.77390 -0.03336
vn 0.93765 0.31688 0.14281
vn 0.99309 -0.00062 0.11738
vn 0.33326 0.93668 0.10755
vn 0.61299 0.77771 0.13929
vn -0.51490 0.85580 -0.04979
vn -0.22163 0.97500 0.01587
vn -0.96816 0.13515 -0.21073
vn -0.88230 0.44268 -0.15993
vn -0.68519 -0.68261 -0.25408
vn -0.87151 -0.41840 -0.25575
vn -0.01507 -0.99913 0.03900
vn -0.25934 -0.95113 -0.16760
vn 0.60311 -0.61398 0.50921
vn 0.40840 -0.83327 0.37264
vn 0.78804 0.23077 0.57073
vn 0.78918 -0.09064 0.60744
vn 0.40046 0.89901 0.17725
vn 0.59625 0.71756 0.35999
vn -0.26777 0.88753 -0.37495
vn -0.02509 0.98272 -0.18337
vn -0.71347 0.20499 -0.67003
vn -0.60698 0.50518 -0.61349
vn -0.60101 -0.63465 -0.48581
vn -0.71123 -0.35546 -0.60647
vn 0.85029 -0.52504 0.03646
vn 0.69089 -0.69901 -0.18456
vn 0.82249 0.17968 0.53965
vn 0.91450 -0.09368 0.39360
vn 0.19361 0.77195 0.60549
vn 0.46745 0.60467 0.64487
vn -0.56279 0.80577 0.18440
vn -0.31362 0.87017 0.38006
vn -0.87713 0.25567 -0.40653
vn -0.84054 0.50290 -0.20144
vn -0.51270 -0.46410 -0.72232
vn -0.71654 -0.22059 -0.66174
vn 0.25608 -0.81155 -0.52517
vn -0.03499 -0.75549 -0.65423
vn 0.93760 -0.34620 0.03240
vn 0.80585 -0.56995 -0.16054
vn 0.79235 0.38695 0.47165
vn 0.93072 0.12381 0.34414
vn 0.05947 0.84645 0.52913
vn 0.36363 0.74179 0.56349
vn -0.70915 0.68630 0.16154
vn -0.46839 0.81864 0.33232
vn -0.93474 0.02708 -0.35431
vn -0.93881 0.29649 -0.17528
vn -0.44741 -0.63479 -0.62998
vn -0.69340 -0.43146 -0.57709
vn 0.38586 -0.80091 -0.45788
vn 0.08305 -0.81707 -0.57053
vn 0.10281 -0.98985 0.09808
vn -0.21643 -0.96586 0.14240
vn 0.82781 -0.55407 -0.08795
vn 0.61658 -0.78717 -0.01375
vn 0.92267 0.29081 -0.25320
vn 0.97863 -0.02372 -0.20427
vn 0.31597 0.90857 -0.27324
vn 0.59708 0.74959 -0.28570
vn -0.53544 0.83404 -0.13297
vn -0.24075 0.95044 -0.19671
vn -0.99043 0.12333 0.06197
vn -0.90396 0.42760 -0.00432
vn -0.70638 -0.68838 0.16480
vn -0.89313 -0.42524 0.14660
vn 0.12142 -0.97806 -0.16928
vn -0.18821 -0.94768 -0.25784
vn 0.82381 -0.55553 0.11280
vn 0.61881 -0.78542 0.01401
vn 0.91572 0.29056 0.27756
vn 0.96955 -0.02657 0.24344
vn 0.32793 0.92309 0.20091
vn 0.59991 0.75744 0.25768
vn -0.49694 0.86575 -0.05941
vn -0.21178 0.97623 0.04601
vn -0.93774 0.16171 -0.30738
vn -0.85429 0.46506 -0.23218
vn -0.66255 -0.65886 -0.35628
vn -0.84380 -0.39117 -0.36740
vn 0.11425 -0.88994 -0.44153
vn -0.20875 -0.87236 -0.44206
vn 0.84742 -0.47524 -0.23672
vn 0.63363 -0.69513 -0.33957
vn 0.94335 0.31121 0.11508
vn 0.99974 0.01920 -0.01215
vn 0.32980 0.87719 0.34896
vn 0.61390 0.73273 0.29367
vn -0.53121 0.79650 0.28880
vn -0.23335 0.90815 0.34758
vn -0.99132 0.12991 -0.02009
vn -0.90401 0.41337 0.10899
vn -0.70407 -0.62063 -0.34512
vn -0.89307 -0.37903 -0.24243
vn 0.10436 -0.99366 0.04171
vn -0.21454 -0.97242 0.09152
vn 0.82853 -0.54640 -0.12240
vn 0.61750 -0.78409 -0.06240
vn 0.92328 0.30866 -0.22864
vn 0.97912 -0.00892 -0.20307
vn 0.31727 0.92765 -0.19700
vn 0.59802 0.76938 -0.22458
vn -0.53317 0.84445 -0.05131
vn -0.23884 0.96473 -0.11071
vn -0.98764 0.12171 0.09872
vn -0.90127 0.43002 0.05277
vn -0.70392 -0.69633 0.14012
vn -0.89046 -0.43209 0.14277
f 1//1 2//2 4//4
f 1//1 4//4 3//3
f 3//3 4//4 6//6
f 3//3 6//6 5//5
f 5//5 6//6 8//8
f 5//5 8//8 7//7
f 7//7 8//8 10//10
f 7//7 10//10 9//9
f 9//9 10//10 12//12
f 9//9 12//12 11//11
f 11//11 12//12 14//14
f 11//11 14//14 13//13
f 13//13 14//14 2//2
f 13//13 2//2 1//1
f 15//15 16//16 18//18
f 15//15 18//18 17//17
f 17//17 18//18 20//20
f 17//17 20//20 19//19
f 19//19 20//20 22//22
f 19//19 22//22 21//21
f 21//21 22//22 24//24
f 21//21 24//24 23//23
f 23//23 24//24 26//26
f 23//23 26//26 25//25
f 25//25 26//26 28//28
f 25//25 28//28 27//27
f 27//27 28//28 16//16
f 27//27 16//16 15//15
f 29//29 30//30 32//32
f 29//29 32//32 31//31
f 31//31 32//32 34//34
f 31//31 34//34 33//33
f 33//33 34//34 36//36
f 33//33 36//36 35//35
f 35//35 36//36 38//38
f 35//35 38//38 37//37
f 37//37 38//38 40//40
f 37//37 40//40 39//39
f 39//39 40//40 42//42
f 39//39 42//42 41//41
f 41//41 42//42 30//30
f 41//41 30//30 29//29
f 43//43 44//44 46//46
f 43//43 46//46 45//45
f 45//45 46//46 48//48
f 45//45 48//48 47//47
f 47//47 48//48 50//50
f 47//47 50//50 49//49
f 49//49 50//50 52//52
f 49//49 52//52 51//51
f 51//51 52//52 54//54
f 51//51 54//54 53//53
f 53//53 54//54 56//56
f 53//53 56//56 55//55
f 55//55 56//56 44//44
f 55//55 44//44 43//43
f 57//57 58//58 60//60
f 57//57 60//60 59//59
f 59//59 60//60 62//62
f 59//59 62//62 61//61
f 61//61 62//62 64//64
f 61//61 64//64 63//63
f 63//63 64//64 66//66
f 63//63 66//66 65//65
f 65//65 66//66 68//68
f 65//65 68//68 67//67
f 67//67 68//68 70//70
f 67//67 70//70 69//69
f 69//69 70//70 58//58
f 69//69 58//58 57//57
f 71//71 72//72 74//74
f 71//71 74//74 73//73
f 73//73 74//74 76//76
f 73//73 76//76 75//75
f 75//75 76//76 78//78
f 75//75 78//78 77//77
f 77//77 78//78 80//80
f 77//77 80//80 79//79
f 79//79 80//80 82//82
f 79//79 82//82 81//81
f 81//81 82//82 84//84
f 81//81 84//84 83//83
f 83//83 84//84 72//72
f 83//83 72//72 71//71
f 85//85 86//86 88//88
f 85//85 88//88 87//87
f 87//87 88//88 90//90
f 87//87 90//90 89//89
f 89//89 90//90 92//92
f 89//89 92//92 91//91
f 91//91 92//92 94//94
f 91//91 94//94 93//93
f 93//93 94//94 96//96
f 93//93 96//96 95//95
f 95//95 96//96 98//98
f 95//95 98//98 97//97
f 97//97 98//98 86//86
f 97//97 86//86 85//85
f 99//99 100//100 102//102
f 99//99 102//102 101//101
f 101//101 102//102 104//104
f 101//101 104//104 103//103
f 103//103 104//104 106//106
f 103//103 106//106 105//105
f 105//105 106//106 108//108
f 105//105 108//108 107//107
f 107//107 108//108 110//110
f 107//107 110//110 109//109
f 109//109 110//110 112//112
f 109//109 112//112 111//111
f 111//111 112//112 100//100
f 111//111 100//100 99//99
f 113//113 114//114 116//116
f 113//113 116//116 115//115
f 115//115 116//116 118//118
f 115//115 118//118 117//117
f 117//117 118//118 120//120
f 117//117 120//120 119//119
f 119//119 120//120 122//122
f 119//119 122//122 121//121
f 121//121 122//122 124//124
f 121//121 124//124 123//123
f 123//123 124//124 126//126
f 123//123 126//126 125//125
f 125//125 126//126 114//114
f 125//125 114//114 113//113
f 127//127 128//128 130//130
f 127//127 130//130 129//129
f 129//129 130//130 132//132
f 129//129 132//132 131//131
f 131//131 132//132 134//134
f 131//131 134//134 133//133
f 133//133 134//134 136//136
f 133//133 136//136 135//135
f 135//135 136//136 138//138
f 135//135 138//138 137//137
f 137//137 138//138 140//140
f 137//137 140//140 139//139
f 139//139 140//140 128//128
f 139//139 128//128 127//127
f 141//141 142//142 144//144
f 141//141 144//144 143//143
f 143//143 144//144 146//146
f 143//143 146//146 145//145
f 145//145 146//146 148//148
f 145//145 148//148 147//147
f 147//147 148//148 150//150
f 147//147 150//150 149//149
f 149//149 150//150 152//152
f 149//149 152//152 151//151
f 151//151 152//152 154//154
f 151//151 154//154 153//153
f 153//153 154//154 142//142
f 153//153 142//142 141//141
f 155//155 156//156 158//158
f 155//155 158//158 157//157
f 157//157 158//158 160//160
f 157//157 160//160 159//159
f 159//159 160//160 162//162
f 159//159 162//162 161//161
f 161//161 162//162 164//164
f 161//161 164//164 163//163
f 163//163 164//164 166//166
f 163//163 166//166 165//165
f 165//165 166//166 168//168
f 165//165 168//168 167//167
f 167//167 168//168 156//156
f 167//167 156//156 155//155
f 169//169 170//170 172//172
f 169//169 172//172 171//171
f 171//171 172//172 174//174
f 171//171 174//174 173//173
f 173//173 174//174 176//176
f 173//173 176//176 175//175
f 175//175 176//176 178//178
f 175//175 178//178 177//177
f 177//177 178//178 180//180
f 177//177 180//180 179//179
f 179//179 180//180 182//182
f 179//179 182//182 181//181
f 181//181 182//182 170//170
f 181//181 170//170 169//169
f 183//183 184//184 186//186
f 183//183 186//186 185//185
f 185//185 186//186 188//188
f 185//185 188//188 187//187
f 187//187 188//188 190//190
f 187//187 190//190 189//189
f 189//189 190//190 192//192
f 189//189 192//192 191//191
f 191//191 192//192 194//194
f 191//191 194//194 193//193
f 193//193 194//194 196//196
f 193//193 196//196 195//195
f 195//195 196//196 184//184
f 195//195 184//184 183//183
f 197//197 198//198 200//200
f 197//197 200//200 199//199
f 199//199 200//200 202//202
f 199//199 202//202 201//201
f 201//201 202//202 204//204
f 201//201 204//204 203//203
f 203//203 204//204 206//206
f 203//203 206//206 205//205
f 205//205 206//206 208//208
f 205//205 208//208 207//207
f 207//207 208//208 210//210
f 207//207 210//210 209//209
f 209//209 210//210 198//198
f 209//209 198//198 197//197
f 211//211 212//212 214//214
f 211//211 214//214 213//213
f 213//213 214//214 216//216
f 213//213 216//216 215//215
f 215//215 216//216 218//218
f 215//215 218//218 217//217
f 217//217 218//218 220//220
f 217//217 220//220 219//219
f 219//219 220//220 222//222
f 219//219 222//222 221//221
f 221//221 222//222 224//224
f 221//221 224//224 223//223
f 223//223 224//224 212//212
f 223//223 212//212 211//211
f 225//225 226//226 228//228
f 225//225 228//228 227//227
f 227//227 228//228 230//230
f 227//227 230//230 229//229
f 229//229 230//230 232//232
f 229//229 232//232 231//231
f 231//231 232//232 234//234
f 231//231 234//234 233//233
f 233//233 234//234 236//236
f 233//233 236//236 235//235
f 235//235 236//236 238//238
f 235//235 238//238 237//237
f 237//237 238//238 226//226
f 237//237 226//226 225//225
f 239//239 240//240 242//242
f 239//239 242//242 241//241
f 241//241 242//242 244//244
f 241//241 244//244 243//243
f 243//243 244//244 246//246
f 243//243 246//246 245//245
f 245//245 246//246 248//248
f 245//245 248//248 247//247
f 247//247 248//248 250//250
f 247//247 250//250 249//249
f 249//249 250//250 252//252
f 249//249 252//252 251//251
f 251//251 252//252 240//240
f 251//251 240//240 239//239
f 253//253 254//254 256//256
f 253//253 256//256 255//255
f 255//255 256//256 258//258
f 255//255 258//258 257//257
f 257//257 258//258 260//260
f 257//257 260//260 259//259
f 259//259 260//260 262//262
f 259//259 262//262 261//261
f 261//261 262//262 264//264
f 261//261 264//264 263//263
f 263//263 264//264 266//266
f 263//263 266//266 265//265
f 265//265 266//266 254//254
f 265//265 254//254 253//253
f 267//267 268//268 270//270
f 267//267 270//270 269//269
f 269//269 270//270 272//272
f 269//269 272//272 271//271
f 271//271 272//272 274//274
f 271//271 274//274 273//273
f 273//273 274//274 276//276
f 273//273 276//276 275//275
f 275//275 276//276 278//278
f 275//275 278//278 277//277
f 277//277 278//278 280//280
f 277//277 280//280 279//279
f 279//279 280//280 268//268
f 279//279 268//268 267//267
f 281//281 282//282 284//284
f 281//281 284//284 283//283
f 283//283 284//284 286//286
f 283//283 286//286 285//285
f 285//285 286//286 288//288
f 285//285 288//288 287//287
f 287//287 288//288 290//290
f 287//287 290//290 289//289
f 289//289 290//290 292//292
f 289//289 292//292 291//291
f 291//291 292//292 294//294
f 291//291 294//294 293//293
f 293//293 294//294 282//282
f 293//293 282//282 281//281
f 295//295 296//296 298//298
f 295//295 298//298 297//297
f 297//297 298//298 300//300
f 297//297 300//300 299//299
f 299//299 300//300 302//302
f 299//299 302//302 301//301
f 301//301 302//302 304//304
f 301//301 304//304 303//303
f 303//303 304//304 306//306
f 303//303 306//306 305//305
f 305//305 306//306 308//308
f 305//305 308//308 307//307
f 307//307 308//308 296//296
f 307//307 296//296 295//295
f 309//309 310//310 312//312
f 309//309 312//312 311//311
f 311//311 312//312 314//314
f 311//311 314//314 313//313
f 313//313 314//314 316//316
f 313//313 316//316 315//315
f 315//315 316//316 318//318
f 315//315 318//318 317//317
f 317//317 318//318 320//320
f 317//317 320//320 319//319
f 319//319 320//320 322//322
f 319//319 322//322 321//321
f 321//321 322//322 310//310
f 321//321 310//310 309//309
f 323//323 324//324 326//326
f 323//323 326//326 325//325
f 325//325 326//326 328//328
f 325//325 328//328 327//327
f 327//327 328//328 330//330
f 327//327 330//330 329//329
f 329//329 330//330 332//332
f 329//329 332//332 331//331
f 331//331 332//332 334//334
f 331//331 334//334 333//333
f 333//333 334//334 336//336
f 333//333 336//336 335//335
f 335//335 336//336 324//324
f 335//335 324//324 323//323
f 337//337 338//338 340//340
f 337//337 340//340 339//339
f 339//339 340//340 342//342
f 339//339 342//342 341//341
f 341//341 342//342 344//344
f 341//341 344//344 343//343
f 343//343 344//344 346//346
f 343//343 346//346 345//345
f 345//345 346//346 348//348
f 345//345 348//348 347//347
f 347//347 348//348 350//350
f 347//347 350//350 349//349
f 349//349 350//350 338//338
f 349//349 338//338 337//337
f 351//351 352//352 354//354
f 351//351 354//354 353//353
f 353//353 354//354 356//356
f 353//353 356//356 355//355
f 355//355 356//356 358//358
f 355//355 358//358 357//357
f 357//357 358//358 360//360
f 357//357 360//360 359//359
f 359//359 360//360 362//362
f 359//359 362//362 361//361
f 361//361 362//362 364//364
f 361//361 364//364 363//363
f 363//363 364//364 352//352
f 363//363 352//352 351//351
f 365//365 366//366 368//368
f 365//365 368//368 367//367
f 367//367 368//368 370//370
f 367//367 370//370 369//369
f 369//369 370//370 372//372
f 369//369 372//372 371//371
f 371//371 372//372 374//374
f 371//371 374//374 373//373
f 373//373 374//374 376//376
f 373//373 376//376 375//375
f 375//375 376//376 378//378
f 375//375 378//378 377//377
f 377//377 378//378 366//366
f 377//377 366//366 365//365
f 379//379 380//380 382//382
f 379//379 382//382 381//381
f 381//381 382//382 384//384
f 381//381 384//384 383//383
f 383//383 384//384 386//386
f 383//383 386//386 385//385
f 385//385 386//386 388//388
f 385//385 388//388 387//387
f 387//387 388//388 390//390
f 387//387 390//390 389//389
f 389//389 390//390 392//392
f 389//389 392//392 391//391
f 391//391 392//392 380//380
f 391//391 380//380 379//379
f 393//393 394//394 396//396
f 393//393 396//396 395//395
f 395//395 396//396 398//398
f 395//395 398//398 397//397
f 397//397 398//398 400//400
f 397//397 400//400 399//399
f 399//399 400//400 402//402
f 399//399 402//402 401//401
f 401//401 402//402 404//404
f 401//401 404//404 403//403
f 403//403 404//404 406//406
f 403//403 406//406 405//405
f 405//405 406//406 394//394
f 405//405 394//394 393//393
f 407//407 408//408 410//410
f 407//407 410//410 409//409
f 409//409 410//410 412//412
f 409//409 412//412 411//411
f 411//411 412//412 414//414
f 411//411 414//414 413//413
f 413//413 414//414 416//416
f 413//413 416//416 415//415
f 415//415 416//416 418//418
f 415//415 418//418 417//417
f 417//417 418//418 420//420
f 417//417 420//420 419//419
f 419//419 420//420 408//408
f 419//419 408//408 407//407
f 421//421 422//422 424//424
f 421//421 424//424 423//423
f 423//423 424//424 426//426
f 423//423 426//426 425//425
f 425//425 426//426 428//428
f 425//425 428//428 427//427
f 427//427 428//428 430//430
f 427//427 430//430 429//429
f 429//429 430//430 432//432
f 429//429 432//432 431//431
f 431//431 432//432 434//434
f 431//431 434//434 433//433
f 433//433 434//434 422//422
f 433//433 422//422 421//421
f 435//435 436//436 438//438
f 435//435 438//438 437//437
f 437//437 438//438 440//440
f 437//437 440//440 439//439
f 439//439 440//440 442//442
f 439//439 442//442 441//441
f 441//441 442//442 444//444
f 441//441 444//444 443//443
f 443//443 444//444 446//446
f 443//443 446//446 445//445
f 445//445 446//446 448//448
f 445//445 448//448 447//447
f 447//447 448//448 436//436
f 447//447 436//436 435//435
f 449//449 450//450 452//452
f 449//449 452//452 451//451
f 451//451 452//452 454//454
f 451//451 454//454 453//453
f 453//453 454//454 456//456
f 453//453 456//456 455//455
f 455//455 456//456 458//458
f 455//455 458//458 457//457
f 457//457 458//458 460//460
f 457//457 460//460 459//459
f 459//459 460//460 462//462
f 459//459 462//462 461//461
f 461//461 462//462 450//450
f 461//461 450//450 449//449
f 463//463 464//464 466//466
f 463//463 466//466 465//465
f 465//465 466//466 468//468
f 465//465 468//468 467//467
f 467//467 468//468 470//470
f 467//467 470//470 469//469
f 469//469 470//470 472//472
f 469//469 472//472 471//471
f 471//471 472//472 474//474
f 471//471 474//474 473//473
f 473//473 474//474 476//476
f 473//473 476//476 475//475
f 475//475 476//476 464//464
f 475//475 464//464 463//463
f 477//477 478//478 480//480
f 477//477 480//480 479//479
f 479//479 480//480 482//482
f 479//479 482//482 481//481
f 481//481 482//482 484//484
f 481//481 484//484 483//483
f 483//483 484//484 486//486
f 483//483 486//486 485//485
f 485//485 486//486 488//488
f 485//485 488//488 487//487
f 487//487 488//488 490//490
f 487//487 490//490 489//489
f 489//489 490//490 478//478
f 489//489 478//478 477//477
f 491//491 492//492 494//494
f 491//491 494//494 493//493
f 493//493 494//494 496//496
f 493//493 496//496 495//495
f 495//495 496//496 498//498
f 495//495 498//498 497//497
f 497//497 498//498 500//500
f 497//497 500//500 499//499
f 499//499 500//500 502//502
f 499//499 502//502 501//501
f 501//501 502//502 504//504
f 501//501 504//504 503//503
f 503//503 504//504 492//492
f 503//503 492//492 491//491
f 505//505 506//506 508//508
f 505//505 508//508 507//507
f 507//507 508//508 510//510
f 507//507 510//510 509//509
f 509//509 510//510 512//512
f 509//509 512//512 511//511
f 511//511 512//512 514//514
f 511//511 514//514 513//513
f 513//513 514//514 516//516
f 513//513 516//516 515//515
f 515//515 516//516 518//518
f 515//515 518//518 517//517
f 517//517 518//518 506//506
f 517//517 506//506 505//505
f 519//519 520//520 522//522
f 519//519 522//522 521//521
f 521//521 522//522 524//524
f 521//521 524//524 523//523
f 523//523 524//524 526//526
f 523//523 526//526 525//525
f 525//525 526//526 528//528
f 525//525 528//528 527//527
f 527//527 528//528 530//530
f 527//527 530//530 529//529
f 529//529 530//530 532//532
f 529//529 532//532 531//531
f 531//531 532//532 520//520
f 531//531 520//520 519//519
f 533//533 534//534 536//536
f 533//533 536//536 535//535
f 535//535 536//536 538//538
f 535//535 538//538 537//537
f 537//537 538//538 540//540
f 537//537 540//540 539//539
f 539//539 540//540 542//542
f 539//539 542//542 541//541
f 541//541 542//542 544//544
f 541//541 544//544 543//543
f 543//543 544//544 546//546
f 543//543 546//546 545//545
f 545//545 546//546 534//534
f 545//545 534//534 533//533
f 547//547 548//548 550//550
f 547//547 550//550 549//549
f 549//549 550//550 552//552
f 549//549 552//552 551//551
f 551//551 552//552 554//554
f 551//551 554//554 553//553
f 553//553 554//554 556//556
f 553//553 556//556 555//555
f 555//555 556//556 558//558
f 555//555 558//558 557//557
f 557//557 558//558 560//560
f 557//557 560//560 559//559
f 559//559 560//560 548//548
f 559//559 548//548 547//547
f 561//561 562//562 564//564
f 561//561 564//564 563//563
f 563//563 564//564 566//566
f 563//563 566//566 565//565
f 565//565 566//566 568//568
f 565//565 568//568 567//567
f 567//567 568//568 570//570
f 567//567 570//570 569//569
f 569//569 570//570 572//572
f 569//569 572//572 571//571
f 571//571 572//572 574//574
f 571//571 574//574 573//573
f 573//573 574//574 562//562
f 573//573 562//562 561//561
f 575//575 576//576 578//578
f 575//575 578//578 577//577
f 577//577 578//578 580//580
f 577//577 580//580 579//579
f 579//579 580//580 582//582
f 579//579 582//582 581//581
f 581//581 582//582 584//584
f 581//581 584//584 583//583
f 583//583 584//584 586//586
f 583//583 586//586 585//585
f 585//585 586//586 588//588
f 585//585 588//588 587//587
f 587//587 588//588 576//576
f 587//587 576//576 575//575
f 589//589 590//590 592//592
f 589//589 592//592 591//591
f 591//591 592//592 594//594
f 591//591 594//594 593//593
f 593//593 594//594 596//596
f 593//593 596//596 595//595
f 595//595 596//596 598//598
f 595//595 598//598 597//597
f 597//597 598//598 600//600
f 597//597 600//600 599//599
f 599//599 600//600 602//602
f 599//599 602//602 601//601
f 601//601 602//602 590//590
f 601//601 590//590 589//589
