# generated by scripts/make_scenery.py
v 0.00000 0.02200 0.00000
v 0.00000 0.01540 0.16000
v -0.02092 0.00680 0.00000
v -0.01465 0.00476 0.16000
v -0.01293 -0.01780 0.00000
v -0.00905 -0.01246 0.16000
v 0.01293 -0.01780 0.00000
v 0.00905 -0.01246 0.16000
v 0.02092 0.00680 0.00000
v 0.01465 0.00476 0.16000
v 0.00000 0.01501 0.16345
v -0.00284 -0.01312 0.26512
v -0.01464 0.00473 0.16068
v -0.01308 -0.02032 0.26318
v -0.00905 -0.01209 0.15697
v -0.00917 -0.03209 0.26058
v 0.00905 -0.01220 0.15744
v 0.00350 -0.03216 0.26091
v 0.01464 0.00455 0.16145
v 0.00741 -0.02044 0.26372
v -0.01354 -0.02234 0.26270
v -0.01528 -0.06397 0.32145
v -0.00714 -0.03154 0.25678
v -0.01080 -0.07041 0.31731
v 0.00521 -0.02980 0.25904
v -0.00215 -0.06920 0.31889
v 0.00644 -0.01953 0.26636
v -0.00129 -0.06200 0.32401
v -0.00515 -0.01492 0.26862
v -0.00940 -0.05878 0.32559
v -0.01528 -0.06397 0.32145
v -0.01807 -0.10622 0.35494
v -0.01063 -0.06902 0.31582
v -0.01481 -0.10975 0.35100
v -0.00205 -0.06833 0.31797
v -0.00881 -0.10927 0.35251
v -0.00140 -0.06287 0.32493
v -0.00835 -0.10544 0.35737
v -0.00957 -0.06017 0.32707
v -0.01407 -0.10356 0.35888
v -0.01807 -0.10622 0.35494
v -0.02050 -0.13981 0.37065
v -0.01470 -0.10877 0.35039
v -0.01814 -0.14159 0.36746
v -0.00874 -0.10866 0.35213
v -0.01397 -0.14152 0.36868
v -0.00842 -0.10605 0.35775
v -0.01375 -0.13970 0.37262
v -0.01419 -0.10455 0.35949
v -0.01779 -0.13864 0.37383
v -0.01807 -0.10622 0.35494
v -0.02011 -0.13659 0.38848
v -0.01489 -0.11035 0.35157
v -0.01789 -0.13948 0.38612
v -0.00885 -0.10964 0.35285
v -0.01367 -0.13899 0.38702
v -0.00830 -0.10507 0.35702
v -0.01328 -0.13579 0.38994
v -0.01400 -0.10296 0.35831
v -0.01727 -0.13431 0.39084
v -0.00778 -0.05788 0.32428
v -0.01041 -0.08190 0.37750
v -0.01495 -0.06259 0.32203
v -0.01543 -0.08519 0.37592
v -0.01222 -0.07046 0.31897
v -0.01352 -0.09070 0.37378
v -0.00335 -0.07061 0.31934
v -0.00731 -0.09080 0.37404
v -0.00062 -0.06283 0.32262
v -0.00540 -0.08536 0.37634
v -0.01566 -0.08616 0.37551
v -0.01755 -0.11522 0.40999
v -0.01249 -0.09041 0.37228
v -0.01533 -0.11819 0.40772
v -0.00645 -0.08966 0.37351
v -0.01111 -0.11766 0.40859
v -0.00589 -0.08494 0.37752
v -0.01071 -0.11437 0.41139
v -0.01158 -0.08278 0.37875
v -0.01469 -0.11285 0.41225
v -0.01041 -0.08151 0.37576
v -0.01063 -0.08487 0.41448
v -0.01544 -0.08516 0.37556
v -0.01414 -0.08742 0.41435
v -0.01352 -0.09106 0.37530
v -0.01280 -0.09155 0.41416
v -0.00731 -0.09106 0.37534
v -0.00845 -0.09155 0.41419
v -0.00539 -0.08516 0.37562
v -0.00711 -0.08742 0.41438
v -0.00284 -0.01286 0.26223
v -0.00246 -0.01297 0.33297
v -0.01309 -0.02029 0.26261
v -0.00964 -0.01817 0.33324
v -0.00917 -0.03234 0.26312
v -0.00690 -0.02660 0.33360
v 0.00350 -0.03234 0.26305
v 0.00197 -0.02661 0.33355
v 0.00742 -0.02030 0.26250
v 0.00472 -0.01818 0.33317
v -0.00246 -0.01337 0.33577
v -0.00454 -0.03287 0.38523
v -0.00963 -0.01821 0.33380
v -0.00956 -0.03626 0.38385
v -0.00689 -0.02622 0.33115
v -0.00765 -0.04187 0.38199
v 0.00197 -0.02633 0.33147
v -0.00144 -0.04195 0.38222
v 0.00471 -0.01839 0.33433
v 0.00048 -0.03639 0.38422
v -0.00979 -0.03724 0.38350
v -0.01036 -0.05532 0.41353
v -0.00668 -0.04195 0.38091
v -0.00818 -0.05862 0.41172
v -0.00062 -0.04102 0.38190
v -0.00394 -0.05797 0.41241
v 0.00002 -0.03573 0.38510
v -0.00350 -0.05426 0.41464
v -0.00565 -0.03340 0.38608
v -0.00747 -0.05263 0.41533
v -0.00454 -0.03261 0.38294
v -0.00400 -0.02963 0.42577
v -0.00957 -0.03624 0.38339
v -0.00751 -0.03216 0.42609
v -0.00765 -0.04211 0.38399
v -0.00617 -0.03627 0.42651
v -0.00144 -0.04212 0.38391
v -0.00182 -0.03628 0.42645
v 0.00048 -0.03625 0.38326
v -0.00048 -0.03217 0.42600
v -0.00246 -0.01370 0.33006
v 0.00022 0.00662 0.37788
v -0.00963 -0.01824 0.33264
v -0.00479 0.00344 0.37969
v -0.00689 -0.02592 0.33614
v -0.00288 -0.00193 0.38214
v 0.00197 -0.02611 0.33573
v 0.00332 -0.00207 0.38186
v 0.00471 -0.01856 0.33197
v 0.00524 0.00321 0.37922
v 0.00022 0.00706 0.37926
v 0.00091 0.01126 0.41288
v -0.00480 0.00348 0.37998
v -0.00260 0.00876 0.41339
v -0.00288 -0.00235 0.38095
v -0.00126 0.00468 0.41407
v 0.00333 -0.00237 0.38082
v 0.00309 0.00466 0.41398
v 0.00524 0.00344 0.37978
v 0.00443 0.00873 0.41325
v 0.00547 0.00122 0.38016
v 0.00699 0.02722 0.40683
v 0.00227 0.00523 0.37665
v 0.00475 0.03003 0.40438
v -0.00376 0.00457 0.37799
v 0.00053 0.02956 0.40532
v -0.00429 0.00015 0.38233
v 0.00016 0.02647 0.40835
v 0.00141 -0.00191 0.38367
v 0.00415 0.02503 0.40929
v 0.00000 0.01483 0.15584
v 0.00401 0.04379 0.27623
v -0.01464 0.00471 0.15917
v -0.00624 0.03670 0.27856
v -0.00905 -0.01192 0.16365
v -0.00232 0.02506 0.28169
v 0.00905 -0.01208 0.16308
v 0.01034 0.02495 0.28130
v 0.01464 0.00445 0.15826
v 0.01426 0.03652 0.27792
v 0.00401 0.04418 0.27872
v 0.00449 0.04496 0.38174
v -0.00624 0.03674 0.27906
v -0.00269 0.03976 0.38198
v -0.00233 0.02469 0.27951
v 0.00006 0.03132 0.38229
v 0.01035 0.02469 0.27945
v 0.00893 0.03132 0.38225
v 0.01426 0.03673 0.27896
v 0.01167 0.03975 0.38191
v 0.00449 0.04475 0.38382
v 0.00241 0.02525 0.45415
v -0.00268 0.03974 0.38239
v -0.00261 0.02173 0.45315
v 0.00006 0.03152 0.38046
v -0.00069 0.01598 0.45180
v 0.00892 0.03146 0.38071
v 0.00552 0.01594 0.45197
v 0.01166 0.03964 0.38278
v 0.00744 0.02167 0.45342
v -0.00283 0.02074 0.45290
v -0.00455 -0.00687 0.49561
v 0.00029 0.01612 0.45017
v -0.00236 -0.01011 0.49370
v 0.00635 0.01702 0.45121
v 0.00188 -0.00948 0.49443
v 0.00697 0.02219 0.45458
v 0.00231 -0.00586 0.49679
v 0.00130 0.02450 0.45562
v -0.00166 -0.00424 0.49752
v 0.00241 0.02540 0.45291
v 0.00240 0.02368 0.50238
v -0.00261 0.02175 0.45290
v -0.00112 0.02112 0.50237
v -0.00069 0.01584 0.45288
v 0.00022 0.01699 0.50236
v 0.00552 0.01584 0.45289
v 0.00457 0.01699 0.50236
v 0.00744 0.02175 0.45290
v 0.00591 0.02112 0.50237
v 0.00449 0.04436 0.37907
v 0.00808 0.07223 0.45004
v -0.00268 0.03970 0.38143
v 0.00307 0.06897 0.45169
v 0.00006 0.03189 0.38462
v 0.00498 0.06350 0.45393
v 0.00892 0.03173 0.38424
v 0.01119 0.06339 0.45366
v 0.01166 0.03944 0.38081
v 0.01310 0.06878 0.45125
v 0.00808 0.07258 0.45121
v 0.00933 0.08139 0.51111
v 0.00306 0.06900 0.45193
v 0.00581 0.07889 0.51162
v 0.00498 0.06318 0.45291
v 0.00716 0.07481 0.51230
v 0.01119 0.06315 0.45278
v 0.01150 0.07479 0.51221
v 0.01311 0.06897 0.45173
v 0.01285 0.07886 0.51147
v 0.01333 0.06675 0.45211
v 0.01623 0.10423 0.49367
v 0.01015 0.07088 0.44874
v 0.01401 0.10712 0.49131
v 0.00412 0.07017 0.45003
v 0.00978 0.10662 0.49221
v 0.00357 0.06560 0.45419
v 0.00940 0.10342 0.49512
v 0.00926 0.06348 0.45548
v 0.01338 0.10194 0.49602
v 0.01471 0.03212 0.27914
v 0.01684 0.07701 0.34615
v 0.00833 0.04147 0.27344
v 0.01238 0.08356 0.34216
v -0.00402 0.03967 0.27561
v 0.00373 0.08230 0.34368
v -0.00528 0.02922 0.28266
v 0.00285 0.07498 0.34861
v 0.00630 0.02455 0.28484
v 0.01095 0.07171 0.35014
v 0.00935 0.08527 0.34445
v 0.01090 0.09602 0.40106
v 0.00218 0.08023 0.34581
v 0.00588 0.09249 0.40201
v 0.00492 0.07199 0.34764
v 0.00780 0.08673 0.40329
v 0.01378 0.07194 0.34740
v 0.01401 0.08669 0.40313
v 0.01652 0.08014 0.34543
v 0.01593 0.09243 0.40175
v 0.01090 0.09611 0.40294
v 0.01020 0.08865 0.44739
v 0.00588 0.09250 0.40238
v 0.00668 0.08613 0.44700
v 0.00780 0.08664 0.40164
v 0.00803 0.08203 0.44648
v 0.01401 0.08663 0.40174
v 0.01237 0.08202 0.44655
v 0.01593 0.09248 0.40254
v 0.01371 0.08611 0.44711
v 0.01615 0.09024 0.40225
v 0.01761 0.11569 0.43693
v 0.01301 0.09470 0.39928
v 0.01541 0.11881 0.43485
v 0.00696 0.09387 0.40041
v 0.01117 0.11822 0.43565
v 0.00636 0.08889 0.40409
v 0.01076 0.11474 0.43822
v 0.01204 0.08665 0.40522
v 0.01473 0.11318 0.43901
v 0.01684 0.07701 0.34615
v 0.01944 0.11763 0.38664
v 0.01227 0.08266 0.34106
v 0.01623 0.12159 0.38308
v 0.00366 0.08175 0.34300
v 0.01021 0.12095 0.38444
v 0.00292 0.07553 0.34929
v 0.00969 0.11659 0.38884
v 0.01106 0.07261 0.35123
v 0.01539 0.11455 0.39020
v 0.01944 0.11763 0.38664
v 0.02087 0.14287 0.42660
v 0.01632 0.12228 0.38396
v 0.01869 0.14613 0.42472
v 0.01026 0.12138 0.38498
v 0.01445 0.14549 0.42544
v 0.00964 0.11616 0.38830
v 0.01401 0.14184 0.42776
v 0.01531 0.11385 0.38932
v 0.01798 0.14022 0.42848
v 0.01944 0.11763 0.38664
v 0.02212 0.15330 0.41179
v 0.01616 0.12094 0.38253
v 0.01982 0.15561 0.40891
v 0.01016 0.12054 0.38410
v 0.01563 0.15534 0.41001
v 0.00974 0.11700 0.38918
v 0.01533 0.15286 0.41356
v 0.01547 0.11520 0.39075
v 0.01934 0.15160 0.41466
vn 0.18496 -0.98191 -0.04050
vn -0.28952 -0.95636 -0.03945
vn 0.99101 -0.12752 -0.04050
vn 0.82009 -0.57088 -0.03945
vn 0.42752 0.90310 -0.04050
vn 0.79636 0.60354 -0.03945
vn -0.72679 0.68567 -0.04050
vn -0.32791 0.94388 -0.03945
vn -0.87670 -0.47933 -0.04050
vn -0.99902 -0.02019 -0.03945
vn 0.18603 -0.94829 -0.25717
vn -0.28825 -0.92079 -0.26278
vn 0.99170 -0.12060 -0.04453
vn 0.82084 -0.55184 -0.14730
vn 0.42848 0.88708 0.17172
vn 0.79712 0.59271 0.11533
vn -0.72529 0.68217 0.09273
vn -0.32663 0.93114 0.16216
vn -0.87513 -0.45216 -0.17233
vn -0.99743 -0.00426 -0.07153
vn 0.99579 0.05824 0.07075
vn 0.92421 -0.32395 -0.20223
vn 0.22602 0.81335 0.53608
vn 0.64945 0.62134 0.43835
vn -0.85191 0.47940 0.21078
vn -0.51874 0.74201 0.42465
vn -0.74833 -0.48210 -0.45560
vn -0.96596 -0.12870 -0.22440
vn 0.39361 -0.74239 -0.54215
vn -0.07417 -0.78750 -0.61183
vn 0.99242 0.02911 0.11939
vn 0.93185 -0.26119 -0.25186
vn 0.20377 0.62783 0.75120
vn 0.63121 0.46880 0.61789
vn -0.86116 0.40323 0.30952
vn -0.53656 0.59410 0.59929
vn -0.73068 -0.33429 -0.59527
vn -0.95765 -0.05846 -0.28195
vn 0.41489 -0.56551 -0.71278
vn -0.05012 -0.58705 -0.80800
vn 0.98871 -0.00160 0.14985
vn 0.93931 -0.19882 -0.27959
vn 0.18108 0.43874 0.88018
vn 0.61252 0.31315 0.72578
vn -0.87054 0.32486 0.36963
vn -0.55466 0.44310 0.70428
vn -0.71285 -0.18586 -0.67624
vn -0.94923 0.01145 -0.31437
vn 0.43623 -0.38762 -0.81207
vn -0.02590 -0.38528 -0.92244
vn 0.99422 0.04201 0.09876
vn 0.92687 -0.30468 -0.21928
vn 0.21691 0.73697 0.64018
vn 0.64203 0.55776 0.52603
vn -0.85637 0.44515 0.26169
vn -0.52637 0.68025 0.51009
vn -0.74237 -0.43018 -0.51365
vn -0.96364 -0.10648 -0.24507
vn 0.40136 -0.67933 -0.61435
vn -0.06549 -0.71521 -0.69584
vn 0.18650 -0.89891 -0.39646
vn -0.28758 -0.86756 -0.40575
vn 0.99181 -0.12068 -0.04179
vn 0.82100 -0.52907 -0.21459
vn 0.42884 0.84407 0.32193
vn 0.79729 0.55981 0.22569
vn -0.72440 0.66208 0.19205
vn -0.32594 0.89428 0.30664
vn -0.87418 -0.41513 -0.25194
vn -0.99642 0.01211 -0.08361
vn 0.99464 0.04548 0.09289
vn 0.92596 -0.31224 -0.21239
vn 0.21957 0.75921 0.61268
vn 0.64422 0.57604 0.50314
vn -0.85527 0.45427 0.24931
vn -0.52424 0.69799 0.48784
vn -0.74450 -0.44793 -0.49506
vn -0.96465 -0.11493 -0.23715
vn 0.39881 -0.70057 -0.59173
vn -0.06838 -0.73928 -0.66992
vn 0.18518 -0.97913 -0.08379
vn -0.28930 -0.95353 -0.08418
vn 0.99123 -0.12581 -0.04042
vn 0.82030 -0.56872 -0.06053
vn 0.42774 0.90389 0.00350
vn 0.79657 0.60450 -0.00710
vn -0.72657 0.68698 -0.01272
vn -0.32770 0.94478 0.00227
vn -0.87648 -0.47679 -0.06668
vn -0.99881 -0.01814 -0.04536
vn 0.18468 -0.98280 -0.00253
vn -0.28969 -0.95712 0.00002
vn 0.99057 -0.12959 -0.04449
vn 0.81970 -0.57234 -0.02286
vn 0.42720 0.89996 -0.08699
vn 0.79597 0.60073 -0.07456
vn -0.72688 0.68306 -0.07129
vn -0.32808 0.94094 -0.08363
vn -0.87676 -0.48055 -0.01909
vn -0.99906 -0.02186 -0.03754
vn 0.18644 -0.91663 -0.35359
vn -0.28768 -0.88677 -0.36178
vn 0.99183 -0.11955 -0.04447
vn 0.82101 -0.53669 -0.19468
vn 0.42881 0.86162 0.27153
vn 0.79730 0.57346 0.18831
vn -0.72455 0.67094 0.15770
vn -0.32605 0.90949 0.25791
vn -0.87434 -0.42808 -0.22864
vn -0.99660 0.00703 -0.08207
vn 0.99637 0.06316 0.05707
vn 0.92248 -0.33825 -0.18606
vn 0.23054 0.85104 0.47179
vn 0.65314 0.65215 0.38484
vn -0.85012 0.49418 0.18187
vn -0.51515 0.77186 0.37263
vn -0.75218 -0.51425 -0.41203
vn -0.96785 -0.14457 -0.20582
vn 0.38901 -0.78064 -0.48916
vn -0.07935 -0.83065 -0.55111
vn 0.18451 -0.98061 0.06603
vn -0.28999 -0.95445 0.07028
vn 0.99063 -0.13202 -0.03507
vn 0.81970 -0.57260 0.01519
vn 0.42709 0.89369 -0.13754
vn 0.79596 0.59537 -0.10942
vn -0.72731 0.67902 -0.09976
vn -0.32839 0.93537 -0.13135
vn -0.87723 -0.47936 0.02605
vn -0.99954 -0.02248 -0.02029
vn 0.18249 -0.90859 0.37571
vn -0.29125 -0.87452 0.38781
vn 0.98739 -0.15550 -0.02978
vn 0.81677 -0.55131 0.17012
vn 0.42470 0.78708 -0.44736
vn 0.79308 0.50903 -0.33454
vn -0.72796 0.61652 -0.29997
vn -0.32959 0.84116 -0.42874
vn -0.87766 -0.43146 0.20872
vn -0.99975 -0.01392 0.01769
vn 0.18393 -0.97580 0.11821
vn -0.29030 -0.94879 0.12459
vn 0.98963 -0.13690 -0.04350
vn 0.81882 -0.57288 0.03661
vn 0.42639 0.88038 -0.20765
vn 0.79510 0.58420 -0.16289
vn -0.72740 0.67020 -0.14739
vn -0.32868 0.92341 -0.19822
vn -0.87725 -0.47699 0.05400
vn -0.99950 -0.02403 -0.02054
vn -0.99412 -0.04347 0.09916
vn -0.92818 0.29160 -0.23119
vn -0.21464 -0.71838 0.66171
vn -0.64014 -0.54328 0.54320
vn 0.85667 -0.44052 0.26845
vn 0.52788 -0.66633 0.52664
vn 0.73929 0.40612 -0.53714
vn 0.96171 0.09250 -0.25799
vn -0.40456 0.65151 -0.64177
vn 0.06181 0.68453 -0.72636
vn 0.18370 -0.95709 0.22411
vn -0.29056 -0.92808 0.23292
vn 0.98945 -0.14136 -0.03174
vn 0.81862 -0.56656 0.09423
vn 0.42617 0.85606 -0.29246
vn 0.79490 0.56461 -0.22216
vn -0.72770 0.65677 -0.19776
vn -0.32894 0.90220 -0.27900
vn -0.87756 -0.46382 0.12150
vn -0.99979 -0.02034 0.00225
vn 0.18487 -0.98274 0.00664
vn -0.28975 -0.95706 0.00866
vn 0.99119 -0.12886 -0.03049
vn 0.82021 -0.57195 -0.01158
vn 0.42752 0.90144 -0.06808
vn 0.79647 0.60196 -0.05731
vn -0.72717 0.68431 -0.05419
vn -0.32816 0.94236 -0.06533
vn -0.87714 -0.48017 -0.00801
vn -0.99947 -0.02117 -0.02456
vn 0.18581 -0.94823 -0.25755
vn -0.28865 -0.92036 -0.26384
vn 0.99183 -0.12339 -0.03245
vn 0.82088 -0.55326 -0.14164
vn 0.42837 0.88196 0.19661
vn 0.79715 0.58816 0.13647
vn -0.72588 0.67846 0.11307
vn -0.32705 0.92649 0.18616
vn -0.87579 -0.45266 -0.16762
vn -0.99811 -0.00583 -0.06124
vn 0.99575 0.05373 0.07477
vn 0.92282 -0.33938 -0.18229
vn 0.22782 0.82784 0.51262
vn 0.65100 0.63200 0.42044
vn -0.85221 0.48070 0.20654
vn -0.51781 0.75218 0.40755
vn -0.75179 -0.50795 -0.42049
vn -0.96836 -0.14492 -0.20315
vn 0.39032 -0.77183 -0.50192
vn -0.07801 -0.81954 -0.56769
vn 0.18503 -0.98214 -0.03412
vn -0.28959 -0.95657 -0.03339
vn 0.99134 -0.12748 -0.03149
vn 0.82035 -0.57097 -0.03195
vn 0.42767 0.90348 -0.02882
vn 0.79661 0.60381 -0.02871
vn -0.72701 0.68598 -0.02981
vn -0.32800 0.94426 -0.02814
vn -0.87697 -0.47940 -0.03308
vn -0.99932 -0.02011 -0.03103
vn 0.18345 -0.91813 0.35125
vn -0.29064 -0.88552 0.36246
vn 0.98893 -0.14711 -0.01958
vn 0.81815 -0.55147 0.16282
vn 0.42584 0.81141 -0.40035
vn 0.79443 0.52930 -0.29786
vn -0.72764 0.63277 -0.26485
vn -0.32901 0.86320 -0.38294
vn -0.87745 -0.43614 0.19967
vn -0.99962 -0.01121 0.02515
vn 0.18448 -0.97292 0.13928
vn -0.29010 -0.94592 0.14517
vn 0.99076 -0.13360 -0.02355
vn 0.81978 -0.56988 0.05659
vn 0.42711 0.88426 -0.18884
vn 0.79604 0.58779 -0.14429
vn -0.72752 0.67401 -0.12816
vn -0.32851 0.92722 -0.17986
vn -0.87747 -0.47379 0.07462
vn -0.99979 -0.02067 -0.00096
vn -0.99392 -0.03776 0.10346
vn -0.92650 0.30931 -0.21430
vn -0.21652 -0.73358 0.64419
vn -0.64172 -0.55429 0.53005
vn 0.85703 -0.44119 0.26618
vn 0.52691 -0.67678 0.51414
vn 0.74313 0.43534 -0.50818
vn 0.96438 0.11111 -0.24005
vn -0.40082 0.68467 -0.60874
vn 0.06613 0.72055 -0.69025
vn -0.99589 -0.05739 0.07010
vn -0.92346 0.33170 -0.19287
vn -0.22737 -0.82441 0.51831
vn -0.65059 -0.62996 0.42412
vn 0.85176 -0.48218 0.20498
vn 0.51786 -0.75031 0.41092
vn 0.75018 0.49636 -0.43687
vn 0.96713 0.13698 -0.21422
vn -0.39172 0.75889 -0.52023
vn 0.07635 0.80570 -0.58739
vn 0.18386 -0.96660 0.17854
vn -0.29045 -0.93859 0.18625
vn 0.98968 -0.13897 -0.03496
vn 0.81883 -0.56971 0.07030
vn 0.42636 0.86872 -0.25209
vn 0.79511 0.57480 -0.19339
vn -0.72762 0.66386 -0.17279
vn -0.32883 0.91327 -0.24042
vn -0.87749 -0.47043 0.09335
vn -0.99974 -0.02206 -0.00579
vn 0.18552 -0.96958 -0.15967
vn -0.28901 -0.94338 -0.16282
vn 0.99165 -0.12398 -0.03551
vn 0.82069 -0.56339 -0.09520
vn 0.42811 0.89920 0.09040
vn 0.79696 0.60126 0.05788
vn -0.72632 0.68595 0.04405
vn -0.32741 0.94106 0.08488
vn -0.87625 -0.46902 -0.11051
vn -0.99858 -0.01358 -0.05152
vn -0.99540 -0.05234 0.08023
vn -0.92436 0.32510 -0.19967
vn -0.22441 -0.79960 0.55703
vn -0.64818 -0.60934 0.45668
vn 0.85318 -0.47120 0.22371
vn 0.52033 -0.73029 0.44264
vn 0.74819 0.47902 -0.45909
vn 0.96633 0.12940 -0.22238
vn -0.39430 0.73789 -0.54776
vn 0.07347 0.78167 -0.61935
vn -0.99381 -0.03989 0.10367
vn -0.92845 0.29033 -0.23173
vn -0.21325 -0.70665 0.67466
vn -0.63901 -0.53331 0.55430
vn 0.85750 -0.43451 0.27550
vn 0.52911 -0.65662 0.53749
vn 0.73869 0.40045 -0.54220
vn 0.96162 0.09082 -0.25893
vn -0.40548 0.64434 -0.64839
vn 0.06080 0.67607 -0.73433
vn -0.99592 -0.05576 0.07092
vn -0.92266 0.34010 -0.18173
vn -0.22861 -0.83449 0.50136
vn -0.65164 -0.63765 0.41081
vn 0.85174 -0.48411 0.20045
vn 0.51711 -0.75769 0.39814
vn 0.75212 0.51116 -0.41596
vn 0.96841 0.14588 -0.20223
vn -0.38980 0.77590 -0.49602
vn 0.07858 0.82434 -0.56061
vn -0.99125 -0.01761 0.13079
vn -0.93324 0.25125 -0.25678
vn -0.19807 -0.58006 0.79012
vn -0.62653 -0.42880 0.65084
vn 0.86404 -0.38086 0.32920
vn 0.54135 -0.55519 0.63143
vn 0.72728 0.30471 -0.61499
vn 0.95643 0.04675 -0.28818
vn -0.41935 0.52921 -0.73761
vn 0.04508 0.54515 -0.83713
f 1//1 2//2 4//4
f 1//1 4//4 3//3
f 3//3 4//4 6//6
f 3//3 6//6 5//5
f 5//5 6//6 8//8
f 5//5 8//8 7//7
f 7//7 8//8 10//10
f 7//7 10//10 9//9
f 9//9 10//10 2//2
f 9//9 2//2 1//1
f 11//11 12//12 14//14
f 11//11 14//14 13//13
f 13//13 14//14 16//16
f 13//13 16//16 15//15
f 15//15 16//16 18//18
f 15//15 18//18 17//17
f 17//17 18//18 20//20
f 17//17 20//20 19//19
f 19//19 20//20 12//12
f 19//19 12//12 11//11
f 21//21 22//22 24//24
f 21//21 24//24 23//23
f 23//23 24//24 26//26
f 23//23 26//26 25//25
f 25//25 26//26 28//28
f 25//25 28//28 27//27
f 27//27 28//28 30//30
f 27//27 30//30 29//29
f 29//29 30//30 22//22
f 29//29 22//22 21//21
f 31//31 32//32 34//34
f 31//31 34//34 33//33
f 33//33 34//34 36//36
f 33//33 36//36 35//35
f 35//35 36//36 38//38
f 35//35 38//38 37//37
f 37//37 38//38 40//40
f 37//37 40//40 39//39
f 39//39 40//40 32//32
f 39//39 32//32 31//31
f 41//41 42//42 44//44
f 41//41 44//44 43//43
f 43//43 44//44 46//46
f 43//43 46//46 45//45
f 45//45 46//46 48//48
f 45//45 48//48 47//47
f 47//47 48//48 50//50
f 47//47 50//50 49//49
f 49//49 50//50 42//42
f 49//49 42//42 41//41
f 51//51 52//52 54//54
f 51//51 54//54 53//53
f 53//53 54//54 56//56
f 53//53 56//56 55//55
f 55//55 56//56 58//58
f 55//55 58//58 57//57
f 57//57 58//58 60//60
f 57//57 60//60 59//59
f 59//59 60//60 52//52
f 59//59 52//52 51//51
f 61//61 62//62 64//64
f 61//61 64//64 63//63
f 63//63 64//64 66//66
f 63//63 66//66 65//65
f 65//65 66//66 68//68
f 65//65 68//68 67//67
f 67//67 68//68 70//70
f 67//67 70//70 69//69
f 69//69 70//70 62//62
f 69//69 62//62 61//61
f 71//71 72//72 74//74
f 71//71 74//74 73//73
f 73//73 74//74 76//76
f 73//73 76//76 75//75
f 75//75 76//76 78//78
f 75//75 78//78 77//77
f 77//77 78//78 80//80
f 77//77 80//80 79//79
f 79//79 80//80 72//72
f 79//79 72//72 71//71
f 81//81 82//82 84//84
f 81//81 84//84 83//83
f 83//83 84//84 86//86
f 83//83 86//86 85//85
f 85//85 86//86 88//88
f 85//85 88//88 87//87
f 87//87 88//88 90//90
f 87//87 90//90 89//89
f 89//89 90//90 82//82
f 89//89 82//82 81//81
f 91//91 92//92 94//94
f 91//91 94//94 93//93
f 93//93 94//94 96//96
f 93//93 96//96 95//95
f 95//95 96//96 98//98
f 95//95 98//98 97//97
f 97//97 98//98 100//100
f 97//97 100//100 99//99
f 99//99 100//100 92//92
f 99//99 92//92 91//91
f 101//101 102//102 104//104
f 101//101 104//104 103//103
f 103//103 104//104 106//106
f 103//103 106//106 105//105
f 105//105 106//106 108//108
f 105//105 108//108 107//107
f 107//107 108//108 110//110
f 107//107 110//110 109//109
f 109//109 110//110 102//102
f 109//109 102//102 101//101
f 111//111 112//112 114//114
f 111//111 114//114 113//113
f 113//113 114//114 116//116
f 113//113 116//116 115//115
f 115//115 116//116 118//118
f 115//115 118//118 117//117
f 117//117 118//118 120//120
f 117//117 120//120 119//119
f 119//119 120//120 112//112
f 119//119 112//112 111//111
f 121//121 122//122 124//124
f 121//121 124//124 123//123
f 123//123 124//124 126//126
f 123//123 126//126 125//125
f 125//125 126//126 128//128
f 125//125 128//128 127//127
f 127//127 128//128 130//130
f 127//127 130//130 129//129
f 129//129 130//130 122//122
f 129//129 122//122 121//121
f 131//131 132//132 134//134
f 131//131 134//134 133//133
f 133//133 134//134 136//136
f 133//133 136//136 135//135
f 135//135 136//136 138//138
f 135//135 138//138 137//137
f 137//137 138//138 140//140
f 137//137 140//140 139//139
f 139//139 140//140 132//132
f 139//139 132//132 131//131
f 141//141 142//142 144//144
f 141//141 144//144 143//143
f 143//143 144//144 146//146
f 143//143 146//146 145//145
f 145//145 146//146 148//148
f 145//145 148//148 147//147
f 147//147 148//148 150//150
f 147//147 150//150 149//149
f 149//149 150//150 142//142
f 149//149 142//142 141//141
f 151//151 152//152 154//154
f 151//151 154//154 153//153
f 153//153 154//154 156//156
f 153//153 156//156 155//155
f 155//155 156//156 158//158
f 155//155 158//158 157//157
f 157//157 158//158 160//160
f 157//157 160//160 159//159
f 159//159 160//160 152//152
f 159//159 152//152 151//151
f 161//161 162//162 164//164
f 161//161 164//164 163//163
f 163//163 164//164 166//166
f 163//163 166//166 165//165
f 165//165 166//166 168//168
f 165//165 168//168 167//167
f 167//167 168//168 170//170
f 167//167 170//170 169//169
f 169//169 170//170 162//162
f 169//169 162//162 161//161
f 171//171 172//172 174//174
f 171//171 174//174 173//173
f 173//173 174//174 176//176
f 173//173 176//176 175//175
f 175//175 176//176 178//178
f 175//175 178//178 177//177
f 177//177 178//178 180//180
f 177//177 180//180 179//179
f 179//179 180//180 172//172
f 179//179 172//172 171//171
f 181//181 182//182 184//184
f 181//181 184//184 183//183
f 183//183 184//184 186//186
f 183//183 186//186 185//185
f 185//185 186//186 188//188
f 185//185 188//188 187//187
f 187//187 188//188 190//190
f 187//187 190//190 189//189
f 189//189 190//190 182//182
f 189//189 182//182 181//181
f 191//191 192//192 194//194
f 191//191 194//194 193//193
f 193//193 194//194 196//196
f 193//193 196//196 195//195
f 195//195 196//196 198//198
f 195//195 198//198 197//197
f 197//197 198//198 200//200
f 197//197 200//200 199//199
f 199//199 200//200 192//192
f 199//199 192//192 191//191
f 201//201 202//202 204//204
f 201//201 204//204 203//203
f 203//203 204//204 206//206
f 203//203 206//206 205//205
f 205//205 206//206 208//208
f 205//205 208//208 207//207
f 207//207 208//208 210//210
f 207//207 210//210 209//209
f 209//209 210//210 202//202
f 209//209 202//202 201//201
f 211//211 212//212 214//214
f 211//211 214//214 213//213
f 213//213 214//214 216//216
f 213//213 216//216 215//215
f 215//215 216//216 218//218
f 215//215 218//218 217//217
f 217//217 218//218 220//220
f 217//217 220//220 219//219
f 219//219 220//220 212//212
f 219//219 212//212 211//211
f 221//221 222//222 224//224
f 221//221 224//224 223//223
f 223//223 224//224 226//226
f 223//223 226//226 225//225
f 225//225 226//226 228//228
f 225//225 228//228 227//227
f 227//227 228//228 230//230
f 227//227 230//230 229//229
f 229//229 230//230 222//222
f 229//229 222//222 221//221
f 231//231 232//232 234//234
f 231//231 234//234 233//233
f 233//233 234//234 236//236
f 233//233 236//236 235//235
f 235//235 236//236 238//238
f 235//235 238//238 237//237
f 237//237 238//238 240//240
f 237//237 240//240 239//239
f 239//239 240//240 232//232
f 239//239 232//232 231//231
f 241//241 242//242 244//244
f 241//241 244//244 243//243
f 243//243 244//244 246//246
f 243//243 246//246 245//245
f 245//245 246//246 248//248
f 245//245 248//248 247//247
f 247//247 248//248 250//250
f 247//247 250//250 249//249
f 249//249 250//250 242//242
f 249//249 242//242 241//241
f 251//251 252//252 254//254
f 251//251 254//254 253//253
f 253//253 254//254 256//256
f 253//253 256//256 255//255
f 255//255 256//256 258//258
f 255//255 258//258 257//257
f 257//257 258//258 260//260
f 257//257 260//260 259//259
f 259//259 260//260 252//252
f 259//259 252//252 251//251
f 261//261 262//262 264//264
f 261//261 264//264 263//263
f 263//263 264//264 266//266
f 263//263 266//266 265//265
f 265//265 266//266 268//268
f 265//265 268//268 267//267
f 267//267 268//268 270//270
f 267//267 270//270 269//269
f 269//269 270//270 262//262
f 269//269 262//262 261//261
f 271//271 272//272 274//274
f 271//271 274//274 273//273
f 273//273 274//274 276//276
f 273//273 276//276 275//275
f 275//275 276//276 278//278
f 275//275 278//278 277//277
f 277//277 278//278 280//280
f 277//277 280//280 279//279
f 279//279 280//280 272//272
f 279//279 272//272 271//271
f 281//281 282//282 284//284
f 281//281 284//284 283//283
f 283//283 284//284 286//286
f 283//283 286//286 285//285
f 285//285 286//286 288//288
f 285//285 288//288 287//287
f 287//287 288//288 290//290
f 287//287 290//290 289//289
f 289//289 290//290 282//282
f 289//289 282//282 281//281
f 291//291 292//292 294//294
f 291//291 294//294 293//293
f 293//293 294//294 296//296
f 293//293 296//296 295//295
f 295//295 296//296 298//298
f 295//295 298//298 297//297
f 297//297 298//298 300//300
f 297//297 300//300 299//299
f 299//299 300//300 292//292
f 299//299 292//292 291//291
f 301//301 302//302 304//304
f 301//301 304//304 303//303
f 303//303 304//304 306//306
f 303//303 306//306 305//305
f 305//305 306//306 308//308
f 305//305 308//308 307//307
f 307//307 308//308 310//310
f 307//307 310//310 309//309
f 309//309 310//310 302//302
f 309//309 302//302 301//301
