# generated by scripts/make_scenery.py
v 0.00000 0.02200 0.00000
v 0.00000 0.01540 0.16000
v -0.02092 0.00680 0.00000
v -0.01465 0.00476 0.16000
v -0.01293 -0.01780 0.00000
v -0.00905 -0.01246 0.16000
v 0.01293 -0.01780 0.00000
v 0.00905 -0.01246 0.16000
v 0.02092 0.00680 0.00000
v 0.01465 0.00476 0.16000
v 0.00000 0.01430 0.16571
v -0.00596 -0.03965 0.28829
v -0.01463 0.00466 0.16116
v -0.01620 -0.04640 0.28510
v -0.00904 -0.01142 0.15500
v -0.01229 -0.05766 0.28079
v 0.00904 -0.01172 0.15575
v 0.00037 -0.05786 0.28131
v 0.01463 0.00418 0.16237
v 0.00428 -0.04674 0.28594
v -0.01666 -0.04838 0.28429
v -0.02133 -0.11438 0.37218
v -0.01024 -0.05740 0.27812
v -0.01683 -0.12070 0.36787
v 0.00210 -0.05573 0.28048
v -0.00820 -0.11953 0.36951
v 0.00330 -0.04567 0.28809
v -0.00735 -0.11249 0.37484
v -0.00829 -0.04113 0.29045
v -0.01547 -0.10931 0.37649
v -0.02133 -0.11438 0.37218
v -0.02609 -0.17311 0.41905
v -0.01668 -0.11944 0.36656
v -0.02284 -0.17665 0.41511
v -0.00810 -0.11875 0.36871
v -0.01684 -0.17617 0.41662
v -0.00744 -0.11327 0.37565
v -0.01638 -0.17233 0.42147
v -0.01562 -0.11057 0.37779
v -0.02210 -0.17044 0.42298
v -0.02609 -0.17311 0.41905
v -0.02985 -0.21773 0.44010
v -0.02272 -0.17567 0.41450
v -0.02749 -0.21952 0.43692
v -0.01676 -0.17556 0.41624
v -0.02332 -0.21944 0.43813
v -0.01645 -0.17294 0.42185
v -0.02310 -0.21760 0.44207
v -0.02221 -0.17142 0.42359
v -0.02714 -0.21654 0.44328
v -0.02609 -0.17311 0.41905
v -0.02891 -0.20991 0.46089
v -0.02292 -0.17729 0.41572
v -0.02669 -0.21283 0.45857
v -0.01688 -0.17656 0.41699
v -0.02247 -0.21233 0.45946
v -0.01633 -0.17194 0.42110
v -0.02208 -0.20909 0.46233
v -0.02202 -0.16981 0.42237
v -0.02606 -0.20759 0.46322
v -0.01383 -0.10821 0.37481
v -0.01774 -0.14286 0.46151
v -0.02100 -0.11299 0.37271
v -0.02276 -0.14621 0.46004
v -0.01827 -0.12094 0.36988
v -0.02084 -0.15177 0.45806
v -0.00940 -0.12107 0.37023
v -0.01464 -0.15186 0.45830
v -0.00666 -0.11320 0.37327
v -0.01272 -0.14636 0.46043
v -0.02298 -0.14718 0.45967
v -0.02607 -0.18625 0.51988
v -0.01986 -0.15180 0.45693
v -0.02389 -0.18948 0.51797
v -0.01380 -0.15091 0.45798
v -0.01965 -0.18886 0.51870
v -0.01318 -0.14574 0.46136
v -0.01922 -0.18524 0.52107
v -0.01886 -0.14344 0.46241
v -0.02319 -0.18363 0.52180
v -0.01774 -0.14254 0.45999
v -0.01823 -0.14824 0.52816
v -0.02276 -0.14618 0.45973
v -0.02175 -0.15079 0.52798
v -0.02084 -0.15208 0.45939
v -0.02041 -0.15492 0.52775
v -0.01463 -0.15208 0.45943
v -0.01606 -0.15492 0.52778
v -0.01271 -0.14619 0.45980
v -0.01472 -0.15080 0.52804
v -0.00596 -0.03888 0.28458
v -0.00629 -0.04490 0.38627
v -0.01621 -0.04633 0.28434
v -0.01347 -0.05011 0.38610
v -0.01230 -0.05838 0.28403
v -0.01073 -0.05854 0.38588
v 0.00038 -0.05838 0.28407
v -0.00186 -0.05854 0.38591
v 0.00429 -0.04633 0.28441
v 0.00088 -0.05011 0.38615
v -0.00629 -0.04553 0.38908
v -0.01009 -0.07922 0.46056
v -0.01346 -0.05017 0.38668
v -0.01511 -0.08247 0.45887
v -0.01072 -0.05795 0.38342
v -0.01319 -0.08792 0.45659
v -0.00186 -0.05812 0.38381
v -0.00699 -0.08804 0.45687
v 0.00088 -0.05044 0.38731
v -0.00507 -0.08266 0.45932
v -0.01533 -0.08343 0.45844
v -0.01800 -0.11893 0.50825
v -0.01220 -0.08793 0.45552
v -0.01580 -0.12208 0.50621
v -0.00615 -0.08708 0.45664
v -0.01157 -0.12148 0.50699
v -0.00554 -0.08206 0.46025
v -0.01114 -0.11797 0.50951
v -0.01122 -0.07981 0.46136
v -0.01512 -0.11639 0.51029
v -0.01009 -0.07878 0.45845
v -0.01010 -0.08043 0.52546
v -0.01511 -0.08243 0.45844
v -0.01361 -0.08299 0.52546
v -0.01319 -0.08834 0.45844
v -0.01227 -0.08712 0.52546
v -0.00698 -0.08834 0.45844
v -0.00792 -0.08712 0.52546
v -0.00506 -0.08243 0.45844
v -0.00658 -0.08299 0.52546
v -0.00629 -0.04513 0.38417
v -0.00404 -0.02856 0.45751
v -0.01347 -0.05013 0.38569
v -0.00906 -0.03205 0.45856
v -0.01073 -0.05832 0.38771
v -0.00714 -0.03779 0.45998
v -0.00186 -0.05838 0.38746
v -0.00094 -0.03783 0.45980
v 0.00088 -0.05024 0.38527
v 0.00098 -0.03213 0.45827
v -0.00404 -0.02841 0.45932
v -0.00462 -0.03481 0.51093
v -0.00906 -0.03204 0.45892
v -0.00814 -0.03735 0.51065
v -0.00715 -0.03792 0.45840
v -0.00679 -0.04147 0.51028
v -0.00094 -0.03793 0.45846
v -0.00245 -0.04147 0.51033
v 0.00098 -0.03205 0.45903
v -0.00110 -0.03736 0.51073
v 0.00120 -0.03430 0.45883
v 0.00275 -0.00811 0.50294
v -0.00191 -0.02958 0.45626
v 0.00057 -0.00480 0.50115
v -0.00797 -0.03051 0.45724
v -0.00367 -0.00546 0.50183
v -0.00860 -0.03581 0.46041
v -0.00411 -0.00917 0.50405
v -0.00293 -0.03816 0.46139
v -0.00015 -0.01081 0.50474
v 0.00000 0.01467 0.15532
v 0.00421 0.04532 0.26649
v -0.01464 0.00470 0.15906
v -0.00604 0.03834 0.26911
v -0.00905 -0.01177 0.16410
v -0.00213 0.02681 0.27264
v 0.00905 -0.01197 0.16348
v 0.01054 0.02667 0.27220
v 0.01464 0.00437 0.15804
v 0.01445 0.03811 0.26840
v 0.00421 0.04577 0.27087
v 0.00301 0.03260 0.36752
v -0.00605 0.03838 0.26999
v -0.00417 0.02742 0.36690
v -0.00213 0.02638 0.26880
v -0.00142 0.01902 0.36607
v 0.01054 0.02637 0.26896
v 0.00745 0.01901 0.36618
v 0.01446 0.03835 0.27024
v 0.01019 0.02740 0.36707
v -0.00448 0.02599 0.36675
v -0.00575 -0.00359 0.42477
v -0.00007 0.01902 0.36349
v -0.00266 -0.00847 0.42249
v 0.00860 0.02044 0.36474
v 0.00341 -0.00747 0.42336
v 0.00954 0.02829 0.36876
v 0.00407 -0.00198 0.42618
v 0.00146 0.03172 0.37000
v -0.00159 0.00042 0.42705
v -0.00575 -0.00359 0.42477
v -0.00823 -0.03756 0.46042
v -0.00256 -0.00763 0.42130
v -0.00600 -0.04039 0.45799
v 0.00347 -0.00696 0.42263
v -0.00178 -0.03991 0.45892
v 0.00400 -0.00250 0.42692
v -0.00140 -0.03679 0.46192
v -0.00169 -0.00042 0.42824
v -0.00539 -0.03534 0.46285
v -0.00051 0.00102 0.42546
v -0.00124 -0.00665 0.47160
v -0.00553 -0.00259 0.42491
v -0.00475 -0.00917 0.47121
v -0.00361 -0.00845 0.42417
v -0.00341 -0.01327 0.47069
v 0.00260 -0.00846 0.42426
v 0.00094 -0.01328 0.47076
v 0.00452 -0.00261 0.42506
v 0.00228 -0.00919 0.47132
v 0.00301 0.03222 0.36428
v 0.00575 0.05289 0.43111
v -0.00416 0.02739 0.36625
v 0.00073 0.04951 0.43249
v -0.00142 0.01938 0.36890
v 0.00265 0.04390 0.43434
v 0.00744 0.01926 0.36857
v 0.00885 0.04382 0.43411
v 0.01018 0.02720 0.36572
v 0.01077 0.04938 0.43212
v 0.00575 0.05318 0.43278
v 0.00582 0.05224 0.49070
v 0.00072 0.04953 0.43282
v 0.00231 0.04968 0.49074
v 0.00264 0.04363 0.43289
v 0.00365 0.04555 0.49078
v 0.00885 0.04363 0.43288
v 0.00800 0.04555 0.49078
v 0.01077 0.04953 0.43281
v 0.00934 0.04968 0.49073
v 0.01099 0.04727 0.43283
v 0.01245 0.07275 0.47297
v 0.00787 0.05192 0.43014
v 0.01027 0.07600 0.47109
v 0.00182 0.05101 0.43117
v 0.00603 0.07537 0.47181
v 0.00119 0.04581 0.43450
v 0.00559 0.07172 0.47414
v 0.00686 0.04349 0.43553
v 0.00956 0.07011 0.47486
v 0.01491 0.03377 0.26977
v 0.01693 0.07772 0.33646
v 0.00853 0.04316 0.26414
v 0.01246 0.08430 0.33251
v -0.00382 0.04134 0.26629
v 0.00381 0.08303 0.33402
v -0.00508 0.03083 0.27325
v 0.00293 0.07567 0.33890
v 0.00649 0.02615 0.27541
v 0.01104 0.07239 0.34040
v 0.00943 0.08567 0.33376
v 0.01224 0.10693 0.39563
v 0.00226 0.08091 0.33591
v 0.00722 0.10360 0.39713
v 0.00500 0.07299 0.33882
v 0.00914 0.09805 0.39917
v 0.01387 0.07285 0.33846
v 0.01534 0.09796 0.39892
v 0.01660 0.08069 0.33534
v 0.01726 0.10344 0.39673
v 0.01224 0.10726 0.39707
v 0.01275 0.10993 0.44729
v 0.00722 0.10363 0.39743
v 0.00923 0.10739 0.44754
v 0.00913 0.09774 0.39791
v 0.01058 0.10327 0.44788
v 0.01534 0.09773 0.39784
v 0.01492 0.10326 0.44784
v 0.01726 0.10362 0.39732
v 0.01627 0.10738 0.44747
v 0.01748 0.10137 0.39751
v 0.01955 0.13187 0.43162
v 0.01431 0.10552 0.39416
v 0.01732 0.13478 0.42927
v 0.00827 0.10480 0.39544
v 0.01310 0.13428 0.43017
v 0.00772 0.10021 0.39958
v 0.01271 0.13106 0.43306
v 0.01341 0.09808 0.40086
v 0.01670 0.12957 0.43396
v 0.01693 0.07772 0.33646
v 0.01938 0.11717 0.37107
v 0.01231 0.08304 0.33106
v 0.01615 0.12089 0.36730
v 0.00372 0.08225 0.33312
v 0.01014 0.12034 0.36874
v 0.00302 0.07645 0.33979
v 0.00965 0.11627 0.37341
v 0.01119 0.07364 0.34185
v 0.01536 0.11431 0.37485
v 0.01938 0.11717 0.37107
v 0.02036 0.13861 0.40662
v 0.01627 0.12187 0.36848
v 0.01818 0.14191 0.40480
v 0.01021 0.12094 0.36947
v 0.01394 0.14126 0.40550
v 0.00958 0.11566 0.37267
v 0.01349 0.13756 0.40774
v 0.01524 0.11333 0.37367
v 0.01746 0.13593 0.40843
v 0.01938 0.11717 0.37107
v 0.02184 0.15095 0.39297
v 0.01608 0.12031 0.36686
v 0.01953 0.15315 0.39002
v 0.01009 0.11998 0.36847
v 0.01534 0.15292 0.39115
v 0.00969 0.11663 0.37368
v 0.01506 0.15057 0.39479
v 0.01543 0.11489 0.37529
v 0.01907 0.14935 0.39592
vn 0.18496 -0.98191 -0.04050
vn -0.28952 -0.95636 -0.03945
vn 0.99101 -0.12752 -0.04050
vn 0.82009 -0.57088 -0.03945
vn 0.42752 0.90310 -0.04050
vn 0.79636 0.60354 -0.03945
vn -0.72679 0.68567 -0.04050
vn -0.32791 0.94388 -0.03945
vn -0.87670 -0.47933 -0.04050
vn -0.99902 -0.02019 -0.03945
vn 0.18632 -0.90254 -0.38821
vn -0.28783 -0.87129 -0.39750
vn 0.99178 -0.12226 -0.03780
vn 0.82094 -0.53156 -0.20859
vn 0.42871 0.84433 0.32142
vn 0.79722 0.55967 0.22629
vn -0.72474 0.66143 0.19303
vn -0.32620 0.89435 0.30616
vn -0.87454 -0.41820 -0.24554
vn -0.99680 0.00997 -0.07937
vn 0.99500 0.04703 0.08812
vn 0.92435 -0.32703 -0.19655
vn 0.22314 0.78877 0.57275
vn 0.64717 0.59978 0.47058
vn -0.85423 0.46428 0.23396
vn -0.52159 0.72092 0.45631
vn -0.74823 -0.47801 -0.46007
vn -0.96674 -0.13102 -0.21964
vn 0.39466 -0.73588 -0.55020
vn -0.07310 -0.77869 -0.62313
vn 0.99178 0.02033 0.12636
vn 0.93109 -0.27071 -0.24452
vn 0.20298 0.62077 0.75726
vn 0.63057 0.46159 0.62395
vn -0.86252 0.39505 0.31622
vn -0.53766 0.58689 0.60538
vn -0.73224 -0.34489 -0.58726
vn -0.95916 -0.06798 -0.27458
vn 0.41378 -0.57648 -0.70460
vn -0.05142 -0.59800 -0.79984
vn 0.98801 -0.01053 0.15400
vn 0.93845 -0.20888 -0.27509
vn 0.18034 0.43219 0.88356
vn 0.61191 0.30633 0.72920
vn -0.87187 0.31672 0.37355
vn -0.55571 0.43626 0.70772
vn -0.71450 -0.19737 -0.67122
vn -0.95079 0.00136 -0.30984
vn 0.43497 -0.39962 -0.80691
vn -0.02735 -0.39736 -0.91726
vn 0.99408 0.03913 0.10138
vn 0.92618 -0.31192 -0.21186
vn 0.21750 0.74172 0.63447
vn 0.64253 0.56100 0.52196
vn -0.85662 0.44460 0.26180
vn -0.52612 0.68329 0.50627
vn -0.74388 -0.44163 -0.50160
vn -0.96473 -0.11404 -0.23726
vn 0.39991 -0.69222 -0.60075
vn -0.06715 -0.72912 -0.68109
vn 0.18589 -0.91525 -0.35743
vn -0.28844 -0.88457 -0.36652
vn 0.99167 -0.12574 -0.02793
vn 0.82076 -0.53923 -0.18863
vn 0.42837 0.84900 0.30936
vn 0.79704 0.56246 0.21993
vn -0.72555 0.66191 0.18831
vn -0.32682 0.89801 0.29455
vn -0.87541 -0.42846 -0.22379
vn -0.99769 0.00370 -0.06790
vn 0.99538 0.04872 0.08271
vn 0.92251 -0.34370 -0.17561
vn 0.22714 0.82190 0.52238
vn 0.65046 0.62637 0.42961
vn -0.85305 0.47546 0.21502
vn -0.51861 0.74661 0.41667
vn -0.75241 -0.51184 -0.41460
vn -0.96908 -0.14915 -0.19656
vn 0.38998 -0.77558 -0.49638
vn -0.07842 -0.82300 -0.56261
vn 0.18522 -0.97939 -0.08060
vn -0.28950 -0.95367 -0.08189
vn 0.99170 -0.12642 -0.02325
vn 0.82066 -0.56916 -0.05063
vn 0.42791 0.90315 0.03483
vn 0.79692 0.60375 0.02002
vn -0.72701 0.68650 0.01338
vn -0.32792 0.94415 0.03243
vn -0.87700 -0.47697 -0.05796
vn -0.99936 -0.01839 -0.03056
vn 0.18512 -0.98104 -0.05739
vn -0.28951 -0.95545 -0.05744
vn 0.99144 -0.12676 -0.03142
vn 0.82044 -0.57009 -0.04328
vn 0.42776 0.90388 -0.00513
vn 0.79670 0.60426 -0.01129
vn -0.72692 0.68656 -0.01485
vn -0.32791 0.94469 -0.00568
vn -0.87689 -0.47838 -0.04715
vn -0.99923 -0.01927 -0.03420
vn 0.18617 -0.89248 -0.41088
vn -0.28798 -0.86021 -0.42084
vn 0.99164 -0.12471 -0.03322
vn 0.82079 -0.52815 -0.21764
vn 0.42856 0.83094 0.35478
vn 0.79707 0.54893 0.25169
vn -0.72491 0.65380 0.21692
vn -0.32635 0.88254 0.33855
vn -0.87471 -0.41133 -0.25629
vn -0.99696 0.01165 -0.07710
vn 0.99511 0.04716 0.08682
vn 0.92362 -0.33377 -0.18846
vn 0.22459 0.80069 0.55539
vn 0.64835 0.60925 0.45656
vn -0.85387 0.46797 0.22782
vn -0.52055 0.73006 0.44276
vn -0.74987 -0.49119 -0.44320
vn -0.96770 -0.13830 -0.21078
vn 0.39286 -0.75126 -0.53035
vn -0.07515 -0.79578 -0.60090
vn 0.18506 -0.98243 -0.02416
vn -0.28966 -0.95684 -0.02358
vn 0.99156 -0.12757 -0.02324
vn 0.82052 -0.57115 -0.02308
vn 0.42776 0.90362 -0.02231
vn 0.79678 0.60388 -0.02195
vn -0.72718 0.68607 -0.02265
vn -0.32808 0.94440 -0.02175
vn -0.87718 -0.47957 -0.02379
vn -0.99954 -0.02017 -0.02276
vn 0.18406 -0.95993 0.21133
vn -0.29035 -0.93141 0.21946
vn 0.99006 -0.13833 -0.02552
vn 0.81915 -0.56632 0.09095
vn 0.42661 0.86423 -0.26667
vn 0.79543 0.57147 -0.20178
vn -0.72762 0.66225 -0.17885
vn -0.32875 0.90957 -0.25419
vn -0.87753 -0.46514 0.11657
vn -0.99980 -0.01927 0.00615
vn 0.18535 -0.97546 -0.11888
vn -0.28927 -0.94957 -0.12099
vn 0.99165 -0.12527 -0.03066
vn 0.82065 -0.56676 -0.07292
vn 0.42799 0.90187 0.05873
vn 0.79691 0.60303 0.03580
vn -0.72668 0.68650 0.02576
vn -0.32768 0.94319 0.05492
vn -0.87664 -0.47376 -0.08401
vn -0.99898 -0.01637 -0.04198
vn -0.99607 -0.05631 0.06835
vn -0.92200 0.34628 -0.17324
vn -0.23008 -0.84659 0.47995
vn -0.65285 -0.64735 0.39334
vn 0.85133 -0.48816 0.19222
vn 0.51603 -0.76706 0.38123
vn 0.75367 0.52364 -0.39721
vn 0.96929 0.15259 -0.19285
vn -0.38808 0.79054 -0.47376
vn 0.08054 0.84067 -0.53553
vn 0.18341 -0.94944 0.25480
vn -0.29073 -0.91952 0.26449
vn 0.98896 -0.14444 -0.03310
vn 0.81818 -0.56460 0.10867
vn 0.42582 0.84365 -0.32702
vn 0.79446 0.55448 -0.24774
vn -0.72777 0.64932 -0.22077
vn -0.32911 0.89119 -0.31220
vn -0.87759 -0.45887 0.13881
vn -0.99979 -0.01979 0.00438
vn 0.18539 -0.97396 -0.13050
vn -0.28918 -0.94801 -0.13283
vn 0.99162 -0.12481 -0.03335
vn 0.82064 -0.56583 -0.07990
vn 0.42801 0.90143 0.06510
vn 0.79691 0.60279 0.03983
vn -0.72654 0.68652 0.02880
vn -0.32759 0.94286 0.06089
vn -0.87649 -0.47253 -0.09209
vn -0.99883 -0.01559 -0.04581
vn 0.99664 0.06207 0.05344
vn 0.92081 -0.35526 -0.16095
vn 0.23375 0.87738 0.41901
vn 0.65584 0.67284 0.34228
vn -0.84962 0.50142 0.16345
vn -0.51299 0.79179 0.33152
vn -0.75630 -0.54623 -0.36006
vn -0.97041 -0.16279 -0.17836
vn 0.38475 -0.81777 -0.42805
vn -0.08427 -0.87171 -0.48272
vn 0.99378 0.03751 0.10489
vn 0.92741 -0.30090 -0.22221
vn 0.21470 0.71847 0.66160
vn 0.64022 0.54225 0.54413
vn -0.85750 0.43645 0.27242
vn -0.52823 0.66517 0.52774
vn -0.74107 -0.41880 -0.52481
vn -0.96319 -0.10201 -0.24873
vn 0.40308 -0.66536 -0.62835
vn -0.06355 -0.69907 -0.71222
vn 0.18550 -0.96982 -0.15821
vn -0.28905 -0.94362 -0.16138
vn 0.99167 -0.12415 -0.03426
vn 0.82070 -0.56359 -0.09388
vn 0.42810 0.89909 0.09143
vn 0.79697 0.60114 0.05893
vn -0.72637 0.68582 0.04515
vn -0.32745 0.94096 0.08588
vn -0.87630 -0.46923 -0.10913
vn -0.99864 -0.01375 -0.05028
vn 0.18363 -0.94120 0.28359
vn -0.29059 -0.91070 0.29358
vn 0.98932 -0.14360 -0.02506
vn 0.81849 -0.56036 0.12673
vn 0.42609 0.83813 -0.34056
vn 0.79477 0.55043 -0.25566
vn -0.72770 0.64727 -0.22690
vn -0.32897 0.88660 -0.32514
vn -0.87755 -0.45241 0.15884
vn -0.99976 -0.01642 0.01431
vn 0.18501 -0.98260 -0.01629
vn -0.28968 -0.95700 -0.01524
vn 0.99143 -0.12789 -0.02678
vn 0.82041 -0.57139 -0.02097
vn 0.42768 0.90316 -0.03741
vn 0.79667 0.60347 -0.03389
vn -0.72715 0.68566 -0.03348
vn -0.32809 0.94395 -0.03616
vn -0.87714 -0.47981 -0.02043
vn -0.99949 -0.02047 -0.02463
vn -0.99590 -0.05549 0.07149
vn -0.92271 0.33978 -0.18209
vn -0.22846 -0.83324 0.50351
vn -0.65152 -0.63661 0.41261
vn 0.85181 -0.48355 0.20149
vn 0.51723 -0.75667 0.39989
vn 0.75202 0.51032 -0.41718
vn 0.96837 0.14552 -0.20267
vn -0.38992 0.77487 -0.49753
vn 0.07844 0.82316 -0.56236
vn -0.99596 -0.05812 0.06845
vn -0.92330 0.33293 -0.19152
vn -0.22786 -0.82848 0.51157
vn -0.65099 -0.63332 0.41847
vn 0.85153 -0.48391 0.20180
vn 0.51746 -0.75357 0.40542
vn 0.75054 0.49940 -0.43277
vn 0.96729 0.13837 -0.21263
vn -0.39128 0.76255 -0.51518
vn 0.07685 0.80986 -0.58156
vn 0.18337 -0.93221 0.31203
vn -0.29073 -0.90074 0.32271
vn 0.98888 -0.14645 -0.02578
vn 0.81810 -0.55766 0.14043
vn 0.42578 0.82492 -0.37177
vn 0.79439 0.53975 -0.27859
vn -0.72775 0.63951 -0.24780
vn -0.32910 0.87491 -0.35528
vn -0.87756 -0.44646 0.17481
vn -0.99975 -0.01536 0.01634
vn 0.18470 -0.98150 0.05036
vn -0.28990 -0.95554 0.05380
vn 0.99098 -0.13058 -0.03008
vn 0.82000 -0.57227 0.00996
vn 0.42733 0.89718 -0.11159
vn 0.79627 0.59834 -0.08917
vn -0.72731 0.68145 -0.08151
vn -0.32831 0.93854 -0.10659
vn -0.87727 -0.47964 0.01858
vn -0.99960 -0.02181 -0.01823
vn -0.99428 -0.04235 0.09808
vn -0.92669 0.30624 -0.21784
vn -0.21734 -0.74054 0.63589
vn -0.64238 -0.56066 0.52250
vn 0.85622 -0.44646 0.25992
vn 0.52604 -0.68306 0.50667
vn 0.74278 0.43350 -0.51026
vn 0.96386 0.10819 -0.24346
vn -0.40090 0.68325 -0.61029
vn 0.06602 0.71961 -0.69123
vn -0.99317 -0.03573 0.11109
vn -0.93043 0.27271 -0.24482
vn -0.20826 -0.66528 0.71696
vn -0.63490 -0.49973 0.58922
vn 0.85921 -0.41912 0.29342
vn 0.53293 -0.62410 0.57138
vn 0.73404 0.36257 -0.57422
vn 0.95916 0.07147 -0.27368
vn -0.41079 0.59952 -0.68690
vn 0.05476 0.62573 -0.77812
vn -0.99622 -0.05953 0.06333
vn -0.92235 0.34150 -0.18070
vn -0.23009 -0.84694 0.47932
vn -0.65282 -0.64823 0.39194
vn 0.85083 -0.49046 0.18851
vn 0.51578 -0.76799 0.37970
vn 0.75274 0.51727 -0.40720
vn 0.96849 0.14773 -0.20051
vn -0.38879 0.78360 -0.48457
vn 0.07968 0.83343 -0.54686
vn -0.99083 -0.01497 0.13431
vn -0.93463 0.23880 -0.26350
vn -0.19465 -0.55164 0.81105
vn -0.62370 -0.40576 0.66809
vn 0.86519 -0.37044 0.33796
vn 0.54396 -0.53290 0.64817
vn 0.72403 0.27822 -0.63117
vn 0.95469 0.03309 -0.29574
vn -0.42306 0.49791 -0.75704
vn 0.04087 0.51003 -0.85919
f 1//1 2//2 4//4
f 1//1 4//4 3//3
f 3//3 4//4 6//6
f 3//3 6//6 5//5
f 5//5 6//6 8//8
f 5//5 8//8 7//7
f 7//7 8//8 10//10
f 7//7 10//10 9//9
f 9//9 10//10 2//2
f 9//9 2//2 1//1
f 11//11 12//12 14//14
f 11//11 14//14 13//13
f 13//13 14//14 16//16
f 13//13 16//16 15//15
f 15//15 16//16 18//18
f 15//15 18//18 17//17
f 17//17 18//18 20//20
f 17//17 20//20 19//19
f 19//19 20//20 12//12
f 19//19 12//12 11//11
f 21//21 22//22 24//24
f 21//21 24//24 23//23
f 23//23 24//24 26//26
f 23//23 26//26 25//25
f 25//25 26//26 28//28
f 25//25 28//28 27//27
f 27//27 28//28 30//30
f 27//27 30//30 29//29
f 29//29 30//30 22//22
f 29//29 22//22 21//21
f 31//31 32//32 34//34
f 31//31 34//34 33//33
f 33//33 34//34 36//36
f 33//33 36//36 35//35
f 35//35 36//36 38//38
f 35//35 38//38 37//37
f 37//37 38//38 40//40
f 37//37 40//40 39//39
f 39//39 40//40 32//32
f 39//39 32//32 31//31
f 41//41 42//42 44//44
f 41//41 44//44 43//43
f 43//43 44//44 46//46
f 43//43 46//46 45//45
f 45//45 46//46 48//48
f 45//45 48//48 47//47
f 47//47 48//48 50//50
f 47//47 50//50 49//49
f 49//49 50//50 42//42
f 49//49 42//42 41//41
f 51//51 52//52 54//54
f 51//51 54//54 53//53
f 53//53 54//54 56//56
f 53//53 56//56 55//55
f 55//55 56//56 58//58
f 55//55 58//58 57//57
f 57//57 58//58 60//60
f 57//57 60//60 59//59
f 59//59 60//60 52//52
f 59//59 52//52 51//51
f 61//61 62//62 64//64
f 61//61 64//64 63//63
f 63//63 64//64 66//66
f 63//63 66//66 65//65
f 65//65 66//66 68//68
f 65//65 68//68 67//67
f 67//67 68//68 70//70
f 67//67 70//70 69//69
f 69//69 70//70 62//62
f 69//69 62//62 61//61
f 71//71 72//72 74//74
f 71//71 74//74 73//73
f 73//73 74//74 76//76
f 73//73 76//76 75//75
f 75//75 76//76 78//78
f 75//75 78//78 77//77
f 77//77 78//78 80//80
f 77//77 80//80 79//79
f 79//79 80//80 72//72
f 79//79 72//72 71//71
f 81//81 82//82 84//84
f 81//81 84//84 83//83
f 83//83 84//84 86//86
f 83//83 86//86 85//85
f 85//85 86//86 88//88
f 85//85 88//88 87//87
f 87//87 88//88 90//90
f 87//87 90//90 89//89
f 89//89 90//90 82//82
f 89//89 82//82 81//81
f 91//91 92//92 94//94
f 91//91 94//94 93//93
f 93//93 94//94 96//96
f 93//93 96//96 95//95
f 95//95 96//96 98//98
f 95//95 98//98 97//97
f 97//97 98//98 100//100
f 97//97 100//100 99//99
f 99//99 100//100 92//92
f 99//99 92//92 91//91
f 101//101 102//102 104//104
f 101//101 104//104 103//103
f 103//103 104//104 106//106
f 103//103 106//106 105//105
f 105//105 106//106 108//108
f 105//105 108//108 107//107
f 107//107 108//108 110//110
f 107//107 110//110 109//109
f 109//109 110//110 102//102
f 109//109 102//102 101//101
f 111//111 112//112 114//114
f 111//111 114//114 113//113
f 113//113 114//114 116//116
f 113//113 116//116 115//115
f 115//115 116//116 118//118
f 115//115 118//118 117//117
f 117//117 118//118 120//120
f 117//117 120//120 119//119
f 119//119 120//120 112//112
f 119//119 112//112 111//111
f 121//121 122//122 124//124
f 121//121 124//124 123//123
f 123//123 124//124 126//126
f 123//123 126//126 125//125
f 125//125 126//126 128//128
f 125//125 128//128 127//127
f 127//127 128//128 130//130
f 127//127 130//130 129//129
f 129//129 130//130 122//122
f 129//129 122//122 121//121
f 131//131 132//132 134//134
f 131//131 134//134 133//133
f 133//133 134//134 136//136
f 133//133 136//136 135//135
f 135//135 136//136 138//138
f 135//135 138//138 137//137
f 137//137 138//138 140//140
f 137//137 140//140 139//139
f 139//139 140//140 132//132
f 139//139 132//132 131//131
f 141//141 142//142 144//144
f 141//141 144//144 143//143
f 143//143 144//144 146//146
f 143//143 146//146 145//145
f 145//145 146//146 148//148
f 145//145 148//148 147//147
f 147//147 148//148 150//150
f 147//147 150//150 149//149
f 149//149 150//150 142//142
f 149//149 142//142 141//141
f 151//151 152//152 154//154
f 151//151 154//154 153//153
f 153//153 154//154 156//156
f 153//153 156//156 155//155
f 155//155 156//156 158//158
f 155//155 158//158 157//157
f 157//157 158//158 160//160
f 157//157 160//160 159//159
f 159//159 160//160 152//152
f 159//159 152//152 151//151
f 161//161 162//162 164//164
f 161//161 164//164 163//163
f 163//163 164//164 166//166
f 163//163 166//166 165//165
f 165//165 166//166 168//168
f 165//165 168//168 167//167
f 167//167 168//168 170//170
f 167//167 170//170 169//169
f 169//169 170//170 162//162
f 169//169 162//162 161//161
f 171//171 172//172 174//174
f 171//171 174//174 173//173
f 173//173 174//174 176//176
f 173//173 176//176 175//175
f 175//175 176//176 178//178
f 175//175 178//178 177//177
f 177//177 178//178 180//180
f 177//177 180//180 179//179
f 179//179 180//180 172//172
f 179//179 172//172 171//171
f 181//181 182//182 184//184
f 181//181 184//184 183//183
f 183//183 184//184 186//186
f 183//183 186//186 185//185
f 185//185 186//186 188//188
f 185//185 188//188 187//187
f 187//187 188//188 190//190
f 187//187 190//190 189//189
f 189//189 190//190 182//182
f 189//189 182//182 181//181
f 191//191 192//192 194//194
f 191//191 194//194 193//193
f 193//193 194//194 196//196
f 193//193 196//196 195//195
f 195//195 196//196 198//198
f 195//195 198//198 197//197
f 197//197 198//198 200//200
f 197//197 200//200 199//199
f 199//199 200//200 192//192
f 199//199 192//192 191//191
f 201//201 202//202 204//204
f 201//201 204//204 203//203
f 203//203 204//204 206//206
f 203//203 206//206 205//205
f 205//205 206//206 208//208
f 205//205 208//208 207//207
f 207//207 208//208 210//210
f 207//207 210//210 209//209
f 209//209 210//210 202//202
f 209//209 202//202 201//201
f 211//211 212//212 214//214
f 211//211 214//214 213//213
f 213//213 214//214 216//216
f 213//213 216//216 215//215
f 215//215 216//216 218//218
f 215//215 218//218 217//217
f 217//217 218//218 220//220
f 217//217 220//220 219//219
f 219//219 220//220 212//212
f 219//219 212//212 211//211
f 221//221 222//222 224//224
f 221//221 224//224 223//223
f 223//223 224//224 226//226
f 223//223 226//226 225//225
f 225//225 226//226 228//228
f 225//225 228//228 227//227
f 227//227 228//228 230//230
f 227//227 230//230 229//229
f 229//229 230//230 222//222
f 229//229 222//222 221//221
f 231//231 232//232 234//234
f 231//231 234//234 233//233
f 233//233 234//234 236//236
f 233//233 236//236 235//235
f 235//235 236//236 238//238
f 235//235 238//238 237//237
f 237//237 238//238 240//240
f 237//237 240//240 239//239
f 239//239 240//240 232//232
f 239//239 232//232 231//231
f 241//241 242//242 244//244
f 241//241 244//244 243//243
f 243//243 244//244 246//246
f 243//243 246//246 245//245
f 245//245 246//246 248//248
f 245//245 248//248 247//247
f 247//247 248//248 250//250
f 247//247 250//250 249//249
f 249//249 250//250 242//242
f 249//249 242//242 241//241
f 251//251 252//252 254//254
f 251//251 254//254 253//253
f 253//253 254//254 256//256
f 253//253 256//256 255//255
f 255//255 256//256 258//258
f 255//255 258//258 257//257
f 257//257 258//258 260//260
f 257//257 260//260 259//259
f 259//259 260//260 252//252
f 259//259 252//252 251//251
f 261//261 262//262 264//264
f 261//261 264//264 263//263
f 263//263 264//264 266//266
f 263//263 266//266 265//265
f 265//265 266//266 268//268
f 265//265 268//268 267//267
f 267//267 268//268 270//270
f 267//267 270//270 269//269
f 269//269 270//270 262//262
f 269//269 262//262 261//261
f 271//271 272//272 274//274
f 271//271 274//274 273//273
f 273//273 274//274 276//276
f 273//273 276//276 275//275
f 275//275 276//276 278//278
f 275//275 278//278 277//277
f 277//277 278//278 280//280
f 277//277 280//280 279//279
f 279//279 280//280 272//272
f 279//279 272//272 271//271
f 281//281 282//282 284//284
f 281//281 284//284 283//283
f 283//283 284//284 286//286
f 283//283 286//286 285//285
f 285//285 286//286 288//288
f 285//285 288//288 287//287
f 287//287 288//288 290//290
f 287//287 290//290 289//289
f 289//289 290//290 282//282
f 289//289 282//282 281//281
f 291//291 292//292 294//294
f 291//291 294//294 293//293
f 293//293 294//294 296//296
f 293//293 296//296 295//295
f 295//295 296//296 298//298
f 295//295 298//298 297//297
f 297//297 298//298 300//300
f 297//297 300//300 299//299
f 299//299 300//300 292//292
f 299//299 292//292 291//291
f 301//301 302//302 304//304
f 301//301 304//304 303//303
f 303//303 304//304 306//306
f 303//303 306//306 305//305
f 305//305 306//306 308//308
f 305//305 308//308 307//307
f 307//307 308//308 310//310
f 307//307 310//310 309//309
f 309//309 310//310 302//302
f 309//309 302//302 301//301
