# generated by scripts/make_scenery.py
v 0.00000 0.00000 0.04556
v 0.00000 0.00000 0.04556
v 0.00000 0.00000 0.04556
v 0.00000 0.00000 0.04556
v 0.00000 0.00000 0.04556
v 0.00000 0.00000 0.04556
v 0.00000 0.00000 0.04556
v 0.00000 0.00000 0.04556
v 0.00000 0.00000 0.04556
v 0.00000 0.00000 0.04556
v 0.00000 0.00000 0.04556
v 0.00000 0.00000 0.04556
v 0.00000 0.00000 0.04556
v 0.00000 0.00000 0.04556
v 0.03799 0.00000 0.04321
v 0.03439 0.00396 0.04341
v 0.02387 0.00716 0.04354
v 0.00852 0.00893 0.04355
v -0.00851 0.00892 0.04352
v -0.02386 0.00715 0.04352
v -0.03448 0.00397 0.04352
v -0.03826 0.00000 0.04352
v -0.03445 -0.00397 0.04349
v -0.02379 -0.00713 0.04339
v -0.00846 -0.00886 0.04324
v 0.00843 -0.00883 0.04309
v 0.02358 -0.00707 0.04302
v 0.03411 -0.00393 0.04306
v 0.07267 0.00000 0.03696
v 0.06615 0.00762 0.03735
v 0.04598 0.01379 0.03752
v 0.01631 0.01709 0.03729
v -0.01623 0.01701 0.03711
v -0.04552 0.01365 0.03713
v -0.06580 0.00758 0.03715
v -0.07307 0.00000 0.03717
v -0.06607 -0.00761 0.03730
v -0.04573 -0.01371 0.03731
v -0.01623 -0.01701 0.03711
v 0.01617 -0.01695 0.03697
v 0.04525 -0.01357 0.03692
v 0.06527 -0.00752 0.03685
v 0.10138 0.00000 0.02722
v 0.09270 0.01067 0.02763
v 0.06486 0.01945 0.02793
v 0.02287 0.02396 0.02759
v -0.02262 0.02369 0.02729
v -0.06326 0.01897 0.02724
v -0.09105 0.01049 0.02713
v -0.10085 0.00000 0.02708
v -0.09194 -0.01059 0.02740
v -0.06396 -0.01918 0.02755
v -0.02274 -0.02382 0.02744
v 0.02283 -0.02392 0.02755
v 0.06414 -0.01923 0.02762
v 0.09194 -0.01059 0.02740
v 0.12049 0.00000 0.01447
v 0.11001 0.01267 0.01466
v 0.07788 0.02335 0.01500
v 0.02755 0.02886 0.01487
v -0.02708 0.02837 0.01461
v -0.07506 0.02251 0.01446
v -0.10703 0.01233 0.01427
v -0.11835 0.00000 0.01421
v -0.10895 -0.01255 0.01452
v -0.07601 -0.02279 0.01464
v -0.02713 -0.02842 0.01464
v 0.02743 -0.02874 0.01480
v 0.07717 -0.02314 0.01486
v 0.11037 -0.01271 0.01471
v 0.12632 0.00000 0.00000
v 0.11430 0.01316 0.00000
v 0.08127 0.02437 0.00000
v 0.02902 0.03041 0.00000
v -0.02858 0.02994 0.00000
v -0.07868 0.02359 0.00000
v -0.11168 0.01286 0.00000
v -0.12432 0.00000 0.00000
v -0.11521 -0.01327 0.00000
v -0.08001 -0.02399 0.00000
v -0.02847 -0.02982 0.00000
v 0.02866 -0.03002 0.00000
v 0.08050 -0.02414 0.00000
v 0.11582 -0.01334 0.00000
v 0.11819 0.00000 -0.01419
v 0.10599 0.01221 -0.01413
v 0.07471 0.02240 -0.01439
v 0.02686 0.02814 -0.01449
v -0.02671 0.02799 -0.01441
v -0.07398 0.02218 -0.01425
v -0.10586 0.01219 -0.01411
v -0.11928 0.00000 -0.01432
v -0.11023 -0.01269 -0.01469
v -0.07565 -0.02269 -0.01457
v -0.02656 -0.02783 -0.01433
v 0.02644 -0.02770 -0.01427
v 0.07423 -0.02226 -0.01430
v 0.10766 -0.01240 -0.01435
v 0.09933 0.00000 -0.02667
v 0.08896 0.01024 -0.02651
v 0.06199 0.01859 -0.02670
v 0.02228 0.02334 -0.02688
v -0.02234 0.02341 -0.02696
v -0.06264 0.01878 -0.02698
v -0.09100 0.01048 -0.02712
v -0.10304 0.00000 -0.02767
v -0.09402 -0.01083 -0.02802
v -0.06386 -0.01915 -0.02750
v -0.02223 -0.02329 -0.02682
v 0.02200 -0.02305 -0.02655
v 0.06181 -0.01853 -0.02662
v 0.08986 -0.01035 -0.02678
v 0.07247 0.00000 -0.03686
v 0.06519 0.00751 -0.03680
v 0.04519 0.01355 -0.03687
v 0.01619 0.01696 -0.03701
v -0.01627 0.01705 -0.03719
v -0.04592 0.01377 -0.03746
v -0.06714 0.00773 -0.03790
v -0.07547 0.00000 -0.03839
v -0.06801 -0.00783 -0.03839
v -0.04623 -0.01386 -0.03772
v -0.01617 -0.01694 -0.03697
v 0.01603 -0.01680 -0.03664
v 0.04498 -0.01349 -0.03669
v 0.06526 -0.00752 -0.03685
v 0.03859 0.00000 -0.04389
v 0.03482 0.00401 -0.04395
v 0.02414 0.00724 -0.04404
v 0.00864 0.00905 -0.04416
v -0.00867 0.00909 -0.04433
v -0.02443 0.00732 -0.04456
v -0.03548 0.00409 -0.04480
v -0.03949 0.00000 -0.04491
v -0.03547 -0.00408 -0.04478
v -0.02435 -0.00730 -0.04441
v -0.00861 -0.00902 -0.04403
v 0.00857 -0.00898 -0.04380
v 0.02399 -0.00719 -0.04376
v 0.03471 -0.00400 -0.04382
v 0.00000 0.00000 -0.04672
v 0.00000 0.00000 -0.04672
v 0.00000 0.00000 -0.04672
v 0.00000 0.00000 -0.04672
v -0.00000 0.00000 -0.04672
v -0.00000 0.00000 -0.04672
v -0.00000 0.00000 -0.04672
v -0.00000 0.00000 -0.04672
v -0.00000 -0.00000 -0.04672
v -0.00000 -0.00000 -0.04672
v -0.00000 -0.00000 -0.04672
v 0.00000 -0.00000 -0.04672
v 0.00000 -0.00000 -0.04672
v 0.00000 -0.00000 -0.04672
v -0.11000 0.02000 0.00000
v -0.17500 0.00100 0.05500
v -0.12292 0.00000 -0.01527
v -0.17565 0.00000 0.05424
v -0.11000 -0.02000 -0.00000
v -0.17500 -0.00100 0.05500
v -0.09708 -0.00000 0.01527
v -0.17435 -0.00000 0.05576
v -0.11000 0.02000 0.00000
v -0.17500 0.00100 -0.05500
v -0.09708 0.00000 -0.01527
v -0.17435 0.00000 -0.05576
v -0.11000 -0.02000 -0.00000
v -0.17500 -0.00100 -0.05500
v -0.12292 -0.00000 0.01527
v -0.17565 -0.00000 -0.05424
v 0.00000 0.01600 0.03500
v 0.01000 0.00100 0.10000
v -0.01581 0.00000 0.03743
v 0.00901 0.00000 0.10015
v -0.00000 -0.01600 0.03500
v 0.01000 -0.00100 0.10000
v 0.01581 -0.00000 0.03257
v 0.01099 -0.00000 0.09985
vn 0.06170 0.00534 0.99808
vn 0.04807 0.12018 0.99159
vn 0.02350 0.19877 0.97976
vn -0.00144 0.22154 0.97515
vn -0.02336 0.20154 0.97920
vn -0.04210 0.14183 0.98900
vn -0.05327 0.04909 0.99737
vn -0.05325 -0.05899 0.99684
vn -0.04039 -0.16472 0.98551
vn -0.01712 -0.23795 0.97113
vn 0.00881 -0.26116 0.96526
vn 0.03249 -0.23995 0.97024
vn 0.05104 -0.18228 0.98192
vn 0.06140 -0.09949 0.99314
vn 0.13631 -0.00118 0.99067
vn 0.11268 0.24041 0.96411
vn 0.06445 0.41448 0.90777
vn 0.01276 0.48981 0.87173
vn -0.03824 0.47940 0.87676
vn -0.08769 0.38079 0.92049
vn -0.12491 0.19342 0.97313
vn -0.13357 -0.04921 0.98982
vn -0.10686 -0.28212 0.95341
vn -0.05906 -0.43377 0.89908
vn -0.00810 -0.49240 0.87033
vn 0.04224 -0.47278 0.88017
vn 0.08947 -0.37949 0.92086
vn 0.12487 -0.21924 0.96765
vn 0.25514 -0.00081 0.96690
vn 0.20444 0.40986 0.88895
vn 0.10782 0.64670 0.75509
vn 0.02448 0.73196 0.68091
vn -0.05110 0.73197 0.67942
vn -0.13555 0.64196 0.75466
vn -0.22509 0.39840 0.88917
vn -0.26427 -0.02926 0.96400
vn -0.20368 -0.44710 0.87099
vn -0.10939 -0.65931 0.74387
vn -0.02750 -0.72624 0.68689
vn 0.04939 -0.70792 0.70456
vn 0.13200 -0.60373 0.78619
vn 0.21425 -0.37404 0.90233
vn 0.43415 0.01934 0.90063
vn 0.31624 0.60554 0.73028
vn 0.14707 0.82532 0.54518
vn 0.03313 0.88275 0.46868
vn -0.05992 0.88476 0.46218
vn -0.17204 0.82981 0.53087
vn -0.33510 0.61495 0.71383
vn -0.45862 -0.00641 0.88861
vn -0.31404 -0.63467 0.70610
vn -0.15154 -0.83811 0.52404
vn -0.04293 -0.88668 0.46040
vn 0.05250 -0.87746 0.47677
vn 0.16712 -0.80315 0.57185
vn 0.32302 -0.55710 0.76505
vn 0.74452 0.05182 0.66558
vn 0.43388 0.80515 0.40433
vn 0.18129 0.94648 0.26704
vn 0.04223 0.97193 0.23146
vn -0.06450 0.97072 0.23141
vn -0.19479 0.94360 0.26773
vn -0.42918 0.80959 0.40046
vn -0.75838 0.03850 0.65068
vn -0.41816 -0.80751 0.41601
vn -0.17878 -0.94837 0.26199
vn -0.05240 -0.97504 0.21575
vn 0.05299 -0.97434 0.21876
vn 0.18699 -0.94324 0.27445
vn 0.43556 -0.77956 0.45009
vn 0.99429 0.06123 -0.08736
vn 0.47658 0.87549 -0.07992
vn 0.19920 0.97858 -0.05197
vn 0.05121 0.99838 -0.02497
vn -0.06239 0.99798 -0.01185
vn -0.19882 0.97997 -0.01142
vn -0.45323 0.89133 -0.01090
vn -0.99297 0.11714 0.01723
vn -0.46876 -0.88326 0.01075
vn -0.18658 -0.98239 -0.00931
vn -0.05515 -0.99819 -0.02396
vn 0.05111 -0.99806 -0.03565
vn 0.18567 -0.98165 -0.04357
vn 0.46318 -0.88482 -0.05056
vn 0.70571 0.02234 -0.70815
vn 0.41615 0.77518 -0.47531
vn 0.19448 0.92306 -0.33186
vn 0.05685 0.96326 -0.26249
vn -0.05426 0.96878 -0.24189
vn -0.18387 0.94553 -0.26862
vn -0.40022 0.83695 -0.37328
vn -0.77442 0.15048 -0.61452
vn -0.43239 -0.80889 -0.39843
vn -0.17587 -0.94850 -0.26348
vn -0.05125 -0.96949 -0.23971
vn 0.04858 -0.96536 -0.25634
vn 0.17019 -0.93542 -0.30987
vn 0.39054 -0.79689 -0.46091
vn 0.45091 -0.01251 -0.89248
vn 0.32987 0.62342 -0.70890
vn 0.17504 0.82362 -0.53945
vn 0.05805 0.88699 -0.45812
vn -0.04242 0.89621 -0.44159
vn -0.15415 0.85850 -0.48910
vn -0.30969 0.70755 -0.63519
vn -0.47867 0.13522 -0.86752
vn -0.33407 -0.63074 -0.70040
vn -0.15136 -0.85444 -0.49702
vn -0.04325 -0.89913 -0.43555
vn 0.04536 -0.89469 -0.44437
vn 0.14866 -0.84405 -0.51525
vn 0.30122 -0.65308 -0.69480
vn 0.28265 -0.04609 -0.95812
vn 0.24056 0.43553 -0.86743
vn 0.14633 0.67219 -0.72578
vn 0.05569 0.76141 -0.64587
vn -0.02749 0.77257 -0.63434
vn -0.11318 0.71548 -0.68941
vn -0.20771 0.53565 -0.81850
vn -0.27297 0.10711 -0.95604
vn -0.21991 -0.42357 -0.87876
vn -0.11625 -0.69083 -0.71361
vn -0.03367 -0.77104 -0.63590
vn 0.03863 -0.77239 -0.63398
vn 0.11866 -0.70452 -0.69970
vn 0.21318 -0.49927 -0.83981
vn 0.15483 -0.07298 -0.98524
vn 0.14537 0.21577 -0.96556
vn 0.10341 0.42001 -0.90161
vn 0.04873 0.52418 -0.85021
vn -0.00756 0.54520 -0.83827
vn -0.06181 0.48916 -0.87000
vn -0.10882 0.33838 -0.93470
vn -0.13249 0.07913 -0.98802
vn -0.11645 -0.22514 -0.96734
vn -0.07117 -0.44487 -0.89276
vn -0.02147 -0.54243 -0.83983
vn 0.02662 -0.55459 -0.83170
vn 0.07653 -0.49265 -0.86686
vn 0.12485 -0.33565 -0.93368
vn 0.07298 -0.08878 -0.99337
vn 0.07317 0.05214 -0.99596
vn 0.05880 0.16862 -0.98393
vn 0.03567 0.24059 -0.96997
vn 0.01007 0.26351 -0.96460
vn -0.01313 0.24279 -0.96999
vn -0.03231 0.18254 -0.98267
vn -0.04560 0.07359 -0.99625
vn -0.04558 -0.07811 -0.99590
vn -0.02917 -0.21163 -0.97691
vn -0.00709 -0.27992 -0.96000
vn 0.01338 -0.29782 -0.95453
vn 0.03495 -0.27890 -0.95968
vn 0.05752 -0.21035 -0.97593
vn 0.18158 -0.97572 -0.12247
vn -0.30434 -0.73006 -0.61188
vn 0.79647 0.02380 0.60421
vn 0.59593 -0.66369 0.45209
vn 0.15084 0.97572 -0.15881
vn 0.55306 0.73006 0.40142
vn -0.46405 -0.02380 -0.88549
vn -0.34721 0.66369 -0.66254
vn 0.15084 -0.97572 0.15881
vn 0.55306 -0.73006 -0.40142
vn -0.46405 0.02380 0.88549
vn -0.34721 -0.66369 0.66254
vn 0.18158 0.97572 0.12247
vn -0.30434 0.73006 0.61188
vn 0.79647 -0.02380 -0.60421
vn 0.59593 0.66369 -0.45209
vn -0.00461 -0.97454 -0.22418
vn -0.67285 -0.73678 -0.06651
vn 0.92940 0.02953 -0.36788
vn 0.70266 -0.65492 -0.27813
vn -0.06299 0.97454 -0.21520
vn 0.62175 0.73678 -0.26568
vn -0.99700 -0.02953 -0.07151
vn -0.75377 0.65492 -0.05406
f 1//1 15//15 16//16
f 1//1 16//16 2//2
f 2//2 16//16 17//17
f 2//2 17//17 3//3
f 3//3 17//17 18//18
f 3//3 18//18 4//4
f 4//4 18//18 19//19
f 4//4 19//19 5//5
f 5//5 19//19 20//20
f 5//5 20//20 6//6
f 6//6 20//20 21//21
f 6//6 21//21 7//7
f 7//7 21//21 22//22
f 7//7 22//22 8//8
f 8//8 22//22 23//23
f 8//8 23//23 9//9
f 9//9 23//23 24//24
f 9//9 24//24 10//10
f 10//10 24//24 25//25
f 10//10 25//25 11//11
f 11//11 25//25 26//26
f 11//11 26//26 12//12
f 12//12 26//26 27//27
f 12//12 27//27 13//13
f 13//13 27//27 28//28
f 13//13 28//28 14//14
f 14//14 28//28 15//15
f 14//14 15//15 1//1
f 15//15 29//29 30//30
f 15//15 30//30 16//16
f 16//16 30//30 31//31
f 16//16 31//31 17//17
f 17//17 31//31 32//32
f 17//17 32//32 18//18
f 18//18 32//32 33//33
f 18//18 33//33 19//19
f 19//19 33//33 34//34
f 19//19 34//34 20//20
f 20//20 34//34 35//35
f 20//20 35//35 21//21
f 21//21 35//35 36//36
f 21//21 36//36 22//22
f 22//22 36//36 37//37
f 22//22 37//37 23//23
f 23//23 37//37 38//38
f 23//23 38//38 24//24
f 24//24 38//38 39//39
f 24//24 39//39 25//25
f 25//25 39//39 40//40
f 25//25 40//40 26//26
f 26//26 40//40 41//41
f 26//26 41//41 27//27
f 27//27 41//41 42//42
f 27//27 42//42 28//28
f 28//28 42//42 29//29
f 28//28 29//29 15//15
f 29//29 43//43 44//44
f 29//29 44//44 30//30
f 30//30 44//44 45//45
f 30//30 45//45 31//31
f 31//31 45//45 46//46
f 31//31 46//46 32//32
f 32//32 46//46 47//47
f 32//32 47//47 33//33
f 33//33 47//47 48//48
f 33//33 48//48 34//34
f 34//34 48//48 49//49
f 34//34 49//49 35//35
f 35//35 49//49 50//50
f 35//35 50//50 36//36
f 36//36 50//50 51//51
f 36//36 51//51 37//37
f 37//37 51//51 52//52
f 37//37 52//52 38//38
f 38//38 52//52 53//53
f 38//38 53//53 39//39
f 39//39 53//53 54//54
f 39//39 54//54 40//40
f 40//40 54//54 55//55
f 40//40 55//55 41//41
f 41//41 55//55 56//56
f 41//41 56//56 42//42
f 42//42 56//56 43//43
f 42//42 43//43 29//29
f 43//43 57//57 58//58
f 43//43 58//58 44//44
f 44//44 58//58 59//59
f 44//44 59//59 45//45
f 45//45 59//59 60//60
f 45//45 60//60 46//46
f 46//46 60//60 61//61
f 46//46 61//61 47//47
f 47//47 61//61 62//62
f 47//47 62//62 48//48
f 48//48 62//62 63//63
f 48//48 63//63 49//49
f 49//49 63//63 64//64
f 49//49 64//64 50//50
f 50//50 64//64 65//65
f 50//50 65//65 51//51
f 51//51 65//65 66//66
f 51//51 66//66 52//52
f 52//52 66//66 67//67
f 52//52 67//67 53//53
f 53//53 67//67 68//68
f 53//53 68//68 54//54
f 54//54 68//68 69//69
f 54//54 69//69 55//55
f 55//55 69//69 70//70
f 55//55 70//70 56//56
f 56//56 70//70 57//57
f 56//56 57//57 43//43
f 57//57 71//71 72//72
f 57//57 72//72 58//58
f 58//58 72//72 73//73
f 58//58 73//73 59//59
f 59//59 73//73 74//74
f 59//59 74//74 60//60
f 60//60 74//74 75//75
f 60//60 75//75 61//61
f 61//61 75//75 76//76
f 61//61 76//76 62//62
f 62//62 76//76 77//77
f 62//62 77//77 63//63
f 63//63 77//77 78//78
f 63//63 78//78 64//64
f 64//64 78//78 79//79
f 64//64 79//79 65//65
f 65//65 79//79 80//80
f 65//65 80//80 66//66
f 66//66 80//80 81//81
f 66//66 81//81 67//67
f 67//67 81//81 82//82
f 67//67 82//82 68//68
f 68//68 82//82 83//83
f 68//68 83//83 69//69
f 69//69 83//83 84//84
f 69//69 84//84 70//70
f 70//70 84//84 71//71
f 70//70 71//71 57//57
f 71//71 85//85 86//86
f 71//71 86//86 72//72
f 72//72 86//86 87//87
f 72//72 87//87 73//73
f 73//73 87//87 88//88
f 73//73 88//88 74//74
f 74//74 88//88 89//89
f 74//74 89//89 75//75
f 75//75 89//89 90//90
f 75//75 90//90 76//76
f 76//76 90//90 91//91
f 76//76 91//91 77//77
f 77//77 91//91 92//92
f 77//77 92//92 78//78
f 78//78 92//92 93//93
f 78//78 93//93 79//79
f 79//79 93//93 94//94
f 79//79 94//94 80//80
f 80//80 94//94 95//95
f 80//80 95//95 81//81
f 81//81 95//95 96//96
f 81//81 96//96 82//82
f 82//82 96//96 97//97
f 82//82 97//97 83//83
f 83//83 97//97 98//98
f 83//83 98//98 84//84
f 84//84 98//98 85//85
f 84//84 85//85 71//71
f 85//85 99//99 100//100
f 85//85 100//100 86//86
f 86//86 100//100 101//101
f 86//86 101//101 87//87
f 87//87 101//101 102//102
f 87//87 102//102 88//88
f 88//88 102//102 103//103
f 88//88 103//103 89//89
f 89//89 103//103 104//104
f 89//89 104//104 90//90
f 90//90 104//104 105//105
f 90//90 105//105 91//91
f 91//91 105//105 106//106
f 91//91 106//106 92//92
f 92//92 106//106 107//107
f 92//92 107//107 93//93
f 93//93 107//107 108//108
f 93//93 108//108 94//94
f 94//94 108//108 109//109
f 94//94 109//109 95//95
f 95//95 109//109 110//110
f 95//95 110//110 96//96
f 96//96 110//110 111//111
f 96//96 111//111 97//97
f 97//97 111//111 112//112
f 97//97 112//112 98//98
f 98//98 112//112 99//99
f 98//98 99//99 85//85
f 99//99 113//113 114//114
f 99//99 114//114 100//100
f 100//100 114//114 115//115
f 100//100 115//115 101//101
f 101//101 115//115 116//116
f 101//101 116//116 102//102
f 102//102 116//116 117//117
f 102//102 117//117 103//103
f 103//103 117//117 118//118
f 103//103 118//118 104//104
f 104//104 118//118 119//119
f 104//104 119//119 105//105
f 105//105 119//119 120//120
f 105//105 120//120 106//106
f 106//106 120//120 121//121
f 106//106 121//121 107//107
f 107//107 121//121 122//122
f 107//107 122//122 108//108
f 108//108 122//122 123//123
f 108//108 123//123 109//109
f 109//109 123//123 124//124
f 109//109 124//124 110//110
f 110//110 124//124 125//125
f 110//110 125//125 111//111
f 111//111 125//125 126//126
f 111//111 126//126 112//112
f 112//112 126//126 113//113
f 112//112 113//113 99//99
f 113//113 127//127 128//128
f 113//113 128//128 114//114
f 114//114 128//128 129//129
f 114//114 129//129 115//115
f 115//115 129//129 130//130
f 115//115 130//130 116//116
f 116//116 130//130 131//131
f 116//116 131//131 117//117
f 117//117 131//131 132//132
f 117//117 132//132 118//118
f 118//118 132//132 133//133
f 118//118 133//133 119//119
f 119//119 133//133 134//134
f 119//119 134//134 120//120
f 120//120 134//134 135//135
f 120//120 135//135 121//121
f 121//121 135//135 136//136
f 121//121 136//136 122//122
f 122//122 136//136 137//137
f 122//122 137//137 123//123
f 123//123 137//137 138//138
f 123//123 138//138 124//124
f 124//124 138//138 139//139
f 124//124 139//139 125//125
f 125//125 139//139 140//140
f 125//125 140//140 126//126
f 126//126 140//140 127//127
f 126//126 127//127 113//113
f 127//127 141//141 142//142
f 127//127 142//142 128//128
f 128//128 142//142 143//143
f 128//128 143//143 129//129
f 129//129 143//143 144//144
f 129//129 144//144 130//130
f 130//130 144//144 145//145
f 130//130 145//145 131//131
f 131//131 145//145 146//146
f 131//131 146//146 132//132
f 132//132 146//146 147//147
f 132//132 147//147 133//133
f 133//133 147//147 148//148
f 133//133 148//148 134//134
f 134//134 148//148 149//149
f 134//134 149//149 135//135
f 135//135 149//149 150//150
f 135//135 150//150 136//136
f 136//136 150//150 151//151
f 136//136 151//151 137//137
f 137//137 151//151 152//152
f 137//137 152//152 138//138
f 138//138 152//152 153//153
f 138//138 153//153 139//139
f 139//139 153//153 154//154
f 139//139 154//154 140//140
f 140//140 154//154 141//141
f 140//140 141//141 127//127
f 155//155 156//156 158//158
f 155//155 158//158 157//157
f 157//157 158//158 160//160
f 157//157 160//160 159//159
f 159//159 160//160 162//162
f 159//159 162//162 161//161
f 161//161 162//162 156//156
f 161//161 156//156 155//155
f 163//163 164//164 166//166
f 163//163 166//166 165//165
f 165//165 166//166 168//168
f 165//165 168//168 167//167
f 167//167 168//168 170//170
f 167//167 170//170 169//169
f 169//169 170//170 164//164
f 169//169 164//164 163//163
f 171//171 172//172 174//174
f 171//171 174//174 173//173
f 173//173 174//174 176//176
f 173//173 176//176 175//175
f 175//175 176//176 178//178
f 175//175 178//178 177//177
f 177//177 178//178 172//172
f 177//177 172//172 171//171
