# generated by scripts/make_scenery.py
v 0.00000 0.00000 0.04609
v 0.00000 0.00000 0.04609
v 0.00000 0.00000 0.04609
v 0.00000 0.00000 0.04609
v 0.00000 0.00000 0.04609
v 0.00000 0.00000 0.04609
v 0.00000 0.00000 0.04609
v 0.00000 0.00000 0.04609
v 0.00000 0.00000 0.04609
v 0.00000 0.00000 0.04609
v 0.00000 0.00000 0.04609
v 0.00000 0.00000 0.04609
v 0.00000 0.00000 0.04609
v 0.00000 0.00000 0.04609
v 0.03891 0.00000 0.04426
v 0.03491 0.00402 0.04407
v 0.02411 0.00723 0.04398
v 0.00860 0.00901 0.04397
v -0.00861 0.00902 0.04399
v -0.02410 0.00723 0.04397
v -0.03475 0.00400 0.04387
v -0.03844 0.00000 0.04373
v -0.03457 -0.00398 0.04364
v -0.02397 -0.00719 0.04372
v -0.00860 -0.00901 0.04398
v 0.00866 -0.00908 0.04429
v 0.02438 -0.00731 0.04447
v 0.03520 -0.00405 0.04444
v 0.07454 0.00000 0.03792
v 0.06661 0.00767 0.03760
v 0.04610 0.01382 0.03761
v 0.01651 0.01729 0.03773
v -0.01653 0.01732 0.03779
v -0.04635 0.01390 0.03782
v -0.06678 0.00769 0.03770
v -0.07346 0.00000 0.03737
v -0.06570 -0.00757 0.03709
v -0.04565 -0.01369 0.03724
v -0.01652 -0.01731 0.03777
v 0.01677 -0.01757 0.03835
v 0.04728 -0.01418 0.03857
v 0.06793 -0.00782 0.03835
v 0.10261 0.00000 0.02755
v 0.09190 0.01058 0.02739
v 0.06399 0.01919 0.02756
v 0.02304 0.02413 0.02780
v -0.02300 0.02410 0.02775
v -0.06449 0.01934 0.02777
v -0.09308 0.01072 0.02774
v -0.10194 0.00000 0.02737
v -0.09069 -0.01044 0.02703
v -0.06319 -0.01895 0.02721
v -0.02297 -0.02407 0.02772
v 0.02331 -0.02442 0.02813
v 0.06520 -0.01955 0.02808
v 0.09320 -0.01073 0.02778
v 0.12052 0.00000 0.01447
v 0.10798 0.01243 0.01439
v 0.07514 0.02253 0.01447
v 0.02724 0.02854 0.01470
v -0.02716 0.02846 0.01466
v -0.07609 0.02282 0.01465
v -0.11042 0.01272 0.01472
v -0.12084 0.00000 0.01451
v -0.10718 -0.01234 0.01428
v -0.07485 -0.02245 0.01442
v -0.02717 -0.02846 0.01466
v 0.02730 -0.02860 0.01473
v 0.07536 -0.02260 0.01451
v 0.10808 -0.01245 0.01440
v 0.12689 0.00000 0.00000
v 0.11309 0.01302 0.00000
v 0.07794 0.02337 0.00000
v 0.02834 0.02969 0.00000
v -0.02837 0.02973 0.00000
v -0.07919 0.02375 0.00000
v -0.11533 0.01328 0.00000
v -0.12698 0.00000 0.00000
v -0.11323 -0.01304 0.00000
v -0.07938 -0.02380 0.00000
v -0.02867 -0.03004 0.00000
v 0.02842 -0.02978 0.00000
v 0.07796 -0.02338 0.00000
v 0.11295 -0.01301 0.00000
v 0.12101 0.00000 -0.01453
v 0.10765 0.01240 -0.01435
v 0.07357 0.02206 -0.01417
v 0.02663 0.02790 -0.01437
v -0.02679 0.02806 -0.01445
v -0.07435 0.02229 -0.01432
v -0.10744 0.01237 -0.01432
v -0.11917 0.00000 -0.01431
v -0.10787 -0.01242 -0.01438
v -0.07610 -0.02282 -0.01466
v -0.02731 -0.02861 -0.01474
v 0.02680 -0.02808 -0.01446
v 0.07387 -0.02215 -0.01423
v 0.10780 -0.01241 -0.01437
v 0.10324 0.00000 -0.02772
v 0.09215 0.01061 -0.02746
v 0.06293 0.01887 -0.02710
v 0.02258 0.02366 -0.02725
v -0.02274 0.02382 -0.02744
v -0.06313 0.01893 -0.02719
v -0.09032 0.01040 -0.02692
v -0.10030 0.00000 -0.02693
v -0.09175 -0.01057 -0.02734
v -0.06475 -0.01942 -0.02789
v -0.02310 -0.02420 -0.02787
v 0.02269 -0.02377 -0.02738
v 0.06312 -0.01893 -0.02718
v 0.09222 -0.01062 -0.02748
v 0.07508 0.00000 -0.03819
v 0.06729 0.00775 -0.03799
v 0.04615 0.01384 -0.03765
v 0.01645 0.01723 -0.03760
v -0.01649 0.01727 -0.03769
v -0.04600 0.01379 -0.03753
v -0.06598 0.00760 -0.03725
v -0.07326 0.00000 -0.03727
v -0.06676 -0.00769 -0.03769
v -0.04671 -0.01401 -0.03811
v -0.01665 -0.01744 -0.03806
v 0.01652 -0.01731 -0.03776
v 0.04626 -0.01387 -0.03774
v 0.06733 -0.00775 -0.03801
v 0.03941 0.00000 -0.04482
v 0.03543 0.00408 -0.04472
v 0.02443 0.00732 -0.04456
v 0.00869 0.00911 -0.04444
v -0.00868 0.00910 -0.04438
v -0.02430 0.00729 -0.04432
v -0.03507 0.00404 -0.04428
v -0.03897 0.00000 -0.04433
v -0.03524 -0.00406 -0.04448
v -0.02446 -0.00734 -0.04463
v -0.00874 -0.00916 -0.04467
v 0.00874 -0.00915 -0.04466
v 0.02451 -0.00735 -0.04470
v 0.03548 -0.00409 -0.04479
v 0.00000 0.00000 -0.04695
v 0.00000 0.00000 -0.04695
v 0.00000 0.00000 -0.04695
v 0.00000 0.00000 -0.04695
v -0.00000 0.00000 -0.04695
v -0.00000 0.00000 -0.04695
v -0.00000 0.00000 -0.04695
v -0.00000 0.00000 -0.04695
v -0.00000 -0.00000 -0.04695
v -0.00000 -0.00000 -0.04695
v -0.00000 -0.00000 -0.04695
v 0.00000 -0.00000 -0.04695
v 0.00000 -0.00000 -0.04695
v 0.00000 -0.00000 -0.04695
v -0.11000 0.02000 0.00000
v -0.17500 0.00100 0.05500
v -0.12292 0.00000 -0.01527
v -0.17565 0.00000 0.05424
v -0.11000 -0.02000 -0.00000
v -0.17500 -0.00100 0.05500
v -0.09708 -0.00000 0.01527
v -0.17435 -0.00000 0.05576
v -0.11000 0.02000 0.00000
v -0.17500 0.00100 -0.05500
v -0.09708 0.00000 -0.01527
v -0.17435 0.00000 -0.05576
v -0.11000 -0.02000 -0.00000
v -0.17500 -0.00100 -0.05500
v -0.12292 -0.00000 0.01527
v -0.17565 -0.00000 -0.05424
v 0.00000 0.01600 0.03500
v 0.01000 0.00100 0.10000
v -0.01581 0.00000 0.03743
v 0.00901 0.00000 0.10015
v -0.00000 -0.01600 0.03500
v 0.01000 -0.00100 0.10000
v 0.01581 -0.00000 0.03257
v 0.01099 -0.00000 0.09985
vn 0.04688 0.09301 0.99456
vn 0.03885 0.15873 0.98656
vn 0.02351 0.20736 0.97798
vn 0.00089 0.22794 0.97367
vn -0.02496 0.20441 0.97857
vn -0.04828 0.13009 0.99033
vn -0.06142 0.02021 0.99791
vn -0.06123 -0.08164 0.99478
vn -0.05291 -0.14926 0.98738
vn -0.03934 -0.19229 0.98055
vn -0.01808 -0.21178 0.97715
vn 0.00951 -0.18648 0.98241
vn 0.03447 -0.10578 0.99379
vn 0.04709 0.00169 0.99889
vn 0.12917 0.10283 0.98628
vn 0.10778 0.30073 0.94760
vn 0.06630 0.42788 0.90140
vn 0.01582 0.48212 0.87596
vn -0.03641 0.46309 0.88556
vn -0.08755 0.35640 0.93022
vn -0.12666 0.15346 0.98000
vn -0.13721 -0.09062 0.98639
vn -0.11837 -0.28931 0.94989
vn -0.08066 -0.41419 0.90661
vn -0.03217 -0.46796 0.88316
vn 0.02301 -0.44788 0.89380
vn 0.07831 -0.33888 0.93756
vn 0.11929 -0.13805 0.98322
vn 0.26226 0.11135 0.95855
vn 0.20485 0.48084 0.85254
vn 0.11848 0.66510 0.73729
vn 0.03268 0.73427 0.67807
vn -0.04779 0.72832 0.68357
vn -0.13411 0.62773 0.76679
vn -0.22410 0.34881 0.91001
vn -0.25900 -0.10920 0.95968
vn -0.20914 -0.47574 0.85436
vn -0.12914 -0.66050 0.73964
vn -0.04667 -0.73363 0.67795
vn 0.03995 -0.73030 0.68196
vn 0.13587 -0.63158 0.76332
vn 0.23120 -0.35517 0.90576
vn 0.46245 0.09549 0.88149
vn 0.31193 0.67192 0.67173
vn 0.16109 0.84712 0.50640
vn 0.04450 0.89534 0.44315
vn -0.05513 0.89419 0.44428
vn -0.16740 0.83463 0.52476
vn -0.33337 0.58272 0.74115
vn -0.43907 -0.12741 0.88938
vn -0.30565 -0.66612 0.68034
vn -0.16449 -0.84117 0.51514
vn -0.05322 -0.89724 0.43833
vn 0.05245 -0.90232 0.42786
vn 0.17614 -0.85044 0.49571
vn 0.34919 -0.62291 0.70004
vn 0.76412 0.05961 0.64231
vn 0.40051 0.83825 0.37005
vn 0.18736 0.95369 0.23532
vn 0.05388 0.97812 0.20097
vn -0.05737 0.97723 0.20429
vn -0.18353 0.95206 0.24473
vn -0.42543 0.80724 0.40912
vn -0.73346 -0.13547 0.66609
vn -0.39312 -0.82673 0.40246
vn -0.18554 -0.94491 0.26968
vn -0.05509 -0.97550 0.21297
vn 0.05870 -0.97898 0.19533
vn 0.19223 -0.95547 0.22388
vn 0.42377 -0.82896 0.36504
vn 0.99996 0.00817 0.00411
vn 0.43040 0.90261 -0.00744
vn 0.19403 0.98069 -0.02456
vn 0.06013 0.99793 -0.02274
vn -0.05570 0.99830 -0.01708
vn -0.18563 0.98216 -0.03003
vn -0.44140 0.89577 -0.05246
vn -0.99711 -0.06224 -0.04359
vn -0.44705 -0.89440 0.01357
vn -0.19514 -0.98065 0.01590
vn -0.05480 -0.99849 0.00347
vn 0.06033 -0.99811 -0.01204
vn 0.19227 -0.98116 -0.01897
vn 0.43420 -0.90073 -0.01269
vn 0.76702 -0.03511 -0.64067
vn 0.39897 0.83912 -0.36974
vn 0.18597 0.94883 -0.25522
vn 0.06231 0.97273 -0.22342
vn -0.05164 0.97443 -0.21869
vn -0.18017 0.94566 -0.27069
vn -0.38753 0.81352 -0.43360
vn -0.71766 0.05470 -0.69424
vn -0.43327 -0.80010 -0.41487
vn -0.19404 -0.94793 -0.25255
vn -0.05327 -0.97646 -0.20900
vn 0.05835 -0.97502 -0.21431
vn 0.18062 -0.95119 -0.25023
vn 0.38839 -0.84532 -0.36688
vn 0.46762 -0.05421 -0.88226
vn 0.32399 0.67095 -0.66697
vn 0.16688 0.85878 -0.48440
vn 0.06022 0.90167 -0.42821
vn -0.04387 0.90288 -0.42764
vn -0.16387 0.85150 -0.49810
vn -0.31497 0.65947 -0.68256
vn -0.45233 0.09022 -0.88727
vn -0.35098 -0.58154 -0.73391
vn -0.17817 -0.83203 -0.52533
vn -0.05024 -0.89870 -0.43567
vn 0.05214 -0.90321 -0.42601
vn 0.15682 -0.86269 -0.48081
vn 0.30444 -0.69927 -0.64679
vn 0.27097 -0.06042 -0.96069
vn 0.22491 0.44804 -0.86526
vn 0.13346 0.68649 -0.71479
vn 0.05175 0.75826 -0.64989
vn -0.03212 0.75797 -0.65150
vn -0.12737 0.68358 -0.71867
vn -0.22444 0.47764 -0.84940
vn -0.28212 0.08648 -0.95547
vn -0.24380 -0.35679 -0.90181
vn -0.14449 -0.63085 -0.76234
vn -0.04554 -0.74246 -0.66834
vn 0.03950 -0.76032 -0.64835
vn 0.11974 -0.70274 -0.70130
vn 0.20745 -0.51144 -0.83390
vn 0.13737 -0.05846 -0.98879
vn 0.12535 0.22930 -0.96525
vn 0.08512 0.42726 -0.90011
vn 0.03619 0.51330 -0.85744
vn -0.01766 0.51993 -0.85403
vn -0.07566 0.45215 -0.88872
vn -0.12635 0.30059 -0.94535
vn -0.15200 0.07860 -0.98525
vn -0.14057 -0.16473 -0.97627
vn -0.09679 -0.36619 -0.92549
vn -0.03831 -0.48472 -0.87383
vn 0.01891 -0.51455 -0.85725
vn 0.06954 -0.46230 -0.88399
vn 0.11296 -0.31441 -0.94254
vn 0.05391 -0.05875 -0.99682
vn 0.05384 0.07612 -0.99564
vn 0.04034 0.18581 -0.98176
vn 0.02071 0.24702 -0.96879
vn -0.00355 0.26865 -0.96323
vn -0.03188 0.24335 -0.96941
vn -0.05536 0.17026 -0.98384
vn -0.06693 0.07702 -0.99478
vn -0.06711 -0.02397 -0.99746
vn -0.05394 -0.13357 -0.98957
vn -0.02771 -0.21669 -0.97585
vn 0.00050 -0.24221 -0.97022
vn 0.02280 -0.22206 -0.97477
vn 0.04103 -0.16456 -0.98551
vn 0.18158 -0.97572 -0.12247
vn -0.30434 -0.73006 -0.61188
vn 0.79647 0.02380 0.60421
vn 0.59593 -0.66369 0.45209
vn 0.15084 0.97572 -0.15881
vn 0.55306 0.73006 0.40142
vn -0.46405 -0.02380 -0.88549
vn -0.34721 0.66369 -0.66254
vn 0.15084 -0.97572 0.15881
vn 0.55306 -0.73006 -0.40142
vn -0.46405 0.02380 0.88549
vn -0.34721 -0.66369 0.66254
vn 0.18158 0.97572 0.12247
vn -0.30434 0.73006 0.61188
vn 0.79647 -0.02380 -0.60421
vn 0.59593 0.66369 -0.45209
vn -0.00461 -0.97454 -0.22418
vn -0.67285 -0.73678 -0.06651
vn 0.92940 0.02953 -0.36788
vn 0.70266 -0.65492 -0.27813
vn -0.06299 0.97454 -0.21520
vn 0.62175 0.73678 -0.26568
vn -0.99700 -0.02953 -0.07151
vn -0.75377 0.65492 -0.05406
f 1//1 15//15 16//16
f 1//1 16//16 2//2
f 2//2 16//16 17//17
f 2//2 17//17 3//3
f 3//3 17//17 18//18
f 3//3 18//18 4//4
f 4//4 18//18 19//19
f 4//4 19//19 5//5
f 5//5 19//19 20//20
f 5//5 20//20 6//6
f 6//6 20//20 21//21
f 6//6 21//21 7//7
f 7//7 21//21 22//22
f 7//7 22//22 8//8
f 8//8 22//22 23//23
f 8//8 23//23 9//9
f 9//9 23//23 24//24
f 9//9 24//24 10//10
f 10//10 24//24 25//25
f 10//10 25//25 11//11
f 11//11 25//25 26//26
f 11//11 26//26 12//12
f 12//12 26//26 27//27
f 12//12 27//27 13//13
f 13//13 27//27 28//28
f 13//13 28//28 14//14
f 14//14 28//28 15//15
f 14//14 15//15 1//1
f 15//15 29//29 30//30
f 15//15 30//30 16//16
f 16//16 30//30 31//31
f 16//16 31//31 17//17
f 17//17 31//31 32//32
f 17//17 32//32 18//18
f 18//18 32//32 33//33
f 18//18 33//33 19//19
f 19//19 33//33 34//34
f 19//19 34//34 20//20
f 20//20 34//34 35//35
f 20//20 35//35 21//21
f 21//21 35//35 36//36
f 21//21 36//36 22//22
f 22//22 36//36 37//37
f 22//22 37//37 23//23
f 23//23 37//37 38//38
f 23//23 38//38 24//24
f 24//24 38//38 39//39
f 24//24 39//39 25//25
f 25//25 39//39 40//40
f 25//25 40//40 26//26
f 26//26 40//40 41//41
f 26//26 41//41 27//27
f 27//27 41//41 42//42
f 27//27 42//42 28//28
f 28//28 42//42 29//29
f 28//28 29//29 15//15
f 29//29 43//43 44//44
f 29//29 44//44 30//30
f 30//30 44//44 45//45
f 30//30 45//45 31//31
f 31//31 45//45 46//46
f 31//31 46//46 32//32
f 32//32 46//46 47//47
f 32//32 47//47 33//33
f 33//33 47//47 48//48
f 33//33 48//48 34//34
f 34//34 48//48 49//49
f 34//34 49//49 35//35
f 35//35 49//49 50//50
f 35//35 50//50 36//36
f 36//36 50//50 51//51
f 36//36 51//51 37//37
f 37//37 51//51 52//52
f 37//37 52//52 38//38
f 38//38 52//52 53//53
f 38//38 53//53 39//39
f 39//39 53//53 54//54
f 39//39 54//54 40//40
f 40//40 54//54 55//55
f 40//40 55//55 41//41
f 41//41 55//55 56//56
f 41//41 56//56 42//42
f 42//42 56//56 43//43
f 42//42 43//43 29//29
f 43//43 57//57 58//58
f 43//43 58//58 44//44
f 44//44 58//58 59//59
f 44//44 59//59 45//45
f 45//45 59//59 60//60
f 45//45 60//60 46//46
f 46//46 60//60 61//61
f 46//46 61//61 47//47
f 47//47 61//61 62//62
f 47//47 62//62 48//48
f 48//48 62//62 63//63
f 48//48 63//63 49//49
f 49//49 63//63 64//64
f 49//49 64//64 50//50
f 50//50 64//64 65//65
f 50//50 65//65 51//51
f 51//51 65//65 66//66
f 51//51 66//66 52//52
f 52//52 66//66 67//67
f 52//52 67//67 53//53
f 53//53 67//67 68//68
f 53//53 68//68 54//54
f 54//54 68//68 69//69
f 54//54 69//69 55//55
f 55//55 69//69 70//70
f 55//55 70//70 56//56
f 56//56 70//70 57//57
f 56//56 57//57 43//43
f 57//57 71//71 72//72
f 57//57 72//72 58//58
f 58//58 72//72 73//73
f 58//58 73//73 59//59
f 59//59 73//73 74//74
f 59//59 74//74 60//60
f 60//60 74//74 75//75
f 60//60 75//75 61//61
f 61//61 75//75 76//76
f 61//61 76//76 62//62
f 62//62 76//76 77//77
f 62//62 77//77 63//63
f 63//63 77//77 78//78
f 63//63 78//78 64//64
f 64//64 78//78 79//79
f 64//64 79//79 65//65
f 65//65 79//79 80//80
f 65//65 80//80 66//66
f 66//66 80//80 81//81
f 66//66 81//81 67//67
f 67//67 81//81 82//82
f 67//67 82//82 68//68
f 68//68 82//82 83//83
f 68//68 83//83 69//69
f 69//69 83//83 84//84
f 69//69 84//84 70//70
f 70//70 84//84 71//71
f 70//70 71//71 57//57
f 71//71 85//85 86//86
f 71//71 86//86 72//72
f 72//72 86//86 87//87
f 72//72 87//87 73//73
f 73//73 87//87 88//88
f 73//73 88//88 74//74
f 74//74 88//88 89//89
f 74//74 89//89 75//75
f 75//75 89//89 90//90
f 75//75 90//90 76//76
f 76//76 90//90 91//91
f 76//76 91//91 77//77
f 77//77 91//91 92//92
f 77//77 92//92 78//78
f 78//78 92//92 93//93
f 78//78 93//93 79//79
f 79//79 93//93 94//94
f 79//79 94//94 80//80
f 80//80 94//94 95//95
f 80//80 95//95 81//81
f 81//81 95//95 96//96
f 81//81 96//96 82//82
f 82//82 96//96 97//97
f 82//82 97//97 83//83
f 83//83 97//97 98//98
f 83//83 98//98 84//84
f 84//84 98//98 85//85
f 84//84 85//85 71//71
f 85//85 99//99 100//100
f 85//85 100//100 86//86
f 86//86 100//100 101//101
f 86//86 101//101 87//87
f 87//87 101//101 102//102
f 87//87 102//102 88//88
f 88//88 102//102 103//103
f 88//88 103//103 89//89
f 89//89 103//103 104//104
f 89//89 104//104 90//90
f 90//90 104//104 105//105
f 90//90 105//105 91//91
f 91//91 105//105 106//106
f 91//91 106//106 92//92
f 92//92 106//106 107//107
f 92//92 107//107 93//93
f 93//93 107//107 108//108
f 93//93 108//108 94//94
f 94//94 108//108 109//109
f 94//94 109//109 95//95
f 95//95 109//109 110//110
f 95//95 110//110 96//96
f 96//96 110//110 111//111
f 96//96 111//111 97//97
f 97//97 111//111 112//112
f 97//97 112//112 98//98
f 98//98 112//112 99//99
f 98//98 99//99 85//85
f 99//99 113//113 114//114
f 99//99 114//114 100//100
f 100//100 114//114 115//115
f 100//100 115//115 101//101
f 101//101 115//115 116//116
f 101//101 116//116 102//102
f 102//102 116//116 117//117
f 102//102 117//117 103//103
f 103//103 117//117 118//118
f 103//103 118//118 104//104
f 104//104 118//118 119//119
f 104//104 119//119 105//105
f 105//105 119//119 120//120
f 105//105 120//120 106//106
f 106//106 120//120 121//121
f 106//106 121//121 107//107
f 107//107 121//121 122//122
f 107//107 122//122 108//108
f 108//108 122//122 123//123
f 108//108 123//123 109//109
f 109//109 123//123 124//124
f 109//109 124//124 110//110
f 110//110 124//124 125//125
f 110//110 125//125 111//111
f 111//111 125//125 126//126
f 111//111 126//126 112//112
f 112//112 126//126 113//113
f 112//112 113//113 99//99
f 113//113 127//127 128//128
f 113//113 128//128 114//114
f 114//114 128//128 129//129
f 114//114 129//129 115//115
f 115//115 129//129 130//130
f 115//115 130//130 116//116
f 116//116 130//130 131//131
f 116//116 131//131 117//117
f 117//117 131//131 132//132
f 117//117 132//132 118//118
f 118//118 132//132 133//133
f 118//118 133//133 119//119
f 119//119 133//133 134//134
f 119//119 134//134 120//120
f 120//120 134//134 135//135
f 120//120 135//135 121//121
f 121//121 135//135 136//136
f 121//121 136//136 122//122
f 122//122 136//136 137//137
f 122//122 137//137 123//123
f 123//123 137//137 138//138
f 123//123 138//138 124//124
f 124//124 138//138 139//139
f 124//124 139//139 125//125
f 125//125 139//139 140//140
f 125//125 140//140 126//126
f 126//126 140//140 127//127
f 126//126 127//127 113//113
f 127//127 141//141 142//142
f 127//127 142//142 128//128
f 128//128 142//142 143//143
f 128//128 143//143 129//129
f 129//129 143//143 144//144
f 129//129 144//144 130//130
f 130//130 144//144 145//145
f 130//130 145//145 131//131
f 131//131 145//145 146//146
f 131//131 146//146 132//132
f 132//132 146//146 147//147
f 132//132 147//147 133//133
f 133//133 147//147 148//148
f 133//133 148//148 134//134
f 134//134 148//148 149//149
f 134//134 149//149 135//135
f 135//135 149//149 150//150
f 135//135 150//150 136//136
f 136//136 150//150 151//151
f 136//136 151//151 137//137
f 137//137 151//151 152//152
f 137//137 152//152 138//138
f 138//138 152//152 153//153
f 138//138 153//153 139//139
f 139//139 153//153 154//154
f 139//139 154//154 140//140
f 140//140 154//154 141//141
f 140//140 141//141 127//127
f 155//155 156//156 158//158
f 155//155 158//158 157//157
f 157//157 158//158 160//160
f 157//157 160//160 159//159
f 159//159 160//160 162//162
f 159//159 162//162 161//161
f 161//161 162//162 156//156
f 161//161 156//156 155//155
f 163//163 164//164 166//166
f 163//163 166//166 165//165
f 165//165 166//166 168//168
f 165//165 168//168 167//167
f 167//167 168//168 170//170
f 167//167 170//170 169//169
f 169//169 170//170 164//164
f 169//169 164//164 163//163
f 171//171 172//172 174//174
f 171//171 174//174 173//173
f 173//173 174//174 176//176
f 173//173 176//176 175//175
f 175//175 176//176 178//178
f 175//175 178//178 177//177
f 177//177 178//178 172//172
f 177//177 172//172 171//171
