# generated by scripts/make_rocks.py - demonstrator scenery
v -0.54887 0.82679 0.00000
v 0.52976 0.79800 0.00000
v -0.53883 -0.81167 0.00000
v 0.53426 -0.80478 0.00000
v 0.00000 -0.58357 0.62622
v 0.00000 0.55775 0.59851
v 0.00000 -0.50551 -0.54246
v 0.00000 0.54338 -0.58309
v 0.81778 0.00000 -0.31206
v 0.82572 0.00000 0.31509
v -0.81163 0.00000 -0.30971
v -0.89618 0.00000 0.34198
v -0.93962 0.54064 0.22160
v -0.58489 0.33653 0.58431
v -0.37259 0.90812 0.37222
v 0.38857 0.94707 0.38819
v 0.00000 1.07983 0.00000
v 0.34889 0.85036 -0.34855
v -0.35073 0.85484 -0.35038
v -0.54047 0.31098 -0.53994
v -0.87132 0.50134 -0.20549
v -0.95759 0.00000 0.00000
v 0.58452 0.33632 0.58394
v 0.85266 0.49060 0.20109
v -0.57852 -0.33287 0.57795
v 0.00000 0.00000 0.71104
v -0.82806 -0.47644 -0.19529
v -0.86965 -0.50038 0.20510
v 0.00000 0.00000 -0.62304
v -0.54606 -0.31419 -0.54553
v 0.78662 0.45260 -0.18551
v 0.53991 0.31065 -0.53938
v 0.81260 -0.46755 0.19164
v 0.59822 -0.34420 0.59763
v 0.34264 -0.83512 0.34230
v -0.39758 -0.96904 0.39719
v 0.00000 -0.89347 0.00000
v -0.31588 -0.76990 -0.31557
v 0.27513 -0.67058 -0.27486
v 0.49254 -0.28339 -0.49206
v 0.85974 -0.49467 -0.20276
v 0.97262 0.00000 0.00000
v -0.80019 0.75384 0.11438
v -0.69830 0.76115 0.31198
v -0.48301 0.89405 0.17863
v -0.78097 0.16635 0.47652
v -0.79853 0.45945 0.42110
v -0.99357 0.27867 0.30855
v -0.18387 0.73937 0.49620
v -0.52628 0.67710 0.52576
v -0.31352 0.48729 0.64254
v -0.19160 1.04424 0.19141
v -0.30078 0.98573 0.00000
v 0.19856 0.79845 0.53584
v 0.00000 0.92706 0.37999
v 0.30420 0.99692 0.00000
v 0.19314 1.05260 0.19295
v 0.50378 0.93250 0.18631
v -0.17679 0.96350 -0.17661
v -0.47163 0.87299 -0.17442
v 0.47208 0.87383 -0.17459
v 0.18059 0.98422 -0.18041
v -0.18478 0.74303 -0.49865
v 0.00000 0.90261 -0.36996
v 0.18225 0.73285 -0.49182
v -0.65825 0.71750 -0.29409
v -0.75036 0.70689 -0.10726
v -0.27564 0.42842 -0.56491
v -0.47340 0.60907 -0.47294
v -0.83736 0.23485 -0.26003
v -0.77261 0.44454 -0.40743
v -0.74286 0.15823 -0.45326
v -0.86721 0.49897 0.00000
v -0.86419 0.00000 -0.15158
v -0.93871 0.24155 -0.09901
v -1.06078 0.27296 0.11188
v -1.02512 0.00000 0.17980
v 0.67550 0.73631 0.30180
v 0.71148 0.67027 0.10170
v 0.29925 0.46512 0.61331
v 0.52709 0.67815 0.52658
v 0.87873 0.24646 0.27288
v 0.77871 0.44805 0.41065
v 0.76222 0.16235 0.46507
v -0.29815 0.17155 0.66604
v 0.00000 0.28504 0.66544
v -0.72426 -0.15427 0.44191
v -0.56059 0.00000 0.56005
v 0.00000 -0.30300 0.70739
v -0.30010 -0.17267 0.67039
v -0.33427 -0.51954 0.68507
v -0.97462 -0.25078 0.10279
v -0.94644 -0.26545 0.29391
v -0.84541 -0.23711 -0.26253
v -0.88814 -0.22853 -0.09367
v -0.69398 -0.65378 0.09920
v -0.79392 -0.45681 0.00000
v -0.69412 -0.65391 -0.09922
v -0.55171 0.00000 -0.55117
v -0.76446 -0.16283 -0.46644
v 0.00000 0.27611 -0.64460
v -0.25710 0.14793 -0.57432
v -0.26952 -0.41891 -0.55237
v -0.26421 -0.15202 -0.59022
v 0.00000 -0.25531 -0.59605
v 0.48238 0.62062 -0.48190
v 0.28944 0.44987 -0.59320
v 0.68046 0.64104 -0.09727
v 0.59659 0.65029 -0.26654
v 0.67707 0.14422 -0.41312
v 0.70837 0.40758 -0.37356
v 0.82817 0.23228 -0.25718
v 0.72487 -0.68288 0.10362
v 0.61068 -0.66564 0.27284
v 0.46081 -0.85296 0.17042
v 0.74866 -0.15946 0.45680
v 0.73185 -0.42109 0.38594
v 0.84205 -0.23617 0.26149
v 0.19641 -0.78983 0.53006
v 0.45753 -0.58865 0.45708
v 0.30220 -0.46971 0.61935
v 0.17102 -0.93207 0.17085
v 0.27187 -0.89098 0.00000
v -0.20208 -0.81260 0.54534
v 0.00000 -0.89352 0.36624
v -0.27481 -0.90060 0.00000
v -0.16999 -0.92643 0.16982
v -0.45934 -0.85024 0.16988
v 0.15268 -0.83209 -0.15253
v 0.42829 -0.79276 -0.15839
v -0.43899 -0.81257 -0.16235
v -0.16048 -0.87462 -0.16032
v 0.14276 -0.57409 -0.38527
v 0.00000 -0.71524 -0.29317
v -0.15352 -0.61734 -0.41430
v 0.55335 -0.60316 -0.24722
v 0.75774 -0.71385 -0.10832
v 0.26030 -0.40457 -0.53347
v 0.42692 -0.54926 -0.42650
v 0.93358 -0.26184 -0.28992
v 0.65860 -0.37894 -0.34731
v 0.67826 -0.14447 -0.41385
v 0.90726 -0.52201 0.00000
v 0.90648 0.00000 -0.15900
v 1.00944 -0.25974 -0.10646
v 0.95128 -0.24478 0.10033
v 0.90186 0.00000 0.15818
v 0.29999 -0.17261 0.67015
v 0.58183 0.00000 0.58126
v 0.28792 0.16566 0.64317
v -0.69059 -0.75275 0.30854
v -0.53847 -0.69279 0.53795
v -0.83390 -0.47981 0.43976
v -0.47480 -0.61087 -0.47433
v -0.61231 -0.66742 -0.27356
v -0.77280 -0.44465 -0.40753
v 0.50727 0.00000 -0.50677
v 0.25667 -0.14768 -0.57337
v 0.25827 0.14860 -0.57695
v 0.87059 0.22402 0.09182
v 0.87831 0.22600 -0.09263
v 0.78452 0.45139 0.00000
v -0.67189 0.79642 0.05464
v -0.63976 0.82644 0.14730
v -0.51075 0.84896 0.08541
v -0.86638 0.68612 0.28123
v -0.76292 0.77049 0.21537
v -0.88528 0.65924 0.17082
v -0.43152 0.90399 0.27253
v -0.58886 0.83217 0.24385
v -0.53791 0.83605 0.34268
v -0.83114 0.08004 0.40305
v -0.89902 0.22493 0.40004
v -0.95638 0.13506 0.33073
v -0.67997 0.39124 0.49355
v -0.82295 0.32291 0.46839
v -0.68333 0.24855 0.52747
v -0.99003 0.41897 0.27165
v -0.93188 0.38332 0.37904
v -0.92757 0.53370 0.34304
v -0.09126 0.64504 0.54467
v -0.25565 0.63825 0.58734
v -0.15258 0.52449 0.62105
v -0.45557 0.80673 0.45512
v -0.36215 0.73741 0.53052
v -0.28254 0.84169 0.44650
v -0.46266 0.42110 0.62842
v -0.43677 0.60629 0.61036
v -0.56377 0.50868 0.56322
v -0.75612 0.61431 0.37068
v -0.65572 0.55542 0.46393
v -0.61212 0.71773 0.41539
v -0.38672 0.92894 0.08775
v -0.41373 0.87380 0.00000
v -0.28375 0.98615 0.28347
v -0.34606 0.97986 0.18730
v -0.15746 1.05248 0.00000
v -0.25042 1.02353 0.09328
v -0.09582 1.07136 0.09573
v 0.09446 0.66769 0.56380
v 0.00000 0.74205 0.49800
v 0.19348 0.96743 0.39653
v 0.09942 0.88998 0.46922
v 0.29541 0.88004 0.46684
v -0.09312 0.83354 0.43947
v -0.18734 0.93672 0.38394
v 0.42795 0.90383 0.00000
v 0.40397 0.97039 0.09167
v 0.52095 0.86591 0.08711
v 0.09817 1.09754 0.09807
v 0.25866 1.05723 0.09635
v 0.15592 1.04220 0.00000
v 0.46127 0.96632 0.29132
v 0.37042 1.04882 0.20048
v 0.29422 1.02253 0.29393
v -0.09724 1.00400 0.29144
v 0.09707 1.00220 0.29092
v 0.00000 1.02938 0.18869
v -0.37737 0.90650 -0.08563
v -0.51626 0.85811 -0.08633
v -0.09365 1.04707 -0.09356
v -0.23814 0.97337 -0.08870
v -0.41837 0.87643 -0.26422
v -0.32034 0.90704 -0.17338
v -0.26852 0.93322 -0.26825
v 0.49735 0.82668 -0.08316
v 0.37271 0.89530 -0.08457
v 0.27091 0.94152 -0.27064
v 0.33404 0.94583 -0.18080
v 0.41225 0.86361 -0.26035
v 0.24334 0.99462 -0.09064
v 0.09340 1.04432 -0.09331
v -0.09271 0.65528 -0.55332
v 0.00000 0.76432 -0.51294
v 0.09374 0.66258 -0.55948
v -0.18042 0.90213 -0.36977
v -0.09772 0.87472 -0.46118
v -0.27259 0.81206 -0.43078
v 0.26325 0.78424 -0.41602
v 0.09269 0.82972 -0.43745
v 0.17456 0.87282 -0.35776
v 0.00000 0.99083 -0.18162
v 0.09316 0.96188 -0.27921
v -0.09186 0.94846 -0.27532
v -0.61535 0.79490 -0.14168
v -0.67038 0.79462 -0.05452
v -0.50726 0.78842 -0.32316
v -0.56359 0.79645 -0.23338
v -0.82962 0.61779 -0.16008
v -0.70625 0.71326 -0.19937
v -0.78092 0.61844 -0.25349
v -0.13821 0.47510 -0.56256
v -0.23185 0.57883 -0.53266
v -0.53289 0.48081 -0.53237
v -0.37665 0.52283 -0.52634
v -0.41726 0.37977 -0.56675
v -0.31684 0.64514 -0.46414
v -0.41734 0.73904 -0.41693
v -0.82731 0.11683 -0.28610
v -0.80639 0.20176 -0.35882
v -0.78576 0.07567 -0.38105
v -0.83812 0.48224 -0.30996
v -0.81791 0.33644 -0.33268
v -0.87677 0.37104 -0.24058
v -0.65443 0.23804 -0.50516
v -0.75286 0.29541 -0.42850
v -0.68402 0.39357 -0.49648
v -0.57707 0.67663 -0.39161
v -0.65295 0.55307 -0.46197
v -0.75070 0.60991 -0.36802
v -0.77075 0.72610 0.00000
v -0.87961 0.50611 -0.10112
v -0.82577 0.61115 -0.05302
v -0.85788 0.63492 0.05509
v -0.93405 0.53743 0.10738
v -0.81981 0.00000 -0.22312
v -0.84815 0.11247 -0.20296
v -0.94853 0.11897 -0.04877
v -0.90539 0.11582 -0.12733
v -0.90316 0.00000 -0.07767
v -0.91280 0.24493 -0.18531
v -0.91105 0.36762 -0.15068
v -1.01430 0.13450 0.24272
v -0.97902 0.00000 0.26645
v -1.01850 0.41098 0.16845
v -1.05995 0.28442 0.21518
v -1.01941 0.00000 0.08767
v -1.07630 0.13769 0.15136
v -1.01921 0.12784 0.05240
v -0.93524 0.38109 -0.05207
v -0.98704 0.25398 0.00000
v -0.95519 0.38923 0.05318
v 0.60530 0.78193 0.13937
v 0.61701 0.73136 0.05018
v 0.55270 0.85904 0.35211
v 0.59460 0.84028 0.24622
v 0.77648 0.57822 0.14982
v 0.70558 0.71258 0.19918
v 0.78808 0.62411 0.25581
v 0.15262 0.52464 0.62122
v 0.25236 0.63004 0.57978
v 0.56909 0.51348 0.56854
v 0.41774 0.57987 0.58376
v 0.45102 0.41050 0.61261
v 0.36777 0.74885 0.53875
v 0.46878 0.83013 0.46832
v 0.85019 0.12006 0.29401
v 0.81541 0.20401 0.36284
v 0.80211 0.07725 0.38897
v 0.85612 0.49259 0.31662
v 0.82712 0.34022 0.33643
v 0.87688 0.37109 0.24061
v 0.66877 0.24325 0.51623
v 0.76684 0.30089 0.43646
v 0.67292 0.38718 0.48842
v 0.62851 0.73695 0.42652
v 0.67049 0.56792 0.47438
v 0.73807 0.59964 0.36182
v -0.14718 0.37284 0.63801
v 0.00000 0.42606 0.64102
v -0.45021 0.25904 0.64133
v -0.31014 0.32938 0.66438
v 0.00000 0.14391 0.68523
v -0.14391 0.22208 0.64662
v -0.15007 0.08635 0.68775
v -0.82381 -0.07934 0.39950
v -0.74347 0.00000 0.45363
v -0.57450 -0.16113 0.57394
v -0.63986 -0.07793 0.49696
v -0.66082 -0.24036 0.51010
v -0.66581 0.08109 0.51712
v -0.58372 0.16372 0.58315
v 0.00000 -0.43784 0.65874
v -0.15649 -0.39640 0.67832
v -0.16128 -0.55442 0.65648
v -0.15251 -0.08775 0.69890
v -0.15481 -0.23890 0.69561
v 0.00000 -0.15304 0.72868
v -0.48686 -0.44312 0.66129
v -0.31830 -0.33805 0.68186
v -0.46841 -0.26951 0.66726
v -0.46139 0.08849 0.65085
v -0.45148 -0.08659 0.63687
v -0.29718 0.00000 0.66387
v -0.99269 -0.13164 0.23755
v -0.92443 -0.13055 0.31969
v -0.97423 -0.12220 0.05009
v -1.01919 -0.13038 0.14333
v -0.94587 -0.40028 0.25954
v -0.98122 -0.26329 0.19920
v -0.92674 -0.37395 0.15328
v -0.82423 -0.11640 -0.28503
v -0.83958 -0.11133 -0.20091
v -0.87904 -0.35470 -0.14539
v -0.86467 -0.23202 -0.17554
v -0.86108 -0.36440 -0.23627
v -0.88445 -0.11314 -0.12438
v -0.90373 -0.11336 -0.04646
v -0.61145 -0.72477 0.04972
v -0.70145 -0.66082 0.00000
v -0.62941 -0.74606 -0.05118
v -0.83372 -0.47970 0.09584
v -0.74157 -0.54884 0.04762
v -0.76526 -0.56986 0.14766
v -0.77724 -0.57879 -0.14997
v -0.77624 -0.57450 -0.04984
v -0.84182 -0.48437 -0.09678
v -0.92609 -0.23830 0.00000
v -0.87291 -0.35570 -0.04860
v -0.88868 -0.36212 0.04948
v -0.78935 0.00000 -0.48163
v -0.82518 -0.07947 -0.40016
v -0.53436 0.14987 -0.53384
v -0.65766 0.08010 -0.51078
v -0.67603 -0.24590 -0.52184
v -0.66485 -0.08097 -0.51637
v -0.56590 -0.15872 -0.56535
v 0.00000 0.40368 -0.60736
v -0.13689 0.34677 -0.59339
v -0.13441 0.07734 -0.61595
v -0.13751 0.21220 -0.61786
v 0.00000 0.13757 -0.65502
v -0.27257 0.28948 -0.58389
v -0.40386 0.23237 -0.57530
v -0.13357 -0.45916 -0.54369
v -0.13673 -0.34637 -0.59270
v 0.00000 -0.39407 -0.59289
v -0.41485 -0.23869 -0.59096
v -0.27744 -0.29465 -0.59433
v -0.42007 -0.38234 -0.57058
v 0.00000 -0.12769 -0.60798
v -0.13539 -0.20894 -0.60836
v -0.12858 -0.07398 -0.58923
v -0.39158 0.07510 -0.55238
v -0.26050 0.00000 -0.58193
v -0.40475 -0.07763 -0.57095
v 0.24179 0.60364 -0.55549
v 0.14352 0.49336 -0.58419
v 0.39869 0.70602 -0.39830
v 0.33212 0.67626 -0.48653
v 0.42691 0.38856 -0.57986
v 0.39057 0.54216 -0.54580
v 0.53602 0.48364 -0.53549
v 0.62133 0.73648 -0.05053
v 0.58439 0.75492 -0.13455
v 0.70391 0.55745 -0.22849
v 0.63945 0.64580 -0.18052
v 0.72552 0.54027 -0.13999
v 0.54561 0.77105 -0.22594
v 0.49210 0.76485 -0.31350
v 0.73323 0.07062 -0.35557
v 0.75810 0.18968 -0.33733
v 0.81118 0.11455 -0.28052
v 0.63683 0.36642 -0.46223
v 0.69660 0.27334 -0.39648
v 0.60358 0.21954 -0.46591
v 0.82050 0.34723 -0.22514
v 0.79775 0.32814 -0.32448
v 0.76419 0.43970 -0.28262
v 0.53659 0.62917 -0.36414
v 0.67789 0.55074 -0.33232
v 0.60619 0.51346 -0.42888
v 0.65486 -0.77623 0.05325
v 0.59608 -0.77001 0.13724
v 0.49845 -0.82852 0.08335
v 0.74423 -0.58939 0.24158
v 0.68592 -0.69273 0.19363
v 0.76623 -0.57058 0.14785
v 0.41527 -0.86995 0.26226
v 0.56038 -0.79192 0.23205
v 0.48663 -0.75635 0.31001
v 0.78718 -0.07581 0.38173
v 0.78952 -0.19754 0.35131
v 0.85050 -0.12011 0.29412
v 0.68923 -0.39656 0.50026
v 0.73938 -0.29012 0.42083
v 0.69186 -0.25165 0.53405
v 0.85378 -0.36131 0.23427
v 0.79452 -0.32681 0.32317
v 0.78931 -0.45415 0.29191
v 0.10094 -0.71348 0.60246
v 0.24999 -0.62413 0.57435
v 0.15660 -0.53830 0.63740
v 0.40018 -0.70865 0.39979
v 0.34397 -0.70039 0.50389
v 0.27639 -0.82339 0.43679
v 0.45241 -0.41177 0.61451
v 0.39579 -0.54939 0.55308
v 0.55051 -0.49672 0.54997
v 0.68461 -0.55621 0.33562
v 0.60460 -0.51212 0.42776
v 0.53763 -0.63039 0.36485
v 0.36528 -0.87744 0.08289
v 0.41289 -0.87202 0.00000
v 0.25488 -0.88582 0.25463
v 0.32396 -0.91728 0.17534
v 0.13517 -0.90347 0.00000
v 0.22574 -0.92268 0.08409
v 0.08390 -0.93800 0.08381
v -0.10136 -0.71642 0.60494
v 0.00000 -0.81228 0.54512
v -0.19342 -0.96713 0.39641
v -0.10246 -0.91714 0.48354
v -0.30127 -0.89750 0.47610
v 0.09665 -0.86517 0.45614
v 0.17147 -0.85735 0.35141
v -0.40497 -0.85529 0.00000
v -0.35775 -0.85935 0.08118
v -0.48844 -0.81188 0.08168
v -0.08559 -0.95693 0.08551
v -0.22061 -0.90171 0.08217
v -0.13582 -0.90784 0.00000
v -0.43084 -0.90256 0.27210
v -0.31902 -0.90330 0.17267
v -0.27431 -0.95335 0.27404
v 0.08884 -0.91728 0.26627
v -0.09175 -0.94730 0.27498
v 0.00000 -0.93433 0.17127
v 0.36044 -0.86582 -0.08179
v 0.49639 -0.82510 -0.08301
v 0.07848 -0.87746 -0.07840
v 0.21518 -0.87952 -0.08015
v 0.35460 -0.74285 -0.22395
v 0.29981 -0.84891 -0.16227
v 0.21596 -0.75057 -0.21575
v -0.48087 -0.79929 -0.08041
v -0.36324 -0.87254 -0.08242
v -0.24495 -0.85130 -0.24471
v -0.30288 -0.85759 -0.16393
v -0.38405 -0.80455 -0.24255
v -0.21823 -0.89196 -0.08129
v -0.07885 -0.88161 -0.07877
v 0.07868 -0.55617 -0.46963
v 0.00000 -0.61279 -0.41125
v -0.07911 -0.55920 -0.47218
v 0.13547 -0.67735 -0.27763
v 0.07126 -0.63787 -0.33630
v 0.20608 -0.61391 -0.32566
v -0.23254 -0.69275 -0.36749
v -0.07549 -0.67577 -0.35629
v -0.14836 -0.74183 -0.30406
v 0.00000 -0.84462 -0.15482
v -0.07728 -0.79790 -0.23161
v 0.07383 -0.76225 -0.22126
v 0.58170 -0.75143 -0.13393
v 0.63864 -0.75701 -0.05194
v 0.42178 -0.65557 -0.26870
v 0.48283 -0.68233 -0.19994
v 0.82375 -0.61342 -0.15895
v 0.65105 -0.65751 -0.18379
v 0.71111 -0.56315 -0.23083
v 0.13239 -0.45510 -0.53888
v 0.20831 -0.52005 -0.47857
v 0.47298 -0.42676 -0.47252
v 0.34753 -0.48241 -0.48565
v 0.38714 -0.35236 -0.52585
v 0.27877 -0.56762 -0.40837
v 0.34296 -0.60733 -0.34263
v 0.88318 -0.12472 -0.30542
v 0.80445 -0.20127 -0.35796
v 0.77956 -0.07508 -0.37804
v 0.76168 -0.43826 -0.28169
v 0.79668 -0.32770 -0.32405
v 0.90586 -0.38335 -0.24856
v 0.58847 -0.21405 -0.45425
v 0.68540 -0.26894 -0.39011
v 0.57884 -0.33305 -0.42014
v 0.48216 -0.56534 -0.32720
v 0.53766 -0.45542 -0.38040
v 0.61494 -0.49960 -0.30146
v 0.77091 -0.72625 0.00000
v 0.94307 -0.54262 -0.10842
v 0.88803 -0.65723 -0.05702
v 0.83553 -0.61838 0.05365
v 0.83980 -0.48320 0.09654
v 0.86309 0.00000 -0.23490
v 0.93983 -0.12463 -0.22490
v 1.03319 -0.12959 -0.05312
v 0.96795 -0.12383 -0.13613
v 0.96616 0.00000 -0.08309
v 0.96854 -0.25989 -0.19662
v 0.95895 -0.38695 -0.15860
v 0.89966 -0.11930 0.21528
v 0.86557 0.00000 0.23558
v 0.85547 -0.34519 0.14149
v 0.91597 -0.24578 0.18595
v 0.94496 0.00000 0.08126
v 0.95762 -0.12250 0.13467
v 1.00506 -0.12607 0.05167
v 0.98092 -0.39971 -0.05461
v 1.03543 -0.26643 0.00000
v 0.93813 -0.38227 0.05223
v 0.15360 -0.38908 0.66580
v 0.44508 -0.25609 0.63403
v 0.30702 -0.32606 0.65768
v 0.16076 -0.24808 0.72232
v 0.15742 -0.09058 0.72141
v 0.75329 0.00000 0.45963
v 0.57930 0.16248 0.57873
v 0.69446 0.08458 0.53937
v 0.67924 -0.08273 0.52755
v 0.58754 -0.16479 0.58696
v 0.15031 0.38075 0.65154
v 0.14864 0.08552 0.68116
v 0.14599 0.22529 0.65596
v 0.29790 0.31638 0.63816
v 0.43690 0.25138 0.62237
v 0.43675 -0.08376 0.61609
v 0.42814 0.08211 0.60395
v 0.28483 0.00000 0.63628
v -0.59652 -0.77058 0.13734
v -0.54502 -0.84711 0.34721
v -0.56817 -0.80294 0.23528
v -0.69078 -0.69763 0.19500
v -0.80622 -0.63848 0.26170
v -0.27034 -0.67493 0.62109
v -0.58581 -0.52856 0.58524
v -0.45175 -0.62708 0.63129
v -0.38576 -0.78549 0.56511
v -0.47181 -0.83549 0.47135
v -0.86943 -0.21753 0.38687
v -0.90452 -0.52044 0.33452
v -0.90447 -0.37204 0.36789
v -0.77141 -0.30269 0.43906
v -0.69463 -0.39967 0.50418
v -0.63566 -0.74533 0.43137
v -0.69127 -0.58553 0.48908
v -0.77490 -0.62957 0.37988
v -0.21062 -0.52583 -0.48388
v -0.39369 -0.69717 -0.39331
v -0.30020 -0.61127 -0.43977
v -0.36821 -0.51112 -0.51455
v -0.52400 -0.47280 -0.52349
v -0.57937 -0.74843 -0.13340
v -0.75226 -0.59574 -0.24419
v -0.65963 -0.66618 -0.18621
v -0.52780 -0.74588 -0.21856
v -0.48950 -0.76081 -0.31184
v -0.82887 -0.20738 -0.36882
v -0.67619 -0.38907 -0.49080
v -0.78001 -0.30606 -0.44395
v -0.84393 -0.34714 -0.34327
v -0.81188 -0.46713 -0.30026
v -0.57035 -0.66875 -0.38705
v -0.72212 -0.58668 -0.35400
v -0.63661 -0.53923 -0.45041
v 0.67571 0.00000 -0.41229
v 0.51348 -0.14402 -0.51297
v 0.59651 -0.07265 -0.46329
v 0.60952 0.07424 -0.47340
v 0.52277 0.14662 -0.52226
v 0.13434 -0.34031 -0.58234
v 0.13296 -0.07650 -0.60931
v 0.13325 -0.20564 -0.59876
v 0.25410 -0.26987 -0.54434
v 0.38422 -0.22107 -0.54733
v 0.14055 0.35604 -0.60926
v 0.38813 0.22332 -0.55291
v 0.27217 0.28905 -0.58304
v 0.13804 0.21302 -0.62025
v 0.13443 0.07735 -0.61607
v 0.38863 -0.07454 -0.54822
v 0.25967 0.00000 -0.58007
v 0.38274 0.07341 -0.53991
v 0.85166 0.11294 0.20380
v 0.93757 0.11760 0.04820
v 0.88310 0.11297 0.12419
v 0.86489 0.23208 0.17558
v 0.86781 0.35017 0.14353
v 0.85198 0.11298 -0.20387
v 0.83782 0.33807 -0.13857
v 0.86207 0.23132 -0.17501
v 0.88311 0.11297 -0.12419
v 0.92913 0.11654 -0.04777
v 0.67303 0.63405 0.00000
v 0.80894 0.46545 0.09300
v 0.74644 0.55244 0.04793
v 0.74025 0.54786 -0.04753
v 0.77520 0.44603 -0.08912
v 0.90539 0.23297 0.00000
v 0.84158 0.34293 -0.04685
v 0.83255 0.33925 0.04635
vt 2.52982 1.00000
vt 1.97018 1.00000
vt 0.47018 1.00000
vt 1.02982 1.00000
vt 0.75000 0.47757
vt 2.25000 0.47757
vt 0.75000 1.52243
vt 2.25000 1.52243
vt 1.50000 1.23207
vt 1.50000 0.76793
vt 3.00000 1.23207
vt 3.00000 0.76793
vt 2.75071 0.87163
vt 2.75071 0.54567
vt 2.43590 0.76925
vt 2.06410 0.76925
vt 2.25000 1.00000
vt 2.06410 1.23075
vt 2.43590 1.23075
vt 2.75071 1.45433
vt 2.75071 1.12837
vt 3.00000 1.00000
vt 1.74929 0.54567
vt 1.74929 0.87163
vt 0.24929 0.54567
vt 1.50000 0.00000
vt 0.24929 1.12837
vt 0.24929 0.87163
vt 1.50000 2.00000
vt 0.24929 1.45433
vt 1.74929 1.12837
vt 1.74929 1.45433
vt 1.25071 0.87163
vt 1.25071 0.54567
vt 0.93590 0.76925
vt 0.56410 0.76925
vt 0.75000 1.00000
vt 0.56410 1.23075
vt 0.93590 1.23075
vt 1.25071 1.45433
vt 1.25071 1.12837
vt 1.50000 1.00000
vt 2.63924 0.93400
vt 2.60445 0.81327
vt 2.48650 0.88922
vt 2.89980 0.65747
vt 2.75071 0.72706
vt 2.86944 0.81503
vt 2.36638 0.63250
vt 2.56547 0.64987
vt 2.52297 0.46715
vt 2.33664 0.88644
vt 2.39141 1.00000
vt 2.13362 0.63250
vt 2.25000 0.75236
vt 2.10859 1.00000
vt 2.16336 0.88644
vt 2.01350 0.88922
vt 2.33664 1.11356
vt 2.48650 1.11078
vt 2.01350 1.11078
vt 2.16336 1.11356
vt 2.36638 1.36750
vt 2.25000 1.24764
vt 2.13362 1.36750
vt 2.60445 1.18673
vt 2.63924 1.06600
vt 2.52297 1.53285
vt 2.56547 1.35013
vt 2.86944 1.18497
vt 2.75071 1.27294
vt 2.89980 1.34253
vt 2.75071 1.00000
vt 3.00000 1.11054
vt 2.87975 1.06480
vt 2.87975 0.93520
vt 3.00000 0.88946
vt 1.89555 0.81327
vt 1.86076 0.93400
vt 1.97703 0.46715
vt 1.93453 0.64987
vt 1.63056 0.81503
vt 1.74929 0.72706
vt 1.60020 0.65747
vt 2.75071 0.30350
vt 2.25000 0.25764
vt 0.10020 0.65747
vt 3.00000 0.50031
vt 0.75000 0.25764
vt 0.24929 0.30350
vt 0.47703 0.46715
vt 0.12025 0.93520
vt 0.13056 0.81503
vt 0.13056 1.18497
vt 0.12025 1.06480
vt 0.36076 0.93400
vt 0.24929 1.00000
vt 0.36076 1.06600
vt 3.00000 1.49969
vt 0.10020 1.34253
vt 2.25000 1.74236
vt 2.75071 1.69650
vt 0.47703 1.53285
vt 0.24929 1.69650
vt 0.75000 1.74236
vt 1.93453 1.35013
vt 1.97703 1.53285
vt 1.86076 1.06600
vt 1.89555 1.18673
vt 1.60020 1.34253
vt 1.74929 1.27294
vt 1.63056 1.18497
vt 1.13924 0.93400
vt 1.10445 0.81327
vt 0.98650 0.88922
vt 1.39980 0.65747
vt 1.25071 0.72706
vt 1.36944 0.81503
vt 0.86638 0.63250
vt 1.06547 0.64987
vt 1.02297 0.46715
vt 0.83664 0.88644
vt 0.89141 1.00000
vt 0.63362 0.63250
vt 0.75000 0.75236
vt 0.60859 1.00000
vt 0.66336 0.88644
vt 0.51350 0.88922
vt 0.83664 1.11356
vt 0.98650 1.11078
vt 0.51350 1.11078
vt 0.66336 1.11356
vt 0.86638 1.36750
vt 0.75000 1.24764
vt 0.63362 1.36750
vt 1.10445 1.18673
vt 1.13924 1.06600
vt 1.02297 1.53285
vt 1.06547 1.35013
vt 1.36944 1.18497
vt 1.25071 1.27294
vt 1.39980 1.34253
vt 1.25071 1.00000
vt 1.50000 1.11054
vt 1.37975 1.06480
vt 1.37975 0.93520
vt 1.50000 0.88946
vt 1.25071 0.30350
vt 1.50000 0.50031
vt 1.74929 0.30350
vt 0.39555 0.81327
vt 0.43453 0.64987
vt 0.24929 0.72706
vt 0.43453 1.35013
vt 0.39555 1.18673
vt 0.24929 1.27294
vt 1.50000 1.49969
vt 1.25071 1.69650
vt 1.74929 1.69650
vt 1.62025 0.93520
vt 1.62025 1.06480
vt 1.74929 1.00000
vt 2.58460 0.96665
vt 2.56453 0.91086
vt 2.50860 0.94526
vt 2.68019 0.84137
vt 2.62264 0.87518
vt 2.69439 0.90225
vt 2.46265 0.83089
vt 2.54403 0.85053
vt 2.52297 0.78868
vt 2.95416 0.71370
vt 2.88294 0.74057
vt 2.93302 0.78997
vt 2.75071 0.64250
vt 2.82147 0.68982
vt 2.83343 0.60047
vt 2.80885 0.84243
vt 2.81367 0.77095
vt 2.75071 0.80252
vt 2.31710 0.55669
vt 2.43191 0.54993
vt 2.38517 0.45925
vt 2.49545 0.70931
vt 2.46797 0.63497
vt 2.40463 0.70336
vt 2.64744 0.49857
vt 2.54808 0.56397
vt 2.64951 0.59372
vt 2.67423 0.76854
vt 2.66445 0.68485
vt 2.58716 0.73592
vt 2.43835 0.94462
vt 2.46114 1.00000
vt 2.38377 0.82842
vt 2.41210 0.88647
vt 2.32091 1.00000
vt 2.36457 0.94379
vt 2.29259 0.94349
vt 2.18290 0.55669
vt 2.25000 0.62371
vt 2.15575 0.75671
vt 2.19688 0.69274
vt 2.09537 0.70336
vt 2.30312 0.69274
vt 2.34425 0.75671
vt 2.03886 1.00000
vt 2.06165 0.94462
vt 1.99140 0.94526
vt 2.20741 0.94349
vt 2.13543 0.94379
vt 2.17909 1.00000
vt 2.03735 0.83089
vt 2.08790 0.88647
vt 2.11623 0.82842
vt 2.29610 0.82094
vt 2.20390 0.82094
vt 2.25000 0.88459
vt 2.43835 1.05538
vt 2.50860 1.05474
vt 2.29259 1.05651
vt 2.36457 1.05621
vt 2.46265 1.16911
vt 2.41210 1.11353
vt 2.38377 1.17158
vt 1.99140 1.05474
vt 2.06165 1.05538
vt 2.11623 1.17158
vt 2.08790 1.11353
vt 2.03735 1.16911
vt 2.13543 1.05621
vt 2.20741 1.05651
vt 2.31710 1.44331
vt 2.25000 1.37629
vt 2.18290 1.44331
vt 2.34425 1.24329
vt 2.30312 1.30726
vt 2.40463 1.29664
vt 2.09537 1.29664
vt 2.19688 1.30726
vt 2.15575 1.24329
vt 2.25000 1.11541
vt 2.20390 1.17906
vt 2.29610 1.17906
vt 2.56453 1.08914
vt 2.58460 1.03335
vt 2.52297 1.21132
vt 2.54403 1.14947
vt 2.69439 1.09775
vt 2.62264 1.12482
vt 2.68019 1.15863
vt 2.38517 1.54075
vt 2.43191 1.45007
vt 2.64951 1.40628
vt 2.54808 1.43603
vt 2.64744 1.50143
vt 2.46797 1.36503
vt 2.49545 1.29069
vt 2.93302 1.21003
vt 2.88294 1.25943
vt 2.95416 1.28630
vt 2.75071 1.19748
vt 2.81367 1.22905
vt 2.80885 1.15757
vt 2.83343 1.39953
vt 2.82147 1.31018
vt 2.75071 1.35750
vt 2.58716 1.26408
vt 2.66445 1.31515
vt 2.67423 1.23146
vt 2.63924 1.00000
vt 2.75071 1.06323
vt 2.69579 1.03283
vt 2.69579 0.96717
vt 2.75071 0.93677
vt 3.00000 1.16917
vt 2.93705 1.14828
vt 2.94042 1.03245
vt 2.93925 1.08824
vt 3.00000 1.05461
vt 2.87483 1.12326
vt 2.81688 1.09689
vt 2.93705 0.85172
vt 3.00000 0.83083
vt 2.81688 0.90311
vt 2.87483 0.87674
vt 3.00000 0.94539
vt 2.93925 0.91176
vt 2.94042 0.96755
vt 2.81525 1.03279
vt 2.87975 1.00000
vt 2.81525 0.96721
vt 1.93547 0.91086
vt 1.91540 0.96665
vt 1.97703 0.78868
vt 1.95597 0.85053
vt 1.80561 0.90225
vt 1.87736 0.87518
vt 1.81981 0.84137
vt 2.11483 0.45925
vt 2.06809 0.54993
vt 1.85049 0.59372
vt 1.95192 0.56397
vt 1.85256 0.49857
vt 2.03203 0.63497
vt 2.00455 0.70931
vt 1.56698 0.78997
vt 1.61706 0.74057
vt 1.54584 0.71370
vt 1.74929 0.80252
vt 1.68633 0.77095
vt 1.69115 0.84243
vt 1.66657 0.60047
vt 1.67853 0.68982
vt 1.74929 0.64250
vt 1.91284 0.73592
vt 1.83555 0.68485
vt 1.82577 0.76854
vt 2.42952 0.35711
vt 2.25000 0.37345
vt 2.75071 0.43338
vt 2.61064 0.38059
vt 2.25000 0.13179
vt 2.52453 0.24730
vt 2.75071 0.15701
vt 0.04584 0.71370
vt 3.00000 0.65122
vt 0.13056 0.51236
vt 0.05787 0.58188
vt 0.16657 0.60047
vt 2.94213 0.58188
vt 2.86944 0.51236
vt 0.75000 0.37345
vt 0.57048 0.35711
vt 0.61483 0.45925
vt 0.24929 0.15701
vt 0.47547 0.24730
vt 0.75000 0.13179
vt 0.35256 0.49857
vt 0.38936 0.38059
vt 0.24929 0.43338
vt 2.90952 0.39803
vt 0.09048 0.39803
vt 3.00000 0.26795
vt 0.06295 0.85172
vt 0.06698 0.78997
vt 0.05958 0.96755
vt 0.06075 0.91176
vt 0.19115 0.84243
vt 0.12517 0.87674
vt 0.18312 0.90311
vt 0.06698 1.21003
vt 0.06295 1.14828
vt 0.18312 1.09689
vt 0.12517 1.12326
vt 0.19115 1.15757
vt 0.06075 1.08824
vt 0.05958 1.03245
vt 0.41540 0.96665
vt 0.36076 1.00000
vt 0.41540 1.03335
vt 0.24929 0.93677
vt 0.30421 0.96717
vt 0.30561 0.90225
vt 0.30561 1.09775
vt 0.30421 1.03283
vt 0.24929 1.06323
vt 0.12025 1.00000
vt 0.18475 1.03279
vt 0.18475 0.96721
vt 3.00000 1.34878
vt 0.04584 1.28630
vt 2.86944 1.48764
vt 2.94213 1.41812
vt 0.16657 1.39953
vt 0.05787 1.41812
vt 0.13056 1.48764
vt 2.25000 1.62655
vt 2.42952 1.64289
vt 2.75071 1.84299
vt 2.52453 1.75270
vt 2.25000 1.86821
vt 2.61064 1.61941
vt 2.75071 1.56662
vt 0.61483 1.54075
vt 0.57048 1.64289
vt 0.75000 1.62655
vt 0.24929 1.56662
vt 0.38936 1.61941
vt 0.35256 1.50143
vt 0.75000 1.86821
vt 0.47547 1.75270
vt 0.24929 1.84299
vt 2.90952 1.60197
vt 3.00000 1.73205
vt 0.09048 1.60197
vt 2.06809 1.45007
vt 2.11483 1.54075
vt 2.00455 1.29069
vt 2.03203 1.36503
vt 1.85256 1.50143
vt 1.95192 1.43603
vt 1.85049 1.40628
vt 1.91540 1.03335
vt 1.93547 1.08914
vt 1.81981 1.15863
vt 1.87736 1.12482
vt 1.80561 1.09775
vt 1.95597 1.14947
vt 1.97703 1.21132
vt 1.54584 1.28630
vt 1.61706 1.25943
vt 1.56698 1.21003
vt 1.74929 1.35750
vt 1.67853 1.31018
vt 1.66657 1.39953
vt 1.69115 1.15757
vt 1.68633 1.22905
vt 1.74929 1.19748
vt 1.91284 1.26408
vt 1.82577 1.23146
vt 1.83555 1.31515
vt 1.08460 0.96665
vt 1.06453 0.91086
vt 1.00860 0.94526
vt 1.18019 0.84137
vt 1.12264 0.87518
vt 1.19439 0.90225
vt 0.96265 0.83089
vt 1.04403 0.85053
vt 1.02297 0.78868
vt 1.45416 0.71370
vt 1.38294 0.74057
vt 1.43302 0.78997
vt 1.25071 0.64250
vt 1.32147 0.68982
vt 1.33343 0.60047
vt 1.30885 0.84243
vt 1.31367 0.77095
vt 1.25071 0.80252
vt 0.81710 0.55669
vt 0.93191 0.54993
vt 0.88517 0.45925
vt 0.99545 0.70931
vt 0.96797 0.63497
vt 0.90463 0.70336
vt 1.14744 0.49857
vt 1.04808 0.56397
vt 1.14951 0.59372
vt 1.17423 0.76854
vt 1.16445 0.68485
vt 1.08716 0.73592
vt 0.93835 0.94462
vt 0.96114 1.00000
vt 0.88377 0.82842
vt 0.91210 0.88647
vt 0.82091 1.00000
vt 0.86457 0.94379
vt 0.79259 0.94349
vt 0.68290 0.55669
vt 0.75000 0.62371
vt 0.65575 0.75671
vt 0.69688 0.69274
vt 0.59537 0.70336
vt 0.80312 0.69274
vt 0.84425 0.75671
vt 0.53886 1.00000
vt 0.56165 0.94462
vt 0.49140 0.94526
vt 0.70741 0.94349
vt 0.63543 0.94379
vt 0.67909 1.00000
vt 0.53735 0.83089
vt 0.58790 0.88647
vt 0.61623 0.82842
vt 0.79610 0.82094
vt 0.70390 0.82094
vt 0.75000 0.88459
vt 0.93835 1.05538
vt 1.00860 1.05474
vt 0.79259 1.05651
vt 0.86457 1.05621
vt 0.96265 1.16911
vt 0.91210 1.11353
vt 0.88377 1.17158
vt 0.49140 1.05474
vt 0.56165 1.05538
vt 0.61623 1.17158
vt 0.58790 1.11353
vt 0.53735 1.16911
vt 0.63543 1.05621
vt 0.70741 1.05651
vt 0.81710 1.44331
vt 0.75000 1.37629
vt 0.68290 1.44331
vt 0.84425 1.24329
vt 0.80312 1.30726
vt 0.90463 1.29664
vt 0.59537 1.29664
vt 0.69688 1.30726
vt 0.65575 1.24329
vt 0.75000 1.11541
vt 0.70390 1.17906
vt 0.79610 1.17906
vt 1.06453 1.08914
vt 1.08460 1.03335
vt 1.02297 1.21132
vt 1.04403 1.14947
vt 1.19439 1.09775
vt 1.12264 1.12482
vt 1.18019 1.15863
vt 0.88517 1.54075
vt 0.93191 1.45007
vt 1.14951 1.40628
vt 1.04808 1.43603
vt 1.14744 1.50143
vt 0.96797 1.36503
vt 0.99545 1.29069
vt 1.43302 1.21003
vt 1.38294 1.25943
vt 1.45416 1.28630
vt 1.25071 1.19748
vt 1.31367 1.22905
vt 1.30885 1.15757
vt 1.33343 1.39953
vt 1.32147 1.31018
vt 1.25071 1.35750
vt 1.08716 1.26408
vt 1.16445 1.31515
vt 1.17423 1.23146
vt 1.13924 1.00000
vt 1.25071 1.06323
vt 1.19579 1.03283
vt 1.19579 0.96717
vt 1.25071 0.93677
vt 1.50000 1.16917
vt 1.43705 1.14828
vt 1.44042 1.03245
vt 1.43925 1.08824
vt 1.50000 1.05461
vt 1.37483 1.12326
vt 1.31688 1.09689
vt 1.43705 0.85172
vt 1.50000 0.83083
vt 1.31688 0.90311
vt 1.37483 0.87674
vt 1.50000 0.94539
vt 1.43925 0.91176
vt 1.44042 0.96755
vt 1.31525 1.03279
vt 1.37975 1.00000
vt 1.31525 0.96721
vt 0.92952 0.35711
vt 1.25071 0.43338
vt 1.11064 0.38059
vt 1.02453 0.24730
vt 1.25071 0.15701
vt 1.50000 0.65122
vt 1.63056 0.51236
vt 1.55787 0.58188
vt 1.44213 0.58188
vt 1.36944 0.51236
vt 2.07048 0.35711
vt 1.74929 0.15701
vt 1.97547 0.24730
vt 1.88936 0.38059
vt 1.74929 0.43338
vt 1.40952 0.39803
vt 1.59048 0.39803
vt 1.50000 0.26795
vt 0.43547 0.91086
vt 0.47703 0.78868
vt 0.45597 0.85053
vt 0.37736 0.87518
vt 0.31981 0.84137
vt 0.56809 0.54993
vt 0.35049 0.59372
vt 0.45192 0.56397
vt 0.53203 0.63497
vt 0.50455 0.70931
vt 0.11706 0.74057
vt 0.24929 0.80252
vt 0.18633 0.77095
vt 0.17853 0.68982
vt 0.24929 0.64250
vt 0.41284 0.73592
vt 0.33555 0.68485
vt 0.32577 0.76854
vt 0.56809 1.45007
vt 0.50455 1.29069
vt 0.53203 1.36503
vt 0.45192 1.43603
vt 0.35049 1.40628
vt 0.43547 1.08914
vt 0.31981 1.15863
vt 0.37736 1.12482
vt 0.45597 1.14947
vt 0.47703 1.21132
vt 0.11706 1.25943
vt 0.24929 1.35750
vt 0.17853 1.31018
vt 0.18633 1.22905
vt 0.24929 1.19748
vt 0.41284 1.26408
vt 0.32577 1.23146
vt 0.33555 1.31515
vt 1.50000 1.34878
vt 1.36944 1.48764
vt 1.44213 1.41812
vt 1.55787 1.41812
vt 1.63056 1.48764
vt 0.92952 1.64289
vt 1.25071 1.84299
vt 1.02453 1.75270
vt 1.11064 1.61941
vt 1.25071 1.56662
vt 2.07048 1.64289
vt 1.74929 1.56662
vt 1.88936 1.61941
vt 1.97547 1.75270
vt 1.74929 1.84299
vt 1.40952 1.60197
vt 1.50000 1.73205
vt 1.59048 1.60197
vt 1.56295 0.85172
vt 1.55958 0.96755
vt 1.56075 0.91176
vt 1.62517 0.87674
vt 1.68312 0.90311
vt 1.56295 1.14828
vt 1.68312 1.09689
vt 1.62517 1.12326
vt 1.56075 1.08824
vt 1.55958 1.03245
vt 1.86076 1.00000
vt 1.74929 0.93677
vt 1.80421 0.96717
vt 1.80421 1.03283
vt 1.74929 1.06323
vt 1.62025 1.00000
vt 1.68475 1.03279
vt 1.68475 0.96721
vn -0.30633 0.95119 0.03744
vn 0.66775 0.72387 -0.17359
vn -0.47906 -0.87773 0.00956
vn 0.39931 -0.91320 -0.08134
vn 0.05369 -0.20965 0.97630
vn -0.03987 0.37990 0.92417
vn 0.02379 -0.59119 -0.80618
vn -0.07203 0.16492 -0.98367
vn 0.70482 0.29331 -0.64591
vn 0.88969 -0.03049 0.45555
vn -0.99047 0.07157 -0.11764
vn -0.63277 -0.09162 0.76890
vn -0.89441 0.44295 0.06189
vn -0.48840 0.09005 0.86796
vn -0.29065 0.79274 0.53580
vn 0.28056 0.75436 0.59348
vn -0.00240 0.97972 -0.20034
vn 0.34156 0.61580 -0.71002
vn -0.34395 0.72784 -0.59325
vn -0.26119 0.00968 -0.96524
vn -0.90939 0.31294 -0.27401
vn -0.80750 -0.15013 -0.57044
vn 0.45493 0.05089 0.88907
vn 0.90890 0.34982 -0.22701
vn -0.61105 0.05002 0.79001
vn -0.02544 0.14560 0.98902
vn -0.89735 -0.41126 -0.16009
vn -0.77047 -0.52751 -0.35792
vn -0.03708 -0.15230 -0.98764
vn -0.26898 -0.16343 -0.94918
vn 0.87180 0.48275 -0.08320
vn 0.42828 -0.09127 -0.89902
vn 0.89772 -0.38812 0.20848
vn 0.40597 -0.14811 0.90181
vn 0.34713 -0.77278 0.53132
vn -0.33632 -0.91462 0.22440
vn 0.03354 -0.92243 -0.38471
vn 0.02388 -0.72071 -0.69282
vn 0.03849 -0.64065 -0.76687
vn 0.45025 -0.19381 -0.87161
vn 0.50338 -0.43578 -0.74612
vn 0.93743 0.33064 0.10910
vn -0.60608 0.77747 -0.16797
vn -0.44966 0.69729 0.55821
vn -0.46684 0.88298 -0.04903
vn -0.51892 -0.16552 0.83864
vn -0.40345 0.32263 0.85624
vn -0.79207 -0.01458 0.61026
vn 0.08666 0.53565 0.83998
vn -0.48293 0.46540 0.74174
vn 0.00836 0.19294 0.98117
vn -0.15387 0.95775 0.24299
vn -0.53688 0.81758 -0.20815
vn -0.06346 0.40459 0.91229
vn -0.10340 0.75151 0.65157
vn 0.45663 0.81242 -0.36259
vn -0.02339 0.94814 0.31698
vn 0.69139 0.69579 -0.19455
vn -0.24927 0.91111 -0.32824
vn -0.38388 0.91092 -0.15122
vn 0.59189 0.80371 -0.06096
vn 0.15214 0.93141 -0.33065
vn -0.28221 0.34942 -0.89346
vn 0.08740 0.85502 -0.51118
vn 0.22627 0.57761 -0.78433
vn -0.51549 0.74740 -0.41912
vn -0.67979 0.70068 -0.21664
vn -0.08481 0.21070 -0.97386
vn -0.16365 0.48943 -0.85655
vn -0.87144 -0.11130 -0.47771
vn -0.72099 0.14134 -0.67838
vn -0.69537 0.13739 -0.70540
vn -0.87962 0.38306 -0.28201
vn -0.85383 -0.06398 -0.51661
vn -0.92896 0.00190 -0.37019
vn -0.89059 0.21727 -0.39955
vn -0.94369 -0.15296 0.29335
vn 0.75656 0.60881 0.23868
vn 0.74355 0.57575 -0.34006
vn 0.10050 0.19286 0.97607
vn 0.38256 0.36993 0.84664
vn 0.96505 -0.04660 0.25790
vn 0.69647 0.16229 0.69899
vn 0.76808 0.05673 0.63784
vn -0.06650 0.05143 0.99646
vn -0.03983 0.11490 0.99258
vn -0.48732 0.04012 0.87230
vn -0.56836 -0.07414 0.81944
vn -0.02943 -0.23885 0.97061
vn -0.14896 0.07031 0.98634
vn -0.03296 -0.17147 0.98464
vn -0.88472 -0.33241 -0.32675
vn -0.86358 -0.03750 0.50281
vn -0.97967 0.11328 -0.16557
vn -0.96561 -0.06459 -0.25186
vn -0.77863 -0.60884 -0.15180
vn -0.85492 -0.51410 0.06938
vn -0.69318 -0.70661 -0.14211
vn -0.17982 0.10924 -0.97762
vn -0.64699 -0.07302 -0.75900
vn -0.03259 0.15904 -0.98673
vn -0.19934 -0.04087 -0.97908
vn -0.01412 -0.41523 -0.90961
vn -0.06804 0.07572 -0.99480
vn 0.03797 -0.07697 -0.99631
vn 0.46618 0.62920 -0.62193
vn 0.10352 0.13094 -0.98597
vn 0.82898 0.53717 -0.15568
vn 0.69628 0.58645 -0.41385
vn 0.66242 0.00333 -0.74912
vn 0.69590 0.25663 -0.67072
vn 0.88186 0.01524 -0.47126
vn 0.62857 -0.62711 0.46004
vn 0.52223 -0.55460 0.64784
vn 0.45486 -0.88991 -0.03407
vn 0.84961 -0.06778 0.52304
vn 0.74805 -0.38626 0.53965
vn 0.78855 -0.11526 0.60407
vn 0.29904 -0.59176 0.74859
vn 0.52858 -0.64848 0.54779
vn 0.21524 -0.31223 0.92530
vn 0.08496 -0.98425 0.15500
vn 0.14126 -0.97405 -0.17682
vn -0.01642 -0.53262 0.84619
vn 0.27720 -0.94091 0.19455
vn -0.19932 -0.97992 0.00564
vn -0.10986 -0.98526 -0.13116
vn -0.40663 -0.87348 -0.26773
vn -0.00647 -0.75017 -0.66121
vn 0.30703 -0.64916 -0.69593
vn -0.40227 -0.87698 -0.26284
vn 0.10370 -0.92260 -0.37155
vn 0.15567 -0.84485 -0.51186
vn 0.22459 -0.67923 -0.69872
vn 0.05871 -0.63546 -0.76990
vn 0.29304 -0.61236 -0.73427
vn 0.34556 -0.79132 -0.50438
vn 0.18931 -0.29339 -0.93706
vn 0.35417 -0.68605 -0.63552
vn 0.66654 -0.10827 -0.73757
vn 0.38426 -0.42759 -0.81824
vn 0.41722 -0.07037 -0.90608
vn 0.81662 -0.32270 0.47854
vn 0.82281 0.33033 -0.46246
vn 0.92746 -0.09592 -0.36141
vn 0.77403 -0.26648 0.57434
vn 0.85581 0.24965 0.45306
vn 0.32227 0.07730 0.94349
vn 0.28844 0.02148 0.95726
vn 0.19104 -0.00263 0.98158
vn -0.63384 -0.77342 0.00849
vn -0.49311 -0.46233 0.73695
vn -0.58673 -0.13780 0.79797
vn -0.09651 -0.54245 -0.83453
vn -0.54437 -0.81213 -0.21000
vn -0.67550 -0.35548 -0.64602
vn 0.32859 -0.02939 -0.94402
vn 0.21156 -0.10185 -0.97204
vn 0.27720 -0.03622 -0.96013
vn 0.95128 0.24857 0.18241
vn 0.92874 0.26996 -0.25410
vn 0.90445 0.40539 -0.13277
vn -0.36742 0.91806 -0.14889
vn -0.36447 0.92884 -0.06645
vn -0.37415 0.89785 -0.23212
vn -0.64226 0.61174 0.46182
vn -0.49419 0.85523 0.15603
vn -0.81740 0.56883 -0.09109
vn -0.46514 0.85957 0.21162
vn -0.40768 0.89212 0.19474
vn -0.45528 0.78843 0.41364
vn -0.59429 -0.17884 0.78412
vn -0.64110 -0.13195 0.75603
vn -0.69265 -0.16884 0.70123
vn -0.49377 0.23667 0.83677
vn -0.46180 0.12943 0.87749
vn -0.45995 0.02617 0.88756
vn -0.88269 0.28759 0.37168
vn -0.66076 0.14182 0.73708
vn -0.63930 0.38494 0.66567
vn 0.02004 0.49782 0.86705
vn 0.10756 0.46451 0.87901
vn 0.06697 0.30129 0.95118
vn -0.32389 0.66961 0.66837
vn -0.03911 0.58880 0.80733
vn -0.01001 0.59116 0.80649
vn -0.28505 0.11222 0.95192
vn -0.20794 0.34205 0.91639
vn -0.55734 0.21880 0.80093
vn -0.42842 0.42774 0.79592
vn -0.56487 0.31638 0.76212
vn -0.53697 0.52626 0.65933
vn -0.56135 0.80180 -0.20495
vn -0.50621 0.86083 -0.05229
vn -0.27378 0.87536 0.39849
vn -0.48382 0.87397 0.04573
vn -0.31895 0.92807 -0.19226
vn -0.42490 0.90342 -0.05730
vn -0.15102 0.97781 0.14517
vn -0.11409 0.38311 0.91663
vn -0.17575 0.43148 0.88484
vn -0.04479 0.80877 0.58642
vn -0.16800 0.57860 0.79812
vn 0.11003 0.61307 0.78233
vn -0.07277 0.51487 0.85418
vn -0.04236 0.70112 0.71178
vn 0.59569 0.72448 -0.34681
vn 0.55209 0.75096 -0.36229
vn 0.68244 0.64520 -0.34351
vn 0.03939 0.99328 0.10883
vn 0.29759 0.92810 -0.22375
vn 0.25564 0.92093 -0.29416
vn 0.53871 0.79288 0.28484
vn 0.37876 0.92549 0.00086
vn 0.07639 0.90293 0.42295
vn -0.00914 0.87752 0.47945
vn -0.08825 0.89990 0.42707
vn -0.03380 0.92193 0.38588
vn -0.41515 0.90230 -0.11625
vn -0.37664 0.92533 0.04360
vn -0.18004 0.88579 -0.42774
vn -0.40611 0.84077 -0.35801
vn -0.39832 0.87082 -0.28812
vn -0.32645 0.93777 -0.11838
vn -0.25201 0.93091 -0.26438
vn 0.59858 0.80101 0.00907
vn 0.54329 0.83599 -0.07722
vn 0.24631 0.83362 -0.49438
vn 0.42283 0.89620 -0.13432
vn 0.51228 0.74101 -0.43412
vn 0.40007 0.89243 -0.20860
vn 0.13884 0.92009 -0.36627
vn -0.14929 0.25092 -0.95643
vn 0.05088 0.48407 -0.87355
vn 0.07439 0.32827 -0.94165
vn -0.17315 0.86332 -0.47402
vn -0.05362 0.67461 -0.73623
vn -0.33678 0.50613 -0.79399
vn 0.29101 0.62133 -0.72750
vn 0.23402 0.68892 -0.68602
vn 0.16127 0.71324 -0.68211
vn -0.04752 0.89592 -0.44166
vn 0.05147 0.87631 -0.47899
vn -0.08169 0.92791 -0.36374
vn -0.51815 0.81721 -0.25235
vn -0.47667 0.87077 -0.12061
vn -0.42248 0.70702 -0.56712
vn -0.50701 0.80728 -0.30205
vn -0.80270 0.57127 -0.17123
vn -0.59689 0.75477 -0.27211
vn -0.74671 0.58809 -0.31078
vn -0.15934 0.17136 -0.97224
vn -0.23324 0.27661 -0.93225
vn -0.21022 0.26564 -0.94087
vn -0.10675 0.37906 -0.91919
vn -0.12096 0.14315 -0.98228
vn -0.24637 0.37598 -0.89328
vn -0.28542 0.50678 -0.81345
vn -0.95727 -0.07977 -0.27799
vn -0.89067 -0.01112 -0.45451
vn -0.94882 0.12681 -0.28922
vn -0.86221 0.22708 -0.45280
vn -0.86193 -0.04272 -0.50522
vn -0.88270 0.00357 -0.46991
vn -0.41204 0.00687 -0.91114
vn -0.73624 0.01124 -0.67663
vn -0.46893 0.09952 -0.87761
vn -0.33620 0.61830 -0.71041
vn -0.39137 0.42703 -0.81515
vn -0.61231 0.53266 -0.58425
vn -0.68515 0.67895 -0.26381
vn -0.92912 0.36906 -0.02312
vn -0.87711 0.46394 -0.12424
vn -0.82083 0.43493 -0.37024
vn -0.84156 0.39545 -0.36795
vn -0.95945 -0.02773 -0.28053
vn -0.84409 -0.18870 -0.50190
vn -0.84771 -0.12829 -0.51471
vn -0.85428 -0.20259 -0.47872
vn -0.87135 -0.13371 -0.47208
vn -0.85246 -0.11744 -0.50943
vn -0.94966 0.17391 -0.26060
vn -0.82885 -0.14696 0.53982
vn -0.78625 -0.09589 0.61042
vn -0.89395 0.42151 -0.15223
vn -0.92968 0.10735 0.35238
vn -0.90732 -0.17217 -0.38358
vn -0.98995 -0.14021 0.01852
vn -0.83786 -0.08634 -0.53901
vn -0.92167 0.32420 -0.21310
vn -0.86767 0.13017 -0.47980
vn -0.80719 0.38591 -0.44667
vn 0.70841 0.64951 -0.27620
vn 0.71917 0.65377 -0.23533
vn 0.61657 0.68552 0.38716
vn 0.73491 0.67793 -0.01771
vn 0.81865 0.47577 -0.32166
vn 0.74875 0.64314 -0.16043
vn 0.81198 0.57813 0.08028
vn 0.02345 0.27975 0.95979
vn 0.04350 0.26606 0.96298
vn 0.44238 0.19427 0.87553
vn 0.12968 0.24583 0.96060
vn 0.15853 0.12494 0.97942
vn 0.14466 0.38878 0.90991
vn 0.35644 0.58296 0.73014
vn 0.94095 -0.07263 0.33068
vn 0.85965 0.01085 0.51076
vn 0.88667 -0.06409 0.45793
vn 0.87218 0.27057 0.40755
vn 0.84620 0.00230 0.53286
vn 0.99309 0.04973 0.10627
vn 0.58310 0.12684 0.80244
vn 0.72013 0.08925 0.68808
vn 0.62821 0.10051 0.77153
vn 0.65467 0.50254 0.56467
vn 0.64285 0.26077 0.72024
vn 0.73318 0.45122 0.50877
vn 0.02109 0.10780 0.99395
vn -0.02804 0.21089 0.97711
vn -0.28100 0.04084 0.95884
vn -0.01556 0.07054 0.99739
vn -0.00313 0.18436 0.98285
vn -0.01620 0.13742 0.99038
vn -0.10406 0.13678 0.98512
vn -0.54897 -0.00301 0.83584
vn -0.51152 -0.16104 0.84404
vn -0.60458 0.10749 0.78926
vn -0.58234 -0.01816 0.81274
vn -0.60910 0.11123 0.78525
vn -0.48274 -0.16524 0.86003
vn -0.48966 -0.06515 0.86948
vn 0.05608 -0.23736 0.96980
vn 0.02567 -0.12906 0.99130
vn 0.10002 -0.23334 0.96724
vn -0.17456 0.04263 0.98372
vn -0.12877 -0.05153 0.99034
vn -0.07826 -0.01059 0.99688
vn -0.37041 -0.05678 0.92713
vn -0.07126 0.01229 0.99738
vn -0.34942 0.08720 0.93290
vn -0.31960 -0.03910 0.94674
vn -0.34319 0.05908 0.93741
vn -0.16009 0.00432 0.98709
vn -0.88887 -0.08806 0.44961
vn -0.71315 0.02193 0.70066
vn -0.84403 -0.14629 -0.51595
vn -0.98029 -0.17449 -0.09260
vn -0.95732 -0.28522 0.04669
vn -0.96329 -0.25527 0.08312
vn -0.84225 -0.45517 -0.28885
vn -0.99114 0.10859 -0.07654
vn -0.92885 0.09915 -0.35695
vn -0.98127 -0.16053 -0.10644
vn -0.95715 0.06385 -0.28246
vn -0.97449 -0.12811 -0.18426
vn -0.92523 0.00464 -0.37938
vn -0.88153 -0.07567 -0.46602
vn -0.64406 -0.76197 0.06771
vn -0.77649 -0.61877 0.11915
vn -0.61365 -0.78318 -0.10029
vn -0.72741 -0.57914 -0.36807
vn -0.85132 -0.52424 -0.02075
vn -0.69638 -0.58976 -0.40894
vn -0.75025 -0.65800 -0.06455
vn -0.81755 -0.52967 0.22595
vn -0.90258 -0.40564 0.14422
vn -0.88545 -0.21411 -0.41247
vn -0.93574 -0.35255 -0.00990
vn -0.81034 -0.48773 -0.32475
vn -0.64490 0.10051 -0.75763
vn -0.96961 0.06262 -0.23651
vn -0.21106 0.00518 -0.97746
vn -0.31653 0.09727 -0.94358
vn -0.41962 -0.08421 -0.90378
vn -0.36116 0.02954 -0.93204
vn -0.23082 0.01789 -0.97283
vn -0.07354 0.21675 -0.97345
vn -0.16747 0.20265 -0.96482
vn -0.22869 -0.09749 -0.96860
vn -0.25555 0.04976 -0.96552
vn -0.00425 -0.06071 -0.99815
vn -0.11876 0.05508 -0.99139
vn -0.15573 -0.06045 -0.98595
vn -0.12629 -0.50486 -0.85391
vn -0.04762 -0.22341 -0.97356
vn 0.03336 -0.26433 -0.96385
vn -0.12715 -0.01401 -0.99178
vn -0.05236 -0.13556 -0.98938
vn -0.10423 -0.26347 -0.95902
vn -0.02405 -0.05798 -0.99803
vn -0.03469 -0.00010 -0.99940
vn -0.11369 -0.02528 -0.99319
vn -0.12470 0.02172 -0.99196
vn -0.15105 0.03103 -0.98804
vn -0.09383 0.11171 -0.98930
vn 0.16351 0.36456 -0.91671
vn 0.04186 0.18321 -0.98218
vn 0.43915 0.60101 -0.66779
vn 0.28623 0.59802 -0.74863
vn 0.19123 0.00437 -0.98154
vn 0.20767 0.36216 -0.90869
vn 0.48922 0.26126 -0.83211
vn 0.73342 0.67976 -0.00431
vn 0.75017 0.64227 -0.15724
vn 0.76713 0.60873 -0.20239
vn 0.78170 0.55154 -0.29111
vn 0.84316 0.52311 -0.12423
vn 0.71905 0.58451 -0.37593
vn 0.57960 0.52824 -0.62050
vn 0.63996 0.13538 -0.75639
vn 0.70562 -0.05978 -0.70607
vn 0.78267 0.10077 -0.61422
vn 0.69623 0.07596 -0.71379
vn 0.64342 -0.01609 -0.76535
vn 0.62295 -0.05078 -0.78061
vn 0.92735 0.28160 -0.24644
vn 0.77847 0.11793 -0.61650
vn 0.81706 0.43590 -0.37738
vn 0.57605 0.62411 -0.52787
vn 0.67238 0.55693 -0.48758
vn 0.67545 0.45192 -0.58270
vn 0.42376 -0.89644 0.12969
vn 0.54345 -0.82298 0.16541
vn 0.39386 -0.91885 0.02401
vn 0.73470 -0.53407 0.41832
vn 0.68885 -0.62477 0.36763
vn 0.80353 -0.44573 0.39454
vn 0.34899 -0.83022 0.43467
vn 0.57310 -0.70029 0.42562
vn 0.49099 -0.52446 0.69561
vn 0.87348 -0.06746 0.48216
vn 0.85425 -0.12851 0.50373
vn 0.83522 -0.04155 0.54835
vn 0.73742 -0.41025 0.53657
vn 0.88273 -0.14889 0.44567
vn 0.71287 -0.03530 0.70041
vn 0.88467 -0.27506 0.37642
vn 0.82580 -0.12606 0.54970
vn 0.79409 -0.35952 0.49007
vn 0.14220 -0.35009 0.92586
vn 0.33397 -0.34821 0.87591
vn 0.13307 -0.23682 0.96240
vn 0.58256 -0.55465 0.59414
vn 0.54462 -0.49708 0.67550
vn 0.43379 -0.79253 0.42862
vn 0.19754 -0.29296 0.93550
vn 0.33647 -0.49655 0.80014
vn 0.42780 -0.61614 0.66133
vn 0.55349 -0.55090 0.62463
vn 0.54149 -0.66010 0.52063
vn 0.47690 -0.57377 0.66585
vn 0.31151 -0.94358 -0.11231
vn 0.31322 -0.94821 -0.05278
vn 0.12824 -0.90579 0.40384
vn 0.24046 -0.96821 0.06892
vn 0.02151 -0.95121 -0.30780
vn 0.16892 -0.96582 -0.19662
vn 0.06351 -0.97862 -0.19562
vn 0.02606 -0.37281 0.92754
vn 0.09121 -0.60290 0.79258
vn 0.12380 -0.96852 0.21597
vn 0.12695 -0.80197 0.58372
vn -0.11686 -0.67838 0.72536
vn 0.23813 -0.89941 0.36655
vn 0.19390 -0.94236 0.27271
vn -0.35925 -0.93319 0.00934
vn -0.32373 -0.94179 -0.09074
vn -0.43751 -0.89841 -0.03802
vn -0.07065 -0.98144 -0.17826
vn -0.25931 -0.95835 -0.11967
vn -0.03569 -0.96412 -0.26307
vn -0.42056 -0.85313 -0.30870
vn -0.25627 -0.91394 -0.31470
vn -0.09975 -0.96189 -0.25459
vn 0.16430 -0.94327 0.28854
vn 0.13090 -0.99137 0.00691
vn 0.03705 -0.99608 0.08032
vn 0.20297 -0.92429 -0.32326
vn 0.37441 -0.87229 -0.31454
vn 0.00651 -0.93072 -0.36569
vn 0.01467 -0.94185 -0.33570
vn 0.17961 -0.55782 -0.81029
vn 0.07127 -0.73878 -0.67017
vn 0.00559 -0.58073 -0.81408
vn -0.42190 -0.88133 -0.21272
vn -0.32386 -0.92856 -0.18135
vn 0.04362 -0.80144 -0.59648
vn -0.21063 -0.93567 -0.28313
vn -0.28851 -0.89155 -0.34915
vn -0.04620 -0.97407 -0.22149
vn 0.08277 -0.96214 -0.25967
vn 0.16227 -0.77000 -0.61706
vn 0.16332 -0.77326 -0.61269
vn -0.05614 -0.69810 -0.71379
vn 0.14357 -0.64323 -0.75209
vn 0.25031 -0.71997 -0.64730
vn 0.04285 -0.76019 -0.64828
vn 0.13445 -0.63546 -0.76034
vn 0.16599 -0.69684 -0.69775
vn 0.17793 -0.65528 -0.73413
vn 0.12694 -0.82392 -0.55230
vn 0.22320 -0.71993 -0.65718
vn 0.15194 -0.66885 -0.72771
vn 0.27825 -0.69205 -0.66606
vn 0.33558 -0.92133 -0.19631
vn 0.26999 -0.66660 -0.69480
vn 0.28209 -0.56995 -0.77174
vn 0.41814 -0.53191 -0.73636
vn 0.21819 -0.56931 -0.79264
vn 0.29185 -0.50080 -0.81488
vn 0.19826 -0.47250 -0.85874
vn 0.13232 -0.68704 -0.71447
vn 0.48514 -0.34750 -0.80242
vn 0.16320 -0.50292 -0.84879
vn 0.22385 -0.20910 -0.95193
vn 0.01607 -0.80208 -0.59699
vn 0.12195 -0.80749 -0.57714
vn 0.68414 0.22917 -0.69242
vn 0.42056 -0.12087 -0.89918
vn 0.50635 0.12791 -0.85279
vn 0.33276 -0.45149 -0.82791
vn 0.34908 -0.35899 -0.86560
vn 0.59797 -0.41123 -0.68799
vn 0.49016 -0.17739 -0.85339
vn 0.39788 -0.27741 -0.87449
vn 0.52807 -0.33330 -0.78106
vn 0.42585 -0.67364 -0.60403
vn 0.57045 -0.48792 -0.66070
vn 0.35662 -0.51257 -0.78108
vn 0.50349 -0.84205 0.19354
vn 0.85905 -0.39984 -0.31964
vn 0.76012 -0.64978 -0.00287
vn 0.69197 -0.42306 0.58498
vn 0.76253 -0.30877 0.56851
vn 0.81344 0.32385 -0.48316
vn 0.85949 0.29111 -0.42017
vn 0.96232 0.20554 -0.17805
vn 0.85118 0.22452 -0.47443
vn 0.83689 0.34606 -0.42409
vn 0.91895 -0.04343 -0.39198
vn 0.85092 -0.27958 -0.44472
vn 0.82239 0.04517 0.56712
vn 0.91554 0.11508 0.38542
vn 0.83080 -0.38891 0.39814
vn 0.84409 -0.24402 0.47747
vn 0.85863 0.26651 0.43787
vn 0.85931 0.08128 0.50495
vn 0.89723 0.13518 0.42036
vn 0.93670 -0.33851 0.08940
vn 0.93167 -0.21085 0.29584
vn 0.72293 -0.35644 0.59188
vn 0.11390 -0.28745 0.95100
vn 0.23872 0.00729 0.97106
vn 0.21897 -0.19078 0.95690
vn 0.16266 -0.15707 0.97410
vn 0.22660 0.13963 0.96393
vn 0.80529 -0.07028 0.58871
vn 0.32372 -0.00193 0.94615
vn 0.55305 0.02535 0.83276
vn 0.60280 -0.00818 0.79785
vn 0.35765 0.07295 0.93100
vn 0.07554 0.13090 0.98851
vn 0.19704 0.15978 0.96729
vn 0.10873 0.09230 0.98978
vn 0.11411 0.07564 0.99059
vn 0.20143 -0.02996 0.97904
vn 0.22791 0.10713 0.96777
vn 0.19878 -0.01663 0.97990
vn 0.30814 0.11142 0.94479
vn -0.57927 -0.78594 -0.21622
vn -0.58985 -0.80144 0.09885
vn -0.53083 -0.81662 -0.22660
vn -0.64283 -0.68975 -0.33320
vn -0.72674 -0.65029 -0.22129
vn -0.00375 -0.40336 0.91503
vn -0.56944 -0.15526 0.80724
vn -0.29238 -0.35898 0.88637
vn -0.19509 -0.55121 0.81123
vn -0.44829 -0.63958 0.62448
vn -0.57294 0.06779 0.81679
vn -0.85942 -0.45748 0.22826
vn -0.74862 0.01038 0.66291
vn -0.51250 0.12666 0.84929
vn -0.53841 0.03399 0.84200
vn -0.57724 -0.61173 0.54091
vn -0.55604 -0.31738 0.76817
vn -0.66172 -0.57785 0.47772
vn 0.01973 -0.56802 -0.82278
vn 0.00977 -0.68278 -0.73056
vn 0.13656 -0.56524 -0.81354
vn 0.05447 -0.45106 -0.89083
vn -0.23091 -0.31136 -0.92181
vn -0.52438 -0.81448 -0.24828
vn -0.70754 -0.68150 -0.18693
vn -0.57755 -0.79102 -0.20181
vn -0.49831 -0.83355 -0.23850
vn -0.31925 -0.84437 -0.43026
vn -0.93986 0.02204 -0.34084
vn -0.41301 -0.24900 -0.87603
vn -0.69390 -0.11964 -0.71006
vn -0.92744 -0.12149 -0.35370
vn -0.86796 -0.41505 -0.27274
vn -0.38139 -0.72187 -0.57745
vn -0.62579 -0.64168 -0.44344
vn -0.42249 -0.44797 -0.78793
vn 0.55265 0.03368 -0.83274
vn 0.39655 -0.06057 -0.91601
vn 0.50158 -0.04964 -0.86369
vn 0.53300 -0.04027 -0.84516
vn 0.32637 -0.09918 -0.94002
vn 0.20037 -0.16563 -0.96562
vn 0.14816 -0.06778 -0.98664
vn 0.15812 -0.11897 -0.98023
vn 0.19998 -0.14368 -0.96921
vn 0.21917 -0.12126 -0.96812
vn 0.12056 0.11210 -0.98636
vn 0.18518 -0.13073 -0.97397
vn 0.18032 -0.07118 -0.98103
vn 0.25336 0.01378 -0.96727
vn 0.22806 -0.06110 -0.97173
vn 0.25593 0.01766 -0.96653
vn 0.26299 -0.00561 -0.96478
vn 0.24209 -0.02760 -0.96986
vn 0.98550 0.02746 0.16745
vn 0.91958 0.27479 0.28083
vn 0.88847 0.19177 0.41694
vn 0.99967 -0.02295 0.01143
vn 0.95969 0.15408 -0.23507
vn 0.89924 0.11788 -0.42128
vn 0.92458 0.37459 -0.06948
vn 0.95047 0.13727 -0.27886
vn 0.87353 0.22855 -0.42977
vn 0.91834 0.29983 -0.25837
vn 0.81913 0.55567 -0.14233
vn 0.86275 0.35444 -0.36059
vn 0.84105 0.46120 -0.28273
vn 0.87454 0.47716 -0.08662
vn 0.88520 0.46427 -0.02947
vn 0.91812 0.39507 0.03131
vn 0.88912 0.45450 -0.05371
vn 0.92681 0.36623 -0.08307
f 1/1/1 163/163/163 165/165/165
f 43/43/43 164/164/164 163/163/163
f 45/45/45 165/165/165 164/164/164
f 163/163/163 164/164/164 165/165/165
f 13/13/13 166/166/166 168/168/168
f 44/44/44 167/167/167 166/166/166
f 43/43/43 168/168/168 167/167/167
f 166/166/166 167/167/167 168/168/168
f 15/15/15 169/169/169 171/171/171
f 45/45/45 170/170/170 169/169/169
f 44/44/44 171/171/171 170/170/170
f 169/169/169 170/170/170 171/171/171
f 43/43/43 167/167/167 164/164/164
f 44/44/44 170/170/170 167/167/167
f 45/45/45 164/164/164 170/170/170
f 167/167/167 170/170/170 164/164/164
f 12/12/12 172/172/172 174/174/174
f 46/46/46 173/173/173 172/172/172
f 48/48/48 174/174/174 173/173/173
f 172/172/172 173/173/173 174/174/174
f 14/14/14 175/175/175 177/177/177
f 47/47/47 176/176/176 175/175/175
f 46/46/46 177/177/177 176/176/176
f 175/175/175 176/176/176 177/177/177
f 13/13/13 178/178/178 180/180/180
f 48/48/48 179/179/179 178/178/178
f 47/47/47 180/180/180 179/179/179
f 178/178/178 179/179/179 180/180/180
f 46/46/46 176/176/176 173/173/173
f 47/47/47 179/179/179 176/176/176
f 48/48/48 173/173/173 179/179/179
f 176/176/176 179/179/179 173/173/173
f 6/6/6 181/181/181 183/183/183
f 49/49/49 182/182/182 181/181/181
f 51/51/51 183/183/183 182/182/182
f 181/181/181 182/182/182 183/183/183
f 15/15/15 184/184/184 186/186/186
f 50/50/50 185/185/185 184/184/184
f 49/49/49 186/186/186 185/185/185
f 184/184/184 185/185/185 186/186/186
f 14/14/14 187/187/187 189/189/189
f 51/51/51 188/188/188 187/187/187
f 50/50/50 189/189/189 188/188/188
f 187/187/187 188/188/188 189/189/189
f 49/49/49 185/185/185 182/182/182
f 50/50/50 188/188/188 185/185/185
f 51/51/51 182/182/182 188/188/188
f 185/185/185 188/188/188 182/182/182
f 13/13/13 180/180/180 166/166/166
f 47/47/47 190/190/190 180/180/180
f 44/44/44 166/166/166 190/190/190
f 180/180/180 190/190/190 166/166/166
f 14/14/14 189/189/189 175/175/175
f 50/50/50 191/191/191 189/189/189
f 47/47/47 175/175/175 191/191/191
f 189/189/189 191/191/191 175/175/175
f 15/15/15 171/171/171 184/184/184
f 44/44/44 192/192/192 171/171/171
f 50/50/50 184/184/184 192/192/192
f 171/171/171 192/192/192 184/184/184
f 47/47/47 191/191/191 190/190/190
f 50/50/50 192/192/192 191/191/191
f 44/44/44 190/190/190 192/192/192
f 191/191/191 192/192/192 190/190/190
f 1/1/1 165/165/165 194/194/194
f 45/45/45 193/193/193 165/165/165
f 53/53/53 194/194/194 193/193/193
f 165/165/165 193/193/193 194/194/194
f 15/15/15 195/195/195 169/169/169
f 52/52/52 196/196/196 195/195/195
f 45/45/45 169/169/169 196/196/196
f 195/195/195 196/196/196 169/169/169
f 17/17/17 197/197/197 199/199/199
f 53/53/53 198/198/198 197/197/197
f 52/52/52 199/199/199 198/198/198
f 197/197/197 198/198/198 199/199/199
f 45/45/45 196/196/196 193/193/193
f 52/52/52 198/198/198 196/196/196
f 53/53/53 193/193/193 198/198/198
f 196/196/196 198/198/198 193/193/193
f 6/6/6 200/200/200 181/181/181
f 54/54/54 201/201/201 200/200/200
f 49/49/49 181/181/181 201/201/201
f 200/200/200 201/201/201 181/181/181
f 16/16/16 202/202/202 204/204/204
f 55/55/55 203/203/203 202/202/202
f 54/54/54 204/204/204 203/203/203
f 202/202/202 203/203/203 204/204/204
f 15/15/15 186/186/186 206/206/206
f 49/49/49 205/205/205 186/186/186
f 55/55/55 206/206/206 205/205/205
f 186/186/186 205/205/205 206/206/206
f 54/54/54 203/203/203 201/201/201
f 55/55/55 205/205/205 203/203/203
f 49/49/49 201/201/201 205/205/205
f 203/203/203 205/205/205 201/201/201
f 2/2/2 207/207/207 209/209/209
f 56/56/56 208/208/208 207/207/207
f 58/58/58 209/209/209 208/208/208
f 207/207/207 208/208/208 209/209/209
f 17/17/17 210/210/210 212/212/212
f 57/57/57 211/211/211 210/210/210
f 56/56/56 212/212/212 211/211/211
f 210/210/210 211/211/211 212/212/212
f 16/16/16 213/213/213 215/215/215
f 58/58/58 214/214/214 213/213/213
f 57/57/57 215/215/215 214/214/214
f 213/213/213 214/214/214 215/215/215
f 56/56/56 211/211/211 208/208/208
f 57/57/57 214/214/214 211/211/211
f 58/58/58 208/208/208 214/214/214
f 211/211/211 214/214/214 208/208/208
f 15/15/15 206/206/206 195/195/195
f 55/55/55 216/216/216 206/206/206
f 52/52/52 195/195/195 216/216/216
f 206/206/206 216/216/216 195/195/195
f 16/16/16 215/215/215 202/202/202
f 57/57/57 217/217/217 215/215/215
f 55/55/55 202/202/202 217/217/217
f 215/215/215 217/217/217 202/202/202
f 17/17/17 199/199/199 210/210/210
f 52/52/52 218/218/218 199/199/199
f 57/57/57 210/210/210 218/218/218
f 199/199/199 218/218/218 210/210/210
f 55/55/55 217/217/217 216/216/216
f 57/57/57 218/218/218 217/217/217
f 52/52/52 216/216/216 218/218/218
f 217/217/217 218/218/218 216/216/216
f 1/1/1 194/194/194 220/220/220
f 53/53/53 219/219/219 194/194/194
f 60/60/60 220/220/220 219/219/219
f 194/194/194 219/219/219 220/220/220
f 17/17/17 221/221/221 197/197/197
f 59/59/59 222/222/222 221/221/221
f 53/53/53 197/197/197 222/222/222
f 221/221/221 222/222/222 197/197/197
f 19/19/19 223/223/223 225/225/225
f 60/60/60 224/224/224 223/223/223
f 59/59/59 225/225/225 224/224/224
f 223/223/223 224/224/224 225/225/225
f 53/53/53 222/222/222 219/219/219
f 59/59/59 224/224/224 222/222/222
f 60/60/60 219/219/219 224/224/224
f 222/222/222 224/224/224 219/219/219
f 2/2/2 226/226/226 207/207/207
f 61/61/61 227/227/227 226/226/226
f 56/56/56 207/207/207 227/227/227
f 226/226/226 227/227/227 207/207/207
f 18/18/18 228/228/228 230/230/230
f 62/62/62 229/229/229 228/228/228
f 61/61/61 230/230/230 229/229/229
f 228/228/228 229/229/229 230/230/230
f 17/17/17 212/212/212 232/232/232
f 56/56/56 231/231/231 212/212/212
f 62/62/62 232/232/232 231/231/231
f 212/212/212 231/231/231 232/232/232
f 61/61/61 229/229/229 227/227/227
f 62/62/62 231/231/231 229/229/229
f 56/56/56 227/227/227 231/231/231
f 229/229/229 231/231/231 227/227/227
f 8/8/8 233/233/233 235/235/235
f 63/63/63 234/234/234 233/233/233
f 65/65/65 235/235/235 234/234/234
f 233/233/233 234/234/234 235/235/235
f 19/19/19 236/236/236 238/238/238
f 64/64/64 237/237/237 236/236/236
f 63/63/63 238/238/238 237/237/237
f 236/236/236 237/237/237 238/238/238
f 18/18/18 239/239/239 241/241/241
f 65/65/65 240/240/240 239/239/239
f 64/64/64 241/241/241 240/240/240
f 239/239/239 240/240/240 241/241/241
f 63/63/63 237/237/237 234/234/234
f 64/64/64 240/240/240 237/237/237
f 65/65/65 234/234/234 240/240/240
f 237/237/237 240/240/240 234/234/234
f 17/17/17 232/232/232 221/221/221
f 62/62/62 242/242/242 232/232/232
f 59/59/59 221/221/221 242/242/242
f 232/232/232 242/242/242 221/221/221
f 18/18/18 241/241/241 228/228/228
f 64/64/64 243/243/243 241/241/241
f 62/62/62 228/228/228 243/243/243
f 241/241/241 243/243/243 228/228/228
f 19/19/19 225/225/225 236/236/236
f 59/59/59 244/244/244 225/225/225
f 64/64/64 236/236/236 244/244/244
f 225/225/225 244/244/244 236/236/236
f 62/62/62 243/243/243 242/242/242
f 64/64/64 244/244/244 243/243/243
f 59/59/59 242/242/242 244/244/244
f 243/243/243 244/244/244 242/242/242
f 1/1/1 220/220/220 246/246/246
f 60/60/60 245/245/245 220/220/220
f 67/67/67 246/246/246 245/245/245
f 220/220/220 245/245/245 246/246/246
f 19/19/19 247/247/247 223/223/223
f 66/66/66 248/248/248 247/247/247
f 60/60/60 223/223/223 248/248/248
f 247/247/247 248/248/248 223/223/223
f 21/21/21 249/249/249 251/251/251
f 67/67/67 250/250/250 249/249/249
f 66/66/66 251/251/251 250/250/250
f 249/249/249 250/250/250 251/251/251
f 60/60/60 248/248/248 245/245/245
f 66/66/66 250/250/250 248/248/248
f 67/67/67 245/245/245 250/250/250
f 248/248/248 250/250/250 245/245/245
f 8/8/8 252/252/252 233/233/233
f 68/68/68 253/253/253 252/252/252
f 63/63/63 233/233/233 253/253/253
f 252/252/252 253/253/253 233/233/233
f 20/20/20 254/254/254 256/256/256
f 69/69/69 255/255/255 254/254/254
f 68/68/68 256/256/256 255/255/255
f 254/254/254 255/255/255 256/256/256
f 19/19/19 238/238/238 258/258/258
f 63/63/63 257/257/257 238/238/238
f 69/69/69 258/258/258 257/257/257
f 238/238/238 257/257/257 258/258/258
f 68/68/68 255/255/255 253/253/253
f 69/69/69 257/257/257 255/255/255
f 63/63/63 253/253/253 257/257/257
f 255/255/255 257/257/257 253/253/253
f 11/11/11 259/259/259 261/261/261
f 70/70/70 260/260/260 259/259/259
f 72/72/72 261/261/261 260/260/260
f 259/259/259 260/260/260 261/261/261
f 21/21/21 262/262/262 264/264/264
f 71/71/71 263/263/263 262/262/262
f 70/70/70 264/264/264 263/263/263
f 262/262/262 263/263/263 264/264/264
f 20/20/20 265/265/265 267/267/267
f 72/72/72 266/266/266 265/265/265
f 71/71/71 267/267/267 266/266/266
f 265/265/265 266/266/266 267/267/267
f 70/70/70 263/263/263 260/260/260
f 71/71/71 266/266/266 263/263/263
f 72/72/72 260/260/260 266/266/266
f 263/263/263 266/266/266 260/260/260
f 19/19/19 258/258/258 247/247/247
f 69/69/69 268/268/268 258/258/258
f 66/66/66 247/247/247 268/268/268
f 258/258/258 268/268/268 247/247/247
f 20/20/20 267/267/267 254/254/254
f 71/71/71 269/269/269 267/267/267
f 69/69/69 254/254/254 269/269/269
f 267/267/267 269/269/269 254/254/254
f 21/21/21 251/251/251 262/262/262
f 66/66/66 270/270/270 251/251/251
f 71/71/71 262/262/262 270/270/270
f 251/251/251 270/270/270 262/262/262
f 69/69/69 269/269/269 268/268/268
f 71/71/71 270/270/270 269/269/269
f 66/66/66 268/268/268 270/270/270
f 269/269/269 270/270/270 268/268/268
f 1/1/1 246/246/246 163/163/163
f 67/67/67 271/271/271 246/246/246
f 43/43/43 163/163/163 271/271/271
f 246/246/246 271/271/271 163/163/163
f 21/21/21 272/272/272 249/249/249
f 73/73/73 273/273/273 272/272/272
f 67/67/67 249/249/249 273/273/273
f 272/272/272 273/273/273 249/249/249
f 13/13/13 168/168/168 275/275/275
f 43/43/43 274/274/274 168/168/168
f 73/73/73 275/275/275 274/274/274
f 168/168/168 274/274/274 275/275/275
f 67/67/67 273/273/273 271/271/271
f 73/73/73 274/274/274 273/273/273
f 43/43/43 271/271/271 274/274/274
f 273/273/273 274/274/274 271/271/271
f 11/11/11 276/276/276 259/259/259
f 74/74/74 277/277/277 276/276/276
f 70/70/70 259/259/259 277/277/277
f 276/276/276 277/277/277 259/259/259
f 22/22/22 278/278/278 280/280/280
f 75/75/75 279/279/279 278/278/278
f 74/74/74 280/280/280 279/279/279
f 278/278/278 279/279/279 280/280/280
f 21/21/21 264/264/264 282/282/282
f 70/70/70 281/281/281 264/264/264
f 75/75/75 282/282/282 281/281/281
f 264/264/264 281/281/281 282/282/282
f 74/74/74 279/279/279 277/277/277
f 75/75/75 281/281/281 279/279/279
f 70/70/70 277/277/277 281/281/281
f 279/279/279 281/281/281 277/277/277
f 12/12/12 174/174/174 284/284/284
f 48/48/48 283/283/283 174/174/174
f 77/77/77 284/284/284 283/283/283
f 174/174/174 283/283/283 284/284/284
f 13/13/13 285/285/285 178/178/178
f 76/76/76 286/286/286 285/285/285
f 48/48/48 178/178/178 286/286/286
f 285/285/285 286/286/286 178/178/178
f 22/22/22 287/287/287 289/289/289
f 77/77/77 288/288/288 287/287/287
f 76/76/76 289/289/289 288/288/288
f 287/287/287 288/288/288 289/289/289
f 48/48/48 286/286/286 283/283/283
f 76/76/76 288/288/288 286/286/286
f 77/77/77 283/283/283 288/288/288
f 286/286/286 288/288/288 283/283/283
f 21/21/21 282/282/282 272/272/272
f 75/75/75 290/290/290 282/282/282
f 73/73/73 272/272/272 290/290/290
f 282/282/282 290/290/290 272/272/272
f 22/22/22 289/289/289 278/278/278
f 76/76/76 291/291/291 289/289/289
f 75/75/75 278/278/278 291/291/291
f 289/289/289 291/291/291 278/278/278
f 13/13/13 275/275/275 285/285/285
f 73/73/73 292/292/292 275/275/275
f 76/76/76 285/285/285 292/292/292
f 275/275/275 292/292/292 285/285/285
f 75/75/75 291/291/291 290/290/290
f 76/76/76 292/292/292 291/291/291
f 73/73/73 290/290/290 292/292/292
f 291/291/291 292/292/292 290/290/290
f 2/2/2 209/209/209 294/294/294
f 58/58/58 293/293/293 209/209/209
f 79/79/79 294/294/294 293/293/293
f 209/209/209 293/293/293 294/294/294
f 16/16/16 295/295/295 213/213/213
f 78/78/78 296/296/296 295/295/295
f 58/58/58 213/213/213 296/296/296
f 295/295/295 296/296/296 213/213/213
f 24/24/24 297/297/297 299/299/299
f 79/79/79 298/298/298 297/297/297
f 78/78/78 299/299/299 298/298/298
f 297/297/297 298/298/298 299/299/299
f 58/58/58 296/296/296 293/293/293
f 78/78/78 298/298/298 296/296/296
f 79/79/79 293/293/293 298/298/298
f 296/296/296 298/298/298 293/293/293
f 6/6/6 300/300/300 200/200/200
f 80/80/80 301/301/301 300/300/300
f 54/54/54 200/200/200 301/301/301
f 300/300/300 301/301/301 200/200/200
f 23/23/23 302/302/302 304/304/304
f 81/81/81 303/303/303 302/302/302
f 80/80/80 304/304/304 303/303/303
f 302/302/302 303/303/303 304/304/304
f 16/16/16 204/204/204 306/306/306
f 54/54/54 305/305/305 204/204/204
f 81/81/81 306/306/306 305/305/305
f 204/204/204 305/305/305 306/306/306
f 80/80/80 303/303/303 301/301/301
f 81/81/81 305/305/305 303/303/303
f 54/54/54 301/301/301 305/305/305
f 303/303/303 305/305/305 301/301/301
f 10/10/10 307/307/307 309/309/309
f 82/82/82 308/308/308 307/307/307
f 84/84/84 309/309/309 308/308/308
f 307/307/307 308/308/308 309/309/309
f 24/24/24 310/310/310 312/312/312
f 83/83/83 311/311/311 310/310/310
f 82/82/82 312/312/312 311/311/311
f 310/310/310 311/311/311 312/312/312
f 23/23/23 313/313/313 315/315/315
f 84/84/84 314/314/314 313/313/313
f 83/83/83 315/315/315 314/314/314
f 313/313/313 314/314/314 315/315/315
f 82/82/82 311/311/311 308/308/308
f 83/83/83 314/314/314 311/311/311
f 84/84/84 308/308/308 314/314/314
f 311/311/311 314/314/314 308/308/308
f 16/16/16 306/306/306 295/295/295
f 81/81/81 316/316/316 306/306/306
f 78/78/78 295/295/295 316/316/316
f 306/306/306 316/316/316 295/295/295
f 23/23/23 315/315/315 302/302/302
f 83/83/83 317/317/317 315/315/315
f 81/81/81 302/302/302 317/317/317
f 315/315/315 317/317/317 302/302/302
f 24/24/24 299/299/299 310/310/310
f 78/78/78 318/318/318 299/299/299
f 83/83/83 310/310/310 318/318/318
f 299/299/299 318/318/318 310/310/310
f 81/81/81 317/317/317 316/316/316
f 83/83/83 318/318/318 317/317/317
f 78/78/78 316/316/316 318/318/318
f 317/317/317 318/318/318 316/316/316
f 6/6/6 183/183/183 320/320/320
f 51/51/51 319/319/319 183/183/183
f 86/86/86 320/320/320 319/319/319
f 183/183/183 319/319/319 320/320/320
f 14/14/14 321/321/321 187/187/187
f 85/85/85 322/322/322 321/321/321
f 51/51/51 187/187/187 322/322/322
f 321/321/321 322/322/322 187/187/187
f 26/26/26 323/323/323 325/325/325
f 86/86/86 324/324/324 323/323/323
f 85/85/85 325/325/325 324/324/324
f 323/323/323 324/324/324 325/325/325
f 51/51/51 322/322/322 319/319/319
f 85/85/85 324/324/324 322/322/322
f 86/86/86 319/319/319 324/324/324
f 322/322/322 324/324/324 319/319/319
f 12/12/12 326/326/326 172/172/172
f 87/87/87 327/327/327 326/326/326
f 46/46/46 172/172/172 327/327/327
f 326/326/326 327/327/327 172/172/172
f 25/25/25 328/328/328 330/330/330
f 88/88/88 329/329/329 328/328/328
f 87/87/87 330/330/330 329/329/329
f 328/328/328 329/329/329 330/330/330
f 14/14/14 177/177/177 332/332/332
f 46/46/46 331/331/331 177/177/177
f 88/88/88 332/332/332 331/331/331
f 177/177/177 331/331/331 332/332/332
f 87/87/87 329/329/329 327/327/327
f 88/88/88 331/331/331 329/329/329
f 46/46/46 327/327/327 331/331/331
f 329/329/329 331/331/331 327/327/327
f 5/5/5 333/333/333 335/335/335
f 89/89/89 334/334/334 333/333/333
f 91/91/91 335/335/335 334/334/334
f 333/333/333 334/334/334 335/335/335
f 26/26/26 336/336/336 338/338/338
f 90/90/90 337/337/337 336/336/336
f 89/89/89 338/338/338 337/337/337
f 336/336/336 337/337/337 338/338/338
f 25/25/25 339/339/339 341/341/341
f 91/91/91 340/340/340 339/339/339
f 90/90/90 341/341/341 340/340/340
f 339/339/339 340/340/340 341/341/341
f 89/89/89 337/337/337 334/334/334
f 90/90/90 340/340/340 337/337/337
f 91/91/91 334/334/334 340/340/340
f 337/337/337 340/340/340 334/334/334
f 14/14/14 332/332/332 321/321/321
f 88/88/88 342/342/342 332/332/332
f 85/85/85 321/321/321 342/342/342
f 332/332/332 342/342/342 321/321/321
f 25/25/25 341/341/341 328/328/328
f 90/90/90 343/343/343 341/341/341
f 88/88/88 328/328/328 343/343/343
f 341/341/341 343/343/343 328/328/328
f 26/26/26 325/325/325 336/336/336
f 85/85/85 344/344/344 325/325/325
f 90/90/90 336/336/336 344/344/344
f 325/325/325 344/344/344 336/336/336
f 88/88/88 343/343/343 342/342/342
f 90/90/90 344/344/344 343/343/343
f 85/85/85 342/342/342 344/344/344
f 343/343/343 344/344/344 342/342/342
f 12/12/12 284/284/284 346/346/346
f 77/77/77 345/345/345 284/284/284
f 93/93/93 346/346/346 345/345/345
f 284/284/284 345/345/345 346/346/346
f 22/22/22 347/347/347 287/287/287
f 92/92/92 348/348/348 347/347/347
f 77/77/77 287/287/287 348/348/348
f 347/347/347 348/348/348 287/287/287
f 28/28/28 349/349/349 351/351/351
f 93/93/93 350/350/350 349/349/349
f 92/92/92 351/351/351 350/350/350
f 349/349/349 350/350/350 351/351/351
f 77/77/77 348/348/348 345/345/345
f 92/92/92 350/350/350 348/348/348
f 93/93/93 345/345/345 350/350/350
f 348/348/348 350/350/350 345/345/345
f 11/11/11 352/352/352 276/276/276
f 94/94/94 353/353/353 352/352/352
f 74/74/74 276/276/276 353/353/353
f 352/352/352 353/353/353 276/276/276
f 27/27/27 354/354/354 356/356/356
f 95/95/95 355/355/355 354/354/354
f 94/94/94 356/356/356 355/355/355
f 354/354/354 355/355/355 356/356/356
f 22/22/22 280/280/280 358/358/358
f 74/74/74 357/357/357 280/280/280
f 95/95/95 358/358/358 357/357/357
f 280/280/280 357/357/357 358/358/358
f 94/94/94 355/355/355 353/353/353
f 95/95/95 357/357/357 355/355/355
f 74/74/74 353/353/353 357/357/357
f 355/355/355 357/357/357 353/353/353
f 3/3/3 359/359/359 361/361/361
f 96/96/96 360/360/360 359/359/359
f 98/98/98 361/361/361 360/360/360
f 359/359/359 360/360/360 361/361/361
f 28/28/28 362/362/362 364/364/364
f 97/97/97 363/363/363 362/362/362
f 96/96/96 364/364/364 363/363/363
f 362/362/362 363/363/363 364/364/364
f 27/27/27 365/365/365 367/367/367
f 98/98/98 366/366/366 365/365/365
f 97/97/97 367/367/367 366/366/366
f 365/365/365 366/366/366 367/367/367
f 96/96/96 363/363/363 360/360/360
f 97/97/97 366/366/366 363/363/363
f 98/98/98 360/360/360 366/366/366
f 363/363/363 366/366/366 360/360/360
f 22/22/22 358/358/358 347/347/347
f 95/95/95 368/368/368 358/358/358
f 92/92/92 347/347/347 368/368/368
f 358/358/358 368/368/368 347/347/347
f 27/27/27 367/367/367 354/354/354
f 97/97/97 369/369/369 367/367/367
f 95/95/95 354/354/354 369/369/369
f 367/367/367 369/369/369 354/354/354
f 28/28/28 351/351/351 362/362/362
f 92/92/92 370/370/370 351/351/351
f 97/97/97 362/362/362 370/370/370
f 351/351/351 370/370/370 362/362/362
f 95/95/95 369/369/369 368/368/368
f 97/97/97 370/370/370 369/369/369
f 92/92/92 368/368/368 370/370/370
f 369/369/369 370/370/370 368/368/368
f 11/11/11 261/261/261 372/372/372
f 72/72/72 371/371/371 261/261/261
f 100/100/100 372/372/372 371/371/371
f 261/261/261 371/371/371 372/372/372
f 20/20/20 373/373/373 265/265/265
f 99/99/99 374/374/374 373/373/373
f 72/72/72 265/265/265 374/374/374
f 373/373/373 374/374/374 265/265/265
f 30/30/30 375/375/375 377/377/377
f 100/100/100 376/376/376 375/375/375
f 99/99/99 377/377/377 376/376/376
f 375/375/375 376/376/376 377/377/377
f 72/72/72 374/374/374 371/371/371
f 99/99/99 376/376/376 374/374/374
f 100/100/100 371/371/371 376/376/376
f 374/374/374 376/376/376 371/371/371
f 8/8/8 378/378/378 252/252/252
f 101/101/101 379/379/379 378/378/378
f 68/68/68 252/252/252 379/379/379
f 378/378/378 379/379/379 252/252/252
f 29/29/29 380/380/380 382/382/382
f 102/102/102 381/381/381 380/380/380
f 101/101/101 382/382/382 381/381/381
f 380/380/380 381/381/381 382/382/382
f 20/20/20 256/256/256 384/384/384
f 68/68/68 383/383/383 256/256/256
f 102/102/102 384/384/384 383/383/383
f 256/256/256 383/383/383 384/384/384
f 101/101/101 381/381/381 379/379/379
f 102/102/102 383/383/383 381/381/381
f 68/68/68 379/379/379 383/383/383
f 381/381/381 383/383/383 379/379/379
f 7/7/7 385/385/385 387/387/387
f 103/103/103 386/386/386 385/385/385
f 105/105/105 387/387/387 386/386/386
f 385/385/385 386/386/386 387/387/387
f 30/30/30 388/388/388 390/390/390
f 104/104/104 389/389/389 388/388/388
f 103/103/103 390/390/390 389/389/389
f 388/388/388 389/389/389 390/390/390
f 29/29/29 391/391/391 393/393/393
f 105/105/105 392/392/392 391/391/391
f 104/104/104 393/393/393 392/392/392
f 391/391/391 392/392/392 393/393/393
f 103/103/103 389/389/389 386/386/386
f 104/104/104 392/392/392 389/389/389
f 105/105/105 386/386/386 392/392/392
f 389/389/389 392/392/392 386/386/386
f 20/20/20 384/384/384 373/373/373
f 102/102/102 394/394/394 384/384/384
f 99/99/99 373/373/373 394/394/394
f 384/384/384 394/394/394 373/373/373
f 29/29/29 393/393/393 380/380/380
f 104/104/104 395/395/395 393/393/393
f 102/102/102 380/380/380 395/395/395
f 393/393/393 395/395/395 380/380/380
f 30/30/30 377/377/377 388/388/388
f 99/99/99 396/396/396 377/377/377
f 104/104/104 388/388/388 396/396/396
f 377/377/377 396/396/396 388/388/388
f 102/102/102 395/395/395 394/394/394
f 104/104/104 396/396/396 395/395/395
f 99/99/99 394/394/394 396/396/396
f 395/395/395 396/396/396 394/394/394
f 8/8/8 235/235/235 398/398/398
f 65/65/65 397/397/397 235/235/235
f 107/107/107 398/398/398 397/397/397
f 235/235/235 397/397/397 398/398/398
f 18/18/18 399/399/399 239/239/239
f 106/106/106 400/400/400 399/399/399
f 65/65/65 239/239/239 400/400/400
f 399/399/399 400/400/400 239/239/239
f 32/32/32 401/401/401 403/403/403
f 107/107/107 402/402/402 401/401/401
f 106/106/106 403/403/403 402/402/402
f 401/401/401 402/402/402 403/403/403
f 65/65/65 400/400/400 397/397/397
f 106/106/106 402/402/402 400/400/400
f 107/107/107 397/397/397 402/402/402
f 400/400/400 402/402/402 397/397/397
f 2/2/2 404/404/404 226/226/226
f 108/108/108 405/405/405 404/404/404
f 61/61/61 226/226/226 405/405/405
f 404/404/404 405/405/405 226/226/226
f 31/31/31 406/406/406 408/408/408
f 109/109/109 407/407/407 406/406/406
f 108/108/108 408/408/408 407/407/407
f 406/406/406 407/407/407 408/408/408
f 18/18/18 230/230/230 410/410/410
f 61/61/61 409/409/409 230/230/230
f 109/109/109 410/410/410 409/409/409
f 230/230/230 409/409/409 410/410/410
f 108/108/108 407/407/407 405/405/405
f 109/109/109 409/409/409 407/407/407
f 61/61/61 405/405/405 409/409/409
f 407/407/407 409/409/409 405/405/405
f 9/9/9 411/411/411 413/413/413
f 110/110/110 412/412/412 411/411/411
f 112/112/112 413/413/413 412/412/412
f 411/411/411 412/412/412 413/413/413
f 32/32/32 414/414/414 416/416/416
f 111/111/111 415/415/415 414/414/414
f 110/110/110 416/416/416 415/415/415
f 414/414/414 415/415/415 416/416/416
f 31/31/31 417/417/417 419/419/419
f 112/112/112 418/418/418 417/417/417
f 111/111/111 419/419/419 418/418/418
f 417/417/417 418/418/418 419/419/419
f 110/110/110 415/415/415 412/412/412
f 111/111/111 418/418/418 415/415/415
f 112/112/112 412/412/412 418/418/418
f 415/415/415 418/418/418 412/412/412
f 18/18/18 410/410/410 399/399/399
f 109/109/109 420/420/420 410/410/410
f 106/106/106 399/399/399 420/420/420
f 410/410/410 420/420/420 399/399/399
f 31/31/31 419/419/419 406/406/406
f 111/111/111 421/421/421 419/419/419
f 109/109/109 406/406/406 421/421/421
f 419/419/419 421/421/421 406/406/406
f 32/32/32 403/403/403 414/414/414
f 106/106/106 422/422/422 403/403/403
f 111/111/111 414/414/414 422/422/422
f 403/403/403 422/422/422 414/414/414
f 109/109/109 421/421/421 420/420/420
f 111/111/111 422/422/422 421/421/421
f 106/106/106 420/420/420 422/422/422
f 421/421/421 422/422/422 420/420/420
f 4/4/4 423/423/423 425/425/425
f 113/113/113 424/424/424 423/423/423
f 115/115/115 425/425/425 424/424/424
f 423/423/423 424/424/424 425/425/425
f 33/33/33 426/426/426 428/428/428
f 114/114/114 427/427/427 426/426/426
f 113/113/113 428/428/428 427/427/427
f 426/426/426 427/427/427 428/428/428
f 35/35/35 429/429/429 431/431/431
f 115/115/115 430/430/430 429/429/429
f 114/114/114 431/431/431 430/430/430
f 429/429/429 430/430/430 431/431/431
f 113/113/113 427/427/427 424/424/424
f 114/114/114 430/430/430 427/427/427
f 115/115/115 424/424/424 430/430/430
f 427/427/427 430/430/430 424/424/424
f 10/10/10 432/432/432 434/434/434
f 116/116/116 433/433/433 432/432/432
f 118/118/118 434/434/434 433/433/433
f 432/432/432 433/433/433 434/434/434
f 34/34/34 435/435/435 437/437/437
f 117/117/117 436/436/436 435/435/435
f 116/116/116 437/437/437 436/436/436
f 435/435/435 436/436/436 437/437/437
f 33/33/33 438/438/438 440/440/440
f 118/118/118 439/439/439 438/438/438
f 117/117/117 440/440/440 439/439/439
f 438/438/438 439/439/439 440/440/440
f 116/116/116 436/436/436 433/433/433
f 117/117/117 439/439/439 436/436/436
f 118/118/118 433/433/433 439/439/439
f 436/436/436 439/439/439 433/433/433
f 5/5/5 441/441/441 443/443/443
f 119/119/119 442/442/442 441/441/441
f 121/121/121 443/443/443 442/442/442
f 441/441/441 442/442/442 443/443/443
f 35/35/35 444/444/444 446/446/446
f 120/120/120 445/445/445 444/444/444
f 119/119/119 446/446/446 445/445/445
f 444/444/444 445/445/445 446/446/446
f 34/34/34 447/447/447 449/449/449
f 121/121/121 448/448/448 447/447/447
f 120/120/120 449/449/449 448/448/448
f 447/447/447 448/448/448 449/449/449
f 119/119/119 445/445/445 442/442/442
f 120/120/120 448/448/448 445/445/445
f 121/121/121 442/442/442 448/448/448
f 445/445/445 448/448/448 442/442/442
f 33/33/33 440/440/440 426/426/426
f 117/117/117 450/450/450 440/440/440
f 114/114/114 426/426/426 450/450/450
f 440/440/440 450/450/450 426/426/426
f 34/34/34 449/449/449 435/435/435
f 120/120/120 451/451/451 449/449/449
f 117/117/117 435/435/435 451/451/451
f 449/449/449 451/451/451 435/435/435
f 35/35/35 431/431/431 444/444/444
f 114/114/114 452/452/452 431/431/431
f 120/120/120 444/444/444 452/452/452
f 431/431/431 452/452/452 444/444/444
f 117/117/117 451/451/451 450/450/450
f 120/120/120 452/452/452 451/451/451
f 114/114/114 450/450/450 452/452/452
f 451/451/451 452/452/452 450/450/450
f 4/4/4 425/425/425 454/454/454
f 115/115/115 453/453/453 425/425/425
f 123/123/123 454/454/454 453/453/453
f 425/425/425 453/453/453 454/454/454
f 35/35/35 455/455/455 429/429/429
f 122/122/122 456/456/456 455/455/455
f 115/115/115 429/429/429 456/456/456
f 455/455/455 456/456/456 429/429/429
f 37/37/37 457/457/457 459/459/459
f 123/123/123 458/458/458 457/457/457
f 122/122/122 459/459/459 458/458/458
f 457/457/457 458/458/458 459/459/459
f 115/115/115 456/456/456 453/453/453
f 122/122/122 458/458/458 456/456/456
f 123/123/123 453/453/453 458/458/458
f 456/456/456 458/458/458 453/453/453
f 5/5/5 460/460/460 441/441/441
f 124/124/124 461/461/461 460/460/460
f 119/119/119 441/441/441 461/461/461
f 460/460/460 461/461/461 441/441/441
f 36/36/36 462/462/462 464/464/464
f 125/125/125 463/463/463 462/462/462
f 124/124/124 464/464/464 463/463/463
f 462/462/462 463/463/463 464/464/464
f 35/35/35 446/446/446 466/466/466
f 119/119/119 465/465/465 446/446/446
f 125/125/125 466/466/466 465/465/465
f 446/446/446 465/465/465 466/466/466
f 124/124/124 463/463/463 461/461/461
f 125/125/125 465/465/465 463/463/463
f 119/119/119 461/461/461 465/465/465
f 463/463/463 465/465/465 461/461/461
f 3/3/3 467/467/467 469/469/469
f 126/126/126 468/468/468 467/467/467
f 128/128/128 469/469/469 468/468/468
f 467/467/467 468/468/468 469/469/469
f 37/37/37 470/470/470 472/472/472
f 127/127/127 471/471/471 470/470/470
f 126/126/126 472/472/472 471/471/471
f 470/470/470 471/471/471 472/472/472
f 36/36/36 473/473/473 475/475/475
f 128/128/128 474/474/474 473/473/473
f 127/127/127 475/475/475 474/474/474
f 473/473/473 474/474/474 475/475/475
f 126/126/126 471/471/471 468/468/468
f 127/127/127 474/474/474 471/471/471
f 128/128/128 468/468/468 474/474/474
f 471/471/471 474/474/474 468/468/468
f 35/35/35 466/466/466 455/455/455
f 125/125/125 476/476/476 466/466/466
f 122/122/122 455/455/455 476/476/476
f 466/466/466 476/476/476 455/455/455
f 36/36/36 475/475/475 462/462/462
f 127/127/127 477/477/477 475/475/475
f 125/125/125 462/462/462 477/477/477
f 475/475/475 477/477/477 462/462/462
f 37/37/37 459/459/459 470/470/470
f 122/122/122 478/478/478 459/459/459
f 127/127/127 470/470/470 478/478/478
f 459/459/459 478/478/478 470/470/470
f 125/125/125 477/477/477 476/476/476
f 127/127/127 478/478/478 477/477/477
f 122/122/122 476/476/476 478/478/478
f 477/477/477 478/478/478 476/476/476
f 4/4/4 454/454/454 480/480/480
f 123/123/123 479/479/479 454/454/454
f 130/130/130 480/480/480 479/479/479
f 454/454/454 479/479/479 480/480/480
f 37/37/37 481/481/481 457/457/457
f 129/129/129 482/482/482 481/481/481
f 123/123/123 457/457/457 482/482/482
f 481/481/481 482/482/482 457/457/457
f 39/39/39 483/483/483 485/485/485
f 130/130/130 484/484/484 483/483/483
f 129/129/129 485/485/485 484/484/484
f 483/483/483 484/484/484 485/485/485
f 123/123/123 482/482/482 479/479/479
f 129/129/129 484/484/484 482/482/482
f 130/130/130 479/479/479 484/484/484
f 482/482/482 484/484/484 479/479/479
f 3/3/3 486/486/486 467/467/467
f 131/131/131 487/487/487 486/486/486
f 126/126/126 467/467/467 487/487/487
f 486/486/486 487/487/487 467/467/467
f 38/38/38 488/488/488 490/490/490
f 132/132/132 489/489/489 488/488/488
f 131/131/131 490/490/490 489/489/489
f 488/488/488 489/489/489 490/490/490
f 37/37/37 472/472/472 492/492/492
f 126/126/126 491/491/491 472/472/472
f 132/132/132 492/492/492 491/491/491
f 472/472/472 491/491/491 492/492/492
f 131/131/131 489/489/489 487/487/487
f 132/132/132 491/491/491 489/489/489
f 126/126/126 487/487/487 491/491/491
f 489/489/489 491/491/491 487/487/487
f 7/7/7 493/493/493 495/495/495
f 133/133/133 494/494/494 493/493/493
f 135/135/135 495/495/495 494/494/494
f 493/493/493 494/494/494 495/495/495
f 39/39/39 496/496/496 498/498/498
f 134/134/134 497/497/497 496/496/496
f 133/133/133 498/498/498 497/497/497
f 496/496/496 497/497/497 498/498/498
f 38/38/38 499/499/499 501/501/501
f 135/135/135 500/500/500 499/499/499
f 134/134/134 501/501/501 500/500/500
f 499/499/499 500/500/500 501/501/501
f 133/133/133 497/497/497 494/494/494
f 134/134/134 500/500/500 497/497/497
f 135/135/135 494/494/494 500/500/500
f 497/497/497 500/500/500 494/494/494
f 37/37/37 492/492/492 481/481/481
f 132/132/132 502/502/502 492/492/492
f 129/129/129 481/481/481 502/502/502
f 492/492/492 502/502/502 481/481/481
f 38/38/38 501/501/501 488/488/488
f 134/134/134 503/503/503 501/501/501
f 132/132/132 488/488/488 503/503/503
f 501/501/501 503/503/503 488/488/488
f 39/39/39 485/485/485 496/496/496
f 129/129/129 504/504/504 485/485/485
f 134/134/134 496/496/496 504/504/504
f 485/485/485 504/504/504 496/496/496
f 132/132/132 503/503/503 502/502/502
f 134/134/134 504/504/504 503/503/503
f 129/129/129 502/502/502 504/504/504
f 503/503/503 504/504/504 502/502/502
f 4/4/4 480/480/480 506/506/506
f 130/130/130 505/505/505 480/480/480
f 137/137/137 506/506/506 505/505/505
f 480/480/480 505/505/505 506/506/506
f 39/39/39 507/507/507 483/483/483
f 136/136/136 508/508/508 507/507/507
f 130/130/130 483/483/483 508/508/508
f 507/507/507 508/508/508 483/483/483
f 41/41/41 509/509/509 511/511/511
f 137/137/137 510/510/510 509/509/509
f 136/136/136 511/511/511 510/510/510
f 509/509/509 510/510/510 511/511/511
f 130/130/130 508/508/508 505/505/505
f 136/136/136 510/510/510 508/508/508
f 137/137/137 505/505/505 510/510/510
f 508/508/508 510/510/510 505/505/505
f 7/7/7 512/512/512 493/493/493
f 138/138/138 513/513/513 512/512/512
f 133/133/133 493/493/493 513/513/513
f 512/512/512 513/513/513 493/493/493
f 40/40/40 514/514/514 516/516/516
f 139/139/139 515/515/515 514/514/514
f 138/138/138 516/516/516 515/515/515
f 514/514/514 515/515/515 516/516/516
f 39/39/39 498/498/498 518/518/518
f 133/133/133 517/517/517 498/498/498
f 139/139/139 518/518/518 517/517/517
f 498/498/498 517/517/517 518/518/518
f 138/138/138 515/515/515 513/513/513
f 139/139/139 517/517/517 515/515/515
f 133/133/133 513/513/513 517/517/517
f 515/515/515 517/517/517 513/513/513
f 9/9/9 519/519/519 521/521/521
f 140/140/140 520/520/520 519/519/519
f 142/142/142 521/521/521 520/520/520
f 519/519/519 520/520/520 521/521/521
f 41/41/41 522/522/522 524/524/524
f 141/141/141 523/523/523 522/522/522
f 140/140/140 524/524/524 523/523/523
f 522/522/522 523/523/523 524/524/524
f 40/40/40 525/525/525 527/527/527
f 142/142/142 526/526/526 525/525/525
f 141/141/141 527/527/527 526/526/526
f 525/525/525 526/526/526 527/527/527
f 140/140/140 523/523/523 520/520/520
f 141/141/141 526/526/526 523/523/523
f 142/142/142 520/520/520 526/526/526
f 523/523/523 526/526/526 520/520/520
f 39/39/39 518/518/518 507/507/507
f 139/139/139 528/528/528 518/518/518
f 136/136/136 507/507/507 528/528/528
f 518/518/518 528/528/528 507/507/507
f 40/40/40 527/527/527 514/514/514
f 141/141/141 529/529/529 527/527/527
f 139/139/139 514/514/514 529/529/529
f 527/527/527 529/529/529 514/514/514
f 41/41/41 511/511/511 522/522/522
f 136/136/136 530/530/530 511/511/511
f 141/141/141 522/522/522 530/530/530
f 511/511/511 530/530/530 522/522/522
f 139/139/139 529/529/529 528/528/528
f 141/141/141 530/530/530 529/529/529
f 136/136/136 528/528/528 530/530/530
f 529/529/529 530/530/530 528/528/528
f 4/4/4 506/506/506 423/423/423
f 137/137/137 531/531/531 506/506/506
f 113/113/113 423/423/423 531/531/531
f 506/506/506 531/531/531 423/423/423
f 41/41/41 532/532/532 509/509/509
f 143/143/143 533/533/533 532/532/532
f 137/137/137 509/509/509 533/533/533
f 532/532/532 533/533/533 509/509/509
f 33/33/33 428/428/428 535/535/535
f 113/113/113 534/534/534 428/428/428
f 143/143/143 535/535/535 534/534/534
f 428/428/428 534/534/534 535/535/535
f 137/137/137 533/533/533 531/531/531
f 143/143/143 534/534/534 533/533/533
f 113/113/113 531/531/531 534/534/534
f 533/533/533 534/534/534 531/531/531
f 9/9/9 536/536/536 519/519/519
f 144/144/144 537/537/537 536/536/536
f 140/140/140 519/519/519 537/537/537
f 536/536/536 537/537/537 519/519/519
f 42/42/42 538/538/538 540/540/540
f 145/145/145 539/539/539 538/538/538
f 144/144/144 540/540/540 539/539/539
f 538/538/538 539/539/539 540/540/540
f 41/41/41 524/524/524 542/542/542
f 140/140/140 541/541/541 524/524/524
f 145/145/145 542/542/542 541/541/541
f 524/524/524 541/541/541 542/542/542
f 144/144/144 539/539/539 537/537/537
f 145/145/145 541/541/541 539/539/539
f 140/140/140 537/537/537 541/541/541
f 539/539/539 541/541/541 537/537/537
f 10/10/10 434/434/434 544/544/544
f 118/118/118 543/543/543 434/434/434
f 147/147/147 544/544/544 543/543/543
f 434/434/434 543/543/543 544/544/544
f 33/33/33 545/545/545 438/438/438
f 146/146/146 546/546/546 545/545/545
f 118/118/118 438/438/438 546/546/546
f 545/545/545 546/546/546 438/438/438
f 42/42/42 547/547/547 549/549/549
f 147/147/147 548/548/548 547/547/547
f 146/146/146 549/549/549 548/548/548
f 547/547/547 548/548/548 549/549/549
f 118/118/118 546/546/546 543/543/543
f 146/146/146 548/548/548 546/546/546
f 147/147/147 543/543/543 548/548/548
f 546/546/546 548/548/548 543/543/543
f 41/41/41 542/542/542 532/532/532
f 145/145/145 550/550/550 542/542/542
f 143/143/143 532/532/532 550/550/550
f 542/542/542 550/550/550 532/532/532
f 42/42/42 549/549/549 538/538/538
f 146/146/146 551/551/551 549/549/549
f 145/145/145 538/538/538 551/551/551
f 549/549/549 551/551/551 538/538/538
f 33/33/33 535/535/535 545/545/545
f 143/143/143 552/552/552 535/535/535
f 146/146/146 545/545/545 552/552/552
f 535/535/535 552/552/552 545/545/545
f 145/145/145 551/551/551 550/550/550
f 146/146/146 552/552/552 551/551/551
f 143/143/143 550/550/550 552/552/552
f 551/551/551 552/552/552 550/550/550
f 5/5/5 443/443/443 333/333/333
f 121/121/121 553/553/553 443/443/443
f 89/89/89 333/333/333 553/553/553
f 443/443/443 553/553/553 333/333/333
f 34/34/34 554/554/554 447/447/447
f 148/148/148 555/555/555 554/554/554
f 121/121/121 447/447/447 555/555/555
f 554/554/554 555/555/555 447/447/447
f 26/26/26 338/338/338 557/557/557
f 89/89/89 556/556/556 338/338/338
f 148/148/148 557/557/557 556/556/556
f 338/338/338 556/556/556 557/557/557
f 121/121/121 555/555/555 553/553/553
f 148/148/148 556/556/556 555/555/555
f 89/89/89 553/553/553 556/556/556
f 555/555/555 556/556/556 553/553/553
f 10/10/10 309/309/309 432/432/432
f 84/84/84 558/558/558 309/309/309
f 116/116/116 432/432/432 558/558/558
f 309/309/309 558/558/558 432/432/432
f 23/23/23 559/559/559 313/313/313
f 149/149/149 560/560/560 559/559/559
f 84/84/84 313/313/313 560/560/560
f 559/559/559 560/560/560 313/313/313
f 34/34/34 437/437/437 562/562/562
f 116/116/116 561/561/561 437/437/437
f 149/149/149 562/562/562 561/561/561
f 437/437/437 561/561/561 562/562/562
f 84/84/84 560/560/560 558/558/558
f 149/149/149 561/561/561 560/560/560
f 116/116/116 558/558/558 561/561/561
f 560/560/560 561/561/561 558/558/558
f 6/6/6 320/320/320 300/300/300
f 86/86/86 563/563/563 320/320/320
f 80/80/80 300/300/300 563/563/563
f 320/320/320 563/563/563 300/300/300
f 26/26/26 564/564/564 323/323/323
f 150/150/150 565/565/565 564/564/564
f 86/86/86 323/323/323 565/565/565
f 564/564/564 565/565/565 323/323/323
f 23/23/23 304/304/304 567/567/567
f 80/80/80 566/566/566 304/304/304
f 150/150/150 567/567/567 566/566/566
f 304/304/304 566/566/566 567/567/567
f 86/86/86 565/565/565 563/563/563
f 150/150/150 566/566/566 565/565/565
f 80/80/80 563/563/563 566/566/566
f 565/565/565 566/566/566 563/563/563
f 34/34/34 562/562/562 554/554/554
f 149/149/149 568/568/568 562/562/562
f 148/148/148 554/554/554 568/568/568
f 562/562/562 568/568/568 554/554/554
f 23/23/23 567/567/567 559/559/559
f 150/150/150 569/569/569 567/567/567
f 149/149/149 559/559/559 569/569/569
f 567/567/567 569/569/569 559/559/559
f 26/26/26 557/557/557 564/564/564
f 148/148/148 570/570/570 557/557/557
f 150/150/150 564/564/564 570/570/570
f 557/557/557 570/570/570 564/564/564
f 149/149/149 569/569/569 568/568/568
f 150/150/150 570/570/570 569/569/569
f 148/148/148 568/568/568 570/570/570
f 569/569/569 570/570/570 568/568/568
f 3/3/3 469/469/469 359/359/359
f 128/128/128 571/571/571 469/469/469
f 96/96/96 359/359/359 571/571/571
f 469/469/469 571/571/571 359/359/359
f 36/36/36 572/572/572 473/473/473
f 151/151/151 573/573/573 572/572/572
f 128/128/128 473/473/473 573/573/573
f 572/572/572 573/573/573 473/473/473
f 28/28/28 364/364/364 575/575/575
f 96/96/96 574/574/574 364/364/364
f 151/151/151 575/575/575 574/574/574
f 364/364/364 574/574/574 575/575/575
f 128/128/128 573/573/573 571/571/571
f 151/151/151 574/574/574 573/573/573
f 96/96/96 571/571/571 574/574/574
f 573/573/573 574/574/574 571/571/571
f 5/5/5 335/335/335 460/460/460
f 91/91/91 576/576/576 335/335/335
f 124/124/124 460/460/460 576/576/576
f 335/335/335 576/576/576 460/460/460
f 25/25/25 577/577/577 339/339/339
f 152/152/152 578/578/578 577/577/577
f 91/91/91 339/339/339 578/578/578
f 577/577/577 578/578/578 339/339/339
f 36/36/36 464/464/464 580/580/580
f 124/124/124 579/579/579 464/464/464
f 152/152/152 580/580/580 579/579/579
f 464/464/464 579/579/579 580/580/580
f 91/91/91 578/578/578 576/576/576
f 152/152/152 579/579/579 578/578/578
f 124/124/124 576/576/576 579/579/579
f 578/578/578 579/579/579 576/576/576
f 12/12/12 346/346/346 326/326/326
f 93/93/93 581/581/581 346/346/346
f 87/87/87 326/326/326 581/581/581
f 346/346/346 581/581/581 326/326/326
f 28/28/28 582/582/582 349/349/349
f 153/153/153 583/583/583 582/582/582
f 93/93/93 349/349/349 583/583/583
f 582/582/582 583/583/583 349/349/349
f 25/25/25 330/330/330 585/585/585
f 87/87/87 584/584/584 330/330/330
f 153/153/153 585/585/585 584/584/584
f 330/330/330 584/584/584 585/585/585
f 93/93/93 583/583/583 581/581/581
f 153/153/153 584/584/584 583/583/583
f 87/87/87 581/581/581 584/584/584
f 583/583/583 584/584/584 581/581/581
f 36/36/36 580/580/580 572/572/572
f 152/152/152 586/586/586 580/580/580
f 151/151/151 572/572/572 586/586/586
f 580/580/580 586/586/586 572/572/572
f 25/25/25 585/585/585 577/577/577
f 153/153/153 587/587/587 585/585/585
f 152/152/152 577/577/577 587/587/587
f 585/585/585 587/587/587 577/577/577
f 28/28/28 575/575/575 582/582/582
f 151/151/151 588/588/588 575/575/575
f 153/153/153 582/582/582 588/588/588
f 575/575/575 588/588/588 582/582/582
f 152/152/152 587/587/587 586/586/586
f 153/153/153 588/588/588 587/587/587
f 151/151/151 586/586/586 588/588/588
f 587/587/587 588/588/588 586/586/586
f 7/7/7 495/495/495 385/385/385
f 135/135/135 589/589/589 495/495/495
f 103/103/103 385/385/385 589/589/589
f 495/495/495 589/589/589 385/385/385
f 38/38/38 590/590/590 499/499/499
f 154/154/154 591/591/591 590/590/590
f 135/135/135 499/499/499 591/591/591
f 590/590/590 591/591/591 499/499/499
f 30/30/30 390/390/390 593/593/593
f 103/103/103 592/592/592 390/390/390
f 154/154/154 593/593/593 592/592/592
f 390/390/390 592/592/592 593/593/593
f 135/135/135 591/591/591 589/589/589
f 154/154/154 592/592/592 591/591/591
f 103/103/103 589/589/589 592/592/592
f 591/591/591 592/592/592 589/589/589
f 3/3/3 361/361/361 486/486/486
f 98/98/98 594/594/594 361/361/361
f 131/131/131 486/486/486 594/594/594
f 361/361/361 594/594/594 486/486/486
f 27/27/27 595/595/595 365/365/365
f 155/155/155 596/596/596 595/595/595
f 98/98/98 365/365/365 596/596/596
f 595/595/595 596/596/596 365/365/365
f 38/38/38 490/490/490 598/598/598
f 131/131/131 597/597/597 490/490/490
f 155/155/155 598/598/598 597/597/597
f 490/490/490 597/597/597 598/598/598
f 98/98/98 596/596/596 594/594/594
f 155/155/155 597/597/597 596/596/596
f 131/131/131 594/594/594 597/597/597
f 596/596/596 597/597/597 594/594/594
f 11/11/11 372/372/372 352/352/352
f 100/100/100 599/599/599 372/372/372
f 94/94/94 352/352/352 599/599/599
f 372/372/372 599/599/599 352/352/352
f 30/30/30 600/600/600 375/375/375
f 156/156/156 601/601/601 600/600/600
f 100/100/100 375/375/375 601/601/601
f 600/600/600 601/601/601 375/375/375
f 27/27/27 356/356/356 603/603/603
f 94/94/94 602/602/602 356/356/356
f 156/156/156 603/603/603 602/602/602
f 356/356/356 602/602/602 603/603/603
f 100/100/100 601/601/601 599/599/599
f 156/156/156 602/602/602 601/601/601
f 94/94/94 599/599/599 602/602/602
f 601/601/601 602/602/602 599/599/599
f 38/38/38 598/598/598 590/590/590
f 155/155/155 604/604/604 598/598/598
f 154/154/154 590/590/590 604/604/604
f 598/598/598 604/604/604 590/590/590
f 27/27/27 603/603/603 595/595/595
f 156/156/156 605/605/605 603/603/603
f 155/155/155 595/595/595 605/605/605
f 603/603/603 605/605/605 595/595/595
f 30/30/30 593/593/593 600/600/600
f 154/154/154 606/606/606 593/593/593
f 156/156/156 600/600/600 606/606/606
f 593/593/593 606/606/606 600/600/600
f 155/155/155 605/605/605 604/604/604
f 156/156/156 606/606/606 605/605/605
f 154/154/154 604/604/604 606/606/606
f 605/605/605 606/606/606 604/604/604
f 9/9/9 521/521/521 411/411/411
f 142/142/142 607/607/607 521/521/521
f 110/110/110 411/411/411 607/607/607
f 521/521/521 607/607/607 411/411/411
f 40/40/40 608/608/608 525/525/525
f 157/157/157 609/609/609 608/608/608
f 142/142/142 525/525/525 609/609/609
f 608/608/608 609/609/609 525/525/525
f 32/32/32 416/416/416 611/611/611
f 110/110/110 610/610/610 416/416/416
f 157/157/157 611/611/611 610/610/610
f 416/416/416 610/610/610 611/611/611
f 142/142/142 609/609/609 607/607/607
f 157/157/157 610/610/610 609/609/609
f 110/110/110 607/607/607 610/610/610
f 609/609/609 610/610/610 607/607/607
f 7/7/7 387/387/387 512/512/512
f 105/105/105 612/612/612 387/387/387
f 138/138/138 512/512/512 612/612/612
f 387/387/387 612/612/612 512/512/512
f 29/29/29 613/613/613 391/391/391
f 158/158/158 614/614/614 613/613/613
f 105/105/105 391/391/391 614/614/614
f 613/613/613 614/614/614 391/391/391
f 40/40/40 516/516/516 616/616/616
f 138/138/138 615/615/615 516/516/516
f 158/158/158 616/616/616 615/615/615
f 516/516/516 615/615/615 616/616/616
f 105/105/105 614/614/614 612/612/612
f 158/158/158 615/615/615 614/614/614
f 138/138/138 612/612/612 615/615/615
f 614/614/614 615/615/615 612/612/612
f 8/8/8 398/398/398 378/378/378
f 107/107/107 617/617/617 398/398/398
f 101/101/101 378/378/378 617/617/617
f 398/398/398 617/617/617 378/378/378
f 32/32/32 618/618/618 401/401/401
f 159/159/159 619/619/619 618/618/618
f 107/107/107 401/401/401 619/619/619
f 618/618/618 619/619/619 401/401/401
f 29/29/29 382/382/382 621/621/621
f 101/101/101 620/620/620 382/382/382
f 159/159/159 621/621/621 620/620/620
f 382/382/382 620/620/620 621/621/621
f 107/107/107 619/619/619 617/617/617
f 159/159/159 620/620/620 619/619/619
f 101/101/101 617/617/617 620/620/620
f 619/619/619 620/620/620 617/617/617
f 40/40/40 616/616/616 608/608/608
f 158/158/158 622/622/622 616/616/616
f 157/157/157 608/608/608 622/622/622
f 616/616/616 622/622/622 608/608/608
f 29/29/29 621/621/621 613/613/613
f 159/159/159 623/623/623 621/621/621
f 158/158/158 613/613/613 623/623/623
f 621/621/621 623/623/623 613/613/613
f 32/32/32 611/611/611 618/618/618
f 157/157/157 624/624/624 611/611/611
f 159/159/159 618/618/618 624/624/624
f 611/611/611 624/624/624 618/618/618
f 158/158/158 623/623/623 622/622/622
f 159/159/159 624/624/624 623/623/623
f 157/157/157 622/622/622 624/624/624
f 623/623/623 624/624/624 622/622/622
f 10/10/10 544/544/544 307/307/307
f 147/147/147 625/625/625 544/544/544
f 82/82/82 307/307/307 625/625/625
f 544/544/544 625/625/625 307/307/307
f 42/42/42 626/626/626 547/547/547
f 160/160/160 627/627/627 626/626/626
f 147/147/147 547/547/547 627/627/627
f 626/626/626 627/627/627 547/547/547
f 24/24/24 312/312/312 629/629/629
f 82/82/82 628/628/628 312/312/312
f 160/160/160 629/629/629 628/628/628
f 312/312/312 628/628/628 629/629/629
f 147/147/147 627/627/627 625/625/625
f 160/160/160 628/628/628 627/627/627
f 82/82/82 625/625/625 628/628/628
f 627/627/627 628/628/628 625/625/625
f 9/9/9 413/413/413 536/536/536
f 112/112/112 630/630/630 413/413/413
f 144/144/144 536/536/536 630/630/630
f 413/413/413 630/630/630 536/536/536
f 31/31/31 631/631/631 417/417/417
f 161/161/161 632/632/632 631/631/631
f 112/112/112 417/417/417 632/632/632
f 631/631/631 632/632/632 417/417/417
f 42/42/42 540/540/540 634/634/634
f 144/144/144 633/633/633 540/540/540
f 161/161/161 634/634/634 633/633/633
f 540/540/540 633/633/633 634/634/634
f 112/112/112 632/632/632 630/630/630
f 161/161/161 633/633/633 632/632/632
f 144/144/144 630/630/630 633/633/633
f 632/632/632 633/633/633 630/630/630
f 2/2/2 294/294/294 404/404/404
f 79/79/79 635/635/635 294/294/294
f 108/108/108 404/404/404 635/635/635
f 294/294/294 635/635/635 404/404/404
f 24/24/24 636/636/636 297/297/297
f 162/162/162 637/637/637 636/636/636
f 79/79/79 297/297/297 637/637/637
f 636/636/636 637/637/637 297/297/297
f 31/31/31 408/408/408 639/639/639
f 108/108/108 638/638/638 408/408/408
f 162/162/162 639/639/639 638/638/638
f 408/408/408 638/638/638 639/639/639
f 79/79/79 637/637/637 635/635/635
f 162/162/162 638/638/638 637/637/637
f 108/108/108 635/635/635 638/638/638
f 637/637/637 638/638/638 635/635/635
f 42/42/42 634/634/634 626/626/626
f 161/161/161 640/640/640 634/634/634
f 160/160/160 626/626/626 640/640/640
f 634/634/634 640/640/640 626/626/626
f 31/31/31 639/639/639 631/631/631
f 162/162/162 641/641/641 639/639/639
f 161/161/161 631/631/631 641/641/641
f 639/639/639 641/641/641 631/631/631
f 24/24/24 629/629/629 636/636/636
f 160/160/160 642/642/642 629/629/629
f 162/162/162 636/636/636 642/642/642
f 629/629/629 642/642/642 636/636/636
f 161/161/161 641/641/641 640/640/640
f 162/162/162 642/642/642 641/641/641
f 160/160/160 640/640/640 642/642/642
f 641/641/641 642/642/642 640/640/640
