# generated by scripts/make_rocks.py - demonstrator scenery
v -0.55687 0.88372 0.00000
v 0.42609 0.67619 0.00000
v -0.52728 -0.83676 0.00000
v 0.53174 -0.84385 0.00000
v 0.00000 -0.55543 0.53142
v 0.00000 0.53254 0.50952
v 0.00000 -0.59483 -0.56912
v 0.00000 0.46596 -0.44582
v 0.84092 0.00000 -0.30141
v 0.82519 0.00000 0.29577
v -0.78899 0.00000 -0.28280
v -0.92170 0.00000 0.33037
v -1.00112 0.60684 0.22177
v -0.45909 0.27828 0.43080
v -0.34358 0.88221 0.32241
v 0.31588 0.81108 0.29641
v 0.00000 0.93420 0.00000
v 0.26585 0.68262 -0.24947
v -0.27569 0.70790 -0.25870
v -0.46339 0.28089 -0.43484
v -0.84378 0.51147 -0.18692
v -1.16299 0.00000 0.00000
v 0.56883 0.34480 0.53378
v 0.80531 0.48814 0.17839
v -0.49150 -0.29793 0.46122
v 0.00000 0.00000 0.57401
v -0.88297 -0.53522 -0.19560
v -0.84747 -0.51370 0.18773
v 0.00000 0.00000 -0.59441
v -0.51632 -0.31297 -0.48451
v 0.71281 0.43207 -0.15790
v 0.53675 0.32536 -0.50368
v 0.77742 -0.47124 0.17222
v 0.52465 -0.31802 0.49233
v 0.31828 -0.81727 0.29867
v -0.30745 -0.78945 0.28851
v 0.00000 -0.91995 0.00000
v -0.34079 -0.87505 -0.31979
v 0.32782 -0.84176 -0.30762
v 0.54637 -0.33119 -0.51271
v 0.82206 -0.49830 -0.18211
v 0.98635 0.00000 0.00000
v -0.83570 0.82940 0.11221
v -0.71090 0.81635 0.29834
v -0.51991 1.01383 0.18061
v -0.66711 0.14970 0.38234
v -0.77481 0.46966 0.38379
v -0.98700 0.29163 0.28790
v -0.16129 0.68327 0.40884
v -0.44868 0.60815 0.42104
v -0.23950 0.39216 0.46105
v -0.15691 0.90091 0.14724
v -0.26833 0.92640 0.00000
v 0.17821 0.75497 0.45175
v 0.00000 0.86859 0.31743
v 0.23747 0.81986 0.00000
v 0.16325 0.93733 0.15319
v 0.42265 0.82418 0.14682
v -0.14231 0.81709 -0.13354
v -0.42796 0.83452 -0.14866
v 0.36057 0.70312 -0.12526
v 0.14704 0.84426 -0.13798
v -0.14638 0.62011 -0.37105
v 0.00000 0.70862 -0.25897
v 0.14168 0.60022 -0.35915
v -0.59411 0.68223 -0.24932
v -0.78385 0.77794 -0.10525
v -0.24595 0.40272 -0.47347
v -0.38514 0.52202 -0.36141
v -0.82757 0.24453 -0.24140
v -0.67995 0.41216 -0.33681
v -0.60823 0.13648 -0.34859
v -0.97865 0.59322 0.00000
v -1.04370 0.00000 -0.17195
v -1.00918 0.27357 -0.09998
v -1.10415 0.29931 0.10939
v -1.12205 0.00000 0.18486
v 0.61167 0.70240 0.25669
v 0.65989 0.65492 0.08860
v 0.28020 0.45880 0.53940
v 0.48755 0.66083 0.45751
v 0.93165 0.27528 0.27176
v 0.75492 0.45760 0.37394
v 0.74826 0.16790 0.42885
v -0.23889 0.14481 0.50127
v 0.00000 0.27291 0.56807
v -0.65865 -0.14780 0.37749
v -0.46196 0.00000 0.43349
v 0.00000 -0.29561 0.61533
v -0.27051 -0.16397 0.56760
v -0.27029 -0.44258 0.52033
v -1.10425 -0.29934 0.10940
v -0.90506 -0.26742 0.26400
v -0.87219 -0.25771 -0.25441
v -1.03467 -0.28048 -0.10250
v -0.72232 -0.71688 0.09699
v -0.93587 -0.56728 0.00000
v -0.77031 -0.76451 -0.10343
v -0.49181 0.00000 -0.46150
v -0.66265 -0.14870 -0.37978
v 0.00000 0.26184 -0.54503
v -0.25089 0.15208 -0.52645
v -0.29599 -0.48466 -0.56980
v -0.28133 -0.17053 -0.59031
v 0.00000 -0.31064 -0.64660
v 0.40507 0.54904 -0.38011
v 0.26742 0.43789 -0.51481
v 0.55011 0.54597 -0.07386
v 0.50642 0.58153 -0.21252
v 0.76680 0.17206 -0.43947
v 0.67254 0.40767 -0.33314
v 0.87075 0.25728 -0.25399
v 0.69981 -0.69454 0.09396
v 0.58610 -0.67303 0.24596
v 0.43310 -0.84455 0.15045
v 0.74430 -0.16702 0.42658
v 0.73245 -0.44398 0.36281
v 0.77790 -0.22985 0.22691
v 0.16344 -0.69239 0.41430
v 0.43899 -0.59501 0.41194
v 0.27304 -0.44707 0.52561
v 0.14727 -0.84559 0.13820
v 0.26407 -0.91171 0.00000
v -0.17371 -0.73589 0.44033
v 0.00000 -0.79373 0.29007
v -0.25758 -0.88930 0.00000
v -0.14863 -0.85336 0.13947
v -0.41751 -0.81415 0.14504
v 0.14984 -0.86032 -0.14061
v 0.45860 -0.89427 -0.15931
v -0.48311 -0.94207 -0.16782
v -0.15587 -0.89494 -0.14627
v 0.17113 -0.72498 -0.43380
v 0.00000 -0.86814 -0.31726
v -0.18061 -0.76512 -0.45782
v 0.60923 -0.69959 -0.25567
v 0.71152 -0.70617 -0.09554
v 0.30829 -0.50479 -0.59347
v 0.45293 -0.61391 -0.42503
v 0.82379 -0.24341 -0.24030
v 0.68372 -0.41444 -0.33868
v 0.68337 -0.15334 -0.39166
v 0.80643 -0.48882 0.00000
v 1.00625 0.00000 -0.16578
v 0.91298 -0.24749 -0.09045
v 0.87045 -0.23596 0.08623
v 0.93412 0.00000 0.15390
v 0.27449 -0.16638 0.57596
v 0.57489 0.00000 0.53947
v 0.29682 0.17992 0.62281
v -0.56973 -0.65423 0.23909
v -0.43469 -0.58918 0.40790
v -0.63750 -0.38643 0.31578
v -0.48468 -0.65694 -0.45482
v -0.63047 -0.72398 -0.26458
v -0.71765 -0.43501 -0.35548
v 0.57414 0.00000 -0.53876
v 0.29223 -0.17714 -0.61318
v 0.28508 0.17280 -0.59818
v 0.93805 0.25429 0.09293
v 1.01162 0.27423 -0.10022
v 0.82299 0.49886 0.00000
v -0.71155 0.88854 0.05435
v -0.69232 0.94219 0.14973
v -0.54757 0.95886 0.08601
v -0.86854 0.72463 0.26482
v -0.80275 0.85408 0.21286
v -0.93483 0.73338 0.16943
v -0.44966 0.99238 0.26674
v -0.64206 0.95589 0.24974
v -0.54166 0.88692 0.32413
v -0.81392 0.08258 0.37075
v -0.83938 0.22125 0.35083
v -0.95673 0.14234 0.31077
v -0.62052 0.37613 0.42305
v -0.71597 0.29596 0.38277
v -0.55625 0.21315 0.40331
v -1.00353 0.44741 0.25865
v -0.88855 0.38505 0.33948
v -0.91378 0.55389 0.31743
v -0.08223 0.61232 0.46100
v -0.20577 0.54119 0.44404
v -0.13209 0.47834 0.50500
v -0.39300 0.73317 0.36879
v -0.30119 0.64610 0.41444
v -0.24431 0.76675 0.36266
v -0.34763 0.33333 0.44352
v -0.33188 0.48534 0.43564
v -0.46481 0.44182 0.43617
v -0.77115 0.66003 0.35510
v -0.63890 0.57012 0.42459
v -0.58480 0.72239 0.37277
v -0.37624 0.95211 0.08019
v -0.41730 0.92848 0.00000
v -0.26432 0.96776 0.24803
v -0.32913 0.98178 0.16733
v -0.12985 0.91437 0.00000
v -0.21302 0.91727 0.07453
v -0.07876 0.92773 0.07391
v 0.08476 0.63114 0.47516
v 0.00000 0.72969 0.43662
v 0.16449 0.86647 0.31665
v 0.08763 0.82639 0.38847
v 0.25213 0.79128 0.37426
v -0.08412 0.79330 0.37291
v -0.16911 0.89080 0.32555
v 0.33510 0.74559 0.00000
v 0.31875 0.80665 0.06794
v 0.43324 0.75865 0.06805
v 0.07939 0.93507 0.07450
v 0.21533 0.92723 0.07534
v 0.12943 0.91143 0.00000
v 0.37432 0.82612 0.22206
v 0.30668 0.91481 0.15591
v 0.24561 0.89925 0.23047
v -0.08350 0.90823 0.23506
v 0.08456 0.91975 0.23805
v 0.00000 0.94497 0.15444
v -0.35353 0.89466 -0.07535
v -0.50610 0.88624 -0.07949
v -0.07751 0.91297 -0.07273
v -0.21355 0.91953 -0.07471
v -0.35088 0.77437 -0.20815
v -0.28100 0.83819 -0.14285
v -0.20339 0.74470 -0.19086
v 0.37491 0.65651 -0.05889
v 0.29201 0.73896 -0.06224
v 0.20863 0.76388 -0.19578
v 0.25542 0.76190 -0.12985
v 0.31517 0.69558 -0.18697
v 0.19368 0.83400 -0.06777
v 0.07663 0.90265 -0.07191
v -0.07262 0.54076 -0.40712
v 0.00000 0.60491 -0.36196
v 0.07338 0.54641 -0.41138
v -0.13307 0.70097 -0.25617
v -0.07117 0.67117 -0.31550
v -0.21000 0.65906 -0.31172
v 0.20572 0.64563 -0.30537
v 0.06844 0.64545 -0.30341
v 0.13691 0.72120 -0.26356
v 0.00000 0.85055 -0.13901
v 0.07219 0.78517 -0.20321
v -0.07059 0.76779 -0.19872
v -0.60328 0.82100 -0.13047
v -0.66585 0.83147 -0.05086
v -0.43296 0.70893 -0.25908
v -0.51704 0.76977 -0.20111
v -0.84797 0.66523 -0.15369
v -0.69745 0.74205 -0.18494
v -0.75006 0.62578 -0.22869
v -0.12119 0.43890 -0.46336
v -0.19843 0.52190 -0.42822
v -0.43094 0.40963 -0.40439
v -0.31683 0.46332 -0.41587
v -0.36019 0.34537 -0.45954
v -0.27249 0.58452 -0.37495
v -0.34196 0.63794 -0.32089
v -0.79283 0.11795 -0.25753
v -0.71740 0.18910 -0.29985
v -0.67320 0.06830 -0.30665
v -0.77784 0.47150 -0.27021
v -0.76036 0.32949 -0.29050
v -0.84657 0.37743 -0.21819
v -0.55408 0.21232 -0.40174
v -0.65398 0.27034 -0.34963
v -0.56066 0.33985 -0.38224
v -0.47314 0.58446 -0.30160
v -0.51911 0.46322 -0.34498
v -0.63659 0.54487 -0.29314
v -0.82703 0.82081 0.00000
v -0.93471 0.56658 -0.10093
v -0.91737 0.71527 -0.05533
v -0.94382 0.73589 0.05693
v -1.00786 0.61093 0.10883
v -0.91034 0.00000 -0.23273
v -0.94897 0.13257 -0.21330
v -1.10938 0.14659 -0.05357
v -1.04381 0.14067 -0.13788
v -1.09197 0.00000 -0.08821
v -0.93834 0.26525 -0.17893
v -0.91886 0.39061 -0.14275
v -1.06120 0.14825 0.23853
v -1.03341 0.00000 0.26419
v -1.08002 0.45911 0.16779
v -1.07256 0.30320 0.20452
v -1.18829 0.00000 0.09599
v -1.12434 0.15153 0.14852
v -1.14943 0.15189 0.05551
v -0.97054 0.41664 -0.05075
v -1.07429 0.29122 0.00000
v -1.03574 0.44463 0.05416
v 0.55065 0.74939 0.11909
v 0.52963 0.66137 0.04046
v 0.46106 0.75494 0.27590
v 0.52119 0.77594 0.20272
v 0.72594 0.56950 0.13157
v 0.64611 0.68743 0.17132
v 0.72160 0.60204 0.22002
v 0.14058 0.50911 0.53749
v 0.23076 0.60693 0.49798
v 0.54176 0.51497 0.50838
v 0.37554 0.54918 0.49294
v 0.42803 0.41042 0.54609
v 0.32733 0.70216 0.45041
v 0.40433 0.75430 0.37941
v 0.90062 0.13399 0.29255
v 0.84839 0.22362 0.35460
v 0.80766 0.08195 0.36789
v 0.80335 0.48696 0.27907
v 0.86858 0.37639 0.33185
v 0.86834 0.38713 0.22380
v 0.66757 0.25581 0.48403
v 0.75360 0.31152 0.40289
v 0.67336 0.40816 0.45908
v 0.54339 0.67123 0.34638
v 0.63637 0.56786 0.42291
v 0.68785 0.58873 0.31674
v -0.12619 0.33675 0.51379
v 0.00000 0.41062 0.55083
v -0.33380 0.20233 0.44664
v -0.23065 0.25806 0.46411
v 0.00000 0.13332 0.56599
v -0.12518 0.20351 0.52834
v -0.12791 0.07754 0.55061
v -0.78942 -0.08009 0.35958
v -0.66026 0.00000 0.37841
v -0.47434 -0.14016 0.44511
v -0.56032 -0.07189 0.40877
v -0.57143 -0.21897 0.41432
v -0.53658 0.06885 0.39145
v -0.44965 0.13286 0.42194
v 0.00000 -0.43308 0.58095
v -0.13964 -0.37265 0.56855
v -0.14046 -0.50865 0.53701
v -0.13564 -0.08222 0.58389
v -0.13966 -0.22706 0.58946
v 0.00000 -0.14279 0.60621
v -0.39935 -0.38292 0.50950
v -0.27225 -0.30461 0.54781
v -0.37784 -0.22903 0.50558
v -0.35752 0.07224 0.47373
v -0.36971 -0.07470 0.48988
v -0.26053 0.00000 0.54667
v -1.06051 -0.14815 0.23837
v -0.91623 -0.13631 0.29762
v -1.17471 -0.15523 0.05673
v -1.15815 -0.15608 0.15299
v -0.87414 -0.38972 0.22529
v -1.05191 -0.29736 0.20059
v -0.97751 -0.41554 0.15186
v -0.83508 -0.12424 -0.27126
v -0.96251 -0.13446 -0.21634
v -0.95987 -0.40804 -0.14912
v -0.94513 -0.26717 -0.18023
v -0.87184 -0.38869 -0.22470
v -1.02274 -0.13783 -0.13510
v -1.12251 -0.14833 -0.05421
v -0.61822 -0.77200 0.04722
v -0.75714 -0.75144 0.00000
v -0.64815 -0.80937 -0.04951
v -0.92650 -0.56161 0.10005
v -0.83321 -0.64965 0.05026
v -0.81210 -0.63710 0.14719
v -0.87178 -0.68391 -0.15800
v -0.88356 -0.68890 -0.05329
v -0.95935 -0.58152 -0.10359
v -1.11482 -0.30221 0.00000
v -1.00874 -0.43304 -0.05275
v -1.04917 -0.45039 0.05487
v -0.60841 0.00000 -0.34870
v -0.70093 -0.07112 -0.31928
v -0.47327 0.13984 -0.44411
v -0.55313 0.07097 -0.40352
v -0.58823 -0.22541 -0.42650
v -0.55738 -0.07152 -0.40663
v -0.50456 -0.14909 -0.47347
v 0.00000 0.36721 -0.49260
v -0.12535 0.33451 -0.51037
v -0.12951 0.07850 -0.55747
v -0.12896 0.20966 -0.54430
v 0.00000 0.13664 -0.58011
v -0.25163 0.28154 -0.50632
v -0.37289 0.22603 -0.49895
v -0.15250 -0.55225 -0.58304
v -0.15490 -0.41339 -0.63071
v 0.00000 -0.47402 -0.63587
v -0.38656 -0.23432 -0.51725
v -0.29145 -0.32609 -0.58645
v -0.40121 -0.38470 -0.51188
v 0.00000 -0.14653 -0.62206
v -0.14993 -0.24375 -0.63280
v -0.13720 -0.08316 -0.59058
v -0.38529 0.07785 -0.51052
v -0.26343 0.00000 -0.55276
v -0.39272 -0.07935 -0.52036
v 0.19777 0.52016 -0.42679
v 0.12252 0.44370 -0.46844
v 0.33122 0.61792 -0.31082
v 0.27137 0.58213 -0.37341
v 0.41244 0.39547 -0.52621
v 0.35794 0.52344 -0.46984
v 0.47795 0.45432 -0.44850
v 0.50594 0.63179 -0.03865
v 0.44872 0.61066 -0.09704
v 0.59070 0.49282 -0.18010
v 0.52432 0.55785 -0.13903
v 0.63244 0.49615 -0.11462
v 0.42609 0.63436 -0.16573
v 0.39168 0.64135 -0.23438
v 0.82309 0.08351 -0.37492
v 0.80916 0.21328 -0.33820
v 0.87398 0.13003 -0.28389
v 0.61805 0.37463 -0.42137
v 0.72879 0.30126 -0.38962
v 0.66912 0.25640 -0.48515
v 0.83078 0.37039 -0.21412
v 0.76897 0.33322 -0.29379
v 0.70453 0.42706 -0.24474
v 0.46263 0.57147 -0.29489
v 0.57476 0.49195 -0.26467
v 0.53877 0.48077 -0.35805
v 0.62355 -0.77866 0.04763
v 0.56650 -0.77095 0.12252
v 0.47745 -0.83607 0.07499
v 0.68698 -0.57315 0.20946
v 0.63754 -0.67831 0.16905
v 0.74728 -0.58624 0.13544
v 0.37914 -0.83674 0.22491
v 0.52468 -0.78114 0.20408
v 0.47583 -0.77913 0.28474
v 0.77401 -0.07853 0.35257
v 0.76454 -0.20152 0.31955
v 0.78673 -0.11705 0.25555
v 0.64909 -0.39345 0.44254
v 0.74416 -0.30761 0.39784
v 0.64718 -0.24800 0.46925
v 0.78724 -0.35098 0.20290
v 0.77594 -0.33625 0.29646
v 0.76319 -0.46261 0.26512
v 0.08423 -0.62719 0.47219
v 0.22361 -0.58812 0.48254
v 0.14392 -0.52120 0.55026
v 0.39417 -0.73535 0.36988
v 0.30604 -0.65649 0.42111
v 0.23909 -0.75036 0.35490
v 0.39843 -0.38204 0.50834
v 0.36265 -0.53033 0.47603
v 0.49062 -0.46636 0.46039
v 0.66305 -0.56751 0.30532
v 0.60270 -0.53781 0.40053
v 0.53168 -0.65676 0.33891
v 0.34254 -0.86684 0.07301
v 0.38739 -0.86194 0.00000
v 0.22559 -0.82598 0.21169
v 0.28739 -0.85726 0.14610
v 0.12831 -0.90354 0.00000
v 0.20297 -0.87398 0.07101
v 0.07664 -0.90276 0.07192
v -0.08817 -0.65656 0.49431
v 0.00000 -0.71901 0.43023
v -0.16050 -0.84547 0.30898
v -0.08456 -0.79744 0.37486
v -0.25186 -0.79044 0.37386
v 0.08121 -0.76586 0.36002
v 0.15220 -0.80173 0.29300
v -0.39345 -0.87542 0.00000
v -0.34322 -0.86856 0.07315
v -0.46861 -0.82059 0.07360
v -0.07392 -0.87063 0.06936
v -0.20362 -0.87680 0.07124
v -0.12775 -0.89957 0.00000
v -0.37011 -0.81682 0.21956
v -0.28094 -0.83802 0.14282
v -0.22981 -0.84142 0.21565
v 0.07329 -0.79713 0.20631
v -0.07574 -0.82385 0.21323
v 0.00000 -0.82522 0.13487
v 0.35289 -0.89302 -0.07522
v 0.50753 -0.88875 -0.07972
v 0.07754 -0.91337 -0.07277
v 0.20630 -0.88832 -0.07218
v 0.40374 -0.89104 -0.23951
v 0.29816 -0.88940 -0.15158
v 0.24466 -0.89579 -0.22958
v -0.50627 -0.88653 -0.07952
v -0.36951 -0.93510 -0.07876
v -0.25450 -0.93182 -0.23882
v -0.30747 -0.91717 -0.15631
v -0.40699 -0.89821 -0.24143
v -0.21670 -0.93309 -0.07582
v -0.07675 -0.90403 -0.07202
v 0.09177 -0.68340 -0.51452
v 0.00000 -0.73204 -0.43803
v -0.09109 -0.67830 -0.51067
v 0.16069 -0.84648 -0.30935
v 0.08425 -0.79451 -0.37348
v 0.25605 -0.80359 -0.38008
v -0.26350 -0.82698 -0.39114
v -0.08943 -0.84340 -0.39646
v -0.16433 -0.86565 -0.31635
v 0.00000 -0.86339 -0.14111
v -0.08078 -0.87863 -0.22740
v 0.08182 -0.88991 -0.23032
v 0.59014 -0.80312 -0.12763
v 0.65320 -0.81568 -0.04990
v 0.48573 -0.79534 -0.29066
v 0.54363 -0.80936 -0.21145
v 0.76850 -0.60289 -0.13928
v 0.64971 -0.69126 -0.17228
v 0.72253 -0.60281 -0.22030
v 0.15913 -0.57629 -0.60841
v 0.24966 -0.65662 -0.53875
v 0.51028 -0.48505 -0.47884
v 0.39821 -0.58233 -0.52269
v 0.44247 -0.42427 -0.56452
v 0.32586 -0.69901 -0.44839
v 0.39847 -0.74338 -0.37392
v 0.81824 -0.12173 -0.26579
v 0.74276 -0.19578 -0.31045
v 0.77230 -0.07836 -0.35179
v 0.77442 -0.46942 -0.26902
v 0.75586 -0.32755 -0.28879
v 0.85822 -0.38262 -0.22119
v 0.62361 -0.23896 -0.45215
v 0.65579 -0.27109 -0.35060
v 0.60679 -0.36781 -0.41370
v 0.53699 -0.66332 -0.34229
v 0.59033 -0.52678 -0.39231
v 0.66290 -0.56738 -0.30525
v 0.75072 -0.74506 0.00000
v 0.81276 -0.49266 -0.08776
v 0.77898 -0.60737 -0.04698
v 0.81183 -0.63298 0.04897
v 0.81095 -0.49156 0.08757
v 0.90945 0.00000 -0.23250
v 0.91146 -0.12733 -0.20487
v 0.99064 -0.13090 -0.04784
v 0.97560 -0.13148 -0.12887
v 1.05110 0.00000 -0.08491
v 0.89867 -0.25404 -0.17136
v 0.85243 -0.36237 -0.13243
v 0.85822 -0.11989 0.19290
v 0.90877 0.00000 0.23232
v 0.82349 -0.35006 0.12793
v 0.83505 -0.23606 0.15923
v 0.97575 0.00000 0.07882
v 0.91687 -0.12357 0.12112
v 0.93906 -0.12409 0.04535
v 0.83033 -0.35645 -0.04342
v 0.87685 -0.23770 0.00000
v 0.81326 -0.34912 0.04253
v 0.14547 -0.38822 0.59231
v 0.39577 -0.23990 0.52957
v 0.27707 -0.31000 0.55750
v 0.14189 -0.23068 0.59888
v 0.13800 -0.08365 0.59402
v 0.75003 0.00000 0.42986
v 0.57896 0.17107 0.54329
v 0.67676 0.08683 0.49372
v 0.67250 -0.08629 0.49061
v 0.54708 -0.16165 0.51337
v 0.14080 0.37575 0.57328
v 0.13861 0.08402 0.59668
v 0.14353 0.23334 0.60577
v 0.29109 0.32568 0.58571
v 0.43943 0.26636 0.58799
v 0.42370 -0.08561 0.56142
v 0.45464 0.09186 0.60241
v 0.28538 0.00000 0.59880
v -0.56588 -0.77011 0.12238
v -0.43816 -0.71745 0.26220
v -0.49184 -0.73225 0.19131
v -0.64564 -0.68693 0.17120
v -0.71086 -0.59307 0.21674
v -0.23018 -0.60541 0.49673
v -0.49424 -0.46980 0.46378
v -0.36746 -0.53737 0.48234
v -0.32374 -0.69447 0.44547
v -0.38482 -0.71791 0.36111
v -0.77653 -0.20468 0.32456
v -0.73697 -0.44672 0.25601
v -0.75571 -0.32748 0.28873
v -0.64804 -0.26788 0.34645
v -0.58169 -0.35260 0.39658
v -0.48792 -0.60271 0.31101
v -0.55581 -0.49598 0.36938
v -0.60752 -0.51998 0.27975
v -0.24942 -0.65599 -0.53824
v -0.41906 -0.78178 -0.39324
v -0.34732 -0.74505 -0.47792
v -0.39113 -0.57197 -0.51340
v -0.51198 -0.48666 -0.48043
v -0.62318 -0.84809 -0.13477
v -0.77054 -0.64286 -0.23494
v -0.73941 -0.78669 -0.19606
v -0.57760 -0.85993 -0.22467
v -0.48789 -0.79888 -0.29195
v -0.75400 -0.19874 -0.31515
v -0.62432 -0.37843 -0.42564
v -0.71720 -0.29647 -0.38343
v -0.77819 -0.33722 -0.29732
v -0.77330 -0.46874 -0.26863
v -0.53152 -0.65657 -0.33881
v -0.65971 -0.56465 -0.30378
v -0.59571 -0.53158 -0.39589
v 0.75196 0.00000 -0.43097
v 0.55322 -0.16346 -0.51913
v 0.65453 -0.08398 -0.47750
v 0.69065 0.08862 -0.50385
v 0.57394 0.16959 -0.53858
v 0.15490 -0.41338 -0.63070
v 0.14083 -0.08537 -0.60621
v 0.14604 -0.23742 -0.61636
v 0.29831 -0.33377 -0.60026
v 0.42953 -0.26036 -0.57474
v 0.13129 0.35038 -0.53458
v 0.42028 0.25475 -0.56236
v 0.27914 0.31232 -0.56168
v 0.14055 0.22851 -0.59322
v 0.14190 0.08602 -0.61084
v 0.44922 -0.09077 -0.59522
v 0.29451 0.00000 -0.61798
v 0.44490 0.08989 -0.58950
v 0.97364 0.13602 0.21885
v 0.98358 0.12997 0.04750
v 0.95221 0.12833 0.12579
v 0.96160 0.27183 0.18336
v 0.92024 0.39119 0.14296
v 0.94231 0.13164 -0.21180
v 0.86969 0.36970 -0.13511
v 0.94075 0.26594 -0.17939
v 1.04823 0.14127 -0.13847
v 1.03620 0.13693 -0.05004
v 0.59781 0.59331 0.00000
v 0.82922 0.50264 0.08954
v 0.74337 0.57960 0.04484
v 0.66607 0.51933 -0.04017
v 0.76495 0.46368 -0.08260
v 1.01326 0.27468 0.00000
v 0.94209 0.40442 -0.04927
v 0.91677 0.39355 0.04794
vt 2.51847 1.00000
vt 1.98153 1.00000
vt 0.48153 1.00000
vt 1.01847 1.00000
vt 0.75000 0.51406
vt 2.25000 0.51406
vt 0.75000 1.48594
vt 2.25000 1.48594
vt 1.50000 1.21910
vt 1.50000 0.78090
vt 3.00000 1.21910
vt 3.00000 0.78090
vt 2.73981 0.88081
vt 2.73981 0.56949
vt 2.42732 0.79105
vt 2.07268 0.79105
vt 2.25000 1.00000
vt 2.07268 1.20895
vt 2.42732 1.20895
vt 2.73981 1.43051
vt 2.73981 1.11919
vt 3.00000 1.00000
vt 1.76019 0.56949
vt 1.76019 0.88081
vt 0.26019 0.56949
vt 1.50000 0.00000
vt 0.26019 1.11919
vt 0.26019 0.88081
vt 1.50000 2.00000
vt 0.26019 1.43051
vt 1.76019 1.11919
vt 1.76019 1.43051
vt 1.23981 0.88081
vt 1.23981 0.56949
vt 0.92732 0.79105
vt 0.57268 0.79105
vt 0.75000 1.00000
vt 0.57268 1.20895
vt 0.92732 1.20895
vt 1.23981 1.43051
vt 1.23981 1.11919
vt 1.50000 1.00000
vt 2.62680 0.93951
vt 2.59209 0.82880
vt 2.47625 0.89992
vt 2.89461 0.67539
vt 2.73981 0.74492
vt 2.86282 0.82635
vt 2.36068 0.66428
vt 2.55349 0.67642
vt 2.51178 0.49893
vt 2.33233 0.89837
vt 2.38461 1.00000
vt 2.13932 0.66428
vt 2.25000 0.77694
vt 2.11539 1.00000
vt 2.16767 0.89837
vt 2.02375 0.89992
vt 2.33233 1.10163
vt 2.47625 1.10008
vt 2.02375 1.10008
vt 2.16767 1.10163
vt 2.36068 1.33572
vt 2.25000 1.22306
vt 2.13932 1.33572
vt 2.59209 1.17120
vt 2.62680 1.06049
vt 2.51178 1.50107
vt 2.55349 1.32358
vt 2.86282 1.17365
vt 2.73981 1.25508
vt 2.89461 1.32461
vt 2.73981 1.00000
vt 3.00000 1.10395
vt 2.87361 1.06069
vt 2.87361 0.93931
vt 3.00000 0.89605
vt 1.90791 0.82880
vt 1.87320 0.93951
vt 1.98822 0.49893
vt 1.94651 0.67642
vt 1.63718 0.82635
vt 1.76019 0.74492
vt 1.60539 0.67539
vt 2.73981 0.32367
vt 2.25000 0.28512
vt 0.10539 0.67539
vt 3.00000 0.52023
vt 0.75000 0.28512
vt 0.26019 0.32367
vt 0.48822 0.49893
vt 0.12639 0.93931
vt 0.13718 0.82635
vt 0.13718 1.17365
vt 0.12639 1.06069
vt 0.37320 0.93951
vt 0.26019 1.00000
vt 0.37320 1.06049
vt 3.00000 1.47977
vt 0.10539 1.32461
vt 2.25000 1.71488
vt 2.73981 1.67633
vt 0.48822 1.50107
vt 0.26019 1.67633
vt 0.75000 1.71488
vt 1.94651 1.32358
vt 1.98822 1.50107
vt 1.87320 1.06049
vt 1.90791 1.17120
vt 1.60539 1.32461
vt 1.76019 1.25508
vt 1.63718 1.17365
vt 1.12680 0.93951
vt 1.09209 0.82880
vt 0.97625 0.89992
vt 1.39461 0.67539
vt 1.23981 0.74492
vt 1.36282 0.82635
vt 0.86068 0.66428
vt 1.05349 0.67642
vt 1.01178 0.49893
vt 0.83233 0.89837
vt 0.88461 1.00000
vt 0.63932 0.66428
vt 0.75000 0.77694
vt 0.61539 1.00000
vt 0.66767 0.89837
vt 0.52375 0.89992
vt 0.83233 1.10163
vt 0.97625 1.10008
vt 0.52375 1.10008
vt 0.66767 1.10163
vt 0.86068 1.33572
vt 0.75000 1.22306
vt 0.63932 1.33572
vt 1.09209 1.17120
vt 1.12680 1.06049
vt 1.01178 1.50107
vt 1.05349 1.32358
vt 1.36282 1.17365
vt 1.23981 1.25508
vt 1.39461 1.32461
vt 1.23981 1.00000
vt 1.50000 1.10395
vt 1.37361 1.06069
vt 1.37361 0.93931
vt 1.50000 0.89605
vt 1.23981 0.32367
vt 1.50000 0.52023
vt 1.76019 0.32367
vt 0.40791 0.82880
vt 0.44651 0.67642
vt 0.26019 0.74492
vt 0.44651 1.32358
vt 0.40791 1.17120
vt 0.26019 1.25508
vt 1.50000 1.47977
vt 1.23981 1.67633
vt 1.76019 1.67633
vt 1.62639 0.93931
vt 1.62639 1.06069
vt 1.76019 1.00000
vt 2.57240 0.96963
vt 2.55257 0.91892
vt 2.49774 0.95051
vt 2.66801 0.85359
vt 2.61021 0.88564
vt 2.68238 0.90983
vt 2.45313 0.84714
vt 2.53241 0.86404
vt 2.51178 0.80753
vt 2.95172 0.72912
vt 2.87695 0.75548
vt 2.92948 0.80209
vt 2.73981 0.66396
vt 2.81284 0.70786
vt 2.82528 0.62111
vt 2.79976 0.85282
vt 2.80476 0.78535
vt 2.73981 0.81617
vt 2.31374 0.59190
vt 2.42348 0.58349
vt 2.37864 0.49443
vt 2.48494 0.73434
vt 2.45828 0.66474
vt 2.39728 0.73046
vt 2.63503 0.52620
vt 2.53638 0.59405
vt 2.63710 0.61976
vt 2.66200 0.78576
vt 2.65213 0.70695
vt 2.57493 0.75717
vt 2.42968 0.95023
vt 2.45168 1.00000
vt 2.37730 0.84570
vt 2.40444 0.89801
vt 2.31736 1.00000
vt 2.35895 0.94972
vt 2.29044 0.94957
vt 2.18626 0.59190
vt 2.25000 0.65673
vt 2.16042 0.78055
vt 2.19956 0.72162
vt 2.10272 0.73046
vt 2.30044 0.72162
vt 2.33958 0.78055
vt 2.04832 1.00000
vt 2.07032 0.95023
vt 2.00226 0.95051
vt 2.20956 0.94957
vt 2.14105 0.94972
vt 2.18264 1.00000
vt 2.04687 0.84714
vt 2.09556 0.89801
vt 2.12270 0.84570
vt 2.29377 0.83942
vt 2.20623 0.83942
vt 2.25000 0.89687
vt 2.42968 1.04977
vt 2.49774 1.04949
vt 2.29044 1.05043
vt 2.35895 1.05028
vt 2.45313 1.15286
vt 2.40444 1.10199
vt 2.37730 1.15430
vt 2.00226 1.04949
vt 2.07032 1.04977
vt 2.12270 1.15430
vt 2.09556 1.10199
vt 2.04687 1.15286
vt 2.14105 1.05028
vt 2.20956 1.05043
vt 2.31374 1.40810
vt 2.25000 1.34327
vt 2.18626 1.40810
vt 2.33958 1.21945
vt 2.30044 1.27838
vt 2.39728 1.26954
vt 2.10272 1.26954
vt 2.19956 1.27838
vt 2.16042 1.21945
vt 2.25000 1.10313
vt 2.20623 1.16058
vt 2.29377 1.16058
vt 2.55257 1.08108
vt 2.57240 1.03037
vt 2.51178 1.19247
vt 2.53241 1.13596
vt 2.68238 1.09017
vt 2.61021 1.11436
vt 2.66801 1.14641
vt 2.37864 1.50557
vt 2.42348 1.41651
vt 2.63710 1.38024
vt 2.53638 1.40595
vt 2.63503 1.47380
vt 2.45828 1.33526
vt 2.48494 1.26566
vt 2.92948 1.19791
vt 2.87695 1.24452
vt 2.95172 1.27088
vt 2.73981 1.18383
vt 2.80476 1.21465
vt 2.79976 1.14718
vt 2.82528 1.37889
vt 2.81284 1.29214
vt 2.73981 1.33604
vt 2.57493 1.24283
vt 2.65213 1.29305
vt 2.66200 1.21424
vt 2.62680 1.00000
vt 2.73981 1.05862
vt 2.68381 1.03026
vt 2.68381 0.96974
vt 2.73981 0.94138
vt 3.00000 1.15934
vt 2.93373 1.13944
vt 2.93727 1.03046
vt 2.93604 1.08287
vt 3.00000 1.05131
vt 2.86846 1.11553
vt 2.80808 1.09041
vt 2.93373 0.86056
vt 3.00000 0.84066
vt 2.80808 0.90959
vt 2.86846 0.88447
vt 3.00000 0.94869
vt 2.93604 0.91713
vt 2.93727 0.96954
vt 2.80639 1.03057
vt 2.87361 1.00000
vt 2.80639 0.96943
vt 1.94743 0.91892
vt 1.92760 0.96963
vt 1.98822 0.80753
vt 1.96759 0.86404
vt 1.81762 0.90983
vt 1.88979 0.88564
vt 1.83199 0.85359
vt 2.12136 0.49443
vt 2.07652 0.58349
vt 1.86290 0.61976
vt 1.96362 0.59405
vt 1.86497 0.52620
vt 2.04172 0.66474
vt 2.01506 0.73434
vt 1.57052 0.80209
vt 1.62305 0.75548
vt 1.54828 0.72912
vt 1.76019 0.81617
vt 1.69524 0.78535
vt 1.70024 0.85282
vt 1.67472 0.62111
vt 1.68716 0.70786
vt 1.76019 0.66396
vt 1.92507 0.75717
vt 1.84787 0.70695
vt 1.83800 0.78576
vt 2.42118 0.38877
vt 2.25000 0.40781
vt 2.73981 0.45723
vt 2.59825 0.40794
vt 2.25000 0.14727
vt 2.51330 0.27038
vt 2.73981 0.16887
vt 0.04828 0.72912
vt 3.00000 0.66869
vt 0.13718 0.53350
vt 0.06093 0.60123
vt 0.17472 0.62111
vt 2.93907 0.60123
vt 2.86282 0.53350
vt 0.75000 0.40781
vt 0.57882 0.38877
vt 0.62136 0.49443
vt 0.26019 0.16887
vt 0.48670 0.27038
vt 0.75000 0.14727
vt 0.36497 0.52620
vt 0.40175 0.40794
vt 0.26019 0.45723
vt 2.90481 0.41772
vt 0.09519 0.41772
vt 3.00000 0.28313
vt 0.06627 0.86056
vt 0.07052 0.80209
vt 0.06273 0.96954
vt 0.06396 0.91713
vt 0.20024 0.85282
vt 0.13154 0.88447
vt 0.19192 0.90959
vt 0.07052 1.19791
vt 0.06627 1.13944
vt 0.19192 1.09041
vt 0.13154 1.11553
vt 0.20024 1.14718
vt 0.06396 1.08287
vt 0.06273 1.03046
vt 0.42760 0.96963
vt 0.37320 1.00000
vt 0.42760 1.03037
vt 0.26019 0.94138
vt 0.31619 0.96974
vt 0.31762 0.90983
vt 0.31762 1.09017
vt 0.31619 1.03026
vt 0.26019 1.05862
vt 0.12639 1.00000
vt 0.19361 1.03057
vt 0.19361 0.96943
vt 3.00000 1.33131
vt 0.04828 1.27088
vt 2.86282 1.46650
vt 2.93907 1.39877
vt 0.17472 1.37889
vt 0.06093 1.39877
vt 0.13718 1.46650
vt 2.25000 1.59219
vt 2.42118 1.61123
vt 2.73981 1.83113
vt 2.51330 1.72962
vt 2.25000 1.85273
vt 2.59825 1.59206
vt 2.73981 1.54277
vt 0.62136 1.50557
vt 0.57882 1.61123
vt 0.75000 1.59219
vt 0.26019 1.54277
vt 0.40175 1.59206
vt 0.36497 1.47380
vt 0.75000 1.85273
vt 0.48670 1.72962
vt 0.26019 1.83113
vt 2.90481 1.58228
vt 3.00000 1.71687
vt 0.09519 1.58228
vt 2.07652 1.41651
vt 2.12136 1.50557
vt 2.01506 1.26566
vt 2.04172 1.33526
vt 1.86497 1.47380
vt 1.96362 1.40595
vt 1.86290 1.38024
vt 1.92760 1.03037
vt 1.94743 1.08108
vt 1.83199 1.14641
vt 1.88979 1.11436
vt 1.81762 1.09017
vt 1.96759 1.13596
vt 1.98822 1.19247
vt 1.54828 1.27088
vt 1.62305 1.24452
vt 1.57052 1.19791
vt 1.76019 1.33604
vt 1.68716 1.29214
vt 1.67472 1.37889
vt 1.70024 1.14718
vt 1.69524 1.21465
vt 1.76019 1.18383
vt 1.92507 1.24283
vt 1.83800 1.21424
vt 1.84787 1.29305
vt 1.07240 0.96963
vt 1.05257 0.91892
vt 0.99774 0.95051
vt 1.16801 0.85359
vt 1.11021 0.88564
vt 1.18238 0.90983
vt 0.95313 0.84714
vt 1.03241 0.86404
vt 1.01178 0.80753
vt 1.45172 0.72912
vt 1.37695 0.75548
vt 1.42948 0.80209
vt 1.23981 0.66396
vt 1.31284 0.70786
vt 1.32528 0.62111
vt 1.29976 0.85282
vt 1.30476 0.78535
vt 1.23981 0.81617
vt 0.81374 0.59190
vt 0.92348 0.58349
vt 0.87864 0.49443
vt 0.98494 0.73434
vt 0.95828 0.66474
vt 0.89728 0.73046
vt 1.13503 0.52620
vt 1.03638 0.59405
vt 1.13710 0.61976
vt 1.16200 0.78576
vt 1.15213 0.70695
vt 1.07493 0.75717
vt 0.92968 0.95023
vt 0.95168 1.00000
vt 0.87730 0.84570
vt 0.90444 0.89801
vt 0.81736 1.00000
vt 0.85895 0.94972
vt 0.79044 0.94957
vt 0.68626 0.59190
vt 0.75000 0.65673
vt 0.66042 0.78055
vt 0.69956 0.72162
vt 0.60272 0.73046
vt 0.80044 0.72162
vt 0.83958 0.78055
vt 0.54832 1.00000
vt 0.57032 0.95023
vt 0.50226 0.95051
vt 0.70956 0.94957
vt 0.64105 0.94972
vt 0.68264 1.00000
vt 0.54687 0.84714
vt 0.59556 0.89801
vt 0.62270 0.84570
vt 0.79377 0.83942
vt 0.70623 0.83942
vt 0.75000 0.89687
vt 0.92968 1.04977
vt 0.99774 1.04949
vt 0.79044 1.05043
vt 0.85895 1.05028
vt 0.95313 1.15286
vt 0.90444 1.10199
vt 0.87730 1.15430
vt 0.50226 1.04949
vt 0.57032 1.04977
vt 0.62270 1.15430
vt 0.59556 1.10199
vt 0.54687 1.15286
vt 0.64105 1.05028
vt 0.70956 1.05043
vt 0.81374 1.40810
vt 0.75000 1.34327
vt 0.68626 1.40810
vt 0.83958 1.21945
vt 0.80044 1.27838
vt 0.89728 1.26954
vt 0.60272 1.26954
vt 0.69956 1.27838
vt 0.66042 1.21945
vt 0.75000 1.10313
vt 0.70623 1.16058
vt 0.79377 1.16058
vt 1.05257 1.08108
vt 1.07240 1.03037
vt 1.01178 1.19247
vt 1.03241 1.13596
vt 1.18238 1.09017
vt 1.11021 1.11436
vt 1.16801 1.14641
vt 0.87864 1.50557
vt 0.92348 1.41651
vt 1.13710 1.38024
vt 1.03638 1.40595
vt 1.13503 1.47380
vt 0.95828 1.33526
vt 0.98494 1.26566
vt 1.42948 1.19791
vt 1.37695 1.24452
vt 1.45172 1.27088
vt 1.23981 1.18383
vt 1.30476 1.21465
vt 1.29976 1.14718
vt 1.32528 1.37889
vt 1.31284 1.29214
vt 1.23981 1.33604
vt 1.07493 1.24283
vt 1.15213 1.29305
vt 1.16200 1.21424
vt 1.12680 1.00000
vt 1.23981 1.05862
vt 1.18381 1.03026
vt 1.18381 0.96974
vt 1.23981 0.94138
vt 1.50000 1.15934
vt 1.43373 1.13944
vt 1.43727 1.03046
vt 1.43604 1.08287
vt 1.50000 1.05131
vt 1.36846 1.11553
vt 1.30808 1.09041
vt 1.43373 0.86056
vt 1.50000 0.84066
vt 1.30808 0.90959
vt 1.36846 0.88447
vt 1.50000 0.94869
vt 1.43604 0.91713
vt 1.43727 0.96954
vt 1.30639 1.03057
vt 1.37361 1.00000
vt 1.30639 0.96943
vt 0.92118 0.38877
vt 1.23981 0.45723
vt 1.09825 0.40794
vt 1.01330 0.27038
vt 1.23981 0.16887
vt 1.50000 0.66869
vt 1.63718 0.53350
vt 1.56093 0.60123
vt 1.43907 0.60123
vt 1.36282 0.53350
vt 2.07882 0.38877
vt 1.76019 0.16887
vt 1.98670 0.27038
vt 1.90175 0.40794
vt 1.76019 0.45723
vt 1.40481 0.41772
vt 1.59519 0.41772
vt 1.50000 0.28313
vt 0.44743 0.91892
vt 0.48822 0.80753
vt 0.46759 0.86404
vt 0.38979 0.88564
vt 0.33199 0.85359
vt 0.57652 0.58349
vt 0.36290 0.61976
vt 0.46362 0.59405
vt 0.54172 0.66474
vt 0.51506 0.73434
vt 0.12305 0.75548
vt 0.26019 0.81617
vt 0.19524 0.78535
vt 0.18716 0.70786
vt 0.26019 0.66396
vt 0.42507 0.75717
vt 0.34787 0.70695
vt 0.33800 0.78576
vt 0.57652 1.41651
vt 0.51506 1.26566
vt 0.54172 1.33526
vt 0.46362 1.40595
vt 0.36290 1.38024
vt 0.44743 1.08108
vt 0.33199 1.14641
vt 0.38979 1.11436
vt 0.46759 1.13596
vt 0.48822 1.19247
vt 0.12305 1.24452
vt 0.26019 1.33604
vt 0.18716 1.29214
vt 0.19524 1.21465
vt 0.26019 1.18383
vt 0.42507 1.24283
vt 0.33800 1.21424
vt 0.34787 1.29305
vt 1.50000 1.33131
vt 1.36282 1.46650
vt 1.43907 1.39877
vt 1.56093 1.39877
vt 1.63718 1.46650
vt 0.92118 1.61123
vt 1.23981 1.83113
vt 1.01330 1.72962
vt 1.09825 1.59206
vt 1.23981 1.54277
vt 2.07882 1.61123
vt 1.76019 1.54277
vt 1.90175 1.59206
vt 1.98670 1.72962
vt 1.76019 1.83113
vt 1.40481 1.58228
vt 1.50000 1.71687
vt 1.59519 1.58228
vt 1.56627 0.86056
vt 1.56273 0.96954
vt 1.56396 0.91713
vt 1.63154 0.88447
vt 1.69192 0.90959
vt 1.56627 1.13944
vt 1.69192 1.09041
vt 1.63154 1.11553
vt 1.56396 1.08287
vt 1.56273 1.03046
vt 1.87320 1.00000
vt 1.76019 0.94138
vt 1.81619 0.96974
vt 1.81619 1.03026
vt 1.76019 1.05862
vt 1.62639 1.00000
vt 1.69361 1.03057
vt 1.69361 0.96943
vn -0.24522 0.84612 -0.47323
vn 0.37088 0.68765 -0.62417
vn -0.31604 -0.84241 0.43642
vn 0.27363 -0.88549 0.37554
vn 0.00654 -0.42623 0.90459
vn -0.14229 0.36617 0.91960
vn -0.08944 -0.52789 -0.84459
vn -0.03174 0.44232 -0.89629
vn 0.77122 -0.24370 -0.58807
vn 0.72031 -0.35469 0.59612
vn -0.34039 0.12216 -0.93232
vn -0.40037 -0.10663 0.91013
vn -0.77106 0.38409 0.50787
vn -0.13250 -0.06599 0.98898
vn 0.01522 0.42867 0.90333
vn 0.35486 0.82090 0.44743
vn 0.01050 0.98716 -0.15936
vn 0.30385 0.73778 -0.60279
vn 0.04500 0.72167 -0.69078
vn -0.41602 0.20421 -0.88613
vn -0.65207 0.17847 -0.73685
vn -0.89860 0.05722 -0.43503
vn 0.37234 0.15747 0.91464
vn 0.74576 0.64886 0.15111
vn -0.47379 0.05808 0.87872
vn -0.10239 0.12482 0.98688
vn -0.58717 -0.18026 -0.78914
vn -0.44703 -0.37095 0.81398
vn -0.12286 0.12352 -0.98471
vn -0.38235 0.03381 -0.92340
vn 0.41256 0.85492 -0.31448
vn 0.35453 0.39270 -0.84859
vn 0.86727 -0.32519 0.37696
vn 0.23199 -0.19180 0.95362
vn 0.03814 -0.85248 0.52136
vn -0.40471 -0.83884 0.36408
vn -0.05988 -0.98654 0.15218
vn -0.20514 -0.79928 -0.56487
vn 0.15677 -0.75654 -0.63488
vn 0.62079 -0.16286 -0.76687
vn 0.88173 -0.41873 -0.21730
vn 0.88522 -0.15122 0.43990
vn -0.60691 0.79155 -0.07146
vn -0.35479 0.43919 0.82537
vn -0.09660 0.98450 -0.14640
vn -0.13066 -0.02455 0.99112
vn -0.33452 0.02243 0.94212
vn -0.54095 0.04546 0.83982
vn -0.17675 0.36993 0.91209
vn -0.02025 0.23701 0.97130
vn -0.30997 0.07923 0.94744
vn 0.12455 0.99061 -0.05646
vn 0.04298 0.98588 -0.16182
vn 0.02476 0.48484 0.87425
vn 0.00347 0.80949 0.58713
vn 0.57765 0.65161 -0.49166
vn 0.09766 0.98720 0.12611
vn 0.45257 0.83737 -0.30658
vn -0.02675 0.60271 -0.79751
vn -0.05516 0.73190 -0.67918
vn 0.61002 0.79180 -0.03028
vn 0.29283 0.77914 -0.55425
vn -0.01315 0.61332 -0.78972
vn -0.03742 0.67510 -0.73677
vn 0.02531 0.71531 -0.69834
vn -0.18008 0.43297 -0.88324
vn -0.37581 0.73793 -0.56056
vn -0.18021 0.36311 -0.91415
vn -0.30539 0.42403 -0.85261
vn -0.45794 0.06039 -0.88693
vn -0.33151 0.21413 -0.91883
vn -0.56636 -0.08731 -0.81952
vn -0.89570 0.22067 -0.38604
vn -0.65257 -0.01467 -0.75758
vn -0.72467 0.36545 -0.58421
vn -0.96653 0.25341 -0.04008
vn -0.73542 0.05024 0.67575
vn 0.53407 0.74325 0.40293
vn 0.51162 0.72691 -0.45809
vn 0.08545 0.32045 0.94340
vn 0.29291 0.56922 0.76824
vn 0.84170 0.18557 0.50705
vn 0.63316 0.39263 0.66704
vn 0.63835 0.04171 0.76861
vn -0.32890 0.28692 0.89972
vn -0.25907 0.08970 0.96169
vn -0.30380 -0.12458 0.94456
vn -0.40133 0.12669 0.90713
vn -0.05871 -0.08763 0.99442
vn -0.35262 0.03729 0.93502
vn -0.20723 -0.19851 0.95794
vn -0.82808 -0.45605 0.32603
vn -0.31368 -0.29742 0.90175
vn -0.53130 -0.10297 -0.84091
vn -0.70248 -0.21194 -0.67941
vn -0.41286 -0.79015 0.45300
vn -0.79289 -0.59326 0.13919
vn -0.50958 -0.85597 0.08741
vn -0.54835 0.11514 -0.82829
vn -0.50552 0.25665 -0.82376
vn -0.15769 0.34686 -0.92457
vn -0.17569 0.14377 -0.97389
vn -0.35692 -0.16648 -0.91918
vn -0.34802 0.12786 -0.92873
vn 0.02862 0.03997 -0.99879
vn 0.36708 0.79129 -0.48898
vn -0.10748 0.48553 -0.86759
vn 0.46934 0.74527 -0.47359
vn 0.61746 0.76663 -0.17614
vn 0.71970 0.17170 -0.67272
vn 0.55285 0.70548 -0.44346
vn 0.67164 0.31387 -0.67111
vn 0.52479 -0.61032 0.59338
vn 0.67729 -0.59354 0.43473
vn 0.30103 -0.93500 0.18749
vn 0.79330 -0.11226 0.59840
vn 0.72819 -0.38824 0.56481
vn 0.89781 -0.10884 0.42672
vn 0.12960 -0.61627 0.77680
vn 0.28165 -0.44094 0.85220
vn 0.30063 -0.28955 0.90873
vn -0.07981 -0.86892 0.48848
vn 0.10484 -0.98485 0.13815
vn -0.03872 -0.59491 0.80286
vn 0.16292 -0.96932 0.18406
vn -0.06223 -0.92026 0.38633
vn 0.06309 -0.96021 0.27206
vn -0.31798 -0.85944 0.40032
vn -0.04024 -0.99807 -0.04729
vn 0.29250 -0.94112 -0.16952
vn -0.23347 -0.96625 -0.10888
vn 0.20338 -0.97401 -0.09968
vn 0.03706 -0.75624 -0.65324
vn 0.08125 -0.91877 -0.38634
vn 0.06660 -0.61312 -0.78718
vn 0.63191 -0.54875 -0.54733
vn 0.69613 -0.52312 -0.49167
vn 0.26366 -0.21705 -0.93988
vn 0.51629 -0.52512 -0.67654
vn 0.61134 -0.08278 -0.78703
vn 0.61741 -0.10893 -0.77906
vn 0.72423 -0.38297 -0.57343
vn 0.99480 -0.09913 -0.02324
vn 0.69103 -0.16224 -0.70438
vn 0.84393 -0.52257 0.12128
vn 0.88569 -0.42816 0.17955
vn 0.90486 -0.27202 0.32745
vn 0.18052 -0.12392 0.97573
vn 0.35284 -0.13265 0.92624
vn 0.01554 0.03233 0.99936
vn -0.37869 -0.52977 0.75891
vn -0.61287 -0.50831 0.60498
vn -0.55502 -0.29238 0.77876
vn -0.59337 -0.40694 -0.69449
vn -0.37074 -0.34076 -0.86396
vn -0.64034 -0.30372 -0.70549
vn 0.41051 -0.07748 -0.90856
vn 0.08722 -0.04748 -0.99506
vn 0.07861 0.17053 -0.98221
vn 0.95330 0.18118 0.24166
vn 0.82154 0.44977 -0.35039
vn 0.52342 0.78274 -0.33668
vn -0.31254 0.83859 -0.44620
vn -0.46055 0.87260 -0.16265
vn -0.16594 0.85152 -0.49736
vn -0.54218 0.46623 0.69905
vn -0.60571 0.67836 0.41587
vn -0.75979 0.60738 0.23196
vn 0.01659 0.79165 0.61074
vn -0.37950 0.72535 0.57433
vn -0.11218 0.39295 0.91269
vn -0.21141 -0.00087 0.97740
vn -0.28809 0.01675 0.95746
vn -0.45637 0.03650 0.88904
vn -0.17997 -0.08621 0.97989
vn -0.24396 -0.09182 0.96543
vn -0.18912 -0.12615 0.97382
vn -0.66238 0.10587 0.74165
vn -0.40524 -0.00289 0.91421
vn -0.50731 0.19877 0.83853
vn -0.21930 0.35926 0.90710
vn -0.23536 0.24680 0.94005
vn -0.32292 0.22815 0.91852
vn -0.01551 0.33865 0.94078
vn -0.05565 0.28865 0.95582
vn -0.06986 0.35944 0.93055
vn -0.12128 0.01945 0.99243
vn -0.07313 0.10788 0.99147
vn -0.04621 0.02569 0.99860
vn -0.34702 0.31676 0.88274
vn -0.16358 0.14917 0.97519
vn -0.12578 0.35618 0.92591
vn 0.09514 0.93494 -0.34181
vn -0.09137 0.91684 -0.38867
vn 0.22919 0.91336 0.33652
vn 0.23999 0.95811 -0.15632
vn -0.02367 0.99867 -0.04589
vn 0.15435 0.98384 -0.09071
vn -0.11391 0.99349 -0.00206
vn -0.10751 0.34019 0.93419
vn -0.18140 0.41457 0.89176
vn 0.18072 0.81577 0.54943
vn -0.02511 0.71270 0.70101
vn 0.23475 0.78288 0.57618
vn -0.13244 0.50064 0.85546
vn 0.05514 0.62700 0.77707
vn 0.48030 0.66165 -0.57578
vn 0.47376 0.63905 -0.60594
vn 0.35173 0.66003 -0.66381
vn 0.03498 0.99177 -0.12314
vn 0.39478 0.80196 -0.44834
vn 0.35547 0.85215 -0.38404
vn 0.42971 0.79191 0.43386
vn 0.48310 0.86899 -0.10708
vn 0.27802 0.83948 0.46687
vn 0.07714 0.96595 0.24697
vn 0.03011 0.91117 0.41092
vn -0.09571 0.98979 0.10562
vn -0.05453 0.84895 -0.52565
vn -0.19993 0.87394 -0.44302
vn -0.02046 0.83038 -0.55682
vn 0.00966 0.83103 -0.55614
vn 0.05663 0.66277 -0.74667
vn 0.06864 0.64734 -0.75911
vn 0.06076 0.69531 -0.71614
vn 0.53504 0.79776 -0.27804
vn 0.64515 0.74167 -0.18360
vn 0.34397 0.72409 -0.59782
vn 0.56869 0.77829 -0.26621
vn 0.47007 0.78695 -0.39969
vn 0.59437 0.75584 -0.27466
vn 0.20384 0.86530 -0.45793
vn 0.03421 0.48686 -0.87281
vn 0.07351 0.65371 -0.75317
vn -0.01770 0.54905 -0.83560
vn -0.04530 0.79315 -0.60734
vn 0.04979 0.76193 -0.64574
vn -0.07186 0.74961 -0.65796
vn 0.09220 0.70147 -0.70671
vn 0.05107 0.66247 -0.74735
vn 0.08318 0.62618 -0.77523
vn -0.05869 0.69783 -0.71386
vn 0.00374 0.67808 -0.73497
vn -0.12888 0.67590 -0.72564
vn -0.21802 0.77973 -0.58693
vn -0.25153 0.87163 -0.42070
vn -0.10554 0.53227 -0.83997
vn -0.12050 0.64884 -0.75132
vn -0.55533 0.36790 -0.74583
vn -0.28820 0.58608 -0.75727
vn -0.40782 0.34619 -0.84489
vn 0.01299 0.42303 -0.90602
vn -0.10151 0.45133 -0.88657
vn -0.32381 0.37951 -0.86667
vn -0.30373 0.42431 -0.85306
vn -0.30874 0.34546 -0.88619
vn -0.22731 0.52846 -0.81796
vn -0.18241 0.54133 -0.82078
vn -0.34163 0.06534 -0.93756
vn -0.47573 -0.10073 -0.87381
vn -0.39472 0.05403 -0.91721
vn -0.52768 0.22873 -0.81807
vn -0.55372 -0.01426 -0.83258
vn -0.63894 0.13374 -0.75754
vn -0.48640 0.02614 -0.87335
vn -0.46399 -0.05326 -0.88424
vn -0.32389 0.22016 -0.92012
vn -0.19854 0.37951 -0.90363
vn -0.22188 0.38247 -0.89693
vn -0.21941 0.35435 -0.90901
vn -0.45591 0.81946 -0.34731
vn -0.78227 0.15124 -0.60430
vn -0.72061 0.49245 -0.48807
vn -0.79993 0.58301 -0.14221
vn -0.91341 0.38336 -0.13680
vn -0.37419 0.06467 -0.92509
vn -0.42603 0.13068 -0.89522
vn -0.82233 0.24064 -0.51562
vn -0.71174 0.22446 -0.66562
vn -0.78152 -0.00870 -0.62382
vn -0.58951 0.25737 -0.76566
vn -0.73133 0.21375 -0.64767
vn -0.68933 0.05793 0.72213
vn -0.54446 -0.05057 0.83726
vn -0.95566 0.25212 0.15218
vn -0.81504 0.09900 0.57088
vn -0.97204 0.09472 0.21486
vn -0.88115 0.17079 0.44091
vn -0.94999 0.27938 -0.13955
vn -0.81766 0.23372 -0.52613
vn -0.82270 0.36961 -0.43192
vn -0.86923 0.27152 -0.41317
vn 0.45343 0.75965 -0.46619
vn 0.34949 0.66281 -0.66223
vn 0.39469 0.81970 0.41511
vn 0.46075 0.86374 0.20410
vn 0.73025 0.68231 0.03448
vn 0.68608 0.72613 -0.04506
vn 0.75409 0.64920 0.09943
vn -0.03658 0.32850 0.94380
vn 0.06114 0.32514 0.94369
vn 0.27207 0.30820 0.91159
vn 0.06059 0.32652 0.94325
vn 0.10287 0.30163 0.94786
vn 0.14348 0.50052 0.85375
vn 0.34549 0.82022 0.45594
vn 0.68404 -0.19732 0.70225
vn 0.62690 -0.00788 0.77906
vn 0.74381 -0.17414 0.64531
vn 0.75844 0.59650 0.26258
vn 0.71548 0.31829 0.62192
vn 0.81224 0.53925 0.22244
vn 0.57207 0.09355 0.81485
vn 0.57363 0.11945 0.81036
vn 0.57477 0.20302 0.79273
vn 0.50402 0.75438 0.42057
vn 0.57881 0.53059 0.61923
vn 0.62618 0.64147 0.44320
vn -0.38269 0.06548 0.92155
vn -0.19509 0.19558 0.96109
vn -0.24708 0.11877 0.96169
vn -0.33211 0.11506 0.93620
vn -0.22289 0.02978 0.97439
vn -0.33523 0.13299 0.93270
vn -0.17123 0.19535 0.96567
vn -0.23660 -0.16174 0.95805
vn -0.13563 -0.00845 0.99072
vn -0.40386 0.11325 0.90779
vn -0.30562 0.08990 0.94790
vn -0.47296 -0.01017 0.88103
vn -0.22134 0.02405 0.97490
vn -0.29914 0.03202 0.95367
vn -0.07861 -0.29185 0.95323
vn -0.21954 -0.19058 0.95681
vn -0.14700 -0.26884 0.95190
vn -0.12689 0.14469 0.98131
vn -0.19024 -0.04390 0.98075
vn -0.03404 0.10500 0.99389
vn -0.29982 -0.07712 0.95087
vn -0.27138 -0.11898 0.95509
vn -0.43682 0.06910 0.89689
vn -0.42160 0.20603 0.88307
vn -0.49469 0.12537 0.85998
vn -0.33675 0.21222 0.91737
vn -0.49942 -0.14891 0.85347
vn -0.36386 -0.22298 0.90437
vn -0.96672 -0.21456 -0.13931
vn -0.82518 -0.18728 0.53292
vn -0.35540 -0.37901 0.85443
vn -0.52327 -0.40464 0.74997
vn -0.56665 -0.47919 0.67029
vn -0.39540 0.04563 -0.91737
vn -0.56744 -0.10319 -0.81693
vn -0.73179 -0.15545 -0.66356
vn -0.67601 -0.16623 -0.71790
vn -0.58599 -0.14716 -0.79685
vn -0.70961 -0.17264 -0.68312
vn -0.77269 -0.12326 -0.62270
vn -0.32142 -0.86796 0.37858
vn -0.44254 -0.81862 0.36610
vn -0.37673 -0.86533 0.33058
vn -0.64408 -0.59954 0.47510
vn -0.61823 -0.69802 0.36132
vn -0.47120 -0.62289 0.62448
vn -0.67129 -0.51963 -0.52854
vn -0.68725 -0.68861 0.23131
vn -0.88452 -0.35006 -0.30837
vn -0.86745 -0.35859 -0.34489
vn -0.84259 -0.38275 -0.37886
vn -0.81665 -0.55807 0.14710
vn -0.56396 0.16704 -0.80873
vn -0.42836 0.17454 -0.88659
vn -0.50758 0.10967 -0.85460
vn -0.63676 0.04563 -0.76971
vn -0.46919 0.14373 -0.87132
vn -0.59099 0.16847 -0.78889
vn -0.48047 0.09308 -0.87206
vn -0.07685 0.45435 -0.88750
vn -0.07196 0.34051 -0.93748
vn -0.17513 0.15384 -0.97245
vn -0.16459 0.19054 -0.96778
vn -0.19214 0.15717 -0.96870
vn -0.17854 0.23557 -0.95532
vn -0.33468 0.17797 -0.92537
vn -0.10781 -0.38995 -0.91450
vn -0.20283 -0.12898 -0.97068
vn -0.04353 -0.25020 -0.96721
vn -0.43796 0.00879 -0.89895
vn -0.43617 -0.02238 -0.89958
vn -0.39619 -0.01950 -0.91796
vn -0.00206 0.16686 -0.98598
vn -0.16656 0.10900 -0.97999
vn -0.14053 0.22546 -0.96406
vn -0.35781 0.11859 -0.92623
vn -0.21914 0.18754 -0.95750
vn -0.41483 0.07544 -0.90677
vn -0.11188 0.64255 -0.75803
vn -0.14409 0.52332 -0.83987
vn 0.25045 0.79653 -0.55028
vn 0.05185 0.78974 -0.61125
vn 0.21610 0.38372 -0.89781
vn 0.11943 0.69129 -0.71264
vn 0.46060 0.61414 -0.64085
vn 0.39063 0.73763 -0.55074
vn 0.58619 0.79310 -0.16544
vn 0.56419 0.80983 -0.16081
vn 0.59144 0.80545 -0.03800
vn 0.40266 0.83508 -0.37483
vn 0.57788 0.81013 -0.09873
vn 0.40981 0.83167 -0.37467
vn 0.82302 -0.07820 -0.56261
vn 0.76564 0.32883 -0.55287
vn 0.77738 0.04522 -0.62740
vn 0.48493 0.60465 -0.63185
vn 0.66488 0.50964 -0.54608
vn 0.46761 0.35543 -0.80933
vn 0.55733 0.69355 -0.45648
vn 0.62727 0.53885 -0.56230
vn 0.49533 0.81956 -0.28804
vn 0.47634 0.76729 -0.42939
vn 0.56036 0.78120 -0.27519
vn 0.49960 0.73335 -0.46109
vn 0.41102 -0.79139 0.45251
vn 0.52850 -0.77302 0.35089
vn 0.31894 -0.92252 0.21733
vn 0.72474 -0.57057 0.38627
vn 0.63505 -0.57937 0.51092
vn 0.67929 -0.40653 0.61099
vn 0.15360 -0.94140 0.30028
vn 0.56928 -0.74967 0.33751
vn 0.46905 -0.70505 0.53188
vn 0.92338 -0.18631 0.33563
vn 0.97788 -0.05011 0.20307
vn 0.79648 -0.32478 0.51004
vn 0.38549 -0.26717 0.88318
vn 0.78383 -0.13731 0.60561
vn 0.39251 -0.17073 0.90376
vn 0.94129 -0.10998 0.31919
vn 0.97120 -0.05799 0.23109
vn 0.88027 -0.40786 0.24244
vn 0.13800 -0.56622 0.81262
vn 0.19644 -0.50315 0.84158
vn 0.14603 -0.43318 0.88940
vn 0.23214 -0.54635 0.80474
vn 0.16133 -0.51522 0.84174
vn 0.02765 -0.67126 0.74071
vn 0.25089 -0.21455 0.94394
vn 0.25662 -0.37864 0.88926
vn 0.24951 -0.32912 0.91073
vn 0.65902 -0.63101 0.40929
vn 0.39356 -0.49234 0.77635
vn 0.49024 -0.55811 0.66946
vn 0.16092 -0.96778 0.19369
vn 0.19550 -0.94511 0.26181
vn -0.12632 -0.95455 0.26996
vn -0.01291 -0.96593 0.25847
vn 0.08959 -0.99228 0.08579
vn 0.05484 -0.93131 0.36007
vn -0.01398 -0.87121 0.49071
vn 0.02628 -0.45305 0.89110
vn 0.15904 -0.62962 0.76045
vn 0.00100 -0.97332 0.22946
vn 0.12731 -0.81701 0.56239
vn -0.25709 -0.79922 0.54328
vn 0.12818 -0.81210 0.56926
vn -0.06981 -0.93555 0.34623
vn -0.22075 -0.87579 0.42925
vn -0.17071 -0.92695 0.33409
vn -0.32233 -0.88134 0.34547
vn -0.04623 -0.88591 0.46155
vn -0.03070 -0.94615 0.32226
vn -0.03099 -0.95578 0.29245
vn -0.37299 -0.83841 0.39743
vn -0.12595 -0.95663 0.26268
vn -0.09560 -0.98237 0.16068
vn -0.03565 -0.97083 0.23709
vn 0.18530 -0.97496 0.12294
vn 0.01493 -0.87714 0.48000
vn 0.04944 -0.99734 0.05359
vn 0.29117 -0.95270 0.08709
vn 0.05727 -0.94107 -0.33332
vn -0.00192 -0.97564 -0.21938
vn 0.23086 -0.88363 -0.40731
vn -0.07151 -0.99744 -0.00115
vn -0.03101 -0.97907 -0.20112
vn -0.34668 -0.83714 0.42311
vn -0.09133 -0.94506 0.31387
vn 0.07941 -0.97260 -0.21852
vn 0.07049 -0.98823 -0.13575
vn -0.20032 -0.82912 -0.52195
vn 0.08647 -0.99480 0.05380
vn 0.05956 -0.97215 -0.22666
vn -0.01741 -0.73126 -0.68187
vn 0.12468 -0.67369 -0.72842
vn 0.03628 -0.59677 -0.80159
vn 0.03904 -0.84210 -0.53791
vn 0.10520 -0.68536 -0.72056
vn 0.09076 -0.70634 -0.70203
vn -0.09512 -0.79285 -0.60195
vn 0.10310 -0.73603 -0.66905
vn 0.05296 -0.91495 -0.40008
vn 0.05329 -0.98696 -0.15191
vn 0.11331 -0.99039 -0.07925
vn -0.00770 -0.99948 -0.03129
vn 0.60815 -0.65615 -0.44679
vn 0.54464 -0.83562 -0.07150
vn 0.44381 -0.59053 -0.67402
vn 0.62937 -0.66301 -0.40535
vn 0.80040 -0.53723 -0.26599
vn 0.67143 -0.61091 -0.41950
vn 0.66563 -0.55717 -0.49648
vn 0.04892 -0.39980 -0.91530
vn 0.20511 -0.65675 -0.72567
vn 0.64551 -0.36221 -0.67240
vn 0.48273 -0.49823 -0.72024
vn 0.41298 -0.17313 -0.89413
vn 0.31121 -0.67128 -0.67271
vn 0.38123 -0.57274 -0.72570
vn 0.64050 -0.24379 -0.72824
vn 0.62455 -0.24034 -0.74308
vn 0.72471 -0.36536 -0.58422
vn 0.62101 -0.28203 -0.73130
vn 0.55705 -0.02908 -0.82997
vn 0.80945 -0.16178 -0.56446
vn 0.77012 -0.22897 -0.59539
vn 0.71946 -0.14737 -0.67872
vn 0.75241 -0.18382 -0.63252
vn 0.50833 -0.47536 -0.71808
vn 0.59569 -0.34251 -0.72653
vn 0.59232 -0.39967 -0.69958
vn 0.74697 -0.66179 0.06377
vn 0.95960 -0.26668 0.08973
vn 0.91818 -0.30462 -0.25329
vn 0.91385 -0.32683 0.24095
vn 0.96481 -0.13467 0.22583
vn 0.62764 -0.13625 -0.76649
vn 0.62084 -0.22172 -0.75193
vn 0.84714 -0.43541 0.30459
vn 0.83215 -0.40006 -0.38402
vn 0.97512 -0.21019 0.07039
vn 0.85142 -0.29269 -0.43522
vn 0.93270 -0.33571 0.13180
vn 0.71534 -0.35232 0.60345
vn 0.69785 -0.38961 0.60101
vn 0.94728 -0.21400 0.23847
vn 0.80146 -0.26889 0.53419
vn 0.93499 -0.15251 0.32020
vn 0.82364 -0.34460 0.45040
vn 0.86959 -0.39319 0.29867
vn 0.92003 -0.31612 0.23155
vn 0.81269 -0.51573 0.27122
vn 0.96815 -0.24804 0.03411
vn 0.18882 -0.18461 0.96450
vn 0.23362 -0.17431 0.95658
vn 0.28612 -0.13980 0.94794
vn 0.15811 -0.00993 0.98737
vn 0.01032 0.01397 0.99985
vn 0.74887 -0.04793 0.66098
vn 0.42802 0.04682 0.90256
vn 0.54519 0.01230 0.83822
vn 0.46302 -0.11281 0.87914
vn 0.24687 -0.18837 0.95057
vn -0.05151 0.23628 0.97032
vn -0.13164 -0.03990 0.99049
vn -0.13990 0.09473 0.98562
vn 0.04180 0.27673 0.96004
vn 0.22351 0.17736 0.95843
vn 0.20784 -0.22065 0.95295
vn 0.23439 -0.08451 0.96846
vn 0.04487 -0.13697 0.98956
vn -0.32949 -0.79890 0.50319
vn -0.53823 -0.64349 0.54427
vn -0.40794 -0.69699 0.58973
vn -0.31335 -0.66173 0.68112
vn -0.34333 -0.40734 0.84629
vn -0.16552 -0.30601 0.93753
vn -0.53960 -0.25240 0.80320
vn -0.30213 -0.29122 0.90769
vn -0.36072 -0.49106 0.79293
vn -0.62160 -0.64325 0.44703
vn -0.29415 -0.28728 0.91156
vn -0.34207 -0.30856 0.88757
vn -0.31256 -0.30888 0.89828
vn -0.46739 -0.24045 0.85072
vn -0.68453 -0.13287 0.71678
vn -0.60995 -0.53149 0.58778
vn -0.70167 -0.45328 0.54972
vn -0.46320 -0.38905 0.79629
vn -0.11947 -0.39613 -0.91039
vn -0.51399 -0.65562 -0.55315
vn -0.23363 -0.54052 -0.80824
vn -0.35208 -0.17047 -0.92032
vn -0.44085 -0.12141 -0.88933
vn -0.47602 -0.87196 0.11447
vn -0.43691 -0.25282 -0.86324
vn -0.50514 -0.63777 -0.58144
vn -0.37431 -0.64952 -0.66182
vn -0.44974 -0.53912 -0.71210
vn -0.57239 0.11047 -0.81251
vn -0.50072 -0.08760 -0.86117
vn -0.59250 0.05448 -0.80373
vn -0.65854 -0.10820 -0.74473
vn -0.54777 -0.22410 -0.80605
vn -0.63070 -0.47403 -0.61442
vn -0.50051 -0.38070 -0.77753
vn -0.63396 -0.39430 -0.66529
vn 0.68718 -0.27353 -0.67303
vn 0.51636 -0.13831 -0.84513
vn 0.58829 -0.26332 -0.76458
vn 0.48696 -0.04067 -0.87248
vn 0.30949 0.14911 -0.93914
vn 0.14194 -0.02804 -0.98948
vn -0.02400 0.03409 -0.99913
vn 0.10074 0.06499 -0.99279
vn 0.18450 -0.02348 -0.98255
vn 0.33898 -0.08430 -0.93701
vn -0.16126 0.45048 -0.87810
vn 0.20162 0.23369 -0.95118
vn 0.02710 0.31476 -0.94879
vn -0.09983 0.26721 -0.95845
vn -0.07501 0.06320 -0.99518
vn 0.30499 -0.06540 -0.95011
vn 0.05300 0.03090 -0.99812
vn 0.23701 0.09569 -0.96678
vn 0.94450 -0.12610 0.30333
vn 0.89833 0.00534 0.43930
vn 0.99758 0.01351 0.06820
vn 0.96447 0.25875 0.05340
vn 0.85597 0.49085 0.16242
vn 0.63546 0.07706 -0.76828
vn 0.48715 0.70292 -0.51826
vn 0.64754 0.40328 -0.64657
vn 0.83755 0.13406 -0.52966
vn 0.94484 0.03017 0.32614
vn 0.34867 0.67130 -0.65406
vn 0.69830 0.70821 0.10401
vn 0.48554 0.77304 -0.40825
vn 0.29138 0.74921 -0.59479
vn 0.33138 0.77073 -0.54420
vn 0.88891 0.26928 0.37057
vn 0.65379 0.70187 -0.28276
vn 0.82684 0.52168 0.21020
f 1/1/1 163/163/163 165/165/165
f 43/43/43 164/164/164 163/163/163
f 45/45/45 165/165/165 164/164/164
f 163/163/163 164/164/164 165/165/165
f 13/13/13 166/166/166 168/168/168
f 44/44/44 167/167/167 166/166/166
f 43/43/43 168/168/168 167/167/167
f 166/166/166 167/167/167 168/168/168
f 15/15/15 169/169/169 171/171/171
f 45/45/45 170/170/170 169/169/169
f 44/44/44 171/171/171 170/170/170
f 169/169/169 170/170/170 171/171/171
f 43/43/43 167/167/167 164/164/164
f 44/44/44 170/170/170 167/167/167
f 45/45/45 164/164/164 170/170/170
f 167/167/167 170/170/170 164/164/164
f 12/12/12 172/172/172 174/174/174
f 46/46/46 173/173/173 172/172/172
f 48/48/48 174/174/174 173/173/173
f 172/172/172 173/173/173 174/174/174
f 14/14/14 175/175/175 177/177/177
f 47/47/47 176/176/176 175/175/175
f 46/46/46 177/177/177 176/176/176
f 175/175/175 176/176/176 177/177/177
f 13/13/13 178/178/178 180/180/180
f 48/48/48 179/179/179 178/178/178
f 47/47/47 180/180/180 179/179/179
f 178/178/178 179/179/179 180/180/180
f 46/46/46 176/176/176 173/173/173
f 47/47/47 179/179/179 176/176/176
f 48/48/48 173/173/173 179/179/179
f 176/176/176 179/179/179 173/173/173
f 6/6/6 181/181/181 183/183/183
f 49/49/49 182/182/182 181/181/181
f 51/51/51 183/183/183 182/182/182
f 181/181/181 182/182/182 183/183/183
f 15/15/15 184/184/184 186/186/186
f 50/50/50 185/185/185 184/184/184
f 49/49/49 186/186/186 185/185/185
f 184/184/184 185/185/185 186/186/186
f 14/14/14 187/187/187 189/189/189
f 51/51/51 188/188/188 187/187/187
f 50/50/50 189/189/189 188/188/188
f 187/187/187 188/188/188 189/189/189
f 49/49/49 185/185/185 182/182/182
f 50/50/50 188/188/188 185/185/185
f 51/51/51 182/182/182 188/188/188
f 185/185/185 188/188/188 182/182/182
f 13/13/13 180/180/180 166/166/166
f 47/47/47 190/190/190 180/180/180
f 44/44/44 166/166/166 190/190/190
f 180/180/180 190/190/190 166/166/166
f 14/14/14 189/189/189 175/175/175
f 50/50/50 191/191/191 189/189/189
f 47/47/47 175/175/175 191/191/191
f 189/189/189 191/191/191 175/175/175
f 15/15/15 171/171/171 184/184/184
f 44/44/44 192/192/192 171/171/171
f 50/50/50 184/184/184 192/192/192
f 171/171/171 192/192/192 184/184/184
f 47/47/47 191/191/191 190/190/190
f 50/50/50 192/192/192 191/191/191
f 44/44/44 190/190/190 192/192/192
f 191/191/191 192/192/192 190/190/190
f 1/1/1 165/165/165 194/194/194
f 45/45/45 193/193/193 165/165/165
f 53/53/53 194/194/194 193/193/193
f 165/165/165 193/193/193 194/194/194
f 15/15/15 195/195/195 169/169/169
f 52/52/52 196/196/196 195/195/195
f 45/45/45 169/169/169 196/196/196
f 195/195/195 196/196/196 169/169/169
f 17/17/17 197/197/197 199/199/199
f 53/53/53 198/198/198 197/197/197
f 52/52/52 199/199/199 198/198/198
f 197/197/197 198/198/198 199/199/199
f 45/45/45 196/196/196 193/193/193
f 52/52/52 198/198/198 196/196/196
f 53/53/53 193/193/193 198/198/198
f 196/196/196 198/198/198 193/193/193
f 6/6/6 200/200/200 181/181/181
f 54/54/54 201/201/201 200/200/200
f 49/49/49 181/181/181 201/201/201
f 200/200/200 201/201/201 181/181/181
f 16/16/16 202/202/202 204/204/204
f 55/55/55 203/203/203 202/202/202
f 54/54/54 204/204/204 203/203/203
f 202/202/202 203/203/203 204/204/204
f 15/15/15 186/186/186 206/206/206
f 49/49/49 205/205/205 186/186/186
f 55/55/55 206/206/206 205/205/205
f 186/186/186 205/205/205 206/206/206
f 54/54/54 203/203/203 201/201/201
f 55/55/55 205/205/205 203/203/203
f 49/49/49 201/201/201 205/205/205
f 203/203/203 205/205/205 201/201/201
f 2/2/2 207/207/207 209/209/209
f 56/56/56 208/208/208 207/207/207
f 58/58/58 209/209/209 208/208/208
f 207/207/207 208/208/208 209/209/209
f 17/17/17 210/210/210 212/212/212
f 57/57/57 211/211/211 210/210/210
f 56/56/56 212/212/212 211/211/211
f 210/210/210 211/211/211 212/212/212
f 16/16/16 213/213/213 215/215/215
f 58/58/58 214/214/214 213/213/213
f 57/57/57 215/215/215 214/214/214
f 213/213/213 214/214/214 215/215/215
f 56/56/56 211/211/211 208/208/208
f 57/57/57 214/214/214 211/211/211
f 58/58/58 208/208/208 214/214/214
f 211/211/211 214/214/214 208/208/208
f 15/15/15 206/206/206 195/195/195
f 55/55/55 216/216/216 206/206/206
f 52/52/52 195/195/195 216/216/216
f 206/206/206 216/216/216 195/195/195
f 16/16/16 215/215/215 202/202/202
f 57/57/57 217/217/217 215/215/215
f 55/55/55 202/202/202 217/217/217
f 215/215/215 217/217/217 202/202/202
f 17/17/17 199/199/199 210/210/210
f 52/52/52 218/218/218 199/199/199
f 57/57/57 210/210/210 218/218/218
f 199/199/199 218/218/218 210/210/210
f 55/55/55 217/217/217 216/216/216
f 57/57/57 218/218/218 217/217/217
f 52/52/52 216/216/216 218/218/218
f 217/217/217 218/218/218 216/216/216
f 1/1/1 194/194/194 220/220/220
f 53/53/53 219/219/219 194/194/194
f 60/60/60 220/220/220 219/219/219
f 194/194/194 219/219/219 220/220/220
f 17/17/17 221/221/221 197/197/197
f 59/59/59 222/222/222 221/221/221
f 53/53/53 197/197/197 222/222/222
f 221/221/221 222/222/222 197/197/197
f 19/19/19 223/223/223 225/225/225
f 60/60/60 224/224/224 223/223/223
f 59/59/59 225/225/225 224/224/224
f 223/223/223 224/224/224 225/225/225
f 53/53/53 222/222/222 219/219/219
f 59/59/59 224/224/224 222/222/222
f 60/60/60 219/219/219 224/224/224
f 222/222/222 224/224/224 219/219/219
f 2/2/2 226/226/226 207/207/207
f 61/61/61 227/227/227 226/226/226
f 56/56/56 207/207/207 227/227/227
f 226/226/226 227/227/227 207/207/207
f 18/18/18 228/228/228 230/230/230
f 62/62/62 229/229/229 228/228/228
f 61/61/61 230/230/230 229/229/229
f 228/228/228 229/229/229 230/230/230
f 17/17/17 212/212/212 232/232/232
f 56/56/56 231/231/231 212/212/212
f 62/62/62 232/232/232 231/231/231
f 212/212/212 231/231/231 232/232/232
f 61/61/61 229/229/229 227/227/227
f 62/62/62 231/231/231 229/229/229
f 56/56/56 227/227/227 231/231/231
f 229/229/229 231/231/231 227/227/227
f 8/8/8 233/233/233 235/235/235
f 63/63/63 234/234/234 233/233/233
f 65/65/65 235/235/235 234/234/234
f 233/233/233 234/234/234 235/235/235
f 19/19/19 236/236/236 238/238/238
f 64/64/64 237/237/237 236/236/236
f 63/63/63 238/238/238 237/237/237
f 236/236/236 237/237/237 238/238/238
f 18/18/18 239/239/239 241/241/241
f 65/65/65 240/240/240 239/239/239
f 64/64/64 241/241/241 240/240/240
f 239/239/239 240/240/240 241/241/241
f 63/63/63 237/237/237 234/234/234
f 64/64/64 240/240/240 237/237/237
f 65/65/65 234/234/234 240/240/240
f 237/237/237 240/240/240 234/234/234
f 17/17/17 232/232/232 221/221/221
f 62/62/62 242/242/242 232/232/232
f 59/59/59 221/221/221 242/242/242
f 232/232/232 242/242/242 221/221/221
f 18/18/18 241/241/241 228/228/228
f 64/64/64 243/243/243 241/241/241
f 62/62/62 228/228/228 243/243/243
f 241/241/241 243/243/243 228/228/228
f 19/19/19 225/225/225 236/236/236
f 59/59/59 244/244/244 225/225/225
f 64/64/64 236/236/236 244/244/244
f 225/225/225 244/244/244 236/236/236
f 62/62/62 243/243/243 242/242/242
f 64/64/64 244/244/244 243/243/243
f 59/59/59 242/242/242 244/244/244
f 243/243/243 244/244/244 242/242/242
f 1/1/1 220/220/220 246/246/246
f 60/60/60 245/245/245 220/220/220
f 67/67/67 246/246/246 245/245/245
f 220/220/220 245/245/245 246/246/246
f 19/19/19 247/247/247 223/223/223
f 66/66/66 248/248/248 247/247/247
f 60/60/60 223/223/223 248/248/248
f 247/247/247 248/248/248 223/223/223
f 21/21/21 249/249/249 251/251/251
f 67/67/67 250/250/250 249/249/249
f 66/66/66 251/251/251 250/250/250
f 249/249/249 250/250/250 251/251/251
f 60/60/60 248/248/248 245/245/245
f 66/66/66 250/250/250 248/248/248
f 67/67/67 245/245/245 250/250/250
f 248/248/248 250/250/250 245/245/245
f 8/8/8 252/252/252 233/233/233
f 68/68/68 253/253/253 252/252/252
f 63/63/63 233/233/233 253/253/253
f 252/252/252 253/253/253 233/233/233
f 20/20/20 254/254/254 256/256/256
f 69/69/69 255/255/255 254/254/254
f 68/68/68 256/256/256 255/255/255
f 254/254/254 255/255/255 256/256/256
f 19/19/19 238/238/238 258/258/258
f 63/63/63 257/257/257 238/238/238
f 69/69/69 258/258/258 257/257/257
f 238/238/238 257/257/257 258/258/258
f 68/68/68 255/255/255 253/253/253
f 69/69/69 257/257/257 255/255/255
f 63/63/63 253/253/253 257/257/257
f 255/255/255 257/257/257 253/253/253
f 11/11/11 259/259/259 261/261/261
f 70/70/70 260/260/260 259/259/259
f 72/72/72 261/261/261 260/260/260
f 259/259/259 260/260/260 261/261/261
f 21/21/21 262/262/262 264/264/264
f 71/71/71 263/263/263 262/262/262
f 70/70/70 264/264/264 263/263/263
f 262/262/262 263/263/263 264/264/264
f 20/20/20 265/265/265 267/267/267
f 72/72/72 266/266/266 265/265/265
f 71/71/71 267/267/267 266/266/266
f 265/265/265 266/266/266 267/267/267
f 70/70/70 263/263/263 260/260/260
f 71/71/71 266/266/266 263/263/263
f 72/72/72 260/260/260 266/266/266
f 263/263/263 266/266/266 260/260/260
f 19/19/19 258/258/258 247/247/247
f 69/69/69 268/268/268 258/258/258
f 66/66/66 247/247/247 268/268/268
f 258/258/258 268/268/268 247/247/247
f 20/20/20 267/267/267 254/254/254
f 71/71/71 269/269/269 267/267/267
f 69/69/69 254/254/254 269/269/269
f 267/267/267 269/269/269 254/254/254
f 21/21/21 251/251/251 262/262/262
f 66/66/66 270/270/270 251/251/251
f 71/71/71 262/262/262 270/270/270
f 251/251/251 270/270/270 262/262/262
f 69/69/69 269/269/269 268/268/268
f 71/71/71 270/270/270 269/269/269
f 66/66/66 268/268/268 270/270/270
f 269/269/269 270/270/270 268/268/268
f 1/1/1 246/246/246 163/163/163
f 67/67/67 271/271/271 246/246/246
f 43/43/43 163/163/163 271/271/271
f 246/246/246 271/271/271 163/163/163
f 21/21/21 272/272/272 249/249/249
f 73/73/73 273/273/273 272/272/272
f 67/67/67 249/249/249 273/273/273
f 272/272/272 273/273/273 249/249/249
f 13/13/13 168/168/168 275/275/275
f 43/43/43 274/274/274 168/168/168
f 73/73/73 275/275/275 274/274/274
f 168/168/168 274/274/274 275/275/275
f 67/67/67 273/273/273 271/271/271
f 73/73/73 274/274/274 273/273/273
f 43/43/43 271/271/271 274/274/274
f 273/273/273 274/274/274 271/271/271
f 11/11/11 276/276/276 259/259/259
f 74/74/74 277/277/277 276/276/276
f 70/70/70 259/259/259 277/277/277
f 276/276/276 277/277/277 259/259/259
f 22/22/22 278/278/278 280/280/280
f 75/75/75 279/279/279 278/278/278
f 74/74/74 280/280/280 279/279/279
f 278/278/278 279/279/279 280/280/280
f 21/21/21 264/264/264 282/282/282
f 70/70/70 281/281/281 264/264/264
f 75/75/75 282/282/282 281/281/281
f 264/264/264 281/281/281 282/282/282
f 74/74/74 279/279/279 277/277/277
f 75/75/75 281/281/281 279/279/279
f 70/70/70 277/277/277 281/281/281
f 279/279/279 281/281/281 277/277/277
f 12/12/12 174/174/174 284/284/284
f 48/48/48 283/283/283 174/174/174
f 77/77/77 284/284/284 283/283/283
f 174/174/174 283/283/283 284/284/284
f 13/13/13 285/285/285 178/178/178
f 76/76/76 286/286/286 285/285/285
f 48/48/48 178/178/178 286/286/286
f 285/285/285 286/286/286 178/178/178
f 22/22/22 287/287/287 289/289/289
f 77/77/77 288/288/288 287/287/287
f 76/76/76 289/289/289 288/288/288
f 287/287/287 288/288/288 289/289/289
f 48/48/48 286/286/286 283/283/283
f 76/76/76 288/288/288 286/286/286
f 77/77/77 283/283/283 288/288/288
f 286/286/286 288/288/288 283/283/283
f 21/21/21 282/282/282 272/272/272
f 75/75/75 290/290/290 282/282/282
f 73/73/73 272/272/272 290/290/290
f 282/282/282 290/290/290 272/272/272
f 22/22/22 289/289/289 278/278/278
f 76/76/76 291/291/291 289/289/289
f 75/75/75 278/278/278 291/291/291
f 289/289/289 291/291/291 278/278/278
f 13/13/13 275/275/275 285/285/285
f 73/73/73 292/292/292 275/275/275
f 76/76/76 285/285/285 292/292/292
f 275/275/275 292/292/292 285/285/285
f 75/75/75 291/291/291 290/290/290
f 76/76/76 292/292/292 291/291/291
f 73/73/73 290/290/290 292/292/292
f 291/291/291 292/292/292 290/290/290
f 2/2/2 209/209/209 294/294/294
f 58/58/58 293/293/293 209/209/209
f 79/79/79 294/294/294 293/293/293
f 209/209/209 293/293/293 294/294/294
f 16/16/16 295/295/295 213/213/213
f 78/78/78 296/296/296 295/295/295
f 58/58/58 213/213/213 296/296/296
f 295/295/295 296/296/296 213/213/213
f 24/24/24 297/297/297 299/299/299
f 79/79/79 298/298/298 297/297/297
f 78/78/78 299/299/299 298/298/298
f 297/297/297 298/298/298 299/299/299
f 58/58/58 296/296/296 293/293/293
f 78/78/78 298/298/298 296/296/296
f 79/79/79 293/293/293 298/298/298
f 296/296/296 298/298/298 293/293/293
f 6/6/6 300/300/300 200/200/200
f 80/80/80 301/301/301 300/300/300
f 54/54/54 200/200/200 301/301/301
f 300/300/300 301/301/301 200/200/200
f 23/23/23 302/302/302 304/304/304
f 81/81/81 303/303/303 302/302/302
f 80/80/80 304/304/304 303/303/303
f 302/302/302 303/303/303 304/304/304
f 16/16/16 204/204/204 306/306/306
f 54/54/54 305/305/305 204/204/204
f 81/81/81 306/306/306 305/305/305
f 204/204/204 305/305/305 306/306/306
f 80/80/80 303/303/303 301/301/301
f 81/81/81 305/305/305 303/303/303
f 54/54/54 301/301/301 305/305/305
f 303/303/303 305/305/305 301/301/301
f 10/10/10 307/307/307 309/309/309
f 82/82/82 308/308/308 307/307/307
f 84/84/84 309/309/309 308/308/308
f 307/307/307 308/308/308 309/309/309
f 24/24/24 310/310/310 312/312/312
f 83/83/83 311/311/311 310/310/310
f 82/82/82 312/312/312 311/311/311
f 310/310/310 311/311/311 312/312/312
f 23/23/23 313/313/313 315/315/315
f 84/84/84 314/314/314 313/313/313
f 83/83/83 315/315/315 314/314/314
f 313/313/313 314/314/314 315/315/315
f 82/82/82 311/311/311 308/308/308
f 83/83/83 314/314/314 311/311/311
f 84/84/84 308/308/308 314/314/314
f 311/311/311 314/314/314 308/308/308
f 16/16/16 306/306/306 295/295/295
f 81/81/81 316/316/316 306/306/306
f 78/78/78 295/295/295 316/316/316
f 306/306/306 316/316/316 295/295/295
f 23/23/23 315/315/315 302/302/302
f 83/83/83 317/317/317 315/315/315
f 81/81/81 302/302/302 317/317/317
f 315/315/315 317/317/317 302/302/302
f 24/24/24 299/299/299 310/310/310
f 78/78/78 318/318/318 299/299/299
f 83/83/83 310/310/310 318/318/318
f 299/299/299 318/318/318 310/310/310
f 81/81/81 317/317/317 316/316/316
f 83/83/83 318/318/318 317/317/317
f 78/78/78 316/316/316 318/318/318
f 317/317/317 318/318/318 316/316/316
f 6/6/6 183/183/183 320/320/320
f 51/51/51 319/319/319 183/183/183
f 86/86/86 320/320/320 319/319/319
f 183/183/183 319/319/319 320/320/320
f 14/14/14 321/321/321 187/187/187
f 85/85/85 322/322/322 321/321/321
f 51/51/51 187/187/187 322/322/322
f 321/321/321 322/322/322 187/187/187
f 26/26/26 323/323/323 325/325/325
f 86/86/86 324/324/324 323/323/323
f 85/85/85 325/325/325 324/324/324
f 323/323/323 324/324/324 325/325/325
f 51/51/51 322/322/322 319/319/319
f 85/85/85 324/324/324 322/322/322
f 86/86/86 319/319/319 324/324/324
f 322/322/322 324/324/324 319/319/319
f 12/12/12 326/326/326 172/172/172
f 87/87/87 327/327/327 326/326/326
f 46/46/46 172/172/172 327/327/327
f 326/326/326 327/327/327 172/172/172
f 25/25/25 328/328/328 330/330/330
f 88/88/88 329/329/329 328/328/328
f 87/87/87 330/330/330 329/329/329
f 328/328/328 329/329/329 330/330/330
f 14/14/14 177/177/177 332/332/332
f 46/46/46 331/331/331 177/177/177
f 88/88/88 332/332/332 331/331/331
f 177/177/177 331/331/331 332/332/332
f 87/87/87 329/329/329 327/327/327
f 88/88/88 331/331/331 329/329/329
f 46/46/46 327/327/327 331/331/331
f 329/329/329 331/331/331 327/327/327
f 5/5/5 333/333/333 335/335/335
f 89/89/89 334/334/334 333/333/333
f 91/91/91 335/335/335 334/334/334
f 333/333/333 334/334/334 335/335/335
f 26/26/26 336/336/336 338/338/338
f 90/90/90 337/337/337 336/336/336
f 89/89/89 338/338/338 337/337/337
f 336/336/336 337/337/337 338/338/338
f 25/25/25 339/339/339 341/341/341
f 91/91/91 340/340/340 339/339/339
f 90/90/90 341/341/341 340/340/340
f 339/339/339 340/340/340 341/341/341
f 89/89/89 337/337/337 334/334/334
f 90/90/90 340/340/340 337/337/337
f 91/91/91 334/334/334 340/340/340
f 337/337/337 340/340/340 334/334/334
f 14/14/14 332/332/332 321/321/321
f 88/88/88 342/342/342 332/332/332
f 85/85/85 321/321/321 342/342/342
f 332/332/332 342/342/342 321/321/321
f 25/25/25 341/341/341 328/328/328
f 90/90/90 343/343/343 341/341/341
f 88/88/88 328/328/328 343/343/343
f 341/341/341 343/343/343 328/328/328
f 26/26/26 325/325/325 336/336/336
f 85/85/85 344/344/344 325/325/325
f 90/90/90 336/336/336 344/344/344
f 325/325/325 344/344/344 336/336/336
f 88/88/88 343/343/343 342/342/342
f 90/90/90 344/344/344 343/343/343
f 85/85/85 342/342/342 344/344/344
f 343/343/343 344/344/344 342/342/342
f 12/12/12 284/284/284 346/346/346
f 77/77/77 345/345/345 284/284/284
f 93/93/93 346/346/346 345/345/345
f 284/284/284 345/345/345 346/346/346
f 22/22/22 347/347/347 287/287/287
f 92/92/92 348/348/348 347/347/347
f 77/77/77 287/287/287 348/348/348
f 347/347/347 348/348/348 287/287/287
f 28/28/28 349/349/349 351/351/351
f 93/93/93 350/350/350 349/349/349
f 92/92/92 351/351/351 350/350/350
f 349/349/349 350/350/350 351/351/351
f 77/77/77 348/348/348 345/345/345
f 92/92/92 350/350/350 348/348/348
f 93/93/93 345/345/345 350/350/350
f 348/348/348 350/350/350 345/345/345
f 11/11/11 352/352/352 276/276/276
f 94/94/94 353/353/353 352/352/352
f 74/74/74 276/276/276 353/353/353
f 352/352/352 353/353/353 276/276/276
f 27/27/27 354/354/354 356/356/356
f 95/95/95 355/355/355 354/354/354
f 94/94/94 356/356/356 355/355/355
f 354/354/354 355/355/355 356/356/356
f 22/22/22 280/280/280 358/358/358
f 74/74/74 357/357/357 280/280/280
f 95/95/95 358/358/358 357/357/357
f 280/280/280 357/357/357 358/358/358
f 94/94/94 355/355/355 353/353/353
f 95/95/95 357/357/357 355/355/355
f 74/74/74 353/353/353 357/357/357
f 355/355/355 357/357/357 353/353/353
f 3/3/3 359/359/359 361/361/361
f 96/96/96 360/360/360 359/359/359
f 98/98/98 361/361/361 360/360/360
f 359/359/359 360/360/360 361/361/361
f 28/28/28 362/362/362 364/364/364
f 97/97/97 363/363/363 362/362/362
f 96/96/96 364/364/364 363/363/363
f 362/362/362 363/363/363 364/364/364
f 27/27/27 365/365/365 367/367/367
f 98/98/98 366/366/366 365/365/365
f 97/97/97 367/367/367 366/366/366
f 365/365/365 366/366/366 367/367/367
f 96/96/96 363/363/363 360/360/360
f 97/97/97 366/366/366 363/363/363
f 98/98/98 360/360/360 366/366/366
f 363/363/363 366/366/366 360/360/360
f 22/22/22 358/358/358 347/347/347
f 95/95/95 368/368/368 358/358/358
f 92/92/92 347/347/347 368/368/368
f 358/358/358 368/368/368 347/347/347
f 27/27/27 367/367/367 354/354/354
f 97/97/97 369/369/369 367/367/367
f 95/95/95 354/354/354 369/369/369
f 367/367/367 369/369/369 354/354/354
f 28/28/28 351/351/351 362/362/362
f 92/92/92 370/370/370 351/351/351
f 97/97/97 362/362/362 370/370/370
f 351/351/351 370/370/370 362/362/362
f 95/95/95 369/369/369 368/368/368
f 97/97/97 370/370/370 369/369/369
f 92/92/92 368/368/368 370/370/370
f 369/369/369 370/370/370 368/368/368
f 11/11/11 261/261/261 372/372/372
f 72/72/72 371/371/371 261/261/261
f 100/100/100 372/372/372 371/371/371
f 261/261/261 371/371/371 372/372/372
f 20/20/20 373/373/373 265/265/265
f 99/99/99 374/374/374 373/373/373
f 72/72/72 265/265/265 374/374/374
f 373/373/373 374/374/374 265/265/265
f 30/30/30 375/375/375 377/377/377
f 100/100/100 376/376/376 375/375/375
f 99/99/99 377/377/377 376/376/376
f 375/375/375 376/376/376 377/377/377
f 72/72/72 374/374/374 371/371/371
f 99/99/99 376/376/376 374/374/374
f 100/100/100 371/371/371 376/376/376
f 374/374/374 376/376/376 371/371/371
f 8/8/8 378/378/378 252/252/252
f 101/101/101 379/379/379 378/378/378
f 68/68/68 252/252/252 379/379/379
f 378/378/378 379/379/379 252/252/252
f 29/29/29 380/380/380 382/382/382
f 102/102/102 381/381/381 380/380/380
f 101/101/101 382/382/382 381/381/381
f 380/380/380 381/381/381 382/382/382
f 20/20/20 256/256/256 384/384/384
f 68/68/68 383/383/383 256/256/256
f 102/102/102 384/384/384 383/383/383
f 256/256/256 383/383/383 384/384/384
f 101/101/101 381/381/381 379/379/379
f 102/102/102 383/383/383 381/381/381
f 68/68/68 379/379/379 383/383/383
f 381/381/381 383/383/383 379/379/379
f 7/7/7 385/385/385 387/387/387
f 103/103/103 386/386/386 385/385/385
f 105/105/105 387/387/387 386/386/386
f 385/385/385 386/386/386 387/387/387
f 30/30/30 388/388/388 390/390/390
f 104/104/104 389/389/389 388/388/388
f 103/103/103 390/390/390 389/389/389
f 388/388/388 389/389/389 390/390/390
f 29/29/29 391/391/391 393/393/393
f 105/105/105 392/392/392 391/391/391
f 104/104/104 393/393/393 392/392/392
f 391/391/391 392/392/392 393/393/393
f 103/103/103 389/389/389 386/386/386
f 104/104/104 392/392/392 389/389/389
f 105/105/105 386/386/386 392/392/392
f 389/389/389 392/392/392 386/386/386
f 20/20/20 384/384/384 373/373/373
f 102/102/102 394/394/394 384/384/384
f 99/99/99 373/373/373 394/394/394
f 384/384/384 394/394/394 373/373/373
f 29/29/29 393/393/393 380/380/380
f 104/104/104 395/395/395 393/393/393
f 102/102/102 380/380/380 395/395/395
f 393/393/393 395/395/395 380/380/380
f 30/30/30 377/377/377 388/388/388
f 99/99/99 396/396/396 377/377/377
f 104/104/104 388/388/388 396/396/396
f 377/377/377 396/396/396 388/388/388
f 102/102/102 395/395/395 394/394/394
f 104/104/104 396/396/396 395/395/395
f 99/99/99 394/394/394 396/396/396
f 395/395/395 396/396/396 394/394/394
f 8/8/8 235/235/235 398/398/398
f 65/65/65 397/397/397 235/235/235
f 107/107/107 398/398/398 397/397/397
f 235/235/235 397/397/397 398/398/398
f 18/18/18 399/399/399 239/239/239
f 106/106/106 400/400/400 399/399/399
f 65/65/65 239/239/239 400/400/400
f 399/399/399 400/400/400 239/239/239
f 32/32/32 401/401/401 403/403/403
f 107/107/107 402/402/402 401/401/401
f 106/106/106 403/403/403 402/402/402
f 401/401/401 402/402/402 403/403/403
f 65/65/65 400/400/400 397/397/397
f 106/106/106 402/402/402 400/400/400
f 107/107/107 397/397/397 402/402/402
f 400/400/400 402/402/402 397/397/397
f 2/2/2 404/404/404 226/226/226
f 108/108/108 405/405/405 404/404/404
f 61/61/61 226/226/226 405/405/405
f 404/404/404 405/405/405 226/226/226
f 31/31/31 406/406/406 408/408/408
f 109/109/109 407/407/407 406/406/406
f 108/108/108 408/408/408 407/407/407
f 406/406/406 407/407/407 408/408/408
f 18/18/18 230/230/230 410/410/410
f 61/61/61 409/409/409 230/230/230
f 109/109/109 410/410/410 409/409/409
f 230/230/230 409/409/409 410/410/410
f 108/108/108 407/407/407 405/405/405
f 109/109/109 409/409/409 407/407/407
f 61/61/61 405/405/405 409/409/409
f 407/407/407 409/409/409 405/405/405
f 9/9/9 411/411/411 413/413/413
f 110/110/110 412/412/412 411/411/411
f 112/112/112 413/413/413 412/412/412
f 411/411/411 412/412/412 413/413/413
f 32/32/32 414/414/414 416/416/416
f 111/111/111 415/415/415 414/414/414
f 110/110/110 416/416/416 415/415/415
f 414/414/414 415/415/415 416/416/416
f 31/31/31 417/417/417 419/419/419
f 112/112/112 418/418/418 417/417/417
f 111/111/111 419/419/419 418/418/418
f 417/417/417 418/418/418 419/419/419
f 110/110/110 415/415/415 412/412/412
f 111/111/111 418/418/418 415/415/415
f 112/112/112 412/412/412 418/418/418
f 415/415/415 418/418/418 412/412/412
f 18/18/18 410/410/410 399/399/399
f 109/109/109 420/420/420 410/410/410
f 106/106/106 399/399/399 420/420/420
f 410/410/410 420/420/420 399/399/399
f 31/31/31 419/419/419 406/406/406
f 111/111/111 421/421/421 419/419/419
f 109/109/109 406/406/406 421/421/421
f 419/419/419 421/421/421 406/406/406
f 32/32/32 403/403/403 414/414/414
f 106/106/106 422/422/422 403/403/403
f 111/111/111 414/414/414 422/422/422
f 403/403/403 422/422/422 414/414/414
f 109/109/109 421/421/421 420/420/420
f 111/111/111 422/422/422 421/421/421
f 106/106/106 420/420/420 422/422/422
f 421/421/421 422/422/422 420/420/420
f 4/4/4 423/423/423 425/425/425
f 113/113/113 424/424/424 423/423/423
f 115/115/115 425/425/425 424/424/424
f 423/423/423 424/424/424 425/425/425
f 33/33/33 426/426/426 428/428/428
f 114/114/114 427/427/427 426/426/426
f 113/113/113 428/428/428 427/427/427
f 426/426/426 427/427/427 428/428/428
f 35/35/35 429/429/429 431/431/431
f 115/115/115 430/430/430 429/429/429
f 114/114/114 431/431/431 430/430/430
f 429/429/429 430/430/430 431/431/431
f 113/113/113 427/427/427 424/424/424
f 114/114/114 430/430/430 427/427/427
f 115/115/115 424/424/424 430/430/430
f 427/427/427 430/430/430 424/424/424
f 10/10/10 432/432/432 434/434/434
f 116/116/116 433/433/433 432/432/432
f 118/118/118 434/434/434 433/433/433
f 432/432/432 433/433/433 434/434/434
f 34/34/34 435/435/435 437/437/437
f 117/117/117 436/436/436 435/435/435
f 116/116/116 437/437/437 436/436/436
f 435/435/435 436/436/436 437/437/437
f 33/33/33 438/438/438 440/440/440
f 118/118/118 439/439/439 438/438/438
f 117/117/117 440/440/440 439/439/439
f 438/438/438 439/439/439 440/440/440
f 116/116/116 436/436/436 433/433/433
f 117/117/117 439/439/439 436/436/436
f 118/118/118 433/433/433 439/439/439
f 436/436/436 439/439/439 433/433/433
f 5/5/5 441/441/441 443/443/443
f 119/119/119 442/442/442 441/441/441
f 121/121/121 443/443/443 442/442/442
f 441/441/441 442/442/442 443/443/443
f 35/35/35 444/444/444 446/446/446
f 120/120/120 445/445/445 444/444/444
f 119/119/119 446/446/446 445/445/445
f 444/444/444 445/445/445 446/446/446
f 34/34/34 447/447/447 449/449/449
f 121/121/121 448/448/448 447/447/447
f 120/120/120 449/449/449 448/448/448
f 447/447/447 448/448/448 449/449/449
f 119/119/119 445/445/445 442/442/442
f 120/120/120 448/448/448 445/445/445
f 121/121/121 442/442/442 448/448/448
f 445/445/445 448/448/448 442/442/442
f 33/33/33 440/440/440 426/426/426
f 117/117/117 450/450/450 440/440/440
f 114/114/114 426/426/426 450/450/450
f 440/440/440 450/450/450 426/426/426
f 34/34/34 449/449/449 435/435/435
f 120/120/120 451/451/451 449/449/449
f 117/117/117 435/435/435 451/451/451
f 449/449/449 451/451/451 435/435/435
f 35/35/35 431/431/431 444/444/444
f 114/114/114 452/452/452 431/431/431
f 120/120/120 444/444/444 452/452/452
f 431/431/431 452/452/452 444/444/444
f 117/117/117 451/451/451 450/450/450
f 120/120/120 452/452/452 451/451/451
f 114/114/114 450/450/450 452/452/452
f 451/451/451 452/452/452 450/450/450
f 4/4/4 425/425/425 454/454/454
f 115/115/115 453/453/453 425/425/425
f 123/123/123 454/454/454 453/453/453
f 425/425/425 453/453/453 454/454/454
f 35/35/35 455/455/455 429/429/429
f 122/122/122 456/456/456 455/455/455
f 115/115/115 429/429/429 456/456/456
f 455/455/455 456/456/456 429/429/429
f 37/37/37 457/457/457 459/459/459
f 123/123/123 458/458/458 457/457/457
f 122/122/122 459/459/459 458/458/458
f 457/457/457 458/458/458 459/459/459
f 115/115/115 456/456/456 453/453/453
f 122/122/122 458/458/458 456/456/456
f 123/123/123 453/453/453 458/458/458
f 456/456/456 458/458/458 453/453/453
f 5/5/5 460/460/460 441/441/441
f 124/124/124 461/461/461 460/460/460
f 119/119/119 441/441/441 461/461/461
f 460/460/460 461/461/461 441/441/441
f 36/36/36 462/462/462 464/464/464
f 125/125/125 463/463/463 462/462/462
f 124/124/124 464/464/464 463/463/463
f 462/462/462 463/463/463 464/464/464
f 35/35/35 446/446/446 466/466/466
f 119/119/119 465/465/465 446/446/446
f 125/125/125 466/466/466 465/465/465
f 446/446/446 465/465/465 466/466/466
f 124/124/124 463/463/463 461/461/461
f 125/125/125 465/465/465 463/463/463
f 119/119/119 461/461/461 465/465/465
f 463/463/463 465/465/465 461/461/461
f 3/3/3 467/467/467 469/469/469
f 126/126/126 468/468/468 467/467/467
f 128/128/128 469/469/469 468/468/468
f 467/467/467 468/468/468 469/469/469
f 37/37/37 470/470/470 472/472/472
f 127/127/127 471/471/471 470/470/470
f 126/126/126 472/472/472 471/471/471
f 470/470/470 471/471/471 472/472/472
f 36/36/36 473/473/473 475/475/475
f 128/128/128 474/474/474 473/473/473
f 127/127/127 475/475/475 474/474/474
f 473/473/473 474/474/474 475/475/475
f 126/126/126 471/471/471 468/468/468
f 127/127/127 474/474/474 471/471/471
f 128/128/128 468/468/468 474/474/474
f 471/471/471 474/474/474 468/468/468
f 35/35/35 466/466/466 455/455/455
f 125/125/125 476/476/476 466/466/466
f 122/122/122 455/455/455 476/476/476
f 466/466/466 476/476/476 455/455/455
f 36/36/36 475/475/475 462/462/462
f 127/127/127 477/477/477 475/475/475
f 125/125/125 462/462/462 477/477/477
f 475/475/475 477/477/477 462/462/462
f 37/37/37 459/459/459 470/470/470
f 122/122/122 478/478/478 459/459/459
f 127/127/127 470/470/470 478/478/478
f 459/459/459 478/478/478 470/470/470
f 125/125/125 477/477/477 476/476/476
f 127/127/127 478/478/478 477/477/477
f 122/122/122 476/476/476 478/478/478
f 477/477/477 478/478/478 476/476/476
f 4/4/4 454/454/454 480/480/480
f 123/123/123 479/479/479 454/454/454
f 130/130/130 480/480/480 479/479/479
f 454/454/454 479/479/479 480/480/480
f 37/37/37 481/481/481 457/457/457
f 129/129/129 482/482/482 481/481/481
f 123/123/123 457/457/457 482/482/482
f 481/481/481 482/482/482 457/457/457
f 39/39/39 483/483/483 485/485/485
f 130/130/130 484/484/484 483/483/483
f 129/129/129 485/485/485 484/484/484
f 483/483/483 484/484/484 485/485/485
f 123/123/123 482/482/482 479/479/479
f 129/129/129 484/484/484 482/482/482
f 130/130/130 479/479/479 484/484/484
f 482/482/482 484/484/484 479/479/479
f 3/3/3 486/486/486 467/467/467
f 131/131/131 487/487/487 486/486/486
f 126/126/126 467/467/467 487/487/487
f 486/486/486 487/487/487 467/467/467
f 38/38/38 488/488/488 490/490/490
f 132/132/132 489/489/489 488/488/488
f 131/131/131 490/490/490 489/489/489
f 488/488/488 489/489/489 490/490/490
f 37/37/37 472/472/472 492/492/492
f 126/126/126 491/491/491 472/472/472
f 132/132/132 492/492/492 491/491/491
f 472/472/472 491/491/491 492/492/492
f 131/131/131 489/489/489 487/487/487
f 132/132/132 491/491/491 489/489/489
f 126/126/126 487/487/487 491/491/491
f 489/489/489 491/491/491 487/487/487
f 7/7/7 493/493/493 495/495/495
f 133/133/133 494/494/494 493/493/493
f 135/135/135 495/495/495 494/494/494
f 493/493/493 494/494/494 495/495/495
f 39/39/39 496/496/496 498/498/498
f 134/134/134 497/497/497 496/496/496
f 133/133/133 498/498/498 497/497/497
f 496/496/496 497/497/497 498/498/498
f 38/38/38 499/499/499 501/501/501
f 135/135/135 500/500/500 499/499/499
f 134/134/134 501/501/501 500/500/500
f 499/499/499 500/500/500 501/501/501
f 133/133/133 497/497/497 494/494/494
f 134/134/134 500/500/500 497/497/497
f 135/135/135 494/494/494 500/500/500
f 497/497/497 500/500/500 494/494/494
f 37/37/37 492/492/492 481/481/481
f 132/132/132 502/502/502 492/492/492
f 129/129/129 481/481/481 502/502/502
f 492/492/492 502/502/502 481/481/481
f 38/38/38 501/501/501 488/488/488
f 134/134/134 503/503/503 501/501/501
f 132/132/132 488/488/488 503/503/503
f 501/501/501 503/503/503 488/488/488
f 39/39/39 485/485/485 496/496/496
f 129/129/129 504/504/504 485/485/485
f 134/134/134 496/496/496 504/504/504
f 485/485/485 504/504/504 496/496/496
f 132/132/132 503/503/503 502/502/502
f 134/134/134 504/504/504 503/503/503
f 129/129/129 502/502/502 504/504/504
f 503/503/503 504/504/504 502/502/502
f 4/4/4 480/480/480 506/506/506
f 130/130/130 505/505/505 480/480/480
f 137/137/137 506/506/506 505/505/505
f 480/480/480 505/505/505 506/506/506
f 39/39/39 507/507/507 483/483/483
f 136/136/136 508/508/508 507/507/507
f 130/130/130 483/483/483 508/508/508
f 507/507/507 508/508/508 483/483/483
f 41/41/41 509/509/509 511/511/511
f 137/137/137 510/510/510 509/509/509
f 136/136/136 511/511/511 510/510/510
f 509/509/509 510/510/510 511/511/511
f 130/130/130 508/508/508 505/505/505
f 136/136/136 510/510/510 508/508/508
f 137/137/137 505/505/505 510/510/510
f 508/508/508 510/510/510 505/505/505
f 7/7/7 512/512/512 493/493/493
f 138/138/138 513/513/513 512/512/512
f 133/133/133 493/493/493 513/513/513
f 512/512/512 513/513/513 493/493/493
f 40/40/40 514/514/514 516/516/516
f 139/139/139 515/515/515 514/514/514
f 138/138/138 516/516/516 515/515/515
f 514/514/514 515/515/515 516/516/516
f 39/39/39 498/498/498 518/518/518
f 133/133/133 517/517/517 498/498/498
f 139/139/139 518/518/518 517/517/517
f 498/498/498 517/517/517 518/518/518
f 138/138/138 515/515/515 513/513/513
f 139/139/139 517/517/517 515/515/515
f 133/133/133 513/513/513 517/517/517
f 515/515/515 517/517/517 513/513/513
f 9/9/9 519/519/519 521/521/521
f 140/140/140 520/520/520 519/519/519
f 142/142/142 521/521/521 520/520/520
f 519/519/519 520/520/520 521/521/521
f 41/41/41 522/522/522 524/524/524
f 141/141/141 523/523/523 522/522/522
f 140/140/140 524/524/524 523/523/523
f 522/522/522 523/523/523 524/524/524
f 40/40/40 525/525/525 527/527/527
f 142/142/142 526/526/526 525/525/525
f 141/141/141 527/527/527 526/526/526
f 525/525/525 526/526/526 527/527/527
f 140/140/140 523/523/523 520/520/520
f 141/141/141 526/526/526 523/523/523
f 142/142/142 520/520/520 526/526/526
f 523/523/523 526/526/526 520/520/520
f 39/39/39 518/518/518 507/507/507
f 139/139/139 528/528/528 518/518/518
f 136/136/136 507/507/507 528/528/528
f 518/518/518 528/528/528 507/507/507
f 40/40/40 527/527/527 514/514/514
f 141/141/141 529/529/529 527/527/527
f 139/139/139 514/514/514 529/529/529
f 527/527/527 529/529/529 514/514/514
f 41/41/41 511/511/511 522/522/522
f 136/136/136 530/530/530 511/511/511
f 141/141/141 522/522/522 530/530/530
f 511/511/511 530/530/530 522/522/522
f 139/139/139 529/529/529 528/528/528
f 141/141/141 530/530/530 529/529/529
f 136/136/136 528/528/528 530/530/530
f 529/529/529 530/530/530 528/528/528
f 4/4/4 506/506/506 423/423/423
f 137/137/137 531/531/531 506/506/506
f 113/113/113 423/423/423 531/531/531
f 506/506/506 531/531/531 423/423/423
f 41/41/41 532/532/532 509/509/509
f 143/143/143 533/533/533 532/532/532
f 137/137/137 509/509/509 533/533/533
f 532/532/532 533/533/533 509/509/509
f 33/33/33 428/428/428 535/535/535
f 113/113/113 534/534/534 428/428/428
f 143/143/143 535/535/535 534/534/534
f 428/428/428 534/534/534 535/535/535
f 137/137/137 533/533/533 531/531/531
f 143/143/143 534/534/534 533/533/533
f 113/113/113 531/531/531 534/534/534
f 533/533/533 534/534/534 531/531/531
f 9/9/9 536/536/536 519/519/519
f 144/144/144 537/537/537 536/536/536
f 140/140/140 519/519/519 537/537/537
f 536/536/536 537/537/537 519/519/519
f 42/42/42 538/538/538 540/540/540
f 145/145/145 539/539/539 538/538/538
f 144/144/144 540/540/540 539/539/539
f 538/538/538 539/539/539 540/540/540
f 41/41/41 524/524/524 542/542/542
f 140/140/140 541/541/541 524/524/524
f 145/145/145 542/542/542 541/541/541
f 524/524/524 541/541/541 542/542/542
f 144/144/144 539/539/539 537/537/537
f 145/145/145 541/541/541 539/539/539
f 140/140/140 537/537/537 541/541/541
f 539/539/539 541/541/541 537/537/537
f 10/10/10 434/434/434 544/544/544
f 118/118/118 543/543/543 434/434/434
f 147/147/147 544/544/544 543/543/543
f 434/434/434 543/543/543 544/544/544
f 33/33/33 545/545/545 438/438/438
f 146/146/146 546/546/546 545/545/545
f 118/118/118 438/438/438 546/546/546
f 545/545/545 546/546/546 438/438/438
f 42/42/42 547/547/547 549/549/549
f 147/147/147 548/548/548 547/547/547
f 146/146/146 549/549/549 548/548/548
f 547/547/547 548/548/548 549/549/549
f 118/118/118 546/546/546 543/543/543
f 146/146/146 548/548/548 546/546/546
f 147/147/147 543/543/543 548/548/548
f 546/546/546 548/548/548 543/543/543
f 41/41/41 542/542/542 532/532/532
f 145/145/145 550/550/550 542/542/542
f 143/143/143 532/532/532 550/550/550
f 542/542/542 550/550/550 532/532/532
f 42/42/42 549/549/549 538/538/538
f 146/146/146 551/551/551 549/549/549
f 145/145/145 538/538/538 551/551/551
f 549/549/549 551/551/551 538/538/538
f 33/33/33 535/535/535 545/545/545
f 143/143/143 552/552/552 535/535/535
f 146/146/146 545/545/545 552/552/552
f 535/535/535 552/552/552 545/545/545
f 145/145/145 551/551/551 550/550/550
f 146/146/146 552/552/552 551/551/551
f 143/143/143 550/550/550 552/552/552
f 551/551/551 552/552/552 550/550/550
f 5/5/5 443/443/443 333/333/333
f 121/121/121 553/553/553 443/443/443
f 89/89/89 333/333/333 553/553/553
f 443/443/443 553/553/553 333/333/333
f 34/34/34 554/554/554 447/447/447
f 148/148/148 555/555/555 554/554/554
f 121/121/121 447/447/447 555/555/555
f 554/554/554 555/555/555 447/447/447
f 26/26/26 338/338/338 557/557/557
f 89/89/89 556/556/556 338/338/338
f 148/148/148 557/557/557 556/556/556
f 338/338/338 556/556/556 557/557/557
f 121/121/121 555/555/555 553/553/553
f 148/148/148 556/556/556 555/555/555
f 89/89/89 553/553/553 556/556/556
f 555/555/555 556/556/556 553/553/553
f 10/10/10 309/309/309 432/432/432
f 84/84/84 558/558/558 309/309/309
f 116/116/116 432/432/432 558/558/558
f 309/309/309 558/558/558 432/432/432
f 23/23/23 559/559/559 313/313/313
f 149/149/149 560/560/560 559/559/559
f 84/84/84 313/313/313 560/560/560
f 559/559/559 560/560/560 313/313/313
f 34/34/34 437/437/437 562/562/562
f 116/116/116 561/561/561 437/437/437
f 149/149/149 562/562/562 561/561/561
f 437/437/437 561/561/561 562/562/562
f 84/84/84 560/560/560 558/558/558
f 149/149/149 561/561/561 560/560/560
f 116/116/116 558/558/558 561/561/561
f 560/560/560 561/561/561 558/558/558
f 6/6/6 320/320/320 300/300/300
f 86/86/86 563/563/563 320/320/320
f 80/80/80 300/300/300 563/563/563
f 320/320/320 563/563/563 300/300/300
f 26/26/26 564/564/564 323/323/323
f 150/150/150 565/565/565 564/564/564
f 86/86/86 323/323/323 565/565/565
f 564/564/564 565/565/565 323/323/323
f 23/23/23 304/304/304 567/567/567
f 80/80/80 566/566/566 304/304/304
f 150/150/150 567/567/567 566/566/566
f 304/304/304 566/566/566 567/567/567
f 86/86/86 565/565/565 563/563/563
f 150/150/150 566/566/566 565/565/565
f 80/80/80 563/563/563 566/566/566
f 565/565/565 566/566/566 563/563/563
f 34/34/34 562/562/562 554/554/554
f 149/149/149 568/568/568 562/562/562
f 148/148/148 554/554/554 568/568/568
f 562/562/562 568/568/568 554/554/554
f 23/23/23 567/567/567 559/559/559
f 150/150/150 569/569/569 567/567/567
f 149/149/149 559/559/559 569/569/569
f 567/567/567 569/569/569 559/559/559
f 26/26/26 557/557/557 564/564/564
f 148/148/148 570/570/570 557/557/557
f 150/150/150 564/564/564 570/570/570
f 557/557/557 570/570/570 564/564/564
f 149/149/149 569/569/569 568/568/568
f 150/150/150 570/570/570 569/569/569
f 148/148/148 568/568/568 570/570/570
f 569/569/569 570/570/570 568/568/568
f 3/3/3 469/469/469 359/359/359
f 128/128/128 571/571/571 469/469/469
f 96/96/96 359/359/359 571/571/571
f 469/469/469 571/571/571 359/359/359
f 36/36/36 572/572/572 473/473/473
f 151/151/151 573/573/573 572/572/572
f 128/128/128 473/473/473 573/573/573
f 572/572/572 573/573/573 473/473/473
f 28/28/28 364/364/364 575/575/575
f 96/96/96 574/574/574 364/364/364
f 151/151/151 575/575/575 574/574/574
f 364/364/364 574/574/574 575/575/575
f 128/128/128 573/573/573 571/571/571
f 151/151/151 574/574/574 573/573/573
f 96/96/96 571/571/571 574/574/574
f 573/573/573 574/574/574 571/571/571
f 5/5/5 335/335/335 460/460/460
f 91/91/91 576/576/576 335/335/335
f 124/124/124 460/460/460 576/576/576
f 335/335/335 576/576/576 460/460/460
f 25/25/25 577/577/577 339/339/339
f 152/152/152 578/578/578 577/577/577
f 91/91/91 339/339/339 578/578/578
f 577/577/577 578/578/578 339/339/339
f 36/36/36 464/464/464 580/580/580
f 124/124/124 579/579/579 464/464/464
f 152/152/152 580/580/580 579/579/579
f 464/464/464 579/579/579 580/580/580
f 91/91/91 578/578/578 576/576/576
f 152/152/152 579/579/579 578/578/578
f 124/124/124 576/576/576 579/579/579
f 578/578/578 579/579/579 576/576/576
f 12/12/12 346/346/346 326/326/326
f 93/93/93 581/581/581 346/346/346
f 87/87/87 326/326/326 581/581/581
f 346/346/346 581/581/581 326/326/326
f 28/28/28 582/582/582 349/349/349
f 153/153/153 583/583/583 582/582/582
f 93/93/93 349/349/349 583/583/583
f 582/582/582 583/583/583 349/349/349
f 25/25/25 330/330/330 585/585/585
f 87/87/87 584/584/584 330/330/330
f 153/153/153 585/585/585 584/584/584
f 330/330/330 584/584/584 585/585/585
f 93/93/93 583/583/583 581/581/581
f 153/153/153 584/584/584 583/583/583
f 87/87/87 581/581/581 584/584/584
f 583/583/583 584/584/584 581/581/581
f 36/36/36 580/580/580 572/572/572
f 152/152/152 586/586/586 580/580/580
f 151/151/151 572/572/572 586/586/586
f 580/580/580 586/586/586 572/572/572
f 25/25/25 585/585/585 577/577/577
f 153/153/153 587/587/587 585/585/585
f 152/152/152 577/577/577 587/587/587
f 585/585/585 587/587/587 577/577/577
f 28/28/28 575/575/575 582/582/582
f 151/151/151 588/588/588 575/575/575
f 153/153/153 582/582/582 588/588/588
f 575/575/575 588/588/588 582/582/582
f 152/152/152 587/587/587 586/586/586
f 153/153/153 588/588/588 587/587/587
f 151/151/151 586/586/586 588/588/588
f 587/587/587 588/588/588 586/586/586
f 7/7/7 495/495/495 385/385/385
f 135/135/135 589/589/589 495/495/495
f 103/103/103 385/385/385 589/589/589
f 495/495/495 589/589/589 385/385/385
f 38/38/38 590/590/590 499/499/499
f 154/154/154 591/591/591 590/590/590
f 135/135/135 499/499/499 591/591/591
f 590/590/590 591/591/591 499/499/499
f 30/30/30 390/390/390 593/593/593
f 103/103/103 592/592/592 390/390/390
f 154/154/154 593/593/593 592/592/592
f 390/390/390 592/592/592 593/593/593
f 135/135/135 591/591/591 589/589/589
f 154/154/154 592/592/592 591/591/591
f 103/103/103 589/589/589 592/592/592
f 591/591/591 592/592/592 589/589/589
f 3/3/3 361/361/361 486/486/486
f 98/98/98 594/594/594 361/361/361
f 131/131/131 486/486/486 594/594/594
f 361/361/361 594/594/594 486/486/486
f 27/27/27 595/595/595 365/365/365
f 155/155/155 596/596/596 595/595/595
f 98/98/98 365/365/365 596/596/596
f 595/595/595 596/596/596 365/365/365
f 38/38/38 490/490/490 598/598/598
f 131/131/131 597/597/597 490/490/490
f 155/155/155 598/598/598 597/597/597
f 490/490/490 597/597/597 598/598/598
f 98/98/98 596/596/596 594/594/594
f 155/155/155 597/597/597 596/596/596
f 131/131/131 594/594/594 597/597/597
f 596/596/596 597/597/597 594/594/594
f 11/11/11 372/372/372 352/352/352
f 100/100/100 599/599/599 372/372/372
f 94/94/94 352/352/352 599/599/599
f 372/372/372 599/599/599 352/352/352
f 30/30/30 600/600/600 375/375/375
f 156/156/156 601/601/601 600/600/600
f 100/100/100 375/375/375 601/601/601
f 600/600/600 601/601/601 375/375/375
f 27/27/27 356/356/356 603/603/603
f 94/94/94 602/602/602 356/356/356
f 156/156/156 603/603/603 602/602/602
f 356/356/356 602/602/602 603/603/603
f 100/100/100 601/601/601 599/599/599
f 156/156/156 602/602/602 601/601/601
f 94/94/94 599/599/599 602/602/602
f 601/601/601 602/602/602 599/599/599
f 38/38/38 598/598/598 590/590/590
f 155/155/155 604/604/604 598/598/598
f 154/154/154 590/590/590 604/604/604
f 598/598/598 604/604/604 590/590/590
f 27/27/27 603/603/603 595/595/595
f 156/156/156 605/605/605 603/603/603
f 155/155/155 595/595/595 605/605/605
f 603/603/603 605/605/605 595/595/595
f 30/30/30 593/593/593 600/600/600
f 154/154/154 606/606/606 593/593/593
f 156/156/156 600/600/600 606/606/606
f 593/593/593 606/606/606 600/600/600
f 155/155/155 605/605/605 604/604/604
f 156/156/156 606/606/606 605/605/605
f 154/154/154 604/604/604 606/606/606
f 605/605/605 606/606/606 604/604/604
f 9/9/9 521/521/521 411/411/411
f 142/142/142 607/607/607 521/521/521
f 110/110/110 411/411/411 607/607/607
f 521/521/521 607/607/607 411/411/411
f 40/40/40 608/608/608 525/525/525
f 157/157/157 609/609/609 608/608/608
f 142/142/142 525/525/525 609/609/609
f 608/608/608 609/609/609 525/525/525
f 32/32/32 416/416/416 611/611/611
f 110/110/110 610/610/610 416/416/416
f 157/157/157 611/611/611 610/610/610
f 416/416/416 610/610/610 611/611/611
f 142/142/142 609/609/609 607/607/607
f 157/157/157 610/610/610 609/609/609
f 110/110/110 607/607/607 610/610/610
f 609/609/609 610/610/610 607/607/607
f 7/7/7 387/387/387 512/512/512
f 105/105/105 612/612/612 387/387/387
f 138/138/138 512/512/512 612/612/612
f 387/387/387 612/612/612 512/512/512
f 29/29/29 613/613/613 391/391/391
f 158/158/158 614/614/614 613/613/613
f 105/105/105 391/391/391 614/614/614
f 613/613/613 614/614/614 391/391/391
f 40/40/40 516/516/516 616/616/616
f 138/138/138 615/615/615 516/516/516
f 158/158/158 616/616/616 615/615/615
f 516/516/516 615/615/615 616/616/616
f 105/105/105 614/614/614 612/612/612
f 158/158/158 615/615/615 614/614/614
f 138/138/138 612/612/612 615/615/615
f 614/614/614 615/615/615 612/612/612
f 8/8/8 398/398/398 378/378/378
f 107/107/107 617/617/617 398/398/398
f 101/101/101 378/378/378 617/617/617
f 398/398/398 617/617/617 378/378/378
f 32/32/32 618/618/618 401/401/401
f 159/159/159 619/619/619 618/618/618
f 107/107/107 401/401/401 619/619/619
f 618/618/618 619/619/619 401/401/401
f 29/29/29 382/382/382 621/621/621
f 101/101/101 620/620/620 382/382/382
f 159/159/159 621/621/621 620/620/620
f 382/382/382 620/620/620 621/621/621
f 107/107/107 619/619/619 617/617/617
f 159/159/159 620/620/620 619/619/619
f 101/101/101 617/617/617 620/620/620
f 619/619/619 620/620/620 617/617/617
f 40/40/40 616/616/616 608/608/608
f 158/158/158 622/622/622 616/616/616
f 157/157/157 608/608/608 622/622/622
f 616/616/616 622/622/622 608/608/608
f 29/29/29 621/621/621 613/613/613
f 159/159/159 623/623/623 621/621/621
f 158/158/158 613/613/613 623/623/623
f 621/621/621 623/623/623 613/613/613
f 32/32/32 611/611/611 618/618/618
f 157/157/157 624/624/624 611/611/611
f 159/159/159 618/618/618 624/624/624
f 611/611/611 624/624/624 618/618/618
f 158/158/158 623/623/623 622/622/622
f 159/159/159 624/624/624 623/623/623
f 157/157/157 622/622/622 624/624/624
f 623/623/623 624/624/624 622/622/622
f 10/10/10 544/544/544 307/307/307
f 147/147/147 625/625/625 544/544/544
f 82/82/82 307/307/307 625/625/625
f 544/544/544 625/625/625 307/307/307
f 42/42/42 626/626/626 547/547/547
f 160/160/160 627/627/627 626/626/626
f 147/147/147 547/547/547 627/627/627
f 626/626/626 627/627/627 547/547/547
f 24/24/24 312/312/312 629/629/629
f 82/82/82 628/628/628 312/312/312
f 160/160/160 629/629/629 628/628/628
f 312/312/312 628/628/628 629/629/629
f 147/147/147 627/627/627 625/625/625
f 160/160/160 628/628/628 627/627/627
f 82/82/82 625/625/625 628/628/628
f 627/627/627 628/628/628 625/625/625
f 9/9/9 413/413/413 536/536/536
f 112/112/112 630/630/630 413/413/413
f 144/144/144 536/536/536 630/630/630
f 413/413/413 630/630/630 536/536/536
f 31/31/31 631/631/631 417/417/417
f 161/161/161 632/632/632 631/631/631
f 112/112/112 417/417/417 632/632/632
f 631/631/631 632/632/632 417/417/417
f 42/42/42 540/540/540 634/634/634
f 144/144/144 633/633/633 540/540/540
f 161/161/161 634/634/634 633/633/633
f 540/540/540 633/633/633 634/634/634
f 112/112/112 632/632/632 630/630/630
f 161/161/161 633/633/633 632/632/632
f 144/144/144 630/630/630 633/633/633
f 632/632/632 633/633/633 630/630/630
f 2/2/2 294/294/294 404/404/404
f 79/79/79 635/635/635 294/294/294
f 108/108/108 404/404/404 635/635/635
f 294/294/294 635/635/635 404/404/404
f 24/24/24 636/636/636 297/297/297
f 162/162/162 637/637/637 636/636/636
f 79/79/79 297/297/297 637/637/637
f 636/636/636 637/637/637 297/297/297
f 31/31/31 408/408/408 639/639/639
f 108/108/108 638/638/638 408/408/408
f 162/162/162 639/639/639 638/638/638
f 408/408/408 638/638/638 639/639/639
f 79/79/79 637/637/637 635/635/635
f 162/162/162 638/638/638 637/637/637
f 108/108/108 635/635/635 638/638/638
f 637/637/637 638/638/638 635/635/635
f 42/42/42 634/634/634 626/626/626
f 161/161/161 640/640/640 634/634/634
f 160/160/160 626/626/626 640/640/640
f 634/634/634 640/640/640 626/626/626
f 31/31/31 639/639/639 631/631/631
f 162/162/162 641/641/641 639/639/639
f 161/161/161 631/631/631 641/641/641
f 639/639/639 641/641/641 631/631/631
f 24/24/24 629/629/629 636/636/636
f 160/160/160 642/642/642 629/629/629
f 162/162/162 636/636/636 642/642/642
f 629/629/629 642/642/642 636/636/636
f 161/161/161 641/641/641 640/640/640
f 162/162/162 642/642/642 641/641/641
f 160/160/160 640/640/640 642/642/642
f 641/641/641 642/642/642 640/640/640
