# generated by scripts/make_rocks.py - demonstrator scenery
v -0.60945 0.79218 0.00000
v 0.69163 0.89901 0.00000
v -0.69173 -0.89914 0.00000
v 0.71762 -0.93280 0.00000
v 0.00000 -0.47524 0.49612
v 0.00000 0.51339 0.53593
v 0.00000 -0.45925 -0.47942
v 0.00000 0.46318 -0.48352
v 0.93616 0.00000 -0.29988
v 1.16876 0.00000 0.37439
v -0.99703 0.00000 -0.31938
v -1.05086 0.00000 0.33662
v -1.18678 0.58923 0.23495
v -0.62862 0.31210 0.52718
v -0.41540 0.87365 0.34836
v 0.38089 0.80109 0.31943
v 0.00000 0.99234 0.00000
v 0.36771 0.77337 -0.30837
v -0.37679 0.79245 -0.31598
v -0.61813 0.30690 -0.51838
v -1.11824 0.55520 -0.22138
v -1.22365 0.00000 0.00000
v 0.59039 0.29312 0.49512
v 0.94407 0.46872 0.18690
v -0.69104 -0.34310 0.57953
v 0.00000 0.00000 0.64622
v -1.05581 -0.52420 -0.20902
v -1.14039 -0.56620 0.22577
v 0.00000 0.00000 -0.54628
v -0.56225 -0.27915 -0.47152
v 0.89012 0.44194 -0.17622
v 0.51580 0.25609 -0.43257
v 1.09739 -0.54485 0.21725
v 0.59265 -0.29425 0.49701
v 0.43147 -0.90746 0.36184
v -0.41960 -0.88250 0.35189
v 0.00000 -1.01381 0.00000
v -0.37736 -0.79367 -0.31647
v 0.37571 -0.79020 -0.31509
v 0.57322 -0.28460 -0.48071
v 0.99932 -0.49615 -0.19784
v 1.29998 0.00000 0.00000
v -0.96131 0.78147 0.11535
v -0.79192 0.74485 0.29701
v -0.56266 0.89870 0.17468
v -0.94157 0.17306 0.48227
v -0.92068 0.45711 0.40757
v -1.16050 0.28086 0.30253
v -0.20379 0.70712 0.46165
v -0.56917 0.63190 0.47733
v -0.32916 0.44147 0.56630
v -0.21704 1.02069 0.18201
v -0.34032 0.96237 0.00000
v 0.18267 0.63385 0.41382
v 0.00000 0.88079 0.35121
v 0.36751 1.03929 0.00000
v 0.21918 1.03078 0.18381
v 0.56895 0.90874 0.17663
v -0.19098 0.89816 -0.16016
v -0.49397 0.78898 -0.15335
v 0.53746 0.85845 -0.16686
v 0.20498 0.96398 -0.17190
v -0.20215 0.70145 -0.45795
v 0.00000 0.78404 -0.31263
v 0.19349 0.67138 -0.43832
v -0.73372 0.69012 -0.27518
v -0.87918 0.71470 -0.10550
v -0.31542 0.42304 -0.54266
v -0.54064 0.60021 -0.45339
v -1.08241 0.26196 -0.28217
v -0.87450 0.43418 -0.38712
v -0.86557 0.15909 -0.44334
v -1.17556 0.58366 0.00000
v -1.14417 0.00000 -0.16847
v -1.30409 0.28956 -0.11546
v -1.30561 0.28990 0.11559
v -1.17813 0.00000 0.17347
v 0.70149 0.65981 0.26309
v 0.84049 0.68325 0.10085
v 0.29968 0.40193 0.51558
v 0.49106 0.54517 0.41182
v 1.13408 0.27447 0.29564
v 0.84186 0.41798 0.37268
v 0.90996 0.16725 0.46608
v -0.34421 0.17090 0.64548
v 0.00000 0.26913 0.61123
v -0.93682 -0.17219 0.47984
v -0.69490 0.00000 0.58277
v 0.00000 -0.27040 0.61412
v -0.35170 -0.17462 0.65952
v -0.31526 -0.42281 0.54237
v -1.15302 -0.25601 0.10208
v -1.17478 -0.28432 0.30625
v -1.10250 -0.26683 -0.28741
v -1.20211 -0.26691 -0.10643
v -1.01226 -0.82289 0.12147
v -1.22806 -0.60972 0.00000
v -0.94034 -0.76441 -0.11284
v -0.60657 0.00000 -0.50869
v -0.77310 -0.14209 -0.39598
v 0.00000 0.24054 -0.54629
v -0.28954 0.14376 -0.54296
v -0.29150 -0.39095 -0.50149
v -0.29253 -0.14524 -0.54856
v 0.00000 -0.22675 -0.51497
v 0.47688 0.52943 -0.39993
v 0.27985 0.37533 -0.48146
v 0.86018 0.69925 -0.10322
v 0.65938 0.62020 -0.24730
v 0.74838 0.13755 -0.38332
v 0.75461 0.37466 -0.33405
v 0.94758 0.22933 -0.24702
v 0.96834 -0.78718 0.11620
v 0.82266 -0.77377 0.30854
v 0.63370 -1.01216 0.19673
v 0.91775 -0.16868 0.47007
v 0.87834 -0.43609 0.38882
v 1.17527 -0.28444 0.30638
v 0.19089 -0.66236 0.43243
v 0.48925 -0.54316 0.41030
v 0.29265 -0.39250 0.50349
v 0.22499 -1.05808 0.18868
v 0.39233 -1.10948 0.00000
v -0.19920 -0.69119 0.45126
v 0.00000 -0.87248 0.34790
v -0.32825 -0.92824 0.00000
v -0.22079 -1.03835 0.18516
v -0.60651 -0.96873 0.18829
v 0.21732 -1.02204 -0.18225
v 0.56823 -0.90760 -0.17641
v -0.52821 -0.84368 -0.16399
v -0.19231 -0.90443 -0.16128
v 0.18836 -0.65361 -0.42672
v 0.00000 -0.86042 -0.34309
v -0.18345 -0.63655 -0.41558
v 0.69283 -0.65166 -0.25984
v 0.86578 -0.70380 -0.10389
v 0.27604 -0.37022 -0.47491
v 0.47846 -0.53119 -0.40125
v 1.07293 -0.25967 -0.27970
v 0.82708 -0.41064 -0.36613
v 0.84920 -0.15608 -0.43496
v 1.08170 -0.53706 0.00000
v 1.19086 0.00000 -0.17534
v 1.21128 -0.26895 -0.10724
v 1.31173 -0.29126 0.11614
v 1.34207 0.00000 0.19760
v 0.29120 -0.14458 0.54606
v 0.64452 0.00000 0.54052
v 0.32382 0.16078 0.60724
v -0.82931 -0.78003 0.31103
v -0.57152 -0.63450 0.47929
v -0.96420 -0.47872 0.42684
v -0.50446 -0.56005 -0.42306
v -0.73347 -0.68988 -0.27508
v -0.84339 -0.41874 -0.37335
v 0.55836 0.00000 -0.46826
v 0.26441 -0.13128 -0.49582
v 0.27570 0.13688 -0.51699
v 1.18259 0.26258 0.10470
v 1.11627 0.24786 -0.09883
v 1.03370 0.51323 0.00000
v -0.78791 0.80589 0.05379
v -0.75314 0.83953 0.14557
v -0.59615 0.85506 0.08368
v -0.98983 0.67641 0.26971
v -0.89379 0.77890 0.21180
v -1.10939 0.71286 0.17969
v -0.48905 0.88405 0.25927
v -0.68876 0.83990 0.23942
v -0.62149 0.83354 0.33237
v -1.01678 0.08450 0.41391
v -1.05566 0.22791 0.39432
v -1.11223 0.13553 0.32288
v -0.78319 0.38885 0.47720
v -0.95787 0.32432 0.45766
v -0.81356 0.25535 0.52717
v -1.21590 0.44401 0.28006
v -1.11288 0.39501 0.37999
v -1.05423 0.52342 0.32729
v -0.10038 0.61225 0.50294
v -0.27636 0.59536 0.53299
v -0.16829 0.49918 0.57501
v -0.51238 0.78294 0.42970
v -0.39982 0.70251 0.49168
v -0.30986 0.79654 0.41106
v -0.47563 0.37355 0.54232
v -0.44888 0.53767 0.52657
v -0.60066 0.46766 0.50373
v -0.86212 0.60440 0.35478
v -0.73687 0.53858 0.43764
v -0.69159 0.69974 0.39397
v -0.44844 0.92953 0.08542
v -0.48964 0.89234 0.00000
v -0.31070 0.93177 0.26056
v -0.39273 0.95955 0.17843
v -0.16954 0.97784 0.00000
v -0.28335 0.99936 0.08860
v -0.10442 1.00743 0.08757
v 0.09331 0.56914 0.46752
v 0.00000 0.66511 0.43423
v 0.19685 0.84935 0.33867
v 0.09613 0.74254 0.38085
v 0.28487 0.73228 0.37790
v -0.09925 0.76662 0.39320
v -0.20637 0.89040 0.35504
v 0.54205 0.98786 0.00000
v 0.50507 1.04692 0.09621
v 0.65163 0.93464 0.09147
v 0.10764 1.03847 0.09027
v 0.30042 1.05957 0.09394
v 0.17589 1.01450 0.00000
v 0.48152 0.87043 0.25528
v 0.40668 0.99363 0.18477
v 0.31462 0.94352 0.26385
v -0.10984 0.97858 0.27634
v 0.10889 0.97015 0.27396
v 0.00000 1.02765 0.18325
v -0.41476 0.85971 -0.07900
v -0.54701 0.78458 -0.07678
v -0.10113 0.97571 -0.08481
v -0.26623 0.93897 -0.08324
v -0.45019 0.81380 -0.23867
v -0.34980 0.85466 -0.15893
v -0.28035 0.84076 -0.23511
v 0.62750 0.90002 -0.08808
v 0.46672 0.96742 -0.08890
v 0.29482 0.88416 -0.24725
v 0.37638 0.91959 -0.17100
v 0.45699 0.82610 -0.24227
v 0.28932 1.02044 -0.09047
v 0.10644 1.02694 -0.08927
v -0.09753 0.59490 -0.48868
v 0.00000 0.67738 -0.44224
v 0.09569 0.58365 -0.47944
v -0.17990 0.77618 -0.30950
v -0.09525 0.73573 -0.37735
v -0.29580 0.76040 -0.39241
v 0.28134 0.72323 -0.37323
v 0.09672 0.74708 -0.38318
v 0.18621 0.80340 -0.32035
v 0.00000 0.97020 -0.17301
v 0.10028 0.89340 -0.25229
v -0.09803 0.87335 -0.24663
v -0.65274 0.72761 -0.12616
v -0.72557 0.74213 -0.04953
v -0.57783 0.77497 -0.30901
v -0.61606 0.75126 -0.21415
v -1.02230 0.65690 -0.16559
v -0.80401 0.70067 -0.19053
v -0.95947 0.65567 -0.26144
v -0.15011 0.44526 -0.51290
v -0.26483 0.57052 -0.51074
v -0.56993 0.44373 -0.47796
v -0.43480 0.52081 -0.51006
v -0.46683 0.36664 -0.53228
v -0.38297 0.67290 -0.47095
v -0.48791 0.74556 -0.40918
v -1.03273 0.12585 -0.29980
v -0.95873 0.20699 -0.35812
v -0.90796 0.07545 -0.36961
v -1.04489 0.51878 -0.32439
v -1.00835 0.35791 -0.34430
v -1.15799 0.42287 -0.26673
v -0.75171 0.23594 -0.48709
v -0.90355 0.30593 -0.43170
v -0.73602 0.36543 -0.44846
v -0.66973 0.67762 -0.38152
v -0.68576 0.50123 -0.40729
v -0.83017 0.58200 -0.34163
v -0.93503 0.76010 0.00000
v -1.17129 0.58154 -0.11303
v -1.06871 0.68251 -0.05761
v -1.11873 0.71446 0.06030
v -1.19981 0.59570 0.11579
v -1.08408 0.00000 -0.24768
v -1.12646 0.12890 -0.22628
v -1.29365 0.14002 -0.05583
v -1.24238 0.13714 -0.14667
v -1.20199 0.00000 -0.08677
v -1.19192 0.27598 -0.20312
v -1.22994 0.42826 -0.17076
v -1.16025 0.13276 0.23307
v -1.10510 0.00000 0.25248
v -1.30167 0.45323 0.18072
v -1.23348 0.28560 0.21020
v -1.23554 0.00000 0.08919
v -1.26623 0.13978 0.14948
v -1.31064 0.14186 0.05656
v -1.20792 0.42473 -0.05645
v -1.34220 0.29802 0.00000
v -1.25436 0.44106 0.05862
v 0.71845 0.80085 0.13886
v 0.76988 0.78746 0.05256
v 0.55095 0.73892 0.29464
v 0.64769 0.78982 0.22515
v 0.90894 0.58406 0.14722
v 0.75831 0.66084 0.17970
v 0.81282 0.55545 0.22148
v 0.15249 0.45233 0.52104
v 0.23600 0.50841 0.45514
v 0.54269 0.42253 0.45512
v 0.38744 0.46408 0.45449
v 0.43553 0.34206 0.49660
v 0.33484 0.58833 0.41176
v 0.44741 0.68367 0.37521
v 1.16651 0.14215 0.33864
v 1.07220 0.23148 0.40050
v 1.03961 0.08640 0.42321
v 0.87901 0.43642 0.27289
v 0.97220 0.34508 0.33195
v 1.02271 0.37347 0.23557
v 0.73466 0.23058 0.47604
v 0.88393 0.29929 0.42233
v 0.71241 0.35371 0.43407
v 0.61693 0.62420 0.35144
v 0.65425 0.47820 0.38857
v 0.74157 0.51988 0.30517
v -0.16528 0.36128 0.60142
v 0.00000 0.41576 0.60852
v -0.49533 0.24593 0.59232
v -0.33374 0.30585 0.60016
v 0.00000 0.13494 0.62506
v -0.16502 0.21974 0.62243
v -0.17017 0.08449 0.65462
v -1.01499 -0.08435 0.41318
v -0.92624 0.00000 0.47442
v -0.70477 -0.17057 0.59104
v -0.81627 -0.08579 0.53219
v -0.83173 -0.26105 0.53894
v -0.80462 0.08456 0.52459
v -0.67747 0.16396 0.56815
v 0.00000 -0.37456 0.54823
v -0.15637 -0.34179 0.56898
v -0.15144 -0.44921 0.51745
v -0.17789 -0.08832 0.68435
v -0.17303 -0.23041 0.65266
v 0.00000 -0.14180 0.65684
v -0.49274 -0.38699 0.56183
v -0.33415 -0.30623 0.60089
v -0.52748 -0.26189 0.63077
v -0.53866 0.08915 0.63786
v -0.55544 -0.09192 0.65773
v -0.37159 0.00000 0.69683
v -1.17612 -0.13458 0.23625
v -1.14375 -0.13938 0.33203
v -1.14601 -0.12404 0.04946
v -1.16691 -0.12881 0.13776
v -1.15017 -0.42001 0.26493
v -1.19072 -0.27570 0.20292
v -1.14669 -0.39927 0.15921
v -1.05465 -0.12852 -0.30616
v -1.16540 -0.13335 -0.23410
v -1.22115 -0.42520 -0.16954
v -1.16163 -0.26897 -0.19796
v -1.11338 -0.40658 -0.25645
v -1.15574 -0.12758 -0.13644
v -1.13461 -0.12280 -0.04897
v -0.86909 -0.88893 0.05933
v -1.01210 -0.82276 0.00000
v -0.82511 -0.84395 -0.05633
v -1.20585 -0.59870 0.11637
v -1.15997 -0.74080 0.06253
v -1.11175 -0.71438 0.18007
v -1.01896 -0.65475 -0.16504
v -1.11156 -0.70988 -0.05992
v -1.19061 -0.59113 -0.11490
v -1.17462 -0.26081 0.00000
v -1.25744 -0.44214 -0.05877
v -1.20593 -0.42403 0.05636
v -0.81122 0.00000 -0.41551
v -0.91277 -0.07585 -0.37157
v -0.62593 0.15149 -0.52492
v -0.74459 0.07825 -0.48545
v -0.67599 -0.21217 -0.43803
v -0.68739 -0.07224 -0.44816
v -0.58098 -0.14061 -0.48723
v 0.00000 0.34460 -0.50437
v -0.14679 0.32087 -0.53416
v -0.14765 0.07331 -0.56802
v -0.15086 0.20088 -0.56902
v 0.00000 0.12167 -0.56359
v -0.31365 0.28744 -0.56402
v -0.46267 0.22971 -0.55326
v -0.14695 -0.43588 -0.50209
v -0.14452 -0.31591 -0.52589
v 0.00000 -0.35273 -0.51627
v -0.44794 -0.22240 -0.53566
v -0.29462 -0.27000 -0.52980
v -0.43129 -0.33873 -0.49176
v 0.00000 -0.11261 -0.52162
v -0.14340 -0.19096 -0.54090
v -0.13805 -0.06854 -0.53107
v -0.45740 0.07570 -0.54164
v -0.29076 0.00000 -0.54524
v -0.45556 -0.07539 -0.53946
v 0.24224 0.52185 -0.46717
v 0.13887 0.41193 -0.47450
v 0.43653 0.66704 -0.36609
v 0.34870 0.61269 -0.42881
v 0.40661 0.31934 -0.46362
v 0.38887 0.46579 -0.45617
v 0.51858 0.40375 -0.43489
v 0.77129 0.78890 -0.05265
v 0.70673 0.78778 -0.13659
v 0.77698 0.53096 -0.21172
v 0.79290 0.69099 -0.18790
v 0.86386 0.55510 -0.13992
v 0.63239 0.77117 -0.21983
v 0.52811 0.70829 -0.28243
v 0.85363 0.07094 -0.34750
v 0.87475 0.18886 -0.32675
v 0.96647 0.11777 -0.28056
v 0.65135 0.32339 -0.39687
v 0.77552 0.26258 -0.37053
v 0.62613 0.19652 -0.40572
v 0.88263 0.32231 -0.20330
v 0.87016 0.30886 -0.29711
v 0.79906 0.39673 -0.24807
v 0.56900 0.57570 -0.32414
v 0.70318 0.49297 -0.28938
v 0.61934 0.45268 -0.36784
v 0.84381 -0.86307 0.05760
v 0.79026 -0.88090 0.15274
v 0.68772 -0.98639 0.09653
v 0.98404 -0.67246 0.26814
v 0.90633 -0.78983 0.21478
v 1.05859 -0.68022 0.17146
v 0.54049 -0.97704 0.28654
v 0.74621 -0.90997 0.25939
v 0.64190 -0.86091 0.34328
v 1.02212 -0.08494 0.41609
v 1.06726 -0.23042 0.39865
v 1.17566 -0.14326 0.34129
v 0.73409 -0.36447 0.44728
v 0.93681 -0.31719 0.44759
v 0.76547 -0.24026 0.49601
v 1.14852 -0.41941 0.26455
v 1.05144 -0.37320 0.35901
v 1.03291 -0.51283 0.32067
v 0.09180 -0.55990 0.45993
v 0.24054 -0.51819 0.46390
v 0.14915 -0.44243 0.50964
v 0.49865 -0.76197 0.41818
v 0.34774 -0.61100 0.42763
v 0.30807 -0.79194 0.40869
v 0.43797 -0.34398 0.49938
v 0.39357 -0.47141 0.46168
v 0.51502 -0.40099 0.43191
v 0.84311 -0.59107 0.34696
v 0.66713 -0.48761 0.39622
v 0.67594 -0.68390 0.38506
v 0.51937 -1.07655 0.09893
v 0.57795 -1.05329 0.00000
v 0.34110 -1.02294 0.28605
v 0.43497 -1.06276 0.19763
v 0.18890 -1.08954 0.00000
v 0.31694 -1.11783 0.09910
v 0.11151 -1.07583 0.09352
v -0.09487 -0.57862 0.47531
v 0.00000 -0.66275 0.43269
v -0.20158 -0.86974 0.34680
v -0.10004 -0.77279 0.39636
v -0.30558 -0.78552 0.40538
v 0.09961 -0.76942 0.39463
v 0.20236 -0.87311 0.34814
v -0.50463 -0.91965 0.00000
v -0.47455 -0.98364 0.09039
v -0.65022 -0.93261 0.09127
v -0.11005 -1.06172 0.09229
v -0.29018 -1.02345 0.09073
v -0.16915 -0.97559 0.00000
v -0.53633 -0.96952 0.28434
v -0.41362 -1.01059 0.18793
v -0.32956 -0.98835 0.27638
v 0.11099 -0.98886 0.27925
v -0.11173 -0.99544 0.28110
v 0.00000 -1.04953 0.18716
v 0.50048 -1.03740 -0.09533
v 0.64384 -0.92346 -0.09038
v 0.10870 -1.04871 -0.09116
v 0.30391 -1.07187 -0.09503
v 0.47275 -0.85459 -0.25063
v 0.40965 -1.00089 -0.18612
v 0.30254 -0.90731 -0.25372
v -0.62757 -0.90013 -0.08809
v -0.43242 -0.89631 -0.08237
v -0.29612 -0.88805 -0.24833
v -0.36088 -0.88173 -0.16396
v -0.46715 -0.84446 -0.24766
v -0.26178 -0.92330 -0.08185
v -0.09963 -0.96124 -0.08356
v 0.09156 -0.55847 -0.45876
v 0.00000 -0.66164 -0.43196
v -0.09119 -0.55621 -0.45690
v 0.19208 -0.82874 -0.33045
v 0.09701 -0.74937 -0.38435
v 0.27930 -0.71799 -0.37052
v -0.28956 -0.74434 -0.38412
v -0.09874 -0.76273 -0.39120
v -0.19736 -0.85151 -0.33953
v 0.00000 -0.97162 -0.17326
v -0.10193 -0.90815 -0.25645
v 0.10341 -0.92131 -0.26017
v 0.73279 -0.81683 -0.14163
v 0.80930 -0.82777 -0.05525
v 0.55216 -0.74055 -0.29529
v 0.65263 -0.79585 -0.22686
v 0.91521 -0.58809 -0.14824
v 0.79467 -0.69253 -0.18832
v 0.84410 -0.57683 -0.23001
v 0.14472 -0.42928 -0.49449
v 0.24563 -0.52915 -0.47371
v 0.52973 -0.41244 -0.44424
v 0.39007 -0.46722 -0.45758
v 0.41213 -0.32368 -0.46991
v 0.34680 -0.60934 -0.42647
v 0.43433 -0.66367 -0.36424
v 1.03094 -0.12563 -0.29928
v 0.95709 -0.20663 -0.35750
v 0.89070 -0.07402 -0.36259
v 0.94224 -0.46782 -0.29252
v 1.00202 -0.35566 -0.34214
v 1.06379 -0.38847 -0.24503
v 0.74290 -0.23317 -0.48138
v 0.85954 -0.29103 -0.41068
v 0.70864 -0.35183 -0.43177
v 0.58236 -0.58923 -0.33175
v 0.63424 -0.46357 -0.37669
v 0.75712 -0.53079 -0.31157
v 0.91190 -0.74130 0.00000
v 1.00753 -0.50024 -0.09723
v 0.98991 -0.63219 -0.05336
v 1.03137 -0.65867 0.05559
v 1.11295 -0.55258 0.10740
v 1.07075 0.00000 -0.24463
v 1.13328 -0.12968 -0.22765
v 1.30008 -0.14071 -0.05611
v 1.22944 -0.13571 -0.14514
v 1.25360 0.00000 -0.09050
v 1.14608 -0.26537 -0.19531
v 1.10235 -0.38383 -0.15305
v 1.32770 -0.15192 0.26670
v 1.27640 0.00000 0.29162
v 1.20165 -0.41841 0.16684
v 1.26684 -0.29333 0.21589
v 1.34693 0.00000 0.09724
v 1.37851 -0.15217 0.16274
v 1.38185 -0.14956 0.05964
v 1.12585 -0.39587 -0.05262
v 1.30443 -0.28963 0.00000
v 1.17948 -0.41473 0.05512
v 0.15480 -0.33837 0.56328
v 0.44168 -0.21929 0.52817
v 0.30739 -0.28170 0.55276
v 0.15617 -0.20796 0.58906
v 0.15685 -0.07788 0.60341
v 0.91164 0.00000 0.46694
v 0.63301 0.15320 0.53086
v 0.76542 0.08044 0.49903
v 0.79935 -0.08401 0.52116
v 0.63431 -0.15351 0.53195
v 0.16122 0.35240 0.58664
v 0.15527 0.07709 0.59731
v 0.16177 0.21541 0.61017
v 0.31804 0.29146 0.57191
v 0.46646 0.23159 0.55780
v 0.45728 -0.07568 0.54150
v 0.47303 0.07829 0.56015
v 0.30288 0.00000 0.56797
v -0.79168 -0.88248 0.15301
v -0.63435 -0.85078 0.33924
v -0.73055 -0.89086 0.25395
v -0.94189 -0.82083 0.22320
v -1.00054 -0.68374 0.27263
v -0.25694 -0.55353 0.49553
v -0.62939 -0.49003 0.52782
v -0.44252 -0.53006 0.51912
v -0.38266 -0.67235 0.47057
v -0.51742 -0.79064 0.43392
v -1.08668 -0.23461 0.40591
v -1.03488 -0.51381 0.32128
v -1.11899 -0.39718 0.38208
v -0.97702 -0.33081 0.46681
v -0.83875 -0.41643 0.51105
v -0.73942 -0.74814 0.42123
v -0.77981 -0.56997 0.46315
v -0.90133 -0.63189 0.37092
v -0.23658 -0.50966 -0.45626
v -0.44615 -0.68174 -0.37415
v -0.33958 -0.59666 -0.41759
v -0.40084 -0.48013 -0.47022
v -0.54730 -0.42612 -0.45899
v -0.75010 -0.83614 -0.14498
v -0.91694 -0.62660 -0.24985
v -0.82314 -0.71734 -0.19506
v -0.64476 -0.78625 -0.22413
v -0.55504 -0.74441 -0.29683
v -0.94968 -0.20503 -0.35474
v -0.69504 -0.34508 -0.42349
v -0.80364 -0.27210 -0.38397
v -0.96949 -0.34411 -0.33103
v -0.95163 -0.47248 -0.29544
v -0.64858 -0.65622 -0.36947
v -0.81282 -0.56983 -0.33449
v -0.69857 -0.51059 -0.41490
v 0.78734 0.00000 -0.40327
v 0.58704 -0.14208 -0.49231
v 0.71396 -0.07503 -0.46548
v 0.65464 0.06880 -0.42681
v 0.52230 0.12641 -0.43802
v 0.13677 -0.29896 -0.49768
v 0.13739 -0.06822 -0.52855
v 0.13554 -0.18049 -0.51126
v 0.27080 -0.24817 -0.48698
v 0.40875 -0.20294 -0.48879
v 0.13382 0.29250 -0.48693
v 0.39735 0.19728 -0.47516
v 0.27377 0.25090 -0.49232
v 0.14466 0.19263 -0.54564
v 0.14369 0.07134 -0.55278
v 0.41893 -0.06933 -0.49608
v 0.28319 0.00000 -0.53105
v 0.40566 0.06714 -0.48036
v 1.26671 0.14494 0.25445
v 1.24359 0.13460 0.05367
v 1.26523 0.13967 0.14937
v 1.14041 0.26405 0.19434
v 1.08805 0.37885 0.15106
v 1.07001 0.12244 -0.21494
v 0.97092 0.33807 -0.13480
v 1.03665 0.24003 -0.17666
v 1.13887 0.12572 -0.13445
v 1.21356 0.13135 -0.05237
v 0.85283 0.69328 0.00000
v 1.03928 0.51600 0.10029
v 0.95848 0.61212 0.05167
v 0.95564 0.61031 -0.05151
v 0.95815 0.47572 -0.09246
v 1.18162 0.26237 0.00000
v 1.10267 0.38772 -0.05153
v 1.13459 0.39894 0.05303
vt 2.56310 1.00000
vt 1.93690 1.00000
vt 0.43690 1.00000
vt 1.06310 1.00000
vt 0.75000 0.48632
vt 2.25000 0.48632
vt 0.75000 1.51368
vt 2.25000 1.51368
vt 1.50000 1.19735
vt 1.50000 0.80265
vt 3.00000 1.19735
vt 3.00000 0.80265
vt 2.77997 0.88828
vt 2.77997 0.58987
vt 2.46191 0.77995
vt 2.03809 0.77995
vt 2.25000 1.00000
vt 2.03809 1.22005
vt 2.46191 1.22005
vt 2.77997 1.41013
vt 2.77997 1.11172
vt 3.00000 1.00000
vt 1.72003 0.58987
vt 1.72003 0.88828
vt 0.22003 0.58987
vt 1.50000 0.00000
vt 0.22003 1.11172
vt 0.22003 0.88828
vt 1.50000 2.00000
vt 0.22003 1.41013
vt 1.72003 1.11172
vt 1.72003 1.41013
vt 1.27997 0.88828
vt 1.27997 0.58987
vt 0.96191 0.77995
vt 0.53809 0.77995
vt 0.75000 1.00000
vt 0.53809 1.22005
vt 0.96191 1.22005
vt 1.27997 1.41013
vt 1.27997 1.11172
vt 1.50000 1.00000
vt 2.67410 0.94089
vt 2.63962 0.83022
vt 2.51708 0.89605
vt 2.91321 0.70292
vt 2.77997 0.75968
vt 2.88662 0.84202
vt 2.38397 0.64332
vt 2.60009 0.67440
vt 2.55591 0.49110
vt 2.35004 0.89006
vt 2.41229 1.00000
vt 2.11603 0.64332
vt 2.25000 0.75845
vt 2.08771 1.00000
vt 2.14996 0.89006
vt 1.98292 0.89605
vt 2.35004 1.10994
vt 2.51708 1.10395
vt 1.98292 1.10395
vt 2.14996 1.10994
vt 2.38397 1.35668
vt 2.25000 1.24155
vt 2.11603 1.35668
vt 2.63962 1.16978
vt 2.67410 1.05911
vt 2.55591 1.50890
vt 2.60009 1.32560
vt 2.88662 1.15798
vt 2.77997 1.24032
vt 2.91321 1.29708
vt 2.77997 1.00000
vt 3.00000 1.09307
vt 2.89568 1.05489
vt 2.89568 0.94511
vt 3.00000 0.90693
vt 1.86038 0.83022
vt 1.82590 0.94089
vt 1.94409 0.49110
vt 1.89991 0.67440
vt 1.61338 0.84202
vt 1.72003 0.75968
vt 1.58679 0.70292
vt 2.77997 0.34187
vt 2.25000 0.26405
vt 0.08679 0.70292
vt 3.00000 0.55573
vt 0.75000 0.26405
vt 0.22003 0.34187
vt 0.44409 0.49110
vt 0.10432 0.94511
vt 0.11338 0.84202
vt 0.11338 1.15798
vt 0.10432 1.05489
vt 0.32590 0.94089
vt 0.22003 1.00000
vt 0.32590 1.05911
vt 3.00000 1.44427
vt 0.08679 1.29708
vt 2.25000 1.73595
vt 2.77997 1.65813
vt 0.44409 1.50890
vt 0.22003 1.65813
vt 0.75000 1.73595
vt 1.89991 1.32560
vt 1.94409 1.50890
vt 1.82590 1.05911
vt 1.86038 1.16978
vt 1.58679 1.29708
vt 1.72003 1.24032
vt 1.61338 1.15798
vt 1.17410 0.94089
vt 1.13962 0.83022
vt 1.01708 0.89605
vt 1.41321 0.70292
vt 1.27997 0.75968
vt 1.38662 0.84202
vt 0.88397 0.64332
vt 1.10009 0.67440
vt 1.05591 0.49110
vt 0.85004 0.89006
vt 0.91229 1.00000
vt 0.61603 0.64332
vt 0.75000 0.75845
vt 0.58771 1.00000
vt 0.64996 0.89006
vt 0.48292 0.89605
vt 0.85004 1.10994
vt 1.01708 1.10395
vt 0.48292 1.10395
vt 0.64996 1.10994
vt 0.88397 1.35668
vt 0.75000 1.24155
vt 0.61603 1.35668
vt 1.13962 1.16978
vt 1.17410 1.05911
vt 1.05591 1.50890
vt 1.10009 1.32560
vt 1.38662 1.15798
vt 1.27997 1.24032
vt 1.41321 1.29708
vt 1.27997 1.00000
vt 1.50000 1.09307
vt 1.39568 1.05489
vt 1.39568 0.94511
vt 1.50000 0.90693
vt 1.27997 0.34187
vt 1.50000 0.55573
vt 1.72003 0.34187
vt 0.36038 0.83022
vt 0.39991 0.67440
vt 0.22003 0.75968
vt 0.39991 1.32560
vt 0.36038 1.16978
vt 0.22003 1.24032
vt 1.50000 1.44427
vt 1.27997 1.65813
vt 1.72003 1.65813
vt 1.60432 0.94511
vt 1.60432 1.05489
vt 1.72003 1.00000
vt 2.61961 0.96964
vt 2.59913 0.91829
vt 2.54070 0.94900
vt 2.71377 0.85912
vt 2.65774 0.88745
vt 2.72730 0.91378
vt 2.49126 0.84008
vt 2.57794 0.86188
vt 2.55591 0.80303
vt 2.96041 0.75465
vt 2.89847 0.77713
vt 2.94210 0.82139
vt 2.77997 0.68197
vt 2.84412 0.72945
vt 2.85479 0.64749
vt 2.83283 0.86435
vt 2.83715 0.80181
vt 2.77997 0.82734
vt 2.32759 0.56634
vt 2.45750 0.56581
vt 2.40525 0.47215
vt 2.52668 0.72594
vt 2.49705 0.65210
vt 2.42714 0.71461
vt 2.68212 0.53463
vt 2.58214 0.58960
vt 2.68414 0.62785
vt 2.70806 0.79309
vt 2.69864 0.71536
vt 2.62220 0.75752
vt 2.46462 0.94743
vt 2.48962 1.00000
vt 2.40367 0.83492
vt 2.43549 0.89150
vt 2.33197 1.00000
vt 2.38191 0.94583
vt 2.29931 0.94509
vt 2.17241 0.56634
vt 2.25000 0.63179
vt 2.14126 0.76413
vt 2.18853 0.70044
vt 2.07286 0.71461
vt 2.31147 0.70044
vt 2.35874 0.76413
vt 2.01038 1.00000
vt 2.03538 0.94743
vt 1.95930 0.94900
vt 2.20069 0.94509
vt 2.11809 0.94583
vt 2.16803 1.00000
vt 2.00874 0.84008
vt 2.06451 0.89150
vt 2.09633 0.83492
vt 2.30337 0.82583
vt 2.19663 0.82583
vt 2.25000 0.88766
vt 2.46462 1.05257
vt 2.54070 1.05100
vt 2.29931 1.05491
vt 2.38191 1.05417
vt 2.49126 1.15992
vt 2.43549 1.10850
vt 2.40367 1.16508
vt 1.95930 1.05100
vt 2.03538 1.05257
vt 2.09633 1.16508
vt 2.06451 1.10850
vt 2.00874 1.15992
vt 2.11809 1.05417
vt 2.20069 1.05491
vt 2.32759 1.43366
vt 2.25000 1.36821
vt 2.17241 1.43366
vt 2.35874 1.23587
vt 2.31147 1.29956
vt 2.42714 1.28539
vt 2.07286 1.28539
vt 2.18853 1.29956
vt 2.14126 1.23587
vt 2.25000 1.11234
vt 2.19663 1.17417
vt 2.30337 1.17417
vt 2.59913 1.08171
vt 2.61961 1.03036
vt 2.55591 1.19697
vt 2.57794 1.13812
vt 2.72730 1.08622
vt 2.65774 1.11255
vt 2.71377 1.14088
vt 2.40525 1.52785
vt 2.45750 1.43419
vt 2.68414 1.37215
vt 2.58214 1.41040
vt 2.68212 1.46537
vt 2.49705 1.34790
vt 2.52668 1.27406
vt 2.94210 1.17861
vt 2.89847 1.22287
vt 2.96041 1.24535
vt 2.77997 1.17266
vt 2.83715 1.19819
vt 2.83283 1.13565
vt 2.85479 1.35251
vt 2.84412 1.27055
vt 2.77997 1.31803
vt 2.62220 1.24248
vt 2.69864 1.28464
vt 2.70806 1.20691
vt 2.67410 1.00000
vt 2.77997 1.05489
vt 2.72864 1.02890
vt 2.72864 0.97110
vt 2.77997 0.94511
vt 3.00000 1.14299
vt 2.94560 1.12540
vt 2.94852 1.02730
vt 2.94751 1.07436
vt 3.00000 1.04588
vt 2.89136 1.10474
vt 2.84002 1.08300
vt 2.94560 0.87460
vt 3.00000 0.85701
vt 2.84002 0.91700
vt 2.89136 0.89526
vt 3.00000 0.95412
vt 2.94751 0.92564
vt 2.94852 0.97270
vt 2.83856 1.02805
vt 2.89568 1.00000
vt 2.83856 0.97195
vt 1.90087 0.91829
vt 1.88039 0.96964
vt 1.94409 0.80303
vt 1.92206 0.86188
vt 1.77270 0.91378
vt 1.84226 0.88745
vt 1.78623 0.85912
vt 2.09475 0.47215
vt 2.04250 0.56581
vt 1.81586 0.62785
vt 1.91786 0.58960
vt 1.81788 0.53463
vt 2.00295 0.65210
vt 1.97332 0.72594
vt 1.55790 0.82139
vt 1.60153 0.77713
vt 1.53959 0.75465
vt 1.72003 0.82734
vt 1.66285 0.80181
vt 1.66717 0.86435
vt 1.64521 0.64749
vt 1.65588 0.72945
vt 1.72003 0.68197
vt 1.87780 0.75752
vt 1.80136 0.71536
vt 1.79194 0.79309
vt 2.45486 0.37165
vt 2.25000 0.38158
vt 2.77997 0.47816
vt 2.64581 0.41141
vt 2.25000 0.13536
vt 2.55754 0.26468
vt 2.77997 0.17982
vt 0.03959 0.75465
vt 3.00000 0.69865
vt 0.11338 0.56463
vt 0.05000 0.63378
vt 0.14521 0.64749
vt 2.95000 0.63378
vt 2.88662 0.56463
vt 0.75000 0.38158
vt 0.54514 0.37165
vt 0.59475 0.47215
vt 0.22003 0.17982
vt 0.44246 0.26468
vt 0.75000 0.13536
vt 0.31788 0.53463
vt 0.35419 0.41141
vt 0.22003 0.47816
vt 2.92169 0.45069
vt 0.07831 0.45069
vt 3.00000 0.31188
vt 0.05440 0.87460
vt 0.05790 0.82139
vt 0.05148 0.97270
vt 0.05249 0.92564
vt 0.16717 0.86435
vt 0.10864 0.89526
vt 0.15998 0.91700
vt 0.05790 1.17861
vt 0.05440 1.12540
vt 0.15998 1.08300
vt 0.10864 1.10474
vt 0.16717 1.13565
vt 0.05249 1.07436
vt 0.05148 1.02730
vt 0.38039 0.96964
vt 0.32590 1.00000
vt 0.38039 1.03036
vt 0.22003 0.94511
vt 0.27136 0.97110
vt 0.27270 0.91378
vt 0.27270 1.08622
vt 0.27136 1.02890
vt 0.22003 1.05489
vt 0.10432 1.00000
vt 0.16144 1.02805
vt 0.16144 0.97195
vt 3.00000 1.30135
vt 0.03959 1.24535
vt 2.88662 1.43537
vt 2.95000 1.36622
vt 0.14521 1.35251
vt 0.05000 1.36622
vt 0.11338 1.43537
vt 2.25000 1.61842
vt 2.45486 1.62835
vt 2.77997 1.82018
vt 2.55754 1.73532
vt 2.25000 1.86464
vt 2.64581 1.58859
vt 2.77997 1.52184
vt 0.59475 1.52785
vt 0.54514 1.62835
vt 0.75000 1.61842
vt 0.22003 1.52184
vt 0.35419 1.58859
vt 0.31788 1.46537
vt 0.75000 1.86464
vt 0.44246 1.73532
vt 0.22003 1.82018
vt 2.92169 1.54931
vt 3.00000 1.68812
vt 0.07831 1.54931
vt 2.04250 1.43419
vt 2.09475 1.52785
vt 1.97332 1.27406
vt 2.00295 1.34790
vt 1.81788 1.46537
vt 1.91786 1.41040
vt 1.81586 1.37215
vt 1.88039 1.03036
vt 1.90087 1.08171
vt 1.78623 1.14088
vt 1.84226 1.11255
vt 1.77270 1.08622
vt 1.92206 1.13812
vt 1.94409 1.19697
vt 1.53959 1.24535
vt 1.60153 1.22287
vt 1.55790 1.17861
vt 1.72003 1.31803
vt 1.65588 1.27055
vt 1.64521 1.35251
vt 1.66717 1.13565
vt 1.66285 1.19819
vt 1.72003 1.17266
vt 1.87780 1.24248
vt 1.79194 1.20691
vt 1.80136 1.28464
vt 1.11961 0.96964
vt 1.09913 0.91829
vt 1.04070 0.94900
vt 1.21377 0.85912
vt 1.15774 0.88745
vt 1.22730 0.91378
vt 0.99126 0.84008
vt 1.07794 0.86188
vt 1.05591 0.80303
vt 1.46041 0.75465
vt 1.39847 0.77713
vt 1.44210 0.82139
vt 1.27997 0.68197
vt 1.34412 0.72945
vt 1.35479 0.64749
vt 1.33283 0.86435
vt 1.33715 0.80181
vt 1.27997 0.82734
vt 0.82759 0.56634
vt 0.95750 0.56581
vt 0.90525 0.47215
vt 1.02668 0.72594
vt 0.99705 0.65210
vt 0.92714 0.71461
vt 1.18212 0.53463
vt 1.08214 0.58960
vt 1.18414 0.62785
vt 1.20806 0.79309
vt 1.19864 0.71536
vt 1.12220 0.75752
vt 0.96462 0.94743
vt 0.98962 1.00000
vt 0.90367 0.83492
vt 0.93549 0.89150
vt 0.83197 1.00000
vt 0.88191 0.94583
vt 0.79931 0.94509
vt 0.67241 0.56634
vt 0.75000 0.63179
vt 0.64126 0.76413
vt 0.68853 0.70044
vt 0.57286 0.71461
vt 0.81147 0.70044
vt 0.85874 0.76413
vt 0.51038 1.00000
vt 0.53538 0.94743
vt 0.45930 0.94900
vt 0.70069 0.94509
vt 0.61809 0.94583
vt 0.66803 1.00000
vt 0.50874 0.84008
vt 0.56451 0.89150
vt 0.59633 0.83492
vt 0.80337 0.82583
vt 0.69663 0.82583
vt 0.75000 0.88766
vt 0.96462 1.05257
vt 1.04070 1.05100
vt 0.79931 1.05491
vt 0.88191 1.05417
vt 0.99126 1.15992
vt 0.93549 1.10850
vt 0.90367 1.16508
vt 0.45930 1.05100
vt 0.53538 1.05257
vt 0.59633 1.16508
vt 0.56451 1.10850
vt 0.50874 1.15992
vt 0.61809 1.05417
vt 0.70069 1.05491
vt 0.82759 1.43366
vt 0.75000 1.36821
vt 0.67241 1.43366
vt 0.85874 1.23587
vt 0.81147 1.29956
vt 0.92714 1.28539
vt 0.57286 1.28539
vt 0.68853 1.29956
vt 0.64126 1.23587
vt 0.75000 1.11234
vt 0.69663 1.17417
vt 0.80337 1.17417
vt 1.09913 1.08171
vt 1.11961 1.03036
vt 1.05591 1.19697
vt 1.07794 1.13812
vt 1.22730 1.08622
vt 1.15774 1.11255
vt 1.21377 1.14088
vt 0.90525 1.52785
vt 0.95750 1.43419
vt 1.18414 1.37215
vt 1.08214 1.41040
vt 1.18212 1.46537
vt 0.99705 1.34790
vt 1.02668 1.27406
vt 1.44210 1.17861
vt 1.39847 1.22287
vt 1.46041 1.24535
vt 1.27997 1.17266
vt 1.33715 1.19819
vt 1.33283 1.13565
vt 1.35479 1.35251
vt 1.34412 1.27055
vt 1.27997 1.31803
vt 1.12220 1.24248
vt 1.19864 1.28464
vt 1.20806 1.20691
vt 1.17410 1.00000
vt 1.27997 1.05489
vt 1.22864 1.02890
vt 1.22864 0.97110
vt 1.27997 0.94511
vt 1.50000 1.14299
vt 1.44560 1.12540
vt 1.44852 1.02730
vt 1.44751 1.07436
vt 1.50000 1.04588
vt 1.39136 1.10474
vt 1.34002 1.08300
vt 1.44560 0.87460
vt 1.50000 0.85701
vt 1.34002 0.91700
vt 1.39136 0.89526
vt 1.50000 0.95412
vt 1.44751 0.92564
vt 1.44852 0.97270
vt 1.33856 1.02805
vt 1.39568 1.00000
vt 1.33856 0.97195
vt 0.95486 0.37165
vt 1.27997 0.47816
vt 1.14581 0.41141
vt 1.05754 0.26468
vt 1.27997 0.17982
vt 1.50000 0.69865
vt 1.61338 0.56463
vt 1.55000 0.63378
vt 1.45000 0.63378
vt 1.38662 0.56463
vt 2.04514 0.37165
vt 1.72003 0.17982
vt 1.94246 0.26468
vt 1.85419 0.41141
vt 1.72003 0.47816
vt 1.42169 0.45069
vt 1.57831 0.45069
vt 1.50000 0.31188
vt 0.40087 0.91829
vt 0.44409 0.80303
vt 0.42206 0.86188
vt 0.34226 0.88745
vt 0.28623 0.85912
vt 0.54250 0.56581
vt 0.31586 0.62785
vt 0.41786 0.58960
vt 0.50295 0.65210
vt 0.47332 0.72594
vt 0.10153 0.77713
vt 0.22003 0.82734
vt 0.16285 0.80181
vt 0.15588 0.72945
vt 0.22003 0.68197
vt 0.37780 0.75752
vt 0.30136 0.71536
vt 0.29194 0.79309
vt 0.54250 1.43419
vt 0.47332 1.27406
vt 0.50295 1.34790
vt 0.41786 1.41040
vt 0.31586 1.37215
vt 0.40087 1.08171
vt 0.28623 1.14088
vt 0.34226 1.11255
vt 0.42206 1.13812
vt 0.44409 1.19697
vt 0.10153 1.22287
vt 0.22003 1.31803
vt 0.15588 1.27055
vt 0.16285 1.19819
vt 0.22003 1.17266
vt 0.37780 1.24248
vt 0.29194 1.20691
vt 0.30136 1.28464
vt 1.50000 1.30135
vt 1.38662 1.43537
vt 1.45000 1.36622
vt 1.55000 1.36622
vt 1.61338 1.43537
vt 0.95486 1.62835
vt 1.27997 1.82018
vt 1.05754 1.73532
vt 1.14581 1.58859
vt 1.27997 1.52184
vt 2.04514 1.62835
vt 1.72003 1.52184
vt 1.85419 1.58859
vt 1.94246 1.73532
vt 1.72003 1.82018
vt 1.42169 1.54931
vt 1.50000 1.68812
vt 1.57831 1.54931
vt 1.55440 0.87460
vt 1.55148 0.97270
vt 1.55249 0.92564
vt 1.60864 0.89526
vt 1.65998 0.91700
vt 1.55440 1.12540
vt 1.65998 1.08300
vt 1.60864 1.10474
vt 1.55249 1.07436
vt 1.55148 1.02730
vt 1.82590 1.00000
vt 1.72003 0.94511
vt 1.77136 0.97110
vt 1.77136 1.02890
vt 1.72003 1.05489
vt 1.60432 1.00000
vt 1.66144 1.02805
vt 1.66144 0.97195
vn -0.30836 0.80332 -0.50950
vn 0.66056 0.73238 -0.16513
vn -0.17058 -0.94898 -0.26522
vn 0.57368 -0.72386 -0.38330
vn 0.05482 -0.37282 0.92628
vn 0.22799 0.53638 0.81259
vn 0.01879 -0.28408 -0.95862
vn 0.11354 0.07519 -0.99068
vn 0.46902 0.19574 -0.86122
vn 0.47051 -0.00533 0.88238
vn -0.54099 0.05718 -0.83908
vn -0.80190 0.07713 0.59246
vn -0.58448 0.51164 0.62977
vn -0.18401 0.29058 0.93899
vn -0.12826 0.80300 0.58202
vn 0.23499 0.46315 0.85456
vn -0.13657 0.98307 -0.12214
vn 0.24403 0.57967 -0.77745
vn -0.02872 0.91362 -0.40555
vn -0.25212 0.20746 -0.94520
vn -0.63421 0.56976 -0.52263
vn -0.84434 -0.51639 -0.14293
vn 0.23179 0.36709 0.90084
vn 0.50082 0.53304 0.68195
vn -0.19524 -0.26585 0.94404
vn 0.20266 0.10998 0.97305
vn -0.44470 -0.41370 -0.79441
vn -0.75310 -0.20711 0.62446
vn 0.03054 -0.18949 -0.98141
vn -0.31574 -0.15619 -0.93590
vn 0.58877 0.27012 -0.76183
vn 0.27584 0.02237 -0.96094
vn 0.77991 -0.45846 0.42609
vn 0.09706 -0.37954 0.92007
vn 0.03928 -0.48931 0.87123
vn -0.01226 -0.58855 0.80837
vn -0.26098 -0.90969 -0.32304
vn -0.25754 -0.61557 -0.74482
vn 0.19626 -0.48489 -0.85227
vn 0.05033 -0.21753 -0.97476
vn 0.63889 -0.68138 -0.35713
vn 0.84140 0.33763 -0.42196
vn -0.30225 0.95258 -0.03529
vn -0.38220 0.61573 0.68906
vn -0.32369 0.94480 0.05083
vn -0.47010 -0.01185 0.88254
vn -0.28438 0.41026 0.86650
vn -0.75111 -0.18927 0.63246
vn 0.15306 0.54832 0.82214
vn -0.29355 0.29887 0.90802
vn -0.15698 0.21796 0.96325
vn -0.16311 0.95653 0.24177
vn -0.29388 0.87704 -0.38005
vn 0.13457 0.36432 0.92150
vn 0.07572 0.45465 0.88745
vn 0.10107 0.94506 -0.31087
vn 0.05461 0.88680 0.45891
vn 0.44598 0.58292 0.67919
vn -0.25548 0.81812 -0.51518
vn -0.39819 0.91226 -0.09602
vn 0.32195 0.68591 -0.65259
vn 0.08268 0.76238 -0.64182
vn 0.07033 0.57630 -0.81421
vn -0.07326 0.67516 -0.73403
vn 0.13220 0.45012 -0.88313
vn -0.35403 0.83315 -0.42489
vn -0.15266 0.92372 -0.35132
vn 0.02318 0.17521 -0.98426
vn -0.32944 0.27574 -0.90302
vn -0.56672 -0.13995 -0.81194
vn -0.26439 0.30504 -0.91491
vn -0.53194 -0.16507 -0.83054
vn -0.86093 0.44662 -0.24359
vn -0.82134 -0.09948 -0.56170
vn -0.86691 0.13720 -0.47920
vn -0.94787 0.02170 0.31792
vn -0.80825 -0.15597 0.56781
vn 0.57476 0.46372 0.67425
vn 0.63272 0.62928 0.45131
vn 0.25124 0.50929 0.82310
vn 0.18222 0.34026 0.92251
vn 0.62834 0.66055 0.41093
vn 0.37528 0.61060 0.69738
vn 0.23637 0.16158 0.95813
vn -0.05326 0.29703 0.95338
vn 0.04245 0.09193 0.99486
vn -0.47973 0.07847 0.87390
vn -0.41095 0.09969 0.90619
vn 0.12511 -0.41590 0.90076
vn -0.05008 -0.26497 0.96296
vn 0.06293 -0.36236 0.92991
vn -0.99763 0.06652 0.01778
vn -0.91545 -0.02454 0.40168
vn -0.55058 -0.07043 -0.83180
vn -0.95073 0.30185 -0.07076
vn -0.44109 -0.86928 0.22313
vn -0.94901 -0.31250 -0.04162
vn -0.35162 -0.67374 -0.64995
vn -0.26980 -0.16446 -0.94877
vn -0.30479 -0.10268 -0.94687
vn 0.13015 0.30004 -0.94501
vn -0.07004 -0.06291 -0.99556
vn -0.08314 -0.26332 -0.96112
vn 0.00727 -0.03115 -0.99949
vn 0.10538 -0.05396 -0.99297
vn 0.40168 0.35165 -0.84557
vn 0.06663 0.09400 -0.99334
vn 0.69697 0.58178 -0.41925
vn 0.41460 0.28748 -0.86340
vn 0.32984 0.13755 -0.93396
vn 0.49200 0.44542 -0.74802
vn 0.59814 0.42460 -0.67966
vn 0.66017 -0.74220 -0.11541
vn 0.41091 -0.37685 0.83014
vn 0.43247 -0.84359 0.31833
vn 0.36035 -0.05818 0.93100
vn 0.19620 -0.38444 0.90206
vn 0.55577 -0.31237 0.77042
vn 0.01949 -0.23784 0.97111
vn 0.16324 -0.07318 0.98387
vn 0.16618 -0.38742 0.90680
vn -0.08167 -0.89327 0.44204
vn 0.12181 -0.96703 -0.22365
vn 0.08945 -0.37866 0.92120
vn 0.00206 -0.46306 0.88632
vn -0.14878 -0.85414 -0.49831
vn -0.09876 -0.96192 0.25486
vn -0.32827 -0.94437 0.01991
vn -0.05566 -0.74598 -0.66364
vn 0.42073 -0.60751 -0.67373
vn -0.13773 -0.87327 -0.46737
vn -0.21592 -0.94948 -0.22775
vn 0.07636 -0.41615 -0.90609
vn 0.03624 -0.63268 -0.77356
vn -0.08898 -0.28545 -0.95426
vn 0.38901 -0.39967 -0.83002
vn 0.61645 -0.53602 -0.57678
vn 0.11695 -0.06004 -0.99132
vn 0.33382 -0.38894 -0.85866
vn 0.67204 -0.04164 -0.73935
vn 0.23784 -0.47804 -0.84552
vn 0.48947 0.15492 -0.85815
vn 0.75722 -0.44763 -0.47564
vn 0.64612 0.22953 -0.72790
vn 0.71007 -0.42685 -0.56000
vn 0.81188 -0.58069 0.06042
vn 0.91178 0.29023 0.29056
vn 0.20304 -0.06893 0.97674
vn 0.12760 0.00647 0.99180
vn 0.14116 -0.02641 0.98963
vn -0.41977 -0.60324 0.67816
vn -0.09225 -0.31409 0.94490
vn -0.45713 -0.42432 0.78166
vn -0.10369 -0.36005 -0.92715
vn -0.34426 -0.66781 -0.65994
vn -0.38238 -0.14923 -0.91187
vn 0.14903 0.22665 -0.96251
vn 0.09204 -0.15429 -0.98373
vn 0.26535 0.12319 -0.95625
vn 0.86030 0.48355 0.16142
vn 0.63481 0.37412 -0.67605
vn 0.75455 0.56066 -0.34104
vn -0.15295 0.89384 -0.42150
vn -0.27096 0.96186 -0.03762
vn -0.32304 0.87419 -0.36253
vn -0.32615 0.54148 0.77487
vn -0.31706 0.82443 0.46881
vn -0.52456 0.76326 0.37720
vn -0.24366 0.90373 0.35200
vn -0.31803 0.87849 0.35654
vn -0.34092 0.76614 0.54480
vn -0.69651 -0.09107 0.71174
vn -0.62923 -0.08249 0.77283
vn -0.77693 -0.21490 0.59177
vn -0.23262 0.33077 0.91459
vn -0.37093 0.22490 0.90102
vn -0.24359 0.19142 0.95080
vn -0.66655 0.12944 0.73414
vn -0.50041 0.18689 0.84538
vn -0.34838 0.44227 0.82646
vn 0.18328 0.51598 0.83676
vn -0.01351 0.36655 0.93030
vn -0.00038 0.36211 0.93214
vn -0.20099 0.57317 0.79440
vn -0.05099 0.42902 0.90185
vn 0.06404 0.57631 0.81472
vn -0.21440 0.23724 0.94750
vn -0.17868 0.20211 0.96293
vn -0.24184 0.20579 0.94824
vn -0.34282 0.44231 0.82876
vn -0.33614 0.33059 0.88188
vn -0.40613 0.44983 0.79543
vn -0.39885 0.90460 -0.15039
vn -0.46027 0.76853 -0.44443
vn -0.21417 0.82879 0.51696
vn -0.32505 0.91544 0.23732
vn -0.09823 0.96125 -0.25760
vn -0.21600 0.96174 -0.16850
vn -0.08216 0.97379 -0.21207
vn 0.25574 0.49804 0.82858
vn 0.19571 0.50411 0.84117
vn 0.13419 0.43519 0.89028
vn 0.09023 0.34029 0.93598
vn 0.10116 0.35097 0.93090
vn 0.12127 0.42759 0.89580
vn -0.02358 0.60876 0.79300
vn 0.40630 0.84464 -0.34857
vn 0.34037 0.90629 0.25058
vn 0.65646 0.69842 0.28507
vn -0.10467 0.98726 -0.11984
vn -0.00555 0.99614 0.08757
vn -0.09549 0.98670 -0.13156
vn 0.32323 0.51451 0.79423
vn 0.23268 0.72406 0.64930
vn 0.18828 0.58682 0.78752
vn -0.05756 0.77332 0.63140
vn 0.07499 0.69834 0.71182
vn -0.03170 0.96682 0.25347
vn -0.40711 0.76466 -0.49956
vn -0.39776 0.81648 -0.41850
vn -0.22920 0.93519 -0.26999
vn -0.26196 0.84349 -0.46894
vn -0.24763 0.95888 -0.13864
vn -0.31476 0.87895 -0.35828
vn -0.12579 0.84995 -0.51162
vn 0.45116 0.70772 -0.54368
vn 0.27571 0.77593 -0.56737
vn 0.15311 0.66622 -0.72987
vn 0.24122 0.72090 -0.64971
vn 0.28249 0.61124 -0.73931
vn 0.11291 0.89469 -0.43218
vn -0.09036 0.97225 -0.21581
vn 0.10112 0.21765 -0.97077
vn 0.05823 0.56278 -0.82455
vn 0.07863 0.16040 -0.98392
vn 0.00719 0.79680 -0.60420
vn 0.04650 0.83332 -0.55083
vn 0.04625 0.83884 -0.54241
vn 0.19246 0.61506 -0.76463
vn 0.01039 0.72067 -0.69320
vn 0.04634 0.63839 -0.76832
vn -0.15101 0.79948 -0.58141
vn -0.02342 0.63980 -0.76818
vn -0.14417 0.67403 -0.72450
vn -0.22288 0.96434 -0.14275
vn -0.11645 0.89245 -0.43585
vn -0.32115 0.90155 -0.28995
vn -0.34034 0.94006 0.02151
vn -0.38115 0.85881 -0.34229
vn -0.19946 0.95919 -0.20041
vn -0.30949 0.75550 -0.57743
vn 0.15511 0.14593 -0.97706
vn 0.03188 0.25055 -0.96758
vn -0.33459 0.29057 -0.89645
vn -0.19572 0.23784 -0.95138
vn -0.17921 0.19245 -0.96480
vn -0.10918 0.44722 -0.88773
vn -0.18948 0.68822 -0.70032
vn -0.57153 -0.08145 -0.81653
vn -0.62300 -0.13738 -0.77007
vn -0.54929 -0.10528 -0.82897
vn -0.38517 0.33247 -0.86087
vn -0.50016 -0.00036 -0.86593
vn -0.63853 0.04732 -0.76814
vn -0.30426 0.10085 -0.94723
vn -0.44106 0.14601 -0.88552
vn -0.27644 0.35007 -0.89500
vn -0.41946 0.48404 -0.76796
vn -0.32302 0.27092 -0.90679
vn -0.26589 0.44984 -0.85261
vn -0.20242 0.89767 -0.39142
vn -0.79446 0.56491 -0.22294
vn -0.46603 0.80348 -0.37046
vn -0.58937 0.77861 -0.21542
vn -0.84850 0.52099 -0.09285
vn -0.66643 0.10262 -0.73847
vn -0.61653 -0.15271 -0.77238
vn -0.89516 -0.34720 -0.27952
vn -0.69439 -0.25983 -0.67105
vn -0.85209 -0.41928 -0.31329
vn -0.63219 -0.10354 -0.76786
vn -0.86917 0.30127 -0.39216
vn -0.73326 -0.23807 0.63691
vn -0.83181 0.08284 0.54885
vn -0.94461 0.22763 0.23643
vn -0.74923 -0.18886 0.63481
vn -0.87337 -0.44835 0.19027
vn -0.76076 -0.23263 0.60591
vn -0.94345 -0.30856 0.12118
vn -0.87860 0.45659 -0.13995
vn -0.96607 0.23638 -0.10411
vn -0.87934 0.40261 -0.25430
vn 0.65040 0.50671 0.56588
vn 0.77900 0.60258 0.17336
vn 0.34771 0.49249 0.79784
vn 0.52432 0.48332 0.70107
vn 0.50054 0.55097 0.66775
vn 0.60355 0.48161 0.63543
vn 0.54177 0.50113 0.67480
vn 0.27568 0.54544 0.79151
vn 0.19229 0.46223 0.86566
vn 0.19543 0.38585 0.90162
vn 0.14154 0.40378 0.90384
vn 0.21268 0.43888 0.87301
vn 0.09742 0.30938 0.94594
vn 0.20099 0.41020 0.88957
vn 0.59628 0.23281 0.76828
vn 0.44341 0.38760 0.80818
vn 0.39371 0.02365 0.91893
vn 0.51075 0.69110 0.51139
vn 0.44551 0.70505 0.55176
vn 0.55178 0.71801 0.42427
vn 0.21553 0.28790 0.93309
vn 0.26109 0.44225 0.85805
vn 0.23207 0.39678 0.88809
vn 0.39580 0.41593 0.81875
vn 0.31504 0.44461 0.83849
vn 0.52466 0.53753 0.66015
vn -0.06492 0.15375 0.98597
vn 0.11834 0.31433 0.94191
vn -0.21914 0.34593 0.91231
vn -0.11580 0.27700 0.95387
vn 0.11240 0.10859 0.98771
vn 0.03392 0.19727 0.97976
vn 0.10822 0.20179 0.97343
vn -0.63054 0.15657 0.76020
vn -0.48763 0.00254 0.87305
vn -0.36001 -0.03585 0.93226
vn -0.42743 0.06789 0.90150
vn -0.39813 -0.03615 0.91662
vn -0.36480 0.01816 0.93091
vn -0.28785 0.20721 0.93499
vn 0.02646 -0.48156 0.87601
vn 0.03981 -0.51178 0.85819
vn 0.06872 -0.35913 0.93075
vn 0.07847 -0.03230 0.99639
vn 0.02645 -0.39480 0.91839
vn 0.21879 -0.13088 0.96695
vn 0.00763 -0.38491 0.92292
vn 0.01396 -0.46387 0.88579
vn -0.10948 -0.29775 0.94835
vn -0.27602 0.22736 0.93387
vn -0.26045 -0.04812 0.96429
vn -0.05749 0.07524 0.99551
vn -0.95631 0.17797 0.23196
vn -0.76251 0.29218 0.57724
vn -0.96608 -0.23877 -0.09840
vn -0.98853 -0.12890 -0.07872
vn -0.90443 -0.31951 0.28270
vn -0.99031 -0.09212 -0.10389
vn -0.97517 0.01718 0.22077
vn -0.49626 0.10470 -0.86184
vn -0.83881 0.12678 -0.52946
vn -0.75413 -0.13267 -0.64318
vn -0.87485 0.06814 -0.47957
vn -0.51800 -0.25623 -0.81610
vn -0.99673 0.04307 -0.06833
vn -0.99537 -0.08400 0.04667
vn -0.26192 -0.95886 -0.10946
vn -0.40879 -0.83734 -0.36297
vn -0.27500 -0.87123 -0.40661
vn -0.90817 -0.10298 0.40574
vn -0.72996 -0.68307 0.02386
vn -0.63376 -0.51571 0.57654
vn -0.39591 -0.55150 -0.73424
vn -0.53675 -0.64693 -0.54164
vn -0.63377 -0.44223 -0.63464
vn -0.94012 0.27802 0.19717
vn -0.99792 0.05996 0.02380
vn -0.92439 0.14774 0.35168
vn -0.43147 -0.24003 -0.86961
vn -0.37005 -0.02249 -0.92874
vn -0.20801 -0.04303 -0.97718
vn -0.36047 -0.19763 -0.91159
vn -0.38056 -0.07431 -0.92176
vn -0.40906 -0.23538 -0.88163
vn -0.37892 -0.14259 -0.91438
vn 0.16929 0.22118 -0.96043
vn 0.13133 0.23072 -0.96412
vn -0.04146 -0.11338 -0.99269
vn 0.00510 0.08371 -0.99648
vn 0.06549 0.00889 -0.99781
vn -0.01881 0.06755 -0.99754
vn -0.09852 0.00060 -0.99514
vn -0.01896 -0.30464 -0.95228
vn 0.01901 -0.14121 -0.98980
vn 0.07210 -0.13663 -0.98799
vn -0.20660 -0.17678 -0.96232
vn -0.04642 -0.20551 -0.97755
vn -0.16640 -0.23523 -0.95759
vn 0.05546 -0.10108 -0.99333
vn 0.07690 -0.05071 -0.99575
vn 0.04416 -0.09487 -0.99451
vn -0.08426 -0.05015 -0.99518
vn -0.02795 -0.02997 -0.99916
vn -0.15987 -0.04287 -0.98621
vn 0.11162 0.15011 -0.98235
vn 0.06243 0.06618 -0.99585
vn 0.38489 0.47328 -0.79238
vn 0.26013 0.35498 -0.89795
vn 0.21150 0.05782 -0.97567
vn 0.21836 0.18236 -0.95868
vn 0.31095 0.16777 -0.93550
vn 0.69606 0.68256 -0.22273
vn 0.48086 0.69095 -0.53978
vn 0.52674 0.24640 -0.81353
vn 0.51409 0.32179 -0.79508
vn 0.63484 0.22817 -0.73818
vn 0.36079 0.49976 -0.78744
vn 0.39015 0.42888 -0.81477
vn 0.49011 0.14528 -0.85947
vn 0.51196 0.14589 -0.84653
vn 0.49975 0.16026 -0.85122
vn 0.31852 0.15269 -0.93554
vn 0.35957 0.15996 -0.91930
vn 0.22899 0.09184 -0.96909
vn 0.61133 0.48902 -0.62221
vn 0.64308 0.47451 -0.60107
vn 0.63013 0.43903 -0.64046
vn 0.47408 0.40999 -0.77920
vn 0.54255 0.43452 -0.71891
vn 0.42818 0.39215 -0.81418
vn 0.62348 -0.74872 -0.22516
vn 0.59375 -0.79126 0.14618
vn 0.58372 -0.81195 0.00201
vn 0.51954 -0.43508 0.73538
vn 0.58366 -0.70000 0.41152
vn 0.80319 -0.56058 0.20160
vn 0.22570 -0.69468 0.68299
vn 0.49355 -0.69288 0.52566
vn 0.27622 -0.43058 0.85924
vn 0.39474 -0.04529 0.91768
vn 0.48599 -0.12889 0.86441
vn 0.47342 -0.11998 0.87262
vn 0.08122 -0.43760 0.89549
vn 0.27240 -0.32490 0.90567
vn 0.15469 -0.25942 0.95330
vn 0.67134 -0.41302 0.61540
vn 0.46065 -0.34324 0.81853
vn 0.43918 -0.36322 0.82170
vn 0.05870 -0.31938 0.94581
vn 0.10216 -0.30643 0.94639
vn 0.08286 -0.42726 0.90032
vn 0.12332 -0.16787 0.97807
vn 0.08636 -0.14215 0.98607
vn -0.04451 -0.29444 0.95463
vn 0.21298 -0.36717 0.90544
vn 0.22287 -0.30635 0.92546
vn 0.16247 -0.38935 0.90665
vn 0.26476 -0.24173 0.93352
vn 0.12420 -0.21611 0.96844
vn 0.23694 -0.12917 0.96290
vn 0.30972 -0.94162 0.13197
vn 0.47958 -0.82836 -0.28953
vn -0.02745 -0.68933 0.72392
vn 0.12424 -0.88664 0.44546
vn -0.20709 -0.96230 -0.17635
vn -0.02368 -0.97882 0.20336
vn -0.15466 -0.98786 0.01457
vn 0.09867 -0.29778 0.94952
vn 0.06653 -0.33694 0.93917
vn 0.01655 -0.49905 0.86641
vn 0.04907 -0.43855 0.89737
vn 0.08366 -0.50425 0.85950
vn -0.03086 -0.37491 0.92655
vn -0.07941 -0.47291 0.87753
vn -0.09072 -0.93204 -0.35081
vn -0.19198 -0.89503 -0.40257
vn -0.23748 -0.94837 -0.21022
vn -0.12243 -0.95913 -0.25511
vn -0.18930 -0.89300 -0.40830
vn -0.20619 -0.83656 -0.50759
vn -0.20258 -0.78119 0.59051
vn -0.16553 -0.98258 0.08442
vn -0.03525 -0.73548 0.67663
vn -0.03900 -0.66757 0.74352
vn -0.01322 -0.68440 0.72899
vn -0.03401 -0.92490 0.37869
vn 0.34364 -0.77252 -0.53397
vn 0.52156 -0.66311 -0.53690
vn -0.26935 -0.91447 -0.30199
vn 0.01377 -0.90206 -0.43140
vn 0.24480 -0.50983 -0.82471
vn 0.20042 -0.64815 -0.73466
vn 0.11457 -0.55124 -0.82644
vn -0.12273 -0.91814 -0.37677
vn -0.07619 -0.93751 -0.33952
vn -0.19051 -0.90614 -0.37765
vn -0.18110 -0.96000 -0.21356
vn -0.26713 -0.82055 -0.50531
vn -0.18808 -0.93351 -0.30528
vn -0.30277 -0.90875 -0.28723
vn -0.01750 -0.26340 -0.96453
vn -0.02069 -0.33204 -0.94304
vn -0.04994 -0.30660 -0.95053
vn 0.14297 -0.54300 -0.82747
vn 0.09676 -0.44006 -0.89274
vn 0.17007 -0.48264 -0.85915
vn -0.14454 -0.37715 -0.91480
vn -0.02972 -0.36903 -0.92894
vn -0.14525 -0.67345 -0.72482
vn -0.25171 -0.85569 -0.45214
vn -0.12110 -0.89818 -0.42261
vn -0.00571 -0.72186 -0.69201
vn 0.54313 -0.59519 -0.59225
vn 0.60498 -0.62632 -0.49166
vn 0.31615 -0.38757 -0.86594
vn 0.41368 -0.48117 -0.77288
vn 0.62896 -0.54356 -0.55584
vn 0.54343 -0.46737 -0.69732
vn 0.44201 -0.60741 -0.66007
vn 0.05841 -0.14672 -0.98745
vn 0.09432 -0.22006 -0.97092
vn 0.18731 -0.35719 -0.91506
vn 0.18893 -0.19663 -0.96210
vn 0.04660 -0.14901 -0.98774
vn 0.23887 -0.40257 -0.88367
vn 0.28851 -0.40323 -0.86843
vn 0.50733 0.19155 -0.84019
vn 0.54542 0.09484 -0.83278
vn 0.54528 0.28353 -0.78885
vn 0.40530 -0.60584 -0.68461
vn 0.49460 -0.26936 -0.82633
vn 0.73366 -0.44710 -0.51171
vn 0.22021 -0.12603 -0.96728
vn 0.38504 -0.24569 -0.88959
vn 0.21667 -0.44641 -0.86820
vn 0.32313 -0.37932 -0.86701
vn 0.24686 -0.48054 -0.84151
vn 0.27209 -0.52116 -0.80892
vn 0.64582 -0.59449 -0.47906
vn 0.72428 -0.53165 -0.43905
vn 0.66184 -0.49827 -0.56009
vn 0.74921 -0.54344 -0.37862
vn 0.85895 -0.49518 -0.13037
vn 0.46875 0.17425 -0.86597
vn 0.61690 0.03010 -0.78647
vn 0.80234 -0.03978 -0.59554
vn 0.74104 -0.07556 -0.66720
vn 0.78820 0.27359 -0.55126
vn 0.75052 -0.26160 -0.60686
vn 0.75908 -0.58237 -0.29095
vn 0.67959 -0.16598 0.71457
vn 0.64627 0.10513 0.75583
vn 0.80348 -0.57648 0.14864
vn 0.72888 -0.48552 0.48271
vn 0.90643 0.39228 -0.15651
vn 0.95588 -0.16751 0.24132
vn 0.94829 -0.06474 -0.31072
vn 0.65972 -0.59826 -0.45482
vn 0.73320 -0.52914 -0.42712
vn 0.74250 -0.61382 -0.26817
vn 0.14419 -0.37283 0.91663
vn 0.10105 -0.14133 0.98479
vn 0.20655 -0.17933 0.96186
vn 0.27081 -0.14036 0.95234
vn 0.30123 -0.03167 0.95303
vn 0.34191 0.03265 0.93917
vn 0.24179 0.16222 0.95667
vn 0.24085 0.13771 0.96074
vn 0.23781 -0.01213 0.97123
vn 0.07018 -0.15087 0.98606
vn 0.19324 0.30855 0.93137
vn 0.15455 -0.03892 0.98722
vn 0.08244 0.08508 0.99296
vn 0.21844 0.35490 0.90903
vn 0.24547 0.26195 0.93334
vn 0.05897 -0.10949 0.99224
vn 0.15688 -0.06874 0.98522
vn 0.15569 -0.15714 0.97523
vn -0.32924 -0.93050 0.16055
vn -0.24654 -0.67846 0.69204
vn -0.37609 -0.79094 0.48267
vn -0.42305 -0.73112 0.53525
vn -0.50654 -0.41041 0.75828
vn 0.08132 -0.28727 0.95439
vn -0.11096 -0.35212 0.92935
vn 0.02428 -0.30300 0.95268
vn 0.04922 -0.34555 0.93711
vn -0.03827 -0.51407 0.85689
vn -0.59257 0.09167 0.80029
vn -0.60081 -0.44959 0.66098
vn -0.66007 -0.31348 0.68267
vn -0.44403 -0.10630 0.88969
vn -0.31987 -0.30066 0.89849
vn -0.30580 -0.48211 0.82101
vn -0.28940 -0.35805 0.88772
vn -0.51640 -0.43633 0.73685
vn -0.06793 -0.37407 -0.92491
vn -0.15018 -0.48688 -0.86046
vn -0.07010 -0.34557 -0.93577
vn -0.08502 -0.31324 -0.94586
vn -0.19937 -0.17165 -0.96477
vn -0.25900 -0.73284 -0.62917
vn -0.41627 -0.51593 -0.74869
vn -0.33168 -0.62055 -0.71057
vn -0.28518 -0.70595 -0.64832
vn -0.24436 -0.65390 -0.71603
vn -0.30767 -0.05728 -0.94977
vn -0.30581 -0.04768 -0.95090
vn -0.30551 -0.03093 -0.95169
vn -0.35085 -0.15908 -0.92282
vn -0.43483 -0.34971 -0.82983
vn -0.23900 -0.53661 -0.80927
vn -0.42174 -0.42700 -0.79988
vn -0.26786 -0.23721 -0.93380
vn 0.41663 0.29845 -0.85869
vn 0.06160 0.04083 -0.99727
vn 0.24055 0.24365 -0.93956
vn 0.24076 0.27244 -0.93156
vn 0.24481 0.15813 -0.95659
vn 0.12225 -0.05433 -0.99101
vn 0.06764 -0.19145 -0.97917
vn 0.09157 -0.10906 -0.98981
vn 0.08204 -0.09984 -0.99162
vn 0.00703 -0.09350 -0.99559
vn 0.11271 0.28064 -0.95317
vn 0.27353 0.08595 -0.95802
vn 0.15980 0.19638 -0.96742
vn 0.16304 0.25038 -0.95432
vn 0.11011 -0.04916 -0.99270
vn 0.10940 0.01213 -0.99392
vn 0.18970 -0.06414 -0.97974
vn 0.26232 0.13140 -0.95599
vn 0.78618 0.50194 0.36051
vn 0.85647 0.46258 -0.22910
vn 0.82028 0.57149 -0.02346
vn 0.72862 0.66343 0.17021
vn 0.67282 0.51035 0.53560
vn 0.57007 0.33185 -0.75159
vn 0.50875 0.37206 -0.77636
vn 0.55236 0.49115 -0.67356
vn 0.68044 0.39431 -0.61768
vn 0.79428 0.38644 -0.46881
vn 0.68653 0.72277 0.07927
vn 0.67286 0.57726 0.46264
vn 0.66426 0.72477 0.18295
vn 0.73853 0.50180 -0.45031
vn 0.59081 0.33488 -0.73403
vn 0.87832 0.37134 -0.30112
vn 0.63717 0.41582 -0.64893
vn 0.86453 0.50061 0.04436
f 1/1/1 163/163/163 165/165/165
f 43/43/43 164/164/164 163/163/163
f 45/45/45 165/165/165 164/164/164
f 163/163/163 164/164/164 165/165/165
f 13/13/13 166/166/166 168/168/168
f 44/44/44 167/167/167 166/166/166
f 43/43/43 168/168/168 167/167/167
f 166/166/166 167/167/167 168/168/168
f 15/15/15 169/169/169 171/171/171
f 45/45/45 170/170/170 169/169/169
f 44/44/44 171/171/171 170/170/170
f 169/169/169 170/170/170 171/171/171
f 43/43/43 167/167/167 164/164/164
f 44/44/44 170/170/170 167/167/167
f 45/45/45 164/164/164 170/170/170
f 167/167/167 170/170/170 164/164/164
f 12/12/12 172/172/172 174/174/174
f 46/46/46 173/173/173 172/172/172
f 48/48/48 174/174/174 173/173/173
f 172/172/172 173/173/173 174/174/174
f 14/14/14 175/175/175 177/177/177
f 47/47/47 176/176/176 175/175/175
f 46/46/46 177/177/177 176/176/176
f 175/175/175 176/176/176 177/177/177
f 13/13/13 178/178/178 180/180/180
f 48/48/48 179/179/179 178/178/178
f 47/47/47 180/180/180 179/179/179
f 178/178/178 179/179/179 180/180/180
f 46/46/46 176/176/176 173/173/173
f 47/47/47 179/179/179 176/176/176
f 48/48/48 173/173/173 179/179/179
f 176/176/176 179/179/179 173/173/173
f 6/6/6 181/181/181 183/183/183
f 49/49/49 182/182/182 181/181/181
f 51/51/51 183/183/183 182/182/182
f 181/181/181 182/182/182 183/183/183
f 15/15/15 184/184/184 186/186/186
f 50/50/50 185/185/185 184/184/184
f 49/49/49 186/186/186 185/185/185
f 184/184/184 185/185/185 186/186/186
f 14/14/14 187/187/187 189/189/189
f 51/51/51 188/188/188 187/187/187
f 50/50/50 189/189/189 188/188/188
f 187/187/187 188/188/188 189/189/189
f 49/49/49 185/185/185 182/182/182
f 50/50/50 188/188/188 185/185/185
f 51/51/51 182/182/182 188/188/188
f 185/185/185 188/188/188 182/182/182
f 13/13/13 180/180/180 166/166/166
f 47/47/47 190/190/190 180/180/180
f 44/44/44 166/166/166 190/190/190
f 180/180/180 190/190/190 166/166/166
f 14/14/14 189/189/189 175/175/175
f 50/50/50 191/191/191 189/189/189
f 47/47/47 175/175/175 191/191/191
f 189/189/189 191/191/191 175/175/175
f 15/15/15 171/171/171 184/184/184
f 44/44/44 192/192/192 171/171/171
f 50/50/50 184/184/184 192/192/192
f 171/171/171 192/192/192 184/184/184
f 47/47/47 191/191/191 190/190/190
f 50/50/50 192/192/192 191/191/191
f 44/44/44 190/190/190 192/192/192
f 191/191/191 192/192/192 190/190/190
f 1/1/1 165/165/165 194/194/194
f 45/45/45 193/193/193 165/165/165
f 53/53/53 194/194/194 193/193/193
f 165/165/165 193/193/193 194/194/194
f 15/15/15 195/195/195 169/169/169
f 52/52/52 196/196/196 195/195/195
f 45/45/45 169/169/169 196/196/196
f 195/195/195 196/196/196 169/169/169
f 17/17/17 197/197/197 199/199/199
f 53/53/53 198/198/198 197/197/197
f 52/52/52 199/199/199 198/198/198
f 197/197/197 198/198/198 199/199/199
f 45/45/45 196/196/196 193/193/193
f 52/52/52 198/198/198 196/196/196
f 53/53/53 193/193/193 198/198/198
f 196/196/196 198/198/198 193/193/193
f 6/6/6 200/200/200 181/181/181
f 54/54/54 201/201/201 200/200/200
f 49/49/49 181/181/181 201/201/201
f 200/200/200 201/201/201 181/181/181
f 16/16/16 202/202/202 204/204/204
f 55/55/55 203/203/203 202/202/202
f 54/54/54 204/204/204 203/203/203
f 202/202/202 203/203/203 204/204/204
f 15/15/15 186/186/186 206/206/206
f 49/49/49 205/205/205 186/186/186
f 55/55/55 206/206/206 205/205/205
f 186/186/186 205/205/205 206/206/206
f 54/54/54 203/203/203 201/201/201
f 55/55/55 205/205/205 203/203/203
f 49/49/49 201/201/201 205/205/205
f 203/203/203 205/205/205 201/201/201
f 2/2/2 207/207/207 209/209/209
f 56/56/56 208/208/208 207/207/207
f 58/58/58 209/209/209 208/208/208
f 207/207/207 208/208/208 209/209/209
f 17/17/17 210/210/210 212/212/212
f 57/57/57 211/211/211 210/210/210
f 56/56/56 212/212/212 211/211/211
f 210/210/210 211/211/211 212/212/212
f 16/16/16 213/213/213 215/215/215
f 58/58/58 214/214/214 213/213/213
f 57/57/57 215/215/215 214/214/214
f 213/213/213 214/214/214 215/215/215
f 56/56/56 211/211/211 208/208/208
f 57/57/57 214/214/214 211/211/211
f 58/58/58 208/208/208 214/214/214
f 211/211/211 214/214/214 208/208/208
f 15/15/15 206/206/206 195/195/195
f 55/55/55 216/216/216 206/206/206
f 52/52/52 195/195/195 216/216/216
f 206/206/206 216/216/216 195/195/195
f 16/16/16 215/215/215 202/202/202
f 57/57/57 217/217/217 215/215/215
f 55/55/55 202/202/202 217/217/217
f 215/215/215 217/217/217 202/202/202
f 17/17/17 199/199/199 210/210/210
f 52/52/52 218/218/218 199/199/199
f 57/57/57 210/210/210 218/218/218
f 199/199/199 218/218/218 210/210/210
f 55/55/55 217/217/217 216/216/216
f 57/57/57 218/218/218 217/217/217
f 52/52/52 216/216/216 218/218/218
f 217/217/217 218/218/218 216/216/216
f 1/1/1 194/194/194 220/220/220
f 53/53/53 219/219/219 194/194/194
f 60/60/60 220/220/220 219/219/219
f 194/194/194 219/219/219 220/220/220
f 17/17/17 221/221/221 197/197/197
f 59/59/59 222/222/222 221/221/221
f 53/53/53 197/197/197 222/222/222
f 221/221/221 222/222/222 197/197/197
f 19/19/19 223/223/223 225/225/225
f 60/60/60 224/224/224 223/223/223
f 59/59/59 225/225/225 224/224/224
f 223/223/223 224/224/224 225/225/225
f 53/53/53 222/222/222 219/219/219
f 59/59/59 224/224/224 222/222/222
f 60/60/60 219/219/219 224/224/224
f 222/222/222 224/224/224 219/219/219
f 2/2/2 226/226/226 207/207/207
f 61/61/61 227/227/227 226/226/226
f 56/56/56 207/207/207 227/227/227
f 226/226/226 227/227/227 207/207/207
f 18/18/18 228/228/228 230/230/230
f 62/62/62 229/229/229 228/228/228
f 61/61/61 230/230/230 229/229/229
f 228/228/228 229/229/229 230/230/230
f 17/17/17 212/212/212 232/232/232
f 56/56/56 231/231/231 212/212/212
f 62/62/62 232/232/232 231/231/231
f 212/212/212 231/231/231 232/232/232
f 61/61/61 229/229/229 227/227/227
f 62/62/62 231/231/231 229/229/229
f 56/56/56 227/227/227 231/231/231
f 229/229/229 231/231/231 227/227/227
f 8/8/8 233/233/233 235/235/235
f 63/63/63 234/234/234 233/233/233
f 65/65/65 235/235/235 234/234/234
f 233/233/233 234/234/234 235/235/235
f 19/19/19 236/236/236 238/238/238
f 64/64/64 237/237/237 236/236/236
f 63/63/63 238/238/238 237/237/237
f 236/236/236 237/237/237 238/238/238
f 18/18/18 239/239/239 241/241/241
f 65/65/65 240/240/240 239/239/239
f 64/64/64 241/241/241 240/240/240
f 239/239/239 240/240/240 241/241/241
f 63/63/63 237/237/237 234/234/234
f 64/64/64 240/240/240 237/237/237
f 65/65/65 234/234/234 240/240/240
f 237/237/237 240/240/240 234/234/234
f 17/17/17 232/232/232 221/221/221
f 62/62/62 242/242/242 232/232/232
f 59/59/59 221/221/221 242/242/242
f 232/232/232 242/242/242 221/221/221
f 18/18/18 241/241/241 228/228/228
f 64/64/64 243/243/243 241/241/241
f 62/62/62 228/228/228 243/243/243
f 241/241/241 243/243/243 228/228/228
f 19/19/19 225/225/225 236/236/236
f 59/59/59 244/244/244 225/225/225
f 64/64/64 236/236/236 244/244/244
f 225/225/225 244/244/244 236/236/236
f 62/62/62 243/243/243 242/242/242
f 64/64/64 244/244/244 243/243/243
f 59/59/59 242/242/242 244/244/244
f 243/243/243 244/244/244 242/242/242
f 1/1/1 220/220/220 246/246/246
f 60/60/60 245/245/245 220/220/220
f 67/67/67 246/246/246 245/245/245
f 220/220/220 245/245/245 246/246/246
f 19/19/19 247/247/247 223/223/223
f 66/66/66 248/248/248 247/247/247
f 60/60/60 223/223/223 248/248/248
f 247/247/247 248/248/248 223/223/223
f 21/21/21 249/249/249 251/251/251
f 67/67/67 250/250/250 249/249/249
f 66/66/66 251/251/251 250/250/250
f 249/249/249 250/250/250 251/251/251
f 60/60/60 248/248/248 245/245/245
f 66/66/66 250/250/250 248/248/248
f 67/67/67 245/245/245 250/250/250
f 248/248/248 250/250/250 245/245/245
f 8/8/8 252/252/252 233/233/233
f 68/68/68 253/253/253 252/252/252
f 63/63/63 233/233/233 253/253/253
f 252/252/252 253/253/253 233/233/233
f 20/20/20 254/254/254 256/256/256
f 69/69/69 255/255/255 254/254/254
f 68/68/68 256/256/256 255/255/255
f 254/254/254 255/255/255 256/256/256
f 19/19/19 238/238/238 258/258/258
f 63/63/63 257/257/257 238/238/238
f 69/69/69 258/258/258 257/257/257
f 238/238/238 257/257/257 258/258/258
f 68/68/68 255/255/255 253/253/253
f 69/69/69 257/257/257 255/255/255
f 63/63/63 253/253/253 257/257/257
f 255/255/255 257/257/257 253/253/253
f 11/11/11 259/259/259 261/261/261
f 70/70/70 260/260/260 259/259/259
f 72/72/72 261/261/261 260/260/260
f 259/259/259 260/260/260 261/261/261
f 21/21/21 262/262/262 264/264/264
f 71/71/71 263/263/263 262/262/262
f 70/70/70 264/264/264 263/263/263
f 262/262/262 263/263/263 264/264/264
f 20/20/20 265/265/265 267/267/267
f 72/72/72 266/266/266 265/265/265
f 71/71/71 267/267/267 266/266/266
f 265/265/265 266/266/266 267/267/267
f 70/70/70 263/263/263 260/260/260
f 71/71/71 266/266/266 263/263/263
f 72/72/72 260/260/260 266/266/266
f 263/263/263 266/266/266 260/260/260
f 19/19/19 258/258/258 247/247/247
f 69/69/69 268/268/268 258/258/258
f 66/66/66 247/247/247 268/268/268
f 258/258/258 268/268/268 247/247/247
f 20/20/20 267/267/267 254/254/254
f 71/71/71 269/269/269 267/267/267
f 69/69/69 254/254/254 269/269/269
f 267/267/267 269/269/269 254/254/254
f 21/21/21 251/251/251 262/262/262
f 66/66/66 270/270/270 251/251/251
f 71/71/71 262/262/262 270/270/270
f 251/251/251 270/270/270 262/262/262
f 69/69/69 269/269/269 268/268/268
f 71/71/71 270/270/270 269/269/269
f 66/66/66 268/268/268 270/270/270
f 269/269/269 270/270/270 268/268/268
f 1/1/1 246/246/246 163/163/163
f 67/67/67 271/271/271 246/246/246
f 43/43/43 163/163/163 271/271/271
f 246/246/246 271/271/271 163/163/163
f 21/21/21 272/272/272 249/249/249
f 73/73/73 273/273/273 272/272/272
f 67/67/67 249/249/249 273/273/273
f 272/272/272 273/273/273 249/249/249
f 13/13/13 168/168/168 275/275/275
f 43/43/43 274/274/274 168/168/168
f 73/73/73 275/275/275 274/274/274
f 168/168/168 274/274/274 275/275/275
f 67/67/67 273/273/273 271/271/271
f 73/73/73 274/274/274 273/273/273
f 43/43/43 271/271/271 274/274/274
f 273/273/273 274/274/274 271/271/271
f 11/11/11 276/276/276 259/259/259
f 74/74/74 277/277/277 276/276/276
f 70/70/70 259/259/259 277/277/277
f 276/276/276 277/277/277 259/259/259
f 22/22/22 278/278/278 280/280/280
f 75/75/75 279/279/279 278/278/278
f 74/74/74 280/280/280 279/279/279
f 278/278/278 279/279/279 280/280/280
f 21/21/21 264/264/264 282/282/282
f 70/70/70 281/281/281 264/264/264
f 75/75/75 282/282/282 281/281/281
f 264/264/264 281/281/281 282/282/282
f 74/74/74 279/279/279 277/277/277
f 75/75/75 281/281/281 279/279/279
f 70/70/70 277/277/277 281/281/281
f 279/279/279 281/281/281 277/277/277
f 12/12/12 174/174/174 284/284/284
f 48/48/48 283/283/283 174/174/174
f 77/77/77 284/284/284 283/283/283
f 174/174/174 283/283/283 284/284/284
f 13/13/13 285/285/285 178/178/178
f 76/76/76 286/286/286 285/285/285
f 48/48/48 178/178/178 286/286/286
f 285/285/285 286/286/286 178/178/178
f 22/22/22 287/287/287 289/289/289
f 77/77/77 288/288/288 287/287/287
f 76/76/76 289/289/289 288/288/288
f 287/287/287 288/288/288 289/289/289
f 48/48/48 286/286/286 283/283/283
f 76/76/76 288/288/288 286/286/286
f 77/77/77 283/283/283 288/288/288
f 286/286/286 288/288/288 283/283/283
f 21/21/21 282/282/282 272/272/272
f 75/75/75 290/290/290 282/282/282
f 73/73/73 272/272/272 290/290/290
f 282/282/282 290/290/290 272/272/272
f 22/22/22 289/289/289 278/278/278
f 76/76/76 291/291/291 289/289/289
f 75/75/75 278/278/278 291/291/291
f 289/289/289 291/291/291 278/278/278
f 13/13/13 275/275/275 285/285/285
f 73/73/73 292/292/292 275/275/275
f 76/76/76 285/285/285 292/292/292
f 275/275/275 292/292/292 285/285/285
f 75/75/75 291/291/291 290/290/290
f 76/76/76 292/292/292 291/291/291
f 73/73/73 290/290/290 292/292/292
f 291/291/291 292/292/292 290/290/290
f 2/2/2 209/209/209 294/294/294
f 58/58/58 293/293/293 209/209/209
f 79/79/79 294/294/294 293/293/293
f 209/209/209 293/293/293 294/294/294
f 16/16/16 295/295/295 213/213/213
f 78/78/78 296/296/296 295/295/295
f 58/58/58 213/213/213 296/296/296
f 295/295/295 296/296/296 213/213/213
f 24/24/24 297/297/297 299/299/299
f 79/79/79 298/298/298 297/297/297
f 78/78/78 299/299/299 298/298/298
f 297/297/297 298/298/298 299/299/299
f 58/58/58 296/296/296 293/293/293
f 78/78/78 298/298/298 296/296/296
f 79/79/79 293/293/293 298/298/298
f 296/296/296 298/298/298 293/293/293
f 6/6/6 300/300/300 200/200/200
f 80/80/80 301/301/301 300/300/300
f 54/54/54 200/200/200 301/301/301
f 300/300/300 301/301/301 200/200/200
f 23/23/23 302/302/302 304/304/304
f 81/81/81 303/303/303 302/302/302
f 80/80/80 304/304/304 303/303/303
f 302/302/302 303/303/303 304/304/304
f 16/16/16 204/204/204 306/306/306
f 54/54/54 305/305/305 204/204/204
f 81/81/81 306/306/306 305/305/305
f 204/204/204 305/305/305 306/306/306
f 80/80/80 303/303/303 301/301/301
f 81/81/81 305/305/305 303/303/303
f 54/54/54 301/301/301 305/305/305
f 303/303/303 305/305/305 301/301/301
f 10/10/10 307/307/307 309/309/309
f 82/82/82 308/308/308 307/307/307
f 84/84/84 309/309/309 308/308/308
f 307/307/307 308/308/308 309/309/309
f 24/24/24 310/310/310 312/312/312
f 83/83/83 311/311/311 310/310/310
f 82/82/82 312/312/312 311/311/311
f 310/310/310 311/311/311 312/312/312
f 23/23/23 313/313/313 315/315/315
f 84/84/84 314/314/314 313/313/313
f 83/83/83 315/315/315 314/314/314
f 313/313/313 314/314/314 315/315/315
f 82/82/82 311/311/311 308/308/308
f 83/83/83 314/314/314 311/311/311
f 84/84/84 308/308/308 314/314/314
f 311/311/311 314/314/314 308/308/308
f 16/16/16 306/306/306 295/295/295
f 81/81/81 316/316/316 306/306/306
f 78/78/78 295/295/295 316/316/316
f 306/306/306 316/316/316 295/295/295
f 23/23/23 315/315/315 302/302/302
f 83/83/83 317/317/317 315/315/315
f 81/81/81 302/302/302 317/317/317
f 315/315/315 317/317/317 302/302/302
f 24/24/24 299/299/299 310/310/310
f 78/78/78 318/318/318 299/299/299
f 83/83/83 310/310/310 318/318/318
f 299/299/299 318/318/318 310/310/310
f 81/81/81 317/317/317 316/316/316
f 83/83/83 318/318/318 317/317/317
f 78/78/78 316/316/316 318/318/318
f 317/317/317 318/318/318 316/316/316
f 6/6/6 183/183/183 320/320/320
f 51/51/51 319/319/319 183/183/183
f 86/86/86 320/320/320 319/319/319
f 183/183/183 319/319/319 320/320/320
f 14/14/14 321/321/321 187/187/187
f 85/85/85 322/322/322 321/321/321
f 51/51/51 187/187/187 322/322/322
f 321/321/321 322/322/322 187/187/187
f 26/26/26 323/323/323 325/325/325
f 86/86/86 324/324/324 323/323/323
f 85/85/85 325/325/325 324/324/324
f 323/323/323 324/324/324 325/325/325
f 51/51/51 322/322/322 319/319/319
f 85/85/85 324/324/324 322/322/322
f 86/86/86 319/319/319 324/324/324
f 322/322/322 324/324/324 319/319/319
f 12/12/12 326/326/326 172/172/172
f 87/87/87 327/327/327 326/326/326
f 46/46/46 172/172/172 327/327/327
f 326/326/326 327/327/327 172/172/172
f 25/25/25 328/328/328 330/330/330
f 88/88/88 329/329/329 328/328/328
f 87/87/87 330/330/330 329/329/329
f 328/328/328 329/329/329 330/330/330
f 14/14/14 177/177/177 332/332/332
f 46/46/46 331/331/331 177/177/177
f 88/88/88 332/332/332 331/331/331
f 177/177/177 331/331/331 332/332/332
f 87/87/87 329/329/329 327/327/327
f 88/88/88 331/331/331 329/329/329
f 46/46/46 327/327/327 331/331/331
f 329/329/329 331/331/331 327/327/327
f 5/5/5 333/333/333 335/335/335
f 89/89/89 334/334/334 333/333/333
f 91/91/91 335/335/335 334/334/334
f 333/333/333 334/334/334 335/335/335
f 26/26/26 336/336/336 338/338/338
f 90/90/90 337/337/337 336/336/336
f 89/89/89 338/338/338 337/337/337
f 336/336/336 337/337/337 338/338/338
f 25/25/25 339/339/339 341/341/341
f 91/91/91 340/340/340 339/339/339
f 90/90/90 341/341/341 340/340/340
f 339/339/339 340/340/340 341/341/341
f 89/89/89 337/337/337 334/334/334
f 90/90/90 340/340/340 337/337/337
f 91/91/91 334/334/334 340/340/340
f 337/337/337 340/340/340 334/334/334
f 14/14/14 332/332/332 321/321/321
f 88/88/88 342/342/342 332/332/332
f 85/85/85 321/321/321 342/342/342
f 332/332/332 342/342/342 321/321/321
f 25/25/25 341/341/341 328/328/328
f 90/90/90 343/343/343 341/341/341
f 88/88/88 328/328/328 343/343/343
f 341/341/341 343/343/343 328/328/328
f 26/26/26 325/325/325 336/336/336
f 85/85/85 344/344/344 325/325/325
f 90/90/90 336/336/336 344/344/344
f 325/325/325 344/344/344 336/336/336
f 88/88/88 343/343/343 342/342/342
f 90/90/90 344/344/344 343/343/343
f 85/85/85 342/342/342 344/344/344
f 343/343/343 344/344/344 342/342/342
f 12/12/12 284/284/284 346/346/346
f 77/77/77 345/345/345 284/284/284
f 93/93/93 346/346/346 345/345/345
f 284/284/284 345/345/345 346/346/346
f 22/22/22 347/347/347 287/287/287
f 92/92/92 348/348/348 347/347/347
f 77/77/77 287/287/287 348/348/348
f 347/347/347 348/348/348 287/287/287
f 28/28/28 349/349/349 351/351/351
f 93/93/93 350/350/350 349/349/349
f 92/92/92 351/351/351 350/350/350
f 349/349/349 350/350/350 351/351/351
f 77/77/77 348/348/348 345/345/345
f 92/92/92 350/350/350 348/348/348
f 93/93/93 345/345/345 350/350/350
f 348/348/348 350/350/350 345/345/345
f 11/11/11 352/352/352 276/276/276
f 94/94/94 353/353/353 352/352/352
f 74/74/74 276/276/276 353/353/353
f 352/352/352 353/353/353 276/276/276
f 27/27/27 354/354/354 356/356/356
f 95/95/95 355/355/355 354/354/354
f 94/94/94 356/356/356 355/355/355
f 354/354/354 355/355/355 356/356/356
f 22/22/22 280/280/280 358/358/358
f 74/74/74 357/357/357 280/280/280
f 95/95/95 358/358/358 357/357/357
f 280/280/280 357/357/357 358/358/358
f 94/94/94 355/355/355 353/353/353
f 95/95/95 357/357/357 355/355/355
f 74/74/74 353/353/353 357/357/357
f 355/355/355 357/357/357 353/353/353
f 3/3/3 359/359/359 361/361/361
f 96/96/96 360/360/360 359/359/359
f 98/98/98 361/361/361 360/360/360
f 359/359/359 360/360/360 361/361/361
f 28/28/28 362/362/362 364/364/364
f 97/97/97 363/363/363 362/362/362
f 96/96/96 364/364/364 363/363/363
f 362/362/362 363/363/363 364/364/364
f 27/27/27 365/365/365 367/367/367
f 98/98/98 366/366/366 365/365/365
f 97/97/97 367/367/367 366/366/366
f 365/365/365 366/366/366 367/367/367
f 96/96/96 363/363/363 360/360/360
f 97/97/97 366/366/366 363/363/363
f 98/98/98 360/360/360 366/366/366
f 363/363/363 366/366/366 360/360/360
f 22/22/22 358/358/358 347/347/347
f 95/95/95 368/368/368 358/358/358
f 92/92/92 347/347/347 368/368/368
f 358/358/358 368/368/368 347/347/347
f 27/27/27 367/367/367 354/354/354
f 97/97/97 369/369/369 367/367/367
f 95/95/95 354/354/354 369/369/369
f 367/367/367 369/369/369 354/354/354
f 28/28/28 351/351/351 362/362/362
f 92/92/92 370/370/370 351/351/351
f 97/97/97 362/362/362 370/370/370
f 351/351/351 370/370/370 362/362/362
f 95/95/95 369/369/369 368/368/368
f 97/97/97 370/370/370 369/369/369
f 92/92/92 368/368/368 370/370/370
f 369/369/369 370/370/370 368/368/368
f 11/11/11 261/261/261 372/372/372
f 72/72/72 371/371/371 261/261/261
f 100/100/100 372/372/372 371/371/371
f 261/261/261 371/371/371 372/372/372
f 20/20/20 373/373/373 265/265/265
f 99/99/99 374/374/374 373/373/373
f 72/72/72 265/265/265 374/374/374
f 373/373/373 374/374/374 265/265/265
f 30/30/30 375/375/375 377/377/377
f 100/100/100 376/376/376 375/375/375
f 99/99/99 377/377/377 376/376/376
f 375/375/375 376/376/376 377/377/377
f 72/72/72 374/374/374 371/371/371
f 99/99/99 376/376/376 374/374/374
f 100/100/100 371/371/371 376/376/376
f 374/374/374 376/376/376 371/371/371
f 8/8/8 378/378/378 252/252/252
f 101/101/101 379/379/379 378/378/378
f 68/68/68 252/252/252 379/379/379
f 378/378/378 379/379/379 252/252/252
f 29/29/29 380/380/380 382/382/382
f 102/102/102 381/381/381 380/380/380
f 101/101/101 382/382/382 381/381/381
f 380/380/380 381/381/381 382/382/382
f 20/20/20 256/256/256 384/384/384
f 68/68/68 383/383/383 256/256/256
f 102/102/102 384/384/384 383/383/383
f 256/256/256 383/383/383 384/384/384
f 101/101/101 381/381/381 379/379/379
f 102/102/102 383/383/383 381/381/381
f 68/68/68 379/379/379 383/383/383
f 381/381/381 383/383/383 379/379/379
f 7/7/7 385/385/385 387/387/387
f 103/103/103 386/386/386 385/385/385
f 105/105/105 387/387/387 386/386/386
f 385/385/385 386/386/386 387/387/387
f 30/30/30 388/388/388 390/390/390
f 104/104/104 389/389/389 388/388/388
f 103/103/103 390/390/390 389/389/389
f 388/388/388 389/389/389 390/390/390
f 29/29/29 391/391/391 393/393/393
f 105/105/105 392/392/392 391/391/391
f 104/104/104 393/393/393 392/392/392
f 391/391/391 392/392/392 393/393/393
f 103/103/103 389/389/389 386/386/386
f 104/104/104 392/392/392 389/389/389
f 105/105/105 386/386/386 392/392/392
f 389/389/389 392/392/392 386/386/386
f 20/20/20 384/384/384 373/373/373
f 102/102/102 394/394/394 384/384/384
f 99/99/99 373/373/373 394/394/394
f 384/384/384 394/394/394 373/373/373
f 29/29/29 393/393/393 380/380/380
f 104/104/104 395/395/395 393/393/393
f 102/102/102 380/380/380 395/395/395
f 393/393/393 395/395/395 380/380/380
f 30/30/30 377/377/377 388/388/388
f 99/99/99 396/396/396 377/377/377
f 104/104/104 388/388/388 396/396/396
f 377/377/377 396/396/396 388/388/388
f 102/102/102 395/395/395 394/394/394
f 104/104/104 396/396/396 395/395/395
f 99/99/99 394/394/394 396/396/396
f 395/395/395 396/396/396 394/394/394
f 8/8/8 235/235/235 398/398/398
f 65/65/65 397/397/397 235/235/235
f 107/107/107 398/398/398 397/397/397
f 235/235/235 397/397/397 398/398/398
f 18/18/18 399/399/399 239/239/239
f 106/106/106 400/400/400 399/399/399
f 65/65/65 239/239/239 400/400/400
f 399/399/399 400/400/400 239/239/239
f 32/32/32 401/401/401 403/403/403
f 107/107/107 402/402/402 401/401/401
f 106/106/106 403/403/403 402/402/402
f 401/401/401 402/402/402 403/403/403
f 65/65/65 400/400/400 397/397/397
f 106/106/106 402/402/402 400/400/400
f 107/107/107 397/397/397 402/402/402
f 400/400/400 402/402/402 397/397/397
f 2/2/2 404/404/404 226/226/226
f 108/108/108 405/405/405 404/404/404
f 61/61/61 226/226/226 405/405/405
f 404/404/404 405/405/405 226/226/226
f 31/31/31 406/406/406 408/408/408
f 109/109/109 407/407/407 406/406/406
f 108/108/108 408/408/408 407/407/407
f 406/406/406 407/407/407 408/408/408
f 18/18/18 230/230/230 410/410/410
f 61/61/61 409/409/409 230/230/230
f 109/109/109 410/410/410 409/409/409
f 230/230/230 409/409/409 410/410/410
f 108/108/108 407/407/407 405/405/405
f 109/109/109 409/409/409 407/407/407
f 61/61/61 405/405/405 409/409/409
f 407/407/407 409/409/409 405/405/405
f 9/9/9 411/411/411 413/413/413
f 110/110/110 412/412/412 411/411/411
f 112/112/112 413/413/413 412/412/412
f 411/411/411 412/412/412 413/413/413
f 32/32/32 414/414/414 416/416/416
f 111/111/111 415/415/415 414/414/414
f 110/110/110 416/416/416 415/415/415
f 414/414/414 415/415/415 416/416/416
f 31/31/31 417/417/417 419/419/419
f 112/112/112 418/418/418 417/417/417
f 111/111/111 419/419/419 418/418/418
f 417/417/417 418/418/418 419/419/419
f 110/110/110 415/415/415 412/412/412
f 111/111/111 418/418/418 415/415/415
f 112/112/112 412/412/412 418/418/418
f 415/415/415 418/418/418 412/412/412
f 18/18/18 410/410/410 399/399/399
f 109/109/109 420/420/420 410/410/410
f 106/106/106 399/399/399 420/420/420
f 410/410/410 420/420/420 399/399/399
f 31/31/31 419/419/419 406/406/406
f 111/111/111 421/421/421 419/419/419
f 109/109/109 406/406/406 421/421/421
f 419/419/419 421/421/421 406/406/406
f 32/32/32 403/403/403 414/414/414
f 106/106/106 422/422/422 403/403/403
f 111/111/111 414/414/414 422/422/422
f 403/403/403 422/422/422 414/414/414
f 109/109/109 421/421/421 420/420/420
f 111/111/111 422/422/422 421/421/421
f 106/106/106 420/420/420 422/422/422
f 421/421/421 422/422/422 420/420/420
f 4/4/4 423/423/423 425/425/425
f 113/113/113 424/424/424 423/423/423
f 115/115/115 425/425/425 424/424/424
f 423/423/423 424/424/424 425/425/425
f 33/33/33 426/426/426 428/428/428
f 114/114/114 427/427/427 426/426/426
f 113/113/113 428/428/428 427/427/427
f 426/426/426 427/427/427 428/428/428
f 35/35/35 429/429/429 431/431/431
f 115/115/115 430/430/430 429/429/429
f 114/114/114 431/431/431 430/430/430
f 429/429/429 430/430/430 431/431/431
f 113/113/113 427/427/427 424/424/424
f 114/114/114 430/430/430 427/427/427
f 115/115/115 424/424/424 430/430/430
f 427/427/427 430/430/430 424/424/424
f 10/10/10 432/432/432 434/434/434
f 116/116/116 433/433/433 432/432/432
f 118/118/118 434/434/434 433/433/433
f 432/432/432 433/433/433 434/434/434
f 34/34/34 435/435/435 437/437/437
f 117/117/117 436/436/436 435/435/435
f 116/116/116 437/437/437 436/436/436
f 435/435/435 436/436/436 437/437/437
f 33/33/33 438/438/438 440/440/440
f 118/118/118 439/439/439 438/438/438
f 117/117/117 440/440/440 439/439/439
f 438/438/438 439/439/439 440/440/440
f 116/116/116 436/436/436 433/433/433
f 117/117/117 439/439/439 436/436/436
f 118/118/118 433/433/433 439/439/439
f 436/436/436 439/439/439 433/433/433
f 5/5/5 441/441/441 443/443/443
f 119/119/119 442/442/442 441/441/441
f 121/121/121 443/443/443 442/442/442
f 441/441/441 442/442/442 443/443/443
f 35/35/35 444/444/444 446/446/446
f 120/120/120 445/445/445 444/444/444
f 119/119/119 446/446/446 445/445/445
f 444/444/444 445/445/445 446/446/446
f 34/34/34 447/447/447 449/449/449
f 121/121/121 448/448/448 447/447/447
f 120/120/120 449/449/449 448/448/448
f 447/447/447 448/448/448 449/449/449
f 119/119/119 445/445/445 442/442/442
f 120/120/120 448/448/448 445/445/445
f 121/121/121 442/442/442 448/448/448
f 445/445/445 448/448/448 442/442/442
f 33/33/33 440/440/440 426/426/426
f 117/117/117 450/450/450 440/440/440
f 114/114/114 426/426/426 450/450/450
f 440/440/440 450/450/450 426/426/426
f 34/34/34 449/449/449 435/435/435
f 120/120/120 451/451/451 449/449/449
f 117/117/117 435/435/435 451/451/451
f 449/449/449 451/451/451 435/435/435
f 35/35/35 431/431/431 444/444/444
f 114/114/114 452/452/452 431/431/431
f 120/120/120 444/444/444 452/452/452
f 431/431/431 452/452/452 444/444/444
f 117/117/117 451/451/451 450/450/450
f 120/120/120 452/452/452 451/451/451
f 114/114/114 450/450/450 452/452/452
f 451/451/451 452/452/452 450/450/450
f 4/4/4 425/425/425 454/454/454
f 115/115/115 453/453/453 425/425/425
f 123/123/123 454/454/454 453/453/453
f 425/425/425 453/453/453 454/454/454
f 35/35/35 455/455/455 429/429/429
f 122/122/122 456/456/456 455/455/455
f 115/115/115 429/429/429 456/456/456
f 455/455/455 456/456/456 429/429/429
f 37/37/37 457/457/457 459/459/459
f 123/123/123 458/458/458 457/457/457
f 122/122/122 459/459/459 458/458/458
f 457/457/457 458/458/458 459/459/459
f 115/115/115 456/456/456 453/453/453
f 122/122/122 458/458/458 456/456/456
f 123/123/123 453/453/453 458/458/458
f 456/456/456 458/458/458 453/453/453
f 5/5/5 460/460/460 441/441/441
f 124/124/124 461/461/461 460/460/460
f 119/119/119 441/441/441 461/461/461
f 460/460/460 461/461/461 441/441/441
f 36/36/36 462/462/462 464/464/464
f 125/125/125 463/463/463 462/462/462
f 124/124/124 464/464/464 463/463/463
f 462/462/462 463/463/463 464/464/464
f 35/35/35 446/446/446 466/466/466
f 119/119/119 465/465/465 446/446/446
f 125/125/125 466/466/466 465/465/465
f 446/446/446 465/465/465 466/466/466
f 124/124/124 463/463/463 461/461/461
f 125/125/125 465/465/465 463/463/463
f 119/119/119 461/461/461 465/465/465
f 463/463/463 465/465/465 461/461/461
f 3/3/3 467/467/467 469/469/469
f 126/126/126 468/468/468 467/467/467
f 128/128/128 469/469/469 468/468/468
f 467/467/467 468/468/468 469/469/469
f 37/37/37 470/470/470 472/472/472
f 127/127/127 471/471/471 470/470/470
f 126/126/126 472/472/472 471/471/471
f 470/470/470 471/471/471 472/472/472
f 36/36/36 473/473/473 475/475/475
f 128/128/128 474/474/474 473/473/473
f 127/127/127 475/475/475 474/474/474
f 473/473/473 474/474/474 475/475/475
f 126/126/126 471/471/471 468/468/468
f 127/127/127 474/474/474 471/471/471
f 128/128/128 468/468/468 474/474/474
f 471/471/471 474/474/474 468/468/468
f 35/35/35 466/466/466 455/455/455
f 125/125/125 476/476/476 466/466/466
f 122/122/122 455/455/455 476/476/476
f 466/466/466 476/476/476 455/455/455
f 36/36/36 475/475/475 462/462/462
f 127/127/127 477/477/477 475/475/475
f 125/125/125 462/462/462 477/477/477
f 475/475/475 477/477/477 462/462/462
f 37/37/37 459/459/459 470/470/470
f 122/122/122 478/478/478 459/459/459
f 127/127/127 470/470/470 478/478/478
f 459/459/459 478/478/478 470/470/470
f 125/125/125 477/477/477 476/476/476
f 127/127/127 478/478/478 477/477/477
f 122/122/122 476/476/476 478/478/478
f 477/477/477 478/478/478 476/476/476
f 4/4/4 454/454/454 480/480/480
f 123/123/123 479/479/479 454/454/454
f 130/130/130 480/480/480 479/479/479
f 454/454/454 479/479/479 480/480/480
f 37/37/37 481/481/481 457/457/457
f 129/129/129 482/482/482 481/481/481
f 123/123/123 457/457/457 482/482/482
f 481/481/481 482/482/482 457/457/457
f 39/39/39 483/483/483 485/485/485
f 130/130/130 484/484/484 483/483/483
f 129/129/129 485/485/485 484/484/484
f 483/483/483 484/484/484 485/485/485
f 123/123/123 482/482/482 479/479/479
f 129/129/129 484/484/484 482/482/482
f 130/130/130 479/479/479 484/484/484
f 482/482/482 484/484/484 479/479/479
f 3/3/3 486/486/486 467/467/467
f 131/131/131 487/487/487 486/486/486
f 126/126/126 467/467/467 487/487/487
f 486/486/486 487/487/487 467/467/467
f 38/38/38 488/488/488 490/490/490
f 132/132/132 489/489/489 488/488/488
f 131/131/131 490/490/490 489/489/489
f 488/488/488 489/489/489 490/490/490
f 37/37/37 472/472/472 492/492/492
f 126/126/126 491/491/491 472/472/472
f 132/132/132 492/492/492 491/491/491
f 472/472/472 491/491/491 492/492/492
f 131/131/131 489/489/489 487/487/487
f 132/132/132 491/491/491 489/489/489
f 126/126/126 487/487/487 491/491/491
f 489/489/489 491/491/491 487/487/487
f 7/7/7 493/493/493 495/495/495
f 133/133/133 494/494/494 493/493/493
f 135/135/135 495/495/495 494/494/494
f 493/493/493 494/494/494 495/495/495
f 39/39/39 496/496/496 498/498/498
f 134/134/134 497/497/497 496/496/496
f 133/133/133 498/498/498 497/497/497
f 496/496/496 497/497/497 498/498/498
f 38/38/38 499/499/499 501/501/501
f 135/135/135 500/500/500 499/499/499
f 134/134/134 501/501/501 500/500/500
f 499/499/499 500/500/500 501/501/501
f 133/133/133 497/497/497 494/494/494
f 134/134/134 500/500/500 497/497/497
f 135/135/135 494/494/494 500/500/500
f 497/497/497 500/500/500 494/494/494
f 37/37/37 492/492/492 481/481/481
f 132/132/132 502/502/502 492/492/492
f 129/129/129 481/481/481 502/502/502
f 492/492/492 502/502/502 481/481/481
f 38/38/38 501/501/501 488/488/488
f 134/134/134 503/503/503 501/501/501
f 132/132/132 488/488/488 503/503/503
f 501/501/501 503/503/503 488/488/488
f 39/39/39 485/485/485 496/496/496
f 129/129/129 504/504/504 485/485/485
f 134/134/134 496/496/496 504/504/504
f 485/485/485 504/504/504 496/496/496
f 132/132/132 503/503/503 502/502/502
f 134/134/134 504/504/504 503/503/503
f 129/129/129 502/502/502 504/504/504
f 503/503/503 504/504/504 502/502/502
f 4/4/4 480/480/480 506/506/506
f 130/130/130 505/505/505 480/480/480
f 137/137/137 506/506/506 505/505/505
f 480/480/480 505/505/505 506/506/506
f 39/39/39 507/507/507 483/483/483
f 136/136/136 508/508/508 507/507/507
f 130/130/130 483/483/483 508/508/508
f 507/507/507 508/508/508 483/483/483
f 41/41/41 509/509/509 511/511/511
f 137/137/137 510/510/510 509/509/509
f 136/136/136 511/511/511 510/510/510
f 509/509/509 510/510/510 511/511/511
f 130/130/130 508/508/508 505/505/505
f 136/136/136 510/510/510 508/508/508
f 137/137/137 505/505/505 510/510/510
f 508/508/508 510/510/510 505/505/505
f 7/7/7 512/512/512 493/493/493
f 138/138/138 513/513/513 512/512/512
f 133/133/133 493/493/493 513/513/513
f 512/512/512 513/513/513 493/493/493
f 40/40/40 514/514/514 516/516/516
f 139/139/139 515/515/515 514/514/514
f 138/138/138 516/516/516 515/515/515
f 514/514/514 515/515/515 516/516/516
f 39/39/39 498/498/498 518/518/518
f 133/133/133 517/517/517 498/498/498
f 139/139/139 518/518/518 517/517/517
f 498/498/498 517/517/517 518/518/518
f 138/138/138 515/515/515 513/513/513
f 139/139/139 517/517/517 515/515/515
f 133/133/133 513/513/513 517/517/517
f 515/515/515 517/517/517 513/513/513
f 9/9/9 519/519/519 521/521/521
f 140/140/140 520/520/520 519/519/519
f 142/142/142 521/521/521 520/520/520
f 519/519/519 520/520/520 521/521/521
f 41/41/41 522/522/522 524/524/524
f 141/141/141 523/523/523 522/522/522
f 140/140/140 524/524/524 523/523/523
f 522/522/522 523/523/523 524/524/524
f 40/40/40 525/525/525 527/527/527
f 142/142/142 526/526/526 525/525/525
f 141/141/141 527/527/527 526/526/526
f 525/525/525 526/526/526 527/527/527
f 140/140/140 523/523/523 520/520/520
f 141/141/141 526/526/526 523/523/523
f 142/142/142 520/520/520 526/526/526
f 523/523/523 526/526/526 520/520/520
f 39/39/39 518/518/518 507/507/507
f 139/139/139 528/528/528 518/518/518
f 136/136/136 507/507/507 528/528/528
f 518/518/518 528/528/528 507/507/507
f 40/40/40 527/527/527 514/514/514
f 141/141/141 529/529/529 527/527/527
f 139/139/139 514/514/514 529/529/529
f 527/527/527 529/529/529 514/514/514
f 41/41/41 511/511/511 522/522/522
f 136/136/136 530/530/530 511/511/511
f 141/141/141 522/522/522 530/530/530
f 511/511/511 530/530/530 522/522/522
f 139/139/139 529/529/529 528/528/528
f 141/141/141 530/530/530 529/529/529
f 136/136/136 528/528/528 530/530/530
f 529/529/529 530/530/530 528/528/528
f 4/4/4 506/506/506 423/423/423
f 137/137/137 531/531/531 506/506/506
f 113/113/113 423/423/423 531/531/531
f 506/506/506 531/531/531 423/423/423
f 41/41/41 532/532/532 509/509/509
f 143/143/143 533/533/533 532/532/532
f 137/137/137 509/509/509 533/533/533
f 532/532/532 533/533/533 509/509/509
f 33/33/33 428/428/428 535/535/535
f 113/113/113 534/534/534 428/428/428
f 143/143/143 535/535/535 534/534/534
f 428/428/428 534/534/534 535/535/535
f 137/137/137 533/533/533 531/531/531
f 143/143/143 534/534/534 533/533/533
f 113/113/113 531/531/531 534/534/534
f 533/533/533 534/534/534 531/531/531
f 9/9/9 536/536/536 519/519/519
f 144/144/144 537/537/537 536/536/536
f 140/140/140 519/519/519 537/537/537
f 536/536/536 537/537/537 519/519/519
f 42/42/42 538/538/538 540/540/540
f 145/145/145 539/539/539 538/538/538
f 144/144/144 540/540/540 539/539/539
f 538/538/538 539/539/539 540/540/540
f 41/41/41 524/524/524 542/542/542
f 140/140/140 541/541/541 524/524/524
f 145/145/145 542/542/542 541/541/541
f 524/524/524 541/541/541 542/542/542
f 144/144/144 539/539/539 537/537/537
f 145/145/145 541/541/541 539/539/539
f 140/140/140 537/537/537 541/541/541
f 539/539/539 541/541/541 537/537/537
f 10/10/10 434/434/434 544/544/544
f 118/118/118 543/543/543 434/434/434
f 147/147/147 544/544/544 543/543/543
f 434/434/434 543/543/543 544/544/544
f 33/33/33 545/545/545 438/438/438
f 146/146/146 546/546/546 545/545/545
f 118/118/118 438/438/438 546/546/546
f 545/545/545 546/546/546 438/438/438
f 42/42/42 547/547/547 549/549/549
f 147/147/147 548/548/548 547/547/547
f 146/146/146 549/549/549 548/548/548
f 547/547/547 548/548/548 549/549/549
f 118/118/118 546/546/546 543/543/543
f 146/146/146 548/548/548 546/546/546
f 147/147/147 543/543/543 548/548/548
f 546/546/546 548/548/548 543/543/543
f 41/41/41 542/542/542 532/532/532
f 145/145/145 550/550/550 542/542/542
f 143/143/143 532/532/532 550/550/550
f 542/542/542 550/550/550 532/532/532
f 42/42/42 549/549/549 538/538/538
f 146/146/146 551/551/551 549/549/549
f 145/145/145 538/538/538 551/551/551
f 549/549/549 551/551/551 538/538/538
f 33/33/33 535/535/535 545/545/545
f 143/143/143 552/552/552 535/535/535
f 146/146/146 545/545/545 552/552/552
f 535/535/535 552/552/552 545/545/545
f 145/145/145 551/551/551 550/550/550
f 146/146/146 552/552/552 551/551/551
f 143/143/143 550/550/550 552/552/552
f 551/551/551 552/552/552 550/550/550
f 5/5/5 443/443/443 333/333/333
f 121/121/121 553/553/553 443/443/443
f 89/89/89 333/333/333 553/553/553
f 443/443/443 553/553/553 333/333/333
f 34/34/34 554/554/554 447/447/447
f 148/148/148 555/555/555 554/554/554
f 121/121/121 447/447/447 555/555/555
f 554/554/554 555/555/555 447/447/447
f 26/26/26 338/338/338 557/557/557
f 89/89/89 556/556/556 338/338/338
f 148/148/148 557/557/557 556/556/556
f 338/338/338 556/556/556 557/557/557
f 121/121/121 555/555/555 553/553/553
f 148/148/148 556/556/556 555/555/555
f 89/89/89 553/553/553 556/556/556
f 555/555/555 556/556/556 553/553/553
f 10/10/10 309/309/309 432/432/432
f 84/84/84 558/558/558 309/309/309
f 116/116/116 432/432/432 558/558/558
f 309/309/309 558/558/558 432/432/432
f 23/23/23 559/559/559 313/313/313
f 149/149/149 560/560/560 559/559/559
f 84/84/84 313/313/313 560/560/560
f 559/559/559 560/560/560 313/313/313
f 34/34/34 437/437/437 562/562/562
f 116/116/116 561/561/561 437/437/437
f 149/149/149 562/562/562 561/561/561
f 437/437/437 561/561/561 562/562/562
f 84/84/84 560/560/560 558/558/558
f 149/149/149 561/561/561 560/560/560
f 116/116/116 558/558/558 561/561/561
f 560/560/560 561/561/561 558/558/558
f 6/6/6 320/320/320 300/300/300
f 86/86/86 563/563/563 320/320/320
f 80/80/80 300/300/300 563/563/563
f 320/320/320 563/563/563 300/300/300
f 26/26/26 564/564/564 323/323/323
f 150/150/150 565/565/565 564/564/564
f 86/86/86 323/323/323 565/565/565
f 564/564/564 565/565/565 323/323/323
f 23/23/23 304/304/304 567/567/567
f 80/80/80 566/566/566 304/304/304
f 150/150/150 567/567/567 566/566/566
f 304/304/304 566/566/566 567/567/567
f 86/86/86 565/565/565 563/563/563
f 150/150/150 566/566/566 565/565/565
f 80/80/80 563/563/563 566/566/566
f 565/565/565 566/566/566 563/563/563
f 34/34/34 562/562/562 554/554/554
f 149/149/149 568/568/568 562/562/562
f 148/148/148 554/554/554 568/568/568
f 562/562/562 568/568/568 554/554/554
f 23/23/23 567/567/567 559/559/559
f 150/150/150 569/569/569 567/567/567
f 149/149/149 559/559/559 569/569/569
f 567/567/567 569/569/569 559/559/559
f 26/26/26 557/557/557 564/564/564
f 148/148/148 570/570/570 557/557/557
f 150/150/150 564/564/564 570/570/570
f 557/557/557 570/570/570 564/564/564
f 149/149/149 569/569/569 568/568/568
f 150/150/150 570/570/570 569/569/569
f 148/148/148 568/568/568 570/570/570
f 569/569/569 570/570/570 568/568/568
f 3/3/3 469/469/469 359/359/359
f 128/128/128 571/571/571 469/469/469
f 96/96/96 359/359/359 571/571/571
f 469/469/469 571/571/571 359/359/359
f 36/36/36 572/572/572 473/473/473
f 151/151/151 573/573/573 572/572/572
f 128/128/128 473/473/473 573/573/573
f 572/572/572 573/573/573 473/473/473
f 28/28/28 364/364/364 575/575/575
f 96/96/96 574/574/574 364/364/364
f 151/151/151 575/575/575 574/574/574
f 364/364/364 574/574/574 575/575/575
f 128/128/128 573/573/573 571/571/571
f 151/151/151 574/574/574 573/573/573
f 96/96/96 571/571/571 574/574/574
f 573/573/573 574/574/574 571/571/571
f 5/5/5 335/335/335 460/460/460
f 91/91/91 576/576/576 335/335/335
f 124/124/124 460/460/460 576/576/576
f 335/335/335 576/576/576 460/460/460
f 25/25/25 577/577/577 339/339/339
f 152/152/152 578/578/578 577/577/577
f 91/91/91 339/339/339 578/578/578
f 577/577/577 578/578/578 339/339/339
f 36/36/36 464/464/464 580/580/580
f 124/124/124 579/579/579 464/464/464
f 152/152/152 580/580/580 579/579/579
f 464/464/464 579/579/579 580/580/580
f 91/91/91 578/578/578 576/576/576
f 152/152/152 579/579/579 578/578/578
f 124/124/124 576/576/576 579/579/579
f 578/578/578 579/579/579 576/576/576
f 12/12/12 346/346/346 326/326/326
f 93/93/93 581/581/581 346/346/346
f 87/87/87 326/326/326 581/581/581
f 346/346/346 581/581/581 326/326/326
f 28/28/28 582/582/582 349/349/349
f 153/153/153 583/583/583 582/582/582
f 93/93/93 349/349/349 583/583/583
f 582/582/582 583/583/583 349/349/349
f 25/25/25 330/330/330 585/585/585
f 87/87/87 584/584/584 330/330/330
f 153/153/153 585/585/585 584/584/584
f 330/330/330 584/584/584 585/585/585
f 93/93/93 583/583/583 581/581/581
f 153/153/153 584/584/584 583/583/583
f 87/87/87 581/581/581 584/584/584
f 583/583/583 584/584/584 581/581/581
f 36/36/36 580/580/580 572/572/572
f 152/152/152 586/586/586 580/580/580
f 151/151/151 572/572/572 586/586/586
f 580/580/580 586/586/586 572/572/572
f 25/25/25 585/585/585 577/577/577
f 153/153/153 587/587/587 585/585/585
f 152/152/152 577/577/577 587/587/587
f 585/585/585 587/587/587 577/577/577
f 28/28/28 575/575/575 582/582/582
f 151/151/151 588/588/588 575/575/575
f 153/153/153 582/582/582 588/588/588
f 575/575/575 588/588/588 582/582/582
f 152/152/152 587/587/587 586/586/586
f 153/153/153 588/588/588 587/587/587
f 151/151/151 586/586/586 588/588/588
f 587/587/587 588/588/588 586/586/586
f 7/7/7 495/495/495 385/385/385
f 135/135/135 589/589/589 495/495/495
f 103/103/103 385/385/385 589/589/589
f 495/495/495 589/589/589 385/385/385
f 38/38/38 590/590/590 499/499/499
f 154/154/154 591/591/591 590/590/590
f 135/135/135 499/499/499 591/591/591
f 590/590/590 591/591/591 499/499/499
f 30/30/30 390/390/390 593/593/593
f 103/103/103 592/592/592 390/390/390
f 154/154/154 593/593/593 592/592/592
f 390/390/390 592/592/592 593/593/593
f 135/135/135 591/591/591 589/589/589
f 154/154/154 592/592/592 591/591/591
f 103/103/103 589/589/589 592/592/592
f 591/591/591 592/592/592 589/589/589
f 3/3/3 361/361/361 486/486/486
f 98/98/98 594/594/594 361/361/361
f 131/131/131 486/486/486 594/594/594
f 361/361/361 594/594/594 486/486/486
f 27/27/27 595/595/595 365/365/365
f 155/155/155 596/596/596 595/595/595
f 98/98/98 365/365/365 596/596/596
f 595/595/595 596/596/596 365/365/365
f 38/38/38 490/490/490 598/598/598
f 131/131/131 597/597/597 490/490/490
f 155/155/155 598/598/598 597/597/597
f 490/490/490 597/597/597 598/598/598
f 98/98/98 596/596/596 594/594/594
f 155/155/155 597/597/597 596/596/596
f 131/131/131 594/594/594 597/597/597
f 596/596/596 597/597/597 594/594/594
f 11/11/11 372/372/372 352/352/352
f 100/100/100 599/599/599 372/372/372
f 94/94/94 352/352/352 599/599/599
f 372/372/372 599/599/599 352/352/352
f 30/30/30 600/600/600 375/375/375
f 156/156/156 601/601/601 600/600/600
f 100/100/100 375/375/375 601/601/601
f 600/600/600 601/601/601 375/375/375
f 27/27/27 356/356/356 603/603/603
f 94/94/94 602/602/602 356/356/356
f 156/156/156 603/603/603 602/602/602
f 356/356/356 602/602/602 603/603/603
f 100/100/100 601/601/601 599/599/599
f 156/156/156 602/602/602 601/601/601
f 94/94/94 599/599/599 602/602/602
f 601/601/601 602/602/602 599/599/599
f 38/38/38 598/598/598 590/590/590
f 155/155/155 604/604/604 598/598/598
f 154/154/154 590/590/590 604/604/604
f 598/598/598 604/604/604 590/590/590
f 27/27/27 603/603/603 595/595/595
f 156/156/156 605/605/605 603/603/603
f 155/155/155 595/595/595 605/605/605
f 603/603/603 605/605/605 595/595/595
f 30/30/30 593/593/593 600/600/600
f 154/154/154 606/606/606 593/593/593
f 156/156/156 600/600/600 606/606/606
f 593/593/593 606/606/606 600/600/600
f 155/155/155 605/605/605 604/604/604
f 156/156/156 606/606/606 605/605/605
f 154/154/154 604/604/604 606/606/606
f 605/605/605 606/606/606 604/604/604
f 9/9/9 521/521/521 411/411/411
f 142/142/142 607/607/607 521/521/521
f 110/110/110 411/411/411 607/607/607
f 521/521/521 607/607/607 411/411/411
f 40/40/40 608/608/608 525/525/525
f 157/157/157 609/609/609 608/608/608
f 142/142/142 525/525/525 609/609/609
f 608/608/608 609/609/609 525/525/525
f 32/32/32 416/416/416 611/611/611
f 110/110/110 610/610/610 416/416/416
f 157/157/157 611/611/611 610/610/610
f 416/416/416 610/610/610 611/611/611
f 142/142/142 609/609/609 607/607/607
f 157/157/157 610/610/610 609/609/609
f 110/110/110 607/607/607 610/610/610
f 609/609/609 610/610/610 607/607/607
f 7/7/7 387/387/387 512/512/512
f 105/105/105 612/612/612 387/387/387
f 138/138/138 512/512/512 612/612/612
f 387/387/387 612/612/612 512/512/512
f 29/29/29 613/613/613 391/391/391
f 158/158/158 614/614/614 613/613/613
f 105/105/105 391/391/391 614/614/614
f 613/613/613 614/614/614 391/391/391
f 40/40/40 516/516/516 616/616/616
f 138/138/138 615/615/615 516/516/516
f 158/158/158 616/616/616 615/615/615
f 516/516/516 615/615/615 616/616/616
f 105/105/105 614/614/614 612/612/612
f 158/158/158 615/615/615 614/614/614
f 138/138/138 612/612/612 615/615/615
f 614/614/614 615/615/615 612/612/612
f 8/8/8 398/398/398 378/378/378
f 107/107/107 617/617/617 398/398/398
f 101/101/101 378/378/378 617/617/617
f 398/398/398 617/617/617 378/378/378
f 32/32/32 618/618/618 401/401/401
f 159/159/159 619/619/619 618/618/618
f 107/107/107 401/401/401 619/619/619
f 618/618/618 619/619/619 401/401/401
f 29/29/29 382/382/382 621/621/621
f 101/101/101 620/620/620 382/382/382
f 159/159/159 621/621/621 620/620/620
f 382/382/382 620/620/620 621/621/621
f 107/107/107 619/619/619 617/617/617
f 159/159/159 620/620/620 619/619/619
f 101/101/101 617/617/617 620/620/620
f 619/619/619 620/620/620 617/617/617
f 40/40/40 616/616/616 608/608/608
f 158/158/158 622/622/622 616/616/616
f 157/157/157 608/608/608 622/622/622
f 616/616/616 622/622/622 608/608/608
f 29/29/29 621/621/621 613/613/613
f 159/159/159 623/623/623 621/621/621
f 158/158/158 613/613/613 623/623/623
f 621/621/621 623/623/623 613/613/613
f 32/32/32 611/611/611 618/618/618
f 157/157/157 624/624/624 611/611/611
f 159/159/159 618/618/618 624/624/624
f 611/611/611 624/624/624 618/618/618
f 158/158/158 623/623/623 622/622/622
f 159/159/159 624/624/624 623/623/623
f 157/157/157 622/622/622 624/624/624
f 623/623/623 624/624/624 622/622/622
f 10/10/10 544/544/544 307/307/307
f 147/147/147 625/625/625 544/544/544
f 82/82/82 307/307/307 625/625/625
f 544/544/544 625/625/625 307/307/307
f 42/42/42 626/626/626 547/547/547
f 160/160/160 627/627/627 626/626/626
f 147/147/147 547/547/547 627/627/627
f 626/626/626 627/627/627 547/547/547
f 24/24/24 312/312/312 629/629/629
f 82/82/82 628/628/628 312/312/312
f 160/160/160 629/629/629 628/628/628
f 312/312/312 628/628/628 629/629/629
f 147/147/147 627/627/627 625/625/625
f 160/160/160 628/628/628 627/627/627
f 82/82/82 625/625/625 628/628/628
f 627/627/627 628/628/628 625/625/625
f 9/9/9 413/413/413 536/536/536
f 112/112/112 630/630/630 413/413/413
f 144/144/144 536/536/536 630/630/630
f 413/413/413 630/630/630 536/536/536
f 31/31/31 631/631/631 417/417/417
f 161/161/161 632/632/632 631/631/631
f 112/112/112 417/417/417 632/632/632
f 631/631/631 632/632/632 417/417/417
f 42/42/42 540/540/540 634/634/634
f 144/144/144 633/633/633 540/540/540
f 161/161/161 634/634/634 633/633/633
f 540/540/540 633/633/633 634/634/634
f 112/112/112 632/632/632 630/630/630
f 161/161/161 633/633/633 632/632/632
f 144/144/144 630/630/630 633/633/633
f 632/632/632 633/633/633 630/630/630
f 2/2/2 294/294/294 404/404/404
f 79/79/79 635/635/635 294/294/294
f 108/108/108 404/404/404 635/635/635
f 294/294/294 635/635/635 404/404/404
f 24/24/24 636/636/636 297/297/297
f 162/162/162 637/637/637 636/636/636
f 79/79/79 297/297/297 637/637/637
f 636/636/636 637/637/637 297/297/297
f 31/31/31 408/408/408 639/639/639
f 108/108/108 638/638/638 408/408/408
f 162/162/162 639/639/639 638/638/638
f 408/408/408 638/638/638 639/639/639
f 79/79/79 637/637/637 635/635/635
f 162/162/162 638/638/638 637/637/637
f 108/108/108 635/635/635 638/638/638
f 637/637/637 638/638/638 635/635/635
f 42/42/42 634/634/634 626/626/626
f 161/161/161 640/640/640 634/634/634
f 160/160/160 626/626/626 640/640/640
f 634/634/634 640/640/640 626/626/626
f 31/31/31 639/639/639 631/631/631
f 162/162/162 641/641/641 639/639/639
f 161/161/161 631/631/631 641/641/641
f 639/639/639 641/641/641 631/631/631
f 24/24/24 629/629/629 636/636/636
f 160/160/160 642/642/642 629/629/629
f 162/162/162 636/636/636 642/642/642
f 629/629/629 642/642/642 636/636/636
f 161/161/161 641/641/641 640/640/640
f 162/162/162 642/642/642 641/641/641
f 160/160/160 640/640/640 642/642/642
f 641/641/641 642/642/642 640/640/640
