# generated by scripts/make_rocks.py - demonstrator scenery
v -0.43505 0.82139 0.00000
v 0.46652 0.88080 0.00000
v -0.47719 -0.90096 0.00000
v 0.47791 -0.90231 0.00000
v 0.00000 -0.46899 0.47611
v 0.00000 0.56184 0.57038
v 0.00000 -0.60799 -0.61723
v 0.00000 0.54842 -0.55675
v 0.73736 0.00000 -0.33364
v 0.65724 0.00000 0.29738
v -0.69476 0.00000 -0.31436
v -0.73964 0.00000 0.33467
v -0.64919 0.46817 0.18154
v -0.47640 0.34357 0.56434
v -0.26634 0.81365 0.31551
v 0.25909 0.79150 0.30692
v 0.00000 1.01333 0.00000
v 0.26554 0.81119 -0.31455
v -0.26439 0.80769 -0.31320
v -0.41767 0.30121 -0.49477
v -0.65132 0.46971 -0.18214
v -0.86903 0.00000 0.00000
v 0.41287 0.29774 0.48908
v 0.65543 0.47267 0.18329
v -0.39157 -0.28239 0.46386
v 0.00000 0.00000 0.59896
v -0.75921 -0.54751 -0.21231
v -0.79073 -0.57024 0.22112
v 0.00000 0.00000 -0.73125
v -0.44539 -0.32120 -0.52761
v 0.65523 0.47253 -0.18323
v 0.39115 0.28208 -0.46335
v 0.71788 -0.51771 0.20075
v 0.38875 -0.28035 0.46051
v 0.23124 -0.70643 0.27393
v -0.20516 -0.62673 0.24303
v 0.00000 -0.81374 0.00000
v -0.28759 -0.87855 -0.34067
v 0.26747 -0.81710 -0.31685
v 0.46229 -0.33338 -0.54762
v 0.74581 -0.53785 -0.20856
v 0.81603 0.00000 0.00000
v -0.58964 0.69623 0.09994
v -0.50239 0.68636 0.26615
v -0.34752 0.80624 0.15240
v -0.58018 0.15489 0.41976
v -0.60661 0.43747 0.37932
v -0.71047 0.24976 0.26161
v -0.14659 0.73884 0.46909
v -0.40904 0.65960 0.48454
v -0.25635 0.49939 0.62297
v -0.12996 0.88774 0.15395
v -0.22449 0.92208 0.00000
v 0.12266 0.61819 0.39249
v 0.00000 0.81347 0.31544
v 0.24234 0.99541 0.00000
v 0.13943 0.95243 0.16517
v 0.39930 0.92638 0.17511
v -0.13133 0.89710 -0.15557
v -0.37211 0.86330 -0.16318
v 0.36141 0.83847 -0.15849
v 0.14160 0.96725 -0.16774
v -0.14250 0.71820 -0.45598
v 0.00000 0.83835 -0.32508
v 0.14099 0.71060 -0.45116
v -0.51282 0.70061 -0.27167
v -0.62566 0.73876 -0.10605
v -0.22951 0.44711 -0.55775
v -0.33319 0.53729 -0.39469
v -0.70420 0.24755 -0.25931
v -0.57055 0.41146 -0.35677
v -0.56528 0.15091 -0.40898
v -0.72685 0.52418 0.00000
v -0.81775 0.00000 -0.17008
v -0.83179 0.26826 -0.10402
v -0.77021 0.24840 0.09632
v -0.83363 0.00000 0.17338
v 0.47330 0.64663 0.25074
v 0.58698 0.69308 0.09949
v 0.21122 0.41148 0.51330
v 0.33903 0.54670 0.40161
v 0.65007 0.22852 0.23937
v 0.57354 0.41361 0.35864
v 0.55314 0.14767 0.40019
v -0.23782 0.17151 0.62996
v 0.00000 0.26850 0.59301
v -0.60397 -0.16124 0.43697
v -0.44264 0.00000 0.52435
v 0.00000 -0.26023 0.57474
v -0.20604 -0.14859 0.54577
v -0.17877 -0.34826 0.43444
v -0.89169 -0.28758 0.11152
v -0.78829 -0.27711 0.29027
v -0.73274 -0.25758 -0.26981
v -0.88105 -0.28415 -0.11019
v -0.67568 -0.79782 0.11453
v -0.81878 -0.59047 0.00000
v -0.67789 -0.80044 -0.11490
v -0.46785 0.00000 -0.55421
v -0.56372 -0.15050 -0.40785
v 0.00000 0.30378 -0.67094
v -0.23677 0.17075 -0.62717
v -0.26554 -0.51729 -0.64529
v -0.26958 -0.19441 -0.71406
v 0.00000 -0.31439 -0.69437
v 0.33262 0.53637 -0.39401
v 0.21290 0.41476 -0.51739
v 0.59312 0.70034 -0.10053
v 0.48652 0.66468 -0.25774
v 0.57446 0.15336 -0.41562
v 0.55009 0.39670 -0.34397
v 0.71974 0.25301 -0.26503
v 0.62942 -0.74320 0.10669
v 0.50362 -0.68805 0.26680
v 0.35193 -0.81648 0.15433
v 0.56846 -0.15176 0.41128
v 0.55168 -0.39785 0.34497
v 0.70166 -0.24666 0.25837
v 0.12063 -0.60800 0.38602
v 0.34092 -0.54976 0.40385
v 0.20131 -0.39217 0.48921
v 0.11223 -0.76663 0.13295
v 0.20529 -0.84322 0.00000
v -0.10671 -0.53783 0.34147
v 0.00000 -0.65744 0.25493
v -0.19452 -0.79901 0.00000
v -0.10981 -0.75013 0.13008
v -0.32427 -0.75231 0.14220
v 0.12166 -0.83108 -0.14412
v 0.37362 -0.86681 -0.16384
v -0.40506 -0.93973 -0.17763
v -0.13358 -0.91250 -0.15824
v 0.14424 -0.72699 -0.46157
v 0.00000 -0.81967 -0.31784
v -0.15680 -0.79026 -0.50174
v 0.51393 -0.70213 -0.27226
v 0.61700 -0.72854 -0.10458
v 0.24496 -0.47719 -0.59528
v 0.39206 -0.63223 -0.46444
v 0.75687 -0.26607 -0.27870
v 0.63226 -0.45596 -0.39535
v 0.64150 -0.17126 -0.46413
v 0.77059 -0.55572 0.00000
v 0.83063 0.00000 -0.17275
v 0.78810 -0.25417 -0.09856
v 0.77425 -0.24971 0.09683
v 0.74153 0.00000 0.15422
v 0.21171 -0.15268 0.56079
v 0.40515 0.00000 0.47994
v 0.21204 0.15291 0.56165
v -0.50068 -0.68403 0.26524
v -0.31035 -0.50046 0.36764
v -0.64381 -0.46430 0.40258
v -0.41359 -0.66694 -0.48993
v -0.55647 -0.76024 -0.29480
v -0.59577 -0.42965 -0.37254
v 0.44022 0.00000 -0.52149
v 0.24773 -0.17866 -0.65621
v 0.21640 0.15606 -0.57320
v 0.71888 0.23185 0.08990
v 0.78689 0.25378 -0.09841
v 0.70828 0.51078 0.00000
v -0.51387 0.76344 0.04955
v -0.46793 0.75763 0.12775
v -0.39481 0.82252 0.07828
v -0.60033 0.59589 0.23107
v -0.54833 0.69409 0.18355
v -0.63399 0.59174 0.14505
v -0.31882 0.83713 0.23875
v -0.43409 0.76889 0.21315
v -0.39138 0.76243 0.29565
v -0.66331 0.08007 0.38142
v -0.66221 0.20767 0.34940
v -0.75117 0.13296 0.30802
v -0.56089 0.40449 0.48273
v -0.59867 0.29443 0.40404
v -0.51148 0.23318 0.46816
v -0.66633 0.35343 0.21679
v -0.65074 0.33550 0.31386
v -0.62533 0.45097 0.27423
v -0.07393 0.65499 0.52324
v -0.20486 0.64102 0.55807
v -0.12446 0.53623 0.60069
v -0.33276 0.73857 0.39419
v -0.27136 0.69256 0.47137
v -0.21566 0.80523 0.40411
v -0.39413 0.44961 0.63478
v -0.34799 0.60545 0.57663
v -0.46693 0.52805 0.55312
v -0.57245 0.58293 0.33276
v -0.54354 0.57705 0.45599
v -0.45802 0.67312 0.36856
v -0.28695 0.86395 0.07721
v -0.32547 0.86157 0.00000
v -0.19868 0.86545 0.23535
v -0.24779 0.87939 0.15903
v -0.11518 0.96492 0.00000
v -0.18030 0.92369 0.07964
v -0.06950 0.97389 0.08233
v 0.06800 0.60243 0.48124
v 0.00000 0.69714 0.44261
v 0.12855 0.80565 0.31240
v 0.06525 0.73213 0.36517
v 0.18965 0.70814 0.35538
v -0.06984 0.78363 0.39086
v -0.13540 0.84856 0.32904
v 0.35884 0.94989 0.00000
v 0.32335 0.97354 0.08700
v 0.44709 0.93144 0.08865
v 0.07193 1.00800 0.08521
v 0.19520 1.00002 0.08622
v 0.12299 1.03033 0.00000
v 0.32605 0.85610 0.24417
v 0.27179 0.96456 0.17443
v 0.20478 0.89203 0.24258
v -0.06634 0.85844 0.23574
v 0.06558 0.84860 0.23304
v 0.00000 0.91319 0.15836
v -0.29556 0.88987 -0.07953
v -0.41675 0.86823 -0.08263
v -0.06901 0.96700 -0.08174
v -0.18179 0.93133 -0.08029
v -0.32591 0.85572 -0.24406
v -0.24925 0.88457 -0.15996
v -0.20316 0.88497 -0.24066
v 0.41747 0.86974 -0.08278
v 0.30927 0.93114 -0.08321
v 0.20878 0.90945 -0.24732
v 0.26608 0.94430 -0.17076
v 0.32607 0.85616 -0.24418
v 0.19503 0.99911 -0.08614
v 0.07346 1.02945 -0.08702
v -0.07424 0.65772 -0.52541
v 0.00000 0.72110 -0.45783
v 0.07065 0.62587 -0.49997
v -0.13776 0.86335 -0.33478
v -0.07273 0.81602 -0.40702
v -0.21092 0.78756 -0.39524
v 0.20546 0.76715 -0.38500
v 0.07192 0.80697 -0.40250
v 0.13950 0.87426 -0.33901
v 0.00000 0.92758 -0.16086
v 0.07083 0.91659 -0.25171
v -0.06902 0.89320 -0.24529
v -0.51610 0.83563 -0.14090
v -0.54527 0.81009 -0.05258
v -0.38167 0.74353 -0.28832
v -0.45464 0.80529 -0.22324
v -0.64190 0.59912 -0.14686
v -0.58038 0.73465 -0.19427
v -0.60308 0.59861 -0.23212
v -0.12104 0.52151 -0.58420
v -0.18760 0.58704 -0.51107
v -0.38864 0.43952 -0.46039
v -0.29065 0.50568 -0.48161
v -0.31549 0.35991 -0.50813
v -0.25146 0.64176 -0.43680
v -0.31215 0.69283 -0.36978
v -0.70940 0.12556 -0.29089
v -0.61595 0.19316 -0.32499
v -0.60785 0.07337 -0.34952
v -0.61859 0.44611 -0.27127
v -0.63367 0.32669 -0.30562
v -0.67435 0.35769 -0.21941
v -0.50634 0.23084 -0.46345
v -0.56785 0.27927 -0.38323
v -0.50094 0.36126 -0.43114
v -0.42098 0.61868 -0.33875
v -0.46011 0.48848 -0.38600
v -0.54451 0.55448 -0.31652
v -0.60892 0.71900 0.00000
v -0.69203 0.49907 -0.09433
v -0.68024 0.63101 -0.05179
v -0.66419 0.61612 0.05057
v -0.69591 0.50186 0.09486
v -0.78514 0.00000 -0.25338
v -0.78302 0.13014 -0.22218
v -0.85553 0.13450 -0.05215
v -0.85079 0.13642 -0.14187
v -0.84700 0.00000 -0.08637
v -0.78696 0.26467 -0.18944
v -0.74469 0.37663 -0.14605
v -0.77203 0.12832 0.21906
v -0.80300 0.00000 0.25915
v -0.70058 0.35432 0.13739
v -0.71980 0.24208 0.17327
v -0.85928 0.00000 0.08762
v -0.81925 0.13136 0.13661
v -0.83410 0.13113 0.05085
v -0.79075 0.40386 -0.05220
v -0.82715 0.26677 0.00000
v -0.75541 0.38581 0.04987
v 0.49012 0.79355 0.13381
v 0.55551 0.82531 0.05357
v 0.38035 0.74095 0.28732
v 0.43793 0.77569 0.21503
v 0.60534 0.56500 0.13850
v 0.52425 0.66360 0.17548
v 0.57138 0.56715 0.21992
v 0.10992 0.47360 0.53053
v 0.16080 0.50316 0.43805
v 0.38175 0.43172 0.45222
v 0.27040 0.47045 0.44806
v 0.31386 0.35805 0.50550
v 0.22364 0.57075 0.38847
v 0.30271 0.67188 0.35859
v 0.64788 0.11468 0.26567
v 0.59878 0.18777 0.31593
v 0.60212 0.07268 0.34623
v 0.61780 0.44553 0.27092
v 0.61667 0.31793 0.29742
v 0.66185 0.35106 0.21534
v 0.49183 0.22422 0.45017
v 0.57244 0.28153 0.38633
v 0.49819 0.35928 0.42877
v 0.42801 0.62901 0.34441
v 0.48228 0.51201 0.40460
v 0.54773 0.55775 0.31839
v -0.12181 0.38674 0.62608
v 0.00000 0.42233 0.60113
v -0.36359 0.26221 0.61415
v -0.25151 0.33480 0.63887
v 0.00000 0.13163 0.59296
v -0.11336 0.21926 0.60397
v -0.10835 0.07814 0.58879
v -0.67979 -0.08206 0.39089
v -0.60905 0.00000 0.44065
v -0.42917 -0.15087 0.50839
v -0.53061 -0.08100 0.48866
v -0.52431 -0.23903 0.47990
v -0.50965 0.07780 0.46936
v -0.45920 0.16142 0.54396
v 0.00000 -0.36412 0.51828
v -0.09914 -0.31478 0.50960
v -0.09544 -0.41120 0.46063
v -0.10996 -0.07930 0.59754
v -0.10707 -0.20709 0.57046
v 0.00000 -0.13341 0.60096
v -0.27139 -0.30959 0.43709
v -0.19080 -0.25398 0.48466
v -0.28837 -0.20796 0.48710
v -0.34479 0.08288 0.57673
v -0.32778 -0.07879 0.54826
v -0.22331 0.00000 0.59152
v -0.82655 -0.13738 0.23453
v -0.76826 -0.13598 0.31503
v -0.89264 -0.14033 0.05442
v -0.84532 -0.13554 0.14096
v -0.81022 -0.42976 0.26361
v -0.86273 -0.29015 0.20768
v -0.84678 -0.42826 0.16607
v -0.74049 -0.13107 -0.30364
v -0.80718 -0.13416 -0.22903
v -0.82870 -0.41912 -0.16252
v -0.80206 -0.26975 -0.19307
v -0.74305 -0.39413 -0.24176
v -0.83387 -0.13370 -0.13905
v -0.86812 -0.13648 -0.05292
v -0.58995 -0.87648 0.05689
v -0.69420 -0.81969 0.00000
v -0.60536 -0.89937 -0.05837
v -0.81110 -0.58493 0.11056
v -0.74121 -0.68756 0.05644
v -0.72296 -0.67477 0.16541
v -0.73951 -0.69022 -0.16920
v -0.76033 -0.70530 -0.05789
v -0.82194 -0.59275 -0.11204
v -0.92327 -0.29777 0.00000
v -0.87495 -0.44686 -0.05776
v -0.89445 -0.45682 0.05905
v -0.55147 0.00000 -0.39899
v -0.63338 -0.07646 -0.36421
v -0.44160 0.15524 -0.52311
v -0.49767 0.07597 -0.45833
v -0.50567 -0.23053 -0.46284
v -0.51161 -0.07810 -0.47116
v -0.46213 -0.16246 -0.54744
v 0.00000 0.44228 -0.62952
v -0.12598 0.39998 -0.64751
v -0.12837 0.09257 -0.69754
v -0.12739 0.24640 -0.67873
v 0.00000 0.15494 -0.69794
v -0.24002 0.31950 -0.60968
v -0.32858 0.23696 -0.55502
v -0.13290 -0.57261 -0.64145
v -0.13186 -0.41865 -0.67775
v 0.00000 -0.46870 -0.66713
v -0.38879 -0.28038 -0.65673
v -0.27260 -0.36287 -0.69243
v -0.37802 -0.43123 -0.60883
v 0.00000 -0.16160 -0.72796
v -0.13550 -0.26208 -0.72193
v -0.13245 -0.09552 -0.71972
v -0.36279 0.08721 -0.60683
v -0.26110 0.00000 -0.69161
v -0.39682 -0.09539 -0.66375
v 0.18233 0.57053 -0.49670
v 0.11564 0.49826 -0.55815
v 0.31372 0.69631 -0.37163
v 0.24427 0.62342 -0.42432
v 0.30316 0.34584 -0.48827
v 0.27136 0.47212 -0.44964
v 0.36614 0.41407 -0.43373
v 0.53578 0.79600 -0.05166
v 0.48033 0.77771 -0.13114
v 0.56435 0.56017 -0.21722
v 0.54169 0.68568 -0.18132
v 0.62159 0.58016 -0.14222
v 0.42664 0.75569 -0.20949
v 0.38048 0.74121 -0.28742
v 0.65003 0.07846 -0.37378
v 0.66296 0.20790 -0.34980
v 0.75044 0.13283 -0.30772
v 0.48863 0.35238 -0.42055
v 0.56574 0.27823 -0.38181
v 0.49688 0.22652 -0.45479
v 0.68206 0.36178 -0.22191
v 0.61809 0.31866 -0.29811
v 0.58912 0.42485 -0.25834
v 0.41374 0.60805 -0.33293
v 0.52600 0.53563 -0.30576
v 0.43540 0.46224 -0.36527
v 0.57376 -0.85242 0.05533
v 0.50993 -0.82563 0.13922
v 0.42869 -0.89311 0.08500
v 0.61842 -0.61384 0.23803
v 0.57576 -0.72880 0.19273
v 0.68482 -0.63917 0.15668
v 0.29646 -0.77841 0.22201
v 0.44160 -0.78219 0.21684
v 0.36524 -0.71151 0.27590
v 0.63178 -0.07626 0.36329
v 0.63010 -0.19759 0.33246
v 0.68958 -0.12206 0.28277
v 0.46702 -0.33680 0.40194
v 0.54984 -0.27041 0.37108
v 0.47046 -0.21448 0.43061
v 0.70330 -0.37305 0.22883
v 0.63990 -0.32991 0.30863
v 0.64526 -0.46534 0.28296
v 0.06220 -0.55108 0.44023
v 0.16533 -0.51732 0.45038
v 0.10283 -0.44304 0.49629
v 0.29571 -0.65633 0.35029
v 0.23479 -0.59922 0.40785
v 0.17560 -0.65565 0.32905
v 0.29757 -0.33947 0.47927
v 0.27717 -0.48223 0.45928
v 0.37886 -0.42845 0.44879
v 0.54826 -0.55830 0.31870
v 0.45894 -0.48723 0.38502
v 0.43507 -0.63939 0.35009
v 0.28171 -0.84815 0.07580
v 0.33743 -0.89323 0.00000
v 0.17151 -0.74712 0.20317
v 0.21998 -0.78068 0.14118
v 0.09883 -0.82795 0.00000
v 0.15745 -0.80661 0.06954
v 0.05788 -0.81106 0.06856
v -0.05810 -0.51472 0.41118
v 0.00000 -0.58241 0.36977
v -0.10340 -0.64803 0.25129
v -0.05345 -0.59971 0.29913
v -0.15615 -0.58306 0.29261
v 0.05791 -0.64978 0.32410
v 0.11231 -0.70385 0.27293
v -0.32382 -0.85719 0.00000
v -0.26401 -0.79486 0.07104
v -0.41031 -0.85483 0.08136
v -0.05665 -0.79380 0.06710
v -0.14817 -0.75909 0.06544
v -0.09749 -0.81677 0.00000
v -0.27281 -0.71630 0.20429
v -0.20972 -0.74427 0.13459
v -0.16133 -0.70278 0.19112
v 0.05657 -0.73210 0.20105
v -0.05524 -0.71485 0.19631
v 0.00000 -0.76906 0.13337
v 0.30189 -0.90892 -0.08123
v 0.44887 -0.93515 -0.08900
v 0.05984 -0.83851 -0.07088
v 0.16641 -0.85251 -0.07350
v 0.31827 -0.83567 -0.23834
v 0.24348 -0.86410 -0.15626
v 0.19015 -0.82832 -0.22526
v -0.44867 -0.93472 -0.08896
v -0.29787 -0.89682 -0.08015
v -0.20994 -0.91453 -0.24870
v -0.26139 -0.92764 -0.16775
v -0.35127 -0.92232 -0.26305
v -0.16357 -0.83795 -0.07224
v -0.06088 -0.85313 -0.07212
v 0.07719 -0.68383 -0.54627
v 0.00000 -0.76770 -0.48741
v -0.08138 -0.72101 -0.57598
v 0.12920 -0.80973 -0.31399
v 0.06887 -0.77274 -0.38543
v 0.21480 -0.80202 -0.40250
v -0.22784 -0.85072 -0.42694
v -0.07288 -0.81771 -0.40786
v -0.13748 -0.86157 -0.33409
v 0.00000 -0.86857 -0.15062
v -0.06692 -0.86605 -0.23783
v 0.06297 -0.81483 -0.22377
v 0.51166 -0.82843 -0.13969
v 0.55414 -0.82327 -0.05343
v 0.40319 -0.78544 -0.30457
v 0.44678 -0.79137 -0.21938
v 0.68713 -0.64133 -0.15721
v 0.57813 -0.73180 -0.19352
v 0.65272 -0.64789 -0.25123
v 0.12690 -0.54675 -0.61247
v 0.19745 -0.61786 -0.53790
v 0.42703 -0.48292 -0.50585
v 0.31652 -0.55069 -0.52448
v 0.36215 -0.41314 -0.58328
v 0.26850 -0.68525 -0.46640
v 0.34122 -0.75733 -0.40420
v 0.76876 -0.13607 -0.31523
v 0.71117 -0.22302 -0.37523
v 0.67455 -0.08142 -0.38788
v 0.68218 -0.49196 -0.29915
v 0.70188 -0.36186 -0.33852
v 0.75877 -0.40246 -0.24687
v 0.56171 -0.25608 -0.51413
v 0.65582 -0.32254 -0.44261
v 0.57541 -0.41496 -0.49523
v 0.46505 -0.68344 -0.37421
v 0.52361 -0.55589 -0.43928
v 0.58974 -0.60053 -0.34281
v 0.63101 -0.74508 0.00000
v 0.76022 -0.54824 -0.10363
v 0.69004 -0.64010 -0.05254
v 0.71380 -0.66214 0.05435
v 0.74768 -0.53920 0.10192
v 0.80670 0.00000 -0.26034
v 0.77871 -0.12943 -0.22096
v 0.79144 -0.12442 -0.04825
v 0.79585 -0.12761 -0.13271
v 0.81727 0.00000 -0.08334
v 0.77498 -0.26064 -0.18655
v 0.79347 -0.40130 -0.15561
v 0.71947 -0.11958 0.20415
v 0.69326 0.00000 0.22373
v 0.76869 -0.38877 0.15075
v 0.73500 -0.24719 0.17693
v 0.79698 0.00000 0.08127
v 0.76676 -0.12294 0.12786
v 0.80359 -0.12633 0.04899
v 0.80852 -0.41294 -0.05337
v 0.80518 -0.25968 0.00000
v 0.80083 -0.40901 0.05287
v 0.10249 -0.32540 0.52679
v 0.30005 -0.21638 0.50682
v 0.20957 -0.27896 0.53232
v 0.10903 -0.21088 0.58090
v 0.10971 -0.07912 0.59618
v 0.56536 0.00000 0.40904
v 0.40901 0.14378 0.48452
v 0.48701 0.07434 0.44850
v 0.48638 -0.07425 0.44793
v 0.40327 -0.14176 0.47771
v 0.11296 0.35864 0.58060
v 0.10496 0.07569 0.57034
v 0.10981 0.21240 0.58508
v 0.21803 0.29023 0.55383
v 0.32173 0.23202 0.54345
v 0.31330 -0.07531 0.52405
v 0.31932 0.07676 0.53411
v 0.21541 0.00000 0.57057
v -0.51269 -0.83011 0.13997
v -0.34017 -0.66268 0.25697
v -0.41810 -0.74056 0.20529
v -0.60846 -0.77020 0.20367
v -0.66690 -0.66196 0.25669
v -0.14967 -0.46835 0.40774
v -0.36520 -0.41301 0.43262
v -0.24026 -0.41801 0.39812
v -0.19795 -0.50521 0.34386
v -0.26220 -0.58197 0.31061
v -0.70263 -0.22034 0.37073
v -0.71169 -0.51324 0.31209
v -0.71780 -0.37007 0.34620
v -0.61787 -0.30387 0.41700
v -0.51700 -0.37284 0.44496
v -0.40950 -0.60181 0.32951
v -0.47603 -0.50537 0.39936
v -0.59213 -0.60297 0.34420
v -0.21845 -0.68355 -0.59510
v -0.36181 -0.80305 -0.42860
v -0.30209 -0.77098 -0.52475
v -0.35135 -0.61129 -0.58220
v -0.43562 -0.49264 -0.51603
v -0.55348 -0.89614 -0.15111
v -0.67950 -0.67447 -0.26154
v -0.63867 -0.80844 -0.21379
v -0.49578 -0.87815 -0.24344
v -0.43568 -0.84874 -0.32911
v -0.66734 -0.20927 -0.35211
v -0.51914 -0.37439 -0.44680
v -0.58436 -0.28739 -0.39438
v -0.66750 -0.34413 -0.32194
v -0.67191 -0.48456 -0.29465
v -0.49534 -0.72797 -0.39859
v -0.59434 -0.60522 -0.34549
v -0.52717 -0.55967 -0.44226
v 0.60639 0.00000 -0.43872
v 0.47298 -0.16627 -0.56029
v 0.53329 -0.08141 -0.49113
v 0.50651 0.07732 -0.46647
v 0.41408 0.14556 -0.49051
v 0.13122 -0.41661 -0.67444
v 0.12412 -0.08951 -0.67447
v 0.13098 -0.25334 -0.69784
v 0.25167 -0.33500 -0.63927
v 0.35875 -0.25871 -0.60597
v 0.11798 0.37459 -0.60642
v 0.30384 0.21912 -0.51322
v 0.21595 0.28746 -0.54854
v 0.11918 0.23052 -0.63500
v 0.12001 0.08655 -0.65213
v 0.34176 -0.08215 -0.57165
v 0.23113 0.00000 -0.61224
v 0.32437 0.07797 -0.54256
v 0.68656 0.11411 0.19481
v 0.75932 0.11937 0.04629
v 0.73293 0.11752 0.12222
v 0.67694 0.22767 0.16295
v 0.67622 0.34200 0.13262
v 0.82327 0.13683 -0.23360
v 0.73617 0.37232 -0.14437
v 0.81380 0.27370 -0.19590
v 0.82938 0.13298 -0.13830
v 0.80703 0.12687 -0.04920
v 0.61144 0.72197 0.00000
v 0.66995 0.48314 0.09132
v 0.64706 0.60023 0.04927
v 0.65435 0.60699 -0.04982
v 0.70297 0.50696 -0.09583
v 0.76337 0.24620 0.00000
v 0.75482 0.38551 -0.04983
v 0.71136 0.36331 0.04696
vt 2.48257 1.00000
vt 2.01743 1.00000
vt 0.51743 1.00000
vt 0.98257 1.00000
vt 0.75000 0.49520
vt 2.25000 0.49520
vt 0.75000 1.50480
vt 2.25000 1.50480
vt 1.50000 1.27051
vt 1.50000 0.72949
vt 3.00000 1.27051
vt 3.00000 0.72949
vt 2.70169 0.85801
vt 2.70169 0.51272
vt 2.40105 0.77522
vt 2.09895 0.77522
vt 2.25000 1.00000
vt 2.09895 1.22478
vt 2.40105 1.22478
vt 2.70169 1.48728
vt 2.70169 1.14199
vt 3.00000 1.00000
vt 1.79831 0.51272
vt 1.79831 0.85801
vt 0.29831 0.51272
vt 1.50000 0.00000
vt 0.29831 1.14199
vt 0.29831 0.85801
vt 1.50000 2.00000
vt 0.29831 1.48728
vt 1.79831 1.14199
vt 1.79831 1.48728
vt 1.20169 0.85801
vt 1.20169 0.51272
vt 0.90105 0.77522
vt 0.59895 0.77522
vt 0.75000 1.00000
vt 0.59895 1.22478
vt 0.90105 1.22478
vt 1.20169 1.48728
vt 1.20169 1.14199
vt 1.50000 1.00000
vt 2.58551 0.93054
vt 2.55169 0.80694
vt 2.44431 0.89058
vt 2.87544 0.61162
vt 2.70169 0.70119
vt 2.83860 0.78715
vt 2.34352 0.64541
vt 2.51503 0.64470
vt 2.47644 0.46690
vt 2.31940 0.89182
vt 2.36402 1.00000
vt 2.15648 0.64541
vt 2.25000 0.76450
vt 2.13598 1.00000
vt 2.18060 0.89182
vt 2.05569 0.89058
vt 2.31940 1.10818
vt 2.44431 1.10942
vt 2.05569 1.10942
vt 2.18060 1.10818
vt 2.34352 1.35459
vt 2.25000 1.23550
vt 2.15648 1.35459
vt 2.55169 1.19306
vt 2.58551 1.06946
vt 2.47644 1.53310
vt 2.51503 1.35530
vt 2.83860 1.21285
vt 2.70169 1.29881
vt 2.87544 1.38838
vt 2.70169 1.00000
vt 3.00000 1.13054
vt 2.85104 1.07542
vt 2.85104 0.92458
vt 3.00000 0.86946
vt 1.94831 0.80694
vt 1.91449 0.93054
vt 2.02356 0.46690
vt 1.98497 0.64470
vt 1.66140 0.78715
vt 1.79831 0.70119
vt 1.62456 0.61162
vt 2.70169 0.27733
vt 2.25000 0.27066
vt 0.12456 0.61162
vt 3.00000 0.44633
vt 0.75000 0.27066
vt 0.29831 0.27733
vt 0.52356 0.46690
vt 0.14896 0.92458
vt 0.16140 0.78715
vt 0.16140 1.21285
vt 0.14896 1.07542
vt 0.41449 0.93054
vt 0.29831 1.00000
vt 0.41449 1.06946
vt 3.00000 1.55367
vt 0.12456 1.38838
vt 2.25000 1.72934
vt 2.70169 1.72267
vt 0.52356 1.53310
vt 0.29831 1.72267
vt 0.75000 1.72934
vt 1.98497 1.35530
vt 2.02356 1.53310
vt 1.91449 1.06946
vt 1.94831 1.19306
vt 1.62456 1.38838
vt 1.79831 1.29881
vt 1.66140 1.21285
vt 1.08551 0.93054
vt 1.05169 0.80694
vt 0.94431 0.89058
vt 1.37544 0.61162
vt 1.20169 0.70119
vt 1.33860 0.78715
vt 0.84352 0.64541
vt 1.01503 0.64470
vt 0.97644 0.46690
vt 0.81940 0.89182
vt 0.86402 1.00000
vt 0.65648 0.64541
vt 0.75000 0.76450
vt 0.63598 1.00000
vt 0.68060 0.89182
vt 0.55569 0.89058
vt 0.81940 1.10818
vt 0.94431 1.10942
vt 0.55569 1.10942
vt 0.68060 1.10818
vt 0.84352 1.35459
vt 0.75000 1.23550
vt 0.65648 1.35459
vt 1.05169 1.19306
vt 1.08551 1.06946
vt 0.97644 1.53310
vt 1.01503 1.35530
vt 1.33860 1.21285
vt 1.20169 1.29881
vt 1.37544 1.38838
vt 1.20169 1.00000
vt 1.50000 1.13054
vt 1.35104 1.07542
vt 1.35104 0.92458
vt 1.50000 0.86946
vt 1.20169 0.27733
vt 1.50000 0.44633
vt 1.79831 0.27733
vt 0.44831 0.80694
vt 0.48497 0.64470
vt 0.29831 0.70119
vt 0.48497 1.35530
vt 0.44831 1.19306
vt 0.29831 1.29881
vt 1.50000 1.55367
vt 1.20169 1.72267
vt 1.79831 1.72267
vt 1.64896 0.92458
vt 1.64896 1.07542
vt 1.79831 1.00000
vt 2.53287 0.96575
vt 2.51417 0.90929
vt 2.46367 0.94551
vt 2.62677 0.83023
vt 2.56924 0.86975
vt 2.64145 0.89450
vt 2.42375 0.83418
vt 2.49540 0.84921
vt 2.47644 0.78852
vt 2.94264 0.66977
vt 2.85491 0.70308
vt 2.91635 0.75569
vt 2.70169 0.61203
vt 2.78177 0.65334
vt 2.79577 0.55790
vt 2.76715 0.82182
vt 2.77272 0.74218
vt 2.70169 0.78245
vt 2.30367 0.57286
vt 2.39769 0.55924
vt 2.35889 0.47225
vt 2.45212 0.71169
vt 2.42831 0.64041
vt 2.37494 0.71263
vt 2.59365 0.48096
vt 2.49908 0.56058
vt 2.59571 0.57643
vt 2.62067 0.75377
vt 2.61073 0.66768
vt 2.53528 0.72939
vt 2.40311 0.94614
vt 2.42246 1.00000
vt 2.35774 0.83506
vt 2.38114 0.89029
vt 2.30672 1.00000
vt 2.34204 0.94626
vt 2.28401 0.94645
vt 2.19633 0.57286
vt 2.25000 0.63987
vt 2.17445 0.76719
vt 2.20756 0.70646
vt 2.12506 0.71263
vt 2.29244 0.70646
vt 2.32555 0.76719
vt 2.07754 1.00000
vt 2.09689 0.94614
vt 2.03633 0.94551
vt 2.21599 0.94645
vt 2.15796 0.94626
vt 2.19328 1.00000
vt 2.07625 0.83418
vt 2.11886 0.89029
vt 2.14226 0.83506
vt 2.28682 0.82986
vt 2.21318 0.82986
vt 2.25000 0.89069
vt 2.40311 1.05386
vt 2.46367 1.05449
vt 2.28401 1.05355
vt 2.34204 1.05374
vt 2.42375 1.16582
vt 2.38114 1.10971
vt 2.35774 1.16494
vt 2.03633 1.05449
vt 2.09689 1.05386
vt 2.14226 1.16494
vt 2.11886 1.10971
vt 2.07625 1.16582
vt 2.15796 1.05374
vt 2.21599 1.05355
vt 2.30367 1.42714
vt 2.25000 1.36013
vt 2.19633 1.42714
vt 2.32555 1.23281
vt 2.29244 1.29354
vt 2.37494 1.28737
vt 2.12506 1.28737
vt 2.20756 1.29354
vt 2.17445 1.23281
vt 2.25000 1.10931
vt 2.21318 1.17014
vt 2.28682 1.17014
vt 2.51417 1.09071
vt 2.53287 1.03425
vt 2.47644 1.21148
vt 2.49540 1.15079
vt 2.64145 1.10550
vt 2.56924 1.13025
vt 2.62677 1.16977
vt 2.35889 1.52775
vt 2.39769 1.44076
vt 2.59571 1.42357
vt 2.49908 1.43942
vt 2.59365 1.51904
vt 2.42831 1.35959
vt 2.45212 1.28831
vt 2.91635 1.24431
vt 2.85491 1.29692
vt 2.94264 1.33023
vt 2.70169 1.21755
vt 2.77272 1.25782
vt 2.76715 1.17818
vt 2.79577 1.44210
vt 2.78177 1.34666
vt 2.70169 1.38797
vt 2.53528 1.27061
vt 2.61073 1.33232
vt 2.62067 1.24623
vt 2.58551 1.00000
vt 2.70169 1.07010
vt 2.64292 1.03550
vt 2.64292 0.96450
vt 2.70169 0.92990
vt 3.00000 1.19873
vt 2.92136 1.17375
vt 2.92555 1.03829
vt 2.92409 1.10389
vt 3.00000 1.06469
vt 2.84509 1.14281
vt 2.77643 1.11030
vt 2.92136 0.82625
vt 3.00000 0.80127
vt 2.77643 0.88970
vt 2.84509 0.85719
vt 3.00000 0.93531
vt 2.92409 0.89611
vt 2.92555 0.96171
vt 2.77454 1.03738
vt 2.85104 1.00000
vt 2.77454 0.96262
vt 1.98583 0.90929
vt 1.96713 0.96575
vt 2.02356 0.78852
vt 2.00460 0.84921
vt 1.85855 0.89450
vt 1.93076 0.86975
vt 1.87323 0.83023
vt 2.14111 0.47225
vt 2.10231 0.55924
vt 1.90429 0.57643
vt 2.00092 0.56058
vt 1.90635 0.48096
vt 2.07169 0.64041
vt 2.04788 0.71169
vt 1.58365 0.75569
vt 1.64509 0.70308
vt 1.55736 0.66977
vt 1.79831 0.78245
vt 1.72728 0.74218
vt 1.73285 0.82182
vt 1.70423 0.55790
vt 1.71823 0.65334
vt 1.79831 0.61203
vt 1.96472 0.72939
vt 1.88927 0.66768
vt 1.87933 0.75377
vt 2.39569 0.36587
vt 2.25000 0.38989
vt 2.70169 0.40140
vt 2.55763 0.36936
vt 2.25000 0.13907
vt 2.47783 0.24699
vt 2.70169 0.14204
vt 0.05736 0.66977
vt 3.00000 0.60127
vt 0.16140 0.46470
vt 0.07233 0.52984
vt 0.20423 0.55790
vt 2.92767 0.52984
vt 2.83860 0.46470
vt 0.75000 0.38989
vt 0.60431 0.36587
vt 0.64111 0.47225
vt 0.29831 0.14204
vt 0.52217 0.24699
vt 0.75000 0.13907
vt 0.40635 0.48096
vt 0.44237 0.36936
vt 0.29831 0.40140
vt 2.88736 0.35096
vt 0.11264 0.35096
vt 3.00000 0.22981
vt 0.07864 0.82625
vt 0.08365 0.75569
vt 0.07445 0.96171
vt 0.07591 0.89611
vt 0.23285 0.82182
vt 0.15491 0.85719
vt 0.22357 0.88970
vt 0.08365 1.24431
vt 0.07864 1.17375
vt 0.22357 1.11030
vt 0.15491 1.14281
vt 0.23285 1.17818
vt 0.07591 1.10389
vt 0.07445 1.03829
vt 0.46713 0.96575
vt 0.41449 1.00000
vt 0.46713 1.03425
vt 0.29831 0.92990
vt 0.35708 0.96450
vt 0.35855 0.89450
vt 0.35855 1.10550
vt 0.35708 1.03550
vt 0.29831 1.07010
vt 0.14896 1.00000
vt 0.22546 1.03738
vt 0.22546 0.96262
vt 3.00000 1.39873
vt 0.05736 1.33023
vt 2.83860 1.53530
vt 2.92767 1.47016
vt 0.20423 1.44210
vt 0.07233 1.47016
vt 0.16140 1.53530
vt 2.25000 1.61011
vt 2.39569 1.63413
vt 2.70169 1.85796
vt 2.47783 1.75301
vt 2.25000 1.86093
vt 2.55763 1.63064
vt 2.70169 1.59860
vt 0.64111 1.52775
vt 0.60431 1.63413
vt 0.75000 1.61011
vt 0.29831 1.59860
vt 0.44237 1.63064
vt 0.40635 1.51904
vt 0.75000 1.86093
vt 0.52217 1.75301
vt 0.29831 1.85796
vt 2.88736 1.64904
vt 3.00000 1.77019
vt 0.11264 1.64904
vt 2.10231 1.44076
vt 2.14111 1.52775
vt 2.04788 1.28831
vt 2.07169 1.35959
vt 1.90635 1.51904
vt 2.00092 1.43942
vt 1.90429 1.42357
vt 1.96713 1.03425
vt 1.98583 1.09071
vt 1.87323 1.16977
vt 1.93076 1.13025
vt 1.85855 1.10550
vt 2.00460 1.15079
vt 2.02356 1.21148
vt 1.55736 1.33023
vt 1.64509 1.29692
vt 1.58365 1.24431
vt 1.79831 1.38797
vt 1.71823 1.34666
vt 1.70423 1.44210
vt 1.73285 1.17818
vt 1.72728 1.25782
vt 1.79831 1.21755
vt 1.96472 1.27061
vt 1.87933 1.24623
vt 1.88927 1.33232
vt 1.03287 0.96575
vt 1.01417 0.90929
vt 0.96367 0.94551
vt 1.12677 0.83023
vt 1.06924 0.86975
vt 1.14145 0.89450
vt 0.92375 0.83418
vt 0.99540 0.84921
vt 0.97644 0.78852
vt 1.44264 0.66977
vt 1.35491 0.70308
vt 1.41635 0.75569
vt 1.20169 0.61203
vt 1.28177 0.65334
vt 1.29577 0.55790
vt 1.26715 0.82182
vt 1.27272 0.74218
vt 1.20169 0.78245
vt 0.80367 0.57286
vt 0.89769 0.55924
vt 0.85889 0.47225
vt 0.95212 0.71169
vt 0.92831 0.64041
vt 0.87494 0.71263
vt 1.09365 0.48096
vt 0.99908 0.56058
vt 1.09571 0.57643
vt 1.12067 0.75377
vt 1.11073 0.66768
vt 1.03528 0.72939
vt 0.90311 0.94614
vt 0.92246 1.00000
vt 0.85774 0.83506
vt 0.88114 0.89029
vt 0.80672 1.00000
vt 0.84204 0.94626
vt 0.78401 0.94645
vt 0.69633 0.57286
vt 0.75000 0.63987
vt 0.67445 0.76719
vt 0.70756 0.70646
vt 0.62506 0.71263
vt 0.79244 0.70646
vt 0.82555 0.76719
vt 0.57754 1.00000
vt 0.59689 0.94614
vt 0.53633 0.94551
vt 0.71599 0.94645
vt 0.65796 0.94626
vt 0.69328 1.00000
vt 0.57625 0.83418
vt 0.61886 0.89029
vt 0.64226 0.83506
vt 0.78682 0.82986
vt 0.71318 0.82986
vt 0.75000 0.89069
vt 0.90311 1.05386
vt 0.96367 1.05449
vt 0.78401 1.05355
vt 0.84204 1.05374
vt 0.92375 1.16582
vt 0.88114 1.10971
vt 0.85774 1.16494
vt 0.53633 1.05449
vt 0.59689 1.05386
vt 0.64226 1.16494
vt 0.61886 1.10971
vt 0.57625 1.16582
vt 0.65796 1.05374
vt 0.71599 1.05355
vt 0.80367 1.42714
vt 0.75000 1.36013
vt 0.69633 1.42714
vt 0.82555 1.23281
vt 0.79244 1.29354
vt 0.87494 1.28737
vt 0.62506 1.28737
vt 0.70756 1.29354
vt 0.67445 1.23281
vt 0.75000 1.10931
vt 0.71318 1.17014
vt 0.78682 1.17014
vt 1.01417 1.09071
vt 1.03287 1.03425
vt 0.97644 1.21148
vt 0.99540 1.15079
vt 1.14145 1.10550
vt 1.06924 1.13025
vt 1.12677 1.16977
vt 0.85889 1.52775
vt 0.89769 1.44076
vt 1.09571 1.42357
vt 0.99908 1.43942
vt 1.09365 1.51904
vt 0.92831 1.35959
vt 0.95212 1.28831
vt 1.41635 1.24431
vt 1.35491 1.29692
vt 1.44264 1.33023
vt 1.20169 1.21755
vt 1.27272 1.25782
vt 1.26715 1.17818
vt 1.29577 1.44210
vt 1.28177 1.34666
vt 1.20169 1.38797
vt 1.03528 1.27061
vt 1.11073 1.33232
vt 1.12067 1.24623
vt 1.08551 1.00000
vt 1.20169 1.07010
vt 1.14292 1.03550
vt 1.14292 0.96450
vt 1.20169 0.92990
vt 1.50000 1.19873
vt 1.42136 1.17375
vt 1.42555 1.03829
vt 1.42409 1.10389
vt 1.50000 1.06469
vt 1.34509 1.14281
vt 1.27643 1.11030
vt 1.42136 0.82625
vt 1.50000 0.80127
vt 1.27643 0.88970
vt 1.34509 0.85719
vt 1.50000 0.93531
vt 1.42409 0.89611
vt 1.42555 0.96171
vt 1.27454 1.03738
vt 1.35104 1.00000
vt 1.27454 0.96262
vt 0.89569 0.36587
vt 1.20169 0.40140
vt 1.05763 0.36936
vt 0.97783 0.24699
vt 1.20169 0.14204
vt 1.50000 0.60127
vt 1.66140 0.46470
vt 1.57233 0.52984
vt 1.42767 0.52984
vt 1.33860 0.46470
vt 2.10431 0.36587
vt 1.79831 0.14204
vt 2.02217 0.24699
vt 1.94237 0.36936
vt 1.79831 0.40140
vt 1.38736 0.35096
vt 1.61264 0.35096
vt 1.50000 0.22981
vt 0.48583 0.90929
vt 0.52356 0.78852
vt 0.50460 0.84921
vt 0.43076 0.86975
vt 0.37323 0.83023
vt 0.60231 0.55924
vt 0.40429 0.57643
vt 0.50092 0.56058
vt 0.57169 0.64041
vt 0.54788 0.71169
vt 0.14509 0.70308
vt 0.29831 0.78245
vt 0.22728 0.74218
vt 0.21823 0.65334
vt 0.29831 0.61203
vt 0.46472 0.72939
vt 0.38927 0.66768
vt 0.37933 0.75377
vt 0.60231 1.44076
vt 0.54788 1.28831
vt 0.57169 1.35959
vt 0.50092 1.43942
vt 0.40429 1.42357
vt 0.48583 1.09071
vt 0.37323 1.16977
vt 0.43076 1.13025
vt 0.50460 1.15079
vt 0.52356 1.21148
vt 0.14509 1.29692
vt 0.29831 1.38797
vt 0.21823 1.34666
vt 0.22728 1.25782
vt 0.29831 1.21755
vt 0.46472 1.27061
vt 0.37933 1.24623
vt 0.38927 1.33232
vt 1.50000 1.39873
vt 1.33860 1.53530
vt 1.42767 1.47016
vt 1.57233 1.47016
vt 1.66140 1.53530
vt 0.89569 1.63413
vt 1.20169 1.85796
vt 0.97783 1.75301
vt 1.05763 1.63064
vt 1.20169 1.59860
vt 2.10431 1.63413
vt 1.79831 1.59860
vt 1.94237 1.63064
vt 2.02217 1.75301
vt 1.79831 1.85796
vt 1.38736 1.64904
vt 1.50000 1.77019
vt 1.61264 1.64904
vt 1.57864 0.82625
vt 1.57445 0.96171
vt 1.57591 0.89611
vt 1.65491 0.85719
vt 1.72357 0.88970
vt 1.57864 1.17375
vt 1.72357 1.11030
vt 1.65491 1.14281
vt 1.57591 1.10389
vt 1.57445 1.03829
vt 1.91449 1.00000
vt 1.79831 0.92990
vt 1.85708 0.96450
vt 1.85708 1.03550
vt 1.79831 1.07010
vt 1.64896 1.00000
vt 1.72546 1.03738
vt 1.72546 0.96262
vn -0.34506 0.86880 0.35513
vn 0.56550 0.74586 -0.35198
vn 0.06307 -0.93497 0.34906
vn 0.31976 -0.94245 0.09768
vn -0.25744 -0.45609 0.85188
vn 0.36957 0.40752 0.83507
vn 0.17418 -0.40870 -0.89590
vn 0.17130 0.47153 -0.86505
vn 0.62164 0.09099 -0.77800
vn 0.84093 0.19630 0.50428
vn -0.51880 0.12235 -0.84610
vn -0.67967 0.07577 0.72960
vn -0.88906 0.22843 0.39672
vn -0.67208 -0.09463 0.73440
vn -0.34497 0.85603 0.38497
vn 0.18894 0.50101 0.84456
vn -0.28659 0.95719 0.04060
vn 0.43641 0.58130 -0.68676
vn -0.43496 0.65681 -0.61596
vn -0.40754 0.27843 -0.86971
vn -0.82492 0.29506 -0.48213
vn -0.99024 0.13046 -0.04896
vn 0.42893 0.16049 0.88897
vn 0.89721 0.32369 0.30038
vn 0.05463 -0.28485 0.95702
vn 0.04574 0.06048 0.99712
vn -0.71860 -0.16776 -0.67488
vn -0.75978 -0.43121 0.48662
vn 0.17321 0.10435 -0.97934
vn -0.82069 -0.12034 -0.55855
vn 0.66754 0.39210 -0.63297
vn 0.29806 0.24182 -0.92341
vn 0.77093 -0.24680 0.58715
vn 0.40865 -0.15267 0.89983
vn -0.08630 -0.76120 0.64275
vn 0.08736 -0.63393 0.76844
vn -0.03798 -0.95406 0.29720
vn -0.06723 -0.88234 -0.46579
vn 0.10832 -0.95472 -0.27710
vn 0.39077 -0.17565 -0.90358
vn 0.84314 -0.36398 -0.39578
vn 0.98770 0.05715 0.14551
vn -0.65819 0.67634 0.33068
vn -0.63611 0.68181 0.36125
vn -0.47962 0.86925 0.11984
vn -0.55981 0.10618 0.82179
vn -0.92227 0.18424 0.33982
vn -0.86230 0.40976 0.29756
vn 0.07863 0.69500 0.71470
vn -0.40652 0.74018 0.53560
vn 0.03955 0.25239 0.96682
vn -0.13180 0.86636 0.48171
vn -0.43087 0.89661 0.10215
vn 0.43280 0.44331 0.78496
vn 0.19176 0.81583 0.54557
vn 0.33452 0.93476 -0.11964
vn -0.15900 0.74068 0.65277
vn 0.51859 0.61025 0.59889
vn -0.16398 0.92902 -0.33172
vn -0.22732 0.93983 -0.25505
vn 0.61088 0.68460 -0.39769
vn -0.00735 0.85156 -0.52421
vn -0.25559 0.51370 -0.81901
vn -0.04613 0.85700 -0.51325
vn 0.28362 0.44687 -0.84845
vn -0.44686 0.42450 -0.78747
vn -0.83502 0.52616 -0.16096
vn -0.55862 0.36260 -0.74597
vn -0.48764 0.41742 -0.76679
vn -0.61231 0.24271 -0.75244
vn -0.65135 0.27214 -0.70829
vn -0.74749 -0.00499 -0.66426
vn -0.91185 0.40141 0.08603
vn -0.91800 0.00842 -0.39649
vn -0.92426 0.30570 -0.22865
vn -0.80803 0.32917 0.48860
vn -0.93522 0.14751 0.32188
vn 0.66604 0.56277 0.48957
vn 0.76619 0.34893 0.53963
vn 0.34893 0.48708 0.80063
vn 0.08810 0.42822 0.89937
vn 0.88320 0.05198 0.46611
vn 0.74467 0.19861 0.63720
vn 0.72469 0.03638 0.68811
vn -0.02326 -0.14998 0.98842
vn 0.13255 -0.03739 0.99047
vn -0.53579 -0.05154 0.84278
vn -0.41196 -0.10715 0.90488
vn -0.07135 -0.37942 0.92247
vn -0.28337 -0.38063 0.88024
vn -0.35829 -0.38635 0.84992
vn -0.94103 0.01647 0.33793
vn -0.71538 -0.01120 0.69865
vn -0.71551 -0.16176 -0.67962
vn -0.87321 0.02410 -0.48676
vn -0.61413 -0.66208 0.42952
vn -0.87662 -0.47970 0.03783
vn -0.73376 -0.63277 -0.24739
vn -0.79694 0.15046 -0.58502
vn -0.61187 0.03011 -0.79038
vn 0.18236 0.21659 -0.95908
vn -0.43164 0.25126 -0.86634
vn -0.22939 -0.28140 -0.93177
vn -0.22807 0.00107 -0.97364
vn 0.05858 -0.19823 -0.97840
vn 0.46556 0.26074 -0.84574
vn 0.56414 0.25288 -0.78600
vn 0.74780 0.50979 -0.42533
vn 0.60987 0.47173 -0.63681
vn 0.53508 0.19645 -0.82164
vn 0.63389 0.36887 -0.67980
vn 0.56370 0.41409 -0.71468
vn 0.71127 -0.61282 0.34432
vn 0.37832 -0.56364 0.73429
vn -0.13016 -0.82414 0.55123
vn 0.51309 -0.16168 0.84297
vn 0.48195 -0.15105 0.86308
vn 0.82974 -0.05698 0.55524
vn -0.10009 -0.70482 0.70229
vn 0.25214 -0.41751 0.87299
vn 0.17171 -0.29694 0.93933
vn -0.05831 -0.88411 0.46362
vn -0.28488 -0.91235 0.29404
vn -0.32474 -0.71128 0.62340
vn -0.26527 -0.72556 0.63497
vn 0.21479 -0.84662 0.48692
vn -0.14317 -0.87464 0.46315
vn 0.23073 -0.76572 0.60037
vn -0.02814 -0.98508 -0.16981
vn 0.12072 -0.79255 -0.59774
vn -0.09365 -0.99263 -0.07693
vn 0.17954 -0.96077 0.21139
vn 0.20024 -0.72343 -0.66072
vn 0.25872 -0.93102 -0.25742
vn 0.08262 -0.78423 -0.61494
vn 0.50085 -0.70264 -0.50542
vn 0.74363 -0.63348 -0.21383
vn 0.35873 -0.39174 -0.84726
vn 0.35573 -0.45264 -0.81767
vn 0.92814 -0.12821 -0.34945
vn 0.73600 -0.38081 -0.55972
vn 0.62534 0.12499 -0.77028
vn 0.91900 -0.39384 0.01791
vn 0.98580 -0.14704 -0.08113
vn 0.99150 0.03476 -0.12540
vn 0.93226 0.01960 0.36126
vn 0.81381 0.13125 0.56612
vn 0.34358 -0.13236 0.92975
vn 0.42864 -0.03504 0.90279
vn 0.17989 0.00798 0.98365
vn 0.02157 -0.65443 0.75581
vn 0.17829 -0.49456 0.85066
vn -0.37272 -0.26838 0.88828
vn -0.60649 -0.35330 -0.71228
vn -0.56203 -0.47699 -0.67572
vn -0.69686 -0.07466 -0.71331
vn 0.37420 0.24874 -0.89337
vn 0.39635 0.12500 -0.90955
vn 0.50690 0.19784 -0.83900
vn 0.87698 0.18445 0.44371
vn 0.94011 0.27931 0.19539
vn 0.91468 0.32833 0.23572
vn -0.47745 0.79705 0.36981
vn -0.47479 0.84226 0.25527
vn -0.40389 0.86705 0.29173
vn -0.85032 0.41601 0.32233
vn -0.65958 0.67961 0.32106
vn -0.82910 0.40081 0.38981
vn -0.42109 0.87703 0.23131
vn -0.53541 0.82324 0.18869
vn -0.50023 0.76097 0.41314
vn -0.58795 0.15826 0.79326
vn -0.68053 0.22238 0.69816
vn -0.76921 0.26106 0.58323
vn -0.78808 -0.00830 0.61552
vn -0.76843 -0.00591 0.63991
vn -0.74177 -0.12810 0.65830
vn -0.91168 0.32070 0.25687
vn -0.88501 0.24792 0.39408
vn -0.93434 0.25982 0.24392
vn 0.26150 0.59672 0.75865
vn 0.00281 0.58309 0.81240
vn 0.13149 0.31989 0.93829
vn -0.40759 0.77818 0.47781
vn -0.20814 0.73558 0.64467
vn -0.17792 0.77990 0.60008
vn -0.30468 0.10372 0.94679
vn -0.20728 0.57611 0.79066
vn -0.61106 0.30942 0.72861
vn -0.82889 0.49341 0.26360
vn -0.75417 0.47108 0.45751
vn -0.57002 0.75306 0.32859
vn -0.46360 0.86221 0.20413
vn -0.36649 0.90155 0.22998
vn -0.10733 0.95104 0.28985
vn -0.34878 0.91798 0.18887
vn -0.37142 0.92846 -0.00053
vn -0.36441 0.88310 0.29552
vn -0.28314 0.83668 0.46882
vn 0.58875 0.54136 0.60025
vn 0.43633 0.62458 0.64770
vn 0.02799 0.63373 0.77305
vn 0.29398 0.53819 0.78989
vn 0.11624 0.35944 0.92590
vn 0.27919 0.72851 0.62556
vn 0.03658 0.92207 0.38530
vn 0.41827 0.85528 -0.30586
vn 0.28133 0.95510 0.09298
vn 0.62142 0.76716 0.15904
vn -0.12739 0.86470 0.48587
vn 0.11079 0.95117 0.28811
vn 0.10094 0.99284 0.06394
vn 0.31025 0.51720 0.79765
vn 0.10299 0.80969 0.57775
vn -0.04013 0.66001 0.75019
vn 0.05899 0.92102 0.38502
vn -0.10791 0.77400 0.62392
vn -0.15687 0.72907 0.66622
vn -0.28595 0.95720 -0.04466
vn -0.26910 0.94938 0.16208
vn -0.32383 0.85405 -0.40709
vn -0.28355 0.91992 -0.27084
vn -0.30874 0.78475 -0.53744
vn -0.18025 0.96138 -0.20798
vn -0.18638 0.93486 -0.30215
vn 0.48820 0.71399 -0.50187
vn 0.50233 0.79137 -0.34843
vn 0.23697 0.79022 -0.56516
vn 0.46685 0.80435 -0.36752
vn 0.57047 0.64676 -0.50622
vn 0.32489 0.90768 -0.26563
vn -0.14455 0.89789 -0.41582
vn -0.02927 0.51800 -0.85488
vn 0.07235 0.53475 -0.84191
vn 0.20703 0.45234 -0.86748
vn -0.12902 0.87166 -0.47282
vn -0.01924 0.69511 -0.71865
vn -0.41098 0.55787 -0.72102
vn 0.37429 0.48122 -0.79268
vn 0.08948 0.65636 -0.74912
vn 0.12569 0.74782 -0.65189
vn -0.24807 0.84193 -0.47918
vn -0.12658 0.87199 -0.47287
vn -0.08386 0.93782 -0.33684
vn -0.47797 0.83115 -0.28415
vn -0.50901 0.80522 0.30418
vn -0.37343 0.49106 -0.78703
vn -0.37667 0.66164 -0.64834
vn -0.87575 0.21795 -0.43076
vn -0.69786 0.45117 -0.55627
vn -0.79682 0.25905 -0.54586
vn -0.20011 0.46331 -0.86331
vn -0.46419 0.43867 -0.76947
vn -0.41107 0.42657 -0.80564
vn -0.57984 0.38883 -0.71596
vn -0.52383 0.30116 -0.79681
vn -0.56022 0.37004 -0.74110
vn -0.53258 0.38324 -0.75464
vn -0.54460 0.16546 -0.82221
vn -0.66256 0.10013 -0.74229
vn -0.57888 0.09869 -0.80942
vn -0.82099 0.25603 -0.51032
vn -0.75408 0.16909 -0.63465
vn -0.70333 0.37724 -0.60251
vn -0.63967 0.11168 -0.76049
vn -0.74628 0.10882 -0.65668
vn -0.55000 0.29675 -0.78067
vn -0.34522 0.37168 -0.86179
vn -0.38759 0.43567 -0.81238
vn -0.55564 0.33576 -0.76061
vn -0.72047 0.63006 0.28973
vn -0.80433 0.38126 -0.45573
vn -0.91547 0.38437 -0.11907
vn -0.82796 0.47355 0.30038
vn -0.84294 0.27820 0.46050
vn -0.74254 0.10200 -0.66199
vn -0.73894 0.12613 -0.66186
vn -0.99376 0.10747 0.02981
vn -0.91685 0.05156 -0.39588
vn -0.96440 -0.00448 -0.26442
vn -0.70019 0.31876 -0.63885
vn -0.69789 0.46127 -0.54788
vn -0.88238 0.36776 0.29353
vn -0.86957 0.14469 0.47214
vn -0.82599 0.24265 0.50879
vn -0.83911 0.42079 0.34471
vn -0.95656 0.15781 0.24513
vn -0.86657 0.35185 0.35391
vn -0.94159 0.23350 0.24265
vn -0.89064 0.44195 -0.10695
vn -0.92057 0.25211 0.29832
vn -0.83816 0.28944 0.46230
vn 0.70026 0.38439 0.60157
vn 0.79090 0.58095 0.19230
vn 0.47245 0.49115 0.73182
vn 0.64682 0.38185 0.66016
vn 0.79390 0.42043 0.43928
vn 0.70612 0.41358 0.57476
vn 0.75386 0.55409 0.35310
vn 0.52296 0.41955 0.74195
vn 0.44835 0.56282 0.69441
vn 0.23319 0.35946 0.90356
vn 0.13737 0.53286 0.83498
vn 0.27458 0.37360 0.88602
vn 0.07862 0.37857 0.92223
vn 0.16426 0.39974 0.90179
vn 0.83959 0.16257 0.51832
vn 0.85723 0.03610 0.51367
vn 0.79253 0.18353 0.58156
vn 0.85216 0.27216 0.44693
vn 0.87381 0.03248 0.48518
vn 0.93173 0.06776 0.35677
vn 0.52449 0.01940 0.85120
vn 0.76574 0.03569 0.64215
vn 0.49030 0.18352 0.85201
vn 0.39031 0.56075 0.73022
vn 0.38033 0.37379 0.84595
vn 0.69606 0.52511 0.48966
vn 0.13895 0.02088 0.99008
vn 0.25720 0.13578 0.95677
vn -0.33436 -0.16450 0.92798
vn 0.02966 -0.02721 0.99919
vn 0.08436 -0.02306 0.99617
vn 0.15033 -0.08275 0.98517
vn 0.05816 -0.04993 0.99706
vn -0.61069 0.02815 0.79137
vn -0.51971 0.10235 0.84819
vn -0.13241 -0.24054 0.96157
vn -0.41315 0.00640 0.91064
vn -0.26539 -0.18120 0.94696
vn -0.58437 0.06625 0.80878
vn -0.61076 -0.14862 0.77774
vn -0.15099 -0.39761 0.90505
vn -0.39940 -0.45438 0.79625
vn -0.39907 -0.41792 0.81614
vn -0.13641 -0.09511 0.98608
vn -0.31387 -0.34501 0.88456
vn -0.01968 -0.11555 0.99311
vn 0.03638 -0.35702 0.93339
vn -0.36014 -0.48209 0.79868
vn -0.09077 -0.43621 0.89526
vn -0.31741 -0.20599 0.92564
vn -0.22194 -0.28833 0.93145
vn -0.12996 -0.20282 0.97055
vn -0.89165 0.07586 0.44632
vn -0.73046 0.01692 0.68274
vn -0.97722 0.15920 0.14034
vn -0.93736 0.13246 0.32221
vn -0.75216 -0.17172 0.63621
vn -0.90234 0.01668 0.43070
vn -0.90710 -0.23462 0.34945
vn -0.63503 -0.01830 -0.77227
vn -0.85778 -0.07238 -0.50890
vn -0.78577 -0.11416 -0.60789
vn -0.76157 -0.05132 -0.64605
vn -0.68333 -0.07765 -0.72596
vn -0.91232 0.06359 -0.40450
vn -0.94482 0.16052 -0.28557
vn -0.23722 -0.88575 0.39897
vn -0.77810 -0.62223 0.08596
vn -0.43855 -0.89870 -0.00277
vn -0.84216 -0.49118 0.22250
vn -0.84722 -0.49534 0.19198
vn -0.72747 -0.57368 0.37640
vn -0.79083 -0.44481 -0.42039
vn -0.85194 -0.52282 -0.02926
vn -0.88299 -0.33677 -0.32697
vn -0.99523 0.01340 -0.09662
vn -0.92894 -0.25367 -0.26967
vn -0.94212 -0.29610 0.15730
vn -0.68059 0.04723 -0.73115
vn -0.50142 0.10571 -0.85872
vn -0.60500 0.23317 -0.76132
vn -0.79203 0.04706 -0.60867
vn -0.75491 -0.04930 -0.65397
vn -0.84748 0.02512 -0.53023
vn -0.86205 -0.08660 -0.49937
vn 0.17017 0.41415 -0.89416
vn -0.24389 0.32390 -0.91411
vn -0.20756 0.17918 -0.96167
vn -0.25365 0.15180 -0.95531
vn 0.17907 0.16812 -0.96937
vn -0.56334 0.22500 -0.79500
vn -0.49130 0.30085 -0.81738
vn -0.00385 -0.31475 -0.94917
vn 0.00119 -0.24579 -0.96932
vn 0.06715 -0.27767 -0.95833
vn -0.67899 -0.14656 -0.71937
vn -0.23841 -0.23325 -0.94274
vn -0.65819 -0.21886 -0.72034
vn 0.13555 -0.04906 -0.98956
vn -0.00667 -0.14219 -0.98982
vn -0.10348 0.06528 -0.99249
vn -0.48462 0.34740 -0.80278
vn -0.27380 0.23970 -0.93144
vn -0.59538 0.11547 -0.79510
vn 0.48070 0.32218 -0.81556
vn 0.36958 0.39604 -0.84057
vn 0.48219 0.35793 -0.79961
vn 0.50304 0.29100 -0.81380
vn 0.44409 0.26109 -0.85709
vn 0.52572 0.29446 -0.79806
vn 0.37533 0.37015 -0.84977
vn 0.64569 0.64944 -0.40163
vn 0.52991 0.65303 -0.54106
vn 0.72920 0.35005 -0.58798
vn 0.65396 0.49269 -0.57410
vn 0.74209 0.40662 -0.53288
vn 0.60132 0.64598 -0.47024
vn 0.56361 0.49423 -0.66188
vn 0.57299 0.14782 -0.80612
vn 0.56275 0.31969 -0.76230
vn 0.63210 0.18774 -0.75180
vn 0.41699 0.37682 -0.82712
vn 0.61308 0.31641 -0.72389
vn 0.41130 0.19937 -0.88943
vn 0.56784 0.47691 -0.67090
vn 0.62612 0.44583 -0.63969
vn 0.70996 0.35286 -0.60947
vn 0.48031 0.31470 -0.81870
vn 0.61546 0.34216 -0.71002
vn 0.41059 0.38083 -0.82848
vn 0.64257 -0.74946 0.15944
vn 0.32135 -0.72063 0.61435
vn 0.00063 -0.88734 0.46112
vn 0.56876 -0.41115 0.71237
vn 0.51505 -0.57894 0.63210
vn 0.74241 -0.46804 0.47934
vn -0.13826 -0.79874 0.58557
vn 0.16153 -0.70767 0.68783
vn 0.06391 -0.69915 0.71211
vn 0.74796 0.04508 0.66221
vn 0.66992 -0.15870 0.72528
vn 0.85350 0.04030 0.51954
vn 0.50931 -0.15254 0.84696
vn 0.49914 -0.22443 0.83695
vn 0.42138 -0.20727 0.88288
vn 0.78184 -0.05683 0.62088
vn 0.61031 -0.12658 0.78199
vn 0.60253 -0.19491 0.77393
vn -0.13585 -0.61312 0.77822
vn 0.06440 -0.44860 0.89141
vn 0.06436 -0.35755 0.93167
vn 0.03359 -0.69169 0.72141
vn 0.05473 -0.58829 0.80680
vn -0.07475 -0.76868 0.63525
vn 0.27270 -0.19716 0.94168
vn 0.16747 -0.31989 0.93254
vn 0.38487 -0.21857 0.89672
vn 0.50611 -0.30201 0.80787
vn 0.44126 -0.22370 0.86905
vn 0.28209 -0.50016 0.81870
vn -0.29936 -0.85082 0.43184
vn -0.20758 -0.93925 0.27337
vn -0.16743 -0.87567 0.45296
vn -0.24494 -0.87019 0.42753
vn -0.10722 -0.96409 0.24295
vn -0.15804 -0.89376 0.41977
vn -0.05740 -0.92622 0.37259
vn -0.38118 -0.62553 0.68074
vn -0.36000 -0.72735 0.58427
vn -0.13667 -0.64800 0.74928
vn -0.30511 -0.71067 0.63392
vn -0.06614 -0.63666 0.76830
vn -0.27981 -0.76380 0.58165
vn -0.17382 -0.80601 0.56580
vn 0.29563 -0.85552 0.42508
vn 0.30290 -0.81528 0.49352
vn 0.22021 -0.81907 0.52975
vn -0.18114 -0.91032 0.37216
vn -0.02263 -0.91010 0.41376
vn -0.12040 -0.88628 0.44723
vn 0.15777 -0.72046 0.67531
vn 0.10492 -0.87793 0.46716
vn -0.01689 -0.71971 0.69407
vn -0.15804 -0.82256 0.54627
vn -0.12748 -0.74360 0.65636
vn -0.09467 -0.85223 0.51453
vn -0.26027 -0.96155 -0.08766
vn 0.26771 -0.93065 -0.24946
vn 0.03768 -0.98107 0.18998
vn -0.26108 -0.96510 0.02065
vn 0.12895 -0.92204 -0.36499
vn -0.18734 -0.92842 -0.32084
vn -0.11551 -0.97076 -0.21045
vn 0.00851 -0.97797 0.20858
vn 0.24822 -0.87356 0.41866
vn 0.18326 -0.94074 -0.28534
vn 0.12901 -0.96536 0.22679
vn -0.10527 -0.91816 -0.38197
vn 0.08492 -0.83418 0.54492
vn 0.05605 -0.89854 0.43530
vn 0.31333 -0.59669 -0.73877
vn 0.26460 -0.83882 -0.47578
vn 0.12027 -0.58341 -0.80322
vn -0.05104 -0.97722 -0.20600
vn 0.11129 -0.91358 -0.39114
vn 0.02917 -0.81117 -0.58408
vn -0.00122 -0.89123 -0.45355
vn 0.26623 -0.89976 -0.34576
vn 0.23567 -0.92083 -0.31070
vn 0.29442 -0.95499 -0.03630
vn 0.33863 -0.90244 -0.26633
vn 0.16372 -0.96606 -0.19980
vn 0.53791 -0.65708 -0.52810
vn 0.72227 -0.64836 -0.24074
vn 0.45137 -0.79539 -0.40451
vn 0.41906 -0.74388 -0.52061
vn 0.75760 -0.63458 -0.15280
vn 0.55212 -0.70433 -0.44618
vn 0.62284 -0.57069 -0.53516
vn 0.27581 -0.43895 -0.85514
vn 0.33790 -0.52674 -0.77998
vn 0.34839 -0.37003 -0.86122
vn 0.33693 -0.44076 -0.83199
vn 0.39580 -0.30110 -0.86757
vn 0.21790 -0.51737 -0.82755
vn 0.34765 -0.68433 -0.64096
vn 0.84425 -0.05625 -0.53299
vn 0.81649 -0.05192 -0.57502
vn 0.68652 0.14599 -0.71231
vn 0.73169 -0.31976 -0.60199
vn 0.82400 -0.23009 -0.51776
vn 0.87413 -0.14467 -0.46365
vn 0.48687 0.01733 -0.87330
vn 0.74445 -0.15654 -0.64907
vn 0.47533 -0.29632 -0.82841
vn 0.53596 -0.62045 -0.57253
vn 0.49100 -0.47180 -0.73234
vn 0.60564 -0.52988 -0.59365
vn 0.79441 -0.58659 -0.15756
vn 0.89322 -0.43047 -0.12983
vn 0.78426 -0.59964 -0.15926
vn 0.83531 -0.54606 0.06380
vn 0.90156 -0.30184 0.30998
vn 0.87465 -0.06210 -0.48076
vn 0.96917 -0.18354 -0.16438
vn 0.99565 -0.07335 -0.05738
vn 0.98606 -0.16019 -0.04490
vn 0.98985 -0.09095 0.10922
vn 0.97809 -0.02107 -0.20711
vn 0.97133 -0.09014 -0.22000
vn 0.88892 0.05473 0.45477
vn 0.86710 0.16069 0.47151
vn 0.89006 -0.04835 0.45327
vn 0.87998 0.01942 0.47462
vn 0.89832 0.15212 0.41217
vn 0.86964 -0.01333 0.49351
vn 0.98166 -0.05386 0.18289
vn 0.99179 -0.10521 -0.07274
vn 0.99879 0.02725 0.04095
vn 0.96890 -0.10010 0.22632
vn 0.11931 -0.36910 0.92170
vn 0.38298 -0.17704 0.90663
vn 0.27330 -0.29968 0.91405
vn 0.16427 -0.25095 0.95396
vn 0.15721 0.01647 0.98743
vn 0.58171 0.07325 0.81009
vn 0.46687 -0.04054 0.88340
vn 0.45520 -0.00135 0.89039
vn 0.38633 -0.05189 0.92090
vn 0.40378 -0.10865 0.90838
vn 0.27531 0.16807 0.94655
vn 0.13817 0.04309 0.98947
vn 0.16407 -0.01937 0.98626
vn 0.26148 0.16862 0.95037
vn 0.34020 0.06735 0.93794
vn 0.41544 -0.08933 0.90522
vn 0.39516 -0.04193 0.91765
vn 0.25042 0.01376 0.96804
vn 0.04654 -0.77328 0.63235
vn 0.16793 -0.64427 0.74614
vn 0.14791 -0.70110 0.69755
vn -0.22361 -0.66026 0.71698
vn -0.42724 -0.57412 0.69846
vn -0.35867 -0.52935 0.76886
vn 0.12442 -0.33756 0.93305
vn 0.01203 -0.41967 0.90760
vn -0.04185 -0.58114 0.81273
vn 0.17625 -0.60327 0.77782
vn -0.60041 -0.04725 0.79829
vn -0.58774 -0.35327 0.72785
vn -0.62704 -0.09122 0.77363
vn -0.48243 -0.07687 0.87256
vn -0.11132 -0.24767 0.96243
vn 0.12856 -0.59294 0.79491
vn 0.03619 -0.44276 0.89591
vn -0.18497 -0.57214 0.79903
vn -0.12617 -0.46677 -0.87533
vn -0.41384 -0.69042 -0.59334
vn -0.32552 -0.62199 -0.71216
vn -0.53637 -0.30501 -0.78694
vn -0.70587 -0.12578 -0.69709
vn -0.44963 -0.84607 -0.28635
vn -0.63792 -0.27788 -0.71822
vn -0.60731 -0.59477 -0.52671
vn -0.41568 -0.74200 -0.52596
vn -0.41152 -0.70340 -0.57955
vn -0.58291 -0.07569 -0.80901
vn -0.68241 -0.02445 -0.73056
vn -0.61081 -0.05458 -0.78989
vn -0.66396 -0.12148 -0.73783
vn -0.65951 -0.10723 -0.74401
vn -0.60970 -0.44681 -0.65470
vn -0.68641 -0.23078 -0.68962
vn -0.66880 -0.14939 -0.72828
vn 0.55321 0.22032 -0.80338
vn 0.39593 0.13178 -0.90878
vn 0.46281 0.21751 -0.85936
vn 0.42454 0.18454 -0.88640
vn 0.32784 0.22023 -0.91870
vn 0.22419 -0.26055 -0.93907
vn 0.37110 0.13029 -0.91941
vn 0.24177 -0.04687 -0.96920
vn 0.36573 -0.16923 -0.91521
vn 0.39293 0.01089 -0.91950
vn 0.48326 0.24440 -0.84067
vn 0.40807 0.20949 -0.88859
vn 0.55110 0.17713 -0.81543
vn 0.49316 0.14586 -0.85762
vn 0.47203 0.14996 -0.86873
vn 0.38040 0.22651 -0.89665
vn 0.43703 0.22486 -0.87088
vn 0.38740 0.23310 -0.89196
vn 0.85513 0.17651 0.48744
vn 0.89416 0.23458 0.38138
vn 0.84675 0.24539 0.47201
vn 0.90788 0.13367 0.39734
vn 0.94456 0.12306 0.30439
vn 0.86287 0.14448 -0.48434
vn 0.83860 0.45291 -0.30269
vn 0.84198 0.43024 -0.32551
vn 0.98578 0.09763 0.13675
vn 0.94213 0.16484 0.29193
vn 0.89199 0.45202 -0.00610
vn 0.89390 0.25769 0.36680
vn 0.87028 0.36321 0.33271
vn 0.88066 0.44508 -0.16230
vn 0.84495 0.42364 -0.32647
vn 0.90576 0.18045 0.38345
vn 0.95872 0.25750 0.12059
vn 0.88509 0.17746 0.43026
f 1/1/1 163/163/163 165/165/165
f 43/43/43 164/164/164 163/163/163
f 45/45/45 165/165/165 164/164/164
f 163/163/163 164/164/164 165/165/165
f 13/13/13 166/166/166 168/168/168
f 44/44/44 167/167/167 166/166/166
f 43/43/43 168/168/168 167/167/167
f 166/166/166 167/167/167 168/168/168
f 15/15/15 169/169/169 171/171/171
f 45/45/45 170/170/170 169/169/169
f 44/44/44 171/171/171 170/170/170
f 169/169/169 170/170/170 171/171/171
f 43/43/43 167/167/167 164/164/164
f 44/44/44 170/170/170 167/167/167
f 45/45/45 164/164/164 170/170/170
f 167/167/167 170/170/170 164/164/164
f 12/12/12 172/172/172 174/174/174
f 46/46/46 173/173/173 172/172/172
f 48/48/48 174/174/174 173/173/173
f 172/172/172 173/173/173 174/174/174
f 14/14/14 175/175/175 177/177/177
f 47/47/47 176/176/176 175/175/175
f 46/46/46 177/177/177 176/176/176
f 175/175/175 176/176/176 177/177/177
f 13/13/13 178/178/178 180/180/180
f 48/48/48 179/179/179 178/178/178
f 47/47/47 180/180/180 179/179/179
f 178/178/178 179/179/179 180/180/180
f 46/46/46 176/176/176 173/173/173
f 47/47/47 179/179/179 176/176/176
f 48/48/48 173/173/173 179/179/179
f 176/176/176 179/179/179 173/173/173
f 6/6/6 181/181/181 183/183/183
f 49/49/49 182/182/182 181/181/181
f 51/51/51 183/183/183 182/182/182
f 181/181/181 182/182/182 183/183/183
f 15/15/15 184/184/184 186/186/186
f 50/50/50 185/185/185 184/184/184
f 49/49/49 186/186/186 185/185/185
f 184/184/184 185/185/185 186/186/186
f 14/14/14 187/187/187 189/189/189
f 51/51/51 188/188/188 187/187/187
f 50/50/50 189/189/189 188/188/188
f 187/187/187 188/188/188 189/189/189
f 49/49/49 185/185/185 182/182/182
f 50/50/50 188/188/188 185/185/185
f 51/51/51 182/182/182 188/188/188
f 185/185/185 188/188/188 182/182/182
f 13/13/13 180/180/180 166/166/166
f 47/47/47 190/190/190 180/180/180
f 44/44/44 166/166/166 190/190/190
f 180/180/180 190/190/190 166/166/166
f 14/14/14 189/189/189 175/175/175
f 50/50/50 191/191/191 189/189/189
f 47/47/47 175/175/175 191/191/191
f 189/189/189 191/191/191 175/175/175
f 15/15/15 171/171/171 184/184/184
f 44/44/44 192/192/192 171/171/171
f 50/50/50 184/184/184 192/192/192
f 171/171/171 192/192/192 184/184/184
f 47/47/47 191/191/191 190/190/190
f 50/50/50 192/192/192 191/191/191
f 44/44/44 190/190/190 192/192/192
f 191/191/191 192/192/192 190/190/190
f 1/1/1 165/165/165 194/194/194
f 45/45/45 193/193/193 165/165/165
f 53/53/53 194/194/194 193/193/193
f 165/165/165 193/193/193 194/194/194
f 15/15/15 195/195/195 169/169/169
f 52/52/52 196/196/196 195/195/195
f 45/45/45 169/169/169 196/196/196
f 195/195/195 196/196/196 169/169/169
f 17/17/17 197/197/197 199/199/199
f 53/53/53 198/198/198 197/197/197
f 52/52/52 199/199/199 198/198/198
f 197/197/197 198/198/198 199/199/199
f 45/45/45 196/196/196 193/193/193
f 52/52/52 198/198/198 196/196/196
f 53/53/53 193/193/193 198/198/198
f 196/196/196 198/198/198 193/193/193
f 6/6/6 200/200/200 181/181/181
f 54/54/54 201/201/201 200/200/200
f 49/49/49 181/181/181 201/201/201
f 200/200/200 201/201/201 181/181/181
f 16/16/16 202/202/202 204/204/204
f 55/55/55 203/203/203 202/202/202
f 54/54/54 204/204/204 203/203/203
f 202/202/202 203/203/203 204/204/204
f 15/15/15 186/186/186 206/206/206
f 49/49/49 205/205/205 186/186/186
f 55/55/55 206/206/206 205/205/205
f 186/186/186 205/205/205 206/206/206
f 54/54/54 203/203/203 201/201/201
f 55/55/55 205/205/205 203/203/203
f 49/49/49 201/201/201 205/205/205
f 203/203/203 205/205/205 201/201/201
f 2/2/2 207/207/207 209/209/209
f 56/56/56 208/208/208 207/207/207
f 58/58/58 209/209/209 208/208/208
f 207/207/207 208/208/208 209/209/209
f 17/17/17 210/210/210 212/212/212
f 57/57/57 211/211/211 210/210/210
f 56/56/56 212/212/212 211/211/211
f 210/210/210 211/211/211 212/212/212
f 16/16/16 213/213/213 215/215/215
f 58/58/58 214/214/214 213/213/213
f 57/57/57 215/215/215 214/214/214
f 213/213/213 214/214/214 215/215/215
f 56/56/56 211/211/211 208/208/208
f 57/57/57 214/214/214 211/211/211
f 58/58/58 208/208/208 214/214/214
f 211/211/211 214/214/214 208/208/208
f 15/15/15 206/206/206 195/195/195
f 55/55/55 216/216/216 206/206/206
f 52/52/52 195/195/195 216/216/216
f 206/206/206 216/216/216 195/195/195
f 16/16/16 215/215/215 202/202/202
f 57/57/57 217/217/217 215/215/215
f 55/55/55 202/202/202 217/217/217
f 215/215/215 217/217/217 202/202/202
f 17/17/17 199/199/199 210/210/210
f 52/52/52 218/218/218 199/199/199
f 57/57/57 210/210/210 218/218/218
f 199/199/199 218/218/218 210/210/210
f 55/55/55 217/217/217 216/216/216
f 57/57/57 218/218/218 217/217/217
f 52/52/52 216/216/216 218/218/218
f 217/217/217 218/218/218 216/216/216
f 1/1/1 194/194/194 220/220/220
f 53/53/53 219/219/219 194/194/194
f 60/60/60 220/220/220 219/219/219
f 194/194/194 219/219/219 220/220/220
f 17/17/17 221/221/221 197/197/197
f 59/59/59 222/222/222 221/221/221
f 53/53/53 197/197/197 222/222/222
f 221/221/221 222/222/222 197/197/197
f 19/19/19 223/223/223 225/225/225
f 60/60/60 224/224/224 223/223/223
f 59/59/59 225/225/225 224/224/224
f 223/223/223 224/224/224 225/225/225
f 53/53/53 222/222/222 219/219/219
f 59/59/59 224/224/224 222/222/222
f 60/60/60 219/219/219 224/224/224
f 222/222/222 224/224/224 219/219/219
f 2/2/2 226/226/226 207/207/207
f 61/61/61 227/227/227 226/226/226
f 56/56/56 207/207/207 227/227/227
f 226/226/226 227/227/227 207/207/207
f 18/18/18 228/228/228 230/230/230
f 62/62/62 229/229/229 228/228/228
f 61/61/61 230/230/230 229/229/229
f 228/228/228 229/229/229 230/230/230
f 17/17/17 212/212/212 232/232/232
f 56/56/56 231/231/231 212/212/212
f 62/62/62 232/232/232 231/231/231
f 212/212/212 231/231/231 232/232/232
f 61/61/61 229/229/229 227/227/227
f 62/62/62 231/231/231 229/229/229
f 56/56/56 227/227/227 231/231/231
f 229/229/229 231/231/231 227/227/227
f 8/8/8 233/233/233 235/235/235
f 63/63/63 234/234/234 233/233/233
f 65/65/65 235/235/235 234/234/234
f 233/233/233 234/234/234 235/235/235
f 19/19/19 236/236/236 238/238/238
f 64/64/64 237/237/237 236/236/236
f 63/63/63 238/238/238 237/237/237
f 236/236/236 237/237/237 238/238/238
f 18/18/18 239/239/239 241/241/241
f 65/65/65 240/240/240 239/239/239
f 64/64/64 241/241/241 240/240/240
f 239/239/239 240/240/240 241/241/241
f 63/63/63 237/237/237 234/234/234
f 64/64/64 240/240/240 237/237/237
f 65/65/65 234/234/234 240/240/240
f 237/237/237 240/240/240 234/234/234
f 17/17/17 232/232/232 221/221/221
f 62/62/62 242/242/242 232/232/232
f 59/59/59 221/221/221 242/242/242
f 232/232/232 242/242/242 221/221/221
f 18/18/18 241/241/241 228/228/228
f 64/64/64 243/243/243 241/241/241
f 62/62/62 228/228/228 243/243/243
f 241/241/241 243/243/243 228/228/228
f 19/19/19 225/225/225 236/236/236
f 59/59/59 244/244/244 225/225/225
f 64/64/64 236/236/236 244/244/244
f 225/225/225 244/244/244 236/236/236
f 62/62/62 243/243/243 242/242/242
f 64/64/64 244/244/244 243/243/243
f 59/59/59 242/242/242 244/244/244
f 243/243/243 244/244/244 242/242/242
f 1/1/1 220/220/220 246/246/246
f 60/60/60 245/245/245 220/220/220
f 67/67/67 246/246/246 245/245/245
f 220/220/220 245/245/245 246/246/246
f 19/19/19 247/247/247 223/223/223
f 66/66/66 248/248/248 247/247/247
f 60/60/60 223/223/223 248/248/248
f 247/247/247 248/248/248 223/223/223
f 21/21/21 249/249/249 251/251/251
f 67/67/67 250/250/250 249/249/249
f 66/66/66 251/251/251 250/250/250
f 249/249/249 250/250/250 251/251/251
f 60/60/60 248/248/248 245/245/245
f 66/66/66 250/250/250 248/248/248
f 67/67/67 245/245/245 250/250/250
f 248/248/248 250/250/250 245/245/245
f 8/8/8 252/252/252 233/233/233
f 68/68/68 253/253/253 252/252/252
f 63/63/63 233/233/233 253/253/253
f 252/252/252 253/253/253 233/233/233
f 20/20/20 254/254/254 256/256/256
f 69/69/69 255/255/255 254/254/254
f 68/68/68 256/256/256 255/255/255
f 254/254/254 255/255/255 256/256/256
f 19/19/19 238/238/238 258/258/258
f 63/63/63 257/257/257 238/238/238
f 69/69/69 258/258/258 257/257/257
f 238/238/238 257/257/257 258/258/258
f 68/68/68 255/255/255 253/253/253
f 69/69/69 257/257/257 255/255/255
f 63/63/63 253/253/253 257/257/257
f 255/255/255 257/257/257 253/253/253
f 11/11/11 259/259/259 261/261/261
f 70/70/70 260/260/260 259/259/259
f 72/72/72 261/261/261 260/260/260
f 259/259/259 260/260/260 261/261/261
f 21/21/21 262/262/262 264/264/264
f 71/71/71 263/263/263 262/262/262
f 70/70/70 264/264/264 263/263/263
f 262/262/262 263/263/263 264/264/264
f 20/20/20 265/265/265 267/267/267
f 72/72/72 266/266/266 265/265/265
f 71/71/71 267/267/267 266/266/266
f 265/265/265 266/266/266 267/267/267
f 70/70/70 263/263/263 260/260/260
f 71/71/71 266/266/266 263/263/263
f 72/72/72 260/260/260 266/266/266
f 263/263/263 266/266/266 260/260/260
f 19/19/19 258/258/258 247/247/247
f 69/69/69 268/268/268 258/258/258
f 66/66/66 247/247/247 268/268/268
f 258/258/258 268/268/268 247/247/247
f 20/20/20 267/267/267 254/254/254
f 71/71/71 269/269/269 267/267/267
f 69/69/69 254/254/254 269/269/269
f 267/267/267 269/269/269 254/254/254
f 21/21/21 251/251/251 262/262/262
f 66/66/66 270/270/270 251/251/251
f 71/71/71 262/262/262 270/270/270
f 251/251/251 270/270/270 262/262/262
f 69/69/69 269/269/269 268/268/268
f 71/71/71 270/270/270 269/269/269
f 66/66/66 268/268/268 270/270/270
f 269/269/269 270/270/270 268/268/268
f 1/1/1 246/246/246 163/163/163
f 67/67/67 271/271/271 246/246/246
f 43/43/43 163/163/163 271/271/271
f 246/246/246 271/271/271 163/163/163
f 21/21/21 272/272/272 249/249/249
f 73/73/73 273/273/273 272/272/272
f 67/67/67 249/249/249 273/273/273
f 272/272/272 273/273/273 249/249/249
f 13/13/13 168/168/168 275/275/275
f 43/43/43 274/274/274 168/168/168
f 73/73/73 275/275/275 274/274/274
f 168/168/168 274/274/274 275/275/275
f 67/67/67 273/273/273 271/271/271
f 73/73/73 274/274/274 273/273/273
f 43/43/43 271/271/271 274/274/274
f 273/273/273 274/274/274 271/271/271
f 11/11/11 276/276/276 259/259/259
f 74/74/74 277/277/277 276/276/276
f 70/70/70 259/259/259 277/277/277
f 276/276/276 277/277/277 259/259/259
f 22/22/22 278/278/278 280/280/280
f 75/75/75 279/279/279 278/278/278
f 74/74/74 280/280/280 279/279/279
f 278/278/278 279/279/279 280/280/280
f 21/21/21 264/264/264 282/282/282
f 70/70/70 281/281/281 264/264/264
f 75/75/75 282/282/282 281/281/281
f 264/264/264 281/281/281 282/282/282
f 74/74/74 279/279/279 277/277/277
f 75/75/75 281/281/281 279/279/279
f 70/70/70 277/277/277 281/281/281
f 279/279/279 281/281/281 277/277/277
f 12/12/12 174/174/174 284/284/284
f 48/48/48 283/283/283 174/174/174
f 77/77/77 284/284/284 283/283/283
f 174/174/174 283/283/283 284/284/284
f 13/13/13 285/285/285 178/178/178
f 76/76/76 286/286/286 285/285/285
f 48/48/48 178/178/178 286/286/286
f 285/285/285 286/286/286 178/178/178
f 22/22/22 287/287/287 289/289/289
f 77/77/77 288/288/288 287/287/287
f 76/76/76 289/289/289 288/288/288
f 287/287/287 288/288/288 289/289/289
f 48/48/48 286/286/286 283/283/283
f 76/76/76 288/288/288 286/286/286
f 77/77/77 283/283/283 288/288/288
f 286/286/286 288/288/288 283/283/283
f 21/21/21 282/282/282 272/272/272
f 75/75/75 290/290/290 282/282/282
f 73/73/73 272/272/272 290/290/290
f 282/282/282 290/290/290 272/272/272
f 22/22/22 289/289/289 278/278/278
f 76/76/76 291/291/291 289/289/289
f 75/75/75 278/278/278 291/291/291
f 289/289/289 291/291/291 278/278/278
f 13/13/13 275/275/275 285/285/285
f 73/73/73 292/292/292 275/275/275
f 76/76/76 285/285/285 292/292/292
f 275/275/275 292/292/292 285/285/285
f 75/75/75 291/291/291 290/290/290
f 76/76/76 292/292/292 291/291/291
f 73/73/73 290/290/290 292/292/292
f 291/291/291 292/292/292 290/290/290
f 2/2/2 209/209/209 294/294/294
f 58/58/58 293/293/293 209/209/209
f 79/79/79 294/294/294 293/293/293
f 209/209/209 293/293/293 294/294/294
f 16/16/16 295/295/295 213/213/213
f 78/78/78 296/296/296 295/295/295
f 58/58/58 213/213/213 296/296/296
f 295/295/295 296/296/296 213/213/213
f 24/24/24 297/297/297 299/299/299
f 79/79/79 298/298/298 297/297/297
f 78/78/78 299/299/299 298/298/298
f 297/297/297 298/298/298 299/299/299
f 58/58/58 296/296/296 293/293/293
f 78/78/78 298/298/298 296/296/296
f 79/79/79 293/293/293 298/298/298
f 296/296/296 298/298/298 293/293/293
f 6/6/6 300/300/300 200/200/200
f 80/80/80 301/301/301 300/300/300
f 54/54/54 200/200/200 301/301/301
f 300/300/300 301/301/301 200/200/200
f 23/23/23 302/302/302 304/304/304
f 81/81/81 303/303/303 302/302/302
f 80/80/80 304/304/304 303/303/303
f 302/302/302 303/303/303 304/304/304
f 16/16/16 204/204/204 306/306/306
f 54/54/54 305/305/305 204/204/204
f 81/81/81 306/306/306 305/305/305
f 204/204/204 305/305/305 306/306/306
f 80/80/80 303/303/303 301/301/301
f 81/81/81 305/305/305 303/303/303
f 54/54/54 301/301/301 305/305/305
f 303/303/303 305/305/305 301/301/301
f 10/10/10 307/307/307 309/309/309
f 82/82/82 308/308/308 307/307/307
f 84/84/84 309/309/309 308/308/308
f 307/307/307 308/308/308 309/309/309
f 24/24/24 310/310/310 312/312/312
f 83/83/83 311/311/311 310/310/310
f 82/82/82 312/312/312 311/311/311
f 310/310/310 311/311/311 312/312/312
f 23/23/23 313/313/313 315/315/315
f 84/84/84 314/314/314 313/313/313
f 83/83/83 315/315/315 314/314/314
f 313/313/313 314/314/314 315/315/315
f 82/82/82 311/311/311 308/308/308
f 83/83/83 314/314/314 311/311/311
f 84/84/84 308/308/308 314/314/314
f 311/311/311 314/314/314 308/308/308
f 16/16/16 306/306/306 295/295/295
f 81/81/81 316/316/316 306/306/306
f 78/78/78 295/295/295 316/316/316
f 306/306/306 316/316/316 295/295/295
f 23/23/23 315/315/315 302/302/302
f 83/83/83 317/317/317 315/315/315
f 81/81/81 302/302/302 317/317/317
f 315/315/315 317/317/317 302/302/302
f 24/24/24 299/299/299 310/310/310
f 78/78/78 318/318/318 299/299/299
f 83/83/83 310/310/310 318/318/318
f 299/299/299 318/318/318 310/310/310
f 81/81/81 317/317/317 316/316/316
f 83/83/83 318/318/318 317/317/317
f 78/78/78 316/316/316 318/318/318
f 317/317/317 318/318/318 316/316/316
f 6/6/6 183/183/183 320/320/320
f 51/51/51 319/319/319 183/183/183
f 86/86/86 320/320/320 319/319/319
f 183/183/183 319/319/319 320/320/320
f 14/14/14 321/321/321 187/187/187
f 85/85/85 322/322/322 321/321/321
f 51/51/51 187/187/187 322/322/322
f 321/321/321 322/322/322 187/187/187
f 26/26/26 323/323/323 325/325/325
f 86/86/86 324/324/324 323/323/323
f 85/85/85 325/325/325 324/324/324
f 323/323/323 324/324/324 325/325/325
f 51/51/51 322/322/322 319/319/319
f 85/85/85 324/324/324 322/322/322
f 86/86/86 319/319/319 324/324/324
f 322/322/322 324/324/324 319/319/319
f 12/12/12 326/326/326 172/172/172
f 87/87/87 327/327/327 326/326/326
f 46/46/46 172/172/172 327/327/327
f 326/326/326 327/327/327 172/172/172
f 25/25/25 328/328/328 330/330/330
f 88/88/88 329/329/329 328/328/328
f 87/87/87 330/330/330 329/329/329
f 328/328/328 329/329/329 330/330/330
f 14/14/14 177/177/177 332/332/332
f 46/46/46 331/331/331 177/177/177
f 88/88/88 332/332/332 331/331/331
f 177/177/177 331/331/331 332/332/332
f 87/87/87 329/329/329 327/327/327
f 88/88/88 331/331/331 329/329/329
f 46/46/46 327/327/327 331/331/331
f 329/329/329 331/331/331 327/327/327
f 5/5/5 333/333/333 335/335/335
f 89/89/89 334/334/334 333/333/333
f 91/91/91 335/335/335 334/334/334
f 333/333/333 334/334/334 335/335/335
f 26/26/26 336/336/336 338/338/338
f 90/90/90 337/337/337 336/336/336
f 89/89/89 338/338/338 337/337/337
f 336/336/336 337/337/337 338/338/338
f 25/25/25 339/339/339 341/341/341
f 91/91/91 340/340/340 339/339/339
f 90/90/90 341/341/341 340/340/340
f 339/339/339 340/340/340 341/341/341
f 89/89/89 337/337/337 334/334/334
f 90/90/90 340/340/340 337/337/337
f 91/91/91 334/334/334 340/340/340
f 337/337/337 340/340/340 334/334/334
f 14/14/14 332/332/332 321/321/321
f 88/88/88 342/342/342 332/332/332
f 85/85/85 321/321/321 342/342/342
f 332/332/332 342/342/342 321/321/321
f 25/25/25 341/341/341 328/328/328
f 90/90/90 343/343/343 341/341/341
f 88/88/88 328/328/328 343/343/343
f 341/341/341 343/343/343 328/328/328
f 26/26/26 325/325/325 336/336/336
f 85/85/85 344/344/344 325/325/325
f 90/90/90 336/336/336 344/344/344
f 325/325/325 344/344/344 336/336/336
f 88/88/88 343/343/343 342/342/342
f 90/90/90 344/344/344 343/343/343
f 85/85/85 342/342/342 344/344/344
f 343/343/343 344/344/344 342/342/342
f 12/12/12 284/284/284 346/346/346
f 77/77/77 345/345/345 284/284/284
f 93/93/93 346/346/346 345/345/345
f 284/284/284 345/345/345 346/346/346
f 22/22/22 347/347/347 287/287/287
f 92/92/92 348/348/348 347/347/347
f 77/77/77 287/287/287 348/348/348
f 347/347/347 348/348/348 287/287/287
f 28/28/28 349/349/349 351/351/351
f 93/93/93 350/350/350 349/349/349
f 92/92/92 351/351/351 350/350/350
f 349/349/349 350/350/350 351/351/351
f 77/77/77 348/348/348 345/345/345
f 92/92/92 350/350/350 348/348/348
f 93/93/93 345/345/345 350/350/350
f 348/348/348 350/350/350 345/345/345
f 11/11/11 352/352/352 276/276/276
f 94/94/94 353/353/353 352/352/352
f 74/74/74 276/276/276 353/353/353
f 352/352/352 353/353/353 276/276/276
f 27/27/27 354/354/354 356/356/356
f 95/95/95 355/355/355 354/354/354
f 94/94/94 356/356/356 355/355/355
f 354/354/354 355/355/355 356/356/356
f 22/22/22 280/280/280 358/358/358
f 74/74/74 357/357/357 280/280/280
f 95/95/95 358/358/358 357/357/357
f 280/280/280 357/357/357 358/358/358
f 94/94/94 355/355/355 353/353/353
f 95/95/95 357/357/357 355/355/355
f 74/74/74 353/353/353 357/357/357
f 355/355/355 357/357/357 353/353/353
f 3/3/3 359/359/359 361/361/361
f 96/96/96 360/360/360 359/359/359
f 98/98/98 361/361/361 360/360/360
f 359/359/359 360/360/360 361/361/361
f 28/28/28 362/362/362 364/364/364
f 97/97/97 363/363/363 362/362/362
f 96/96/96 364/364/364 363/363/363
f 362/362/362 363/363/363 364/364/364
f 27/27/27 365/365/365 367/367/367
f 98/98/98 366/366/366 365/365/365
f 97/97/97 367/367/367 366/366/366
f 365/365/365 366/366/366 367/367/367
f 96/96/96 363/363/363 360/360/360
f 97/97/97 366/366/366 363/363/363
f 98/98/98 360/360/360 366/366/366
f 363/363/363 366/366/366 360/360/360
f 22/22/22 358/358/358 347/347/347
f 95/95/95 368/368/368 358/358/358
f 92/92/92 347/347/347 368/368/368
f 358/358/358 368/368/368 347/347/347
f 27/27/27 367/367/367 354/354/354
f 97/97/97 369/369/369 367/367/367
f 95/95/95 354/354/354 369/369/369
f 367/367/367 369/369/369 354/354/354
f 28/28/28 351/351/351 362/362/362
f 92/92/92 370/370/370 351/351/351
f 97/97/97 362/362/362 370/370/370
f 351/351/351 370/370/370 362/362/362
f 95/95/95 369/369/369 368/368/368
f 97/97/97 370/370/370 369/369/369
f 92/92/92 368/368/368 370/370/370
f 369/369/369 370/370/370 368/368/368
f 11/11/11 261/261/261 372/372/372
f 72/72/72 371/371/371 261/261/261
f 100/100/100 372/372/372 371/371/371
f 261/261/261 371/371/371 372/372/372
f 20/20/20 373/373/373 265/265/265
f 99/99/99 374/374/374 373/373/373
f 72/72/72 265/265/265 374/374/374
f 373/373/373 374/374/374 265/265/265
f 30/30/30 375/375/375 377/377/377
f 100/100/100 376/376/376 375/375/375
f 99/99/99 377/377/377 376/376/376
f 375/375/375 376/376/376 377/377/377
f 72/72/72 374/374/374 371/371/371
f 99/99/99 376/376/376 374/374/374
f 100/100/100 371/371/371 376/376/376
f 374/374/374 376/376/376 371/371/371
f 8/8/8 378/378/378 252/252/252
f 101/101/101 379/379/379 378/378/378
f 68/68/68 252/252/252 379/379/379
f 378/378/378 379/379/379 252/252/252
f 29/29/29 380/380/380 382/382/382
f 102/102/102 381/381/381 380/380/380
f 101/101/101 382/382/382 381/381/381
f 380/380/380 381/381/381 382/382/382
f 20/20/20 256/256/256 384/384/384
f 68/68/68 383/383/383 256/256/256
f 102/102/102 384/384/384 383/383/383
f 256/256/256 383/383/383 384/384/384
f 101/101/101 381/381/381 379/379/379
f 102/102/102 383/383/383 381/381/381
f 68/68/68 379/379/379 383/383/383
f 381/381/381 383/383/383 379/379/379
f 7/7/7 385/385/385 387/387/387
f 103/103/103 386/386/386 385/385/385
f 105/105/105 387/387/387 386/386/386
f 385/385/385 386/386/386 387/387/387
f 30/30/30 388/388/388 390/390/390
f 104/104/104 389/389/389 388/388/388
f 103/103/103 390/390/390 389/389/389
f 388/388/388 389/389/389 390/390/390
f 29/29/29 391/391/391 393/393/393
f 105/105/105 392/392/392 391/391/391
f 104/104/104 393/393/393 392/392/392
f 391/391/391 392/392/392 393/393/393
f 103/103/103 389/389/389 386/386/386
f 104/104/104 392/392/392 389/389/389
f 105/105/105 386/386/386 392/392/392
f 389/389/389 392/392/392 386/386/386
f 20/20/20 384/384/384 373/373/373
f 102/102/102 394/394/394 384/384/384
f 99/99/99 373/373/373 394/394/394
f 384/384/384 394/394/394 373/373/373
f 29/29/29 393/393/393 380/380/380
f 104/104/104 395/395/395 393/393/393
f 102/102/102 380/380/380 395/395/395
f 393/393/393 395/395/395 380/380/380
f 30/30/30 377/377/377 388/388/388
f 99/99/99 396/396/396 377/377/377
f 104/104/104 388/388/388 396/396/396
f 377/377/377 396/396/396 388/388/388
f 102/102/102 395/395/395 394/394/394
f 104/104/104 396/396/396 395/395/395
f 99/99/99 394/394/394 396/396/396
f 395/395/395 396/396/396 394/394/394
f 8/8/8 235/235/235 398/398/398
f 65/65/65 397/397/397 235/235/235
f 107/107/107 398/398/398 397/397/397
f 235/235/235 397/397/397 398/398/398
f 18/18/18 399/399/399 239/239/239
f 106/106/106 400/400/400 399/399/399
f 65/65/65 239/239/239 400/400/400
f 399/399/399 400/400/400 239/239/239
f 32/32/32 401/401/401 403/403/403
f 107/107/107 402/402/402 401/401/401
f 106/106/106 403/403/403 402/402/402
f 401/401/401 402/402/402 403/403/403
f 65/65/65 400/400/400 397/397/397
f 106/106/106 402/402/402 400/400/400
f 107/107/107 397/397/397 402/402/402
f 400/400/400 402/402/402 397/397/397
f 2/2/2 404/404/404 226/226/226
f 108/108/108 405/405/405 404/404/404
f 61/61/61 226/226/226 405/405/405
f 404/404/404 405/405/405 226/226/226
f 31/31/31 406/406/406 408/408/408
f 109/109/109 407/407/407 406/406/406
f 108/108/108 408/408/408 407/407/407
f 406/406/406 407/407/407 408/408/408
f 18/18/18 230/230/230 410/410/410
f 61/61/61 409/409/409 230/230/230
f 109/109/109 410/410/410 409/409/409
f 230/230/230 409/409/409 410/410/410
f 108/108/108 407/407/407 405/405/405
f 109/109/109 409/409/409 407/407/407
f 61/61/61 405/405/405 409/409/409
f 407/407/407 409/409/409 405/405/405
f 9/9/9 411/411/411 413/413/413
f 110/110/110 412/412/412 411/411/411
f 112/112/112 413/413/413 412/412/412
f 411/411/411 412/412/412 413/413/413
f 32/32/32 414/414/414 416/416/416
f 111/111/111 415/415/415 414/414/414
f 110/110/110 416/416/416 415/415/415
f 414/414/414 415/415/415 416/416/416
f 31/31/31 417/417/417 419/419/419
f 112/112/112 418/418/418 417/417/417
f 111/111/111 419/419/419 418/418/418
f 417/417/417 418/418/418 419/419/419
f 110/110/110 415/415/415 412/412/412
f 111/111/111 418/418/418 415/415/415
f 112/112/112 412/412/412 418/418/418
f 415/415/415 418/418/418 412/412/412
f 18/18/18 410/410/410 399/399/399
f 109/109/109 420/420/420 410/410/410
f 106/106/106 399/399/399 420/420/420
f 410/410/410 420/420/420 399/399/399
f 31/31/31 419/419/419 406/406/406
f 111/111/111 421/421/421 419/419/419
f 109/109/109 406/406/406 421/421/421
f 419/419/419 421/421/421 406/406/406
f 32/32/32 403/403/403 414/414/414
f 106/106/106 422/422/422 403/403/403
f 111/111/111 414/414/414 422/422/422
f 403/403/403 422/422/422 414/414/414
f 109/109/109 421/421/421 420/420/420
f 111/111/111 422/422/422 421/421/421
f 106/106/106 420/420/420 422/422/422
f 421/421/421 422/422/422 420/420/420
f 4/4/4 423/423/423 425/425/425
f 113/113/113 424/424/424 423/423/423
f 115/115/115 425/425/425 424/424/424
f 423/423/423 424/424/424 425/425/425
f 33/33/33 426/426/426 428/428/428
f 114/114/114 427/427/427 426/426/426
f 113/113/113 428/428/428 427/427/427
f 426/426/426 427/427/427 428/428/428
f 35/35/35 429/429/429 431/431/431
f 115/115/115 430/430/430 429/429/429
f 114/114/114 431/431/431 430/430/430
f 429/429/429 430/430/430 431/431/431
f 113/113/113 427/427/427 424/424/424
f 114/114/114 430/430/430 427/427/427
f 115/115/115 424/424/424 430/430/430
f 427/427/427 430/430/430 424/424/424
f 10/10/10 432/432/432 434/434/434
f 116/116/116 433/433/433 432/432/432
f 118/118/118 434/434/434 433/433/433
f 432/432/432 433/433/433 434/434/434
f 34/34/34 435/435/435 437/437/437
f 117/117/117 436/436/436 435/435/435
f 116/116/116 437/437/437 436/436/436
f 435/435/435 436/436/436 437/437/437
f 33/33/33 438/438/438 440/440/440
f 118/118/118 439/439/439 438/438/438
f 117/117/117 440/440/440 439/439/439
f 438/438/438 439/439/439 440/440/440
f 116/116/116 436/436/436 433/433/433
f 117/117/117 439/439/439 436/436/436
f 118/118/118 433/433/433 439/439/439
f 436/436/436 439/439/439 433/433/433
f 5/5/5 441/441/441 443/443/443
f 119/119/119 442/442/442 441/441/441
f 121/121/121 443/443/443 442/442/442
f 441/441/441 442/442/442 443/443/443
f 35/35/35 444/444/444 446/446/446
f 120/120/120 445/445/445 444/444/444
f 119/119/119 446/446/446 445/445/445
f 444/444/444 445/445/445 446/446/446
f 34/34/34 447/447/447 449/449/449
f 121/121/121 448/448/448 447/447/447
f 120/120/120 449/449/449 448/448/448
f 447/447/447 448/448/448 449/449/449
f 119/119/119 445/445/445 442/442/442
f 120/120/120 448/448/448 445/445/445
f 121/121/121 442/442/442 448/448/448
f 445/445/445 448/448/448 442/442/442
f 33/33/33 440/440/440 426/426/426
f 117/117/117 450/450/450 440/440/440
f 114/114/114 426/426/426 450/450/450
f 440/440/440 450/450/450 426/426/426
f 34/34/34 449/449/449 435/435/435
f 120/120/120 451/451/451 449/449/449
f 117/117/117 435/435/435 451/451/451
f 449/449/449 451/451/451 435/435/435
f 35/35/35 431/431/431 444/444/444
f 114/114/114 452/452/452 431/431/431
f 120/120/120 444/444/444 452/452/452
f 431/431/431 452/452/452 444/444/444
f 117/117/117 451/451/451 450/450/450
f 120/120/120 452/452/452 451/451/451
f 114/114/114 450/450/450 452/452/452
f 451/451/451 452/452/452 450/450/450
f 4/4/4 425/425/425 454/454/454
f 115/115/115 453/453/453 425/425/425
f 123/123/123 454/454/454 453/453/453
f 425/425/425 453/453/453 454/454/454
f 35/35/35 455/455/455 429/429/429
f 122/122/122 456/456/456 455/455/455
f 115/115/115 429/429/429 456/456/456
f 455/455/455 456/456/456 429/429/429
f 37/37/37 457/457/457 459/459/459
f 123/123/123 458/458/458 457/457/457
f 122/122/122 459/459/459 458/458/458
f 457/457/457 458/458/458 459/459/459
f 115/115/115 456/456/456 453/453/453
f 122/122/122 458/458/458 456/456/456
f 123/123/123 453/453/453 458/458/458
f 456/456/456 458/458/458 453/453/453
f 5/5/5 460/460/460 441/441/441
f 124/124/124 461/461/461 460/460/460
f 119/119/119 441/441/441 461/461/461
f 460/460/460 461/461/461 441/441/441
f 36/36/36 462/462/462 464/464/464
f 125/125/125 463/463/463 462/462/462
f 124/124/124 464/464/464 463/463/463
f 462/462/462 463/463/463 464/464/464
f 35/35/35 446/446/446 466/466/466
f 119/119/119 465/465/465 446/446/446
f 125/125/125 466/466/466 465/465/465
f 446/446/446 465/465/465 466/466/466
f 124/124/124 463/463/463 461/461/461
f 125/125/125 465/465/465 463/463/463
f 119/119/119 461/461/461 465/465/465
f 463/463/463 465/465/465 461/461/461
f 3/3/3 467/467/467 469/469/469
f 126/126/126 468/468/468 467/467/467
f 128/128/128 469/469/469 468/468/468
f 467/467/467 468/468/468 469/469/469
f 37/37/37 470/470/470 472/472/472
f 127/127/127 471/471/471 470/470/470
f 126/126/126 472/472/472 471/471/471
f 470/470/470 471/471/471 472/472/472
f 36/36/36 473/473/473 475/475/475
f 128/128/128 474/474/474 473/473/473
f 127/127/127 475/475/475 474/474/474
f 473/473/473 474/474/474 475/475/475
f 126/126/126 471/471/471 468/468/468
f 127/127/127 474/474/474 471/471/471
f 128/128/128 468/468/468 474/474/474
f 471/471/471 474/474/474 468/468/468
f 35/35/35 466/466/466 455/455/455
f 125/125/125 476/476/476 466/466/466
f 122/122/122 455/455/455 476/476/476
f 466/466/466 476/476/476 455/455/455
f 36/36/36 475/475/475 462/462/462
f 127/127/127 477/477/477 475/475/475
f 125/125/125 462/462/462 477/477/477
f 475/475/475 477/477/477 462/462/462
f 37/37/37 459/459/459 470/470/470
f 122/122/122 478/478/478 459/459/459
f 127/127/127 470/470/470 478/478/478
f 459/459/459 478/478/478 470/470/470
f 125/125/125 477/477/477 476/476/476
f 127/127/127 478/478/478 477/477/477
f 122/122/122 476/476/476 478/478/478
f 477/477/477 478/478/478 476/476/476
f 4/4/4 454/454/454 480/480/480
f 123/123/123 479/479/479 454/454/454
f 130/130/130 480/480/480 479/479/479
f 454/454/454 479/479/479 480/480/480
f 37/37/37 481/481/481 457/457/457
f 129/129/129 482/482/482 481/481/481
f 123/123/123 457/457/457 482/482/482
f 481/481/481 482/482/482 457/457/457
f 39/39/39 483/483/483 485/485/485
f 130/130/130 484/484/484 483/483/483
f 129/129/129 485/485/485 484/484/484
f 483/483/483 484/484/484 485/485/485
f 123/123/123 482/482/482 479/479/479
f 129/129/129 484/484/484 482/482/482
f 130/130/130 479/479/479 484/484/484
f 482/482/482 484/484/484 479/479/479
f 3/3/3 486/486/486 467/467/467
f 131/131/131 487/487/487 486/486/486
f 126/126/126 467/467/467 487/487/487
f 486/486/486 487/487/487 467/467/467
f 38/38/38 488/488/488 490/490/490
f 132/132/132 489/489/489 488/488/488
f 131/131/131 490/490/490 489/489/489
f 488/488/488 489/489/489 490/490/490
f 37/37/37 472/472/472 492/492/492
f 126/126/126 491/491/491 472/472/472
f 132/132/132 492/492/492 491/491/491
f 472/472/472 491/491/491 492/492/492
f 131/131/131 489/489/489 487/487/487
f 132/132/132 491/491/491 489/489/489
f 126/126/126 487/487/487 491/491/491
f 489/489/489 491/491/491 487/487/487
f 7/7/7 493/493/493 495/495/495
f 133/133/133 494/494/494 493/493/493
f 135/135/135 495/495/495 494/494/494
f 493/493/493 494/494/494 495/495/495
f 39/39/39 496/496/496 498/498/498
f 134/134/134 497/497/497 496/496/496
f 133/133/133 498/498/498 497/497/497
f 496/496/496 497/497/497 498/498/498
f 38/38/38 499/499/499 501/501/501
f 135/135/135 500/500/500 499/499/499
f 134/134/134 501/501/501 500/500/500
f 499/499/499 500/500/500 501/501/501
f 133/133/133 497/497/497 494/494/494
f 134/134/134 500/500/500 497/497/497
f 135/135/135 494/494/494 500/500/500
f 497/497/497 500/500/500 494/494/494
f 37/37/37 492/492/492 481/481/481
f 132/132/132 502/502/502 492/492/492
f 129/129/129 481/481/481 502/502/502
f 492/492/492 502/502/502 481/481/481
f 38/38/38 501/501/501 488/488/488
f 134/134/134 503/503/503 501/501/501
f 132/132/132 488/488/488 503/503/503
f 501/501/501 503/503/503 488/488/488
f 39/39/39 485/485/485 496/496/496
f 129/129/129 504/504/504 485/485/485
f 134/134/134 496/496/496 504/504/504
f 485/485/485 504/504/504 496/496/496
f 132/132/132 503/503/503 502/502/502
f 134/134/134 504/504/504 503/503/503
f 129/129/129 502/502/502 504/504/504
f 503/503/503 504/504/504 502/502/502
f 4/4/4 480/480/480 506/506/506
f 130/130/130 505/505/505 480/480/480
f 137/137/137 506/506/506 505/505/505
f 480/480/480 505/505/505 506/506/506
f 39/39/39 507/507/507 483/483/483
f 136/136/136 508/508/508 507/507/507
f 130/130/130 483/483/483 508/508/508
f 507/507/507 508/508/508 483/483/483
f 41/41/41 509/509/509 511/511/511
f 137/137/137 510/510/510 509/509/509
f 136/136/136 511/511/511 510/510/510
f 509/509/509 510/510/510 511/511/511
f 130/130/130 508/508/508 505/505/505
f 136/136/136 510/510/510 508/508/508
f 137/137/137 505/505/505 510/510/510
f 508/508/508 510/510/510 505/505/505
f 7/7/7 512/512/512 493/493/493
f 138/138/138 513/513/513 512/512/512
f 133/133/133 493/493/493 513/513/513
f 512/512/512 513/513/513 493/493/493
f 40/40/40 514/514/514 516/516/516
f 139/139/139 515/515/515 514/514/514
f 138/138/138 516/516/516 515/515/515
f 514/514/514 515/515/515 516/516/516
f 39/39/39 498/498/498 518/518/518
f 133/133/133 517/517/517 498/498/498
f 139/139/139 518/518/518 517/517/517
f 498/498/498 517/517/517 518/518/518
f 138/138/138 515/515/515 513/513/513
f 139/139/139 517/517/517 515/515/515
f 133/133/133 513/513/513 517/517/517
f 515/515/515 517/517/517 513/513/513
f 9/9/9 519/519/519 521/521/521
f 140/140/140 520/520/520 519/519/519
f 142/142/142 521/521/521 520/520/520
f 519/519/519 520/520/520 521/521/521
f 41/41/41 522/522/522 524/524/524
f 141/141/141 523/523/523 522/522/522
f 140/140/140 524/524/524 523/523/523
f 522/522/522 523/523/523 524/524/524
f 40/40/40 525/525/525 527/527/527
f 142/142/142 526/526/526 525/525/525
f 141/141/141 527/527/527 526/526/526
f 525/525/525 526/526/526 527/527/527
f 140/140/140 523/523/523 520/520/520
f 141/141/141 526/526/526 523/523/523
f 142/142/142 520/520/520 526/526/526
f 523/523/523 526/526/526 520/520/520
f 39/39/39 518/518/518 507/507/507
f 139/139/139 528/528/528 518/518/518
f 136/136/136 507/507/507 528/528/528
f 518/518/518 528/528/528 507/507/507
f 40/40/40 527/527/527 514/514/514
f 141/141/141 529/529/529 527/527/527
f 139/139/139 514/514/514 529/529/529
f 527/527/527 529/529/529 514/514/514
f 41/41/41 511/511/511 522/522/522
f 136/136/136 530/530/530 511/511/511
f 141/141/141 522/522/522 530/530/530
f 511/511/511 530/530/530 522/522/522
f 139/139/139 529/529/529 528/528/528
f 141/141/141 530/530/530 529/529/529
f 136/136/136 528/528/528 530/530/530
f 529/529/529 530/530/530 528/528/528
f 4/4/4 506/506/506 423/423/423
f 137/137/137 531/531/531 506/506/506
f 113/113/113 423/423/423 531/531/531
f 506/506/506 531/531/531 423/423/423
f 41/41/41 532/532/532 509/509/509
f 143/143/143 533/533/533 532/532/532
f 137/137/137 509/509/509 533/533/533
f 532/532/532 533/533/533 509/509/509
f 33/33/33 428/428/428 535/535/535
f 113/113/113 534/534/534 428/428/428
f 143/143/143 535/535/535 534/534/534
f 428/428/428 534/534/534 535/535/535
f 137/137/137 533/533/533 531/531/531
f 143/143/143 534/534/534 533/533/533
f 113/113/113 531/531/531 534/534/534
f 533/533/533 534/534/534 531/531/531
f 9/9/9 536/536/536 519/519/519
f 144/144/144 537/537/537 536/536/536
f 140/140/140 519/519/519 537/537/537
f 536/536/536 537/537/537 519/519/519
f 42/42/42 538/538/538 540/540/540
f 145/145/145 539/539/539 538/538/538
f 144/144/144 540/540/540 539/539/539
f 538/538/538 539/539/539 540/540/540
f 41/41/41 524/524/524 542/542/542
f 140/140/140 541/541/541 524/524/524
f 145/145/145 542/542/542 541/541/541
f 524/524/524 541/541/541 542/542/542
f 144/144/144 539/539/539 537/537/537
f 145/145/145 541/541/541 539/539/539
f 140/140/140 537/537/537 541/541/541
f 539/539/539 541/541/541 537/537/537
f 10/10/10 434/434/434 544/544/544
f 118/118/118 543/543/543 434/434/434
f 147/147/147 544/544/544 543/543/543
f 434/434/434 543/543/543 544/544/544
f 33/33/33 545/545/545 438/438/438
f 146/146/146 546/546/546 545/545/545
f 118/118/118 438/438/438 546/546/546
f 545/545/545 546/546/546 438/438/438
f 42/42/42 547/547/547 549/549/549
f 147/147/147 548/548/548 547/547/547
f 146/146/146 549/549/549 548/548/548
f 547/547/547 548/548/548 549/549/549
f 118/118/118 546/546/546 543/543/543
f 146/146/146 548/548/548 546/546/546
f 147/147/147 543/543/543 548/548/548
f 546/546/546 548/548/548 543/543/543
f 41/41/41 542/542/542 532/532/532
f 145/145/145 550/550/550 542/542/542
f 143/143/143 532/532/532 550/550/550
f 542/542/542 550/550/550 532/532/532
f 42/42/42 549/549/549 538/538/538
f 146/146/146 551/551/551 549/549/549
f 145/145/145 538/538/538 551/551/551
f 549/549/549 551/551/551 538/538/538
f 33/33/33 535/535/535 545/545/545
f 143/143/143 552/552/552 535/535/535
f 146/146/146 545/545/545 552/552/552
f 535/535/535 552/552/552 545/545/545
f 145/145/145 551/551/551 550/550/550
f 146/146/146 552/552/552 551/551/551
f 143/143/143 550/550/550 552/552/552
f 551/551/551 552/552/552 550/550/550
f 5/5/5 443/443/443 333/333/333
f 121/121/121 553/553/553 443/443/443
f 89/89/89 333/333/333 553/553/553
f 443/443/443 553/553/553 333/333/333
f 34/34/34 554/554/554 447/447/447
f 148/148/148 555/555/555 554/554/554
f 121/121/121 447/447/447 555/555/555
f 554/554/554 555/555/555 447/447/447
f 26/26/26 338/338/338 557/557/557
f 89/89/89 556/556/556 338/338/338
f 148/148/148 557/557/557 556/556/556
f 338/338/338 556/556/556 557/557/557
f 121/121/121 555/555/555 553/553/553
f 148/148/148 556/556/556 555/555/555
f 89/89/89 553/553/553 556/556/556
f 555/555/555 556/556/556 553/553/553
f 10/10/10 309/309/309 432/432/432
f 84/84/84 558/558/558 309/309/309
f 116/116/116 432/432/432 558/558/558
f 309/309/309 558/558/558 432/432/432
f 23/23/23 559/559/559 313/313/313
f 149/149/149 560/560/560 559/559/559
f 84/84/84 313/313/313 560/560/560
f 559/559/559 560/560/560 313/313/313
f 34/34/34 437/437/437 562/562/562
f 116/116/116 561/561/561 437/437/437
f 149/149/149 562/562/562 561/561/561
f 437/437/437 561/561/561 562/562/562
f 84/84/84 560/560/560 558/558/558
f 149/149/149 561/561/561 560/560/560
f 116/116/116 558/558/558 561/561/561
f 560/560/560 561/561/561 558/558/558
f 6/6/6 320/320/320 300/300/300
f 86/86/86 563/563/563 320/320/320
f 80/80/80 300/300/300 563/563/563
f 320/320/320 563/563/563 300/300/300
f 26/26/26 564/564/564 323/323/323
f 150/150/150 565/565/565 564/564/564
f 86/86/86 323/323/323 565/565/565
f 564/564/564 565/565/565 323/323/323
f 23/23/23 304/304/304 567/567/567
f 80/80/80 566/566/566 304/304/304
f 150/150/150 567/567/567 566/566/566
f 304/304/304 566/566/566 567/567/567
f 86/86/86 565/565/565 563/563/563
f 150/150/150 566/566/566 565/565/565
f 80/80/80 563/563/563 566/566/566
f 565/565/565 566/566/566 563/563/563
f 34/34/34 562/562/562 554/554/554
f 149/149/149 568/568/568 562/562/562
f 148/148/148 554/554/554 568/568/568
f 562/562/562 568/568/568 554/554/554
f 23/23/23 567/567/567 559/559/559
f 150/150/150 569/569/569 567/567/567
f 149/149/149 559/559/559 569/569/569
f 567/567/567 569/569/569 559/559/559
f 26/26/26 557/557/557 564/564/564
f 148/148/148 570/570/570 557/557/557
f 150/150/150 564/564/564 570/570/570
f 557/557/557 570/570/570 564/564/564
f 149/149/149 569/569/569 568/568/568
f 150/150/150 570/570/570 569/569/569
f 148/148/148 568/568/568 570/570/570
f 569/569/569 570/570/570 568/568/568
f 3/3/3 469/469/469 359/359/359
f 128/128/128 571/571/571 469/469/469
f 96/96/96 359/359/359 571/571/571
f 469/469/469 571/571/571 359/359/359
f 36/36/36 572/572/572 473/473/473
f 151/151/151 573/573/573 572/572/572
f 128/128/128 473/473/473 573/573/573
f 572/572/572 573/573/573 473/473/473
f 28/28/28 364/364/364 575/575/575
f 96/96/96 574/574/574 364/364/364
f 151/151/151 575/575/575 574/574/574
f 364/364/364 574/574/574 575/575/575
f 128/128/128 573/573/573 571/571/571
f 151/151/151 574/574/574 573/573/573
f 96/96/96 571/571/571 574/574/574
f 573/573/573 574/574/574 571/571/571
f 5/5/5 335/335/335 460/460/460
f 91/91/91 576/576/576 335/335/335
f 124/124/124 460/460/460 576/576/576
f 335/335/335 576/576/576 460/460/460
f 25/25/25 577/577/577 339/339/339
f 152/152/152 578/578/578 577/577/577
f 91/91/91 339/339/339 578/578/578
f 577/577/577 578/578/578 339/339/339
f 36/36/36 464/464/464 580/580/580
f 124/124/124 579/579/579 464/464/464
f 152/152/152 580/580/580 579/579/579
f 464/464/464 579/579/579 580/580/580
f 91/91/91 578/578/578 576/576/576
f 152/152/152 579/579/579 578/578/578
f 124/124/124 576/576/576 579/579/579
f 578/578/578 579/579/579 576/576/576
f 12/12/12 346/346/346 326/326/326
f 93/93/93 581/581/581 346/346/346
f 87/87/87 326/326/326 581/581/581
f 346/346/346 581/581/581 326/326/326
f 28/28/28 582/582/582 349/349/349
f 153/153/153 583/583/583 582/582/582
f 93/93/93 349/349/349 583/583/583
f 582/582/582 583/583/583 349/349/349
f 25/25/25 330/330/330 585/585/585
f 87/87/87 584/584/584 330/330/330
f 153/153/153 585/585/585 584/584/584
f 330/330/330 584/584/584 585/585/585
f 93/93/93 583/583/583 581/581/581
f 153/153/153 584/584/584 583/583/583
f 87/87/87 581/581/581 584/584/584
f 583/583/583 584/584/584 581/581/581
f 36/36/36 580/580/580 572/572/572
f 152/152/152 586/586/586 580/580/580
f 151/151/151 572/572/572 586/586/586
f 580/580/580 586/586/586 572/572/572
f 25/25/25 585/585/585 577/577/577
f 153/153/153 587/587/587 585/585/585
f 152/152/152 577/577/577 587/587/587
f 585/585/585 587/587/587 577/577/577
f 28/28/28 575/575/575 582/582/582
f 151/151/151 588/588/588 575/575/575
f 153/153/153 582/582/582 588/588/588
f 575/575/575 588/588/588 582/582/582
f 152/152/152 587/587/587 586/586/586
f 153/153/153 588/588/588 587/587/587
f 151/151/151 586/586/586 588/588/588
f 587/587/587 588/588/588 586/586/586
f 7/7/7 495/495/495 385/385/385
f 135/135/135 589/589/589 495/495/495
f 103/103/103 385/385/385 589/589/589
f 495/495/495 589/589/589 385/385/385
f 38/38/38 590/590/590 499/499/499
f 154/154/154 591/591/591 590/590/590
f 135/135/135 499/499/499 591/591/591
f 590/590/590 591/591/591 499/499/499
f 30/30/30 390/390/390 593/593/593
f 103/103/103 592/592/592 390/390/390
f 154/154/154 593/593/593 592/592/592
f 390/390/390 592/592/592 593/593/593
f 135/135/135 591/591/591 589/589/589
f 154/154/154 592/592/592 591/591/591
f 103/103/103 589/589/589 592/592/592
f 591/591/591 592/592/592 589/589/589
f 3/3/3 361/361/361 486/486/486
f 98/98/98 594/594/594 361/361/361
f 131/131/131 486/486/486 594/594/594
f 361/361/361 594/594/594 486/486/486
f 27/27/27 595/595/595 365/365/365
f 155/155/155 596/596/596 595/595/595
f 98/98/98 365/365/365 596/596/596
f 595/595/595 596/596/596 365/365/365
f 38/38/38 490/490/490 598/598/598
f 131/131/131 597/597/597 490/490/490
f 155/155/155 598/598/598 597/597/597
f 490/490/490 597/597/597 598/598/598
f 98/98/98 596/596/596 594/594/594
f 155/155/155 597/597/597 596/596/596
f 131/131/131 594/594/594 597/597/597
f 596/596/596 597/597/597 594/594/594
f 11/11/11 372/372/372 352/352/352
f 100/100/100 599/599/599 372/372/372
f 94/94/94 352/352/352 599/599/599
f 372/372/372 599/599/599 352/352/352
f 30/30/30 600/600/600 375/375/375
f 156/156/156 601/601/601 600/600/600
f 100/100/100 375/375/375 601/601/601
f 600/600/600 601/601/601 375/375/375
f 27/27/27 356/356/356 603/603/603
f 94/94/94 602/602/602 356/356/356
f 156/156/156 603/603/603 602/602/602
f 356/356/356 602/602/602 603/603/603
f 100/100/100 601/601/601 599/599/599
f 156/156/156 602/602/602 601/601/601
f 94/94/94 599/599/599 602/602/602
f 601/601/601 602/602/602 599/599/599
f 38/38/38 598/598/598 590/590/590
f 155/155/155 604/604/604 598/598/598
f 154/154/154 590/590/590 604/604/604
f 598/598/598 604/604/604 590/590/590
f 27/27/27 603/603/603 595/595/595
f 156/156/156 605/605/605 603/603/603
f 155/155/155 595/595/595 605/605/605
f 603/603/603 605/605/605 595/595/595
f 30/30/30 593/593/593 600/600/600
f 154/154/154 606/606/606 593/593/593
f 156/156/156 600/600/600 606/606/606
f 593/593/593 606/606/606 600/600/600
f 155/155/155 605/605/605 604/604/604
f 156/156/156 606/606/606 605/605/605
f 154/154/154 604/604/604 606/606/606
f 605/605/605 606/606/606 604/604/604
f 9/9/9 521/521/521 411/411/411
f 142/142/142 607/607/607 521/521/521
f 110/110/110 411/411/411 607/607/607
f 521/521/521 607/607/607 411/411/411
f 40/40/40 608/608/608 525/525/525
f 157/157/157 609/609/609 608/608/608
f 142/142/142 525/525/525 609/609/609
f 608/608/608 609/609/609 525/525/525
f 32/32/32 416/416/416 611/611/611
f 110/110/110 610/610/610 416/416/416
f 157/157/157 611/611/611 610/610/610
f 416/416/416 610/610/610 611/611/611
f 142/142/142 609/609/609 607/607/607
f 157/157/157 610/610/610 609/609/609
f 110/110/110 607/607/607 610/610/610
f 609/609/609 610/610/610 607/607/607
f 7/7/7 387/387/387 512/512/512
f 105/105/105 612/612/612 387/387/387
f 138/138/138 512/512/512 612/612/612
f 387/387/387 612/612/612 512/512/512
f 29/29/29 613/613/613 391/391/391
f 158/158/158 614/614/614 613/613/613
f 105/105/105 391/391/391 614/614/614
f 613/613/613 614/614/614 391/391/391
f 40/40/40 516/516/516 616/616/616
f 138/138/138 615/615/615 516/516/516
f 158/158/158 616/616/616 615/615/615
f 516/516/516 615/615/615 616/616/616
f 105/105/105 614/614/614 612/612/612
f 158/158/158 615/615/615 614/614/614
f 138/138/138 612/612/612 615/615/615
f 614/614/614 615/615/615 612/612/612
f 8/8/8 398/398/398 378/378/378
f 107/107/107 617/617/617 398/398/398
f 101/101/101 378/378/378 617/617/617
f 398/398/398 617/617/617 378/378/378
f 32/32/32 618/618/618 401/401/401
f 159/159/159 619/619/619 618/618/618
f 107/107/107 401/401/401 619/619/619
f 618/618/618 619/619/619 401/401/401
f 29/29/29 382/382/382 621/621/621
f 101/101/101 620/620/620 382/382/382
f 159/159/159 621/621/621 620/620/620
f 382/382/382 620/620/620 621/621/621
f 107/107/107 619/619/619 617/617/617
f 159/159/159 620/620/620 619/619/619
f 101/101/101 617/617/617 620/620/620
f 619/619/619 620/620/620 617/617/617
f 40/40/40 616/616/616 608/608/608
f 158/158/158 622/622/622 616/616/616
f 157/157/157 608/608/608 622/622/622
f 616/616/616 622/622/622 608/608/608
f 29/29/29 621/621/621 613/613/613
f 159/159/159 623/623/623 621/621/621
f 158/158/158 613/613/613 623/623/623
f 621/621/621 623/623/623 613/613/613
f 32/32/32 611/611/611 618/618/618
f 157/157/157 624/624/624 611/611/611
f 159/159/159 618/618/618 624/624/624
f 611/611/611 624/624/624 618/618/618
f 158/158/158 623/623/623 622/622/622
f 159/159/159 624/624/624 623/623/623
f 157/157/157 622/622/622 624/624/624
f 623/623/623 624/624/624 622/622/622
f 10/10/10 544/544/544 307/307/307
f 147/147/147 625/625/625 544/544/544
f 82/82/82 307/307/307 625/625/625
f 544/544/544 625/625/625 307/307/307
f 42/42/42 626/626/626 547/547/547
f 160/160/160 627/627/627 626/626/626
f 147/147/147 547/547/547 627/627/627
f 626/626/626 627/627/627 547/547/547
f 24/24/24 312/312/312 629/629/629
f 82/82/82 628/628/628 312/312/312
f 160/160/160 629/629/629 628/628/628
f 312/312/312 628/628/628 629/629/629
f 147/147/147 627/627/627 625/625/625
f 160/160/160 628/628/628 627/627/627
f 82/82/82 625/625/625 628/628/628
f 627/627/627 628/628/628 625/625/625
f 9/9/9 413/413/413 536/536/536
f 112/112/112 630/630/630 413/413/413
f 144/144/144 536/536/536 630/630/630
f 413/413/413 630/630/630 536/536/536
f 31/31/31 631/631/631 417/417/417
f 161/161/161 632/632/632 631/631/631
f 112/112/112 417/417/417 632/632/632
f 631/631/631 632/632/632 417/417/417
f 42/42/42 540/540/540 634/634/634
f 144/144/144 633/633/633 540/540/540
f 161/161/161 634/634/634 633/633/633
f 540/540/540 633/633/633 634/634/634
f 112/112/112 632/632/632 630/630/630
f 161/161/161 633/633/633 632/632/632
f 144/144/144 630/630/630 633/633/633
f 632/632/632 633/633/633 630/630/630
f 2/2/2 294/294/294 404/404/404
f 79/79/79 635/635/635 294/294/294
f 108/108/108 404/404/404 635/635/635
f 294/294/294 635/635/635 404/404/404
f 24/24/24 636/636/636 297/297/297
f 162/162/162 637/637/637 636/636/636
f 79/79/79 297/297/297 637/637/637
f 636/636/636 637/637/637 297/297/297
f 31/31/31 408/408/408 639/639/639
f 108/108/108 638/638/638 408/408/408
f 162/162/162 639/639/639 638/638/638
f 408/408/408 638/638/638 639/639/639
f 79/79/79 637/637/637 635/635/635
f 162/162/162 638/638/638 637/637/637
f 108/108/108 635/635/635 638/638/638
f 637/637/637 638/638/638 635/635/635
f 42/42/42 634/634/634 626/626/626
f 161/161/161 640/640/640 634/634/634
f 160/160/160 626/626/626 640/640/640
f 634/634/634 640/640/640 626/626/626
f 31/31/31 639/639/639 631/631/631
f 162/162/162 641/641/641 639/639/639
f 161/161/161 631/631/631 641/641/641
f 639/639/639 641/641/641 631/631/631
f 24/24/24 629/629/629 636/636/636
f 160/160/160 642/642/642 629/629/629
f 162/162/162 636/636/636 642/642/642
f 629/629/629 642/642/642 636/636/636
f 161/161/161 641/641/641 640/640/640
f 162/162/162 642/642/642 641/641/641
f 160/160/160 640/640/640 642/642/642
f 641/641/641 642/642/642 640/640/640
