# generated by scripts/make_rocks.py - demonstrator scenery
v -0.55133 0.85734 0.00000
v 0.60419 0.93955 0.00000
v -0.47291 -0.73540 0.00000
v 0.60071 -0.93413 0.00000
v 0.00000 -0.53347 0.51875
v 0.00000 0.54190 0.52695
v 0.00000 -0.55207 -0.53684
v 0.00000 0.43862 -0.42652
v 1.06780 0.00000 -0.38117
v 1.03469 0.00000 0.36935
v -0.85870 0.00000 -0.30653
v -0.85223 0.00000 0.30422
v -0.87438 0.51936 0.19290
v -0.45945 0.27290 0.42938
v -0.35059 0.88212 0.32764
v 0.31650 0.79635 0.29579
v 0.00000 1.01067 0.00000
v 0.31662 0.79665 -0.29590
v -0.27491 0.69170 -0.25692
v -0.44031 0.26153 -0.41149
v -0.79868 0.47440 -0.17620
v -0.93949 0.00000 0.00000
v 0.53009 0.31486 0.49540
v 0.89698 0.53278 0.19789
v -0.44580 -0.26479 0.41663
v 0.00000 0.00000 0.57893
v -0.81319 -0.48302 -0.17941
v -0.72690 -0.43176 0.16037
v 0.00000 0.00000 -0.57298
v -0.47981 -0.28499 -0.44841
v 0.80786 0.47985 -0.17823
v 0.49328 0.29300 -0.46100
v 1.04493 -0.62066 0.23053
v 0.63457 -0.37692 0.59304
v 0.36292 -0.91315 0.33917
v -0.25849 -0.65040 0.24158
v 0.00000 -1.01504 0.00000
v -0.29574 -0.74411 -0.27638
v 0.32845 -0.82642 -0.30695
v 0.56559 -0.33595 -0.52858
v 1.11477 -0.66214 -0.24594
v 1.15008 0.00000 0.00000
v -0.75906 0.73820 0.10150
v -0.61202 0.68867 0.25579
v -0.45259 0.86482 0.15658
v -0.67383 0.14816 0.38461
v -0.70045 0.41605 0.34554
v -0.84334 0.24418 0.24499
v -0.19041 0.79044 0.48070
v -0.43813 0.58191 0.40946
v -0.26633 0.42732 0.51060
v -0.17454 0.98199 0.16312
v -0.26221 0.88708 0.00000
v 0.17622 0.73154 0.44488
v 0.00000 0.88237 0.32774
v 0.29843 1.00961 0.00000
v 0.16716 0.94048 0.15622
v 0.47793 0.91324 0.16535
v -0.14962 0.84181 -0.13983
v -0.43542 0.83202 -0.15064
v 0.47044 0.89892 -0.16275
v 0.16500 0.92831 -0.15420
v -0.13170 0.54672 -0.33248
v 0.00000 0.78528 -0.29167
v 0.14963 0.62115 -0.37775
v -0.56946 0.64078 -0.23801
v -0.73323 0.71308 -0.09805
v -0.20319 0.32602 -0.38956
v -0.35272 0.46847 -0.32964
v -0.82107 0.23773 -0.23852
v -0.63532 0.37736 -0.31341
v -0.71027 0.15618 -0.40541
v -0.86584 0.51429 0.00000
v -0.91091 0.00000 -0.14946
v -0.91871 0.24404 -0.09064
v -0.95769 0.25439 0.09449
v -0.95630 0.00000 0.15691
v 0.61935 0.69692 0.25886
v 0.76466 0.74365 0.10225
v 0.27868 0.44715 0.53429
v 0.43359 0.57589 0.40522
v 1.00588 0.29124 0.29221
v 0.74705 0.44373 0.36853
v 0.85185 0.18731 0.48622
v -0.24333 0.14453 0.50850
v 0.00000 0.27511 0.58201
v -0.63355 -0.13931 0.36162
v -0.45693 0.00000 0.42703
v 0.00000 -0.24870 0.52613
v -0.22430 -0.13323 0.46872
v -0.23359 -0.37480 0.44784
v -0.89443 -0.23759 0.08825
v -0.80980 -0.23447 0.23525
v -0.89710 -0.25974 -0.26061
v -0.96649 -0.25673 -0.09536
v -0.57743 -0.56156 0.07721
v -0.86174 -0.51185 0.00000
v -0.64204 -0.62440 -0.08585
v -0.48618 0.00000 -0.45436
v -0.70653 -0.15536 -0.40328
v 0.00000 0.22187 -0.46937
v -0.20919 0.12425 -0.43714
v -0.25097 -0.40269 -0.48117
v -0.25559 -0.15181 -0.53411
v 0.00000 -0.27695 -0.58591
v 0.39953 0.53064 -0.37338
v 0.24126 0.38711 -0.46255
v 0.73973 0.71940 -0.09892
v 0.57090 0.64240 -0.23861
v 0.73042 0.16061 -0.41691
v 0.68402 0.40629 -0.33744
v 0.93348 0.27028 -0.27118
v 0.90240 -0.87760 0.12067
v 0.76039 -0.85562 0.31780
v 0.50623 -0.96732 0.17514
v 0.92053 -0.20241 0.52543
v 0.90269 -0.53617 0.44531
v 1.11752 -0.32356 0.32464
v 0.18799 -0.78040 0.47459
v 0.53356 -0.70866 0.49864
v 0.30243 -0.48525 0.57982
v 0.17150 -0.96487 0.16027
v 0.27406 -0.92716 0.00000
v -0.15091 -0.62644 0.38096
v 0.00000 -0.90962 0.33786
v -0.26253 -0.88815 0.00000
v -0.15244 -0.85764 0.14246
v -0.35545 -0.67920 0.12297
v 0.16451 -0.92558 -0.15375
v 0.45041 -0.86065 -0.15583
v -0.41281 -0.78881 -0.14282
v -0.16220 -0.91257 -0.15159
v 0.18371 -0.76260 -0.46377
v 0.00000 -0.79421 -0.29499
v -0.16542 -0.68669 -0.41760
v 0.67784 -0.76273 -0.28330
v 0.88160 -0.85738 -0.11789
v 0.30327 -0.48659 -0.58142
v 0.48767 -0.64770 -0.45575
v 1.16491 -0.33728 -0.33841
v 0.89878 -0.53385 -0.44338
v 0.83976 -0.18465 -0.47933
v 1.11900 -0.66466 0.00000
v 1.23228 0.00000 -0.20219
v 1.28505 -0.34135 -0.12679
v 1.21182 -0.32190 0.11956
v 1.09204 0.00000 0.17918
v 0.27677 -0.16439 0.57837
v 0.62897 0.00000 0.58781
v 0.27848 0.16541 0.58196
v -0.44987 -0.50621 0.18802
v -0.35304 -0.46890 0.32994
v -0.60237 -0.35780 0.29716
v -0.39349 -0.52263 -0.36774
v -0.56425 -0.63492 -0.23583
v -0.66440 -0.39463 -0.32776
v 0.55229 0.00000 -0.51615
v 0.28326 -0.16825 -0.59194
v 0.23583 0.14008 -0.49282
v 1.05070 0.27910 0.10367
v 1.02118 0.27126 -0.10075
v 0.93296 0.55416 0.00000
v -0.65966 0.80719 0.05018
v -0.59861 0.79827 0.12893
v -0.50501 0.86656 0.07900
v -0.77474 0.63338 0.23525
v -0.67948 0.70840 0.17944
v -0.80500 0.61883 0.14530
v -0.39012 0.84367 0.23048
v -0.54021 0.78810 0.20927
v -0.47663 0.76475 0.28405
v -0.76392 0.07595 0.34655
v -0.75428 0.19482 0.31398
v -0.82411 0.12014 0.26660
v -0.55365 0.32886 0.37593
v -0.66337 0.26871 0.35320
v -0.56852 0.21347 0.41053
v -0.85865 0.37512 0.22040
v -0.80391 0.34137 0.30589
v -0.80712 0.47941 0.27924
v -0.09298 0.67843 0.51912
v -0.23855 0.61481 0.51270
v -0.13978 0.49603 0.53224
v -0.40519 0.74071 0.37867
v -0.33928 0.71317 0.46495
v -0.27198 0.83642 0.40208
v -0.37334 0.35079 0.47438
v -0.36369 0.52115 0.47543
v -0.44017 0.41000 0.41136
v -0.66503 0.55777 0.30498
v -0.56238 0.49175 0.37222
v -0.53450 0.64698 0.33932
v -0.35626 0.88343 0.07562
v -0.40163 0.87566 0.00000
v -0.25861 0.92785 0.24169
v -0.31864 0.93139 0.16133
v -0.13559 0.93556 0.00000
v -0.22201 0.93676 0.07736
v -0.08620 0.99493 0.08056
v 0.09036 0.65938 0.50454
v 0.00000 0.75440 0.45878
v 0.15743 0.81260 0.30182
v 0.08645 0.79892 0.38169
v 0.24227 0.74506 0.35816
v -0.09373 0.86618 0.41383
v -0.18153 0.93701 0.34803
v 0.46265 1.00869 0.00000
v 0.38881 0.96416 0.08253
v 0.55359 0.94991 0.08660
v 0.08653 0.99870 0.08086
v 0.23023 0.97144 0.08022
v 0.14723 1.01593 0.00000
v 0.38876 0.84074 0.22968
v 0.30947 0.90459 0.15669
v 0.23258 0.83443 0.21735
v -0.09174 0.97776 0.25720
v 0.08479 0.90371 0.23772
v 0.00000 0.99436 0.16517
v -0.34823 0.86354 -0.07392
v -0.50649 0.86909 -0.07923
v -0.07785 0.89859 -0.07276
v -0.20321 0.85745 -0.07081
v -0.36229 0.78349 -0.21404
v -0.27962 0.81732 -0.14157
v -0.22369 0.80256 -0.20905
v 0.55845 0.95824 -0.08736
v 0.39198 0.97201 -0.08321
v 0.24239 0.86964 -0.22653
v 0.31408 0.91804 -0.15902
v 0.38543 0.83354 -0.22771
v 0.23206 0.97918 -0.08086
v 0.08475 0.97814 -0.07920
v -0.06503 0.47451 -0.36309
v 0.00000 0.57709 -0.35096
v 0.07176 0.52361 -0.40065
v -0.14051 0.72529 -0.26939
v -0.07193 0.66469 -0.31756
v -0.20225 0.62199 -0.29900
v 0.23636 0.72688 -0.34942
v 0.07741 0.71539 -0.34179
v 0.15779 0.81445 -0.30251
v 0.00000 0.89871 -0.14928
v 0.08152 0.86888 -0.22855
v -0.07708 0.82160 -0.21612
v -0.59400 0.79213 -0.12794
v -0.66447 0.81308 -0.05055
v -0.42535 0.68248 -0.25349
v -0.52031 0.75907 -0.20156
v -0.76426 0.58751 -0.13795
v -0.66869 0.69715 -0.17659
v -0.70762 0.57851 -0.21487
v -0.10578 0.37537 -0.40277
v -0.17000 0.43813 -0.36536
v -0.39263 0.36571 -0.36693
v -0.27915 0.40001 -0.36492
v -0.31135 0.29254 -0.39561
v -0.23808 0.50044 -0.32626
v -0.32197 0.58859 -0.30090
v -0.83589 0.12186 -0.27041
v -0.76428 0.19740 -0.31814
v -0.78752 0.07829 -0.35725
v -0.72480 0.43051 -0.25075
v -0.74575 0.31667 -0.28376
v -0.81191 0.35470 -0.20840
v -0.57512 0.21595 -0.41529
v -0.66614 0.26983 -0.35468
v -0.53502 0.31779 -0.36327
v -0.47048 0.56948 -0.29867
v -0.49192 0.43014 -0.32558
v -0.61086 0.51233 -0.28014
v -0.74060 0.72025 0.00000
v -0.83000 0.49300 -0.08926
v -0.79597 0.60814 -0.04781
v -0.82808 0.63267 0.04974
v -0.85693 0.50899 0.09216
v -0.89764 0.00000 -0.22854
v -0.87173 0.11933 -0.19514
v -0.94654 0.12256 -0.04552
v -0.90161 0.11907 -0.11861
v -0.93520 0.00000 -0.07524
v -0.87169 0.24146 -0.16554
v -0.87579 0.36481 -0.13550
v -0.90978 0.12454 0.20366
v -0.91583 0.00000 0.23317
v -0.91120 0.37957 0.14098
v -0.88385 0.24483 0.16785
v -0.97785 0.00000 0.07867
v -0.94992 0.12545 0.12497
v -0.96904 0.12548 0.04661
v -0.91625 0.38542 -0.04772
v -0.95965 0.25491 0.00000
v -0.90791 0.38191 0.04728
v 0.63523 0.84711 0.13682
v 0.70623 0.86418 0.05373
v 0.47662 0.76474 0.28405
v 0.56049 0.81768 0.21712
v 0.82073 0.63092 0.14814
v 0.71457 0.74499 0.18870
v 0.74956 0.61279 0.22761
v 0.14402 0.51106 0.54837
v 0.23141 0.59639 0.49733
v 0.46383 0.43203 0.43347
v 0.36009 0.51601 0.47074
v 0.38538 0.36210 0.48968
v 0.32422 0.68152 0.44432
v 0.38981 0.71259 0.36430
v 0.99293 0.14475 0.32121
v 0.95580 0.24687 0.39786
v 0.95852 0.09530 0.43483
v 0.82922 0.49254 0.28688
v 0.91732 0.38952 0.34904
v 0.95723 0.41818 0.24570
v 0.71063 0.26684 0.51315
v 0.83445 0.33800 0.44429
v 0.65455 0.38879 0.44444
v 0.52152 0.63127 0.33108
v 0.56383 0.49302 0.37318
v 0.66573 0.55835 0.30530
v -0.13417 0.35087 0.54408
v 0.00000 0.41028 0.55937
v -0.36721 0.21811 0.48935
v -0.25638 0.28108 0.51377
v 0.00000 0.13764 0.59390
v -0.13140 0.20933 0.55234
v -0.12533 0.07444 0.53727
v -0.75391 -0.07495 0.34201
v -0.66849 0.00000 0.38156
v -0.44173 -0.12790 0.41282
v -0.55061 -0.06923 0.40005
v -0.52641 -0.19766 0.38012
v -0.57823 0.07270 0.42011
v -0.47659 0.13799 0.44540
v 0.00000 -0.38593 0.52617
v -0.12171 -0.31826 0.49352
v -0.12142 -0.43086 0.46231
v -0.11748 -0.06978 0.50364
v -0.11924 -0.18995 0.50120
v 0.00000 -0.12845 0.55422
v -0.34542 -0.32455 0.43890
v -0.24244 -0.26580 0.48583
v -0.34305 -0.20376 0.45714
v -0.35418 0.07012 0.46737
v -0.33403 -0.06613 0.44079
v -0.22405 0.00000 0.46821
v -0.91878 -0.12577 0.20567
v -0.85479 -0.12461 0.27653
v -0.94815 -0.12277 0.04560
v -0.91734 -0.12114 0.12068
v -0.78121 -0.34129 0.20052
v -0.84558 -0.23423 0.16058
v -0.83266 -0.34685 0.12883
v -0.86559 -0.12619 -0.28002
v -0.93026 -0.12734 -0.20824
v -0.92419 -0.38498 -0.14299
v -0.93631 -0.25936 -0.17781
v -0.85518 -0.37360 -0.21951
v -0.95962 -0.12673 -0.12625
v -0.97031 -0.12564 -0.04667
v -0.52496 -0.64237 0.03994
v -0.63143 -0.61408 0.00000
v -0.56669 -0.69343 -0.04311
v -0.80213 -0.47645 0.08626
v -0.70195 -0.53631 0.04217
v -0.64990 -0.49960 0.11731
v -0.74105 -0.56967 -0.13376
v -0.74721 -0.57088 -0.04488
v -0.83797 -0.49774 -0.09012
v -0.94712 -0.25159 0.00000
v -0.92951 -0.39100 -0.04841
v -0.89210 -0.37527 0.04646
v -0.73678 0.00000 -0.42055
v -0.81423 -0.08095 -0.36937
v -0.47494 0.13751 -0.44386
v -0.61433 0.07724 -0.44634
v -0.59291 -0.22263 -0.42814
v -0.61362 -0.07715 -0.44583
v -0.48362 -0.14003 -0.45197
v 0.00000 0.33079 -0.45099
v -0.10227 0.26745 -0.41472
v -0.11824 0.07023 -0.50689
v -0.10639 0.16949 -0.44721
v 0.00000 0.11971 -0.51653
v -0.20071 0.22005 -0.40221
v -0.31474 0.18695 -0.41943
v -0.13313 -0.47242 -0.50691
v -0.13537 -0.35400 -0.54894
v 0.00000 -0.41923 -0.57157
v -0.36088 -0.21435 -0.48091
v -0.25913 -0.28410 -0.51928
v -0.35624 -0.33472 -0.45265
v 0.00000 -0.13929 -0.60100
v -0.13502 -0.21510 -0.56754
v -0.12959 -0.07697 -0.55554
v -0.34562 0.06843 -0.45608
v -0.23386 0.00000 -0.48870
v -0.35847 -0.07097 -0.47305
v 0.19475 0.50191 -0.41854
v 0.12015 0.42637 -0.45750
v 0.36600 0.66907 -0.34205
v 0.28159 0.59190 -0.38589
v 0.35272 0.33142 -0.44818
v 0.31530 0.45181 -0.41217
v 0.43687 0.40692 -0.40828
v 0.67933 0.83126 -0.05168
v 0.61360 0.81826 -0.13216
v 0.69519 0.56834 -0.21110
v 0.64805 0.67564 -0.17114
v 0.76380 0.58716 -0.13787
v 0.54415 0.79384 -0.21079
v 0.46341 0.74354 -0.27617
v 0.86420 0.08592 -0.39204
v 0.85172 0.21999 -0.35454
v 1.02897 0.15001 -0.33287
v 0.59765 0.35499 -0.40580
v 0.71850 0.29104 -0.38255
v 0.61150 0.22961 -0.44156
v 0.86990 0.38003 -0.22329
v 0.78930 0.33516 -0.30033
v 0.72836 0.43263 -0.25199
v 0.49959 0.60472 -0.31715
v 0.60632 0.50852 -0.27806
v 0.53104 0.46435 -0.35147
v 0.75220 -0.92043 0.05722
v 0.70848 -0.94480 0.15260
v 0.55941 -0.95990 0.08751
v 0.93382 -0.76343 0.28356
v 0.84155 -0.87737 0.22224
v 0.98557 -0.75764 0.17790
v 0.44859 -0.97012 0.26502
v 0.64526 -0.94135 0.24996
v 0.57645 -0.92492 0.34354
v 0.98107 -0.09754 0.44506
v 1.03044 -0.26615 0.42893
v 1.09014 -0.15892 0.35266
v 0.75827 -0.45039 0.51486
v 0.93284 -0.37786 0.49668
v 0.77312 -0.29030 0.55827
v 1.08551 -0.47423 0.27863
v 1.01868 -0.43256 0.38761
v 0.96468 -0.57299 0.33374
v 0.08998 -0.65660 0.50241
v 0.25141 -0.64795 0.54033
v 0.14798 -0.52513 0.56346
v 0.46007 -0.84104 0.42996
v 0.35668 -0.74976 0.48880
v 0.28140 -0.86538 0.41600
v 0.45621 -0.42865 0.57968
v 0.41621 -0.59641 0.54409
v 0.58924 -0.54885 0.55068
v 0.83546 -0.70070 0.38314
v 0.71409 -0.62441 0.47262
v 0.66457 -0.80441 0.42189
v 0.37966 -0.94146 0.08059
v 0.41687 -0.90889 0.00000
v 0.27020 -0.96942 0.25252
v 0.32547 -0.95134 0.16479
v 0.14070 -0.97087 0.00000
v 0.22079 -0.93162 0.07693
v 0.08208 -0.94734 0.07671
v -0.07993 -0.58322 0.44627
v 0.00000 -0.73466 0.44678
v -0.15236 -0.78644 0.29210
v -0.08403 -0.77655 0.37101
v -0.21290 -0.65474 0.31474
v 0.09231 -0.85308 0.40757
v 0.17817 -0.91967 0.34159
v -0.37768 -0.82345 0.00000
v -0.31699 -0.78605 0.06729
v -0.42053 -0.72159 0.06578
v -0.08306 -0.95863 0.07762
v -0.21071 -0.88907 0.07342
v -0.14031 -0.96815 0.00000
v -0.30072 -0.65033 0.17766
v -0.25551 -0.74684 0.12937
v -0.21182 -0.75998 0.19796
v 0.08754 -0.93305 0.24544
v -0.08231 -0.87732 0.23078
v 0.00000 -0.95498 0.15863
v 0.35626 -0.88344 -0.07562
v 0.51742 -0.88784 -0.08094
v 0.08462 -0.97665 -0.07908
v 0.21878 -0.92315 -0.07623
v 0.37959 -0.82090 -0.22426
v 0.30447 -0.88996 -0.15416
v 0.23879 -0.85672 -0.22316
v -0.45113 -0.77410 -0.07057
v -0.34417 -0.85347 -0.07306
v -0.22701 -0.81447 -0.21215
v -0.28804 -0.84195 -0.14584
v -0.35979 -0.77809 -0.21256
v -0.22031 -0.92957 -0.07677
v -0.08441 -0.97426 -0.07889
v 0.09203 -0.67151 -0.51382
v 0.00000 -0.72739 -0.44236
v -0.08758 -0.63906 -0.48900
v 0.16024 -0.82709 -0.30720
v 0.08395 -0.77578 -0.37064
v 0.25180 -0.77438 -0.37225
v -0.23021 -0.70797 -0.34033
v -0.08167 -0.75468 -0.36056
v -0.15074 -0.77806 -0.28899
v 0.00000 -0.94140 -0.15637
v -0.08052 -0.85826 -0.22576
v 0.08295 -0.88413 -0.23257
v 0.64984 -0.86660 -0.13997
v 0.73195 -0.89565 -0.05568
v 0.48473 -0.77775 -0.28888
v 0.56107 -0.81853 -0.21735
v 0.97971 -0.75314 -0.17684
v 0.77262 -0.80550 -0.20403
v 0.91794 -0.75045 -0.27874
v 0.15266 -0.54173 -0.58128
v 0.25240 -0.65049 -0.54244
v 0.53749 -0.50064 -0.50232
v 0.41602 -0.59614 -0.54384
v 0.44252 -0.41579 -0.56228
v 0.34443 -0.72399 -0.47200
v 0.41050 -0.75043 -0.38364
v 1.12589 -0.16414 -0.36423
v 1.01762 -0.26284 -0.42359
v 0.94247 -0.09370 -0.42755
v 1.02281 -0.60752 -0.35386
v 1.07287 -0.45557 -0.40823
v 1.16003 -0.50678 -0.29776
v 0.70791 -0.26581 -0.51118
v 0.87613 -0.35489 -0.46648
v 0.70593 -0.41930 -0.47932
v 0.58475 -0.70781 -0.37122
v 0.67101 -0.58674 -0.44411
v 0.79525 -0.66698 -0.36470
v 0.88482 -0.86051 0.00000
v 1.10805 -0.65815 -0.11916
v 1.03553 -0.79117 -0.06220
v 1.02081 -0.77992 0.06132
v 1.09264 -0.64900 0.11750
v 1.18336 0.00000 -0.30129
v 1.23684 -0.16931 -0.27687
v 1.27251 -0.16477 -0.06120
v 1.28860 -0.17017 -0.16953
v 1.23390 0.00000 -0.09927
v 1.23246 -0.34139 -0.23405
v 1.21358 -0.50552 -0.18777
v 1.12519 -0.15403 0.25188
v 1.06696 0.00000 0.27165
v 1.14847 -0.47840 0.17769
v 1.16180 -0.32182 0.22064
v 1.12990 0.00000 0.09090
v 1.17096 -0.15464 0.15405
v 1.23490 -0.15990 0.05939
v 1.20834 -0.50829 -0.06293
v 1.28106 -0.34029 0.00000
v 1.19560 -0.50294 0.06227
v 0.13600 -0.35566 0.55150
v 0.43579 -0.25885 0.58073
v 0.28479 -0.31223 0.57070
v 0.13193 -0.21018 0.55457
v 0.13766 -0.08177 0.59016
v 0.89526 0.00000 0.51100
v 0.59003 0.17084 0.55141
v 0.75985 0.09554 0.55207
v 0.77139 -0.09699 0.56046
v 0.63780 -0.18467 0.59606
v 0.14364 0.37562 0.58246
v 0.13933 0.08276 0.59732
v 0.14239 0.22685 0.59854
v 0.27777 0.30454 0.55664
v 0.40163 0.23856 0.53521
v 0.45123 -0.08934 0.59545
v 0.43700 0.08652 0.57666
v 0.28461 0.00000 0.59477
v -0.45910 -0.61224 0.09888
v -0.35835 -0.57497 0.21356
v -0.40763 -0.59468 0.15791
v -0.50730 -0.52890 0.13397
v -0.57781 -0.47238 0.17546
v -0.18408 -0.47443 0.39562
v -0.40557 -0.37776 0.37903
v -0.28994 -0.41548 0.37903
v -0.24758 -0.52041 0.33928
v -0.30368 -0.55515 0.28381
v -0.74529 -0.19250 0.31023
v -0.64983 -0.38598 0.22482
v -0.69672 -0.29585 0.26510
v -0.62083 -0.25148 0.33055
v -0.52334 -0.31085 0.35535
v -0.41579 -0.50328 0.26395
v -0.47013 -0.41108 0.31116
v -0.52208 -0.43787 0.23942
v -0.21120 -0.54432 -0.45391
v -0.35854 -0.65544 -0.33508
v -0.29258 -0.61501 -0.40095
v -0.32465 -0.46522 -0.42441
v -0.43134 -0.40177 -0.40311
v -0.54098 -0.72142 -0.11652
v -0.66951 -0.54735 -0.20330
v -0.61941 -0.64577 -0.16357
v -0.48889 -0.71323 -0.18938
v -0.42876 -0.68795 -0.25552
v -0.81761 -0.21118 -0.34034
v -0.57626 -0.34229 -0.39128
v -0.71906 -0.29127 -0.38285
v -0.79684 -0.33836 -0.30320
v -0.75563 -0.44883 -0.26142
v -0.48087 -0.58206 -0.30527
v -0.60517 -0.50756 -0.27753
v -0.52974 -0.46321 -0.35061
v 0.77508 0.00000 -0.44240
v 0.57836 -0.16746 -0.54051
v 0.68624 -0.08628 -0.49859
v 0.64127 0.08063 -0.46591
v 0.51925 0.15034 -0.48527
v 0.14520 -0.37970 -0.58879
v 0.13590 -0.08072 -0.58259
v 0.14242 -0.22688 -0.59863
v 0.29389 -0.32221 -0.58894
v 0.43519 -0.25849 -0.57994
v 0.11820 0.30910 -0.47931
v 0.36274 0.21546 -0.48339
v 0.24071 0.26390 -0.48237
v 0.11618 0.18509 -0.48836
v 0.12153 0.07218 -0.52099
v 0.42584 -0.08431 -0.56194
v 0.25736 0.00000 -0.53782
v 0.38896 0.07701 -0.51328
v 1.04037 0.14242 0.23289
v 1.09301 0.14153 0.05257
v 1.05302 0.13906 0.13853
v 1.03160 0.28575 0.19591
v 0.99512 0.41452 0.15396
v 1.12173 0.15356 -0.25110
v 0.91317 0.38038 -0.14129
v 0.97948 0.27132 -0.18601
v 1.09621 0.14477 -0.14421
v 1.10760 0.14342 -0.05327
v 0.76970 0.74855 0.00000
v 0.91937 0.54608 0.09887
v 0.86203 0.65861 0.05178
v 0.82654 0.63149 -0.04965
v 0.89492 0.53156 -0.09624
v 1.03272 0.27433 0.00000
v 0.98468 0.41421 -0.05128
v 1.01532 0.42710 0.05288
vt 2.52286 1.00000
vt 1.97714 1.00000
vt 0.47714 1.00000
vt 1.02286 1.00000
vt 0.75000 0.50890
vt 2.25000 0.50890
vt 0.75000 1.49110
vt 2.25000 1.49110
vt 1.50000 1.21828
vt 1.50000 0.78172
vt 3.00000 1.21828
vt 3.00000 0.78172
vt 2.74409 0.88066
vt 2.74409 0.56909
vt 2.43062 0.78841
vt 2.06938 0.78841
vt 2.25000 1.00000
vt 2.06938 1.21159
vt 2.43062 1.21159
vt 2.74409 1.43091
vt 2.74409 1.11934
vt 3.00000 1.00000
vt 1.75591 0.56909
vt 1.75591 0.88066
vt 0.25591 0.56909
vt 1.50000 0.00000
vt 0.25591 1.11934
vt 0.25591 0.88066
vt 1.50000 2.00000
vt 0.25591 1.43091
vt 1.75591 1.11934
vt 1.75591 1.43091
vt 1.24409 0.88066
vt 1.24409 0.56909
vt 0.93062 0.78841
vt 0.56938 0.78841
vt 0.75000 1.00000
vt 0.56938 1.21159
vt 0.93062 1.21159
vt 1.24409 1.43091
vt 1.24409 1.11934
vt 1.50000 1.00000
vt 2.63165 0.93916
vt 2.59690 0.82759
vt 2.48020 0.89874
vt 2.89666 0.67624
vt 2.74409 0.74463
vt 2.86544 0.82676
vt 2.36287 0.66008
vt 2.55814 0.67398
vt 2.51611 0.49556
vt 2.33399 0.89680
vt 2.38722 1.00000
vt 2.13713 0.66008
vt 2.25000 0.77360
vt 2.11278 1.00000
vt 2.16601 0.89680
vt 2.01980 0.89874
vt 2.33399 1.10320
vt 2.48020 1.10126
vt 2.01980 1.10126
vt 2.16601 1.10320
vt 2.36287 1.33992
vt 2.25000 1.22640
vt 2.13713 1.33992
vt 2.59690 1.17241
vt 2.63165 1.06084
vt 2.51611 1.50444
vt 2.55814 1.32602
vt 2.86544 1.17324
vt 2.74409 1.25537
vt 2.89666 1.32376
vt 2.74409 1.00000
vt 3.00000 1.10353
vt 2.87603 1.06052
vt 2.87603 0.93948
vt 3.00000 0.89647
vt 1.90310 0.82759
vt 1.86835 0.93916
vt 1.98389 0.49556
vt 1.94186 0.67398
vt 1.63456 0.82676
vt 1.75591 0.74463
vt 1.60334 0.67624
vt 2.74409 0.32333
vt 2.25000 0.28111
vt 0.10334 0.67624
vt 3.00000 0.52153
vt 0.75000 0.28111
vt 0.25591 0.32333
vt 0.48389 0.49556
vt 0.12397 0.93948
vt 0.13456 0.82676
vt 0.13456 1.17324
vt 0.12397 1.06052
vt 0.36835 0.93916
vt 0.25591 1.00000
vt 0.36835 1.06084
vt 3.00000 1.47847
vt 0.10334 1.32376
vt 2.25000 1.71889
vt 2.74409 1.67667
vt 0.48389 1.50444
vt 0.25591 1.67667
vt 0.75000 1.71889
vt 1.94186 1.32602
vt 1.98389 1.50444
vt 1.86835 1.06084
vt 1.90310 1.17241
vt 1.60334 1.32376
vt 1.75591 1.25537
vt 1.63456 1.17324
vt 1.13165 0.93916
vt 1.09690 0.82759
vt 0.98020 0.89874
vt 1.39666 0.67624
vt 1.24409 0.74463
vt 1.36544 0.82676
vt 0.86287 0.66008
vt 1.05814 0.67398
vt 1.01611 0.49556
vt 0.83399 0.89680
vt 0.88722 1.00000
vt 0.63713 0.66008
vt 0.75000 0.77360
vt 0.61278 1.00000
vt 0.66601 0.89680
vt 0.51980 0.89874
vt 0.83399 1.10320
vt 0.98020 1.10126
vt 0.51980 1.10126
vt 0.66601 1.10320
vt 0.86287 1.33992
vt 0.75000 1.22640
vt 0.63713 1.33992
vt 1.09690 1.17241
vt 1.13165 1.06084
vt 1.01611 1.50444
vt 1.05814 1.32602
vt 1.36544 1.17324
vt 1.24409 1.25537
vt 1.39666 1.32376
vt 1.24409 1.00000
vt 1.50000 1.10353
vt 1.37603 1.06052
vt 1.37603 0.93948
vt 1.50000 0.89647
vt 1.24409 0.32333
vt 1.50000 0.52153
vt 1.75591 0.32333
vt 0.40310 0.82759
vt 0.44186 0.67398
vt 0.25591 0.74463
vt 0.44186 1.32602
vt 0.40310 1.17241
vt 0.25591 1.25537
vt 1.50000 1.47847
vt 1.24409 1.67667
vt 1.75591 1.67667
vt 1.62397 0.93948
vt 1.62397 1.06052
vt 1.75591 1.00000
vt 2.57714 0.96938
vt 2.55721 0.91819
vt 2.50194 0.94996
vt 2.67277 0.85301
vt 2.61505 0.88490
vt 2.68708 0.90951
vt 2.45680 0.84526
vt 2.53691 0.86274
vt 2.51611 0.80560
vt 2.95269 0.73005
vt 2.87932 0.75610
vt 2.93088 0.80277
vt 2.74409 0.66361
vt 2.81624 0.70816
vt 2.82849 0.62156
vt 2.80334 0.85293
vt 2.80827 0.78553
vt 2.74409 0.81594
vt 2.31503 0.58705
vt 2.42672 0.57930
vt 2.38115 0.48973
vt 2.48900 0.73159
vt 2.46202 0.66127
vt 2.40011 0.72703
vt 2.63987 0.52444
vt 2.54091 0.59110
vt 2.64194 0.61815
vt 2.66678 0.78489
vt 2.65694 0.70573
vt 2.57968 0.75539
vt 2.43302 0.94956
vt 2.45533 1.00000
vt 2.37979 0.84349
vt 2.40739 0.89658
vt 2.31872 1.00000
vt 2.36111 0.94895
vt 2.29126 0.94876
vt 2.18497 0.58705
vt 2.25000 0.65216
vt 2.15863 0.77740
vt 2.19853 0.71770
vt 2.09989 0.72703
vt 2.30147 0.71770
vt 2.34137 0.77740
vt 2.04467 1.00000
vt 2.06698 0.94956
vt 1.99806 0.94996
vt 2.20874 0.94876
vt 2.13889 0.94895
vt 2.18128 1.00000
vt 2.04320 0.84526
vt 2.09261 0.89658
vt 2.12021 0.84349
vt 2.29467 0.83693
vt 2.20533 0.83693
vt 2.25000 0.89521
vt 2.43302 1.05044
vt 2.50194 1.05004
vt 2.29126 1.05124
vt 2.36111 1.05105
vt 2.45680 1.15474
vt 2.40739 1.10342
vt 2.37979 1.15651
vt 1.99806 1.05004
vt 2.06698 1.05044
vt 2.12021 1.15651
vt 2.09261 1.10342
vt 2.04320 1.15474
vt 2.13889 1.05105
vt 2.20874 1.05124
vt 2.31503 1.41295
vt 2.25000 1.34784
vt 2.18497 1.41295
vt 2.34137 1.22260
vt 2.30147 1.28230
vt 2.40011 1.27297
vt 2.09989 1.27297
vt 2.19853 1.28230
vt 2.15863 1.22260
vt 2.25000 1.10479
vt 2.20533 1.16307
vt 2.29467 1.16307
vt 2.55721 1.08181
vt 2.57714 1.03062
vt 2.51611 1.19440
vt 2.53691 1.13726
vt 2.68708 1.09049
vt 2.61505 1.11510
vt 2.67277 1.14699
vt 2.38115 1.51027
vt 2.42672 1.42070
vt 2.64194 1.38185
vt 2.54091 1.40890
vt 2.63987 1.47556
vt 2.46202 1.33873
vt 2.48900 1.26841
vt 2.93088 1.19723
vt 2.87932 1.24390
vt 2.95269 1.26995
vt 2.74409 1.18406
vt 2.80827 1.21447
vt 2.80334 1.14707
vt 2.82849 1.37844
vt 2.81624 1.29184
vt 2.74409 1.33639
vt 2.57968 1.24461
vt 2.65694 1.29427
vt 2.66678 1.21511
vt 2.63165 1.00000
vt 2.74409 1.05870
vt 2.68849 1.03036
vt 2.68849 0.96964
vt 2.74409 0.94130
vt 3.00000 1.15871
vt 2.93504 1.13894
vt 2.93852 1.03034
vt 2.93731 1.08257
vt 3.00000 1.05111
vt 2.87098 1.11524
vt 2.81155 1.09031
vt 2.93504 0.86106
vt 3.00000 0.84129
vt 2.81155 0.90969
vt 2.87098 0.88476
vt 3.00000 0.94889
vt 2.93731 0.91743
vt 2.93852 0.96966
vt 2.80988 1.03054
vt 2.87603 1.00000
vt 2.80988 0.96946
vt 1.94279 0.91819
vt 1.92286 0.96938
vt 1.98389 0.80560
vt 1.96309 0.86274
vt 1.81292 0.90951
vt 1.88495 0.88490
vt 1.82723 0.85301
vt 2.11885 0.48973
vt 2.07328 0.57930
vt 1.85806 0.61815
vt 1.95909 0.59110
vt 1.86013 0.52444
vt 2.03798 0.66127
vt 2.01100 0.73159
vt 1.56912 0.80277
vt 1.62068 0.75610
vt 1.54731 0.73005
vt 1.75591 0.81594
vt 1.69173 0.78553
vt 1.69666 0.85293
vt 1.67151 0.62156
vt 1.68376 0.70816
vt 1.75591 0.66361
vt 1.92032 0.75539
vt 1.84306 0.70573
vt 1.83322 0.78489
vt 2.42439 0.38469
vt 2.25000 0.40288
vt 2.74409 0.45683
vt 2.60307 0.40577
vt 2.25000 0.14498
vt 2.51764 0.26786
vt 2.74409 0.16866
vt 0.04731 0.73005
vt 3.00000 0.66981
vt 0.13456 0.53429
vt 0.05972 0.60237
vt 0.17151 0.62156
vt 2.94028 0.60237
vt 2.86544 0.53429
vt 0.75000 0.40288
vt 0.57561 0.38469
vt 0.61885 0.48973
vt 0.25591 0.16866
vt 0.48236 0.26786
vt 0.75000 0.14498
vt 0.36013 0.52444
vt 0.39693 0.40577
vt 0.25591 0.45683
vt 2.90667 0.41874
vt 0.09333 0.41874
vt 3.00000 0.28414
vt 0.06496 0.86106
vt 0.06912 0.80277
vt 0.06148 0.96966
vt 0.06269 0.91743
vt 0.19666 0.85293
vt 0.12902 0.88476
vt 0.18845 0.90969
vt 0.06912 1.19723
vt 0.06496 1.13894
vt 0.18845 1.09031
vt 0.12902 1.11524
vt 0.19666 1.14707
vt 0.06269 1.08257
vt 0.06148 1.03034
vt 0.42286 0.96938
vt 0.36835 1.00000
vt 0.42286 1.03062
vt 0.25591 0.94130
vt 0.31151 0.96964
vt 0.31292 0.90951
vt 0.31292 1.09049
vt 0.31151 1.03036
vt 0.25591 1.05870
vt 0.12397 1.00000
vt 0.19012 1.03054
vt 0.19012 0.96946
vt 3.00000 1.33019
vt 0.04731 1.26995
vt 2.86544 1.46571
vt 2.94028 1.39763
vt 0.17151 1.37844
vt 0.05972 1.39763
vt 0.13456 1.46571
vt 2.25000 1.59712
vt 2.42439 1.61531
vt 2.74409 1.83134
vt 2.51764 1.73214
vt 2.25000 1.85502
vt 2.60307 1.59423
vt 2.74409 1.54317
vt 0.61885 1.51027
vt 0.57561 1.61531
vt 0.75000 1.59712
vt 0.25591 1.54317
vt 0.39693 1.59423
vt 0.36013 1.47556
vt 0.75000 1.85502
vt 0.48236 1.73214
vt 0.25591 1.83134
vt 2.90667 1.58126
vt 3.00000 1.71586
vt 0.09333 1.58126
vt 2.07328 1.42070
vt 2.11885 1.51027
vt 2.01100 1.26841
vt 2.03798 1.33873
vt 1.86013 1.47556
vt 1.95909 1.40890
vt 1.85806 1.38185
vt 1.92286 1.03062
vt 1.94279 1.08181
vt 1.82723 1.14699
vt 1.88495 1.11510
vt 1.81292 1.09049
vt 1.96309 1.13726
vt 1.98389 1.19440
vt 1.54731 1.26995
vt 1.62068 1.24390
vt 1.56912 1.19723
vt 1.75591 1.33639
vt 1.68376 1.29184
vt 1.67151 1.37844
vt 1.69666 1.14707
vt 1.69173 1.21447
vt 1.75591 1.18406
vt 1.92032 1.24461
vt 1.83322 1.21511
vt 1.84306 1.29427
vt 1.07714 0.96938
vt 1.05721 0.91819
vt 1.00194 0.94996
vt 1.17277 0.85301
vt 1.11505 0.88490
vt 1.18708 0.90951
vt 0.95680 0.84526
vt 1.03691 0.86274
vt 1.01611 0.80560
vt 1.45269 0.73005
vt 1.37932 0.75610
vt 1.43088 0.80277
vt 1.24409 0.66361
vt 1.31624 0.70816
vt 1.32849 0.62156
vt 1.30334 0.85293
vt 1.30827 0.78553
vt 1.24409 0.81594
vt 0.81503 0.58705
vt 0.92672 0.57930
vt 0.88115 0.48973
vt 0.98900 0.73159
vt 0.96202 0.66127
vt 0.90011 0.72703
vt 1.13987 0.52444
vt 1.04091 0.59110
vt 1.14194 0.61815
vt 1.16678 0.78489
vt 1.15694 0.70573
vt 1.07968 0.75539
vt 0.93302 0.94956
vt 0.95533 1.00000
vt 0.87979 0.84349
vt 0.90739 0.89658
vt 0.81872 1.00000
vt 0.86111 0.94895
vt 0.79126 0.94876
vt 0.68497 0.58705
vt 0.75000 0.65216
vt 0.65863 0.77740
vt 0.69853 0.71770
vt 0.59989 0.72703
vt 0.80147 0.71770
vt 0.84137 0.77740
vt 0.54467 1.00000
vt 0.56698 0.94956
vt 0.49806 0.94996
vt 0.70874 0.94876
vt 0.63889 0.94895
vt 0.68128 1.00000
vt 0.54320 0.84526
vt 0.59261 0.89658
vt 0.62021 0.84349
vt 0.79467 0.83693
vt 0.70533 0.83693
vt 0.75000 0.89521
vt 0.93302 1.05044
vt 1.00194 1.05004
vt 0.79126 1.05124
vt 0.86111 1.05105
vt 0.95680 1.15474
vt 0.90739 1.10342
vt 0.87979 1.15651
vt 0.49806 1.05004
vt 0.56698 1.05044
vt 0.62021 1.15651
vt 0.59261 1.10342
vt 0.54320 1.15474
vt 0.63889 1.05105
vt 0.70874 1.05124
vt 0.81503 1.41295
vt 0.75000 1.34784
vt 0.68497 1.41295
vt 0.84137 1.22260
vt 0.80147 1.28230
vt 0.90011 1.27297
vt 0.59989 1.27297
vt 0.69853 1.28230
vt 0.65863 1.22260
vt 0.75000 1.10479
vt 0.70533 1.16307
vt 0.79467 1.16307
vt 1.05721 1.08181
vt 1.07714 1.03062
vt 1.01611 1.19440
vt 1.03691 1.13726
vt 1.18708 1.09049
vt 1.11505 1.11510
vt 1.17277 1.14699
vt 0.88115 1.51027
vt 0.92672 1.42070
vt 1.14194 1.38185
vt 1.04091 1.40890
vt 1.13987 1.47556
vt 0.96202 1.33873
vt 0.98900 1.26841
vt 1.43088 1.19723
vt 1.37932 1.24390
vt 1.45269 1.26995
vt 1.24409 1.18406
vt 1.30827 1.21447
vt 1.30334 1.14707
vt 1.32849 1.37844
vt 1.31624 1.29184
vt 1.24409 1.33639
vt 1.07968 1.24461
vt 1.15694 1.29427
vt 1.16678 1.21511
vt 1.13165 1.00000
vt 1.24409 1.05870
vt 1.18849 1.03036
vt 1.18849 0.96964
vt 1.24409 0.94130
vt 1.50000 1.15871
vt 1.43504 1.13894
vt 1.43852 1.03034
vt 1.43731 1.08257
vt 1.50000 1.05111
vt 1.37098 1.11524
vt 1.31155 1.09031
vt 1.43504 0.86106
vt 1.50000 0.84129
vt 1.31155 0.90969
vt 1.37098 0.88476
vt 1.50000 0.94889
vt 1.43731 0.91743
vt 1.43852 0.96966
vt 1.30988 1.03054
vt 1.37603 1.00000
vt 1.30988 0.96946
vt 0.92439 0.38469
vt 1.24409 0.45683
vt 1.10307 0.40577
vt 1.01764 0.26786
vt 1.24409 0.16866
vt 1.50000 0.66981
vt 1.63456 0.53429
vt 1.55972 0.60237
vt 1.44028 0.60237
vt 1.36544 0.53429
vt 2.07561 0.38469
vt 1.75591 0.16866
vt 1.98236 0.26786
vt 1.89693 0.40577
vt 1.75591 0.45683
vt 1.40667 0.41874
vt 1.59333 0.41874
vt 1.50000 0.28414
vt 0.44279 0.91819
vt 0.48389 0.80560
vt 0.46309 0.86274
vt 0.38495 0.88490
vt 0.32723 0.85301
vt 0.57328 0.57930
vt 0.35806 0.61815
vt 0.45909 0.59110
vt 0.53798 0.66127
vt 0.51100 0.73159
vt 0.12068 0.75610
vt 0.25591 0.81594
vt 0.19173 0.78553
vt 0.18376 0.70816
vt 0.25591 0.66361
vt 0.42032 0.75539
vt 0.34306 0.70573
vt 0.33322 0.78489
vt 0.57328 1.42070
vt 0.51100 1.26841
vt 0.53798 1.33873
vt 0.45909 1.40890
vt 0.35806 1.38185
vt 0.44279 1.08181
vt 0.32723 1.14699
vt 0.38495 1.11510
vt 0.46309 1.13726
vt 0.48389 1.19440
vt 0.12068 1.24390
vt 0.25591 1.33639
vt 0.18376 1.29184
vt 0.19173 1.21447
vt 0.25591 1.18406
vt 0.42032 1.24461
vt 0.33322 1.21511
vt 0.34306 1.29427
vt 1.50000 1.33019
vt 1.36544 1.46571
vt 1.44028 1.39763
vt 1.55972 1.39763
vt 1.63456 1.46571
vt 0.92439 1.61531
vt 1.24409 1.83134
vt 1.01764 1.73214
vt 1.10307 1.59423
vt 1.24409 1.54317
vt 2.07561 1.61531
vt 1.75591 1.54317
vt 1.89693 1.59423
vt 1.98236 1.73214
vt 1.75591 1.83134
vt 1.40667 1.58126
vt 1.50000 1.71586
vt 1.59333 1.58126
vt 1.56496 0.86106
vt 1.56148 0.96966
vt 1.56269 0.91743
vt 1.62902 0.88476
vt 1.68845 0.90969
vt 1.56496 1.13894
vt 1.68845 1.09031
vt 1.62902 1.11524
vt 1.56269 1.08257
vt 1.56148 1.03034
vt 1.86835 1.00000
vt 1.75591 0.94130
vt 1.81151 0.96964
vt 1.81151 1.03036
vt 1.75591 1.05870
vt 1.62397 1.00000
vt 1.69012 1.03054
vt 1.69012 0.96946
vn -0.27312 0.96141 0.03300
vn 0.58359 0.80908 -0.06933
vn -0.57991 -0.66633 0.46874
vn 0.02318 -0.93741 -0.34746
vn -0.40185 -0.20994 0.89132
vn -0.01835 0.17785 0.98389
vn -0.26960 -0.27170 -0.92385
vn -0.31778 0.37640 -0.87025
vn 0.34375 0.23084 -0.91025
vn 0.82411 0.26085 0.50279
vn -0.82163 0.13661 -0.55340
vn -0.60121 0.06100 0.79676
vn -0.88759 0.32534 0.32610
vn -0.42583 0.17508 0.88770
vn -0.53265 0.73740 0.41536
vn 0.11237 0.78130 0.61396
vn -0.24655 0.90803 -0.33867
vn 0.20829 0.58692 -0.78239
vn -0.09507 0.41206 -0.90618
vn -0.03236 0.33855 -0.94039
vn -0.72105 0.33590 -0.60601
vn -0.98518 0.00524 -0.17143
vn 0.06059 0.43541 0.89819
vn 0.63272 0.61584 0.46947
vn -0.40865 -0.17578 0.89560
vn -0.26578 -0.13750 0.95418
vn -0.57359 -0.62738 -0.52667
vn -0.37684 -0.59689 0.70831
vn -0.07531 0.32522 -0.94263
vn -0.22904 -0.23884 -0.94366
vn 0.52757 0.45863 -0.71508
vn 0.13634 0.31411 -0.93954
vn 0.74500 -0.40752 0.52811
vn 0.12453 -0.13757 0.98263
vn -0.00645 -0.81403 0.58078
vn -0.72195 -0.52045 0.45598
vn 0.00389 -0.98983 0.14222
vn -0.28985 -0.70789 -0.64411
vn 0.15920 -0.89366 -0.41957
vn 0.26651 -0.14438 -0.95296
vn 0.65480 -0.65718 -0.37329
vn 0.83473 0.41874 0.35761
vn -0.64488 0.69804 0.31124
vn -0.42102 0.58065 0.69684
vn -0.38344 0.87959 0.28161
vn -0.41744 0.12721 0.89975
vn -0.31244 0.13412 0.94042
vn -0.75041 0.02527 0.66049
vn -0.08620 0.45783 0.88485
vn -0.52884 0.15939 0.83362
vn -0.26207 0.02361 0.96476
vn -0.24263 0.96903 0.04596
vn -0.18929 0.92119 -0.33997
vn 0.22250 0.65558 0.72160
vn 0.35977 0.75736 0.54495
vn 0.02801 0.99848 0.04740
vn 0.25683 0.75950 0.59766
vn 0.14281 0.73087 0.66741
vn -0.25018 0.88101 -0.40154
vn -0.08020 0.81067 -0.57999
vn 0.22443 0.63729 -0.73722
vn -0.04754 0.80296 -0.59413
vn -0.17682 0.26268 -0.94854
vn -0.25786 0.55047 -0.79403
vn -0.10597 0.29688 -0.94902
vn -0.27437 0.39126 -0.87843
vn -0.72497 0.53928 -0.42849
vn -0.11881 0.18844 -0.97487
vn -0.07846 0.29280 -0.95295
vn -0.76531 0.23161 -0.60055
vn -0.30692 0.34612 -0.88657
vn -0.44297 0.32257 -0.83650
vn -0.90988 0.38391 -0.15723
vn -0.93442 0.23230 -0.26998
vn -0.87652 0.08025 -0.47464
vn -0.93391 0.17128 0.31382
vn -0.94453 -0.05389 0.32398
vn 0.38541 0.41742 0.82294
vn 0.72400 0.59545 0.34824
vn 0.34351 0.22633 0.91147
vn 0.48731 0.32422 0.81081
vn 0.88325 0.24104 0.40221
vn 0.24569 0.65200 0.71730
vn 0.45726 0.25700 0.85139
vn -0.27013 -0.16959 0.94777
vn -0.15953 0.10951 0.98110
vn -0.28087 -0.23954 0.92937
vn -0.19313 -0.16171 0.96775
vn -0.21905 -0.08157 0.97230
vn -0.23727 0.07374 0.96864
vn -0.30521 -0.45195 0.83821
vn -0.81702 -0.22772 0.52974
vn -0.60647 -0.49172 0.62482
vn -0.75498 -0.19272 -0.62679
vn -0.98781 -0.14063 -0.06675
vn -0.33977 -0.64034 0.68886
vn -0.64393 -0.70136 0.30569
vn -0.58105 -0.81112 0.06680
vn -0.06920 0.04110 -0.99676
vn -0.35687 -0.14939 -0.92213
vn -0.24429 0.25150 -0.93652
vn -0.14993 0.39074 -0.90821
vn -0.39608 -0.29535 -0.86942
vn -0.34411 0.11302 -0.93210
vn -0.12995 -0.10089 -0.98637
vn 0.25909 0.28780 -0.92198
vn 0.13982 0.27451 -0.95136
vn 0.62867 0.44230 -0.63965
vn 0.52615 0.33977 -0.77956
vn 0.31933 0.24916 -0.91430
vn 0.43900 0.57574 -0.68978
vn 0.47337 0.65389 -0.59021
vn 0.51186 -0.85517 0.08175
vn 0.41363 -0.66990 0.61656
vn 0.02394 -0.99912 -0.03456
vn 0.46098 0.01925 0.88720
vn 0.46262 -0.40517 0.78855
vn 0.84326 -0.10770 0.52660
vn -0.11880 -0.47100 0.87410
vn 0.15242 -0.40076 0.90342
vn -0.03340 -0.08531 0.99579
vn -0.01375 -0.99807 -0.06054
vn 0.17385 -0.96335 -0.20429
vn -0.58274 -0.27055 0.76630
vn -0.38204 -0.79314 0.47431
vn -0.52261 -0.78147 0.34085
vn -0.57045 -0.66306 0.48470
vn -0.42431 -0.52356 0.73881
vn 0.18792 -0.87156 -0.45285
vn 0.05528 -0.90711 -0.41724
vn -0.46311 -0.82004 -0.33624
vn -0.27501 -0.74573 -0.60684
vn -0.03216 -0.80809 -0.58818
vn -0.15246 -0.78074 -0.60597
vn -0.36713 -0.60481 -0.70670
vn 0.08536 -0.78509 -0.61348
vn 0.27062 -0.86935 -0.41351
vn 0.09181 -0.12727 -0.98761
vn 0.33429 -0.56590 -0.75366
vn 0.67339 -0.05795 -0.73701
vn 0.18107 -0.33787 -0.92361
vn 0.26968 0.12219 -0.95517
vn 0.84583 -0.52533 0.09278
vn 0.87771 0.44431 -0.17951
vn 0.97461 -0.19800 -0.10453
vn 0.87361 -0.06815 0.48183
vn 0.89570 0.32978 0.29828
vn -0.05874 -0.10396 0.99285
vn 0.09207 0.11757 0.98879
vn 0.14177 0.13259 0.98098
vn -0.46737 -0.69365 0.54810
vn -0.34231 -0.56612 0.74989
vn -0.42229 -0.56080 0.71216
vn -0.39801 -0.34452 -0.85023
vn -0.46627 -0.55159 -0.69162
vn -0.33528 -0.50929 -0.79260
vn 0.20534 0.23346 -0.95044
vn 0.07190 0.14587 -0.98669
vn 0.01140 0.21950 -0.97555
vn 0.96797 0.23016 0.10031
vn 0.81590 0.49193 -0.30384
vn 0.80186 0.55697 -0.21634
vn -0.50700 0.85007 0.14258
vn -0.42402 0.78683 0.44845
vn -0.26804 0.95195 0.14817
vn -0.50915 0.56125 0.65250
vn -0.48272 0.70130 0.52456
vn -0.79466 0.55457 0.24691
vn -0.50068 0.80611 0.31544
vn -0.44439 0.72199 0.53034
vn -0.56394 0.62964 0.53434
vn -0.50647 0.10716 0.85557
vn -0.56939 0.07480 0.81865
vn -0.63818 0.21223 0.74006
vn -0.28831 0.10951 0.95125
vn -0.35634 0.09667 0.92934
vn -0.31422 0.19672 0.92875
vn -0.83285 0.01243 0.55336
vn -0.56780 -0.00821 0.82313
vn -0.55632 0.23878 0.79592
vn 0.02639 0.23637 0.97130
vn -0.21343 0.11696 0.96993
vn -0.10420 0.09093 0.99039
vn -0.57427 0.43654 0.69256
vn -0.47178 0.30927 0.82570
vn -0.33343 0.60910 0.71960
vn -0.44413 0.06122 0.89387
vn -0.47889 0.05597 0.87609
vn -0.47581 0.06257 0.87732
vn -0.36668 0.36034 0.85773
vn -0.33346 0.14289 0.93187
vn -0.48037 0.38921 0.78598
vn -0.24916 0.95140 -0.18097
vn -0.07956 0.99468 -0.06547
vn -0.38148 0.90430 0.19159
vn -0.41475 0.90859 0.04941
vn -0.35192 0.79522 -0.49373
vn -0.34230 0.87444 -0.34379
vn -0.21681 0.96960 -0.11345
vn 0.11349 0.35966 0.92615
vn 0.19307 0.56120 0.80485
vn 0.31269 0.78908 0.52875
vn 0.33578 0.75612 0.56172
vn 0.23708 0.81726 0.52525
vn 0.15586 0.68314 0.71346
vn -0.07910 0.84191 0.53380
vn 0.17439 0.98337 0.05072
vn 0.01927 0.84977 0.52680
vn 0.33363 0.82407 0.45783
vn 0.09870 0.96026 0.26106
vn 0.10383 0.86570 0.48969
vn 0.03148 0.99849 -0.04494
vn 0.04258 0.70667 0.70626
vn 0.01855 0.73929 0.67313
vn 0.16553 0.75693 0.63219
vn 0.08927 0.90742 0.41064
vn 0.37375 0.72758 0.57527
vn 0.15121 0.93662 0.31602
vn 0.03851 0.92990 -0.36579
vn -0.18293 0.93031 -0.31790
vn -0.35004 0.77055 -0.53265
vn -0.15311 0.86250 -0.48233
vn -0.06655 0.61440 -0.78618
vn -0.01762 0.89992 -0.43570
vn -0.13020 0.69873 -0.70344
vn 0.41942 0.72699 -0.54367
vn 0.04371 0.84817 -0.52792
vn 0.08351 0.76926 -0.63346
vn 0.06871 0.75834 -0.64823
vn 0.19968 0.65400 -0.72967
vn 0.01990 0.86882 -0.49473
vn -0.18299 0.81855 -0.54451
vn -0.27833 0.39344 -0.87620
vn -0.24070 0.25549 -0.93637
vn -0.22193 0.42125 -0.87937
vn -0.23618 0.46945 -0.85078
vn -0.23929 0.28836 -0.92714
vn -0.16155 0.32017 -0.93348
vn 0.06033 0.37579 -0.92474
vn -0.16902 0.31735 -0.93312
vn -0.03310 0.62359 -0.78105
vn -0.27991 0.81013 -0.51512
vn -0.14800 0.78043 -0.60747
vn -0.25632 0.73558 -0.62708
vn -0.38243 0.69634 -0.60733
vn -0.55556 0.80031 -0.22553
vn -0.11952 0.40523 -0.90637
vn -0.24891 0.54119 -0.80322
vn -0.77668 0.38655 -0.49734
vn -0.48188 0.48992 -0.72648
vn -0.50220 0.35432 -0.78883
vn -0.30162 0.25972 -0.91737
vn -0.15198 0.33272 -0.93070
vn -0.10404 0.37936 -0.91938
vn -0.08537 0.32924 -0.94038
vn 0.01706 0.25466 -0.96688
vn -0.11067 0.30806 -0.94491
vn -0.05712 0.32665 -0.94342
vn -0.80536 0.29227 -0.51573
vn -0.66927 0.34907 -0.65592
vn -0.70346 0.24748 -0.66625
vn -0.50936 0.28508 -0.81196
vn -0.56167 0.32398 -0.76130
vn -0.69087 0.23950 -0.68216
vn -0.16495 0.37131 -0.91374
vn -0.38198 0.44958 -0.80745
vn -0.18872 0.43491 -0.88048
vn -0.15064 0.30978 -0.93880
vn -0.16300 0.29460 -0.94162
vn -0.30044 0.29980 -0.90546
vn -0.77217 0.61113 -0.17400
vn -0.80917 0.41922 -0.41170
vn -0.83505 0.42986 -0.34337
vn -0.88762 0.45523 -0.06997
vn -0.93474 0.35531 0.00446
vn -0.89831 0.18376 -0.39910
vn -0.90173 0.19693 -0.38483
vn -0.93997 -0.02111 -0.34060
vn -0.89390 0.07396 -0.44212
vn -0.95802 0.15932 -0.23837
vn -0.83071 0.11354 -0.54501
vn -0.80738 0.26311 -0.52813
vn -0.77666 0.20224 0.59658
vn -0.76477 0.07115 0.64037
vn -0.94131 0.18382 0.28310
vn -0.81177 0.10667 0.57415
vn -0.99371 -0.10640 0.03477
vn -0.89804 0.14517 0.41526
vn -0.99666 -0.00209 -0.08165
vn -0.90512 0.32580 -0.27316
vn -0.97138 0.17138 -0.16448
vn -0.93420 0.35376 0.04602
vn 0.49014 0.64577 0.58544
vn 0.71425 0.68495 0.14384
vn 0.29516 0.56639 0.76947
vn 0.30742 0.58524 0.75033
vn 0.67050 0.56062 0.48594
vn 0.54544 0.51892 0.65819
vn 0.46618 0.50903 0.72358
vn 0.05871 0.27278 0.96028
vn 0.25665 0.34089 0.90439
vn 0.26195 0.41646 0.87060
vn 0.44917 0.24051 0.86046
vn 0.33706 0.29720 0.89334
vn 0.37389 0.51019 0.77454
vn 0.35916 0.59111 0.72221
vn 0.89477 0.19424 0.40205
vn 0.72312 0.24751 0.64485
vn 0.73179 0.19754 0.65227
vn 0.41154 0.63406 0.65468
vn 0.54754 0.58094 0.60225
vn 0.74545 0.52630 0.40905
vn 0.16278 0.37741 0.91163
vn 0.34983 0.49518 0.79525
vn 0.12351 0.58176 0.80393
vn 0.39624 0.39694 0.82791
vn 0.27023 0.49274 0.82715
vn 0.32864 0.49908 0.80182
vn -0.21446 0.06928 0.97427
vn -0.11306 0.18713 0.97581
vn -0.32008 -0.01899 0.94720
vn -0.26953 0.00420 0.96298
vn -0.19290 -0.02722 0.98084
vn -0.29380 -0.01717 0.95571
vn -0.38262 -0.18264 0.90567
vn -0.37289 -0.17074 0.91203
vn -0.31761 -0.11916 0.94070
vn -0.28101 -0.03789 0.95896
vn -0.22462 -0.17878 0.95791
vn -0.34359 -0.17515 0.92264
vn -0.25193 -0.06512 0.96555
vn -0.28281 -0.02403 0.95888
vn -0.28994 -0.03811 0.95628
vn -0.23792 -0.15174 0.95936
vn -0.46103 -0.24885 0.85178
vn -0.39894 -0.11951 0.90915
vn -0.25757 -0.03454 0.96564
vn -0.27510 -0.18212 0.94401
vn -0.31493 -0.37981 0.86981
vn -0.21167 -0.08368 0.97375
vn -0.28351 0.03833 0.95820
vn -0.21209 -0.20126 0.95630
vn -0.21021 -0.05205 0.97627
vn -0.28071 -0.17996 0.94277
vn -0.84749 -0.38714 0.36317
vn -0.59479 -0.28351 0.75222
vn -0.96180 -0.13812 0.23635
vn -0.89939 -0.36362 0.24266
vn -0.55430 -0.46450 0.69065
vn -0.81927 -0.40987 0.40099
vn -0.70030 -0.34211 0.62653
vn -0.80303 0.00787 -0.59589
vn -0.88551 0.09543 -0.45472
vn -0.81688 -0.44590 -0.36591
vn -0.88596 -0.17114 -0.43102
vn -0.67150 -0.42865 -0.60444
vn -0.95459 0.12816 -0.26896
vn -0.99484 0.07037 0.07301
vn -0.47434 -0.56807 0.67252
vn -0.46376 -0.72873 0.50387
vn -0.58310 -0.73840 0.33877
vn -0.47200 -0.58776 0.65708
vn -0.30700 -0.77441 0.55320
vn -0.25056 -0.73610 0.62879
vn -0.55269 -0.77402 -0.30893
vn -0.46830 -0.86935 0.15787
vn -0.68588 -0.69374 -0.21975
vn -0.91878 -0.17162 0.35552
vn -0.91490 -0.39023 0.10333
vn -0.79543 -0.28459 0.53506
vn -0.40523 0.01494 -0.91409
vn -0.64663 -0.04141 -0.76168
vn -0.01184 0.19515 -0.98070
vn -0.14126 0.11541 -0.98322
vn -0.22774 -0.17689 -0.95752
vn -0.16922 -0.07693 -0.98257
vn -0.15994 -0.02918 -0.98670
vn -0.28793 0.17055 -0.94234
vn -0.30137 0.17910 -0.93654
vn -0.31234 0.40655 -0.85858
vn -0.30452 0.40907 -0.86019
vn -0.11384 0.41671 -0.90188
vn -0.08353 0.24347 -0.96631
vn 0.05787 0.26157 -0.96345
vn -0.35267 -0.25450 -0.90047
vn -0.29076 -0.21148 -0.93313
vn -0.21458 -0.17097 -0.96162
vn -0.32104 -0.06781 -0.94464
vn -0.37956 -0.18739 -0.90599
vn -0.33230 -0.29275 -0.89659
vn -0.10392 0.06422 -0.99251
vn -0.24946 -0.04632 -0.96728
vn -0.29179 0.22599 -0.92940
vn -0.04805 0.21507 -0.97541
vn -0.26739 0.31655 -0.91011
vn -0.23308 0.11588 -0.96553
vn 0.05716 0.35327 -0.93377
vn -0.09178 0.31156 -0.94578
vn 0.26497 0.34164 -0.90171
vn 0.13299 0.27137 -0.95324
vn 0.12380 0.31284 -0.94170
vn 0.19358 0.30702 -0.93181
vn 0.16975 0.41297 -0.89479
vn 0.69320 0.57395 -0.43595
vn 0.54649 0.45505 -0.70305
vn 0.47998 0.41560 -0.77259
vn 0.53834 0.36461 -0.75977
vn 0.53904 0.45244 -0.71044
vn 0.45995 0.43926 -0.77169
vn 0.38560 0.43630 -0.81299
vn 0.23175 0.28484 -0.93014
vn 0.34141 0.43095 -0.83530
vn 0.38647 0.45959 -0.79963
vn 0.27330 0.43852 -0.85616
vn 0.39772 0.37812 -0.83597
vn 0.30442 0.24641 -0.92011
vn 0.54201 0.59539 -0.59308
vn 0.45418 0.55824 -0.69432
vn 0.46500 0.52856 -0.71021
vn 0.44269 0.32990 -0.83378
vn 0.47322 0.45729 -0.75296
vn 0.32877 0.45269 -0.82884
vn 0.24869 -0.94945 -0.19155
vn 0.24108 -0.96894 0.05503
vn 0.02509 -0.97614 -0.21569
vn 0.61677 -0.49289 0.61372
vn 0.47634 -0.79634 0.37274
vn 0.72341 -0.58860 0.36088
vn 0.02341 -0.97346 0.22766
vn 0.25242 -0.92709 0.27711
vn 0.15220 -0.78271 0.60349
vn 0.69690 0.13538 0.70428
vn 0.70364 -0.04171 0.70933
vn 0.83019 0.16617 0.53214
vn 0.30472 -0.30105 0.90361
vn 0.44716 -0.24039 0.86155
vn 0.27141 -0.11803 0.95520
vn 0.75637 -0.35599 0.54879
vn 0.69372 -0.34266 0.63351
vn 0.65858 -0.39698 0.63928
vn -0.28164 -0.33641 0.89861
vn -0.04419 -0.33334 0.94177
vn -0.18350 -0.12655 0.97484
vn 0.06234 -0.61888 0.78301
vn 0.03913 -0.45270 0.89081
vn -0.00218 -0.68341 0.73003
vn -0.01107 -0.10714 0.99418
vn 0.05541 -0.28923 0.95565
vn 0.18879 -0.30185 0.93448
vn 0.48239 -0.44098 0.75686
vn 0.32674 -0.35322 0.87663
vn 0.30113 -0.50151 0.81105
vn -0.04782 -0.97479 -0.21794
vn -0.03618 -0.93156 -0.36178
vn -0.05735 -0.96935 0.23890
vn -0.00806 -0.98443 -0.17556
vn 0.28591 -0.95532 0.07495
vn 0.07816 -0.99378 -0.07927
vn 0.09265 -0.97796 0.18710
vn -0.52123 -0.26942 0.80977
vn -0.39142 -0.36789 0.84348
vn -0.70416 -0.56010 0.43640
vn -0.52887 -0.43094 0.73116
vn -0.67177 -0.38055 0.63554
vn -0.21138 -0.59516 0.77531
vn -0.05423 -0.86807 0.49348
vn -0.52437 -0.73527 0.42944
vn -0.44436 -0.57026 0.69091
vn -0.46994 -0.52497 0.70962
vn -0.25774 -0.85005 0.45933
vn -0.51715 -0.63489 0.57399
vn -0.41713 -0.89289 0.16954
vn -0.58402 -0.58456 0.56322
vn -0.56704 -0.52941 0.63103
vn -0.72576 -0.58684 0.35901
vn -0.19482 -0.95070 0.24130
vn -0.53850 -0.79586 0.27681
vn -0.25932 -0.92670 0.27200
vn 0.12501 -0.96249 -0.24080
vn -0.02606 -0.92724 -0.37356
vn 0.16706 -0.92521 -0.34070
vn 0.30489 -0.93195 -0.19623
vn 0.15922 -0.89039 -0.42644
vn 0.21659 -0.90586 -0.36402
vn 0.16539 -0.87698 -0.45116
vn -0.57114 -0.81768 0.07213
vn -0.52002 -0.84420 -0.12999
vn -0.26747 -0.72508 -0.63461
vn -0.38294 -0.77286 -0.50601
vn -0.34685 -0.74276 -0.57271
vn -0.44835 -0.86500 -0.22528
vn -0.17350 -0.91248 -0.37052
vn -0.17237 -0.47684 -0.86192
vn -0.22496 -0.75587 -0.61487
vn -0.32311 -0.38613 -0.86401
vn -0.03732 -0.83233 -0.55302
vn -0.11791 -0.91002 -0.39743
vn 0.07242 -0.88866 -0.45280
vn -0.32430 -0.72241 -0.61070
vn -0.22001 -0.85310 -0.47309
vn -0.21201 -0.76581 -0.60711
vn -0.05175 -0.82010 -0.56988
vn -0.17416 -0.68469 -0.70772
vn -0.01358 -0.76424 -0.64479
vn 0.04988 -0.87664 -0.47856
vn 0.13986 -0.94352 -0.30034
vn 0.17362 -0.86205 -0.47616
vn 0.05794 -0.83224 -0.55137
vn 0.46395 -0.80125 -0.37782
vn 0.14471 -0.82752 -0.54246
vn 0.23437 -0.76622 -0.59831
vn -0.09644 -0.22605 -0.96933
vn 0.04713 -0.43686 -0.89829
vn 0.32394 -0.26245 -0.90895
vn 0.30462 -0.35161 -0.88520
vn 0.26121 -0.11946 -0.95786
vn 0.24949 -0.74221 -0.62200
vn 0.23753 -0.80047 -0.55030
vn 0.49753 0.06159 -0.86526
vn 0.38685 0.05537 -0.92048
vn 0.28193 0.18663 -0.94111
vn 0.37328 -0.53015 -0.76132
vn 0.45039 -0.16076 -0.87824
vn 0.75041 -0.30493 -0.58643
vn 0.20774 -0.05374 -0.97671
vn 0.22384 -0.07129 -0.97201
vn 0.15869 -0.19452 -0.96798
vn 0.18212 -0.71385 -0.67620
vn 0.16140 -0.42943 -0.88856
vn 0.14613 -0.62433 -0.76737
vn 0.39402 -0.91460 -0.09085
vn 0.79003 -0.60613 -0.09195
vn 0.64302 -0.75026 -0.15371
vn 0.69650 -0.69702 0.17045
vn 0.79682 -0.48477 0.36067
vn 0.67384 0.28586 -0.68134
vn 0.80151 0.03916 -0.59670
vn 0.93749 0.23525 0.25644
vn 0.97701 0.08825 -0.19409
vn 0.84908 0.47204 0.23715
vn 0.86670 -0.16827 -0.46960
vn 0.89241 -0.41219 -0.18356
vn 0.90806 0.21833 0.35743
vn 0.90190 0.29785 0.31283
vn 0.83468 -0.31062 0.45479
vn 0.89718 -0.05429 0.43831
vn 0.85346 0.38933 0.34646
vn 0.85645 0.24699 0.45331
vn 0.87450 0.29266 0.38679
vn 0.88377 -0.46667 0.03417
vn 0.95381 -0.14456 0.26333
vn 0.87214 -0.37807 0.31054
vn -0.15763 0.02130 0.98727
vn -0.06038 -0.04224 0.99728
vn -0.08634 -0.00687 0.99624
vn -0.14179 -0.13503 0.98064
vn -0.07867 -0.13955 0.98708
vn 0.48979 0.14406 0.85985
vn 0.05391 0.28207 0.95788
vn 0.25049 0.18332 0.95061
vn 0.26028 0.04297 0.96458
vn 0.08878 -0.00602 0.99603
vn 0.07000 0.16843 0.98322
vn -0.00509 -0.02004 0.99979
vn 0.05999 0.07653 0.99526
vn 0.29280 0.17951 0.93917
vn 0.13915 0.30955 0.94065
vn -0.01619 0.00183 0.99987
vn 0.05282 0.17568 0.98303
vn 0.02458 0.00598 0.99968
vn -0.45727 -0.50764 0.73021
vn -0.55099 -0.64087 0.53451
vn -0.49566 -0.55524 0.66785
vn -0.34840 -0.64291 0.68212
vn -0.26710 -0.70312 0.65900
vn -0.51958 -0.36020 0.77479
vn -0.35285 -0.52829 0.77228
vn -0.30847 -0.55591 0.77189
vn -0.48962 -0.36728 0.79081
vn -0.52881 -0.55196 0.64475
vn -0.39539 -0.38766 0.83270
vn -0.35804 -0.61957 0.69853
vn -0.43980 -0.47730 0.76076
vn -0.37079 -0.33123 0.86764
vn -0.41153 -0.37996 0.82842
vn -0.49185 -0.68079 0.54278
vn -0.40563 -0.60810 0.68240
vn -0.40135 -0.72921 0.55423
vn -0.39877 -0.27932 -0.87348
vn -0.41750 -0.53484 -0.73460
vn -0.42411 -0.40430 -0.81036
vn -0.41084 -0.27694 -0.86863
vn -0.27650 -0.37786 -0.88361
vn -0.57741 -0.80320 -0.14651
vn -0.47054 -0.60123 -0.64585
vn -0.57531 -0.72569 -0.37735
vn -0.45275 -0.72978 -0.51228
vn -0.39710 -0.61991 -0.67678
vn -0.59958 -0.16385 -0.78336
vn -0.26250 -0.40645 -0.87515
vn -0.35621 -0.33060 -0.87397
vn -0.52131 -0.43522 -0.73405
vn -0.42994 -0.55942 -0.70866
vn -0.39974 -0.45354 -0.79656
vn -0.40992 -0.50864 -0.75713
vn -0.33366 -0.43665 -0.83546
vn 0.27973 0.26413 -0.92303
vn 0.24043 0.06439 -0.96853
vn 0.26789 0.19375 -0.94377
vn 0.29767 0.23931 -0.92419
vn 0.16539 0.21576 -0.96234
vn -0.03220 -0.06065 -0.99764
vn 0.08876 0.25639 -0.96249
vn 0.00851 -0.00622 -0.99994
vn 0.07142 -0.04706 -0.99634
vn 0.19351 -0.00775 -0.98107
vn -0.07747 0.13891 -0.98727
vn 0.03611 0.21198 -0.97661
vn 0.05947 0.14099 -0.98822
vn -0.00316 0.19719 -0.98036
vn 0.09903 0.34938 -0.93173
vn 0.12096 0.21971 -0.96804
vn 0.04813 0.31917 -0.94647
vn 0.04591 0.26273 -0.96378
vn 0.94122 0.17863 0.28670
vn 0.92733 0.32654 0.18285
vn 0.93586 0.21635 0.27813
vn 0.94733 0.23198 0.22078
vn 0.85748 0.44645 0.25576
vn 0.69319 0.66766 -0.27149
vn 0.68282 0.44614 -0.57855
vn 0.69833 0.67488 -0.23847
vn 0.75874 0.65134 0.00802
vn 0.85093 0.51069 0.12297
vn 0.77745 0.57980 -0.24375
vn 0.77978 0.57340 0.25132
vn 0.77645 0.62792 0.05327
vn 0.67063 0.55431 -0.49294
vn 0.61914 0.45648 -0.63898
vn 0.93285 0.33653 -0.12857
vn 0.83140 0.35004 -0.43156
vn 0.92066 0.38872 -0.03574
f 1/1/1 163/163/163 165/165/165
f 43/43/43 164/164/164 163/163/163
f 45/45/45 165/165/165 164/164/164
f 163/163/163 164/164/164 165/165/165
f 13/13/13 166/166/166 168/168/168
f 44/44/44 167/167/167 166/166/166
f 43/43/43 168/168/168 167/167/167
f 166/166/166 167/167/167 168/168/168
f 15/15/15 169/169/169 171/171/171
f 45/45/45 170/170/170 169/169/169
f 44/44/44 171/171/171 170/170/170
f 169/169/169 170/170/170 171/171/171
f 43/43/43 167/167/167 164/164/164
f 44/44/44 170/170/170 167/167/167
f 45/45/45 164/164/164 170/170/170
f 167/167/167 170/170/170 164/164/164
f 12/12/12 172/172/172 174/174/174
f 46/46/46 173/173/173 172/172/172
f 48/48/48 174/174/174 173/173/173
f 172/172/172 173/173/173 174/174/174
f 14/14/14 175/175/175 177/177/177
f 47/47/47 176/176/176 175/175/175
f 46/46/46 177/177/177 176/176/176
f 175/175/175 176/176/176 177/177/177
f 13/13/13 178/178/178 180/180/180
f 48/48/48 179/179/179 178/178/178
f 47/47/47 180/180/180 179/179/179
f 178/178/178 179/179/179 180/180/180
f 46/46/46 176/176/176 173/173/173
f 47/47/47 179/179/179 176/176/176
f 48/48/48 173/173/173 179/179/179
f 176/176/176 179/179/179 173/173/173
f 6/6/6 181/181/181 183/183/183
f 49/49/49 182/182/182 181/181/181
f 51/51/51 183/183/183 182/182/182
f 181/181/181 182/182/182 183/183/183
f 15/15/15 184/184/184 186/186/186
f 50/50/50 185/185/185 184/184/184
f 49/49/49 186/186/186 185/185/185
f 184/184/184 185/185/185 186/186/186
f 14/14/14 187/187/187 189/189/189
f 51/51/51 188/188/188 187/187/187
f 50/50/50 189/189/189 188/188/188
f 187/187/187 188/188/188 189/189/189
f 49/49/49 185/185/185 182/182/182
f 50/50/50 188/188/188 185/185/185
f 51/51/51 182/182/182 188/188/188
f 185/185/185 188/188/188 182/182/182
f 13/13/13 180/180/180 166/166/166
f 47/47/47 190/190/190 180/180/180
f 44/44/44 166/166/166 190/190/190
f 180/180/180 190/190/190 166/166/166
f 14/14/14 189/189/189 175/175/175
f 50/50/50 191/191/191 189/189/189
f 47/47/47 175/175/175 191/191/191
f 189/189/189 191/191/191 175/175/175
f 15/15/15 171/171/171 184/184/184
f 44/44/44 192/192/192 171/171/171
f 50/50/50 184/184/184 192/192/192
f 171/171/171 192/192/192 184/184/184
f 47/47/47 191/191/191 190/190/190
f 50/50/50 192/192/192 191/191/191
f 44/44/44 190/190/190 192/192/192
f 191/191/191 192/192/192 190/190/190
f 1/1/1 165/165/165 194/194/194
f 45/45/45 193/193/193 165/165/165
f 53/53/53 194/194/194 193/193/193
f 165/165/165 193/193/193 194/194/194
f 15/15/15 195/195/195 169/169/169
f 52/52/52 196/196/196 195/195/195
f 45/45/45 169/169/169 196/196/196
f 195/195/195 196/196/196 169/169/169
f 17/17/17 197/197/197 199/199/199
f 53/53/53 198/198/198 197/197/197
f 52/52/52 199/199/199 198/198/198
f 197/197/197 198/198/198 199/199/199
f 45/45/45 196/196/196 193/193/193
f 52/52/52 198/198/198 196/196/196
f 53/53/53 193/193/193 198/198/198
f 196/196/196 198/198/198 193/193/193
f 6/6/6 200/200/200 181/181/181
f 54/54/54 201/201/201 200/200/200
f 49/49/49 181/181/181 201/201/201
f 200/200/200 201/201/201 181/181/181
f 16/16/16 202/202/202 204/204/204
f 55/55/55 203/203/203 202/202/202
f 54/54/54 204/204/204 203/203/203
f 202/202/202 203/203/203 204/204/204
f 15/15/15 186/186/186 206/206/206
f 49/49/49 205/205/205 186/186/186
f 55/55/55 206/206/206 205/205/205
f 186/186/186 205/205/205 206/206/206
f 54/54/54 203/203/203 201/201/201
f 55/55/55 205/205/205 203/203/203
f 49/49/49 201/201/201 205/205/205
f 203/203/203 205/205/205 201/201/201
f 2/2/2 207/207/207 209/209/209
f 56/56/56 208/208/208 207/207/207
f 58/58/58 209/209/209 208/208/208
f 207/207/207 208/208/208 209/209/209
f 17/17/17 210/210/210 212/212/212
f 57/57/57 211/211/211 210/210/210
f 56/56/56 212/212/212 211/211/211
f 210/210/210 211/211/211 212/212/212
f 16/16/16 213/213/213 215/215/215
f 58/58/58 214/214/214 213/213/213
f 57/57/57 215/215/215 214/214/214
f 213/213/213 214/214/214 215/215/215
f 56/56/56 211/211/211 208/208/208
f 57/57/57 214/214/214 211/211/211
f 58/58/58 208/208/208 214/214/214
f 211/211/211 214/214/214 208/208/208
f 15/15/15 206/206/206 195/195/195
f 55/55/55 216/216/216 206/206/206
f 52/52/52 195/195/195 216/216/216
f 206/206/206 216/216/216 195/195/195
f 16/16/16 215/215/215 202/202/202
f 57/57/57 217/217/217 215/215/215
f 55/55/55 202/202/202 217/217/217
f 215/215/215 217/217/217 202/202/202
f 17/17/17 199/199/199 210/210/210
f 52/52/52 218/218/218 199/199/199
f 57/57/57 210/210/210 218/218/218
f 199/199/199 218/218/218 210/210/210
f 55/55/55 217/217/217 216/216/216
f 57/57/57 218/218/218 217/217/217
f 52/52/52 216/216/216 218/218/218
f 217/217/217 218/218/218 216/216/216
f 1/1/1 194/194/194 220/220/220
f 53/53/53 219/219/219 194/194/194
f 60/60/60 220/220/220 219/219/219
f 194/194/194 219/219/219 220/220/220
f 17/17/17 221/221/221 197/197/197
f 59/59/59 222/222/222 221/221/221
f 53/53/53 197/197/197 222/222/222
f 221/221/221 222/222/222 197/197/197
f 19/19/19 223/223/223 225/225/225
f 60/60/60 224/224/224 223/223/223
f 59/59/59 225/225/225 224/224/224
f 223/223/223 224/224/224 225/225/225
f 53/53/53 222/222/222 219/219/219
f 59/59/59 224/224/224 222/222/222
f 60/60/60 219/219/219 224/224/224
f 222/222/222 224/224/224 219/219/219
f 2/2/2 226/226/226 207/207/207
f 61/61/61 227/227/227 226/226/226
f 56/56/56 207/207/207 227/227/227
f 226/226/226 227/227/227 207/207/207
f 18/18/18 228/228/228 230/230/230
f 62/62/62 229/229/229 228/228/228
f 61/61/61 230/230/230 229/229/229
f 228/228/228 229/229/229 230/230/230
f 17/17/17 212/212/212 232/232/232
f 56/56/56 231/231/231 212/212/212
f 62/62/62 232/232/232 231/231/231
f 212/212/212 231/231/231 232/232/232
f 61/61/61 229/229/229 227/227/227
f 62/62/62 231/231/231 229/229/229
f 56/56/56 227/227/227 231/231/231
f 229/229/229 231/231/231 227/227/227
f 8/8/8 233/233/233 235/235/235
f 63/63/63 234/234/234 233/233/233
f 65/65/65 235/235/235 234/234/234
f 233/233/233 234/234/234 235/235/235
f 19/19/19 236/236/236 238/238/238
f 64/64/64 237/237/237 236/236/236
f 63/63/63 238/238/238 237/237/237
f 236/236/236 237/237/237 238/238/238
f 18/18/18 239/239/239 241/241/241
f 65/65/65 240/240/240 239/239/239
f 64/64/64 241/241/241 240/240/240
f 239/239/239 240/240/240 241/241/241
f 63/63/63 237/237/237 234/234/234
f 64/64/64 240/240/240 237/237/237
f 65/65/65 234/234/234 240/240/240
f 237/237/237 240/240/240 234/234/234
f 17/17/17 232/232/232 221/221/221
f 62/62/62 242/242/242 232/232/232
f 59/59/59 221/221/221 242/242/242
f 232/232/232 242/242/242 221/221/221
f 18/18/18 241/241/241 228/228/228
f 64/64/64 243/243/243 241/241/241
f 62/62/62 228/228/228 243/243/243
f 241/241/241 243/243/243 228/228/228
f 19/19/19 225/225/225 236/236/236
f 59/59/59 244/244/244 225/225/225
f 64/64/64 236/236/236 244/244/244
f 225/225/225 244/244/244 236/236/236
f 62/62/62 243/243/243 242/242/242
f 64/64/64 244/244/244 243/243/243
f 59/59/59 242/242/242 244/244/244
f 243/243/243 244/244/244 242/242/242
f 1/1/1 220/220/220 246/246/246
f 60/60/60 245/245/245 220/220/220
f 67/67/67 246/246/246 245/245/245
f 220/220/220 245/245/245 246/246/246
f 19/19/19 247/247/247 223/223/223
f 66/66/66 248/248/248 247/247/247
f 60/60/60 223/223/223 248/248/248
f 247/247/247 248/248/248 223/223/223
f 21/21/21 249/249/249 251/251/251
f 67/67/67 250/250/250 249/249/249
f 66/66/66 251/251/251 250/250/250
f 249/249/249 250/250/250 251/251/251
f 60/60/60 248/248/248 245/245/245
f 66/66/66 250/250/250 248/248/248
f 67/67/67 245/245/245 250/250/250
f 248/248/248 250/250/250 245/245/245
f 8/8/8 252/252/252 233/233/233
f 68/68/68 253/253/253 252/252/252
f 63/63/63 233/233/233 253/253/253
f 252/252/252 253/253/253 233/233/233
f 20/20/20 254/254/254 256/256/256
f 69/69/69 255/255/255 254/254/254
f 68/68/68 256/256/256 255/255/255
f 254/254/254 255/255/255 256/256/256
f 19/19/19 238/238/238 258/258/258
f 63/63/63 257/257/257 238/238/238
f 69/69/69 258/258/258 257/257/257
f 238/238/238 257/257/257 258/258/258
f 68/68/68 255/255/255 253/253/253
f 69/69/69 257/257/257 255/255/255
f 63/63/63 253/253/253 257/257/257
f 255/255/255 257/257/257 253/253/253
f 11/11/11 259/259/259 261/261/261
f 70/70/70 260/260/260 259/259/259
f 72/72/72 261/261/261 260/260/260
f 259/259/259 260/260/260 261/261/261
f 21/21/21 262/262/262 264/264/264
f 71/71/71 263/263/263 262/262/262
f 70/70/70 264/264/264 263/263/263
f 262/262/262 263/263/263 264/264/264
f 20/20/20 265/265/265 267/267/267
f 72/72/72 266/266/266 265/265/265
f 71/71/71 267/267/267 266/266/266
f 265/265/265 266/266/266 267/267/267
f 70/70/70 263/263/263 260/260/260
f 71/71/71 266/266/266 263/263/263
f 72/72/72 260/260/260 266/266/266
f 263/263/263 266/266/266 260/260/260
f 19/19/19 258/258/258 247/247/247
f 69/69/69 268/268/268 258/258/258
f 66/66/66 247/247/247 268/268/268
f 258/258/258 268/268/268 247/247/247
f 20/20/20 267/267/267 254/254/254
f 71/71/71 269/269/269 267/267/267
f 69/69/69 254/254/254 269/269/269
f 267/267/267 269/269/269 254/254/254
f 21/21/21 251/251/251 262/262/262
f 66/66/66 270/270/270 251/251/251
f 71/71/71 262/262/262 270/270/270
f 251/251/251 270/270/270 262/262/262
f 69/69/69 269/269/269 268/268/268
f 71/71/71 270/270/270 269/269/269
f 66/66/66 268/268/268 270/270/270
f 269/269/269 270/270/270 268/268/268
f 1/1/1 246/246/246 163/163/163
f 67/67/67 271/271/271 246/246/246
f 43/43/43 163/163/163 271/271/271
f 246/246/246 271/271/271 163/163/163
f 21/21/21 272/272/272 249/249/249
f 73/73/73 273/273/273 272/272/272
f 67/67/67 249/249/249 273/273/273
f 272/272/272 273/273/273 249/249/249
f 13/13/13 168/168/168 275/275/275
f 43/43/43 274/274/274 168/168/168
f 73/73/73 275/275/275 274/274/274
f 168/168/168 274/274/274 275/275/275
f 67/67/67 273/273/273 271/271/271
f 73/73/73 274/274/274 273/273/273
f 43/43/43 271/271/271 274/274/274
f 273/273/273 274/274/274 271/271/271
f 11/11/11 276/276/276 259/259/259
f 74/74/74 277/277/277 276/276/276
f 70/70/70 259/259/259 277/277/277
f 276/276/276 277/277/277 259/259/259
f 22/22/22 278/278/278 280/280/280
f 75/75/75 279/279/279 278/278/278
f 74/74/74 280/280/280 279/279/279
f 278/278/278 279/279/279 280/280/280
f 21/21/21 264/264/264 282/282/282
f 70/70/70 281/281/281 264/264/264
f 75/75/75 282/282/282 281/281/281
f 264/264/264 281/281/281 282/282/282
f 74/74/74 279/279/279 277/277/277
f 75/75/75 281/281/281 279/279/279
f 70/70/70 277/277/277 281/281/281
f 279/279/279 281/281/281 277/277/277
f 12/12/12 174/174/174 284/284/284
f 48/48/48 283/283/283 174/174/174
f 77/77/77 284/284/284 283/283/283
f 174/174/174 283/283/283 284/284/284
f 13/13/13 285/285/285 178/178/178
f 76/76/76 286/286/286 285/285/285
f 48/48/48 178/178/178 286/286/286
f 285/285/285 286/286/286 178/178/178
f 22/22/22 287/287/287 289/289/289
f 77/77/77 288/288/288 287/287/287
f 76/76/76 289/289/289 288/288/288
f 287/287/287 288/288/288 289/289/289
f 48/48/48 286/286/286 283/283/283
f 76/76/76 288/288/288 286/286/286
f 77/77/77 283/283/283 288/288/288
f 286/286/286 288/288/288 283/283/283
f 21/21/21 282/282/282 272/272/272
f 75/75/75 290/290/290 282/282/282
f 73/73/73 272/272/272 290/290/290
f 282/282/282 290/290/290 272/272/272
f 22/22/22 289/289/289 278/278/278
f 76/76/76 291/291/291 289/289/289
f 75/75/75 278/278/278 291/291/291
f 289/289/289 291/291/291 278/278/278
f 13/13/13 275/275/275 285/285/285
f 73/73/73 292/292/292 275/275/275
f 76/76/76 285/285/285 292/292/292
f 275/275/275 292/292/292 285/285/285
f 75/75/75 291/291/291 290/290/290
f 76/76/76 292/292/292 291/291/291
f 73/73/73 290/290/290 292/292/292
f 291/291/291 292/292/292 290/290/290
f 2/2/2 209/209/209 294/294/294
f 58/58/58 293/293/293 209/209/209
f 79/79/79 294/294/294 293/293/293
f 209/209/209 293/293/293 294/294/294
f 16/16/16 295/295/295 213/213/213
f 78/78/78 296/296/296 295/295/295
f 58/58/58 213/213/213 296/296/296
f 295/295/295 296/296/296 213/213/213
f 24/24/24 297/297/297 299/299/299
f 79/79/79 298/298/298 297/297/297
f 78/78/78 299/299/299 298/298/298
f 297/297/297 298/298/298 299/299/299
f 58/58/58 296/296/296 293/293/293
f 78/78/78 298/298/298 296/296/296
f 79/79/79 293/293/293 298/298/298
f 296/296/296 298/298/298 293/293/293
f 6/6/6 300/300/300 200/200/200
f 80/80/80 301/301/301 300/300/300
f 54/54/54 200/200/200 301/301/301
f 300/300/300 301/301/301 200/200/200
f 23/23/23 302/302/302 304/304/304
f 81/81/81 303/303/303 302/302/302
f 80/80/80 304/304/304 303/303/303
f 302/302/302 303/303/303 304/304/304
f 16/16/16 204/204/204 306/306/306
f 54/54/54 305/305/305 204/204/204
f 81/81/81 306/306/306 305/305/305
f 204/204/204 305/305/305 306/306/306
f 80/80/80 303/303/303 301/301/301
f 81/81/81 305/305/305 303/303/303
f 54/54/54 301/301/301 305/305/305
f 303/303/303 305/305/305 301/301/301
f 10/10/10 307/307/307 309/309/309
f 82/82/82 308/308/308 307/307/307
f 84/84/84 309/309/309 308/308/308
f 307/307/307 308/308/308 309/309/309
f 24/24/24 310/310/310 312/312/312
f 83/83/83 311/311/311 310/310/310
f 82/82/82 312/312/312 311/311/311
f 310/310/310 311/311/311 312/312/312
f 23/23/23 313/313/313 315/315/315
f 84/84/84 314/314/314 313/313/313
f 83/83/83 315/315/315 314/314/314
f 313/313/313 314/314/314 315/315/315
f 82/82/82 311/311/311 308/308/308
f 83/83/83 314/314/314 311/311/311
f 84/84/84 308/308/308 314/314/314
f 311/311/311 314/314/314 308/308/308
f 16/16/16 306/306/306 295/295/295
f 81/81/81 316/316/316 306/306/306
f 78/78/78 295/295/295 316/316/316
f 306/306/306 316/316/316 295/295/295
f 23/23/23 315/315/315 302/302/302
f 83/83/83 317/317/317 315/315/315
f 81/81/81 302/302/302 317/317/317
f 315/315/315 317/317/317 302/302/302
f 24/24/24 299/299/299 310/310/310
f 78/78/78 318/318/318 299/299/299
f 83/83/83 310/310/310 318/318/318
f 299/299/299 318/318/318 310/310/310
f 81/81/81 317/317/317 316/316/316
f 83/83/83 318/318/318 317/317/317
f 78/78/78 316/316/316 318/318/318
f 317/317/317 318/318/318 316/316/316
f 6/6/6 183/183/183 320/320/320
f 51/51/51 319/319/319 183/183/183
f 86/86/86 320/320/320 319/319/319
f 183/183/183 319/319/319 320/320/320
f 14/14/14 321/321/321 187/187/187
f 85/85/85 322/322/322 321/321/321
f 51/51/51 187/187/187 322/322/322
f 321/321/321 322/322/322 187/187/187
f 26/26/26 323/323/323 325/325/325
f 86/86/86 324/324/324 323/323/323
f 85/85/85 325/325/325 324/324/324
f 323/323/323 324/324/324 325/325/325
f 51/51/51 322/322/322 319/319/319
f 85/85/85 324/324/324 322/322/322
f 86/86/86 319/319/319 324/324/324
f 322/322/322 324/324/324 319/319/319
f 12/12/12 326/326/326 172/172/172
f 87/87/87 327/327/327 326/326/326
f 46/46/46 172/172/172 327/327/327
f 326/326/326 327/327/327 172/172/172
f 25/25/25 328/328/328 330/330/330
f 88/88/88 329/329/329 328/328/328
f 87/87/87 330/330/330 329/329/329
f 328/328/328 329/329/329 330/330/330
f 14/14/14 177/177/177 332/332/332
f 46/46/46 331/331/331 177/177/177
f 88/88/88 332/332/332 331/331/331
f 177/177/177 331/331/331 332/332/332
f 87/87/87 329/329/329 327/327/327
f 88/88/88 331/331/331 329/329/329
f 46/46/46 327/327/327 331/331/331
f 329/329/329 331/331/331 327/327/327
f 5/5/5 333/333/333 335/335/335
f 89/89/89 334/334/334 333/333/333
f 91/91/91 335/335/335 334/334/334
f 333/333/333 334/334/334 335/335/335
f 26/26/26 336/336/336 338/338/338
f 90/90/90 337/337/337 336/336/336
f 89/89/89 338/338/338 337/337/337
f 336/336/336 337/337/337 338/338/338
f 25/25/25 339/339/339 341/341/341
f 91/91/91 340/340/340 339/339/339
f 90/90/90 341/341/341 340/340/340
f 339/339/339 340/340/340 341/341/341
f 89/89/89 337/337/337 334/334/334
f 90/90/90 340/340/340 337/337/337
f 91/91/91 334/334/334 340/340/340
f 337/337/337 340/340/340 334/334/334
f 14/14/14 332/332/332 321/321/321
f 88/88/88 342/342/342 332/332/332
f 85/85/85 321/321/321 342/342/342
f 332/332/332 342/342/342 321/321/321
f 25/25/25 341/341/341 328/328/328
f 90/90/90 343/343/343 341/341/341
f 88/88/88 328/328/328 343/343/343
f 341/341/341 343/343/343 328/328/328
f 26/26/26 325/325/325 336/336/336
f 85/85/85 344/344/344 325/325/325
f 90/90/90 336/336/336 344/344/344
f 325/325/325 344/344/344 336/336/336
f 88/88/88 343/343/343 342/342/342
f 90/90/90 344/344/344 343/343/343
f 85/85/85 342/342/342 344/344/344
f 343/343/343 344/344/344 342/342/342
f 12/12/12 284/284/284 346/346/346
f 77/77/77 345/345/345 284/284/284
f 93/93/93 346/346/346 345/345/345
f 284/284/284 345/345/345 346/346/346
f 22/22/22 347/347/347 287/287/287
f 92/92/92 348/348/348 347/347/347
f 77/77/77 287/287/287 348/348/348
f 347/347/347 348/348/348 287/287/287
f 28/28/28 349/349/349 351/351/351
f 93/93/93 350/350/350 349/349/349
f 92/92/92 351/351/351 350/350/350
f 349/349/349 350/350/350 351/351/351
f 77/77/77 348/348/348 345/345/345
f 92/92/92 350/350/350 348/348/348
f 93/93/93 345/345/345 350/350/350
f 348/348/348 350/350/350 345/345/345
f 11/11/11 352/352/352 276/276/276
f 94/94/94 353/353/353 352/352/352
f 74/74/74 276/276/276 353/353/353
f 352/352/352 353/353/353 276/276/276
f 27/27/27 354/354/354 356/356/356
f 95/95/95 355/355/355 354/354/354
f 94/94/94 356/356/356 355/355/355
f 354/354/354 355/355/355 356/356/356
f 22/22/22 280/280/280 358/358/358
f 74/74/74 357/357/357 280/280/280
f 95/95/95 358/358/358 357/357/357
f 280/280/280 357/357/357 358/358/358
f 94/94/94 355/355/355 353/353/353
f 95/95/95 357/357/357 355/355/355
f 74/74/74 353/353/353 357/357/357
f 355/355/355 357/357/357 353/353/353
f 3/3/3 359/359/359 361/361/361
f 96/96/96 360/360/360 359/359/359
f 98/98/98 361/361/361 360/360/360
f 359/359/359 360/360/360 361/361/361
f 28/28/28 362/362/362 364/364/364
f 97/97/97 363/363/363 362/362/362
f 96/96/96 364/364/364 363/363/363
f 362/362/362 363/363/363 364/364/364
f 27/27/27 365/365/365 367/367/367
f 98/98/98 366/366/366 365/365/365
f 97/97/97 367/367/367 366/366/366
f 365/365/365 366/366/366 367/367/367
f 96/96/96 363/363/363 360/360/360
f 97/97/97 366/366/366 363/363/363
f 98/98/98 360/360/360 366/366/366
f 363/363/363 366/366/366 360/360/360
f 22/22/22 358/358/358 347/347/347
f 95/95/95 368/368/368 358/358/358
f 92/92/92 347/347/347 368/368/368
f 358/358/358 368/368/368 347/347/347
f 27/27/27 367/367/367 354/354/354
f 97/97/97 369/369/369 367/367/367
f 95/95/95 354/354/354 369/369/369
f 367/367/367 369/369/369 354/354/354
f 28/28/28 351/351/351 362/362/362
f 92/92/92 370/370/370 351/351/351
f 97/97/97 362/362/362 370/370/370
f 351/351/351 370/370/370 362/362/362
f 95/95/95 369/369/369 368/368/368
f 97/97/97 370/370/370 369/369/369
f 92/92/92 368/368/368 370/370/370
f 369/369/369 370/370/370 368/368/368
f 11/11/11 261/261/261 372/372/372
f 72/72/72 371/371/371 261/261/261
f 100/100/100 372/372/372 371/371/371
f 261/261/261 371/371/371 372/372/372
f 20/20/20 373/373/373 265/265/265
f 99/99/99 374/374/374 373/373/373
f 72/72/72 265/265/265 374/374/374
f 373/373/373 374/374/374 265/265/265
f 30/30/30 375/375/375 377/377/377
f 100/100/100 376/376/376 375/375/375
f 99/99/99 377/377/377 376/376/376
f 375/375/375 376/376/376 377/377/377
f 72/72/72 374/374/374 371/371/371
f 99/99/99 376/376/376 374/374/374
f 100/100/100 371/371/371 376/376/376
f 374/374/374 376/376/376 371/371/371
f 8/8/8 378/378/378 252/252/252
f 101/101/101 379/379/379 378/378/378
f 68/68/68 252/252/252 379/379/379
f 378/378/378 379/379/379 252/252/252
f 29/29/29 380/380/380 382/382/382
f 102/102/102 381/381/381 380/380/380
f 101/101/101 382/382/382 381/381/381
f 380/380/380 381/381/381 382/382/382
f 20/20/20 256/256/256 384/384/384
f 68/68/68 383/383/383 256/256/256
f 102/102/102 384/384/384 383/383/383
f 256/256/256 383/383/383 384/384/384
f 101/101/101 381/381/381 379/379/379
f 102/102/102 383/383/383 381/381/381
f 68/68/68 379/379/379 383/383/383
f 381/381/381 383/383/383 379/379/379
f 7/7/7 385/385/385 387/387/387
f 103/103/103 386/386/386 385/385/385
f 105/105/105 387/387/387 386/386/386
f 385/385/385 386/386/386 387/387/387
f 30/30/30 388/388/388 390/390/390
f 104/104/104 389/389/389 388/388/388
f 103/103/103 390/390/390 389/389/389
f 388/388/388 389/389/389 390/390/390
f 29/29/29 391/391/391 393/393/393
f 105/105/105 392/392/392 391/391/391
f 104/104/104 393/393/393 392/392/392
f 391/391/391 392/392/392 393/393/393
f 103/103/103 389/389/389 386/386/386
f 104/104/104 392/392/392 389/389/389
f 105/105/105 386/386/386 392/392/392
f 389/389/389 392/392/392 386/386/386
f 20/20/20 384/384/384 373/373/373
f 102/102/102 394/394/394 384/384/384
f 99/99/99 373/373/373 394/394/394
f 384/384/384 394/394/394 373/373/373
f 29/29/29 393/393/393 380/380/380
f 104/104/104 395/395/395 393/393/393
f 102/102/102 380/380/380 395/395/395
f 393/393/393 395/395/395 380/380/380
f 30/30/30 377/377/377 388/388/388
f 99/99/99 396/396/396 377/377/377
f 104/104/104 388/388/388 396/396/396
f 377/377/377 396/396/396 388/388/388
f 102/102/102 395/395/395 394/394/394
f 104/104/104 396/396/396 395/395/395
f 99/99/99 394/394/394 396/396/396
f 395/395/395 396/396/396 394/394/394
f 8/8/8 235/235/235 398/398/398
f 65/65/65 397/397/397 235/235/235
f 107/107/107 398/398/398 397/397/397
f 235/235/235 397/397/397 398/398/398
f 18/18/18 399/399/399 239/239/239
f 106/106/106 400/400/400 399/399/399
f 65/65/65 239/239/239 400/400/400
f 399/399/399 400/400/400 239/239/239
f 32/32/32 401/401/401 403/403/403
f 107/107/107 402/402/402 401/401/401
f 106/106/106 403/403/403 402/402/402
f 401/401/401 402/402/402 403/403/403
f 65/65/65 400/400/400 397/397/397
f 106/106/106 402/402/402 400/400/400
f 107/107/107 397/397/397 402/402/402
f 400/400/400 402/402/402 397/397/397
f 2/2/2 404/404/404 226/226/226
f 108/108/108 405/405/405 404/404/404
f 61/61/61 226/226/226 405/405/405
f 404/404/404 405/405/405 226/226/226
f 31/31/31 406/406/406 408/408/408
f 109/109/109 407/407/407 406/406/406
f 108/108/108 408/408/408 407/407/407
f 406/406/406 407/407/407 408/408/408
f 18/18/18 230/230/230 410/410/410
f 61/61/61 409/409/409 230/230/230
f 109/109/109 410/410/410 409/409/409
f 230/230/230 409/409/409 410/410/410
f 108/108/108 407/407/407 405/405/405
f 109/109/109 409/409/409 407/407/407
f 61/61/61 405/405/405 409/409/409
f 407/407/407 409/409/409 405/405/405
f 9/9/9 411/411/411 413/413/413
f 110/110/110 412/412/412 411/411/411
f 112/112/112 413/413/413 412/412/412
f 411/411/411 412/412/412 413/413/413
f 32/32/32 414/414/414 416/416/416
f 111/111/111 415/415/415 414/414/414
f 110/110/110 416/416/416 415/415/415
f 414/414/414 415/415/415 416/416/416
f 31/31/31 417/417/417 419/419/419
f 112/112/112 418/418/418 417/417/417
f 111/111/111 419/419/419 418/418/418
f 417/417/417 418/418/418 419/419/419
f 110/110/110 415/415/415 412/412/412
f 111/111/111 418/418/418 415/415/415
f 112/112/112 412/412/412 418/418/418
f 415/415/415 418/418/418 412/412/412
f 18/18/18 410/410/410 399/399/399
f 109/109/109 420/420/420 410/410/410
f 106/106/106 399/399/399 420/420/420
f 410/410/410 420/420/420 399/399/399
f 31/31/31 419/419/419 406/406/406
f 111/111/111 421/421/421 419/419/419
f 109/109/109 406/406/406 421/421/421
f 419/419/419 421/421/421 406/406/406
f 32/32/32 403/403/403 414/414/414
f 106/106/106 422/422/422 403/403/403
f 111/111/111 414/414/414 422/422/422
f 403/403/403 422/422/422 414/414/414
f 109/109/109 421/421/421 420/420/420
f 111/111/111 422/422/422 421/421/421
f 106/106/106 420/420/420 422/422/422
f 421/421/421 422/422/422 420/420/420
f 4/4/4 423/423/423 425/425/425
f 113/113/113 424/424/424 423/423/423
f 115/115/115 425/425/425 424/424/424
f 423/423/423 424/424/424 425/425/425
f 33/33/33 426/426/426 428/428/428
f 114/114/114 427/427/427 426/426/426
f 113/113/113 428/428/428 427/427/427
f 426/426/426 427/427/427 428/428/428
f 35/35/35 429/429/429 431/431/431
f 115/115/115 430/430/430 429/429/429
f 114/114/114 431/431/431 430/430/430
f 429/429/429 430/430/430 431/431/431
f 113/113/113 427/427/427 424/424/424
f 114/114/114 430/430/430 427/427/427
f 115/115/115 424/424/424 430/430/430
f 427/427/427 430/430/430 424/424/424
f 10/10/10 432/432/432 434/434/434
f 116/116/116 433/433/433 432/432/432
f 118/118/118 434/434/434 433/433/433
f 432/432/432 433/433/433 434/434/434
f 34/34/34 435/435/435 437/437/437
f 117/117/117 436/436/436 435/435/435
f 116/116/116 437/437/437 436/436/436
f 435/435/435 436/436/436 437/437/437
f 33/33/33 438/438/438 440/440/440
f 118/118/118 439/439/439 438/438/438
f 117/117/117 440/440/440 439/439/439
f 438/438/438 439/439/439 440/440/440
f 116/116/116 436/436/436 433/433/433
f 117/117/117 439/439/439 436/436/436
f 118/118/118 433/433/433 439/439/439
f 436/436/436 439/439/439 433/433/433
f 5/5/5 441/441/441 443/443/443
f 119/119/119 442/442/442 441/441/441
f 121/121/121 443/443/443 442/442/442
f 441/441/441 442/442/442 443/443/443
f 35/35/35 444/444/444 446/446/446
f 120/120/120 445/445/445 444/444/444
f 119/119/119 446/446/446 445/445/445
f 444/444/444 445/445/445 446/446/446
f 34/34/34 447/447/447 449/449/449
f 121/121/121 448/448/448 447/447/447
f 120/120/120 449/449/449 448/448/448
f 447/447/447 448/448/448 449/449/449
f 119/119/119 445/445/445 442/442/442
f 120/120/120 448/448/448 445/445/445
f 121/121/121 442/442/442 448/448/448
f 445/445/445 448/448/448 442/442/442
f 33/33/33 440/440/440 426/426/426
f 117/117/117 450/450/450 440/440/440
f 114/114/114 426/426/426 450/450/450
f 440/440/440 450/450/450 426/426/426
f 34/34/34 449/449/449 435/435/435
f 120/120/120 451/451/451 449/449/449
f 117/117/117 435/435/435 451/451/451
f 449/449/449 451/451/451 435/435/435
f 35/35/35 431/431/431 444/444/444
f 114/114/114 452/452/452 431/431/431
f 120/120/120 444/444/444 452/452/452
f 431/431/431 452/452/452 444/444/444
f 117/117/117 451/451/451 450/450/450
f 120/120/120 452/452/452 451/451/451
f 114/114/114 450/450/450 452/452/452
f 451/451/451 452/452/452 450/450/450
f 4/4/4 425/425/425 454/454/454
f 115/115/115 453/453/453 425/425/425
f 123/123/123 454/454/454 453/453/453
f 425/425/425 453/453/453 454/454/454
f 35/35/35 455/455/455 429/429/429
f 122/122/122 456/456/456 455/455/455
f 115/115/115 429/429/429 456/456/456
f 455/455/455 456/456/456 429/429/429
f 37/37/37 457/457/457 459/459/459
f 123/123/123 458/458/458 457/457/457
f 122/122/122 459/459/459 458/458/458
f 457/457/457 458/458/458 459/459/459
f 115/115/115 456/456/456 453/453/453
f 122/122/122 458/458/458 456/456/456
f 123/123/123 453/453/453 458/458/458
f 456/456/456 458/458/458 453/453/453
f 5/5/5 460/460/460 441/441/441
f 124/124/124 461/461/461 460/460/460
f 119/119/119 441/441/441 461/461/461
f 460/460/460 461/461/461 441/441/441
f 36/36/36 462/462/462 464/464/464
f 125/125/125 463/463/463 462/462/462
f 124/124/124 464/464/464 463/463/463
f 462/462/462 463/463/463 464/464/464
f 35/35/35 446/446/446 466/466/466
f 119/119/119 465/465/465 446/446/446
f 125/125/125 466/466/466 465/465/465
f 446/446/446 465/465/465 466/466/466
f 124/124/124 463/463/463 461/461/461
f 125/125/125 465/465/465 463/463/463
f 119/119/119 461/461/461 465/465/465
f 463/463/463 465/465/465 461/461/461
f 3/3/3 467/467/467 469/469/469
f 126/126/126 468/468/468 467/467/467
f 128/128/128 469/469/469 468/468/468
f 467/467/467 468/468/468 469/469/469
f 37/37/37 470/470/470 472/472/472
f 127/127/127 471/471/471 470/470/470
f 126/126/126 472/472/472 471/471/471
f 470/470/470 471/471/471 472/472/472
f 36/36/36 473/473/473 475/475/475
f 128/128/128 474/474/474 473/473/473
f 127/127/127 475/475/475 474/474/474
f 473/473/473 474/474/474 475/475/475
f 126/126/126 471/471/471 468/468/468
f 127/127/127 474/474/474 471/471/471
f 128/128/128 468/468/468 474/474/474
f 471/471/471 474/474/474 468/468/468
f 35/35/35 466/466/466 455/455/455
f 125/125/125 476/476/476 466/466/466
f 122/122/122 455/455/455 476/476/476
f 466/466/466 476/476/476 455/455/455
f 36/36/36 475/475/475 462/462/462
f 127/127/127 477/477/477 475/475/475
f 125/125/125 462/462/462 477/477/477
f 475/475/475 477/477/477 462/462/462
f 37/37/37 459/459/459 470/470/470
f 122/122/122 478/478/478 459/459/459
f 127/127/127 470/470/470 478/478/478
f 459/459/459 478/478/478 470/470/470
f 125/125/125 477/477/477 476/476/476
f 127/127/127 478/478/478 477/477/477
f 122/122/122 476/476/476 478/478/478
f 477/477/477 478/478/478 476/476/476
f 4/4/4 454/454/454 480/480/480
f 123/123/123 479/479/479 454/454/454
f 130/130/130 480/480/480 479/479/479
f 454/454/454 479/479/479 480/480/480
f 37/37/37 481/481/481 457/457/457
f 129/129/129 482/482/482 481/481/481
f 123/123/123 457/457/457 482/482/482
f 481/481/481 482/482/482 457/457/457
f 39/39/39 483/483/483 485/485/485
f 130/130/130 484/484/484 483/483/483
f 129/129/129 485/485/485 484/484/484
f 483/483/483 484/484/484 485/485/485
f 123/123/123 482/482/482 479/479/479
f 129/129/129 484/484/484 482/482/482
f 130/130/130 479/479/479 484/484/484
f 482/482/482 484/484/484 479/479/479
f 3/3/3 486/486/486 467/467/467
f 131/131/131 487/487/487 486/486/486
f 126/126/126 467/467/467 487/487/487
f 486/486/486 487/487/487 467/467/467
f 38/38/38 488/488/488 490/490/490
f 132/132/132 489/489/489 488/488/488
f 131/131/131 490/490/490 489/489/489
f 488/488/488 489/489/489 490/490/490
f 37/37/37 472/472/472 492/492/492
f 126/126/126 491/491/491 472/472/472
f 132/132/132 492/492/492 491/491/491
f 472/472/472 491/491/491 492/492/492
f 131/131/131 489/489/489 487/487/487
f 132/132/132 491/491/491 489/489/489
f 126/126/126 487/487/487 491/491/491
f 489/489/489 491/491/491 487/487/487
f 7/7/7 493/493/493 495/495/495
f 133/133/133 494/494/494 493/493/493
f 135/135/135 495/495/495 494/494/494
f 493/493/493 494/494/494 495/495/495
f 39/39/39 496/496/496 498/498/498
f 134/134/134 497/497/497 496/496/496
f 133/133/133 498/498/498 497/497/497
f 496/496/496 497/497/497 498/498/498
f 38/38/38 499/499/499 501/501/501
f 135/135/135 500/500/500 499/499/499
f 134/134/134 501/501/501 500/500/500
f 499/499/499 500/500/500 501/501/501
f 133/133/133 497/497/497 494/494/494
f 134/134/134 500/500/500 497/497/497
f 135/135/135 494/494/494 500/500/500
f 497/497/497 500/500/500 494/494/494
f 37/37/37 492/492/492 481/481/481
f 132/132/132 502/502/502 492/492/492
f 129/129/129 481/481/481 502/502/502
f 492/492/492 502/502/502 481/481/481
f 38/38/38 501/501/501 488/488/488
f 134/134/134 503/503/503 501/501/501
f 132/132/132 488/488/488 503/503/503
f 501/501/501 503/503/503 488/488/488
f 39/39/39 485/485/485 496/496/496
f 129/129/129 504/504/504 485/485/485
f 134/134/134 496/496/496 504/504/504
f 485/485/485 504/504/504 496/496/496
f 132/132/132 503/503/503 502/502/502
f 134/134/134 504/504/504 503/503/503
f 129/129/129 502/502/502 504/504/504
f 503/503/503 504/504/504 502/502/502
f 4/4/4 480/480/480 506/506/506
f 130/130/130 505/505/505 480/480/480
f 137/137/137 506/506/506 505/505/505
f 480/480/480 505/505/505 506/506/506
f 39/39/39 507/507/507 483/483/483
f 136/136/136 508/508/508 507/507/507
f 130/130/130 483/483/483 508/508/508
f 507/507/507 508/508/508 483/483/483
f 41/41/41 509/509/509 511/511/511
f 137/137/137 510/510/510 509/509/509
f 136/136/136 511/511/511 510/510/510
f 509/509/509 510/510/510 511/511/511
f 130/130/130 508/508/508 505/505/505
f 136/136/136 510/510/510 508/508/508
f 137/137/137 505/505/505 510/510/510
f 508/508/508 510/510/510 505/505/505
f 7/7/7 512/512/512 493/493/493
f 138/138/138 513/513/513 512/512/512
f 133/133/133 493/493/493 513/513/513
f 512/512/512 513/513/513 493/493/493
f 40/40/40 514/514/514 516/516/516
f 139/139/139 515/515/515 514/514/514
f 138/138/138 516/516/516 515/515/515
f 514/514/514 515/515/515 516/516/516
f 39/39/39 498/498/498 518/518/518
f 133/133/133 517/517/517 498/498/498
f 139/139/139 518/518/518 517/517/517
f 498/498/498 517/517/517 518/518/518
f 138/138/138 515/515/515 513/513/513
f 139/139/139 517/517/517 515/515/515
f 133/133/133 513/513/513 517/517/517
f 515/515/515 517/517/517 513/513/513
f 9/9/9 519/519/519 521/521/521
f 140/140/140 520/520/520 519/519/519
f 142/142/142 521/521/521 520/520/520
f 519/519/519 520/520/520 521/521/521
f 41/41/41 522/522/522 524/524/524
f 141/141/141 523/523/523 522/522/522
f 140/140/140 524/524/524 523/523/523
f 522/522/522 523/523/523 524/524/524
f 40/40/40 525/525/525 527/527/527
f 142/142/142 526/526/526 525/525/525
f 141/141/141 527/527/527 526/526/526
f 525/525/525 526/526/526 527/527/527
f 140/140/140 523/523/523 520/520/520
f 141/141/141 526/526/526 523/523/523
f 142/142/142 520/520/520 526/526/526
f 523/523/523 526/526/526 520/520/520
f 39/39/39 518/518/518 507/507/507
f 139/139/139 528/528/528 518/518/518
f 136/136/136 507/507/507 528/528/528
f 518/518/518 528/528/528 507/507/507
f 40/40/40 527/527/527 514/514/514
f 141/141/141 529/529/529 527/527/527
f 139/139/139 514/514/514 529/529/529
f 527/527/527 529/529/529 514/514/514
f 41/41/41 511/511/511 522/522/522
f 136/136/136 530/530/530 511/511/511
f 141/141/141 522/522/522 530/530/530
f 511/511/511 530/530/530 522/522/522
f 139/139/139 529/529/529 528/528/528
f 141/141/141 530/530/530 529/529/529
f 136/136/136 528/528/528 530/530/530
f 529/529/529 530/530/530 528/528/528
f 4/4/4 506/506/506 423/423/423
f 137/137/137 531/531/531 506/506/506
f 113/113/113 423/423/423 531/531/531
f 506/506/506 531/531/531 423/423/423
f 41/41/41 532/532/532 509/509/509
f 143/143/143 533/533/533 532/532/532
f 137/137/137 509/509/509 533/533/533
f 532/532/532 533/533/533 509/509/509
f 33/33/33 428/428/428 535/535/535
f 113/113/113 534/534/534 428/428/428
f 143/143/143 535/535/535 534/534/534
f 428/428/428 534/534/534 535/535/535
f 137/137/137 533/533/533 531/531/531
f 143/143/143 534/534/534 533/533/533
f 113/113/113 531/531/531 534/534/534
f 533/533/533 534/534/534 531/531/531
f 9/9/9 536/536/536 519/519/519
f 144/144/144 537/537/537 536/536/536
f 140/140/140 519/519/519 537/537/537
f 536/536/536 537/537/537 519/519/519
f 42/42/42 538/538/538 540/540/540
f 145/145/145 539/539/539 538/538/538
f 144/144/144 540/540/540 539/539/539
f 538/538/538 539/539/539 540/540/540
f 41/41/41 524/524/524 542/542/542
f 140/140/140 541/541/541 524/524/524
f 145/145/145 542/542/542 541/541/541
f 524/524/524 541/541/541 542/542/542
f 144/144/144 539/539/539 537/537/537
f 145/145/145 541/541/541 539/539/539
f 140/140/140 537/537/537 541/541/541
f 539/539/539 541/541/541 537/537/537
f 10/10/10 434/434/434 544/544/544
f 118/118/118 543/543/543 434/434/434
f 147/147/147 544/544/544 543/543/543
f 434/434/434 543/543/543 544/544/544
f 33/33/33 545/545/545 438/438/438
f 146/146/146 546/546/546 545/545/545
f 118/118/118 438/438/438 546/546/546
f 545/545/545 546/546/546 438/438/438
f 42/42/42 547/547/547 549/549/549
f 147/147/147 548/548/548 547/547/547
f 146/146/146 549/549/549 548/548/548
f 547/547/547 548/548/548 549/549/549
f 118/118/118 546/546/546 543/543/543
f 146/146/146 548/548/548 546/546/546
f 147/147/147 543/543/543 548/548/548
f 546/546/546 548/548/548 543/543/543
f 41/41/41 542/542/542 532/532/532
f 145/145/145 550/550/550 542/542/542
f 143/143/143 532/532/532 550/550/550
f 542/542/542 550/550/550 532/532/532
f 42/42/42 549/549/549 538/538/538
f 146/146/146 551/551/551 549/549/549
f 145/145/145 538/538/538 551/551/551
f 549/549/549 551/551/551 538/538/538
f 33/33/33 535/535/535 545/545/545
f 143/143/143 552/552/552 535/535/535
f 146/146/146 545/545/545 552/552/552
f 535/535/535 552/552/552 545/545/545
f 145/145/145 551/551/551 550/550/550
f 146/146/146 552/552/552 551/551/551
f 143/143/143 550/550/550 552/552/552
f 551/551/551 552/552/552 550/550/550
f 5/5/5 443/443/443 333/333/333
f 121/121/121 553/553/553 443/443/443
f 89/89/89 333/333/333 553/553/553
f 443/443/443 553/553/553 333/333/333
f 34/34/34 554/554/554 447/447/447
f 148/148/148 555/555/555 554/554/554
f 121/121/121 447/447/447 555/555/555
f 554/554/554 555/555/555 447/447/447
f 26/26/26 338/338/338 557/557/557
f 89/89/89 556/556/556 338/338/338
f 148/148/148 557/557/557 556/556/556
f 338/338/338 556/556/556 557/557/557
f 121/121/121 555/555/555 553/553/553
f 148/148/148 556/556/556 555/555/555
f 89/89/89 553/553/553 556/556/556
f 555/555/555 556/556/556 553/553/553
f 10/10/10 309/309/309 432/432/432
f 84/84/84 558/558/558 309/309/309
f 116/116/116 432/432/432 558/558/558
f 309/309/309 558/558/558 432/432/432
f 23/23/23 559/559/559 313/313/313
f 149/149/149 560/560/560 559/559/559
f 84/84/84 313/313/313 560/560/560
f 559/559/559 560/560/560 313/313/313
f 34/34/34 437/437/437 562/562/562
f 116/116/116 561/561/561 437/437/437
f 149/149/149 562/562/562 561/561/561
f 437/437/437 561/561/561 562/562/562
f 84/84/84 560/560/560 558/558/558
f 149/149/149 561/561/561 560/560/560
f 116/116/116 558/558/558 561/561/561
f 560/560/560 561/561/561 558/558/558
f 6/6/6 320/320/320 300/300/300
f 86/86/86 563/563/563 320/320/320
f 80/80/80 300/300/300 563/563/563
f 320/320/320 563/563/563 300/300/300
f 26/26/26 564/564/564 323/323/323
f 150/150/150 565/565/565 564/564/564
f 86/86/86 323/323/323 565/565/565
f 564/564/564 565/565/565 323/323/323
f 23/23/23 304/304/304 567/567/567
f 80/80/80 566/566/566 304/304/304
f 150/150/150 567/567/567 566/566/566
f 304/304/304 566/566/566 567/567/567
f 86/86/86 565/565/565 563/563/563
f 150/150/150 566/566/566 565/565/565
f 80/80/80 563/563/563 566/566/566
f 565/565/565 566/566/566 563/563/563
f 34/34/34 562/562/562 554/554/554
f 149/149/149 568/568/568 562/562/562
f 148/148/148 554/554/554 568/568/568
f 562/562/562 568/568/568 554/554/554
f 23/23/23 567/567/567 559/559/559
f 150/150/150 569/569/569 567/567/567
f 149/149/149 559/559/559 569/569/569
f 567/567/567 569/569/569 559/559/559
f 26/26/26 557/557/557 564/564/564
f 148/148/148 570/570/570 557/557/557
f 150/150/150 564/564/564 570/570/570
f 557/557/557 570/570/570 564/564/564
f 149/149/149 569/569/569 568/568/568
f 150/150/150 570/570/570 569/569/569
f 148/148/148 568/568/568 570/570/570
f 569/569/569 570/570/570 568/568/568
f 3/3/3 469/469/469 359/359/359
f 128/128/128 571/571/571 469/469/469
f 96/96/96 359/359/359 571/571/571
f 469/469/469 571/571/571 359/359/359
f 36/36/36 572/572/572 473/473/473
f 151/151/151 573/573/573 572/572/572
f 128/128/128 473/473/473 573/573/573
f 572/572/572 573/573/573 473/473/473
f 28/28/28 364/364/364 575/575/575
f 96/96/96 574/574/574 364/364/364
f 151/151/151 575/575/575 574/574/574
f 364/364/364 574/574/574 575/575/575
f 128/128/128 573/573/573 571/571/571
f 151/151/151 574/574/574 573/573/573
f 96/96/96 571/571/571 574/574/574
f 573/573/573 574/574/574 571/571/571
f 5/5/5 335/335/335 460/460/460
f 91/91/91 576/576/576 335/335/335
f 124/124/124 460/460/460 576/576/576
f 335/335/335 576/576/576 460/460/460
f 25/25/25 577/577/577 339/339/339
f 152/152/152 578/578/578 577/577/577
f 91/91/91 339/339/339 578/578/578
f 577/577/577 578/578/578 339/339/339
f 36/36/36 464/464/464 580/580/580
f 124/124/124 579/579/579 464/464/464
f 152/152/152 580/580/580 579/579/579
f 464/464/464 579/579/579 580/580/580
f 91/91/91 578/578/578 576/576/576
f 152/152/152 579/579/579 578/578/578
f 124/124/124 576/576/576 579/579/579
f 578/578/578 579/579/579 576/576/576
f 12/12/12 346/346/346 326/326/326
f 93/93/93 581/581/581 346/346/346
f 87/87/87 326/326/326 581/581/581
f 346/346/346 581/581/581 326/326/326
f 28/28/28 582/582/582 349/349/349
f 153/153/153 583/583/583 582/582/582
f 93/93/93 349/349/349 583/583/583
f 582/582/582 583/583/583 349/349/349
f 25/25/25 330/330/330 585/585/585
f 87/87/87 584/584/584 330/330/330
f 153/153/153 585/585/585 584/584/584
f 330/330/330 584/584/584 585/585/585
f 93/93/93 583/583/583 581/581/581
f 153/153/153 584/584/584 583/583/583
f 87/87/87 581/581/581 584/584/584
f 583/583/583 584/584/584 581/581/581
f 36/36/36 580/580/580 572/572/572
f 152/152/152 586/586/586 580/580/580
f 151/151/151 572/572/572 586/586/586
f 580/580/580 586/586/586 572/572/572
f 25/25/25 585/585/585 577/577/577
f 153/153/153 587/587/587 585/585/585
f 152/152/152 577/577/577 587/587/587
f 585/585/585 587/587/587 577/577/577
f 28/28/28 575/575/575 582/582/582
f 151/151/151 588/588/588 575/575/575
f 153/153/153 582/582/582 588/588/588
f 575/575/575 588/588/588 582/582/582
f 152/152/152 587/587/587 586/586/586
f 153/153/153 588/588/588 587/587/587
f 151/151/151 586/586/586 588/588/588
f 587/587/587 588/588/588 586/586/586
f 7/7/7 495/495/495 385/385/385
f 135/135/135 589/589/589 495/495/495
f 103/103/103 385/385/385 589/589/589
f 495/495/495 589/589/589 385/385/385
f 38/38/38 590/590/590 499/499/499
f 154/154/154 591/591/591 590/590/590
f 135/135/135 499/499/499 591/591/591
f 590/590/590 591/591/591 499/499/499
f 30/30/30 390/390/390 593/593/593
f 103/103/103 592/592/592 390/390/390
f 154/154/154 593/593/593 592/592/592
f 390/390/390 592/592/592 593/593/593
f 135/135/135 591/591/591 589/589/589
f 154/154/154 592/592/592 591/591/591
f 103/103/103 589/589/589 592/592/592
f 591/591/591 592/592/592 589/589/589
f 3/3/3 361/361/361 486/486/486
f 98/98/98 594/594/594 361/361/361
f 131/131/131 486/486/486 594/594/594
f 361/361/361 594/594/594 486/486/486
f 27/27/27 595/595/595 365/365/365
f 155/155/155 596/596/596 595/595/595
f 98/98/98 365/365/365 596/596/596
f 595/595/595 596/596/596 365/365/365
f 38/38/38 490/490/490 598/598/598
f 131/131/131 597/597/597 490/490/490
f 155/155/155 598/598/598 597/597/597
f 490/490/490 597/597/597 598/598/598
f 98/98/98 596/596/596 594/594/594
f 155/155/155 597/597/597 596/596/596
f 131/131/131 594/594/594 597/597/597
f 596/596/596 597/597/597 594/594/594
f 11/11/11 372/372/372 352/352/352
f 100/100/100 599/599/599 372/372/372
f 94/94/94 352/352/352 599/599/599
f 372/372/372 599/599/599 352/352/352
f 30/30/30 600/600/600 375/375/375
f 156/156/156 601/601/601 600/600/600
f 100/100/100 375/375/375 601/601/601
f 600/600/600 601/601/601 375/375/375
f 27/27/27 356/356/356 603/603/603
f 94/94/94 602/602/602 356/356/356
f 156/156/156 603/603/603 602/602/602
f 356/356/356 602/602/602 603/603/603
f 100/100/100 601/601/601 599/599/599
f 156/156/156 602/602/602 601/601/601
f 94/94/94 599/599/599 602/602/602
f 601/601/601 602/602/602 599/599/599
f 38/38/38 598/598/598 590/590/590
f 155/155/155 604/604/604 598/598/598
f 154/154/154 590/590/590 604/604/604
f 598/598/598 604/604/604 590/590/590
f 27/27/27 603/603/603 595/595/595
f 156/156/156 605/605/605 603/603/603
f 155/155/155 595/595/595 605/605/605
f 603/603/603 605/605/605 595/595/595
f 30/30/30 593/593/593 600/600/600
f 154/154/154 606/606/606 593/593/593
f 156/156/156 600/600/600 606/606/606
f 593/593/593 606/606/606 600/600/600
f 155/155/155 605/605/605 604/604/604
f 156/156/156 606/606/606 605/605/605
f 154/154/154 604/604/604 606/606/606
f 605/605/605 606/606/606 604/604/604
f 9/9/9 521/521/521 411/411/411
f 142/142/142 607/607/607 521/521/521
f 110/110/110 411/411/411 607/607/607
f 521/521/521 607/607/607 411/411/411
f 40/40/40 608/608/608 525/525/525
f 157/157/157 609/609/609 608/608/608
f 142/142/142 525/525/525 609/609/609
f 608/608/608 609/609/609 525/525/525
f 32/32/32 416/416/416 611/611/611
f 110/110/110 610/610/610 416/416/416
f 157/157/157 611/611/611 610/610/610
f 416/416/416 610/610/610 611/611/611
f 142/142/142 609/609/609 607/607/607
f 157/157/157 610/610/610 609/609/609
f 110/110/110 607/607/607 610/610/610
f 609/609/609 610/610/610 607/607/607
f 7/7/7 387/387/387 512/512/512
f 105/105/105 612/612/612 387/387/387
f 138/138/138 512/512/512 612/612/612
f 387/387/387 612/612/612 512/512/512
f 29/29/29 613/613/613 391/391/391
f 158/158/158 614/614/614 613/613/613
f 105/105/105 391/391/391 614/614/614
f 613/613/613 614/614/614 391/391/391
f 40/40/40 516/516/516 616/616/616
f 138/138/138 615/615/615 516/516/516
f 158/158/158 616/616/616 615/615/615
f 516/516/516 615/615/615 616/616/616
f 105/105/105 614/614/614 612/612/612
f 158/158/158 615/615/615 614/614/614
f 138/138/138 612/612/612 615/615/615
f 614/614/614 615/615/615 612/612/612
f 8/8/8 398/398/398 378/378/378
f 107/107/107 617/617/617 398/398/398
f 101/101/101 378/378/378 617/617/617
f 398/398/398 617/617/617 378/378/378
f 32/32/32 618/618/618 401/401/401
f 159/159/159 619/619/619 618/618/618
f 107/107/107 401/401/401 619/619/619
f 618/618/618 619/619/619 401/401/401
f 29/29/29 382/382/382 621/621/621
f 101/101/101 620/620/620 382/382/382
f 159/159/159 621/621/621 620/620/620
f 382/382/382 620/620/620 621/621/621
f 107/107/107 619/619/619 617/617/617
f 159/159/159 620/620/620 619/619/619
f 101/101/101 617/617/617 620/620/620
f 619/619/619 620/620/620 617/617/617
f 40/40/40 616/616/616 608/608/608
f 158/158/158 622/622/622 616/616/616
f 157/157/157 608/608/608 622/622/622
f 616/616/616 622/622/622 608/608/608
f 29/29/29 621/621/621 613/613/613
f 159/159/159 623/623/623 621/621/621
f 158/158/158 613/613/613 623/623/623
f 621/621/621 623/623/623 613/613/613
f 32/32/32 611/611/611 618/618/618
f 157/157/157 624/624/624 611/611/611
f 159/159/159 618/618/618 624/624/624
f 611/611/611 624/624/624 618/618/618
f 158/158/158 623/623/623 622/622/622
f 159/159/159 624/624/624 623/623/623
f 157/157/157 622/622/622 624/624/624
f 623/623/623 624/624/624 622/622/622
f 10/10/10 544/544/544 307/307/307
f 147/147/147 625/625/625 544/544/544
f 82/82/82 307/307/307 625/625/625
f 544/544/544 625/625/625 307/307/307
f 42/42/42 626/626/626 547/547/547
f 160/160/160 627/627/627 626/626/626
f 147/147/147 547/547/547 627/627/627
f 626/626/626 627/627/627 547/547/547
f 24/24/24 312/312/312 629/629/629
f 82/82/82 628/628/628 312/312/312
f 160/160/160 629/629/629 628/628/628
f 312/312/312 628/628/628 629/629/629
f 147/147/147 627/627/627 625/625/625
f 160/160/160 628/628/628 627/627/627
f 82/82/82 625/625/625 628/628/628
f 627/627/627 628/628/628 625/625/625
f 9/9/9 413/413/413 536/536/536
f 112/112/112 630/630/630 413/413/413
f 144/144/144 536/536/536 630/630/630
f 413/413/413 630/630/630 536/536/536
f 31/31/31 631/631/631 417/417/417
f 161/161/161 632/632/632 631/631/631
f 112/112/112 417/417/417 632/632/632
f 631/631/631 632/632/632 417/417/417
f 42/42/42 540/540/540 634/634/634
f 144/144/144 633/633/633 540/540/540
f 161/161/161 634/634/634 633/633/633
f 540/540/540 633/633/633 634/634/634
f 112/112/112 632/632/632 630/630/630
f 161/161/161 633/633/633 632/632/632
f 144/144/144 630/630/630 633/633/633
f 632/632/632 633/633/633 630/630/630
f 2/2/2 294/294/294 404/404/404
f 79/79/79 635/635/635 294/294/294
f 108/108/108 404/404/404 635/635/635
f 294/294/294 635/635/635 404/404/404
f 24/24/24 636/636/636 297/297/297
f 162/162/162 637/637/637 636/636/636
f 79/79/79 297/297/297 637/637/637
f 636/636/636 637/637/637 297/297/297
f 31/31/31 408/408/408 639/639/639
f 108/108/108 638/638/638 408/408/408
f 162/162/162 639/639/639 638/638/638
f 408/408/408 638/638/638 639/639/639
f 79/79/79 637/637/637 635/635/635
f 162/162/162 638/638/638 637/637/637
f 108/108/108 635/635/635 638/638/638
f 637/637/637 638/638/638 635/635/635
f 42/42/42 634/634/634 626/626/626
f 161/161/161 640/640/640 634/634/634
f 160/160/160 626/626/626 640/640/640
f 634/634/634 640/640/640 626/626/626
f 31/31/31 639/639/639 631/631/631
f 162/162/162 641/641/641 639/639/639
f 161/161/161 631/631/631 641/641/641
f 639/639/639 641/641/641 631/631/631
f 24/24/24 629/629/629 636/636/636
f 160/160/160 642/642/642 629/629/629
f 162/162/162 636/636/636 642/642/642
f 629/629/629 642/642/642 636/636/636
f 161/161/161 641/641/641 640/640/640
f 162/162/162 642/642/642 641/641/641
f 160/160/160 640/640/640 642/642/642
f 641/641/641 642/642/642 640/640/640
