# generated by scripts/make_rocks.py - demonstrator scenery
v -0.55516 0.87355 0.00000
v 0.53400 0.84025 0.00000
v -0.52347 -0.82369 0.00000
v 0.53049 -0.83474 0.00000
v 0.00000 -0.49068 0.53432
v 0.00000 0.57681 0.62811
v 0.00000 -0.57341 -0.62442
v 0.00000 0.48236 -0.52527
v 0.73577 0.00000 -0.29762
v 0.95821 0.00000 0.38759
v -1.04325 0.00000 -0.42199
v -0.98519 0.00000 0.39851
v -0.81565 0.49023 0.20391
v -0.52319 0.31445 0.55406
v -0.35309 0.89897 0.37392
v 0.31407 0.79961 0.33259
v 0.00000 1.03029 0.00000
v 0.34576 0.88031 -0.36616
v -0.30853 0.78551 -0.32673
v -0.49396 0.29689 -0.52310
v -0.88974 0.53476 -0.22243
v -0.99773 0.00000 0.00000
v 0.47649 0.28639 0.50460
v 0.74458 0.44752 0.18614
v -0.56007 -0.33662 0.59311
v 0.00000 0.00000 0.74368
v -0.86087 -0.51741 -0.21521
v -0.89950 -0.54063 0.22487
v 0.00000 0.00000 -0.68757
v -0.58678 -0.35267 -0.62139
v 0.79558 0.47817 -0.19889
v 0.48813 0.29338 -0.51692
v 0.89695 -0.53909 0.22423
v 0.53595 -0.32212 0.56757
v 0.29790 -0.75846 0.31547
v -0.30735 -0.78252 0.32548
v 0.00000 -1.05892 0.00000
v -0.33492 -0.85271 -0.35468
v 0.28459 -0.72456 -0.30137
v 0.39960 -0.24017 -0.42317
v 0.72791 -0.43750 -0.18197
v 0.99894 0.00000 0.00000
v -0.68973 0.67874 0.10451
v -0.63758 0.72596 0.30196
v -0.48291 0.93371 0.18931
v -0.76941 0.17119 0.49764
v -0.70990 0.42667 0.39684
v -0.93286 0.27331 0.30708
v -0.17549 0.73713 0.50201
v -0.44585 0.59920 0.47215
v -0.27054 0.43923 0.58773
v -0.18855 1.07340 0.19967
v -0.30657 1.04948 0.00000
v 0.17408 0.73121 0.49797
v 0.00000 0.95728 0.39817
v 0.29235 1.00082 0.00000
v 0.17411 0.99121 0.18438
v 0.43565 0.84234 0.17079
v -0.16648 0.94779 -0.17630
v -0.44001 0.85076 -0.17249
v 0.46180 0.89290 -0.18104
v 0.17015 0.96868 -0.18019
v -0.14253 0.59871 -0.40774
v 0.00000 0.84557 -0.35171
v 0.16579 0.69640 -0.47427
v -0.61087 0.69554 -0.28930
v -0.71628 0.70488 -0.10854
v -0.22343 0.36275 -0.48539
v -0.38431 0.51649 -0.40698
v -1.00539 0.29456 -0.33096
v -0.73635 0.44257 -0.41162
v -0.81616 0.18159 -0.52788
v -0.87529 0.52608 0.00000
v -1.09893 0.00000 -0.20432
v -1.00856 0.27109 -0.11276
v -1.00391 0.26984 0.11224
v -0.97325 0.00000 0.18095
v 0.54239 0.61757 0.25687
v 0.66556 0.65496 0.10085
v 0.25854 0.41976 0.56168
v 0.40034 0.53803 0.42395
v 0.85336 0.25001 0.28091
v 0.59537 0.35784 0.33281
v 0.70908 0.15777 0.45862
v -0.28232 0.16968 0.66852
v 0.00000 0.30064 0.71224
v -0.79789 -0.17753 0.51606
v -0.57143 0.00000 0.60514
v 0.00000 -0.27737 0.65712
v -0.29092 -0.17485 0.68889
v -0.26407 -0.42874 0.57369
v -1.02455 -0.27539 0.11455
v -1.02053 -0.29899 0.33594
v -0.95992 -0.28123 -0.31599
v -0.95389 -0.25639 -0.10665
v -0.75258 -0.74059 0.11403
v -0.84730 -0.50925 0.00000
v -0.68880 -0.67783 -0.10437
v -0.54258 0.00000 -0.57459
v -0.81354 -0.18101 -0.52619
v 0.00000 0.25888 -0.61331
v -0.24922 0.14979 -0.59015
v -0.29704 -0.48227 -0.64532
v -0.30028 -0.18047 -0.71105
v 0.00000 -0.28684 -0.67954
v 0.46111 0.61970 -0.48831
v 0.27088 0.43979 -0.58848
v 0.70702 0.69576 -0.10713
v 0.60494 0.68878 -0.28649
v 0.65252 0.14518 -0.42204
v 0.65687 0.39480 -0.36719
v 0.78758 0.23074 -0.25926
v 0.73756 -0.72582 0.11176
v 0.60178 -0.68519 0.28500
v 0.45293 -0.87576 0.17756
v 0.81774 -0.18194 0.52890
v 0.81923 -0.49238 0.45795
v 1.00963 -0.29580 0.33235
v 0.14633 -0.61465 0.41859
v 0.46322 -0.62254 0.49054
v 0.25176 -0.40875 0.54694
v 0.16490 -0.93880 0.17463
v 0.27257 -0.93307 0.00000
v -0.15393 -0.64657 0.44033
v 0.00000 -0.78758 0.32759
v -0.28216 -0.96591 0.00000
v -0.16254 -0.92533 0.17212
v -0.44240 -0.85538 0.17343
v 0.17350 -0.98773 -0.18373
v 0.40352 -0.78021 -0.15819
v -0.44336 -0.85724 -0.17381
v -0.17561 -0.99974 -0.18597
v 0.16029 -0.67331 -0.45854
v 0.00000 -0.88335 -0.36742
v -0.17991 -0.75571 -0.51466
v 0.46486 -0.52929 -0.22015
v 0.66193 -0.65139 -0.10030
v 0.24695 -0.40094 -0.53650
v 0.34307 -0.46107 -0.36331
v 0.74881 -0.21938 -0.24650
v 0.53950 -0.32425 -0.30158
v 0.57939 -0.12891 -0.37474
v 0.88191 -0.53005 0.00000
v 0.91175 0.00000 -0.16952
v 0.88986 -0.23918 -0.09949
v 1.05350 -0.28317 0.11778
v 0.95864 0.00000 0.17824
v 0.28276 -0.16995 0.66958
v 0.56355 0.00000 0.59680
v 0.26284 0.15797 0.62240
v -0.64648 -0.73609 0.30617
v -0.42373 -0.56947 0.44872
v -0.76648 -0.46068 0.42846
v -0.46191 -0.62078 -0.48916
v -0.55539 -0.63237 -0.26303
v -0.79862 -0.47999 -0.44643
v 0.47848 0.00000 -0.50670
v 0.26766 -0.16087 -0.63380
v 0.25621 0.15399 -0.60671
v 0.86759 0.23320 0.09700
v 0.85197 0.22900 -0.09525
v 0.84578 0.50834 0.00000
v -0.63644 0.78803 0.05486
v -0.60941 0.82233 0.14873
v -0.52331 0.90861 0.09276
v -0.72154 0.59689 0.24827
v -0.66971 0.70651 0.20040
v -0.75134 0.58444 0.15368
v -0.42990 0.94075 0.28780
v -0.56743 0.83764 0.24908
v -0.49691 0.80677 0.33557
v -0.88956 0.08949 0.45727
v -0.86763 0.22676 0.40925
v -0.97009 0.14310 0.35561
v -0.61537 0.36986 0.47347
v -0.72003 0.29512 0.43441
v -0.64068 0.24343 0.52423
v -0.86189 0.38101 0.25069
v -0.80661 0.34658 0.34778
v -0.78118 0.46952 0.30625
v -0.08905 0.65747 0.56338
v -0.22547 0.58798 0.54908
v -0.14166 0.50868 0.61123
v -0.40119 0.74211 0.42486
v -0.31017 0.65972 0.48164
v -0.25771 0.80196 0.43171
v -0.40096 0.38121 0.57730
v -0.34750 0.50387 0.51475
v -0.47528 0.44795 0.50331
v -0.68300 0.57964 0.35493
v -0.57029 0.50459 0.42771
v -0.55028 0.67399 0.39584
v -0.41067 1.03047 0.09878
v -0.43782 0.96589 0.00000
v -0.28310 1.02777 0.29980
v -0.35486 1.04958 0.20359
v -0.15167 1.05899 0.00000
v -0.25093 1.07135 0.09908
v -0.09149 1.06851 0.09689
v 0.09101 0.67196 0.57579
v 0.00000 0.77919 0.53065
v 0.17395 0.90855 0.37790
v 0.09262 0.86611 0.46339
v 0.25066 0.78002 0.41990
v -0.09206 0.86079 0.46054
v -0.17739 0.92649 0.38537
v 0.41247 0.90998 0.00000
v 0.37380 0.93795 0.08991
v 0.48304 0.83869 0.08562
v 0.08622 1.00691 0.09130
v 0.22881 0.97691 0.09034
v 0.14711 1.02712 0.00000
v 0.38015 0.83189 0.25450
v 0.31104 0.91996 0.17845
v 0.25376 0.92124 0.26873
v -0.09423 1.01624 0.29936
v 0.09255 0.99811 0.29402
v 0.00000 1.02197 0.19010
v -0.37373 0.93777 -0.08990
v -0.49983 0.86785 -0.08860
v -0.08804 1.02824 -0.09323
v -0.23705 1.01209 -0.09360
v -0.37874 0.82880 -0.25355
v -0.30848 0.91240 -0.17698
v -0.24323 0.88302 -0.25758
v 0.50227 0.87208 -0.08903
v 0.37687 0.94564 -0.09065
v 0.25394 0.92192 -0.26892
v 0.31665 0.93654 -0.18167
v 0.41239 0.90242 -0.27607
v 0.23604 1.00777 -0.09320
v 0.08635 1.00847 -0.09144
v -0.07040 0.51979 -0.44540
v 0.00000 0.63908 -0.43523
v 0.07688 0.56763 -0.48639
v -0.16083 0.84003 -0.34940
v -0.07832 0.73235 -0.39182
v -0.22642 0.70460 -0.37930
v 0.26221 0.81595 -0.43924
v 0.08010 0.74899 -0.40073
v 0.16500 0.86181 -0.35846
v 0.00000 0.98530 -0.18328
v 0.08318 0.89707 -0.26425
v -0.08699 0.93823 -0.27638
v -0.59231 0.79925 -0.14456
v -0.63413 0.78516 -0.05466
v -0.45377 0.73673 -0.30644
v -0.52737 0.77850 -0.23149
v -0.80918 0.62943 -0.16551
v -0.68347 0.72102 -0.20452
v -0.75207 0.62215 -0.25878
v -0.11938 0.42866 -0.51507
v -0.18135 0.47295 -0.44166
v -0.43484 0.40984 -0.46049
v -0.29581 0.42892 -0.43819
v -0.34792 0.33079 -0.50094
v -0.25355 0.53930 -0.39373
v -0.34880 0.64520 -0.36937
v -1.04009 0.15343 -0.38127
v -0.95967 0.25081 -0.45266
v -0.94865 0.09544 -0.48765
v -0.81809 0.49170 -0.32072
v -0.87852 0.37748 -0.37879
v -0.92652 0.40958 -0.26949
v -0.66039 0.25091 -0.54036
v -0.80841 0.33135 -0.48774
v -0.63812 0.38353 -0.49097
v -0.49989 0.61227 -0.35960
v -0.55824 0.49393 -0.41867
v -0.66591 0.56514 -0.34605
v -0.70493 0.69371 0.00000
v -0.88667 0.53292 -0.10805
v -0.80099 0.61924 -0.05452
v -0.75427 0.58313 0.05134
v -0.83055 0.49919 0.10121
v -1.08542 0.00000 -0.31315
v -1.08081 0.14971 -0.27416
v -1.02440 0.13422 -0.05583
v -1.09050 0.14572 -0.16257
v -1.07704 0.00000 -0.09818
v -1.04287 0.29231 -0.22442
v -0.97662 0.41165 -0.17122
v -1.02411 0.14186 0.25978
v -1.00589 0.00000 0.29020
v -0.91513 0.38573 0.16044
v -1.00168 0.28076 0.21556
v -0.96990 0.00000 0.08842
v -0.99146 0.13249 0.14780
v -0.99362 0.13019 0.05415
v -0.97989 0.41709 -0.05783
v -1.01916 0.27394 0.00000
v -0.94097 0.40052 0.05553
v 0.55349 0.74688 0.13509
v 0.59531 0.73710 0.05132
v 0.43597 0.70782 0.29441
v 0.49318 0.72803 0.21648
v 0.73201 0.56941 0.14972
v 0.60941 0.64289 0.18236
v 0.64110 0.53035 0.22059
v 0.14300 0.51347 0.61699
v 0.22095 0.57620 0.53808
v 0.43567 0.41062 0.46137
v 0.33173 0.48101 0.49140
v 0.37659 0.35804 0.54222
v 0.28337 0.60272 0.44003
v 0.34736 0.64254 0.36785
v 0.92417 0.13633 0.33878
v 0.79734 0.20839 0.37609
v 0.86676 0.08720 0.44556
v 0.66807 0.40153 0.26190
v 0.71439 0.30696 0.30802
v 0.78581 0.34738 0.22856
v 0.56807 0.21584 0.46482
v 0.64189 0.26310 0.38727
v 0.54976 0.33042 0.42298
v 0.46764 0.57277 0.33640
v 0.51299 0.45389 0.38473
v 0.58310 0.49486 0.30301
v -0.14034 0.37135 0.64484
v 0.00000 0.43639 0.66628
v -0.40537 0.24364 0.61212
v -0.28118 0.31193 0.63849
v 0.00000 0.15073 0.72833
v -0.14836 0.23916 0.70664
v -0.15279 0.09183 0.74220
v -0.91312 -0.09186 0.46938
v -0.80441 0.00000 0.52028
v -0.57814 -0.16938 0.61225
v -0.70570 -0.08978 0.58099
v -0.67396 -0.25607 0.55146
v -0.69600 0.08855 0.57301
v -0.58500 0.17139 0.61951
v 0.00000 -0.38396 0.58623
v -0.13161 -0.34826 0.60475
v -0.13065 -0.46913 0.56370
v -0.15361 -0.09232 0.74621
v -0.14903 -0.24023 0.70982
v 0.00000 -0.14962 0.72295
v -0.41499 -0.39455 0.59751
v -0.28331 -0.31430 0.64334
v -0.41834 -0.25144 0.63171
v -0.44109 0.08837 0.65958
v -0.44344 -0.08884 0.66308
v -0.30008 0.00000 0.71058
v -0.98081 -0.13586 0.24879
v -0.96836 -0.14285 0.35498
v -1.00370 -0.13151 0.05470
v -0.97698 -0.13055 0.14564
v -0.97849 -0.43255 0.28460
v -1.03151 -0.28912 0.22197
v -1.02588 -0.43241 0.17986
v -0.96790 -0.14278 -0.35481
v -1.01014 -0.13992 -0.25623
v -0.87891 -0.37046 -0.15409
v -0.92939 -0.26050 -0.20000
v -0.91035 -0.40243 -0.26478
v -1.00738 -0.13462 -0.15017
v -1.01713 -0.13327 -0.05543
v -0.65400 -0.80977 0.05638
v -0.72093 -0.70945 0.00000
v -0.60776 -0.75252 -0.05239
v -0.87011 -0.52296 0.10603
v -0.81970 -0.63371 0.05579
v -0.80831 -0.62876 0.16533
v -0.76850 -0.59779 -0.15718
v -0.79829 -0.61716 -0.05434
v -0.85627 -0.51464 -0.10435
v -0.96862 -0.26036 0.00000
v -0.88873 -0.37829 -0.05245
v -0.94172 -0.40084 0.05558
v -0.82552 0.00000 -0.53393
v -0.91806 -0.09236 -0.47193
v -0.50804 0.14884 -0.53801
v -0.66806 0.08499 -0.55000
v -0.72123 -0.27403 -0.59014
v -0.68211 -0.08678 -0.56157
v -0.60386 -0.17692 -0.63949
v 0.00000 0.37943 -0.57930
v -0.12330 0.32627 -0.56657
v -0.13887 0.08346 -0.67460
v -0.12522 0.20185 -0.59641
v 0.00000 0.13055 -0.63079
v -0.24187 0.26832 -0.54922
v -0.34965 0.21015 -0.52799
v -0.15016 -0.53918 -0.64788
v -0.14959 -0.39583 -0.68735
v 0.00000 -0.43912 -0.67043
v -0.44949 -0.27016 -0.67875
v -0.29732 -0.32984 -0.67514
v -0.44267 -0.42086 -0.63736
v 0.00000 -0.14530 -0.70209
v -0.14700 -0.23696 -0.70015
v -0.14563 -0.08753 -0.70744
v -0.39166 0.07847 -0.58566
v -0.27936 0.00000 -0.66152
v -0.43947 -0.08805 -0.65715
v 0.21544 0.56183 -0.52466
v 0.13091 0.47005 -0.56482
v 0.43224 0.79954 -0.45773
v 0.32656 0.69460 -0.50711
v 0.38594 0.36693 -0.55568
v 0.36500 0.52925 -0.54068
v 0.46490 0.43817 -0.49233
v 0.63098 0.78127 -0.05439
v 0.59607 0.80433 -0.14548
v 0.72657 0.60105 -0.25000
v 0.66139 0.69773 -0.19791
v 0.77167 0.60026 -0.15783
v 0.56424 0.83293 -0.24768
v 0.51691 0.83924 -0.34907
v 0.69101 0.06952 -0.35521
v 0.73291 0.19155 -0.34570
v 0.77586 0.11445 -0.28441
v 0.57461 0.34536 -0.44211
v 0.65577 0.26878 -0.39564
v 0.57408 0.21812 -0.46973
v 0.80733 0.35689 -0.23482
v 0.74600 0.32054 -0.32165
v 0.73173 0.43979 -0.28686
v 0.56386 0.69062 -0.40561
v 0.65646 0.55712 -0.34114
v 0.54308 0.48052 -0.40730
v 0.65505 -0.81107 0.05647
v 0.61479 -0.82960 0.15005
v 0.50217 -0.87191 0.08901
v 0.74116 -0.61313 0.25502
v 0.69050 -0.72844 0.20663
v 0.80389 -0.62532 0.16442
v 0.38019 -0.83197 0.25452
v 0.53569 -0.79078 0.23514
v 0.47148 -0.76547 0.31839
v 0.91429 -0.09198 0.46999
v 0.93922 -0.24547 0.44301
v 0.96520 -0.14238 0.35382
v 0.70712 -0.42500 0.54406
v 0.84240 -0.34528 0.50825
v 0.68701 -0.26103 0.56214
v 0.96696 -0.42746 0.28125
v 0.94713 -0.40696 0.40837
v 0.87334 -0.52490 0.34237
v 0.07782 -0.57457 0.49234
v 0.20476 -0.53398 0.49865
v 0.12421 -0.44602 0.53594
v 0.36060 -0.66704 0.38188
v 0.28499 -0.60618 0.44256
v 0.21932 -0.68250 0.36741
v 0.39562 -0.37614 0.56962
v 0.34309 -0.49748 0.50822
v 0.50172 -0.47288 0.53132
v 0.74265 -0.63026 0.38593
v 0.64751 -0.57291 0.48562
v 0.54492 -0.66742 0.39199
v 0.35960 -0.90231 0.08650
v 0.40223 -0.88738 0.00000
v 0.24067 -0.87373 0.25487
v 0.29849 -0.88284 0.17125
v 0.14147 -0.98774 0.00000
v 0.21852 -0.93298 0.08628
v 0.08424 -0.98382 0.08921
v -0.07893 -0.58281 0.49940
v 0.00000 -0.64301 0.43791
v -0.14973 -0.78202 0.32527
v -0.07679 -0.71805 0.38417
v -0.22854 -0.71117 0.38284
v 0.07211 -0.67425 0.36074
v 0.14662 -0.76580 0.31853
v -0.40202 -0.88692 0.00000
v -0.35268 -0.88496 0.08483
v -0.49750 -0.86380 0.08818
v -0.08722 -1.01870 0.09237
v -0.22332 -0.95348 0.08818
v -0.15095 -1.05390 0.00000
v -0.38196 -0.83583 0.25570
v -0.29412 -0.86992 0.16874
v -0.23237 -0.84359 0.24607
v 0.08153 -0.87933 0.25903
v -0.08255 -0.89030 0.26226
v 0.00000 -0.98254 0.18277
v 0.34855 -0.87458 -0.08384
v 0.47485 -0.82448 -0.08417
v 0.09056 -1.05768 -0.09590
v 0.22924 -0.97876 -0.09051
v 0.34904 -0.76379 -0.23367
v 0.30395 -0.89899 -0.17438
v 0.24088 -0.87449 -0.25509
v -0.47805 -0.83004 -0.08474
v -0.36602 -0.91843 -0.08804
v -0.25398 -0.92206 -0.26897
v -0.31624 -0.93536 -0.18144
v -0.39086 -0.85530 -0.26166
v -0.24046 -1.02667 -0.09495
v -0.08991 -1.05005 -0.09521
v 0.08447 -0.62366 -0.53440
v 0.00000 -0.74722 -0.50888
v -0.09213 -0.68023 -0.58288
v 0.16045 -0.83804 -0.34858
v 0.08401 -0.78552 -0.42027
v 0.22809 -0.70979 -0.38210
v -0.26215 -0.81578 -0.43915
v -0.08852 -0.82770 -0.44284
v -0.16501 -0.86183 -0.35847
v 0.00000 -1.04875 -0.19508
v -0.08811 -0.95022 -0.27991
v 0.09013 -0.97208 -0.28635
v 0.53524 -0.72225 -0.13063
v 0.60453 -0.74852 -0.05211
v 0.38219 -0.62050 -0.25809
v 0.44677 -0.65953 -0.19611
v 0.70525 -0.54859 -0.14425
v 0.55986 -0.59063 -0.16753
v 0.59305 -0.49060 -0.20406
v 0.13799 -0.49550 -0.59539
v 0.20143 -0.52531 -0.49056
v 0.37288 -0.35144 -0.39488
v 0.29923 -0.43389 -0.44326
v 0.33650 -0.31993 -0.48450
v 0.26458 -0.56275 -0.41085
v 0.31244 -0.57795 -0.33087
v 0.74963 -0.11058 -0.27480
v 0.66959 -0.17500 -0.31584
v 0.67457 -0.06786 -0.34676
v 0.61307 -0.36847 -0.24034
v 0.65744 -0.28249 -0.28347
v 0.75499 -0.33375 -0.21960
v 0.48497 -0.18426 -0.39682
v 0.57010 -0.23367 -0.34396
v 0.46915 -0.28197 -0.36096
v 0.40027 -0.49025 -0.28794
v 0.42603 -0.37695 -0.31952
v 0.50178 -0.42585 -0.26076
v 0.73938 -0.72761 0.00000
v 0.82064 -0.49323 -0.10000
v 0.78183 -0.60443 -0.05322
v 0.81825 -0.63259 0.05570
v 0.88906 -0.53435 0.10834
v 0.80555 0.00000 -0.23240
v 0.80898 -0.11206 -0.20520
v 0.97004 -0.12710 -0.05287
v 0.87969 -0.11755 -0.13114
v 0.98725 0.00000 -0.09000
v 0.80981 -0.22698 -0.17427
v 0.81803 -0.34480 -0.14342
v 1.01326 -0.14035 0.25702
v 0.94191 0.00000 0.27174
v 0.98976 -0.41719 0.17352
v 1.03633 -0.29048 0.22301
v 0.98135 0.00000 0.08946
v 1.01503 -0.13564 0.15132
v 1.03662 -0.13582 0.05649
v 0.88656 -0.37737 -0.05232
v 0.97517 -0.26212 0.00000
v 0.93202 -0.39672 0.05500
v 0.12988 -0.34367 0.59677
v 0.40966 -0.24622 0.61860
v 0.26208 -0.29075 0.59513
v 0.13649 -0.22002 0.65011
v 0.14009 -0.08420 0.68053
v 0.81374 0.00000 0.52631
v 0.50973 0.14934 0.53980
v 0.65048 0.08276 0.53554
v 0.70555 -0.08976 0.58088
v 0.58635 -0.17179 0.62094
v 0.14363 0.38005 0.65996
v 0.14412 0.08662 0.70013
v 0.14167 0.22838 0.67479
v 0.27167 0.30139 0.61690
v 0.37195 0.22355 0.56166
v 0.43508 -0.08716 0.65058
v 0.40433 0.08101 0.60460
v 0.27374 0.00000 0.64820
v -0.61325 -0.82752 0.14967
v -0.47178 -0.76596 0.31860
v -0.56206 -0.82971 0.24672
v -0.71080 -0.74985 0.21270
v -0.76279 -0.63101 0.26246
v -0.20858 -0.54396 0.50797
v -0.51352 -0.48400 0.54381
v -0.35258 -0.51124 0.52228
v -0.28007 -0.59571 0.43491
v -0.36166 -0.66900 0.38300
v -0.92315 -0.24127 0.43543
v -0.86027 -0.51705 0.33725
v -0.90262 -0.38783 0.38918
v -0.81044 -0.33218 0.48896
v -0.68060 -0.40906 0.52365
v -0.53213 -0.65176 0.38279
v -0.61845 -0.54720 0.46382
v -0.69550 -0.59025 0.36142
v -0.24686 -0.64378 -0.60119
v -0.40006 -0.74002 -0.42366
v -0.33808 -0.71909 -0.52499
v -0.38388 -0.55662 -0.56864
v -0.52613 -0.49588 -0.55717
v -0.55300 -0.74621 -0.13497
v -0.70596 -0.58400 -0.24291
v -0.61708 -0.65098 -0.18465
v -0.50396 -0.74395 -0.22122
v -0.46064 -0.74788 -0.31108
v -0.93496 -0.24436 -0.44101
v -0.70658 -0.42468 -0.54364
v -0.83856 -0.34371 -0.50593
v -0.90662 -0.38955 -0.39090
v -0.85519 -0.51400 -0.33526
v -0.52428 -0.64214 -0.37714
v -0.65635 -0.55702 -0.34108
v -0.59971 -0.53063 -0.44977
v 0.61931 0.00000 -0.40056
v 0.44444 -0.13021 -0.47066
v 0.51887 -0.06601 -0.42718
v 0.56541 0.07193 -0.46550
v 0.49118 0.14390 -0.52016
v 0.13678 -0.36194 -0.62851
v 0.13521 -0.08126 -0.65680
v 0.13999 -0.22567 -0.66679
v 0.26152 -0.29013 -0.59386
v 0.35358 -0.21251 -0.53392
v 0.12829 0.33946 -0.58946
v 0.38673 0.23243 -0.58397
v 0.25901 0.28734 -0.58814
v 0.12942 0.20862 -0.61643
v 0.13095 0.07870 -0.63613
v 0.37735 -0.07560 -0.56426
v 0.26725 0.00000 -0.63283
v 0.38535 0.07720 -0.57621
v 0.92719 0.12843 0.23519
v 0.89646 0.11746 0.04886
v 0.89583 0.11971 0.13354
v 0.89342 0.25042 0.19226
v 0.86360 0.36401 0.15141
v 0.84534 0.11709 -0.21443
v 0.81939 0.34538 -0.14366
v 0.82905 0.23238 -0.17841
v 0.88817 0.11869 -0.13240
v 0.91572 0.11998 -0.04990
v 0.71487 0.70348 0.00000
v 0.81927 0.49240 0.09984
v 0.78111 0.60388 0.05317
v 0.80078 0.61908 -0.05451
v 0.83921 0.50439 -0.10227
v 0.85645 0.23020 0.00000
v 0.83527 0.35553 -0.04929
v 0.87086 0.37068 0.05139
vt 2.52031 1.00000
vt 1.97969 1.00000
vt 0.47969 1.00000
vt 1.02031 1.00000
vt 0.75000 0.47291
vt 2.25000 0.47291
vt 0.75000 1.52709
vt 2.25000 1.52709
vt 1.50000 1.24470
vt 1.50000 0.75530
vt 3.00000 1.24470
vt 3.00000 0.75530
vt 2.74161 0.86562
vt 2.74161 0.53079
vt 2.42870 0.76485
vt 2.07130 0.76485
vt 2.25000 1.00000
vt 2.07130 1.23515
vt 2.42870 1.23515
vt 2.74161 1.46921
vt 2.74161 1.13438
vt 3.00000 1.00000
vt 1.75839 0.53079
vt 1.75839 0.86562
vt 0.25839 0.53079
vt 1.50000 0.00000
vt 0.25839 1.13438
vt 0.25839 0.86562
vt 1.50000 2.00000
vt 0.25839 1.46921
vt 1.75839 1.13438
vt 1.75839 1.46921
vt 1.24161 0.86562
vt 1.24161 0.53079
vt 0.92870 0.76485
vt 0.57130 0.76485
vt 0.75000 1.00000
vt 0.57130 1.23515
vt 0.92870 1.23515
vt 1.24161 1.46921
vt 1.24161 1.13438
vt 1.50000 1.00000
vt 2.62883 0.93151
vt 2.59410 0.80716
vt 2.47790 0.88657
vt 2.89547 0.64149
vt 2.74161 0.71555
vt 2.86392 0.80520
vt 2.36159 0.62750
vt 2.55543 0.64111
vt 2.51358 0.45860
vt 2.33302 0.88464
vt 2.38570 1.00000
vt 2.13841 0.62750
vt 2.25000 0.74906
vt 2.11430 1.00000
vt 2.16698 0.88464
vt 2.02210 0.88657
vt 2.33302 1.11536
vt 2.47790 1.11343
vt 2.02210 1.11343
vt 2.16698 1.11536
vt 2.36159 1.37250
vt 2.25000 1.25094
vt 2.13841 1.37250
vt 2.59410 1.19284
vt 2.62883 1.06849
vt 2.51358 1.54140
vt 2.55543 1.35889
vt 2.86392 1.19480
vt 2.74161 1.28445
vt 2.89547 1.35851
vt 2.74161 1.00000
vt 3.00000 1.11703
vt 2.87463 1.06847
vt 2.87463 0.93153
vt 3.00000 0.88297
vt 1.90590 0.80716
vt 1.87117 0.93151
vt 1.98642 0.45860
vt 1.94457 0.64111
vt 1.63608 0.80520
vt 1.75839 0.71555
vt 1.60453 0.64149
vt 2.74161 0.29144
vt 2.25000 0.25428
vt 0.10453 0.64149
vt 3.00000 0.48177
vt 0.75000 0.25428
vt 0.25839 0.29144
vt 0.48642 0.45860
vt 0.12537 0.93153
vt 0.13608 0.80520
vt 0.13608 1.19480
vt 0.12537 1.06847
vt 0.37117 0.93151
vt 0.25839 1.00000
vt 0.37117 1.06849
vt 3.00000 1.51823
vt 0.10453 1.35851
vt 2.25000 1.74572
vt 2.74161 1.70856
vt 0.48642 1.54140
vt 0.25839 1.70856
vt 0.75000 1.74572
vt 1.94457 1.35889
vt 1.98642 1.54140
vt 1.87117 1.06849
vt 1.90590 1.19284
vt 1.60453 1.35851
vt 1.75839 1.28445
vt 1.63608 1.19480
vt 1.12883 0.93151
vt 1.09410 0.80716
vt 0.97790 0.88657
vt 1.39547 0.64149
vt 1.24161 0.71555
vt 1.36392 0.80520
vt 0.86159 0.62750
vt 1.05543 0.64111
vt 1.01358 0.45860
vt 0.83302 0.88464
vt 0.88570 1.00000
vt 0.63841 0.62750
vt 0.75000 0.74906
vt 0.61430 1.00000
vt 0.66698 0.88464
vt 0.52210 0.88657
vt 0.83302 1.11536
vt 0.97790 1.11343
vt 0.52210 1.11343
vt 0.66698 1.11536
vt 0.86159 1.37250
vt 0.75000 1.25094
vt 0.63841 1.37250
vt 1.09410 1.19284
vt 1.12883 1.06849
vt 1.01358 1.54140
vt 1.05543 1.35889
vt 1.36392 1.19480
vt 1.24161 1.28445
vt 1.39547 1.35851
vt 1.24161 1.00000
vt 1.50000 1.11703
vt 1.37463 1.06847
vt 1.37463 0.93153
vt 1.50000 0.88297
vt 1.24161 0.29144
vt 1.50000 0.48177
vt 1.75839 0.29144
vt 0.40590 0.80716
vt 0.44457 0.64111
vt 0.25839 0.71555
vt 0.44457 1.35889
vt 0.40590 1.19284
vt 0.25839 1.28445
vt 1.50000 1.51823
vt 1.24161 1.70856
vt 1.75839 1.70856
vt 1.62537 0.93153
vt 1.62537 1.06847
vt 1.75839 1.00000
vt 2.57438 0.96555
vt 2.55451 0.90813
vt 2.49949 0.94383
vt 2.67001 0.83501
vt 2.61224 0.87075
vt 2.68435 0.89810
vt 2.45466 0.82723
vt 2.53429 0.84633
vt 2.51358 0.78331
vt 2.95213 0.69902
vt 2.87794 0.72745
vt 2.93007 0.77852
vt 2.74161 0.62885
vt 2.81427 0.67586
vt 2.82663 0.58431
vt 2.80126 0.83448
vt 2.80623 0.75988
vt 2.74161 0.79364
vt 2.31428 0.55183
vt 2.42483 0.54348
vt 2.37968 0.45360
vt 2.48663 0.70299
vt 2.45984 0.62830
vt 2.39846 0.69849
vt 2.63705 0.48646
vt 2.53827 0.55485
vt 2.63913 0.58201
vt 2.66400 0.75985
vt 2.65415 0.67420
vt 2.57692 0.72819
vt 2.43107 0.94346
vt 2.45320 1.00000
vt 2.37834 0.82547
vt 2.40567 0.88431
vt 2.31792 1.00000
vt 2.35985 0.94283
vt 2.29078 0.94264
vt 2.18572 0.55183
vt 2.25000 0.61938
vt 2.15968 0.75310
vt 2.19913 0.68875
vt 2.10154 0.69849
vt 2.30087 0.68875
vt 2.34032 0.75310
vt 2.04680 1.00000
vt 2.06893 0.94346
vt 2.00051 0.94383
vt 2.20922 0.94264
vt 2.14015 0.94283
vt 2.18208 1.00000
vt 2.04534 0.82723
vt 2.09433 0.88431
vt 2.12166 0.82547
vt 2.29414 0.81837
vt 2.20586 0.81837
vt 2.25000 0.88292
vt 2.43107 1.05654
vt 2.49949 1.05617
vt 2.29078 1.05736
vt 2.35985 1.05717
vt 2.45466 1.17277
vt 2.40567 1.11569
vt 2.37834 1.17453
vt 2.00051 1.05617
vt 2.06893 1.05654
vt 2.12166 1.17453
vt 2.09433 1.11569
vt 2.04534 1.17277
vt 2.14015 1.05717
vt 2.20922 1.05736
vt 2.31428 1.44817
vt 2.25000 1.38062
vt 2.18572 1.44817
vt 2.34032 1.24690
vt 2.30087 1.31125
vt 2.39846 1.30151
vt 2.10154 1.30151
vt 2.19913 1.31125
vt 2.15968 1.24690
vt 2.25000 1.11708
vt 2.20586 1.18163
vt 2.29414 1.18163
vt 2.55451 1.09187
vt 2.57438 1.03445
vt 2.51358 1.21669
vt 2.53429 1.15367
vt 2.68435 1.10190
vt 2.61224 1.12925
vt 2.67001 1.16499
vt 2.37968 1.54640
vt 2.42483 1.45652
vt 2.63913 1.41799
vt 2.53827 1.44515
vt 2.63705 1.51354
vt 2.45984 1.37170
vt 2.48663 1.29701
vt 2.93007 1.22148
vt 2.87794 1.27255
vt 2.95213 1.30098
vt 2.74161 1.20636
vt 2.80623 1.24012
vt 2.80126 1.16552
vt 2.82663 1.41569
vt 2.81427 1.32414
vt 2.74161 1.37115
vt 2.57692 1.27181
vt 2.65415 1.32580
vt 2.66400 1.24015
vt 2.62883 1.00000
vt 2.74161 1.06625
vt 2.68577 1.03425
vt 2.68577 0.96575
vt 2.74161 0.93375
vt 3.00000 1.17881
vt 2.93428 1.15671
vt 2.93780 1.03437
vt 2.93657 1.09339
vt 3.00000 1.05787
vt 2.86952 1.13007
vt 2.80954 1.10197
vt 2.93428 0.84329
vt 3.00000 0.82119
vt 2.80954 0.89803
vt 2.86952 0.86993
vt 3.00000 0.94213
vt 2.93657 0.90661
vt 2.93780 0.96563
vt 2.80786 1.03454
vt 2.87463 1.00000
vt 2.80786 0.96546
vt 1.94549 0.90813
vt 1.92562 0.96555
vt 1.98642 0.78331
vt 1.96571 0.84633
vt 1.81565 0.89810
vt 1.88776 0.87075
vt 1.82999 0.83501
vt 2.12032 0.45360
vt 2.07517 0.54348
vt 1.86087 0.58201
vt 1.96173 0.55485
vt 1.86295 0.48646
vt 2.04016 0.62830
vt 2.01337 0.70299
vt 1.56993 0.77852
vt 1.62206 0.72745
vt 1.54787 0.69902
vt 1.75839 0.79364
vt 1.69377 0.75988
vt 1.69874 0.83448
vt 1.67337 0.58431
vt 1.68573 0.67586
vt 1.75839 0.62885
vt 1.92308 0.72819
vt 1.84585 0.67420
vt 1.83600 0.75985
vt 2.42252 0.35130
vt 2.25000 0.36915
vt 2.74161 0.41879
vt 2.60026 0.37038
vt 2.25000 0.12992
vt 2.51511 0.24129
vt 2.74161 0.15006
vt 0.04787 0.69902
vt 3.00000 0.63451
vt 0.13608 0.49486
vt 0.06042 0.56401
vt 0.17337 0.58431
vt 2.93958 0.56401
vt 2.86392 0.49486
vt 0.75000 0.36915
vt 0.57748 0.35130
vt 0.62032 0.45360
vt 0.25839 0.15006
vt 0.48489 0.24129
vt 0.75000 0.12992
vt 0.36295 0.48646
vt 0.39974 0.37038
vt 0.25839 0.41879
vt 2.90559 0.38106
vt 0.09441 0.38106
vt 3.00000 0.25438
vt 0.06572 0.84329
vt 0.06993 0.77852
vt 0.06220 0.96563
vt 0.06343 0.90661
vt 0.19874 0.83448
vt 0.13048 0.86993
vt 0.19046 0.89803
vt 0.06993 1.22148
vt 0.06572 1.15671
vt 0.19046 1.10197
vt 0.13048 1.13007
vt 0.19874 1.16552
vt 0.06343 1.09339
vt 0.06220 1.03437
vt 0.42562 0.96555
vt 0.37117 1.00000
vt 0.42562 1.03445
vt 0.25839 0.93375
vt 0.31423 0.96575
vt 0.31565 0.89810
vt 0.31565 1.10190
vt 0.31423 1.03425
vt 0.25839 1.06625
vt 0.12537 1.00000
vt 0.19214 1.03454
vt 0.19214 0.96546
vt 3.00000 1.36549
vt 0.04787 1.30098
vt 2.86392 1.50514
vt 2.93958 1.43599
vt 0.17337 1.41569
vt 0.06042 1.43599
vt 0.13608 1.50514
vt 2.25000 1.63085
vt 2.42252 1.64870
vt 2.74161 1.84994
vt 2.51511 1.75871
vt 2.25000 1.87008
vt 2.60026 1.62962
vt 2.74161 1.58121
vt 0.62032 1.54640
vt 0.57748 1.64870
vt 0.75000 1.63085
vt 0.25839 1.58121
vt 0.39974 1.62962
vt 0.36295 1.51354
vt 0.75000 1.87008
vt 0.48489 1.75871
vt 0.25839 1.84994
vt 2.90559 1.61894
vt 3.00000 1.74562
vt 0.09441 1.61894
vt 2.07517 1.45652
vt 2.12032 1.54640
vt 2.01337 1.29701
vt 2.04016 1.37170
vt 1.86295 1.51354
vt 1.96173 1.44515
vt 1.86087 1.41799
vt 1.92562 1.03445
vt 1.94549 1.09187
vt 1.82999 1.16499
vt 1.88776 1.12925
vt 1.81565 1.10190
vt 1.96571 1.15367
vt 1.98642 1.21669
vt 1.54787 1.30098
vt 1.62206 1.27255
vt 1.56993 1.22148
vt 1.75839 1.37115
vt 1.68573 1.32414
vt 1.67337 1.41569
vt 1.69874 1.16552
vt 1.69377 1.24012
vt 1.75839 1.20636
vt 1.92308 1.27181
vt 1.83600 1.24015
vt 1.84585 1.32580
vt 1.07438 0.96555
vt 1.05451 0.90813
vt 0.99949 0.94383
vt 1.17001 0.83501
vt 1.11224 0.87075
vt 1.18435 0.89810
vt 0.95466 0.82723
vt 1.03429 0.84633
vt 1.01358 0.78331
vt 1.45213 0.69902
vt 1.37794 0.72745
vt 1.43007 0.77852
vt 1.24161 0.62885
vt 1.31427 0.67586
vt 1.32663 0.58431
vt 1.30126 0.83448
vt 1.30623 0.75988
vt 1.24161 0.79364
vt 0.81428 0.55183
vt 0.92483 0.54348
vt 0.87968 0.45360
vt 0.98663 0.70299
vt 0.95984 0.62830
vt 0.89846 0.69849
vt 1.13705 0.48646
vt 1.03827 0.55485
vt 1.13913 0.58201
vt 1.16400 0.75985
vt 1.15415 0.67420
vt 1.07692 0.72819
vt 0.93107 0.94346
vt 0.95320 1.00000
vt 0.87834 0.82547
vt 0.90567 0.88431
vt 0.81792 1.00000
vt 0.85985 0.94283
vt 0.79078 0.94264
vt 0.68572 0.55183
vt 0.75000 0.61938
vt 0.65968 0.75310
vt 0.69913 0.68875
vt 0.60154 0.69849
vt 0.80087 0.68875
vt 0.84032 0.75310
vt 0.54680 1.00000
vt 0.56893 0.94346
vt 0.50051 0.94383
vt 0.70922 0.94264
vt 0.64015 0.94283
vt 0.68208 1.00000
vt 0.54534 0.82723
vt 0.59433 0.88431
vt 0.62166 0.82547
vt 0.79414 0.81837
vt 0.70586 0.81837
vt 0.75000 0.88292
vt 0.93107 1.05654
vt 0.99949 1.05617
vt 0.79078 1.05736
vt 0.85985 1.05717
vt 0.95466 1.17277
vt 0.90567 1.11569
vt 0.87834 1.17453
vt 0.50051 1.05617
vt 0.56893 1.05654
vt 0.62166 1.17453
vt 0.59433 1.11569
vt 0.54534 1.17277
vt 0.64015 1.05717
vt 0.70922 1.05736
vt 0.81428 1.44817
vt 0.75000 1.38062
vt 0.68572 1.44817
vt 0.84032 1.24690
vt 0.80087 1.31125
vt 0.89846 1.30151
vt 0.60154 1.30151
vt 0.69913 1.31125
vt 0.65968 1.24690
vt 0.75000 1.11708
vt 0.70586 1.18163
vt 0.79414 1.18163
vt 1.05451 1.09187
vt 1.07438 1.03445
vt 1.01358 1.21669
vt 1.03429 1.15367
vt 1.18435 1.10190
vt 1.11224 1.12925
vt 1.17001 1.16499
vt 0.87968 1.54640
vt 0.92483 1.45652
vt 1.13913 1.41799
vt 1.03827 1.44515
vt 1.13705 1.51354
vt 0.95984 1.37170
vt 0.98663 1.29701
vt 1.43007 1.22148
vt 1.37794 1.27255
vt 1.45213 1.30098
vt 1.24161 1.20636
vt 1.30623 1.24012
vt 1.30126 1.16552
vt 1.32663 1.41569
vt 1.31427 1.32414
vt 1.24161 1.37115
vt 1.07692 1.27181
vt 1.15415 1.32580
vt 1.16400 1.24015
vt 1.12883 1.00000
vt 1.24161 1.06625
vt 1.18577 1.03425
vt 1.18577 0.96575
vt 1.24161 0.93375
vt 1.50000 1.17881
vt 1.43428 1.15671
vt 1.43780 1.03437
vt 1.43657 1.09339
vt 1.50000 1.05787
vt 1.36952 1.13007
vt 1.30954 1.10197
vt 1.43428 0.84329
vt 1.50000 0.82119
vt 1.30954 0.89803
vt 1.36952 0.86993
vt 1.50000 0.94213
vt 1.43657 0.90661
vt 1.43780 0.96563
vt 1.30786 1.03454
vt 1.37463 1.00000
vt 1.30786 0.96546
vt 0.92252 0.35130
vt 1.24161 0.41879
vt 1.10026 0.37038
vt 1.01511 0.24129
vt 1.24161 0.15006
vt 1.50000 0.63451
vt 1.63608 0.49486
vt 1.56042 0.56401
vt 1.43958 0.56401
vt 1.36392 0.49486
vt 2.07748 0.35130
vt 1.75839 0.15006
vt 1.98489 0.24129
vt 1.89974 0.37038
vt 1.75839 0.41879
vt 1.40559 0.38106
vt 1.59441 0.38106
vt 1.50000 0.25438
vt 0.44549 0.90813
vt 0.48642 0.78331
vt 0.46571 0.84633
vt 0.38776 0.87075
vt 0.32999 0.83501
vt 0.57517 0.54348
vt 0.36087 0.58201
vt 0.46173 0.55485
vt 0.54016 0.62830
vt 0.51337 0.70299
vt 0.12206 0.72745
vt 0.25839 0.79364
vt 0.19377 0.75988
vt 0.18573 0.67586
vt 0.25839 0.62885
vt 0.42308 0.72819
vt 0.34585 0.67420
vt 0.33600 0.75985
vt 0.57517 1.45652
vt 0.51337 1.29701
vt 0.54016 1.37170
vt 0.46173 1.44515
vt 0.36087 1.41799
vt 0.44549 1.09187
vt 0.32999 1.16499
vt 0.38776 1.12925
vt 0.46571 1.15367
vt 0.48642 1.21669
vt 0.12206 1.27255
vt 0.25839 1.37115
vt 0.18573 1.32414
vt 0.19377 1.24012
vt 0.25839 1.20636
vt 0.42308 1.27181
vt 0.33600 1.24015
vt 0.34585 1.32580
vt 1.50000 1.36549
vt 1.36392 1.50514
vt 1.43958 1.43599
vt 1.56042 1.43599
vt 1.63608 1.50514
vt 0.92252 1.64870
vt 1.24161 1.84994
vt 1.01511 1.75871
vt 1.10026 1.62962
vt 1.24161 1.58121
vt 2.07748 1.64870
vt 1.75839 1.58121
vt 1.89974 1.62962
vt 1.98489 1.75871
vt 1.75839 1.84994
vt 1.40559 1.61894
vt 1.50000 1.74562
vt 1.59441 1.61894
vt 1.56572 0.84329
vt 1.56220 0.96563
vt 1.56343 0.90661
vt 1.63048 0.86993
vt 1.69046 0.89803
vt 1.56572 1.15671
vt 1.69046 1.10197
vt 1.63048 1.13007
vt 1.56343 1.09339
vt 1.56220 1.03437
vt 1.87117 1.00000
vt 1.75839 0.93375
vt 1.81423 0.96575
vt 1.81423 1.03425
vt 1.75839 1.06625
vt 1.62537 1.00000
vt 1.69214 1.03454
vt 1.69214 0.96546
vn -0.65013 0.73532 -0.19141
vn 0.58125 0.75957 0.29190
vn -0.39730 -0.85741 -0.32712
vn 0.39628 -0.82908 -0.39444
vn 0.11570 -0.41420 0.90280
vn -0.04360 0.35790 0.93274
vn 0.26405 -0.43860 -0.85902
vn -0.28721 0.55734 -0.77902
vn 0.68232 -0.11480 -0.72198
vn 0.92993 0.19462 0.31203
vn -0.75120 -0.21974 -0.62242
vn -0.85257 0.03704 0.52129
vn -0.77007 0.57055 0.28542
vn -0.36126 0.43222 0.82624
vn -0.30492 0.48088 0.82206
vn 0.59625 0.46635 0.65346
vn 0.15149 0.98335 -0.10034
vn 0.06501 0.86111 -0.50425
vn -0.28744 0.50143 -0.81606
vn 0.05063 0.27708 -0.95951
vn -0.71946 0.58654 -0.37195
vn -0.91647 0.00468 0.40007
vn 0.49847 0.32996 0.80165
vn 0.54107 0.40222 0.73855
vn -0.26764 -0.23691 0.93394
vn 0.17870 -0.02729 0.98353
vn -0.78911 -0.61401 -0.01733
vn -0.66111 -0.74013 0.12307
vn 0.15606 0.21384 -0.96432
vn -0.30297 -0.29993 -0.90457
vn 0.86233 0.19377 -0.46780
vn 0.52321 0.14280 -0.84015
vn 0.67727 -0.72247 0.13910
vn 0.10420 -0.27912 0.95459
vn 0.02302 -0.55864 0.82909
vn -0.06009 -0.65666 0.75179
vn 0.16156 -0.94969 0.26831
vn -0.39659 -0.77432 -0.49311
vn 0.64124 -0.35140 -0.68215
vn 0.69355 -0.40532 -0.59558
vn 0.41372 -0.34227 -0.84361
vn 0.93234 0.35645 -0.06077
vn -0.85899 0.50380 0.09129
vn -0.68255 0.52064 0.51290
vn -0.67500 0.70820 0.20693
vn -0.46024 0.37793 0.80334
vn -0.52658 0.32448 0.78576
vn -0.65619 0.50677 0.55911
vn -0.30022 0.42479 0.85406
vn -0.32662 0.28986 0.89961
vn -0.30814 0.36547 0.87834
vn 0.07067 0.96967 0.23396
vn -0.30285 0.87401 -0.37998
vn 0.49199 0.40120 0.77265
vn 0.04648 0.75359 0.65569
vn 0.37715 0.91901 0.11485
vn 0.32094 0.93866 0.12613
vn 0.59692 0.66258 0.45240
vn -0.20949 0.83114 -0.51509
vn -0.37652 0.79585 -0.47419
vn 0.43767 0.89541 -0.08181
vn 0.06597 0.86842 -0.49143
vn -0.20455 0.22219 -0.95331
vn -0.01678 0.58318 -0.81217
vn -0.27088 0.37910 -0.88482
vn -0.31989 0.58209 -0.74756
vn -0.65746 0.75337 0.01327
vn -0.27998 0.51275 -0.81160
vn 0.00232 0.37972 -0.92510
vn -0.76864 0.51137 -0.38431
vn -0.31117 0.62045 -0.71988
vn -0.24472 0.13962 -0.95949
vn -0.68400 0.65010 0.33092
vn -0.96583 -0.25856 0.01782
vn -0.94464 0.27731 0.17540
vn -0.96457 0.24325 0.10212
vn -0.98039 -0.09756 -0.17123
vn 0.58396 0.44089 0.68162
vn 0.55108 0.67567 0.48967
vn 0.50397 0.34035 0.79383
vn 0.49217 0.48336 0.72397
vn 0.63905 0.62541 0.44774
vn 0.60292 0.42743 0.67364
vn 0.30366 0.59298 0.74576
vn -0.29716 0.24907 0.92177
vn 0.03730 0.22942 0.97261
vn -0.44628 -0.12004 0.88681
vn -0.31010 -0.00378 0.95070
vn 0.13874 -0.51991 0.84288
vn -0.26650 -0.21827 0.93879
vn 0.00139 -0.48956 0.87197
vn -0.96048 -0.04085 -0.27533
vn -0.88823 -0.06113 0.45530
vn -0.95575 -0.28896 -0.05525
vn -0.87232 -0.46588 -0.14836
vn -0.72046 -0.69322 -0.01963
vn -0.89668 -0.40324 -0.18268
vn -0.49182 -0.74410 -0.45213
vn -0.23222 0.32822 -0.91561
vn -0.46565 -0.00512 -0.88496
vn -0.08945 0.20702 -0.97424
vn -0.28061 0.44039 -0.85283
vn -0.20691 -0.30333 -0.93015
vn -0.11902 0.04767 -0.99175
vn 0.16202 -0.12688 -0.97860
vn 0.49526 0.11391 -0.86124
vn 0.07718 0.19951 -0.97685
vn 0.70426 0.67517 -0.21947
vn 0.77967 0.44950 -0.43596
vn 0.63200 -0.07647 -0.77119
vn 0.56745 0.20036 -0.79866
vn 0.83351 0.05107 -0.55013
vn 0.72220 -0.67140 0.16628
vn 0.43372 -0.78793 0.43710
vn 0.19949 -0.89409 0.40100
vn 0.44583 -0.04175 0.89414
vn 0.49444 -0.50885 0.70470
vn 0.92575 -0.05663 0.37386
vn 0.06620 -0.72695 0.68349
vn -0.04278 -0.59512 0.80249
vn 0.03055 -0.40806 0.91244
vn 0.26675 -0.87011 0.41444
vn 0.39406 -0.91651 0.06869
vn -0.10656 -0.61212 0.78355
vn 0.08157 -0.50706 0.85804
vn -0.53573 -0.79221 0.29223
vn -0.32643 -0.76598 0.55381
vn -0.11968 -0.97105 0.20673
vn 0.45486 -0.79237 -0.40652
vn 0.53877 -0.54882 -0.63916
vn -0.64816 -0.72205 -0.24195
vn -0.26600 -0.84123 -0.47071
vn 0.54527 -0.42596 -0.72197
vn 0.06570 -0.69013 -0.72070
vn -0.03917 -0.68511 -0.72739
vn 0.42402 -0.33542 -0.84125
vn 0.41349 -0.49264 -0.76572
vn 0.64759 -0.39741 -0.65015
vn 0.72801 -0.35270 -0.58788
vn 0.63792 -0.19334 -0.74544
vn 0.34439 -0.49207 -0.79954
vn 0.41471 -0.29873 -0.85952
vn 0.83928 -0.39622 -0.37232
vn 0.67555 -0.07364 -0.73362
vn 0.69143 -0.19507 -0.69561
vn 0.93867 -0.23566 -0.25171
vn 0.92391 0.37409 0.08028
vn 0.09010 -0.18822 0.97799
vn 0.24757 0.29575 0.92263
vn 0.38889 0.14936 0.90910
vn -0.39351 -0.56147 0.72794
vn -0.03922 -0.67569 0.73614
vn -0.46075 -0.53015 0.71180
vn -0.54686 -0.57717 -0.60648
vn -0.59500 -0.72629 -0.34421
vn -0.41166 -0.72594 -0.55095
vn 0.59440 -0.23361 -0.76949
vn 0.44209 -0.11432 -0.88966
vn 0.17451 0.11967 -0.97736
vn 0.98544 0.11799 -0.12244
vn 0.93947 0.29569 -0.17307
vn 0.96922 0.24250 0.04242
vn -0.79177 0.61029 0.02539
vn -0.78342 0.61227 0.10667
vn -0.70397 0.70967 -0.02821
vn -0.81519 0.50377 0.28579
vn -0.84098 0.52155 0.14401
vn -0.80479 0.58541 0.09804
vn -0.54831 0.63852 0.54004
vn -0.68099 0.62859 0.37568
vn -0.48020 0.50341 0.71832
vn -0.56358 0.23739 0.79122
vn -0.52023 0.47579 0.70922
vn -0.79216 0.27669 0.54400
vn -0.45435 0.39771 0.79712
vn -0.47786 0.44578 0.75692
vn -0.49351 0.45510 0.74117
vn -0.67037 0.56998 0.47512
vn -0.57919 0.47897 0.65964
vn -0.74340 0.42999 0.51231
vn -0.21494 0.40532 0.88855
vn -0.36128 0.35399 0.86265
vn -0.28106 0.30075 0.91135
vn -0.31060 0.40546 0.85972
vn -0.29515 0.35231 0.88812
vn -0.25102 0.43098 0.86674
vn -0.31497 0.39412 0.86340
vn -0.31580 0.36149 0.87727
vn -0.37504 0.39044 0.84077
vn -0.60591 0.36865 0.70496
vn -0.43039 0.30035 0.85121
vn -0.44092 0.37665 0.81470
vn -0.54313 0.83725 -0.06352
vn -0.55158 0.74575 -0.37365
vn -0.16845 0.75400 0.63491
vn -0.40811 0.87949 0.24483
vn 0.02617 0.96830 -0.24840
vn -0.11428 0.99160 -0.06053
vn 0.20161 0.97946 0.00183
vn 0.22262 0.42525 0.87727
vn -0.00832 0.47509 0.87990
vn 0.45924 0.67543 0.57696
vn 0.24054 0.56281 0.79081
vn 0.60825 0.37809 0.69791
vn -0.18460 0.55144 0.81353
vn -0.14264 0.60017 0.78705
vn 0.56322 0.81780 0.11827
vn 0.49059 0.82149 0.29066
vn 0.64203 0.71142 0.28580
vn 0.22116 0.97044 0.09662
vn 0.25698 0.92880 0.26701
vn 0.10121 0.99134 0.08366
vn 0.57927 0.60432 0.54703
vn 0.45683 0.82104 0.34234
vn 0.51358 0.74442 0.42670
vn 0.06556 0.87931 0.47171
vn 0.26196 0.90645 0.33124
vn 0.22014 0.96445 0.14622
vn -0.41679 0.73897 -0.52935
vn -0.48341 0.77920 -0.39896
vn -0.00110 0.91803 -0.39651
vn -0.21208 0.80414 -0.55532
vn -0.33147 0.72628 -0.60220
vn -0.31458 0.77240 -0.55176
vn -0.31538 0.76510 -0.56139
vn 0.53456 0.84402 0.04344
vn 0.45197 0.88530 -0.10936
vn -0.01094 0.91307 -0.40765
vn 0.24294 0.92450 -0.29374
vn 0.27377 0.93584 -0.22192
vn 0.19753 0.93596 -0.29148
vn 0.06148 0.96018 -0.27252
vn -0.31226 0.47028 -0.82542
vn -0.26914 0.32292 -0.90735
vn -0.28491 0.42244 -0.86045
vn -0.18891 0.50682 -0.84110
vn -0.11638 0.29676 -0.94784
vn -0.17658 0.22330 -0.95862
vn -0.18071 0.58663 -0.78943
vn -0.22899 0.46293 -0.85631
vn -0.16000 0.75836 -0.63189
vn 0.01901 0.86956 -0.49345
vn 0.03277 0.81457 -0.57913
vn -0.07143 0.80635 -0.58711
vn -0.48694 0.81982 -0.30130
vn -0.67916 0.72611 -0.10721
vn -0.24728 0.52940 -0.81153
vn -0.34059 0.76022 -0.55323
vn -0.67991 0.72391 -0.11696
vn -0.52026 0.76220 -0.38521
vn -0.49717 0.60908 -0.61793
vn -0.36992 0.52376 -0.76736
vn -0.27862 0.44485 -0.85116
vn 0.05298 0.47124 -0.88041
vn -0.02883 0.45179 -0.89166
vn -0.02352 0.42189 -0.90634
vn -0.11537 0.25584 -0.95981
vn -0.14531 0.30598 -0.94088
vn -0.84313 0.20723 -0.49618
vn -0.57763 0.38367 -0.72051
vn -0.50577 0.03503 -0.86196
vn -0.50386 0.55995 -0.65771
vn -0.53751 0.64272 -0.54590
vn -0.70225 0.55803 -0.44209
vn -0.04970 0.19473 -0.97960
vn -0.30815 0.48070 -0.82096
vn -0.06435 0.49766 -0.86498
vn -0.15149 0.44073 -0.88477
vn -0.09084 0.52488 -0.84632
vn -0.30123 0.53354 -0.79031
vn -0.77783 0.59642 0.19818
vn -0.77072 0.63463 0.05693
vn -0.68255 0.68496 0.25487
vn -0.71190 0.63640 0.29698
vn -0.70573 0.65695 0.26523
vn -0.92889 -0.24386 -0.27875
vn -0.95412 0.20796 -0.21543
vn -0.92025 0.09350 0.38000
vn -0.93981 0.22264 0.25922
vn -0.91126 -0.13649 0.38857
vn -0.88866 0.45533 -0.05439
vn -0.87489 0.47682 -0.08485
vn -0.98942 0.07142 0.12627
vn -0.99394 -0.08708 0.06714
vn -0.74272 0.61992 0.25312
vn -0.87812 0.42260 0.22429
vn -0.98998 -0.00553 0.14111
vn -0.99026 -0.09874 -0.09812
vn -0.97924 -0.10386 0.17410
vn -0.88367 0.45448 0.11211
vn -0.97723 0.17262 0.12338
vn -0.79283 0.52607 0.30768
vn 0.64524 0.62979 0.43247
vn 0.58914 0.69221 0.41684
vn 0.54848 0.40382 0.73219
vn 0.61871 0.52241 0.58676
vn 0.57679 0.47333 0.66579
vn 0.56790 0.52594 0.63315
vn 0.57144 0.37644 0.72921
vn 0.37028 0.29771 0.87992
vn 0.59155 0.35200 0.72537
vn 0.53335 0.41218 0.73868
vn 0.50752 0.42680 0.74851
vn 0.47358 0.33625 0.81404
vn 0.61563 0.37860 0.69113
vn 0.56018 0.37632 0.73796
vn 0.82911 0.46371 0.31234
vn 0.39448 0.65910 0.64029
vn 0.54037 0.46815 0.69917
vn 0.53214 0.42207 0.73395
vn 0.38667 0.63821 0.66571
vn 0.52811 0.55246 0.64489
vn 0.42067 0.50536 0.75342
vn 0.39518 0.61590 0.68154
vn 0.60704 0.42195 0.67340
vn 0.52379 0.45449 0.72048
vn 0.61066 0.39385 0.68701
vn 0.61329 0.36430 0.70083
vn -0.24233 0.33409 0.91086
vn -0.04346 0.28465 0.95765
vn -0.22131 0.31011 0.92458
vn -0.27769 0.30414 0.91126
vn 0.12728 0.13760 0.98228
vn -0.20748 0.27161 0.93978
vn -0.15202 0.14086 0.97829
vn -0.62587 -0.03780 0.77901
vn -0.49091 0.08766 0.86679
vn -0.29634 -0.10373 0.94943
vn -0.36955 -0.05180 0.92777
vn -0.38482 -0.17394 0.90645
vn -0.43373 0.17150 0.88457
vn -0.32374 0.25491 0.91116
vn 0.07829 -0.47069 0.87882
vn 0.03773 -0.53796 0.84213
vn 0.01339 -0.42911 0.90315
vn -0.10919 -0.10952 0.98797
vn -0.02639 -0.45224 0.89150
vn 0.21649 -0.26834 0.93868
vn -0.07557 -0.40414 0.91157
vn -0.09428 -0.44337 0.89137
vn -0.20816 -0.22168 0.95264
vn -0.25975 0.14268 0.95508
vn -0.31092 -0.07946 0.94711
vn -0.27639 0.04919 0.95979
vn -0.99176 0.12788 0.00821
vn -0.93123 -0.02380 0.36366
vn -0.99556 0.04372 0.08336
vn -0.97658 0.20430 0.06750
vn -0.76608 -0.47505 0.43294
vn -0.99303 0.08130 0.08528
vn -0.85029 -0.48597 -0.20207
vn -0.85548 -0.35668 -0.37541
vn -0.87574 -0.47829 -0.06574
vn -0.94966 -0.30724 0.06124
vn -0.90196 -0.41429 0.12178
vn -0.93116 -0.34101 0.12903
vn -0.86963 -0.49366 -0.00595
vn -0.95305 -0.27942 0.11668
vn -0.45473 -0.83209 -0.31756
vn -0.60612 -0.69340 -0.38963
vn -0.47868 -0.76312 -0.43419
vn -0.75579 -0.59044 -0.28313
vn -0.85249 -0.50107 -0.14892
vn -0.80318 -0.57791 0.14465
vn -0.53589 -0.76998 -0.34634
vn -0.75474 -0.60893 -0.24407
vn -0.91776 -0.39652 -0.02223
vn -0.90082 -0.33220 -0.27959
vn -0.89432 -0.38809 -0.22268
vn -0.76901 -0.41868 -0.48303
vn -0.28362 -0.01319 -0.95885
vn -0.59892 -0.18573 -0.77897
vn -0.02574 0.19255 -0.98095
vn -0.08194 0.08928 -0.99263
vn -0.44720 -0.04761 -0.89316
vn -0.29876 0.16160 -0.94055
vn -0.33290 0.16270 -0.92882
vn -0.16201 0.34323 -0.92518
vn -0.30457 0.35502 -0.88386
vn -0.10155 0.38344 -0.91796
vn -0.17354 0.35330 -0.91927
vn 0.04190 0.30793 -0.95048
vn -0.25611 0.37480 -0.89103
vn -0.12982 0.29307 -0.94724
vn -0.01502 -0.32860 -0.94435
vn -0.02702 -0.15566 -0.98744
vn 0.21274 -0.20540 -0.95527
vn -0.20076 -0.09270 -0.97524
vn -0.09735 -0.19921 -0.97511
vn -0.21955 -0.37649 -0.90003
vn 0.14876 -0.01523 -0.98876
vn 0.02081 -0.10843 -0.99389
vn -0.03689 0.11961 -0.99213
vn -0.23731 0.42175 -0.87510
vn -0.23106 0.35002 -0.90780
vn -0.25393 0.30625 -0.91746
vn -0.12708 0.35106 -0.92769
vn -0.13468 0.39037 -0.91076
vn 0.29698 0.50351 -0.81134
vn 0.00317 0.30334 -0.95288
vn 0.36703 0.14163 -0.91937
vn 0.25227 0.20734 -0.94518
vn 0.57283 0.15512 -0.80486
vn 0.62403 0.76642 0.15229
vn 0.67011 0.73648 -0.09246
vn 0.72379 0.40302 -0.56009
vn 0.73330 0.57917 -0.35614
vn 0.78264 0.50187 -0.36825
vn 0.69509 0.68215 -0.22697
vn 0.60149 0.66477 -0.44305
vn 0.68476 -0.17603 -0.70719
vn 0.72977 -0.01345 -0.68356
vn 0.72008 -0.08643 -0.68849
vn 0.58036 0.23735 -0.77900
vn 0.60315 0.14940 -0.78351
vn 0.55857 0.06581 -0.82684
vn 0.88468 0.12672 -0.44865
vn 0.70192 0.14132 -0.69809
vn 0.71588 0.20432 -0.66766
vn 0.69923 0.22217 -0.67950
vn 0.65258 0.21273 -0.72724
vn 0.59057 0.09261 -0.80165
vn 0.48638 -0.83578 -0.25476
vn 0.46821 -0.81498 0.34146
vn 0.29529 -0.95253 -0.07410
vn 0.54240 -0.80045 0.25512
vn 0.53943 -0.60890 0.58160
vn 0.69688 -0.66773 0.26170
vn 0.15937 -0.76637 0.62232
vn 0.35948 -0.68723 0.63126
vn 0.18640 -0.68920 0.70018
vn 0.72131 0.09314 0.68632
vn 0.74390 -0.00860 0.66824
vn 0.92756 0.14936 0.34253
vn 0.18277 -0.27257 0.94462
vn 0.46258 -0.16463 0.87116
vn 0.25936 -0.14837 0.95432
vn 0.85143 -0.48909 0.18936
vn 0.74866 -0.37385 0.54749
vn 0.65459 -0.71417 0.24794
vn 0.12398 -0.54789 0.82731
vn 0.05419 -0.51117 0.85777
vn 0.08591 -0.42202 0.90251
vn -0.06030 -0.71410 0.69744
vn -0.11769 -0.62947 0.76806
vn -0.03213 -0.59809 0.80079
vn 0.01026 -0.36804 0.92975
vn -0.07704 -0.39475 0.91555
vn 0.01344 -0.30230 0.95312
vn 0.43192 -0.83166 0.34897
vn 0.21191 -0.55615 0.80361
vn 0.17015 -0.82609 0.53723
vn 0.19741 -0.97174 0.12939
vn 0.32393 -0.91807 -0.22850
vn 0.14129 -0.68244 0.71715
vn 0.21051 -0.92074 0.32850
vn 0.40172 -0.86203 0.30907
vn 0.31276 -0.92385 0.22063
vn 0.28866 -0.90964 0.29873
vn 0.01074 -0.55532 0.83157
vn 0.14661 -0.71737 0.68109
vn -0.06715 -0.64416 0.76194
vn 0.08755 -0.62490 0.77578
vn -0.10334 -0.56372 0.81947
vn 0.13481 -0.57454 0.80730
vn 0.05216 -0.47206 0.88002
vn -0.47013 -0.88238 0.01948
vn -0.30297 -0.90687 0.29291
vn -0.25301 -0.96712 -0.02561
vn -0.11719 -0.86591 0.48627
vn -0.41253 -0.77312 0.48178
vn -0.29582 -0.91776 0.26495
vn -0.05533 -0.86248 0.50305
vn -0.22585 -0.88728 0.40215
vn -0.16299 -0.78821 0.59343
vn 0.09096 -0.61393 0.78410
vn -0.12487 -0.65200 0.74787
vn 0.01599 -0.82455 0.56557
vn 0.53568 -0.79622 -0.28121
vn 0.41048 -0.72844 -0.54853
vn 0.27566 -0.96125 -0.00118
vn 0.54841 -0.83600 0.01877
vn 0.61933 -0.38852 -0.68226
vn 0.64050 -0.64629 -0.41481
vn 0.55554 -0.52911 -0.64142
vn -0.59398 -0.79131 -0.14497
vn -0.60726 -0.79446 -0.00763
vn -0.26020 -0.81583 -0.51645
vn -0.48279 -0.80787 -0.33803
vn -0.58365 -0.72142 -0.37270
vn -0.44843 -0.88395 -0.13244
vn -0.11693 -0.98091 -0.15536
vn 0.47801 -0.48663 -0.73123
vn 0.28499 -0.60867 -0.74048
vn 0.13832 -0.53670 -0.83236
vn 0.45652 -0.51244 -0.72732
vn 0.36253 -0.60086 -0.71242
vn 0.63570 -0.40034 -0.66001
vn -0.20750 -0.79373 -0.57179
vn 0.05712 -0.77481 -0.62961
vn -0.10608 -0.82066 -0.56149
vn -0.00563 -0.89621 -0.44360
vn -0.15630 -0.73886 -0.65548
vn 0.23406 -0.70366 -0.67088
vn 0.42406 -0.45791 -0.78134
vn 0.43503 -0.66090 -0.61152
vn 0.60839 -0.25727 -0.75078
vn 0.49335 -0.31396 -0.81119
vn 0.38150 -0.43619 -0.81498
vn 0.32466 -0.35573 -0.87639
vn 0.27052 -0.36937 -0.88904
vn 0.52873 -0.37581 -0.76106
vn 0.65499 -0.41260 -0.63304
vn 0.70849 -0.39247 -0.58653
vn 0.72665 -0.39736 -0.56044
vn 0.76124 -0.38440 -0.52226
vn 0.71199 -0.32742 -0.62118
vn 0.71076 -0.29716 -0.63759
vn 0.67232 -0.15138 -0.72462
vn 0.49316 -0.27216 -0.82627
vn 0.57677 -0.19531 -0.79322
vn 0.29245 -0.41839 -0.85990
vn 0.38523 -0.39622 -0.83343
vn 0.51965 -0.31198 -0.79538
vn 0.47275 -0.37696 -0.79649
vn 0.36995 -0.37236 -0.85117
vn 0.44636 -0.43716 -0.78080
vn 0.59337 -0.33276 -0.73293
vn 0.52507 -0.42767 -0.73580
vn 0.36660 -0.40990 -0.83521
vn 0.60970 -0.64402 -0.46206
vn 0.64415 -0.32081 -0.69438
vn 0.60965 -0.51243 -0.60477
vn 0.79389 -0.59973 -0.10026
vn 0.82395 -0.55224 -0.12705
vn 0.63054 -0.11993 -0.76683
vn 0.68075 -0.21365 -0.70066
vn 0.78972 -0.17037 -0.58933
vn 0.65830 -0.25986 -0.70648
vn 0.85706 0.09154 -0.50702
vn 0.71321 -0.14329 -0.68615
vn 0.69481 -0.21389 -0.68665
vn 0.93476 0.27183 0.22878
vn 0.96800 0.23739 0.08137
vn 0.84879 -0.51177 -0.13287
vn 0.98061 -0.11283 0.16022
vn 0.87511 0.45403 0.16747
vn 0.95358 0.26440 0.14418
vn 0.96902 0.07414 -0.23558
vn 0.79153 -0.24686 -0.55906
vn 0.77031 -0.28329 -0.57129
vn 0.81723 -0.40241 -0.41256
vn 0.14020 -0.45781 0.87793
vn 0.10428 -0.33615 0.93602
vn 0.05097 -0.43322 0.89985
vn 0.17060 -0.37070 0.91295
vn 0.25454 -0.10600 0.96124
vn 0.40681 0.29935 0.86307
vn 0.32146 0.40753 0.85474
vn 0.27352 0.45468 0.84762
vn 0.31825 0.10129 0.94258
vn 0.21764 -0.13066 0.96724
vn 0.34803 0.24237 0.90561
vn 0.34950 0.05445 0.93535
vn 0.34791 0.10482 0.93165
vn 0.44931 0.17007 0.87704
vn 0.39456 0.21276 0.89390
vn 0.16577 0.07795 0.98308
vn 0.23235 0.30754 0.92273
vn 0.21823 0.13252 0.96686
vn -0.38590 -0.91419 0.12387
vn -0.10319 -0.59466 0.79732
vn -0.25138 -0.85237 0.45856
vn -0.64922 -0.67455 0.35142
vn -0.61458 -0.63289 0.47090
vn -0.12116 -0.59288 0.79612
vn -0.14963 -0.55713 0.81684
vn -0.03271 -0.64105 0.76680
vn -0.14304 -0.61743 0.77351
vn -0.08399 -0.51745 0.85158
vn -0.64482 -0.13937 0.75152
vn -0.51557 -0.61809 0.59343
vn -0.56284 -0.41661 0.71390
vn -0.46631 -0.28383 0.83785
vn -0.38949 -0.37339 0.84195
vn -0.15226 -0.57367 0.80481
vn -0.28200 -0.63838 0.71620
vn -0.42296 -0.59224 0.68582
vn -0.19554 -0.45511 -0.86870
vn -0.58880 -0.65026 -0.48008
vn -0.38582 -0.58364 -0.71450
vn -0.37458 -0.44656 -0.81257
vn -0.34995 -0.59165 -0.72628
vn -0.60903 -0.68642 -0.39738
vn -0.34120 -0.87822 -0.33513
vn -0.47064 -0.71310 -0.51960
vn -0.70553 -0.56793 -0.42390
vn -0.71521 -0.60656 -0.34723
vn -0.80432 -0.14556 -0.57610
vn -0.35629 -0.54438 -0.75941
vn -0.59523 -0.26562 -0.75839
vn -0.83253 -0.41145 -0.37095
vn -0.55904 -0.78287 -0.27311
vn -0.64134 -0.68160 -0.35228
vn -0.33932 -0.87355 -0.34895
vn -0.40496 -0.76239 -0.50476
vn 0.53962 -0.27503 -0.79572
vn 0.67990 -0.38776 -0.62240
vn 0.55302 -0.36038 -0.75120
vn 0.54709 -0.21095 -0.81006
vn 0.52031 -0.04757 -0.85265
vn 0.39675 -0.23599 -0.88707
vn 0.22395 0.08622 -0.97078
vn 0.27323 -0.13611 -0.95227
vn 0.55094 -0.34152 -0.76147
vn 0.72282 -0.33158 -0.60629
vn 0.00148 0.16889 -0.98563
vn 0.32297 0.07078 -0.94376
vn 0.11718 0.10431 -0.98762
vn 0.07780 0.16265 -0.98361
vn 0.13933 0.18773 -0.97229
vn 0.59625 -0.17034 -0.78452
vn 0.29243 0.06966 -0.95375
vn 0.42706 -0.03449 -0.90357
vn 0.95507 0.29588 -0.01703
vn 0.87320 0.48183 0.07326
vn 0.92929 0.34655 -0.12777
vn 0.93021 0.35153 0.10555
vn 0.84713 0.36234 0.38869
vn 0.76188 0.11756 -0.63696
vn 0.97345 0.07283 -0.21701
vn 0.92321 0.18780 -0.33528
vn 0.82983 0.37983 -0.40880
vn 0.85559 0.51526 -0.04977
vn 0.61007 0.73548 0.29476
vn 0.79185 0.39432 0.46636
vn 0.71696 0.56780 0.40444
vn 0.82553 0.56112 -0.06035
vn 0.95637 0.14354 -0.25447
vn 0.97345 0.21071 -0.08946
vn 0.98028 0.03866 -0.19381
vn 0.99173 0.11021 -0.06581
f 1/1/1 163/163/163 165/165/165
f 43/43/43 164/164/164 163/163/163
f 45/45/45 165/165/165 164/164/164
f 163/163/163 164/164/164 165/165/165
f 13/13/13 166/166/166 168/168/168
f 44/44/44 167/167/167 166/166/166
f 43/43/43 168/168/168 167/167/167
f 166/166/166 167/167/167 168/168/168
f 15/15/15 169/169/169 171/171/171
f 45/45/45 170/170/170 169/169/169
f 44/44/44 171/171/171 170/170/170
f 169/169/169 170/170/170 171/171/171
f 43/43/43 167/167/167 164/164/164
f 44/44/44 170/170/170 167/167/167
f 45/45/45 164/164/164 170/170/170
f 167/167/167 170/170/170 164/164/164
f 12/12/12 172/172/172 174/174/174
f 46/46/46 173/173/173 172/172/172
f 48/48/48 174/174/174 173/173/173
f 172/172/172 173/173/173 174/174/174
f 14/14/14 175/175/175 177/177/177
f 47/47/47 176/176/176 175/175/175
f 46/46/46 177/177/177 176/176/176
f 175/175/175 176/176/176 177/177/177
f 13/13/13 178/178/178 180/180/180
f 48/48/48 179/179/179 178/178/178
f 47/47/47 180/180/180 179/179/179
f 178/178/178 179/179/179 180/180/180
f 46/46/46 176/176/176 173/173/173
f 47/47/47 179/179/179 176/176/176
f 48/48/48 173/173/173 179/179/179
f 176/176/176 179/179/179 173/173/173
f 6/6/6 181/181/181 183/183/183
f 49/49/49 182/182/182 181/181/181
f 51/51/51 183/183/183 182/182/182
f 181/181/181 182/182/182 183/183/183
f 15/15/15 184/184/184 186/186/186
f 50/50/50 185/185/185 184/184/184
f 49/49/49 186/186/186 185/185/185
f 184/184/184 185/185/185 186/186/186
f 14/14/14 187/187/187 189/189/189
f 51/51/51 188/188/188 187/187/187
f 50/50/50 189/189/189 188/188/188
f 187/187/187 188/188/188 189/189/189
f 49/49/49 185/185/185 182/182/182
f 50/50/50 188/188/188 185/185/185
f 51/51/51 182/182/182 188/188/188
f 185/185/185 188/188/188 182/182/182
f 13/13/13 180/180/180 166/166/166
f 47/47/47 190/190/190 180/180/180
f 44/44/44 166/166/166 190/190/190
f 180/180/180 190/190/190 166/166/166
f 14/14/14 189/189/189 175/175/175
f 50/50/50 191/191/191 189/189/189
f 47/47/47 175/175/175 191/191/191
f 189/189/189 191/191/191 175/175/175
f 15/15/15 171/171/171 184/184/184
f 44/44/44 192/192/192 171/171/171
f 50/50/50 184/184/184 192/192/192
f 171/171/171 192/192/192 184/184/184
f 47/47/47 191/191/191 190/190/190
f 50/50/50 192/192/192 191/191/191
f 44/44/44 190/190/190 192/192/192
f 191/191/191 192/192/192 190/190/190
f 1/1/1 165/165/165 194/194/194
f 45/45/45 193/193/193 165/165/165
f 53/53/53 194/194/194 193/193/193
f 165/165/165 193/193/193 194/194/194
f 15/15/15 195/195/195 169/169/169
f 52/52/52 196/196/196 195/195/195
f 45/45/45 169/169/169 196/196/196
f 195/195/195 196/196/196 169/169/169
f 17/17/17 197/197/197 199/199/199
f 53/53/53 198/198/198 197/197/197
f 52/52/52 199/199/199 198/198/198
f 197/197/197 198/198/198 199/199/199
f 45/45/45 196/196/196 193/193/193
f 52/52/52 198/198/198 196/196/196
f 53/53/53 193/193/193 198/198/198
f 196/196/196 198/198/198 193/193/193
f 6/6/6 200/200/200 181/181/181
f 54/54/54 201/201/201 200/200/200
f 49/49/49 181/181/181 201/201/201
f 200/200/200 201/201/201 181/181/181
f 16/16/16 202/202/202 204/204/204
f 55/55/55 203/203/203 202/202/202
f 54/54/54 204/204/204 203/203/203
f 202/202/202 203/203/203 204/204/204
f 15/15/15 186/186/186 206/206/206
f 49/49/49 205/205/205 186/186/186
f 55/55/55 206/206/206 205/205/205
f 186/186/186 205/205/205 206/206/206
f 54/54/54 203/203/203 201/201/201
f 55/55/55 205/205/205 203/203/203
f 49/49/49 201/201/201 205/205/205
f 203/203/203 205/205/205 201/201/201
f 2/2/2 207/207/207 209/209/209
f 56/56/56 208/208/208 207/207/207
f 58/58/58 209/209/209 208/208/208
f 207/207/207 208/208/208 209/209/209
f 17/17/17 210/210/210 212/212/212
f 57/57/57 211/211/211 210/210/210
f 56/56/56 212/212/212 211/211/211
f 210/210/210 211/211/211 212/212/212
f 16/16/16 213/213/213 215/215/215
f 58/58/58 214/214/214 213/213/213
f 57/57/57 215/215/215 214/214/214
f 213/213/213 214/214/214 215/215/215
f 56/56/56 211/211/211 208/208/208
f 57/57/57 214/214/214 211/211/211
f 58/58/58 208/208/208 214/214/214
f 211/211/211 214/214/214 208/208/208
f 15/15/15 206/206/206 195/195/195
f 55/55/55 216/216/216 206/206/206
f 52/52/52 195/195/195 216/216/216
f 206/206/206 216/216/216 195/195/195
f 16/16/16 215/215/215 202/202/202
f 57/57/57 217/217/217 215/215/215
f 55/55/55 202/202/202 217/217/217
f 215/215/215 217/217/217 202/202/202
f 17/17/17 199/199/199 210/210/210
f 52/52/52 218/218/218 199/199/199
f 57/57/57 210/210/210 218/218/218
f 199/199/199 218/218/218 210/210/210
f 55/55/55 217/217/217 216/216/216
f 57/57/57 218/218/218 217/217/217
f 52/52/52 216/216/216 218/218/218
f 217/217/217 218/218/218 216/216/216
f 1/1/1 194/194/194 220/220/220
f 53/53/53 219/219/219 194/194/194
f 60/60/60 220/220/220 219/219/219
f 194/194/194 219/219/219 220/220/220
f 17/17/17 221/221/221 197/197/197
f 59/59/59 222/222/222 221/221/221
f 53/53/53 197/197/197 222/222/222
f 221/221/221 222/222/222 197/197/197
f 19/19/19 223/223/223 225/225/225
f 60/60/60 224/224/224 223/223/223
f 59/59/59 225/225/225 224/224/224
f 223/223/223 224/224/224 225/225/225
f 53/53/53 222/222/222 219/219/219
f 59/59/59 224/224/224 222/222/222
f 60/60/60 219/219/219 224/224/224
f 222/222/222 224/224/224 219/219/219
f 2/2/2 226/226/226 207/207/207
f 61/61/61 227/227/227 226/226/226
f 56/56/56 207/207/207 227/227/227
f 226/226/226 227/227/227 207/207/207
f 18/18/18 228/228/228 230/230/230
f 62/62/62 229/229/229 228/228/228
f 61/61/61 230/230/230 229/229/229
f 228/228/228 229/229/229 230/230/230
f 17/17/17 212/212/212 232/232/232
f 56/56/56 231/231/231 212/212/212
f 62/62/62 232/232/232 231/231/231
f 212/212/212 231/231/231 232/232/232
f 61/61/61 229/229/229 227/227/227
f 62/62/62 231/231/231 229/229/229
f 56/56/56 227/227/227 231/231/231
f 229/229/229 231/231/231 227/227/227
f 8/8/8 233/233/233 235/235/235
f 63/63/63 234/234/234 233/233/233
f 65/65/65 235/235/235 234/234/234
f 233/233/233 234/234/234 235/235/235
f 19/19/19 236/236/236 238/238/238
f 64/64/64 237/237/237 236/236/236
f 63/63/63 238/238/238 237/237/237
f 236/236/236 237/237/237 238/238/238
f 18/18/18 239/239/239 241/241/241
f 65/65/65 240/240/240 239/239/239
f 64/64/64 241/241/241 240/240/240
f 239/239/239 240/240/240 241/241/241
f 63/63/63 237/237/237 234/234/234
f 64/64/64 240/240/240 237/237/237
f 65/65/65 234/234/234 240/240/240
f 237/237/237 240/240/240 234/234/234
f 17/17/17 232/232/232 221/221/221
f 62/62/62 242/242/242 232/232/232
f 59/59/59 221/221/221 242/242/242
f 232/232/232 242/242/242 221/221/221
f 18/18/18 241/241/241 228/228/228
f 64/64/64 243/243/243 241/241/241
f 62/62/62 228/228/228 243/243/243
f 241/241/241 243/243/243 228/228/228
f 19/19/19 225/225/225 236/236/236
f 59/59/59 244/244/244 225/225/225
f 64/64/64 236/236/236 244/244/244
f 225/225/225 244/244/244 236/236/236
f 62/62/62 243/243/243 242/242/242
f 64/64/64 244/244/244 243/243/243
f 59/59/59 242/242/242 244/244/244
f 243/243/243 244/244/244 242/242/242
f 1/1/1 220/220/220 246/246/246
f 60/60/60 245/245/245 220/220/220
f 67/67/67 246/246/246 245/245/245
f 220/220/220 245/245/245 246/246/246
f 19/19/19 247/247/247 223/223/223
f 66/66/66 248/248/248 247/247/247
f 60/60/60 223/223/223 248/248/248
f 247/247/247 248/248/248 223/223/223
f 21/21/21 249/249/249 251/251/251
f 67/67/67 250/250/250 249/249/249
f 66/66/66 251/251/251 250/250/250
f 249/249/249 250/250/250 251/251/251
f 60/60/60 248/248/248 245/245/245
f 66/66/66 250/250/250 248/248/248
f 67/67/67 245/245/245 250/250/250
f 248/248/248 250/250/250 245/245/245
f 8/8/8 252/252/252 233/233/233
f 68/68/68 253/253/253 252/252/252
f 63/63/63 233/233/233 253/253/253
f 252/252/252 253/253/253 233/233/233
f 20/20/20 254/254/254 256/256/256
f 69/69/69 255/255/255 254/254/254
f 68/68/68 256/256/256 255/255/255
f 254/254/254 255/255/255 256/256/256
f 19/19/19 238/238/238 258/258/258
f 63/63/63 257/257/257 238/238/238
f 69/69/69 258/258/258 257/257/257
f 238/238/238 257/257/257 258/258/258
f 68/68/68 255/255/255 253/253/253
f 69/69/69 257/257/257 255/255/255
f 63/63/63 253/253/253 257/257/257
f 255/255/255 257/257/257 253/253/253
f 11/11/11 259/259/259 261/261/261
f 70/70/70 260/260/260 259/259/259
f 72/72/72 261/261/261 260/260/260
f 259/259/259 260/260/260 261/261/261
f 21/21/21 262/262/262 264/264/264
f 71/71/71 263/263/263 262/262/262
f 70/70/70 264/264/264 263/263/263
f 262/262/262 263/263/263 264/264/264
f 20/20/20 265/265/265 267/267/267
f 72/72/72 266/266/266 265/265/265
f 71/71/71 267/267/267 266/266/266
f 265/265/265 266/266/266 267/267/267
f 70/70/70 263/263/263 260/260/260
f 71/71/71 266/266/266 263/263/263
f 72/72/72 260/260/260 266/266/266
f 263/263/263 266/266/266 260/260/260
f 19/19/19 258/258/258 247/247/247
f 69/69/69 268/268/268 258/258/258
f 66/66/66 247/247/247 268/268/268
f 258/258/258 268/268/268 247/247/247
f 20/20/20 267/267/267 254/254/254
f 71/71/71 269/269/269 267/267/267
f 69/69/69 254/254/254 269/269/269
f 267/267/267 269/269/269 254/254/254
f 21/21/21 251/251/251 262/262/262
f 66/66/66 270/270/270 251/251/251
f 71/71/71 262/262/262 270/270/270
f 251/251/251 270/270/270 262/262/262
f 69/69/69 269/269/269 268/268/268
f 71/71/71 270/270/270 269/269/269
f 66/66/66 268/268/268 270/270/270
f 269/269/269 270/270/270 268/268/268
f 1/1/1 246/246/246 163/163/163
f 67/67/67 271/271/271 246/246/246
f 43/43/43 163/163/163 271/271/271
f 246/246/246 271/271/271 163/163/163
f 21/21/21 272/272/272 249/249/249
f 73/73/73 273/273/273 272/272/272
f 67/67/67 249/249/249 273/273/273
f 272/272/272 273/273/273 249/249/249
f 13/13/13 168/168/168 275/275/275
f 43/43/43 274/274/274 168/168/168
f 73/73/73 275/275/275 274/274/274
f 168/168/168 274/274/274 275/275/275
f 67/67/67 273/273/273 271/271/271
f 73/73/73 274/274/274 273/273/273
f 43/43/43 271/271/271 274/274/274
f 273/273/273 274/274/274 271/271/271
f 11/11/11 276/276/276 259/259/259
f 74/74/74 277/277/277 276/276/276
f 70/70/70 259/259/259 277/277/277
f 276/276/276 277/277/277 259/259/259
f 22/22/22 278/278/278 280/280/280
f 75/75/75 279/279/279 278/278/278
f 74/74/74 280/280/280 279/279/279
f 278/278/278 279/279/279 280/280/280
f 21/21/21 264/264/264 282/282/282
f 70/70/70 281/281/281 264/264/264
f 75/75/75 282/282/282 281/281/281
f 264/264/264 281/281/281 282/282/282
f 74/74/74 279/279/279 277/277/277
f 75/75/75 281/281/281 279/279/279
f 70/70/70 277/277/277 281/281/281
f 279/279/279 281/281/281 277/277/277
f 12/12/12 174/174/174 284/284/284
f 48/48/48 283/283/283 174/174/174
f 77/77/77 284/284/284 283/283/283
f 174/174/174 283/283/283 284/284/284
f 13/13/13 285/285/285 178/178/178
f 76/76/76 286/286/286 285/285/285
f 48/48/48 178/178/178 286/286/286
f 285/285/285 286/286/286 178/178/178
f 22/22/22 287/287/287 289/289/289
f 77/77/77 288/288/288 287/287/287
f 76/76/76 289/289/289 288/288/288
f 287/287/287 288/288/288 289/289/289
f 48/48/48 286/286/286 283/283/283
f 76/76/76 288/288/288 286/286/286
f 77/77/77 283/283/283 288/288/288
f 286/286/286 288/288/288 283/283/283
f 21/21/21 282/282/282 272/272/272
f 75/75/75 290/290/290 282/282/282
f 73/73/73 272/272/272 290/290/290
f 282/282/282 290/290/290 272/272/272
f 22/22/22 289/289/289 278/278/278
f 76/76/76 291/291/291 289/289/289
f 75/75/75 278/278/278 291/291/291
f 289/289/289 291/291/291 278/278/278
f 13/13/13 275/275/275 285/285/285
f 73/73/73 292/292/292 275/275/275
f 76/76/76 285/285/285 292/292/292
f 275/275/275 292/292/292 285/285/285
f 75/75/75 291/291/291 290/290/290
f 76/76/76 292/292/292 291/291/291
f 73/73/73 290/290/290 292/292/292
f 291/291/291 292/292/292 290/290/290
f 2/2/2 209/209/209 294/294/294
f 58/58/58 293/293/293 209/209/209
f 79/79/79 294/294/294 293/293/293
f 209/209/209 293/293/293 294/294/294
f 16/16/16 295/295/295 213/213/213
f 78/78/78 296/296/296 295/295/295
f 58/58/58 213/213/213 296/296/296
f 295/295/295 296/296/296 213/213/213
f 24/24/24 297/297/297 299/299/299
f 79/79/79 298/298/298 297/297/297
f 78/78/78 299/299/299 298/298/298
f 297/297/297 298/298/298 299/299/299
f 58/58/58 296/296/296 293/293/293
f 78/78/78 298/298/298 296/296/296
f 79/79/79 293/293/293 298/298/298
f 296/296/296 298/298/298 293/293/293
f 6/6/6 300/300/300 200/200/200
f 80/80/80 301/301/301 300/300/300
f 54/54/54 200/200/200 301/301/301
f 300/300/300 301/301/301 200/200/200
f 23/23/23 302/302/302 304/304/304
f 81/81/81 303/303/303 302/302/302
f 80/80/80 304/304/304 303/303/303
f 302/302/302 303/303/303 304/304/304
f 16/16/16 204/204/204 306/306/306
f 54/54/54 305/305/305 204/204/204
f 81/81/81 306/306/306 305/305/305
f 204/204/204 305/305/305 306/306/306
f 80/80/80 303/303/303 301/301/301
f 81/81/81 305/305/305 303/303/303
f 54/54/54 301/301/301 305/305/305
f 303/303/303 305/305/305 301/301/301
f 10/10/10 307/307/307 309/309/309
f 82/82/82 308/308/308 307/307/307
f 84/84/84 309/309/309 308/308/308
f 307/307/307 308/308/308 309/309/309
f 24/24/24 310/310/310 312/312/312
f 83/83/83 311/311/311 310/310/310
f 82/82/82 312/312/312 311/311/311
f 310/310/310 311/311/311 312/312/312
f 23/23/23 313/313/313 315/315/315
f 84/84/84 314/314/314 313/313/313
f 83/83/83 315/315/315 314/314/314
f 313/313/313 314/314/314 315/315/315
f 82/82/82 311/311/311 308/308/308
f 83/83/83 314/314/314 311/311/311
f 84/84/84 308/308/308 314/314/314
f 311/311/311 314/314/314 308/308/308
f 16/16/16 306/306/306 295/295/295
f 81/81/81 316/316/316 306/306/306
f 78/78/78 295/295/295 316/316/316
f 306/306/306 316/316/316 295/295/295
f 23/23/23 315/315/315 302/302/302
f 83/83/83 317/317/317 315/315/315
f 81/81/81 302/302/302 317/317/317
f 315/315/315 317/317/317 302/302/302
f 24/24/24 299/299/299 310/310/310
f 78/78/78 318/318/318 299/299/299
f 83/83/83 310/310/310 318/318/318
f 299/299/299 318/318/318 310/310/310
f 81/81/81 317/317/317 316/316/316
f 83/83/83 318/318/318 317/317/317
f 78/78/78 316/316/316 318/318/318
f 317/317/317 318/318/318 316/316/316
f 6/6/6 183/183/183 320/320/320
f 51/51/51 319/319/319 183/183/183
f 86/86/86 320/320/320 319/319/319
f 183/183/183 319/319/319 320/320/320
f 14/14/14 321/321/321 187/187/187
f 85/85/85 322/322/322 321/321/321
f 51/51/51 187/187/187 322/322/322
f 321/321/321 322/322/322 187/187/187
f 26/26/26 323/323/323 325/325/325
f 86/86/86 324/324/324 323/323/323
f 85/85/85 325/325/325 324/324/324
f 323/323/323 324/324/324 325/325/325
f 51/51/51 322/322/322 319/319/319
f 85/85/85 324/324/324 322/322/322
f 86/86/86 319/319/319 324/324/324
f 322/322/322 324/324/324 319/319/319
f 12/12/12 326/326/326 172/172/172
f 87/87/87 327/327/327 326/326/326
f 46/46/46 172/172/172 327/327/327
f 326/326/326 327/327/327 172/172/172
f 25/25/25 328/328/328 330/330/330
f 88/88/88 329/329/329 328/328/328
f 87/87/87 330/330/330 329/329/329
f 328/328/328 329/329/329 330/330/330
f 14/14/14 177/177/177 332/332/332
f 46/46/46 331/331/331 177/177/177
f 88/88/88 332/332/332 331/331/331
f 177/177/177 331/331/331 332/332/332
f 87/87/87 329/329/329 327/327/327
f 88/88/88 331/331/331 329/329/329
f 46/46/46 327/327/327 331/331/331
f 329/329/329 331/331/331 327/327/327
f 5/5/5 333/333/333 335/335/335
f 89/89/89 334/334/334 333/333/333
f 91/91/91 335/335/335 334/334/334
f 333/333/333 334/334/334 335/335/335
f 26/26/26 336/336/336 338/338/338
f 90/90/90 337/337/337 336/336/336
f 89/89/89 338/338/338 337/337/337
f 336/336/336 337/337/337 338/338/338
f 25/25/25 339/339/339 341/341/341
f 91/91/91 340/340/340 339/339/339
f 90/90/90 341/341/341 340/340/340
f 339/339/339 340/340/340 341/341/341
f 89/89/89 337/337/337 334/334/334
f 90/90/90 340/340/340 337/337/337
f 91/91/91 334/334/334 340/340/340
f 337/337/337 340/340/340 334/334/334
f 14/14/14 332/332/332 321/321/321
f 88/88/88 342/342/342 332/332/332
f 85/85/85 321/321/321 342/342/342
f 332/332/332 342/342/342 321/321/321
f 25/25/25 341/341/341 328/328/328
f 90/90/90 343/343/343 341/341/341
f 88/88/88 328/328/328 343/343/343
f 341/341/341 343/343/343 328/328/328
f 26/26/26 325/325/325 336/336/336
f 85/85/85 344/344/344 325/325/325
f 90/90/90 336/336/336 344/344/344
f 325/325/325 344/344/344 336/336/336
f 88/88/88 343/343/343 342/342/342
f 90/90/90 344/344/344 343/343/343
f 85/85/85 342/342/342 344/344/344
f 343/343/343 344/344/344 342/342/342
f 12/12/12 284/284/284 346/346/346
f 77/77/77 345/345/345 284/284/284
f 93/93/93 346/346/346 345/345/345
f 284/284/284 345/345/345 346/346/346
f 22/22/22 347/347/347 287/287/287
f 92/92/92 348/348/348 347/347/347
f 77/77/77 287/287/287 348/348/348
f 347/347/347 348/348/348 287/287/287
f 28/28/28 349/349/349 351/351/351
f 93/93/93 350/350/350 349/349/349
f 92/92/92 351/351/351 350/350/350
f 349/349/349 350/350/350 351/351/351
f 77/77/77 348/348/348 345/345/345
f 92/92/92 350/350/350 348/348/348
f 93/93/93 345/345/345 350/350/350
f 348/348/348 350/350/350 345/345/345
f 11/11/11 352/352/352 276/276/276
f 94/94/94 353/353/353 352/352/352
f 74/74/74 276/276/276 353/353/353
f 352/352/352 353/353/353 276/276/276
f 27/27/27 354/354/354 356/356/356
f 95/95/95 355/355/355 354/354/354
f 94/94/94 356/356/356 355/355/355
f 354/354/354 355/355/355 356/356/356
f 22/22/22 280/280/280 358/358/358
f 74/74/74 357/357/357 280/280/280
f 95/95/95 358/358/358 357/357/357
f 280/280/280 357/357/357 358/358/358
f 94/94/94 355/355/355 353/353/353
f 95/95/95 357/357/357 355/355/355
f 74/74/74 353/353/353 357/357/357
f 355/355/355 357/357/357 353/353/353
f 3/3/3 359/359/359 361/361/361
f 96/96/96 360/360/360 359/359/359
f 98/98/98 361/361/361 360/360/360
f 359/359/359 360/360/360 361/361/361
f 28/28/28 362/362/362 364/364/364
f 97/97/97 363/363/363 362/362/362
f 96/96/96 364/364/364 363/363/363
f 362/362/362 363/363/363 364/364/364
f 27/27/27 365/365/365 367/367/367
f 98/98/98 366/366/366 365/365/365
f 97/97/97 367/367/367 366/366/366
f 365/365/365 366/366/366 367/367/367
f 96/96/96 363/363/363 360/360/360
f 97/97/97 366/366/366 363/363/363
f 98/98/98 360/360/360 366/366/366
f 363/363/363 366/366/366 360/360/360
f 22/22/22 358/358/358 347/347/347
f 95/95/95 368/368/368 358/358/358
f 92/92/92 347/347/347 368/368/368
f 358/358/358 368/368/368 347/347/347
f 27/27/27 367/367/367 354/354/354
f 97/97/97 369/369/369 367/367/367
f 95/95/95 354/354/354 369/369/369
f 367/367/367 369/369/369 354/354/354
f 28/28/28 351/351/351 362/362/362
f 92/92/92 370/370/370 351/351/351
f 97/97/97 362/362/362 370/370/370
f 351/351/351 370/370/370 362/362/362
f 95/95/95 369/369/369 368/368/368
f 97/97/97 370/370/370 369/369/369
f 92/92/92 368/368/368 370/370/370
f 369/369/369 370/370/370 368/368/368
f 11/11/11 261/261/261 372/372/372
f 72/72/72 371/371/371 261/261/261
f 100/100/100 372/372/372 371/371/371
f 261/261/261 371/371/371 372/372/372
f 20/20/20 373/373/373 265/265/265
f 99/99/99 374/374/374 373/373/373
f 72/72/72 265/265/265 374/374/374
f 373/373/373 374/374/374 265/265/265
f 30/30/30 375/375/375 377/377/377
f 100/100/100 376/376/376 375/375/375
f 99/99/99 377/377/377 376/376/376
f 375/375/375 376/376/376 377/377/377
f 72/72/72 374/374/374 371/371/371
f 99/99/99 376/376/376 374/374/374
f 100/100/100 371/371/371 376/376/376
f 374/374/374 376/376/376 371/371/371
f 8/8/8 378/378/378 252/252/252
f 101/101/101 379/379/379 378/378/378
f 68/68/68 252/252/252 379/379/379
f 378/378/378 379/379/379 252/252/252
f 29/29/29 380/380/380 382/382/382
f 102/102/102 381/381/381 380/380/380
f 101/101/101 382/382/382 381/381/381
f 380/380/380 381/381/381 382/382/382
f 20/20/20 256/256/256 384/384/384
f 68/68/68 383/383/383 256/256/256
f 102/102/102 384/384/384 383/383/383
f 256/256/256 383/383/383 384/384/384
f 101/101/101 381/381/381 379/379/379
f 102/102/102 383/383/383 381/381/381
f 68/68/68 379/379/379 383/383/383
f 381/381/381 383/383/383 379/379/379
f 7/7/7 385/385/385 387/387/387
f 103/103/103 386/386/386 385/385/385
f 105/105/105 387/387/387 386/386/386
f 385/385/385 386/386/386 387/387/387
f 30/30/30 388/388/388 390/390/390
f 104/104/104 389/389/389 388/388/388
f 103/103/103 390/390/390 389/389/389
f 388/388/388 389/389/389 390/390/390
f 29/29/29 391/391/391 393/393/393
f 105/105/105 392/392/392 391/391/391
f 104/104/104 393/393/393 392/392/392
f 391/391/391 392/392/392 393/393/393
f 103/103/103 389/389/389 386/386/386
f 104/104/104 392/392/392 389/389/389
f 105/105/105 386/386/386 392/392/392
f 389/389/389 392/392/392 386/386/386
f 20/20/20 384/384/384 373/373/373
f 102/102/102 394/394/394 384/384/384
f 99/99/99 373/373/373 394/394/394
f 384/384/384 394/394/394 373/373/373
f 29/29/29 393/393/393 380/380/380
f 104/104/104 395/395/395 393/393/393
f 102/102/102 380/380/380 395/395/395
f 393/393/393 395/395/395 380/380/380
f 30/30/30 377/377/377 388/388/388
f 99/99/99 396/396/396 377/377/377
f 104/104/104 388/388/388 396/396/396
f 377/377/377 396/396/396 388/388/388
f 102/102/102 395/395/395 394/394/394
f 104/104/104 396/396/396 395/395/395
f 99/99/99 394/394/394 396/396/396
f 395/395/395 396/396/396 394/394/394
f 8/8/8 235/235/235 398/398/398
f 65/65/65 397/397/397 235/235/235
f 107/107/107 398/398/398 397/397/397
f 235/235/235 397/397/397 398/398/398
f 18/18/18 399/399/399 239/239/239
f 106/106/106 400/400/400 399/399/399
f 65/65/65 239/239/239 400/400/400
f 399/399/399 400/400/400 239/239/239
f 32/32/32 401/401/401 403/403/403
f 107/107/107 402/402/402 401/401/401
f 106/106/106 403/403/403 402/402/402
f 401/401/401 402/402/402 403/403/403
f 65/65/65 400/400/400 397/397/397
f 106/106/106 402/402/402 400/400/400
f 107/107/107 397/397/397 402/402/402
f 400/400/400 402/402/402 397/397/397
f 2/2/2 404/404/404 226/226/226
f 108/108/108 405/405/405 404/404/404
f 61/61/61 226/226/226 405/405/405
f 404/404/404 405/405/405 226/226/226
f 31/31/31 406/406/406 408/408/408
f 109/109/109 407/407/407 406/406/406
f 108/108/108 408/408/408 407/407/407
f 406/406/406 407/407/407 408/408/408
f 18/18/18 230/230/230 410/410/410
f 61/61/61 409/409/409 230/230/230
f 109/109/109 410/410/410 409/409/409
f 230/230/230 409/409/409 410/410/410
f 108/108/108 407/407/407 405/405/405
f 109/109/109 409/409/409 407/407/407
f 61/61/61 405/405/405 409/409/409
f 407/407/407 409/409/409 405/405/405
f 9/9/9 411/411/411 413/413/413
f 110/110/110 412/412/412 411/411/411
f 112/112/112 413/413/413 412/412/412
f 411/411/411 412/412/412 413/413/413
f 32/32/32 414/414/414 416/416/416
f 111/111/111 415/415/415 414/414/414
f 110/110/110 416/416/416 415/415/415
f 414/414/414 415/415/415 416/416/416
f 31/31/31 417/417/417 419/419/419
f 112/112/112 418/418/418 417/417/417
f 111/111/111 419/419/419 418/418/418
f 417/417/417 418/418/418 419/419/419
f 110/110/110 415/415/415 412/412/412
f 111/111/111 418/418/418 415/415/415
f 112/112/112 412/412/412 418/418/418
f 415/415/415 418/418/418 412/412/412
f 18/18/18 410/410/410 399/399/399
f 109/109/109 420/420/420 410/410/410
f 106/106/106 399/399/399 420/420/420
f 410/410/410 420/420/420 399/399/399
f 31/31/31 419/419/419 406/406/406
f 111/111/111 421/421/421 419/419/419
f 109/109/109 406/406/406 421/421/421
f 419/419/419 421/421/421 406/406/406
f 32/32/32 403/403/403 414/414/414
f 106/106/106 422/422/422 403/403/403
f 111/111/111 414/414/414 422/422/422
f 403/403/403 422/422/422 414/414/414
f 109/109/109 421/421/421 420/420/420
f 111/111/111 422/422/422 421/421/421
f 106/106/106 420/420/420 422/422/422
f 421/421/421 422/422/422 420/420/420
f 4/4/4 423/423/423 425/425/425
f 113/113/113 424/424/424 423/423/423
f 115/115/115 425/425/425 424/424/424
f 423/423/423 424/424/424 425/425/425
f 33/33/33 426/426/426 428/428/428
f 114/114/114 427/427/427 426/426/426
f 113/113/113 428/428/428 427/427/427
f 426/426/426 427/427/427 428/428/428
f 35/35/35 429/429/429 431/431/431
f 115/115/115 430/430/430 429/429/429
f 114/114/114 431/431/431 430/430/430
f 429/429/429 430/430/430 431/431/431
f 113/113/113 427/427/427 424/424/424
f 114/114/114 430/430/430 427/427/427
f 115/115/115 424/424/424 430/430/430
f 427/427/427 430/430/430 424/424/424
f 10/10/10 432/432/432 434/434/434
f 116/116/116 433/433/433 432/432/432
f 118/118/118 434/434/434 433/433/433
f 432/432/432 433/433/433 434/434/434
f 34/34/34 435/435/435 437/437/437
f 117/117/117 436/436/436 435/435/435
f 116/116/116 437/437/437 436/436/436
f 435/435/435 436/436/436 437/437/437
f 33/33/33 438/438/438 440/440/440
f 118/118/118 439/439/439 438/438/438
f 117/117/117 440/440/440 439/439/439
f 438/438/438 439/439/439 440/440/440
f 116/116/116 436/436/436 433/433/433
f 117/117/117 439/439/439 436/436/436
f 118/118/118 433/433/433 439/439/439
f 436/436/436 439/439/439 433/433/433
f 5/5/5 441/441/441 443/443/443
f 119/119/119 442/442/442 441/441/441
f 121/121/121 443/443/443 442/442/442
f 441/441/441 442/442/442 443/443/443
f 35/35/35 444/444/444 446/446/446
f 120/120/120 445/445/445 444/444/444
f 119/119/119 446/446/446 445/445/445
f 444/444/444 445/445/445 446/446/446
f 34/34/34 447/447/447 449/449/449
f 121/121/121 448/448/448 447/447/447
f 120/120/120 449/449/449 448/448/448
f 447/447/447 448/448/448 449/449/449
f 119/119/119 445/445/445 442/442/442
f 120/120/120 448/448/448 445/445/445
f 121/121/121 442/442/442 448/448/448
f 445/445/445 448/448/448 442/442/442
f 33/33/33 440/440/440 426/426/426
f 117/117/117 450/450/450 440/440/440
f 114/114/114 426/426/426 450/450/450
f 440/440/440 450/450/450 426/426/426
f 34/34/34 449/449/449 435/435/435
f 120/120/120 451/451/451 449/449/449
f 117/117/117 435/435/435 451/451/451
f 449/449/449 451/451/451 435/435/435
f 35/35/35 431/431/431 444/444/444
f 114/114/114 452/452/452 431/431/431
f 120/120/120 444/444/444 452/452/452
f 431/431/431 452/452/452 444/444/444
f 117/117/117 451/451/451 450/450/450
f 120/120/120 452/452/452 451/451/451
f 114/114/114 450/450/450 452/452/452
f 451/451/451 452/452/452 450/450/450
f 4/4/4 425/425/425 454/454/454
f 115/115/115 453/453/453 425/425/425
f 123/123/123 454/454/454 453/453/453
f 425/425/425 453/453/453 454/454/454
f 35/35/35 455/455/455 429/429/429
f 122/122/122 456/456/456 455/455/455
f 115/115/115 429/429/429 456/456/456
f 455/455/455 456/456/456 429/429/429
f 37/37/37 457/457/457 459/459/459
f 123/123/123 458/458/458 457/457/457
f 122/122/122 459/459/459 458/458/458
f 457/457/457 458/458/458 459/459/459
f 115/115/115 456/456/456 453/453/453
f 122/122/122 458/458/458 456/456/456
f 123/123/123 453/453/453 458/458/458
f 456/456/456 458/458/458 453/453/453
f 5/5/5 460/460/460 441/441/441
f 124/124/124 461/461/461 460/460/460
f 119/119/119 441/441/441 461/461/461
f 460/460/460 461/461/461 441/441/441
f 36/36/36 462/462/462 464/464/464
f 125/125/125 463/463/463 462/462/462
f 124/124/124 464/464/464 463/463/463
f 462/462/462 463/463/463 464/464/464
f 35/35/35 446/446/446 466/466/466
f 119/119/119 465/465/465 446/446/446
f 125/125/125 466/466/466 465/465/465
f 446/446/446 465/465/465 466/466/466
f 124/124/124 463/463/463 461/461/461
f 125/125/125 465/465/465 463/463/463
f 119/119/119 461/461/461 465/465/465
f 463/463/463 465/465/465 461/461/461
f 3/3/3 467/467/467 469/469/469
f 126/126/126 468/468/468 467/467/467
f 128/128/128 469/469/469 468/468/468
f 467/467/467 468/468/468 469/469/469
f 37/37/37 470/470/470 472/472/472
f 127/127/127 471/471/471 470/470/470
f 126/126/126 472/472/472 471/471/471
f 470/470/470 471/471/471 472/472/472
f 36/36/36 473/473/473 475/475/475
f 128/128/128 474/474/474 473/473/473
f 127/127/127 475/475/475 474/474/474
f 473/473/473 474/474/474 475/475/475
f 126/126/126 471/471/471 468/468/468
f 127/127/127 474/474/474 471/471/471
f 128/128/128 468/468/468 474/474/474
f 471/471/471 474/474/474 468/468/468
f 35/35/35 466/466/466 455/455/455
f 125/125/125 476/476/476 466/466/466
f 122/122/122 455/455/455 476/476/476
f 466/466/466 476/476/476 455/455/455
f 36/36/36 475/475/475 462/462/462
f 127/127/127 477/477/477 475/475/475
f 125/125/125 462/462/462 477/477/477
f 475/475/475 477/477/477 462/462/462
f 37/37/37 459/459/459 470/470/470
f 122/122/122 478/478/478 459/459/459
f 127/127/127 470/470/470 478/478/478
f 459/459/459 478/478/478 470/470/470
f 125/125/125 477/477/477 476/476/476
f 127/127/127 478/478/478 477/477/477
f 122/122/122 476/476/476 478/478/478
f 477/477/477 478/478/478 476/476/476
f 4/4/4 454/454/454 480/480/480
f 123/123/123 479/479/479 454/454/454
f 130/130/130 480/480/480 479/479/479
f 454/454/454 479/479/479 480/480/480
f 37/37/37 481/481/481 457/457/457
f 129/129/129 482/482/482 481/481/481
f 123/123/123 457/457/457 482/482/482
f 481/481/481 482/482/482 457/457/457
f 39/39/39 483/483/483 485/485/485
f 130/130/130 484/484/484 483/483/483
f 129/129/129 485/485/485 484/484/484
f 483/483/483 484/484/484 485/485/485
f 123/123/123 482/482/482 479/479/479
f 129/129/129 484/484/484 482/482/482
f 130/130/130 479/479/479 484/484/484
f 482/482/482 484/484/484 479/479/479
f 3/3/3 486/486/486 467/467/467
f 131/131/131 487/487/487 486/486/486
f 126/126/126 467/467/467 487/487/487
f 486/486/486 487/487/487 467/467/467
f 38/38/38 488/488/488 490/490/490
f 132/132/132 489/489/489 488/488/488
f 131/131/131 490/490/490 489/489/489
f 488/488/488 489/489/489 490/490/490
f 37/37/37 472/472/472 492/492/492
f 126/126/126 491/491/491 472/472/472
f 132/132/132 492/492/492 491/491/491
f 472/472/472 491/491/491 492/492/492
f 131/131/131 489/489/489 487/487/487
f 132/132/132 491/491/491 489/489/489
f 126/126/126 487/487/487 491/491/491
f 489/489/489 491/491/491 487/487/487
f 7/7/7 493/493/493 495/495/495
f 133/133/133 494/494/494 493/493/493
f 135/135/135 495/495/495 494/494/494
f 493/493/493 494/494/494 495/495/495
f 39/39/39 496/496/496 498/498/498
f 134/134/134 497/497/497 496/496/496
f 133/133/133 498/498/498 497/497/497
f 496/496/496 497/497/497 498/498/498
f 38/38/38 499/499/499 501/501/501
f 135/135/135 500/500/500 499/499/499
f 134/134/134 501/501/501 500/500/500
f 499/499/499 500/500/500 501/501/501
f 133/133/133 497/497/497 494/494/494
f 134/134/134 500/500/500 497/497/497
f 135/135/135 494/494/494 500/500/500
f 497/497/497 500/500/500 494/494/494
f 37/37/37 492/492/492 481/481/481
f 132/132/132 502/502/502 492/492/492
f 129/129/129 481/481/481 502/502/502
f 492/492/492 502/502/502 481/481/481
f 38/38/38 501/501/501 488/488/488
f 134/134/134 503/503/503 501/501/501
f 132/132/132 488/488/488 503/503/503
f 501/501/501 503/503/503 488/488/488
f 39/39/39 485/485/485 496/496/496
f 129/129/129 504/504/504 485/485/485
f 134/134/134 496/496/496 504/504/504
f 485/485/485 504/504/504 496/496/496
f 132/132/132 503/503/503 502/502/502
f 134/134/134 504/504/504 503/503/503
f 129/129/129 502/502/502 504/504/504
f 503/503/503 504/504/504 502/502/502
f 4/4/4 480/480/480 506/506/506
f 130/130/130 505/505/505 480/480/480
f 137/137/137 506/506/506 505/505/505
f 480/480/480 505/505/505 506/506/506
f 39/39/39 507/507/507 483/483/483
f 136/136/136 508/508/508 507/507/507
f 130/130/130 483/483/483 508/508/508
f 507/507/507 508/508/508 483/483/483
f 41/41/41 509/509/509 511/511/511
f 137/137/137 510/510/510 509/509/509
f 136/136/136 511/511/511 510/510/510
f 509/509/509 510/510/510 511/511/511
f 130/130/130 508/508/508 505/505/505
f 136/136/136 510/510/510 508/508/508
f 137/137/137 505/505/505 510/510/510
f 508/508/508 510/510/510 505/505/505
f 7/7/7 512/512/512 493/493/493
f 138/138/138 513/513/513 512/512/512
f 133/133/133 493/493/493 513/513/513
f 512/512/512 513/513/513 493/493/493
f 40/40/40 514/514/514 516/516/516
f 139/139/139 515/515/515 514/514/514
f 138/138/138 516/516/516 515/515/515
f 514/514/514 515/515/515 516/516/516
f 39/39/39 498/498/498 518/518/518
f 133/133/133 517/517/517 498/498/498
f 139/139/139 518/518/518 517/517/517
f 498/498/498 517/517/517 518/518/518
f 138/138/138 515/515/515 513/513/513
f 139/139/139 517/517/517 515/515/515
f 133/133/133 513/513/513 517/517/517
f 515/515/515 517/517/517 513/513/513
f 9/9/9 519/519/519 521/521/521
f 140/140/140 520/520/520 519/519/519
f 142/142/142 521/521/521 520/520/520
f 519/519/519 520/520/520 521/521/521
f 41/41/41 522/522/522 524/524/524
f 141/141/141 523/523/523 522/522/522
f 140/140/140 524/524/524 523/523/523
f 522/522/522 523/523/523 524/524/524
f 40/40/40 525/525/525 527/527/527
f 142/142/142 526/526/526 525/525/525
f 141/141/141 527/527/527 526/526/526
f 525/525/525 526/526/526 527/527/527
f 140/140/140 523/523/523 520/520/520
f 141/141/141 526/526/526 523/523/523
f 142/142/142 520/520/520 526/526/526
f 523/523/523 526/526/526 520/520/520
f 39/39/39 518/518/518 507/507/507
f 139/139/139 528/528/528 518/518/518
f 136/136/136 507/507/507 528/528/528
f 518/518/518 528/528/528 507/507/507
f 40/40/40 527/527/527 514/514/514
f 141/141/141 529/529/529 527/527/527
f 139/139/139 514/514/514 529/529/529
f 527/527/527 529/529/529 514/514/514
f 41/41/41 511/511/511 522/522/522
f 136/136/136 530/530/530 511/511/511
f 141/141/141 522/522/522 530/530/530
f 511/511/511 530/530/530 522/522/522
f 139/139/139 529/529/529 528/528/528
f 141/141/141 530/530/530 529/529/529
f 136/136/136 528/528/528 530/530/530
f 529/529/529 530/530/530 528/528/528
f 4/4/4 506/506/506 423/423/423
f 137/137/137 531/531/531 506/506/506
f 113/113/113 423/423/423 531/531/531
f 506/506/506 531/531/531 423/423/423
f 41/41/41 532/532/532 509/509/509
f 143/143/143 533/533/533 532/532/532
f 137/137/137 509/509/509 533/533/533
f 532/532/532 533/533/533 509/509/509
f 33/33/33 428/428/428 535/535/535
f 113/113/113 534/534/534 428/428/428
f 143/143/143 535/535/535 534/534/534
f 428/428/428 534/534/534 535/535/535
f 137/137/137 533/533/533 531/531/531
f 143/143/143 534/534/534 533/533/533
f 113/113/113 531/531/531 534/534/534
f 533/533/533 534/534/534 531/531/531
f 9/9/9 536/536/536 519/519/519
f 144/144/144 537/537/537 536/536/536
f 140/140/140 519/519/519 537/537/537
f 536/536/536 537/537/537 519/519/519
f 42/42/42 538/538/538 540/540/540
f 145/145/145 539/539/539 538/538/538
f 144/144/144 540/540/540 539/539/539
f 538/538/538 539/539/539 540/540/540
f 41/41/41 524/524/524 542/542/542
f 140/140/140 541/541/541 524/524/524
f 145/145/145 542/542/542 541/541/541
f 524/524/524 541/541/541 542/542/542
f 144/144/144 539/539/539 537/537/537
f 145/145/145 541/541/541 539/539/539
f 140/140/140 537/537/537 541/541/541
f 539/539/539 541/541/541 537/537/537
f 10/10/10 434/434/434 544/544/544
f 118/118/118 543/543/543 434/434/434
f 147/147/147 544/544/544 543/543/543
f 434/434/434 543/543/543 544/544/544
f 33/33/33 545/545/545 438/438/438
f 146/146/146 546/546/546 545/545/545
f 118/118/118 438/438/438 546/546/546
f 545/545/545 546/546/546 438/438/438
f 42/42/42 547/547/547 549/549/549
f 147/147/147 548/548/548 547/547/547
f 146/146/146 549/549/549 548/548/548
f 547/547/547 548/548/548 549/549/549
f 118/118/118 546/546/546 543/543/543
f 146/146/146 548/548/548 546/546/546
f 147/147/147 543/543/543 548/548/548
f 546/546/546 548/548/548 543/543/543
f 41/41/41 542/542/542 532/532/532
f 145/145/145 550/550/550 542/542/542
f 143/143/143 532/532/532 550/550/550
f 542/542/542 550/550/550 532/532/532
f 42/42/42 549/549/549 538/538/538
f 146/146/146 551/551/551 549/549/549
f 145/145/145 538/538/538 551/551/551
f 549/549/549 551/551/551 538/538/538
f 33/33/33 535/535/535 545/545/545
f 143/143/143 552/552/552 535/535/535
f 146/146/146 545/545/545 552/552/552
f 535/535/535 552/552/552 545/545/545
f 145/145/145 551/551/551 550/550/550
f 146/146/146 552/552/552 551/551/551
f 143/143/143 550/550/550 552/552/552
f 551/551/551 552/552/552 550/550/550
f 5/5/5 443/443/443 333/333/333
f 121/121/121 553/553/553 443/443/443
f 89/89/89 333/333/333 553/553/553
f 443/443/443 553/553/553 333/333/333
f 34/34/34 554/554/554 447/447/447
f 148/148/148 555/555/555 554/554/554
f 121/121/121 447/447/447 555/555/555
f 554/554/554 555/555/555 447/447/447
f 26/26/26 338/338/338 557/557/557
f 89/89/89 556/556/556 338/338/338
f 148/148/148 557/557/557 556/556/556
f 338/338/338 556/556/556 557/557/557
f 121/121/121 555/555/555 553/553/553
f 148/148/148 556/556/556 555/555/555
f 89/89/89 553/553/553 556/556/556
f 555/555/555 556/556/556 553/553/553
f 10/10/10 309/309/309 432/432/432
f 84/84/84 558/558/558 309/309/309
f 116/116/116 432/432/432 558/558/558
f 309/309/309 558/558/558 432/432/432
f 23/23/23 559/559/559 313/313/313
f 149/149/149 560/560/560 559/559/559
f 84/84/84 313/313/313 560/560/560
f 559/559/559 560/560/560 313/313/313
f 34/34/34 437/437/437 562/562/562
f 116/116/116 561/561/561 437/437/437
f 149/149/149 562/562/562 561/561/561
f 437/437/437 561/561/561 562/562/562
f 84/84/84 560/560/560 558/558/558
f 149/149/149 561/561/561 560/560/560
f 116/116/116 558/558/558 561/561/561
f 560/560/560 561/561/561 558/558/558
f 6/6/6 320/320/320 300/300/300
f 86/86/86 563/563/563 320/320/320
f 80/80/80 300/300/300 563/563/563
f 320/320/320 563/563/563 300/300/300
f 26/26/26 564/564/564 323/323/323
f 150/150/150 565/565/565 564/564/564
f 86/86/86 323/323/323 565/565/565
f 564/564/564 565/565/565 323/323/323
f 23/23/23 304/304/304 567/567/567
f 80/80/80 566/566/566 304/304/304
f 150/150/150 567/567/567 566/566/566
f 304/304/304 566/566/566 567/567/567
f 86/86/86 565/565/565 563/563/563
f 150/150/150 566/566/566 565/565/565
f 80/80/80 563/563/563 566/566/566
f 565/565/565 566/566/566 563/563/563
f 34/34/34 562/562/562 554/554/554
f 149/149/149 568/568/568 562/562/562
f 148/148/148 554/554/554 568/568/568
f 562/562/562 568/568/568 554/554/554
f 23/23/23 567/567/567 559/559/559
f 150/150/150 569/569/569 567/567/567
f 149/149/149 559/559/559 569/569/569
f 567/567/567 569/569/569 559/559/559
f 26/26/26 557/557/557 564/564/564
f 148/148/148 570/570/570 557/557/557
f 150/150/150 564/564/564 570/570/570
f 557/557/557 570/570/570 564/564/564
f 149/149/149 569/569/569 568/568/568
f 150/150/150 570/570/570 569/569/569
f 148/148/148 568/568/568 570/570/570
f 569/569/569 570/570/570 568/568/568
f 3/3/3 469/469/469 359/359/359
f 128/128/128 571/571/571 469/469/469
f 96/96/96 359/359/359 571/571/571
f 469/469/469 571/571/571 359/359/359
f 36/36/36 572/572/572 473/473/473
f 151/151/151 573/573/573 572/572/572
f 128/128/128 473/473/473 573/573/573
f 572/572/572 573/573/573 473/473/473
f 28/28/28 364/364/364 575/575/575
f 96/96/96 574/574/574 364/364/364
f 151/151/151 575/575/575 574/574/574
f 364/364/364 574/574/574 575/575/575
f 128/128/128 573/573/573 571/571/571
f 151/151/151 574/574/574 573/573/573
f 96/96/96 571/571/571 574/574/574
f 573/573/573 574/574/574 571/571/571
f 5/5/5 335/335/335 460/460/460
f 91/91/91 576/576/576 335/335/335
f 124/124/124 460/460/460 576/576/576
f 335/335/335 576/576/576 460/460/460
f 25/25/25 577/577/577 339/339/339
f 152/152/152 578/578/578 577/577/577
f 91/91/91 339/339/339 578/578/578
f 577/577/577 578/578/578 339/339/339
f 36/36/36 464/464/464 580/580/580
f 124/124/124 579/579/579 464/464/464
f 152/152/152 580/580/580 579/579/579
f 464/464/464 579/579/579 580/580/580
f 91/91/91 578/578/578 576/576/576
f 152/152/152 579/579/579 578/578/578
f 124/124/124 576/576/576 579/579/579
f 578/578/578 579/579/579 576/576/576
f 12/12/12 346/346/346 326/326/326
f 93/93/93 581/581/581 346/346/346
f 87/87/87 326/326/326 581/581/581
f 346/346/346 581/581/581 326/326/326
f 28/28/28 582/582/582 349/349/349
f 153/153/153 583/583/583 582/582/582
f 93/93/93 349/349/349 583/583/583
f 582/582/582 583/583/583 349/349/349
f 25/25/25 330/330/330 585/585/585
f 87/87/87 584/584/584 330/330/330
f 153/153/153 585/585/585 584/584/584
f 330/330/330 584/584/584 585/585/585
f 93/93/93 583/583/583 581/581/581
f 153/153/153 584/584/584 583/583/583
f 87/87/87 581/581/581 584/584/584
f 583/583/583 584/584/584 581/581/581
f 36/36/36 580/580/580 572/572/572
f 152/152/152 586/586/586 580/580/580
f 151/151/151 572/572/572 586/586/586
f 580/580/580 586/586/586 572/572/572
f 25/25/25 585/585/585 577/577/577
f 153/153/153 587/587/587 585/585/585
f 152/152/152 577/577/577 587/587/587
f 585/585/585 587/587/587 577/577/577
f 28/28/28 575/575/575 582/582/582
f 151/151/151 588/588/588 575/575/575
f 153/153/153 582/582/582 588/588/588
f 575/575/575 588/588/588 582/582/582
f 152/152/152 587/587/587 586/586/586
f 153/153/153 588/588/588 587/587/587
f 151/151/151 586/586/586 588/588/588
f 587/587/587 588/588/588 586/586/586
f 7/7/7 495/495/495 385/385/385
f 135/135/135 589/589/589 495/495/495
f 103/103/103 385/385/385 589/589/589
f 495/495/495 589/589/589 385/385/385
f 38/38/38 590/590/590 499/499/499
f 154/154/154 591/591/591 590/590/590
f 135/135/135 499/499/499 591/591/591
f 590/590/590 591/591/591 499/499/499
f 30/30/30 390/390/390 593/593/593
f 103/103/103 592/592/592 390/390/390
f 154/154/154 593/593/593 592/592/592
f 390/390/390 592/592/592 593/593/593
f 135/135/135 591/591/591 589/589/589
f 154/154/154 592/592/592 591/591/591
f 103/103/103 589/589/589 592/592/592
f 591/591/591 592/592/592 589/589/589
f 3/3/3 361/361/361 486/486/486
f 98/98/98 594/594/594 361/361/361
f 131/131/131 486/486/486 594/594/594
f 361/361/361 594/594/594 486/486/486
f 27/27/27 595/595/595 365/365/365
f 155/155/155 596/596/596 595/595/595
f 98/98/98 365/365/365 596/596/596
f 595/595/595 596/596/596 365/365/365
f 38/38/38 490/490/490 598/598/598
f 131/131/131 597/597/597 490/490/490
f 155/155/155 598/598/598 597/597/597
f 490/490/490 597/597/597 598/598/598
f 98/98/98 596/596/596 594/594/594
f 155/155/155 597/597/597 596/596/596
f 131/131/131 594/594/594 597/597/597
f 596/596/596 597/597/597 594/594/594
f 11/11/11 372/372/372 352/352/352
f 100/100/100 599/599/599 372/372/372
f 94/94/94 352/352/352 599/599/599
f 372/372/372 599/599/599 352/352/352
f 30/30/30 600/600/600 375/375/375
f 156/156/156 601/601/601 600/600/600
f 100/100/100 375/375/375 601/601/601
f 600/600/600 601/601/601 375/375/375
f 27/27/27 356/356/356 603/603/603
f 94/94/94 602/602/602 356/356/356
f 156/156/156 603/603/603 602/602/602
f 356/356/356 602/602/602 603/603/603
f 100/100/100 601/601/601 599/599/599
f 156/156/156 602/602/602 601/601/601
f 94/94/94 599/599/599 602/602/602
f 601/601/601 602/602/602 599/599/599
f 38/38/38 598/598/598 590/590/590
f 155/155/155 604/604/604 598/598/598
f 154/154/154 590/590/590 604/604/604
f 598/598/598 604/604/604 590/590/590
f 27/27/27 603/603/603 595/595/595
f 156/156/156 605/605/605 603/603/603
f 155/155/155 595/595/595 605/605/605
f 603/603/603 605/605/605 595/595/595
f 30/30/30 593/593/593 600/600/600
f 154/154/154 606/606/606 593/593/593
f 156/156/156 600/600/600 606/606/606
f 593/593/593 606/606/606 600/600/600
f 155/155/155 605/605/605 604/604/604
f 156/156/156 606/606/606 605/605/605
f 154/154/154 604/604/604 606/606/606
f 605/605/605 606/606/606 604/604/604
f 9/9/9 521/521/521 411/411/411
f 142/142/142 607/607/607 521/521/521
f 110/110/110 411/411/411 607/607/607
f 521/521/521 607/607/607 411/411/411
f 40/40/40 608/608/608 525/525/525
f 157/157/157 609/609/609 608/608/608
f 142/142/142 525/525/525 609/609/609
f 608/608/608 609/609/609 525/525/525
f 32/32/32 416/416/416 611/611/611
f 110/110/110 610/610/610 416/416/416
f 157/157/157 611/611/611 610/610/610
f 416/416/416 610/610/610 611/611/611
f 142/142/142 609/609/609 607/607/607
f 157/157/157 610/610/610 609/609/609
f 110/110/110 607/607/607 610/610/610
f 609/609/609 610/610/610 607/607/607
f 7/7/7 387/387/387 512/512/512
f 105/105/105 612/612/612 387/387/387
f 138/138/138 512/512/512 612/612/612
f 387/387/387 612/612/612 512/512/512
f 29/29/29 613/613/613 391/391/391
f 158/158/158 614/614/614 613/613/613
f 105/105/105 391/391/391 614/614/614
f 613/613/613 614/614/614 391/391/391
f 40/40/40 516/516/516 616/616/616
f 138/138/138 615/615/615 516/516/516
f 158/158/158 616/616/616 615/615/615
f 516/516/516 615/615/615 616/616/616
f 105/105/105 614/614/614 612/612/612
f 158/158/158 615/615/615 614/614/614
f 138/138/138 612/612/612 615/615/615
f 614/614/614 615/615/615 612/612/612
f 8/8/8 398/398/398 378/378/378
f 107/107/107 617/617/617 398/398/398
f 101/101/101 378/378/378 617/617/617
f 398/398/398 617/617/617 378/378/378
f 32/32/32 618/618/618 401/401/401
f 159/159/159 619/619/619 618/618/618
f 107/107/107 401/401/401 619/619/619
f 618/618/618 619/619/619 401/401/401
f 29/29/29 382/382/382 621/621/621
f 101/101/101 620/620/620 382/382/382
f 159/159/159 621/621/621 620/620/620
f 382/382/382 620/620/620 621/621/621
f 107/107/107 619/619/619 617/617/617
f 159/159/159 620/620/620 619/619/619
f 101/101/101 617/617/617 620/620/620
f 619/619/619 620/620/620 617/617/617
f 40/40/40 616/616/616 608/608/608
f 158/158/158 622/622/622 616/616/616
f 157/157/157 608/608/608 622/622/622
f 616/616/616 622/622/622 608/608/608
f 29/29/29 621/621/621 613/613/613
f 159/159/159 623/623/623 621/621/621
f 158/158/158 613/613/613 623/623/623
f 621/621/621 623/623/623 613/613/613
f 32/32/32 611/611/611 618/618/618
f 157/157/157 624/624/624 611/611/611
f 159/159/159 618/618/618 624/624/624
f 611/611/611 624/624/624 618/618/618
f 158/158/158 623/623/623 622/622/622
f 159/159/159 624/624/624 623/623/623
f 157/157/157 622/622/622 624/624/624
f 623/623/623 624/624/624 622/622/622
f 10/10/10 544/544/544 307/307/307
f 147/147/147 625/625/625 544/544/544
f 82/82/82 307/307/307 625/625/625
f 544/544/544 625/625/625 307/307/307
f 42/42/42 626/626/626 547/547/547
f 160/160/160 627/627/627 626/626/626
f 147/147/147 547/547/547 627/627/627
f 626/626/626 627/627/627 547/547/547
f 24/24/24 312/312/312 629/629/629
f 82/82/82 628/628/628 312/312/312
f 160/160/160 629/629/629 628/628/628
f 312/312/312 628/628/628 629/629/629
f 147/147/147 627/627/627 625/625/625
f 160/160/160 628/628/628 627/627/627
f 82/82/82 625/625/625 628/628/628
f 627/627/627 628/628/628 625/625/625
f 9/9/9 413/413/413 536/536/536
f 112/112/112 630/630/630 413/413/413
f 144/144/144 536/536/536 630/630/630
f 413/413/413 630/630/630 536/536/536
f 31/31/31 631/631/631 417/417/417
f 161/161/161 632/632/632 631/631/631
f 112/112/112 417/417/417 632/632/632
f 631/631/631 632/632/632 417/417/417
f 42/42/42 540/540/540 634/634/634
f 144/144/144 633/633/633 540/540/540
f 161/161/161 634/634/634 633/633/633
f 540/540/540 633/633/633 634/634/634
f 112/112/112 632/632/632 630/630/630
f 161/161/161 633/633/633 632/632/632
f 144/144/144 630/630/630 633/633/633
f 632/632/632 633/633/633 630/630/630
f 2/2/2 294/294/294 404/404/404
f 79/79/79 635/635/635 294/294/294
f 108/108/108 404/404/404 635/635/635
f 294/294/294 635/635/635 404/404/404
f 24/24/24 636/636/636 297/297/297
f 162/162/162 637/637/637 636/636/636
f 79/79/79 297/297/297 637/637/637
f 636/636/636 637/637/637 297/297/297
f 31/31/31 408/408/408 639/639/639
f 108/108/108 638/638/638 408/408/408
f 162/162/162 639/639/639 638/638/638
f 408/408/408 638/638/638 639/639/639
f 79/79/79 637/637/637 635/635/635
f 162/162/162 638/638/638 637/637/637
f 108/108/108 635/635/635 638/638/638
f 637/637/637 638/638/638 635/635/635
f 42/42/42 634/634/634 626/626/626
f 161/161/161 640/640/640 634/634/634
f 160/160/160 626/626/626 640/640/640
f 634/634/634 640/640/640 626/626/626
f 31/31/31 639/639/639 631/631/631
f 162/162/162 641/641/641 639/639/639
f 161/161/161 631/631/631 641/641/641
f 639/639/639 641/641/641 631/631/631
f 24/24/24 629/629/629 636/636/636
f 160/160/160 642/642/642 629/629/629
f 162/162/162 636/636/636 642/642/642
f 629/629/629 642/642/642 636/636/636
f 161/161/161 641/641/641 640/640/640
f 162/162/162 642/642/642 641/641/641
f 160/160/160 640/640/640 642/642/642
f 641/641/641 642/642/642 640/640/640
