# generated by scripts/make_rocks.py - demonstrator scenery
v -0.62406 0.95224 0.00000
v 0.60372 0.92120 0.00000
v -0.61918 -0.94480 0.00000
v 0.46989 -0.71700 0.00000
v 0.00000 -0.47719 0.41926
v 0.00000 0.59006 0.51843
v 0.00000 -0.53478 -0.46986
v 0.00000 0.51650 -0.45380
v 0.79274 0.00000 -0.25089
v 0.97227 0.00000 0.30771
v -0.87661 0.00000 -0.27743
v -0.89320 0.00000 0.28268
v -0.83586 0.48717 0.16349
v -0.61391 0.35781 0.50867
v -0.33668 0.83123 0.27896
v 0.35541 0.87747 0.29448
v 0.00000 1.29188 0.00000
v 0.35074 0.86595 -0.29061
v -0.33110 0.81745 -0.27433
v -0.45216 0.26353 -0.37464
v -0.86512 0.50422 -0.16921
v -0.97832 0.00000 0.00000
v 0.53163 0.30985 0.44049
v 0.99969 0.58265 0.19554
v -0.51695 -0.30129 0.42832
v 0.00000 0.00000 0.53189
v -0.81886 -0.47726 -0.16017
v -0.75661 -0.44098 0.14799
v 0.00000 0.00000 -0.57031
v -0.49769 -0.29007 -0.41237
v 0.91480 0.53318 -0.17893
v 0.59784 0.34844 -0.49534
v 0.79200 -0.46160 0.15491
v 0.54758 -0.31915 0.45370
v 0.30316 -0.74849 0.25119
v -0.28674 -0.70795 0.23758
v 0.00000 -1.00938 0.00000
v -0.32157 -0.79393 -0.26644
v 0.32314 -0.79780 -0.26774
v 0.48638 -0.28348 -0.40299
v 0.71849 -0.41876 -0.14053
v 0.97758 0.00000 0.00000
v -0.72243 0.68940 0.08565
v -0.62659 0.69184 0.23218
v -0.46818 0.87783 0.14360
v -0.83705 0.18060 0.42359
v -0.78451 0.45724 0.34312
v -0.91479 0.25990 0.23561
v -0.19744 0.80425 0.44192
v -0.54519 0.71052 0.45172
v -0.33342 0.52494 0.56674
v -0.18771 1.03629 0.15553
v -0.34658 1.15054 0.00000
v 0.18392 0.74918 0.41166
v 0.00000 0.90716 0.30444
v 0.33478 1.11136 0.00000
v 0.17657 0.97477 0.14630
v 0.50297 0.94305 0.15427
v -0.21146 1.16741 -0.17521
v -0.52694 0.98800 -0.16163
v 0.48617 0.91157 -0.14912
v 0.19922 1.09980 -0.16506
v -0.15318 0.62396 -0.34285
v 0.00000 0.92164 -0.30930
v 0.17233 0.70194 -0.38570
v -0.61964 0.68416 -0.22960
v -0.74541 0.71133 -0.08837
v -0.24349 0.38335 -0.41387
v -0.38744 0.50493 -0.32102
v -0.86724 0.24639 -0.22336
v -0.63893 0.37239 -0.27945
v -0.63262 0.13650 -0.32014
v -0.84691 0.49361 0.00000
v -0.98019 0.00000 -0.14259
v -0.95425 0.24873 -0.08347
v -0.94148 0.24540 0.08235
v -0.95655 0.00000 0.13915
v 0.73798 0.81483 0.27346
v 0.83827 0.79995 0.09938
v 0.28483 0.44843 0.48414
v 0.49924 0.65064 0.41365
v 1.03185 0.29315 0.26576
v 0.83758 0.48817 0.36633
v 0.83078 0.17925 0.42041
v -0.31104 0.18129 0.57628
v 0.00000 0.27441 0.52452
v -0.71081 -0.15336 0.35970
v -0.60657 0.00000 0.50258
v 0.00000 -0.26534 0.50719
v -0.27861 -0.16238 0.51618
v -0.25910 -0.40792 0.44040
v -0.85465 -0.22276 0.07476
v -0.83699 -0.23779 0.21557
v -0.87776 -0.24938 -0.22607
v -0.96999 -0.25283 -0.08485
v -0.68747 -0.65604 0.08150
v -0.79680 -0.46440 0.00000
v -0.71783 -0.68501 -0.08510
v -0.51300 0.00000 -0.42505
v -0.71886 -0.15510 -0.36378
v 0.00000 0.28010 -0.53541
v -0.25655 0.14953 -0.47532
v -0.28554 -0.44955 -0.48534
v -0.31167 -0.18165 -0.57744
v 0.00000 -0.31464 -0.60141
v 0.48573 0.63303 -0.40245
v 0.28353 0.44639 -0.48193
v 0.74222 0.70828 -0.08799
v 0.67752 0.74807 -0.25105
v 0.75250 0.16236 -0.38080
v 0.80221 0.46755 -0.35086
v 0.92444 0.26264 -0.23809
v 0.60119 -0.57371 0.07127
v 0.58777 -0.64898 0.21780
v 0.40976 -0.76829 0.12568
v 0.80953 -0.17466 0.40966
v 0.75945 -0.44263 0.33216
v 0.93785 -0.26645 0.24155
v 0.14469 -0.58936 0.32384
v 0.41655 -0.54287 0.34514
v 0.25384 -0.39965 0.43147
v 0.14501 -0.80053 0.12015
v 0.26145 -0.86792 0.00000
v -0.14023 -0.57119 0.31386
v 0.00000 -0.72282 0.24258
v -0.31619 -1.04963 0.00000
v -0.16129 -0.89041 0.13364
v -0.45808 -0.85888 0.14050
v 0.16203 -0.89449 -0.13425
v 0.40600 -0.76124 -0.12453
v -0.51722 -0.96979 -0.15865
v -0.18912 -1.04405 -0.15670
v 0.17218 -0.70135 -0.38537
v 0.00000 -0.83839 -0.28136
v -0.17199 -0.70057 -0.38495
v 0.57584 -0.63580 -0.21337
v 0.62249 -0.59403 -0.07380
v 0.27210 -0.42840 -0.46251
v 0.41794 -0.54469 -0.34629
v 0.75096 -0.21335 -0.19341
v 0.63858 -0.37219 -0.27929
v 0.66157 -0.14274 -0.33479
v 0.79563 -0.46372 0.00000
v 0.92950 0.00000 -0.13522
v 0.85914 -0.22394 -0.07515
v 0.91166 -0.23763 0.07975
v 1.04639 0.00000 0.15222
v 0.26720 -0.15573 0.49504
v 0.56096 0.00000 0.46479
v 0.26166 0.15251 0.48479
v -0.58002 -0.64043 0.21493
v -0.39506 -0.51486 0.32733
v -0.64928 -0.37842 0.28397
v -0.43894 -0.57205 -0.36369
v -0.58057 -0.64103 -0.21513
v -0.70148 -0.40885 -0.30681
v 0.54072 0.00000 -0.44802
v 0.28948 -0.16872 -0.53632
v 0.29687 0.17303 -0.55002
v 1.00394 0.26168 0.08782
v 0.96712 0.25208 -0.08460
v 0.99496 0.57989 0.00000
v -0.69356 0.83275 0.04678
v -0.61806 0.80876 0.11802
v -0.56337 0.94856 0.07813
v -0.73103 0.58643 0.19680
v -0.65743 0.67255 0.15392
v -0.76186 0.57468 0.12192
v -0.38810 0.82357 0.20328
v -0.53838 0.77069 0.18490
v -0.47962 0.75512 0.25341
v -0.86776 0.08465 0.34901
v -0.90245 0.22872 0.33305
v -0.94083 0.13459 0.26984
v -0.72244 0.42106 0.43490
v -0.83102 0.33030 0.39228
v -0.72259 0.26623 0.46260
v -0.89329 0.38293 0.20329
v -0.87422 0.36426 0.29491
v -0.82059 0.47827 0.25170
v -0.10034 0.71846 0.49672
v -0.27376 0.69230 0.52162
v -0.16038 0.55846 0.54142
v -0.43147 0.77396 0.35750
v -0.37182 0.76692 0.45176
v -0.27058 0.81652 0.35464
v -0.48539 0.44751 0.54681
v -0.45772 0.64360 0.53049
v -0.58518 0.53484 0.48486
v -0.73365 0.60378 0.29829
v -0.69523 0.59652 0.40796
v -0.60360 0.71691 0.33972
v -0.42344 1.03035 0.07969
v -0.48898 1.04611 0.00000
v -0.26534 0.93414 0.21985
v -0.34260 0.98262 0.15379
v -0.18750 1.26947 0.00000
v -0.27302 1.13037 0.08434
v -0.10553 1.19512 0.08743
v 0.09344 0.66900 0.46252
v 0.00000 0.76891 0.42250
v 0.17060 0.86408 0.28998
v 0.09201 0.83432 0.36015
v 0.27486 0.82944 0.36026
v -0.09359 0.84861 0.36633
v -0.17591 0.89095 0.29900
v 0.47611 1.01857 0.00000
v 0.42052 1.02324 0.07914
v 0.57164 0.96249 0.07928
v 0.10332 1.17012 0.08561
v 0.25879 1.07147 0.07995
v 0.18137 1.22797 0.00000
v 0.42199 0.89547 0.22103
v 0.33198 0.95216 0.14902
v 0.25468 0.89659 0.21102
v -0.09238 0.96620 0.22964
v 0.09018 0.94317 0.22416
v 0.00000 1.05387 0.15817
v -0.44183 1.07509 -0.08315
v -0.57063 0.96079 -0.07914
v -0.11129 1.26046 -0.09221
v -0.29310 1.21352 -0.09055
v -0.44475 0.94378 -0.23296
v -0.36893 1.05814 -0.16561
v -0.27898 0.98216 -0.23116
v 0.53459 0.90011 -0.07414
v 0.42029 1.02268 -0.07910
v 0.27994 0.98554 -0.23195
v 0.34636 0.99342 -0.15548
v 0.42691 0.90591 -0.22361
v 0.26798 1.10952 -0.08279
v 0.11076 1.25442 -0.09177
v -0.08067 0.57759 -0.39933
v 0.00000 0.68872 -0.37844
v 0.08424 0.60319 -0.41703
v -0.16825 0.85215 -0.28598
v -0.08363 0.75830 -0.32734
v -0.23388 0.70576 -0.30654
v 0.26646 0.80408 -0.34924
v 0.08926 0.80942 -0.34941
v 0.18239 0.92377 -0.31002
v 0.00000 1.17913 -0.17697
v 0.10046 1.05068 -0.24972
v -0.10120 1.05842 -0.25156
v -0.65183 0.85294 -0.12447
v -0.69645 0.83623 -0.04697
v -0.49286 0.77596 -0.26041
v -0.59042 0.84519 -0.20278
v -0.80172 0.60475 -0.12830
v -0.69766 0.71372 -0.16334
v -0.72853 0.58443 -0.19613
v -0.13004 0.45279 -0.43898
v -0.19962 0.50482 -0.38036
v -0.42830 0.39146 -0.35487
v -0.30831 0.43352 -0.35734
v -0.35397 0.32635 -0.39875
v -0.27554 0.56834 -0.33478
v -0.35813 0.64241 -0.29673
v -0.88209 0.12618 -0.25299
v -0.76012 0.19265 -0.28052
v -0.78504 0.07659 -0.31574
v -0.76244 0.44438 -0.23386
v -0.76208 0.31753 -0.25709
v -0.89366 0.38309 -0.20337
v -0.55165 0.20325 -0.35317
v -0.64710 0.25720 -0.30547
v -0.55002 0.32057 -0.33111
v -0.49576 0.58883 -0.27903
v -0.51455 0.44149 -0.30193
v -0.62480 0.51420 -0.25404
v -0.75335 0.71891 0.00000
v -0.86927 0.50664 -0.08288
v -0.80658 0.60469 -0.04296
v -0.76852 0.57615 0.04093
v -0.84719 0.49377 0.08078
v -0.94785 0.00000 -0.21396
v -0.94919 0.12750 -0.18838
v -0.97362 0.12370 -0.04151
v -0.97167 0.12591 -0.11333
v -1.00643 0.00000 -0.07178
v -0.94713 0.25744 -0.15947
v -0.93890 0.38377 -0.12879
v -0.95095 0.12774 0.18873
v -0.92514 0.00000 0.20883
v -0.90823 0.37123 0.12458
v -0.95502 0.25958 0.16080
v -0.94508 0.00000 0.06741
v -0.94705 0.12272 0.11046
v -0.94923 0.12061 0.04047
v -0.91370 0.37714 -0.04219
v -0.93205 0.24294 0.00000
v -0.89995 0.37147 0.04155
v 0.67531 0.88366 0.12896
v 0.71222 0.85516 0.04804
v 0.54374 0.85607 0.28729
v 0.61880 0.88582 0.21252
v 0.95426 0.71982 0.15271
v 0.79581 0.81413 0.18632
v 0.90305 0.72443 0.24312
v 0.14871 0.51783 0.50203
v 0.24488 0.61929 0.46661
v 0.50567 0.46217 0.41898
v 0.38253 0.53788 0.44336
v 0.40831 0.37645 0.45998
v 0.33956 0.70037 0.41256
v 0.44190 0.79268 0.36615
v 1.02866 0.14715 0.29503
v 0.96938 0.24568 0.35775
v 0.91535 0.08930 0.36815
v 0.94156 0.54877 0.28880
v 0.97261 0.40525 0.32811
v 0.98579 0.42258 0.22434
v 0.67453 0.24853 0.43184
v 0.85410 0.33948 0.40318
v 0.70942 0.41347 0.42706
v 0.63068 0.74908 0.35497
v 0.66019 0.56645 0.38740
v 0.82252 0.67691 0.33442
v -0.15521 0.39827 0.55800
v 0.00000 0.42655 0.52545
v -0.48074 0.28019 0.56798
v -0.32404 0.34861 0.57572
v 0.00000 0.14053 0.54787
v -0.14836 0.23192 0.55289
v -0.14295 0.08331 0.54331
v -0.81138 -0.07915 0.32633
v -0.78566 0.00000 0.39758
v -0.56364 -0.16013 0.46701
v -0.66292 -0.08179 0.42702
v -0.62645 -0.23082 0.40106
v -0.73396 0.09055 0.47278
v -0.62917 0.17875 0.52131
v 0.00000 -0.38221 0.47083
v -0.13470 -0.34565 0.48428
v -0.12937 -0.45049 0.43675
v -0.14182 -0.08266 0.53902
v -0.13773 -0.21530 0.51328
v 0.00000 -0.13639 0.53174
v -0.39621 -0.36529 0.44634
v -0.27654 -0.29750 0.49132
v -0.42434 -0.24732 0.50134
v -0.45816 0.08901 0.53602
v -0.45461 -0.08832 0.53187
v -0.28877 0.00000 0.53501
v -0.90711 -0.12185 0.18003
v -0.88003 -0.12589 0.25241
v -0.92344 -0.11733 0.03938
v -0.90288 -0.11700 0.10531
v -0.81198 -0.34808 0.18478
v -0.84829 -0.23057 0.14283
v -0.81336 -0.33245 0.11157
v -0.91129 -0.13036 -0.26137
v -0.93601 -0.12573 -0.18577
v -0.89764 -0.36690 -0.12313
v -0.94212 -0.25607 -0.15862
v -0.85482 -0.36644 -0.19453
v -0.99231 -0.12859 -0.11574
v -1.00326 -0.12747 -0.04278
v -0.68027 -0.81680 0.04588
v -0.72512 -0.69197 0.00000
v -0.68153 -0.81831 -0.04597
v -0.76539 -0.44610 0.07298
v -0.75283 -0.56439 0.04009
v -0.70929 -0.53503 0.11351
v -0.75174 -0.56705 -0.12030
v -0.77095 -0.57798 -0.04106
v -0.82054 -0.47824 -0.07823
v -0.89171 -0.23243 0.00000
v -0.86996 -0.35909 -0.04017
v -0.83669 -0.34536 0.03863
v -0.71164 0.00000 -0.36012
v -0.80646 -0.07867 -0.32435
v -0.48017 0.13642 -0.39785
v -0.57036 0.07037 -0.36740
v -0.62140 -0.22895 -0.39782
v -0.60953 -0.07520 -0.39263
v -0.52286 -0.14855 -0.43323
v 0.00000 0.41660 -0.51319
v -0.13450 0.34512 -0.48354
v -0.13991 0.08154 -0.53177
v -0.13962 0.21826 -0.52032
v 0.00000 0.14320 -0.55828
v -0.25144 0.27050 -0.44672
v -0.36492 0.21269 -0.43114
v -0.14349 -0.49966 -0.48441
v -0.15661 -0.40185 -0.56303
v 0.00000 -0.43686 -0.53815
v -0.42037 -0.24501 -0.49665
v -0.30989 -0.33338 -0.55058
v -0.40046 -0.36921 -0.45113
v 0.00000 -0.15482 -0.60356
v -0.16904 -0.26424 -0.62994
v -0.15957 -0.09300 -0.60648
v -0.38621 0.07503 -0.45185
v -0.29128 0.00000 -0.53966
v -0.42557 -0.08268 -0.49790
v 0.23092 0.58397 -0.44000
v 0.13923 0.48480 -0.47001
v 0.42242 0.75773 -0.35000
v 0.33088 0.68248 -0.40202
v 0.44553 0.41076 -0.50190
v 0.38859 0.54639 -0.45037
v 0.54637 0.49937 -0.45271
v 0.68175 0.81857 -0.04598
v 0.61799 0.80866 -0.11801
v 0.80016 0.64189 -0.21542
v 0.70313 0.71931 -0.16462
v 0.82049 0.61891 -0.13130
v 0.59465 0.85124 -0.20423
v 0.52847 0.83203 -0.27923
v 0.76676 0.07480 -0.30839
v 0.84706 0.21468 -0.31261
v 0.85410 0.12218 -0.24497
v 0.70223 0.40928 -0.42273
v 0.80085 0.31831 -0.37804
v 0.68609 0.25279 -0.43924
v 0.96030 0.41166 -0.21854
v 0.88789 0.36996 -0.29953
v 0.86286 0.50290 -0.26466
v 0.58484 0.69463 -0.32916
v 0.74799 0.61557 -0.30412
v 0.65448 0.56155 -0.38404
v 0.52586 -0.63140 0.03547
v 0.50285 -0.65800 0.09602
v 0.45309 -0.76288 0.06284
v 0.70460 -0.56523 0.18969
v 0.59690 -0.61063 0.13975
v 0.68408 -0.51602 0.10947
v 0.36334 -0.77102 0.19031
v 0.49520 -0.70888 0.17007
v 0.45238 -0.71223 0.23902
v 0.88787 -0.08662 0.35710
v 0.87831 -0.22260 0.32414
v 0.94747 -0.13554 0.27175
v 0.66942 -0.39016 0.40298
v 0.79545 -0.31617 0.37549
v 0.69944 -0.25771 0.44778
v 0.88799 -0.38066 0.20208
v 0.86238 -0.35932 0.29092
v 0.79358 -0.46253 0.24341
v 0.07331 -0.52492 0.36291
v 0.19799 -0.50069 0.37725
v 0.12657 -0.44072 0.42728
v 0.35909 -0.64413 0.29753
v 0.27743 -0.57224 0.33708
v 0.22002 -0.66393 0.28837
v 0.39930 -0.36814 0.44982
v 0.33676 -0.47352 0.39030
v 0.49473 -0.45217 0.40992
v 0.68926 -0.56725 0.28024
v 0.59657 -0.51187 0.35006
v 0.53260 -0.63258 0.29976
v 0.32969 -0.80221 0.06205
v 0.37468 -0.80158 0.00000
v 0.22157 -0.78003 0.18358
v 0.28056 -0.80469 0.12594
v 0.13248 -0.89700 0.00000
v 0.20514 -0.84933 0.06337
v 0.07828 -0.88651 0.06486
v -0.07576 -0.54241 0.37500
v 0.00000 -0.59180 0.32518
v -0.14015 -0.70986 0.23823
v -0.07039 -0.63826 0.27552
v -0.21217 -0.64026 0.27809
v 0.07343 -0.66582 0.28742
v 0.14202 -0.71930 0.24139
v -0.48184 -1.03083 0.00000
v -0.40076 -0.97516 0.07542
v -0.55429 -0.93328 0.07687
v -0.08450 -0.95704 0.07002
v -0.24274 -1.00502 0.07499
v -0.15316 -1.03697 0.00000
v -0.37656 -0.79907 0.19724
v -0.31233 -0.89580 0.14020
v -0.22582 -0.79499 0.18710
v 0.07385 -0.77240 0.18358
v -0.07536 -0.78818 0.18733
v 0.00000 -0.84360 0.12661
v 0.33395 -0.81259 -0.06285
v 0.44255 -0.74513 -0.06138
v 0.08498 -0.96239 -0.07041
v 0.21087 -0.87308 -0.06514
v 0.38082 -0.80811 -0.19947
v 0.28527 -0.81819 -0.12805
v 0.23771 -0.83685 -0.19696
v -0.58515 -0.98523 -0.08115
v -0.42977 -1.04575 -0.08088
v -0.26895 -0.94682 -0.22284
v -0.35528 -1.01901 -0.15948
v -0.41584 -0.88244 -0.21781
v -0.25550 -1.05783 -0.07893
v -0.09251 -1.04767 -0.07665
v 0.08699 -0.62282 -0.43059
v 0.00000 -0.68868 -0.37841
v -0.08653 -0.61957 -0.42835
v 0.16310 -0.82608 -0.27723
v 0.08466 -0.76769 -0.33139
v 0.25697 -0.77544 -0.33680
v -0.24123 -0.72796 -0.31618
v -0.08575 -0.77754 -0.33565
v -0.16254 -0.82326 -0.27628
v 0.00000 -0.98620 -0.14801
v -0.08882 -0.92889 -0.22077
v 0.08857 -0.92627 -0.22015
v 0.52767 -0.69048 -0.10076
v 0.53519 -0.64260 -0.03610
v 0.46920 -0.73871 -0.24791
v 0.51236 -0.73345 -0.17597
v 0.71946 -0.54270 -0.11513
v 0.61228 -0.62637 -0.14335
v 0.68217 -0.54724 -0.18365
v 0.14013 -0.48794 -0.47306
v 0.22313 -0.56427 -0.42515
v 0.44485 -0.40658 -0.36859
v 0.34231 -0.48132 -0.39673
v 0.38093 -0.35121 -0.42913
v 0.30443 -0.62792 -0.36988
v 0.38745 -0.69499 -0.32102
v 0.78468 -0.11225 -0.22506
v 0.72674 -0.18419 -0.26820
v 0.72468 -0.07070 -0.29146
v 0.68136 -0.39712 -0.20899
v 0.70812 -0.29505 -0.23888
v 0.74193 -0.31805 -0.16884
v 0.58806 -0.21667 -0.37648
v 0.66825 -0.26561 -0.31545
v 0.57521 -0.33525 -0.34627
v 0.51227 -0.60844 -0.28832
v 0.53319 -0.45748 -0.31287
v 0.63839 -0.52538 -0.25956
v 0.61440 -0.58631 0.00000
v 0.77431 -0.45130 -0.07383
v 0.72606 -0.54432 -0.03867
v 0.68163 -0.51101 0.03630
v 0.78179 -0.45566 0.07454
v 0.84647 0.00000 -0.19107
v 0.87156 -0.11707 -0.17297
v 0.93832 -0.11922 -0.04001
v 0.91652 -0.11877 -0.10690
v 0.97764 0.00000 -0.06973
v 0.80101 -0.21772 -0.13487
v 0.77229 -0.31567 -0.10594
v 1.00550 -0.13506 0.19956
v 1.03764 0.00000 0.23422
v 0.87843 -0.35905 0.12050
v 0.95879 -0.26061 0.16143
v 0.99717 0.00000 0.07112
v 0.99919 -0.12948 0.11654
v 0.94685 -0.12030 0.04037
v 0.80968 -0.33421 -0.03739
v 0.86004 -0.22417 0.00000
v 0.83078 -0.34292 0.03836
v 0.13044 -0.33470 0.46894
v 0.40243 -0.23455 0.47546
v 0.27379 -0.29454 0.48643
v 0.13687 -0.21395 0.51007
v 0.13926 -0.08117 0.52931
v 0.79806 0.00000 0.40386
v 0.55830 0.15862 0.46259
v 0.68880 0.08498 0.44369
v 0.70086 -0.08647 0.45146
v 0.57028 -0.16202 0.47252
v 0.14518 0.37252 0.52193
v 0.13365 0.07789 0.50796
v 0.13508 0.21116 0.50339
v 0.27387 0.29463 0.48658
v 0.39530 0.23040 0.46704
v 0.41524 -0.08067 0.48581
v 0.39566 0.07687 0.46291
v 0.26438 0.00000 0.48982
v -0.60884 -0.79669 0.11626
v -0.44807 -0.70545 0.23675
v -0.52075 -0.74545 0.17885
v -0.63795 -0.65263 0.14936
v -0.67351 -0.54029 0.18132
v -0.19572 -0.49495 0.37293
v -0.45241 -0.41349 0.37485
v -0.32324 -0.45451 0.37464
v -0.26319 -0.54286 0.31977
v -0.33865 -0.60747 0.28060
v -0.77943 -0.19754 0.28765
v -0.71487 -0.41665 0.21927
v -0.76440 -0.31850 0.25787
v -0.68971 -0.27414 0.32558
v -0.59027 -0.34403 0.35533
v -0.49597 -0.58908 0.27915
v -0.54853 -0.47065 0.32188
v -0.62112 -0.51117 0.25254
v -0.23342 -0.59031 -0.44477
v -0.38104 -0.68350 -0.31571
v -0.32279 -0.66578 -0.39218
v -0.37358 -0.52528 -0.43297
v -0.49304 -0.45062 -0.40851
v -0.62618 -0.81938 -0.11957
v -0.69403 -0.55676 -0.18685
v -0.66747 -0.68283 -0.15627
v -0.56030 -0.80207 -0.19243
v -0.46858 -0.73774 -0.24758
v -0.84217 -0.21344 -0.31080
v -0.59942 -0.34936 -0.36084
v -0.71424 -0.28389 -0.33716
v -0.79825 -0.33260 -0.26929
v -0.76069 -0.44336 -0.23333
v -0.49841 -0.59198 -0.28052
v -0.63037 -0.51878 -0.25630
v -0.56229 -0.48245 -0.32995
v 0.68235 0.00000 -0.34531
v 0.51831 -0.14725 -0.42945
v 0.59941 -0.07395 -0.38611
v 0.63573 0.07843 -0.40951
v 0.57529 0.16344 -0.47667
v 0.15107 -0.38764 -0.54311
v 0.14618 -0.08520 -0.55560
v 0.15540 -0.24292 -0.57912
v 0.28993 -0.31191 -0.51512
v 0.41367 -0.24110 -0.48873
v 0.14525 0.37271 -0.52219
v 0.43807 0.25532 -0.51756
v 0.29320 0.31542 -0.52092
v 0.14803 0.23140 -0.55166
v 0.14403 0.08395 -0.54743
v 0.42389 -0.08235 -0.49594
v 0.29260 0.00000 -0.54210
v 0.43618 0.08474 -0.51031
v 1.06023 0.14242 0.21042
v 0.98601 0.12528 0.04204
v 1.02665 0.13304 0.11975
v 1.01081 0.27474 0.17019
v 1.02137 0.41748 0.14010
v 0.90846 0.12203 -0.18030
v 0.98169 0.40126 -0.13466
v 0.95524 0.25964 -0.16083
v 0.92521 0.11989 -0.10791
v 0.94122 0.11959 -0.04013
v 0.78728 0.75129 0.00000
v 1.03267 0.60188 0.09846
v 0.95986 0.71960 0.05112
v 0.86190 0.64616 -0.04590
v 0.93365 0.54416 -0.08902
v 0.98714 0.25730 0.00000
v 0.99405 0.41031 -0.04590
v 1.05141 0.43399 0.04855
vt 2.52699 1.00000
vt 1.97301 1.00000
vt 0.47301 1.00000
vt 1.02699 1.00000
vt 0.75000 0.54108
vt 2.25000 0.54108
vt 0.75000 1.45892
vt 2.25000 1.45892
vt 1.50000 1.19513
vt 1.50000 0.80487
vt 3.00000 1.19513
vt 3.00000 0.80487
vt 2.74804 0.89342
vt 2.74804 0.60448
vt 2.43375 0.80802
vt 2.06625 0.80802
vt 2.25000 1.00000
vt 2.06625 1.19198
vt 2.43375 1.19198
vt 2.74804 1.39552
vt 2.74804 1.10658
vt 3.00000 1.00000
vt 1.75196 0.60448
vt 1.75196 0.89342
vt 0.25196 0.60448
vt 1.50000 0.00000
vt 0.25196 1.10658
vt 0.25196 0.89342
vt 1.50000 2.00000
vt 0.25196 1.39552
vt 1.75196 1.10658
vt 1.75196 1.39552
vt 1.24804 0.89342
vt 1.24804 0.60448
vt 0.93375 0.80802
vt 0.56625 0.80802
vt 0.75000 1.00000
vt 0.56625 1.19198
vt 0.93375 1.19198
vt 1.24804 1.39552
vt 1.24804 1.10658
vt 1.50000 1.00000
vt 2.63617 0.94553
vt 2.60139 0.84480
vt 2.48394 0.90874
vt 2.89854 0.70755
vt 2.74804 0.77000
vt 2.86783 0.84539
vt 2.36494 0.68794
vt 2.56249 0.70260
vt 2.52018 0.52951
vt 2.33556 0.90666
vt 2.38970 1.00000
vt 2.13506 0.68794
vt 2.25000 0.79387
vt 2.11030 1.00000
vt 2.16444 0.90666
vt 2.01606 0.90874
vt 2.33556 1.09334
vt 2.48394 1.09126
vt 2.01606 1.09126
vt 2.16444 1.09334
vt 2.36494 1.31206
vt 2.25000 1.20613
vt 2.13506 1.31206
vt 2.60139 1.15520
vt 2.63617 1.05447
vt 2.52018 1.47049
vt 2.56249 1.29740
vt 2.86783 1.15461
vt 2.74804 1.23000
vt 2.89854 1.29245
vt 2.74804 1.00000
vt 3.00000 1.09196
vt 2.87826 1.05376
vt 2.87826 0.94624
vt 3.00000 0.90804
vt 1.89861 0.84480
vt 1.86383 0.94553
vt 1.97982 0.52951
vt 1.93751 0.70260
vt 1.63217 0.84539
vt 1.75196 0.77000
vt 1.60146 0.70755
vt 2.74804 0.35549
vt 2.25000 0.30685
vt 0.10146 0.70755
vt 3.00000 0.55951
vt 0.75000 0.30685
vt 0.25196 0.35549
vt 0.47982 0.52951
vt 0.12174 0.94624
vt 0.13217 0.84539
vt 0.13217 1.15461
vt 0.12174 1.05376
vt 0.36383 0.94553
vt 0.25196 1.00000
vt 0.36383 1.05447
vt 3.00000 1.44049
vt 0.10146 1.29245
vt 2.25000 1.69315
vt 2.74804 1.64451
vt 0.47982 1.47049
vt 0.25196 1.64451
vt 0.75000 1.69315
vt 1.93751 1.29740
vt 1.97982 1.47049
vt 1.86383 1.05447
vt 1.89861 1.15520
vt 1.60146 1.29245
vt 1.75196 1.23000
vt 1.63217 1.15461
vt 1.13617 0.94553
vt 1.10139 0.84480
vt 0.98394 0.90874
vt 1.39854 0.70755
vt 1.24804 0.77000
vt 1.36783 0.84539
vt 0.86494 0.68794
vt 1.06249 0.70260
vt 1.02018 0.52951
vt 0.83556 0.90666
vt 0.88970 1.00000
vt 0.63506 0.68794
vt 0.75000 0.79387
vt 0.61030 1.00000
vt 0.66444 0.90666
vt 0.51606 0.90874
vt 0.83556 1.09334
vt 0.98394 1.09126
vt 0.51606 1.09126
vt 0.66444 1.09334
vt 0.86494 1.31206
vt 0.75000 1.20613
vt 0.63506 1.31206
vt 1.10139 1.15520
vt 1.13617 1.05447
vt 1.02018 1.47049
vt 1.06249 1.29740
vt 1.36783 1.15461
vt 1.24804 1.23000
vt 1.39854 1.29245
vt 1.24804 1.00000
vt 1.50000 1.09196
vt 1.37826 1.05376
vt 1.37826 0.94624
vt 1.50000 0.90804
vt 1.24804 0.35549
vt 1.50000 0.55951
vt 1.75196 0.35549
vt 0.39861 0.84480
vt 0.43751 0.70260
vt 0.25196 0.77000
vt 0.43751 1.29740
vt 0.39861 1.15520
vt 0.25196 1.23000
vt 1.50000 1.44049
vt 1.24804 1.64451
vt 1.75196 1.64451
vt 1.62174 0.94624
vt 1.62174 1.05376
vt 1.75196 1.00000
vt 2.58158 0.97254
vt 2.56156 0.92651
vt 2.50589 0.95499
vt 2.67719 0.86823
vt 2.61957 0.89673
vt 2.69143 0.91910
vt 2.46027 0.86015
vt 2.54114 0.87637
vt 2.52018 0.82426
vt 2.95357 0.75760
vt 2.88149 0.78129
vt 2.93216 0.82388
vt 2.74804 0.69468
vt 2.81936 0.73683
vt 2.83145 0.65562
vt 2.80664 0.86874
vt 2.81150 0.80782
vt 2.74804 0.83509
vt 2.31626 0.61778
vt 2.42979 0.61091
vt 2.38353 0.52246
vt 2.49282 0.75587
vt 2.46554 0.68972
vt 2.40279 0.75105
vt 2.64438 0.55964
vt 2.54517 0.62345
vt 2.64645 0.65056
vt 2.67122 0.80634
vt 2.66142 0.73328
vt 2.58413 0.77861
vt 2.43618 0.95453
vt 2.45877 1.00000
vt 2.38214 0.85826
vt 2.41018 0.90659
vt 2.32001 1.00000
vt 2.36315 0.95391
vt 2.29205 0.95369
vt 2.18374 0.61778
vt 2.25000 0.68014
vt 2.15693 0.79751
vt 2.19756 0.74197
vt 2.09721 0.75105
vt 2.30244 0.74197
vt 2.34307 0.79751
vt 2.04123 1.00000
vt 2.06382 0.95453
vt 1.99411 0.95499
vt 2.20795 0.95369
vt 2.13685 0.95391
vt 2.17999 1.00000
vt 2.03973 0.86015
vt 2.08982 0.90659
vt 2.11786 0.85826
vt 2.29551 0.85210
vt 2.20449 0.85210
vt 2.25000 0.90516
vt 2.43618 1.04547
vt 2.50589 1.04501
vt 2.29205 1.04631
vt 2.36315 1.04609
vt 2.46027 1.13985
vt 2.41018 1.09341
vt 2.38214 1.14174
vt 1.99411 1.04501
vt 2.06382 1.04547
vt 2.11786 1.14174
vt 2.08982 1.09341
vt 2.03973 1.13985
vt 2.13685 1.04609
vt 2.20795 1.04631
vt 2.31626 1.38222
vt 2.25000 1.31986
vt 2.18374 1.38222
vt 2.34307 1.20249
vt 2.30244 1.25803
vt 2.40279 1.24895
vt 2.09721 1.24895
vt 2.19756 1.25803
vt 2.15693 1.20249
vt 2.25000 1.09484
vt 2.20449 1.14790
vt 2.29551 1.14790
vt 2.56156 1.07349
vt 2.58158 1.02746
vt 2.52018 1.17574
vt 2.54114 1.12363
vt 2.69143 1.08090
vt 2.61957 1.10327
vt 2.67719 1.13177
vt 2.38353 1.47754
vt 2.42979 1.38909
vt 2.64645 1.34944
vt 2.54517 1.37655
vt 2.64438 1.44036
vt 2.46554 1.31028
vt 2.49282 1.24413
vt 2.93216 1.17612
vt 2.88149 1.21871
vt 2.95357 1.24240
vt 2.74804 1.16491
vt 2.81150 1.19218
vt 2.80664 1.13126
vt 2.83145 1.34438
vt 2.81936 1.26317
vt 2.74804 1.30532
vt 2.58413 1.22139
vt 2.66142 1.26672
vt 2.67122 1.19366
vt 2.63617 1.00000
vt 2.74804 1.05232
vt 2.69284 1.02711
vt 2.69284 0.97289
vt 2.74804 0.94768
vt 3.00000 1.14133
vt 2.93625 1.12364
vt 2.93966 1.02691
vt 2.93847 1.07331
vt 3.00000 1.04533
vt 2.87328 1.10254
vt 2.81473 1.08040
vt 2.93625 0.87636
vt 3.00000 0.85867
vt 2.81473 0.91960
vt 2.87328 0.89746
vt 3.00000 0.95467
vt 2.93847 0.92669
vt 2.93966 0.97309
vt 2.81309 1.02716
vt 2.87826 1.00000
vt 2.81309 0.97284
vt 1.93844 0.92651
vt 1.91842 0.97254
vt 1.97982 0.82426
vt 1.95886 0.87637
vt 1.80857 0.91910
vt 1.88043 0.89673
vt 1.82281 0.86823
vt 2.11647 0.52246
vt 2.07021 0.61091
vt 1.85355 0.65056
vt 1.95483 0.62345
vt 1.85562 0.55964
vt 2.03446 0.68972
vt 2.00718 0.75587
vt 1.56784 0.82388
vt 1.61851 0.78129
vt 1.54643 0.75760
vt 1.75196 0.83509
vt 1.68850 0.80782
vt 1.69336 0.86874
vt 1.66855 0.65562
vt 1.68064 0.73683
vt 1.75196 0.69468
vt 1.91587 0.77861
vt 1.83858 0.73328
vt 1.82878 0.80634
vt 2.42743 0.41614
vt 2.25000 0.43410
vt 2.74804 0.49346
vt 2.60757 0.43979
vt 2.25000 0.15985
vt 2.52173 0.29412
vt 2.74804 0.18819
vt 0.04643 0.75760
vt 3.00000 0.70176
vt 0.13217 0.57160
vt 0.05861 0.63788
vt 0.16855 0.65562
vt 2.94139 0.63788
vt 2.86783 0.57160
vt 0.75000 0.43410
vt 0.57257 0.41614
vt 0.61647 0.52246
vt 0.25196 0.18819
vt 0.47827 0.29412
vt 0.75000 0.15985
vt 0.35562 0.55964
vt 0.39243 0.43979
vt 0.25196 0.49346
vt 2.90838 0.45607
vt 0.09162 0.45607
vt 3.00000 0.31509
vt 0.06375 0.87636
vt 0.06784 0.82388
vt 0.06034 0.97309
vt 0.06153 0.92669
vt 0.19336 0.86874
vt 0.12672 0.89746
vt 0.18527 0.91960
vt 0.06784 1.17612
vt 0.06375 1.12364
vt 0.18527 1.08040
vt 0.12672 1.10254
vt 0.19336 1.13126
vt 0.06153 1.07331
vt 0.06034 1.02691
vt 0.41842 0.97254
vt 0.36383 1.00000
vt 0.41842 1.02746
vt 0.25196 0.94768
vt 0.30716 0.97289
vt 0.30857 0.91910
vt 0.30857 1.08090
vt 0.30716 1.02711
vt 0.25196 1.05232
vt 0.12174 1.00000
vt 0.18691 1.02716
vt 0.18691 0.97284
vt 3.00000 1.29824
vt 0.04643 1.24240
vt 2.86783 1.42840
vt 2.94139 1.36212
vt 0.16855 1.34438
vt 0.05861 1.36212
vt 0.13217 1.42840
vt 2.25000 1.56590
vt 2.42743 1.58386
vt 2.74804 1.81181
vt 2.52173 1.70588
vt 2.25000 1.84015
vt 2.60757 1.56021
vt 2.74804 1.50654
vt 0.61647 1.47754
vt 0.57257 1.58386
vt 0.75000 1.56590
vt 0.25196 1.50654
vt 0.39243 1.56021
vt 0.35562 1.44036
vt 0.75000 1.84015
vt 0.47827 1.70588
vt 0.25196 1.81181
vt 2.90838 1.54393
vt 3.00000 1.68491
vt 0.09162 1.54393
vt 2.07021 1.38909
vt 2.11647 1.47754
vt 2.00718 1.24413
vt 2.03446 1.31028
vt 1.85562 1.44036
vt 1.95483 1.37655
vt 1.85355 1.34944
vt 1.91842 1.02746
vt 1.93844 1.07349
vt 1.82281 1.13177
vt 1.88043 1.10327
vt 1.80857 1.08090
vt 1.95886 1.12363
vt 1.97982 1.17574
vt 1.54643 1.24240
vt 1.61851 1.21871
vt 1.56784 1.17612
vt 1.75196 1.30532
vt 1.68064 1.26317
vt 1.66855 1.34438
vt 1.69336 1.13126
vt 1.68850 1.19218
vt 1.75196 1.16491
vt 1.91587 1.22139
vt 1.82878 1.19366
vt 1.83858 1.26672
vt 1.08158 0.97254
vt 1.06156 0.92651
vt 1.00589 0.95499
vt 1.17719 0.86823
vt 1.11957 0.89673
vt 1.19143 0.91910
vt 0.96027 0.86015
vt 1.04114 0.87637
vt 1.02018 0.82426
vt 1.45357 0.75760
vt 1.38149 0.78129
vt 1.43216 0.82388
vt 1.24804 0.69468
vt 1.31936 0.73683
vt 1.33145 0.65562
vt 1.30664 0.86874
vt 1.31150 0.80782
vt 1.24804 0.83509
vt 0.81626 0.61778
vt 0.92979 0.61091
vt 0.88353 0.52246
vt 0.99282 0.75587
vt 0.96554 0.68972
vt 0.90279 0.75105
vt 1.14438 0.55964
vt 1.04517 0.62345
vt 1.14645 0.65056
vt 1.17122 0.80634
vt 1.16142 0.73328
vt 1.08413 0.77861
vt 0.93618 0.95453
vt 0.95877 1.00000
vt 0.88214 0.85826
vt 0.91018 0.90659
vt 0.82001 1.00000
vt 0.86315 0.95391
vt 0.79205 0.95369
vt 0.68374 0.61778
vt 0.75000 0.68014
vt 0.65693 0.79751
vt 0.69756 0.74197
vt 0.59721 0.75105
vt 0.80244 0.74197
vt 0.84307 0.79751
vt 0.54123 1.00000
vt 0.56382 0.95453
vt 0.49411 0.95499
vt 0.70795 0.95369
vt 0.63685 0.95391
vt 0.67999 1.00000
vt 0.53973 0.86015
vt 0.58982 0.90659
vt 0.61786 0.85826
vt 0.79551 0.85210
vt 0.70449 0.85210
vt 0.75000 0.90516
vt 0.93618 1.04547
vt 1.00589 1.04501
vt 0.79205 1.04631
vt 0.86315 1.04609
vt 0.96027 1.13985
vt 0.91018 1.09341
vt 0.88214 1.14174
vt 0.49411 1.04501
vt 0.56382 1.04547
vt 0.61786 1.14174
vt 0.58982 1.09341
vt 0.53973 1.13985
vt 0.63685 1.04609
vt 0.70795 1.04631
vt 0.81626 1.38222
vt 0.75000 1.31986
vt 0.68374 1.38222
vt 0.84307 1.20249
vt 0.80244 1.25803
vt 0.90279 1.24895
vt 0.59721 1.24895
vt 0.69756 1.25803
vt 0.65693 1.20249
vt 0.75000 1.09484
vt 0.70449 1.14790
vt 0.79551 1.14790
vt 1.06156 1.07349
vt 1.08158 1.02746
vt 1.02018 1.17574
vt 1.04114 1.12363
vt 1.19143 1.08090
vt 1.11957 1.10327
vt 1.17719 1.13177
vt 0.88353 1.47754
vt 0.92979 1.38909
vt 1.14645 1.34944
vt 1.04517 1.37655
vt 1.14438 1.44036
vt 0.96554 1.31028
vt 0.99282 1.24413
vt 1.43216 1.17612
vt 1.38149 1.21871
vt 1.45357 1.24240
vt 1.24804 1.16491
vt 1.31150 1.19218
vt 1.30664 1.13126
vt 1.33145 1.34438
vt 1.31936 1.26317
vt 1.24804 1.30532
vt 1.08413 1.22139
vt 1.16142 1.26672
vt 1.17122 1.19366
vt 1.13617 1.00000
vt 1.24804 1.05232
vt 1.19284 1.02711
vt 1.19284 0.97289
vt 1.24804 0.94768
vt 1.50000 1.14133
vt 1.43625 1.12364
vt 1.43966 1.02691
vt 1.43847 1.07331
vt 1.50000 1.04533
vt 1.37328 1.10254
vt 1.31473 1.08040
vt 1.43625 0.87636
vt 1.50000 0.85867
vt 1.31473 0.91960
vt 1.37328 0.89746
vt 1.50000 0.95467
vt 1.43847 0.92669
vt 1.43966 0.97309
vt 1.31309 1.02716
vt 1.37826 1.00000
vt 1.31309 0.97284
vt 0.92743 0.41614
vt 1.24804 0.49346
vt 1.10757 0.43979
vt 1.02173 0.29412
vt 1.24804 0.18819
vt 1.50000 0.70176
vt 1.63217 0.57160
vt 1.55861 0.63788
vt 1.44139 0.63788
vt 1.36783 0.57160
vt 2.07257 0.41614
vt 1.75196 0.18819
vt 1.97827 0.29412
vt 1.89243 0.43979
vt 1.75196 0.49346
vt 1.40838 0.45607
vt 1.59162 0.45607
vt 1.50000 0.31509
vt 0.43844 0.92651
vt 0.47982 0.82426
vt 0.45886 0.87637
vt 0.38043 0.89673
vt 0.32281 0.86823
vt 0.57021 0.61091
vt 0.35355 0.65056
vt 0.45483 0.62345
vt 0.53446 0.68972
vt 0.50718 0.75587
vt 0.11851 0.78129
vt 0.25196 0.83509
vt 0.18850 0.80782
vt 0.18064 0.73683
vt 0.25196 0.69468
vt 0.41587 0.77861
vt 0.33858 0.73328
vt 0.32878 0.80634
vt 0.57021 1.38909
vt 0.50718 1.24413
vt 0.53446 1.31028
vt 0.45483 1.37655
vt 0.35355 1.34944
vt 0.43844 1.07349
vt 0.32281 1.13177
vt 0.38043 1.10327
vt 0.45886 1.12363
vt 0.47982 1.17574
vt 0.11851 1.21871
vt 0.25196 1.30532
vt 0.18064 1.26317
vt 0.18850 1.19218
vt 0.25196 1.16491
vt 0.41587 1.22139
vt 0.32878 1.19366
vt 0.33858 1.26672
vt 1.50000 1.29824
vt 1.36783 1.42840
vt 1.44139 1.36212
vt 1.55861 1.36212
vt 1.63217 1.42840
vt 0.92743 1.58386
vt 1.24804 1.81181
vt 1.02173 1.70588
vt 1.10757 1.56021
vt 1.24804 1.50654
vt 2.07257 1.58386
vt 1.75196 1.50654
vt 1.89243 1.56021
vt 1.97827 1.70588
vt 1.75196 1.81181
vt 1.40838 1.54393
vt 1.50000 1.68491
vt 1.59162 1.54393
vt 1.56375 0.87636
vt 1.56034 0.97309
vt 1.56153 0.92669
vt 1.62672 0.89746
vt 1.68527 0.91960
vt 1.56375 1.12364
vt 1.68527 1.08040
vt 1.62672 1.10254
vt 1.56153 1.07331
vt 1.56034 1.02691
vt 1.86383 1.00000
vt 1.75196 0.94768
vt 1.80716 0.97289
vt 1.80716 1.02711
vt 1.75196 1.05232
vt 1.62174 1.00000
vt 1.68691 1.02716
vt 1.68691 0.97284
vn -0.70617 0.70386 0.07687
vn 0.55290 0.71318 -0.43091
vn -0.71939 -0.64169 0.26592
vn 0.75035 -0.65788 -0.06459
vn 0.07294 -0.56302 0.82322
vn 0.16971 0.19193 0.96662
vn 0.03469 -0.46757 -0.88328
vn -0.15734 0.46735 -0.86996
vn 0.68759 -0.26625 -0.67552
vn 0.66661 -0.22186 0.71163
vn -0.55728 0.09929 -0.82437
vn -0.77782 -0.25733 0.57338
vn -0.78410 0.59860 0.16390
vn -0.41891 0.13921 0.89729
vn -0.42948 0.81043 0.39843
vn 0.03906 0.86606 0.49842
vn 0.09030 0.91975 0.38198
vn 0.23276 0.57032 -0.78775
vn -0.11560 0.20852 -0.97116
vn -0.35428 0.22760 -0.90702
vn -0.63142 0.46326 -0.62185
vn -0.88868 0.00574 0.45850
vn 0.10442 0.11372 0.98801
vn 0.86953 0.19401 0.45418
vn -0.42148 -0.46349 0.77945
vn 0.08040 -0.01690 0.99662
vn -0.69859 -0.56143 -0.44358
vn -0.81076 -0.49966 0.30496
vn 0.05593 0.18427 -0.98128
vn -0.43369 -0.18851 -0.88112
vn 0.76713 0.55483 -0.32199
vn 0.29730 0.08817 -0.95071
vn 0.66586 -0.72085 -0.19237
vn 0.10604 -0.24663 0.96329
vn 0.02189 -0.65666 0.75387
vn -0.00815 -0.44721 0.89439
vn 0.38081 -0.79707 0.46868
vn -0.18304 -0.38416 -0.90494
vn 0.30150 -0.80647 -0.50862
vn 0.47004 -0.35013 -0.81023
vn 0.81290 -0.17088 -0.55678
vn 0.97484 -0.08296 -0.20689
vn -0.76835 0.33590 0.54480
vn -0.59402 0.80355 0.03802
vn -0.34403 0.44210 0.82837
vn -0.62620 -0.03907 0.77868
vn -0.77505 0.40302 0.48669
vn -0.93421 0.22065 0.28030
vn -0.00109 0.76017 0.64972
vn -0.44704 0.64199 0.62290
vn -0.00702 0.13527 0.99078
vn -0.14074 0.53626 0.83224
vn -0.56815 0.74348 0.35277
vn 0.10192 0.47896 0.87190
vn 0.08344 0.76699 0.63621
vn 0.52066 0.84438 0.12622
vn 0.22068 0.53567 0.81508
vn 0.18063 0.81121 0.55616
vn -0.21327 0.54988 -0.80756
vn -0.54903 0.64302 -0.53394
vn 0.53770 0.77685 -0.32768
vn 0.39786 0.62482 -0.67180
vn -0.28160 0.31905 -0.90494
vn -0.10646 0.30572 -0.94615
vn -0.05011 0.35093 -0.93506
vn -0.39803 0.18375 -0.89878
vn -0.84391 0.45761 -0.28000
vn -0.38956 0.35568 -0.84955
vn -0.22917 0.24839 -0.94116
vn -0.49106 0.15332 -0.85753
vn -0.28700 0.21937 -0.93247
vn -0.27217 0.25189 -0.92869
vn -0.85386 0.47180 0.21983
vn -0.90951 0.01893 -0.41525
vn -0.97600 0.17917 0.12382
vn -0.97653 0.17968 -0.11878
vn -0.98146 -0.17833 0.07022
vn 0.34052 0.70625 0.62069
vn 0.48698 0.85094 -0.19684
vn 0.22958 0.09522 0.96862
vn 0.16490 0.19573 0.96670
vn 0.95158 0.20354 0.23035
vn 0.33872 0.25001 0.90706
vn 0.27511 -0.02061 0.96119
vn 0.00126 -0.11817 0.99299
vn 0.14896 0.02308 0.98857
vn -0.56359 -0.36557 0.74076
vn -0.32104 -0.20206 0.92526
vn 0.03612 -0.25026 0.96751
vn -0.01928 -0.15944 0.98702
vn -0.14865 -0.55384 0.81925
vn -0.89104 -0.35053 0.28840
vn -0.79875 -0.38771 0.46009
vn -0.76161 -0.31806 -0.56461
vn -0.86790 -0.42065 0.26420
vn -0.77380 -0.24972 0.58213
vn -0.85722 -0.35741 0.37072
vn -0.85047 -0.36759 -0.37626
vn -0.44657 0.22503 -0.86599
vn -0.35032 -0.04123 -0.93572
vn -0.13060 0.18777 -0.97349
vn -0.32872 0.28204 -0.90133
vn -0.30244 -0.42382 -0.85376
vn -0.41975 0.05976 -0.90567
vn 0.12728 -0.26224 -0.95657
vn 0.21031 0.44403 -0.87098
vn 0.00912 0.31885 -0.94776
vn 0.60017 0.64888 -0.46771
vn 0.56934 0.62104 -0.53866
vn 0.56075 -0.29627 -0.77317
vn 0.55277 0.30716 -0.77466
vn 0.80468 -0.22223 -0.55054
vn 0.61833 -0.78140 -0.08416
vn 0.52037 -0.84460 0.12594
vn 0.48959 -0.86150 0.13463
vn 0.51558 -0.09141 0.85195
vn 0.49419 -0.51967 0.69694
vn 0.81956 -0.32831 0.46962
vn -0.00344 -0.47529 0.87982
vn 0.03769 -0.49483 0.86817
vn 0.03751 -0.46541 0.88430
vn 0.10522 -0.78916 0.60511
vn 0.37419 -0.91631 0.14270
vn -0.12440 -0.61952 0.77506
vn -0.03055 -0.59914 0.80006
vn -0.05054 -0.92759 0.37017
vn 0.11978 -0.51998 0.84574
vn -0.21850 -0.48496 0.84680
vn 0.52170 -0.83818 -0.15902
vn 0.45172 -0.87637 0.16712
vn -0.41333 -0.50025 -0.76086
vn 0.08492 -0.77663 -0.62421
vn 0.10414 -0.45460 -0.88458
vn 0.00549 -0.58843 -0.80853
vn -0.05946 -0.59738 -0.79975
vn 0.64758 -0.57541 -0.49955
vn 0.53429 -0.82012 0.20479
vn 0.40074 -0.41880 -0.81487
vn 0.39362 -0.22653 -0.89092
vn 0.72731 -0.36952 -0.57834
vn 0.62995 -0.27624 -0.72584
vn 0.61213 -0.11729 -0.78201
vn 0.85092 -0.52486 0.02123
vn 0.75955 -0.07758 -0.64581
vn 0.77480 -0.51305 -0.36941
vn 0.74450 -0.39210 -0.54035
vn 0.96290 -0.13790 -0.23196
vn 0.13931 -0.03908 0.98948
vn 0.09258 0.05827 0.99400
vn 0.15461 0.00463 0.98796
vn -0.49686 -0.44060 0.74766
vn -0.11319 -0.47850 0.87076
vn -0.53185 -0.40585 0.74325
vn -0.55097 -0.51526 -0.65646
vn -0.45750 -0.29809 -0.83776
vn -0.43823 -0.40666 -0.80161
vn 0.47781 -0.20082 -0.85520
vn 0.26794 -0.03861 -0.96266
vn 0.12014 0.03142 -0.99226
vn 0.98940 -0.10153 -0.10384
vn 0.96397 -0.19111 -0.18502
vn 0.74483 0.32133 -0.58479
vn -0.75928 0.45172 0.46846
vn -0.49100 0.39766 0.77511
vn -0.45285 0.54923 0.70233
vn -0.73028 0.68154 0.04689
vn -0.66592 0.55677 0.49654
vn -0.75446 0.60604 0.25200
vn -0.44907 0.58802 0.67273
vn -0.44059 0.62970 0.63981
vn -0.40908 0.89956 0.15309
vn -0.74682 -0.23893 0.62062
vn -0.87083 0.11812 0.47717
vn -0.92468 -0.05896 0.37615
vn -0.55441 0.22519 0.80120
vn -0.65093 0.29113 0.70109
vn -0.45324 0.12753 0.88222
vn -0.88091 0.41106 0.23458
vn -0.84918 0.38294 0.36367
vn -0.80462 0.54782 0.22906
vn 0.15617 0.42625 0.89102
vn 0.00627 0.40461 0.91447
vn 0.12301 0.15829 0.97970
vn -0.32018 0.92945 0.18333
vn -0.19285 0.79041 0.58143
vn -0.23115 0.89268 0.38691
vn -0.26292 0.11520 0.95792
vn -0.24690 0.33162 0.91053
vn -0.45986 0.20897 0.86305
vn -0.77522 0.61671 0.13673
vn -0.66797 0.41926 0.61485
vn -0.51640 0.84636 0.13039
vn -0.41695 0.58713 0.69385
vn -0.57403 0.79429 0.19898
vn -0.32521 0.62786 0.70712
vn -0.34351 0.48053 0.80690
vn -0.32786 0.86532 0.37911
vn -0.32136 0.57620 0.75148
vn -0.06238 0.55310 0.83078
vn 0.18223 0.40117 0.89769
vn 0.16194 0.60973 0.77589
vn 0.10758 0.84754 0.51971
vn 0.08923 0.68599 0.72212
vn 0.05298 0.63608 0.76980
vn -0.00897 0.75916 0.65085
vn -0.20160 0.74322 0.63795
vn 0.56427 0.80184 -0.19662
vn 0.26410 0.77230 0.57776
vn 0.48830 0.85658 0.16683
vn 0.20439 0.51561 0.83209
vn 0.27093 0.55902 0.78364
vn 0.50062 0.80449 0.31964
vn 0.04012 0.86973 0.49190
vn 0.06036 0.66875 0.74103
vn 0.08817 0.83984 0.53562
vn -0.04390 0.70054 0.71227
vn 0.21985 0.72570 0.65194
vn 0.09676 0.51638 0.85088
vn -0.61014 0.75499 -0.24025
vn -0.67648 0.70021 -0.22822
vn -0.08408 0.85217 -0.51647
vn -0.49143 0.78347 -0.38035
vn -0.22590 0.37614 -0.89861
vn -0.35829 0.57651 -0.73435
vn -0.18717 0.33771 -0.92245
vn 0.57485 0.65602 -0.48907
vn 0.52486 0.70179 -0.48167
vn 0.35428 0.62390 -0.69659
vn 0.46238 0.69977 -0.54454
vn 0.35294 0.76532 -0.53825
vn 0.53820 0.69244 -0.48049
vn 0.31901 0.78499 -0.53106
vn -0.28666 0.40731 -0.86714
vn -0.19381 0.33184 -0.92321
vn -0.09759 0.38246 -0.91880
vn -0.18693 0.23179 -0.95464
vn -0.22688 0.24989 -0.94132
vn -0.17401 0.21044 -0.96200
vn 0.08082 0.41166 -0.90775
vn -0.07653 0.30312 -0.94987
vn 0.12756 0.44457 -0.88661
vn 0.08729 0.61220 -0.78587
vn 0.14113 0.52738 -0.83783
vn -0.11994 0.38081 -0.91684
vn -0.74911 0.50339 -0.43062
vn -0.83013 0.52462 -0.18883
vn -0.23344 0.16514 -0.95825
vn -0.51797 0.33176 -0.78844
vn -0.75075 0.53089 -0.39310
vn -0.65728 0.36613 -0.65874
vn -0.43602 0.32302 -0.83997
vn -0.36724 0.40135 -0.83908
vn -0.36419 0.36617 -0.85632
vn -0.27565 0.30711 -0.91088
vn -0.27820 0.33775 -0.89918
vn -0.30292 0.32456 -0.89605
vn -0.23821 0.25793 -0.93634
vn -0.17342 0.16886 -0.97026
vn -0.53194 0.21815 -0.81820
vn -0.30544 0.22748 -0.92464
vn -0.33870 0.24408 -0.90868
vn -0.30019 0.25235 -0.91989
vn -0.31214 0.16141 -0.93622
vn -0.52939 0.18255 -0.82851
vn -0.38741 0.16317 -0.90735
vn -0.32862 0.15974 -0.93085
vn -0.33989 0.23867 -0.90968
vn -0.24335 0.14720 -0.95870
vn -0.29779 0.25078 -0.92110
vn -0.29641 0.19412 -0.93513
vn -0.91716 0.34585 0.19800
vn -0.87126 0.47422 0.12660
vn -0.87569 0.44342 0.19117
vn -0.85312 0.43653 0.28569
vn -0.82590 0.56185 0.04708
vn -0.80772 0.02265 -0.58913
vn -0.80762 0.15213 -0.56974
vn -0.95935 0.19536 0.20366
vn -0.97229 0.15264 -0.17707
vn -0.99472 0.10038 -0.02157
vn -0.86416 0.11808 -0.48916
vn -0.94644 0.31073 -0.08771
vn -0.98393 0.00697 0.17841
vn -0.91791 -0.20221 0.34140
vn -0.91220 0.40970 -0.00653
vn -0.97649 0.18100 0.11709
vn -0.97780 -0.14075 0.15524
vn -0.99780 0.01478 -0.06466
vn -0.98089 0.10033 0.16670
vn -0.91842 0.30666 0.24993
vn -0.96888 0.21008 0.13091
vn -0.94112 0.33795 0.00853
vn 0.44121 0.88182 0.16649
vn 0.57089 0.75805 -0.31536
vn 0.15394 0.76484 0.62556
vn 0.24858 0.88255 0.39915
vn 0.71495 0.66262 0.22314
vn 0.47219 0.85394 0.21869
vn 0.63306 0.54246 0.55224
vn 0.15369 0.17317 0.97283
vn 0.18293 0.28187 0.94185
vn 0.13781 0.13128 0.98172
vn 0.22401 0.15512 0.96216
vn 0.22199 0.08599 0.97125
vn 0.12864 0.34201 0.93085
vn 0.12441 0.52178 0.84396
vn 0.77163 -0.08740 0.63003
vn 0.57695 0.02314 0.81645
vn 0.49536 -0.13641 0.85791
vn 0.69386 0.25287 0.67425
vn 0.67657 0.25971 0.68906
vn 0.95501 0.15564 0.25244
vn 0.12645 0.06811 0.98963
vn 0.29700 0.12824 0.94623
vn 0.12139 0.16430 0.97891
vn 0.21147 0.41077 0.88688
vn 0.18010 0.19712 0.96369
vn 0.35801 0.32279 0.87615
vn 0.14836 0.03686 0.98825
vn 0.12868 0.05216 0.99031
vn -0.19684 -0.01825 0.98027
vn 0.00881 0.03446 0.99937
vn 0.14855 0.01156 0.98884
vn 0.12581 -0.00184 0.99205
vn 0.04583 -0.08775 0.99509
vn -0.61152 -0.35687 0.70618
vn -0.57958 -0.36262 0.72979
vn -0.43842 -0.30863 0.84412
vn -0.51278 -0.35636 0.78107
vn -0.54032 -0.35740 0.76178
vn -0.45672 -0.17670 0.87188
vn -0.30787 -0.04134 0.95053
vn 0.06054 -0.38468 0.92106
vn -0.04553 -0.32677 0.94401
vn -0.09289 -0.53030 0.84271
vn -0.01642 -0.08836 0.99595
vn -0.03472 -0.19773 0.97964
vn 0.02457 -0.11741 0.99278
vn -0.22529 -0.55240 0.80256
vn -0.05627 -0.30687 0.95009
vn -0.19810 -0.30565 0.93131
vn -0.13495 -0.13140 0.98210
vn -0.13290 -0.14027 0.98115
vn -0.02340 -0.12540 0.99183
vn -0.91124 -0.37764 0.16439
vn -0.74499 -0.33329 0.57784
vn -0.79773 -0.30602 0.51960
vn -0.91564 -0.40005 0.03962
vn -0.82728 -0.44998 0.33634
vn -0.92237 -0.38535 0.02711
vn -0.91390 -0.38365 0.13270
vn -0.74856 -0.09839 -0.65572
vn -0.84621 -0.15341 -0.51028
vn -0.85085 -0.51811 -0.08729
vn -0.79592 -0.27397 -0.53986
vn -0.69164 -0.38716 -0.60970
vn -0.91027 -0.11024 -0.39907
vn -0.85458 -0.22948 0.46587
vn -0.79871 -0.36362 0.47942
vn -0.93412 -0.30298 0.18875
vn -0.88911 -0.38557 -0.24660
vn -0.85464 -0.37707 0.35696
vn -0.85335 -0.28186 0.43857
vn -0.80990 -0.36482 0.45930
vn -0.77402 -0.47484 -0.41884
vn -0.92822 -0.37052 0.03361
vn -0.85705 -0.50011 0.12387
vn -0.73166 -0.34997 0.58498
vn -0.79698 -0.42103 0.43308
vn -0.84706 -0.34376 0.40537
vn -0.27325 0.19934 -0.94106
vn -0.45515 0.06054 -0.88835
vn -0.39792 0.23260 -0.88744
vn -0.36240 0.25590 -0.89621
vn -0.32878 -0.14972 -0.93246
vn -0.32078 0.11745 -0.93984
vn -0.47364 -0.03756 -0.87992
vn -0.15515 0.34799 -0.92457
vn -0.36044 0.28136 -0.88934
vn -0.18915 0.27352 -0.94308
vn -0.31505 0.18134 -0.93159
vn -0.08098 0.09011 -0.99263
vn -0.36585 0.26275 -0.89282
vn -0.33307 0.23633 -0.91281
vn -0.06586 -0.50471 -0.86078
vn -0.11966 -0.51646 -0.84791
vn 0.06957 -0.54177 -0.83764
vn -0.59174 -0.17633 -0.78661
vn -0.44467 -0.35430 -0.82264
vn -0.48028 -0.26673 -0.83557
vn 0.15407 0.11112 -0.98179
vn -0.11309 -0.12347 -0.98588
vn -0.10301 0.25846 -0.96051
vn -0.38519 0.30885 -0.86962
vn -0.32282 0.34388 -0.88178
vn -0.50132 0.16931 -0.84853
vn -0.03256 0.34487 -0.93809
vn 0.00235 0.40254 -0.91540
vn 0.19813 0.48792 -0.85011
vn 0.05053 0.39800 -0.91599
vn 0.05437 0.25036 -0.96663
vn 0.05045 0.35606 -0.93310
vn 0.23902 0.37793 -0.89445
vn 0.56185 0.62647 -0.54024
vn 0.64601 0.73084 -0.22032
vn 0.69158 0.65346 -0.30775
vn 0.69808 0.71523 -0.03375
vn 0.63552 0.73651 -0.23164
vn 0.57458 0.79367 -0.19988
vn 0.30518 0.59689 -0.74202
vn 0.65496 -0.35164 -0.66886
vn 0.70077 -0.26235 -0.66340
vn 0.70810 -0.34037 -0.61866
vn 0.44489 0.22645 -0.86648
vn 0.58129 -0.01920 -0.81347
vn 0.48116 -0.12767 -0.86729
vn 0.85407 0.13133 -0.50331
vn 0.70728 0.06117 -0.70428
vn 0.66940 0.41867 -0.61369
vn 0.33473 0.48197 -0.80973
vn 0.51517 0.49256 -0.70142
vn 0.36099 0.42485 -0.83017
vn 0.72966 -0.67809 0.08823
vn 0.71399 -0.68644 -0.13794
vn 0.67492 -0.73277 0.08677
vn 0.64110 -0.73945 -0.20545
vn 0.56421 -0.72822 -0.38906
vn 0.56171 -0.76296 -0.31995
vn 0.24814 -0.90343 0.34962
vn 0.56279 -0.82296 -0.07750
vn 0.28348 -0.74983 0.59782
vn 0.59815 -0.14711 0.78777
vn 0.71401 -0.22479 0.66307
vn 0.73221 -0.25772 0.63044
vn 0.27293 -0.42198 0.86455
vn 0.54697 -0.32303 0.77232
vn 0.26936 -0.18551 0.94500
vn 0.78587 -0.61450 0.06927
vn 0.71434 -0.43681 0.54674
vn 0.71764 -0.66257 0.21447
vn 0.07747 -0.59591 0.79930
vn 0.02930 -0.52028 0.85349
vn 0.10713 -0.49652 0.86139
vn 0.04838 -0.48143 0.87515
vn 0.01242 -0.47667 0.87899
vn -0.02864 -0.48401 0.87459
vn 0.04155 -0.35339 0.93455
vn -0.00191 -0.49778 0.86730
vn 0.08917 -0.47690 0.87442
vn 0.51828 -0.67729 0.52218
vn 0.20944 -0.51156 0.83333
vn 0.19128 -0.59502 0.78062
vn 0.33698 -0.90102 0.27314
vn 0.53272 -0.84604 -0.02056
vn -0.04596 -0.87023 0.49049
vn 0.13462 -0.92883 0.34519
vn 0.44130 -0.82826 0.34530
vn 0.21068 -0.83170 0.51370
vn 0.30485 -0.65513 0.69129
vn -0.07199 -0.67169 0.73733
vn -0.05058 -0.59397 0.80290
vn -0.01935 -0.50664 0.86194
vn -0.08491 -0.50432 0.85933
vn -0.03588 -0.45763 0.88842
vn -0.05049 -0.53361 0.84423
vn -0.05968 -0.68270 0.72826
vn -0.29583 -0.86748 0.39996
vn -0.13219 -0.64162 0.75555
vn -0.37426 -0.55663 0.74168
vn 0.22277 -0.62084 0.75162
vn 0.05222 -0.67251 0.73824
vn 0.13153 -0.89637 0.42336
vn -0.08897 -0.48621 0.86930
vn -0.03057 -0.51497 0.85666
vn 0.03951 -0.48407 0.87414
vn 0.06602 -0.76001 0.64655
vn 0.06165 -0.59106 0.80427
vn 0.20950 -0.62602 0.75114
vn 0.46986 -0.85885 -0.20399
vn 0.61304 -0.78980 0.02001
vn 0.52433 -0.85092 -0.03191
vn 0.47619 -0.87612 -0.07526
vn 0.36972 -0.92906 -0.01282
vn 0.42646 -0.90424 -0.02200
vn 0.37494 -0.89325 -0.24804
vn -0.66320 -0.66507 -0.34329
vn -0.20474 -0.95209 -0.22718
vn -0.07680 -0.44353 -0.89296
vn -0.15953 -0.70720 -0.68879
vn -0.23459 -0.34663 -0.90819
vn -0.01513 -0.99710 -0.07463
vn 0.26131 -0.96212 -0.07777
vn 0.06329 -0.43419 -0.89859
vn 0.00380 -0.53515 -0.84475
vn 0.00587 -0.47668 -0.87906
vn 0.16241 -0.74365 -0.64854
vn -0.00180 -0.59815 -0.80138
vn 0.19525 -0.56610 -0.80088
vn -0.22504 -0.66831 -0.70903
vn -0.07384 -0.60261 -0.79461
vn -0.09526 -0.48314 -0.87034
vn 0.32573 -0.83533 -0.44286
vn 0.05360 -0.56899 -0.82059
vn 0.26210 -0.75730 -0.59816
vn 0.58240 -0.75814 0.29332
vn 0.63991 -0.72823 0.24536
vn 0.51871 -0.60609 -0.60299
vn 0.61053 -0.79143 0.02981
vn 0.77944 -0.56782 -0.26467
vn 0.67974 -0.73340 -0.00884
vn 0.80367 -0.37173 -0.46468
vn 0.19273 -0.46205 -0.86566
vn 0.29163 -0.34335 -0.89278
vn 0.40444 -0.31279 -0.85941
vn 0.43222 -0.30325 -0.84925
vn 0.48440 -0.42663 -0.76377
vn 0.33123 -0.28582 -0.89922
vn 0.39122 -0.38788 -0.83457
vn 0.64544 -0.22890 -0.72871
vn 0.76736 -0.20780 -0.60661
vn 0.65590 -0.19776 -0.72848
vn 0.82692 -0.18998 -0.52926
vn 0.80674 -0.30710 -0.50483
vn 0.81611 -0.29470 -0.49712
vn 0.49177 -0.18579 -0.85067
vn 0.64225 -0.25157 -0.72404
vn 0.43806 -0.34193 -0.83138
vn 0.45785 -0.32447 -0.82770
vn 0.40582 -0.23927 -0.88208
vn 0.59780 -0.27102 -0.75444
vn 0.51342 -0.81275 0.27538
vn 0.84740 -0.25644 -0.46492
vn 0.61397 -0.76786 0.18282
vn 0.53158 -0.80140 0.27419
vn 0.68898 -0.71654 -0.10897
vn 0.63299 -0.17757 -0.75352
vn 0.61717 -0.31721 -0.72005
vn 0.87764 -0.46237 -0.12631
vn 0.76764 -0.42263 -0.48178
vn 0.94916 -0.02269 -0.31399
vn 0.67417 -0.47384 -0.56654
vn 0.78165 -0.29757 -0.54816
vn 0.91526 -0.31781 0.24758
vn 0.86668 -0.23256 0.44133
vn 0.75801 -0.52785 -0.38314
vn 0.87563 -0.44200 -0.19469
vn 0.88520 -0.11201 -0.45152
vn 0.85580 -0.31180 -0.41278
vn 0.84215 -0.38193 -0.38066
vn 0.89923 -0.28744 -0.32980
vn 0.83818 -0.46818 -0.27975
vn 0.85853 -0.36333 -0.36183
vn 0.07336 -0.35691 0.93125
vn 0.08622 -0.11597 0.98950
vn 0.07100 -0.25473 0.96440
vn 0.08644 -0.19563 0.97686
vn 0.14680 0.01185 0.98910
vn 0.38014 -0.04240 0.92396
vn 0.09087 0.06612 0.99367
vn 0.19836 0.02773 0.97974
vn 0.25316 0.03122 0.96692
vn 0.10329 -0.04223 0.99375
vn 0.14055 -0.00114 0.99007
vn 0.19368 0.04717 0.97993
vn 0.18436 -0.01406 0.98276
vn 0.18662 -0.02583 0.98209
vn 0.12012 0.02621 0.99241
vn 0.07888 0.04222 0.99599
vn 0.07881 0.05143 0.99556
vn 0.16214 0.07394 0.98399
vn -0.50358 -0.34727 0.79108
vn -0.16594 -0.43830 0.88338
vn -0.37976 -0.45494 0.80549
vn -0.66780 -0.36254 0.65008
vn -0.71126 -0.41936 0.56414
vn -0.21242 -0.66719 0.71396
vn -0.28110 -0.53085 0.79949
vn -0.17423 -0.63433 0.75318
vn -0.09400 -0.52560 0.84552
vn -0.05718 -0.42527 0.90326
vn -0.57681 -0.34525 0.74033
vn -0.60075 -0.45539 0.65706
vn -0.57091 -0.39977 0.71711
vn -0.54928 -0.38478 0.74178
vn -0.46960 -0.45079 0.75912
vn -0.23879 -0.42436 0.87344
vn -0.36605 -0.40607 0.83733
vn -0.54746 -0.37962 0.74578
vn -0.10921 -0.40203 -0.90909
vn -0.41555 -0.54898 -0.72521
vn -0.31940 -0.59624 -0.73653
vn -0.35106 -0.31657 -0.88122
vn -0.46644 -0.24690 -0.84940
vn -0.70726 -0.34141 -0.61905
vn -0.52216 -0.47237 -0.71009
vn -0.62477 -0.31623 -0.71390
vn -0.46782 -0.26949 -0.84173
vn -0.37065 -0.30709 -0.87653
vn -0.52882 -0.22492 -0.81839
vn -0.39705 -0.26004 -0.88019
vn -0.39425 -0.27915 -0.87558
vn -0.59114 -0.38639 -0.70800
vn -0.53575 -0.50471 -0.67693
vn -0.50251 -0.45149 -0.73732
vn -0.44732 -0.53458 -0.71703
vn -0.49355 -0.48191 -0.72399
vn 0.58093 -0.28032 -0.76416
vn 0.53963 -0.18138 -0.82213
vn 0.56221 -0.17682 -0.80787
vn 0.50438 -0.28438 -0.81531
vn 0.36160 -0.17092 -0.91653
vn 0.26041 -0.41012 -0.87406
vn 0.16298 0.09574 -0.98197
vn 0.25640 -0.04802 -0.96538
vn 0.38859 -0.30404 -0.86980
vn 0.46496 -0.25121 -0.84894
vn 0.04365 0.27943 -0.95917
vn 0.16591 0.02190 -0.98590
vn 0.06767 0.21156 -0.97502
vn 0.02490 0.11867 -0.99262
vn 0.06165 0.01211 -0.99802
vn 0.38759 -0.09232 -0.91720
vn 0.16702 -0.03724 -0.98525
vn 0.29939 -0.09463 -0.94943
vn 0.99654 0.07437 -0.03723
vn 0.91828 -0.01797 -0.39552
vn 0.92001 0.07768 -0.38413
vn 0.98151 0.14931 -0.11979
vn 0.95776 -0.04120 0.28459
vn 0.82374 -0.23949 -0.51390
vn 0.97257 0.12682 -0.19498
vn 0.94122 -0.20821 -0.26599
vn 0.95673 -0.05572 -0.28560
vn 0.95493 -0.01404 -0.29651
vn 0.46709 0.64829 -0.60129
vn 0.96444 0.25946 0.05026
vn 0.58593 0.63707 -0.50083
vn 0.48707 0.58110 -0.65199
vn 0.76112 0.49276 -0.42177
vn 0.93633 -0.18504 -0.29841
vn 0.91841 0.03767 -0.39383
vn 0.98032 -0.05074 -0.19079
f 1/1/1 163/163/163 165/165/165
f 43/43/43 164/164/164 163/163/163
f 45/45/45 165/165/165 164/164/164
f 163/163/163 164/164/164 165/165/165
f 13/13/13 166/166/166 168/168/168
f 44/44/44 167/167/167 166/166/166
f 43/43/43 168/168/168 167/167/167
f 166/166/166 167/167/167 168/168/168
f 15/15/15 169/169/169 171/171/171
f 45/45/45 170/170/170 169/169/169
f 44/44/44 171/171/171 170/170/170
f 169/169/169 170/170/170 171/171/171
f 43/43/43 167/167/167 164/164/164
f 44/44/44 170/170/170 167/167/167
f 45/45/45 164/164/164 170/170/170
f 167/167/167 170/170/170 164/164/164
f 12/12/12 172/172/172 174/174/174
f 46/46/46 173/173/173 172/172/172
f 48/48/48 174/174/174 173/173/173
f 172/172/172 173/173/173 174/174/174
f 14/14/14 175/175/175 177/177/177
f 47/47/47 176/176/176 175/175/175
f 46/46/46 177/177/177 176/176/176
f 175/175/175 176/176/176 177/177/177
f 13/13/13 178/178/178 180/180/180
f 48/48/48 179/179/179 178/178/178
f 47/47/47 180/180/180 179/179/179
f 178/178/178 179/179/179 180/180/180
f 46/46/46 176/176/176 173/173/173
f 47/47/47 179/179/179 176/176/176
f 48/48/48 173/173/173 179/179/179
f 176/176/176 179/179/179 173/173/173
f 6/6/6 181/181/181 183/183/183
f 49/49/49 182/182/182 181/181/181
f 51/51/51 183/183/183 182/182/182
f 181/181/181 182/182/182 183/183/183
f 15/15/15 184/184/184 186/186/186
f 50/50/50 185/185/185 184/184/184
f 49/49/49 186/186/186 185/185/185
f 184/184/184 185/185/185 186/186/186
f 14/14/14 187/187/187 189/189/189
f 51/51/51 188/188/188 187/187/187
f 50/50/50 189/189/189 188/188/188
f 187/187/187 188/188/188 189/189/189
f 49/49/49 185/185/185 182/182/182
f 50/50/50 188/188/188 185/185/185
f 51/51/51 182/182/182 188/188/188
f 185/185/185 188/188/188 182/182/182
f 13/13/13 180/180/180 166/166/166
f 47/47/47 190/190/190 180/180/180
f 44/44/44 166/166/166 190/190/190
f 180/180/180 190/190/190 166/166/166
f 14/14/14 189/189/189 175/175/175
f 50/50/50 191/191/191 189/189/189
f 47/47/47 175/175/175 191/191/191
f 189/189/189 191/191/191 175/175/175
f 15/15/15 171/171/171 184/184/184
f 44/44/44 192/192/192 171/171/171
f 50/50/50 184/184/184 192/192/192
f 171/171/171 192/192/192 184/184/184
f 47/47/47 191/191/191 190/190/190
f 50/50/50 192/192/192 191/191/191
f 44/44/44 190/190/190 192/192/192
f 191/191/191 192/192/192 190/190/190
f 1/1/1 165/165/165 194/194/194
f 45/45/45 193/193/193 165/165/165
f 53/53/53 194/194/194 193/193/193
f 165/165/165 193/193/193 194/194/194
f 15/15/15 195/195/195 169/169/169
f 52/52/52 196/196/196 195/195/195
f 45/45/45 169/169/169 196/196/196
f 195/195/195 196/196/196 169/169/169
f 17/17/17 197/197/197 199/199/199
f 53/53/53 198/198/198 197/197/197
f 52/52/52 199/199/199 198/198/198
f 197/197/197 198/198/198 199/199/199
f 45/45/45 196/196/196 193/193/193
f 52/52/52 198/198/198 196/196/196
f 53/53/53 193/193/193 198/198/198
f 196/196/196 198/198/198 193/193/193
f 6/6/6 200/200/200 181/181/181
f 54/54/54 201/201/201 200/200/200
f 49/49/49 181/181/181 201/201/201
f 200/200/200 201/201/201 181/181/181
f 16/16/16 202/202/202 204/204/204
f 55/55/55 203/203/203 202/202/202
f 54/54/54 204/204/204 203/203/203
f 202/202/202 203/203/203 204/204/204
f 15/15/15 186/186/186 206/206/206
f 49/49/49 205/205/205 186/186/186
f 55/55/55 206/206/206 205/205/205
f 186/186/186 205/205/205 206/206/206
f 54/54/54 203/203/203 201/201/201
f 55/55/55 205/205/205 203/203/203
f 49/49/49 201/201/201 205/205/205
f 203/203/203 205/205/205 201/201/201
f 2/2/2 207/207/207 209/209/209
f 56/56/56 208/208/208 207/207/207
f 58/58/58 209/209/209 208/208/208
f 207/207/207 208/208/208 209/209/209
f 17/17/17 210/210/210 212/212/212
f 57/57/57 211/211/211 210/210/210
f 56/56/56 212/212/212 211/211/211
f 210/210/210 211/211/211 212/212/212
f 16/16/16 213/213/213 215/215/215
f 58/58/58 214/214/214 213/213/213
f 57/57/57 215/215/215 214/214/214
f 213/213/213 214/214/214 215/215/215
f 56/56/56 211/211/211 208/208/208
f 57/57/57 214/214/214 211/211/211
f 58/58/58 208/208/208 214/214/214
f 211/211/211 214/214/214 208/208/208
f 15/15/15 206/206/206 195/195/195
f 55/55/55 216/216/216 206/206/206
f 52/52/52 195/195/195 216/216/216
f 206/206/206 216/216/216 195/195/195
f 16/16/16 215/215/215 202/202/202
f 57/57/57 217/217/217 215/215/215
f 55/55/55 202/202/202 217/217/217
f 215/215/215 217/217/217 202/202/202
f 17/17/17 199/199/199 210/210/210
f 52/52/52 218/218/218 199/199/199
f 57/57/57 210/210/210 218/218/218
f 199/199/199 218/218/218 210/210/210
f 55/55/55 217/217/217 216/216/216
f 57/57/57 218/218/218 217/217/217
f 52/52/52 216/216/216 218/218/218
f 217/217/217 218/218/218 216/216/216
f 1/1/1 194/194/194 220/220/220
f 53/53/53 219/219/219 194/194/194
f 60/60/60 220/220/220 219/219/219
f 194/194/194 219/219/219 220/220/220
f 17/17/17 221/221/221 197/197/197
f 59/59/59 222/222/222 221/221/221
f 53/53/53 197/197/197 222/222/222
f 221/221/221 222/222/222 197/197/197
f 19/19/19 223/223/223 225/225/225
f 60/60/60 224/224/224 223/223/223
f 59/59/59 225/225/225 224/224/224
f 223/223/223 224/224/224 225/225/225
f 53/53/53 222/222/222 219/219/219
f 59/59/59 224/224/224 222/222/222
f 60/60/60 219/219/219 224/224/224
f 222/222/222 224/224/224 219/219/219
f 2/2/2 226/226/226 207/207/207
f 61/61/61 227/227/227 226/226/226
f 56/56/56 207/207/207 227/227/227
f 226/226/226 227/227/227 207/207/207
f 18/18/18 228/228/228 230/230/230
f 62/62/62 229/229/229 228/228/228
f 61/61/61 230/230/230 229/229/229
f 228/228/228 229/229/229 230/230/230
f 17/17/17 212/212/212 232/232/232
f 56/56/56 231/231/231 212/212/212
f 62/62/62 232/232/232 231/231/231
f 212/212/212 231/231/231 232/232/232
f 61/61/61 229/229/229 227/227/227
f 62/62/62 231/231/231 229/229/229
f 56/56/56 227/227/227 231/231/231
f 229/229/229 231/231/231 227/227/227
f 8/8/8 233/233/233 235/235/235
f 63/63/63 234/234/234 233/233/233
f 65/65/65 235/235/235 234/234/234
f 233/233/233 234/234/234 235/235/235
f 19/19/19 236/236/236 238/238/238
f 64/64/64 237/237/237 236/236/236
f 63/63/63 238/238/238 237/237/237
f 236/236/236 237/237/237 238/238/238
f 18/18/18 239/239/239 241/241/241
f 65/65/65 240/240/240 239/239/239
f 64/64/64 241/241/241 240/240/240
f 239/239/239 240/240/240 241/241/241
f 63/63/63 237/237/237 234/234/234
f 64/64/64 240/240/240 237/237/237
f 65/65/65 234/234/234 240/240/240
f 237/237/237 240/240/240 234/234/234
f 17/17/17 232/232/232 221/221/221
f 62/62/62 242/242/242 232/232/232
f 59/59/59 221/221/221 242/242/242
f 232/232/232 242/242/242 221/221/221
f 18/18/18 241/241/241 228/228/228
f 64/64/64 243/243/243 241/241/241
f 62/62/62 228/228/228 243/243/243
f 241/241/241 243/243/243 228/228/228
f 19/19/19 225/225/225 236/236/236
f 59/59/59 244/244/244 225/225/225
f 64/64/64 236/236/236 244/244/244
f 225/225/225 244/244/244 236/236/236
f 62/62/62 243/243/243 242/242/242
f 64/64/64 244/244/244 243/243/243
f 59/59/59 242/242/242 244/244/244
f 243/243/243 244/244/244 242/242/242
f 1/1/1 220/220/220 246/246/246
f 60/60/60 245/245/245 220/220/220
f 67/67/67 246/246/246 245/245/245
f 220/220/220 245/245/245 246/246/246
f 19/19/19 247/247/247 223/223/223
f 66/66/66 248/248/248 247/247/247
f 60/60/60 223/223/223 248/248/248
f 247/247/247 248/248/248 223/223/223
f 21/21/21 249/249/249 251/251/251
f 67/67/67 250/250/250 249/249/249
f 66/66/66 251/251/251 250/250/250
f 249/249/249 250/250/250 251/251/251
f 60/60/60 248/248/248 245/245/245
f 66/66/66 250/250/250 248/248/248
f 67/67/67 245/245/245 250/250/250
f 248/248/248 250/250/250 245/245/245
f 8/8/8 252/252/252 233/233/233
f 68/68/68 253/253/253 252/252/252
f 63/63/63 233/233/233 253/253/253
f 252/252/252 253/253/253 233/233/233
f 20/20/20 254/254/254 256/256/256
f 69/69/69 255/255/255 254/254/254
f 68/68/68 256/256/256 255/255/255
f 254/254/254 255/255/255 256/256/256
f 19/19/19 238/238/238 258/258/258
f 63/63/63 257/257/257 238/238/238
f 69/69/69 258/258/258 257/257/257
f 238/238/238 257/257/257 258/258/258
f 68/68/68 255/255/255 253/253/253
f 69/69/69 257/257/257 255/255/255
f 63/63/63 253/253/253 257/257/257
f 255/255/255 257/257/257 253/253/253
f 11/11/11 259/259/259 261/261/261
f 70/70/70 260/260/260 259/259/259
f 72/72/72 261/261/261 260/260/260
f 259/259/259 260/260/260 261/261/261
f 21/21/21 262/262/262 264/264/264
f 71/71/71 263/263/263 262/262/262
f 70/70/70 264/264/264 263/263/263
f 262/262/262 263/263/263 264/264/264
f 20/20/20 265/265/265 267/267/267
f 72/72/72 266/266/266 265/265/265
f 71/71/71 267/267/267 266/266/266
f 265/265/265 266/266/266 267/267/267
f 70/70/70 263/263/263 260/260/260
f 71/71/71 266/266/266 263/263/263
f 72/72/72 260/260/260 266/266/266
f 263/263/263 266/266/266 260/260/260
f 19/19/19 258/258/258 247/247/247
f 69/69/69 268/268/268 258/258/258
f 66/66/66 247/247/247 268/268/268
f 258/258/258 268/268/268 247/247/247
f 20/20/20 267/267/267 254/254/254
f 71/71/71 269/269/269 267/267/267
f 69/69/69 254/254/254 269/269/269
f 267/267/267 269/269/269 254/254/254
f 21/21/21 251/251/251 262/262/262
f 66/66/66 270/270/270 251/251/251
f 71/71/71 262/262/262 270/270/270
f 251/251/251 270/270/270 262/262/262
f 69/69/69 269/269/269 268/268/268
f 71/71/71 270/270/270 269/269/269
f 66/66/66 268/268/268 270/270/270
f 269/269/269 270/270/270 268/268/268
f 1/1/1 246/246/246 163/163/163
f 67/67/67 271/271/271 246/246/246
f 43/43/43 163/163/163 271/271/271
f 246/246/246 271/271/271 163/163/163
f 21/21/21 272/272/272 249/249/249
f 73/73/73 273/273/273 272/272/272
f 67/67/67 249/249/249 273/273/273
f 272/272/272 273/273/273 249/249/249
f 13/13/13 168/168/168 275/275/275
f 43/43/43 274/274/274 168/168/168
f 73/73/73 275/275/275 274/274/274
f 168/168/168 274/274/274 275/275/275
f 67/67/67 273/273/273 271/271/271
f 73/73/73 274/274/274 273/273/273
f 43/43/43 271/271/271 274/274/274
f 273/273/273 274/274/274 271/271/271
f 11/11/11 276/276/276 259/259/259
f 74/74/74 277/277/277 276/276/276
f 70/70/70 259/259/259 277/277/277
f 276/276/276 277/277/277 259/259/259
f 22/22/22 278/278/278 280/280/280
f 75/75/75 279/279/279 278/278/278
f 74/74/74 280/280/280 279/279/279
f 278/278/278 279/279/279 280/280/280
f 21/21/21 264/264/264 282/282/282
f 70/70/70 281/281/281 264/264/264
f 75/75/75 282/282/282 281/281/281
f 264/264/264 281/281/281 282/282/282
f 74/74/74 279/279/279 277/277/277
f 75/75/75 281/281/281 279/279/279
f 70/70/70 277/277/277 281/281/281
f 279/279/279 281/281/281 277/277/277
f 12/12/12 174/174/174 284/284/284
f 48/48/48 283/283/283 174/174/174
f 77/77/77 284/284/284 283/283/283
f 174/174/174 283/283/283 284/284/284
f 13/13/13 285/285/285 178/178/178
f 76/76/76 286/286/286 285/285/285
f 48/48/48 178/178/178 286/286/286
f 285/285/285 286/286/286 178/178/178
f 22/22/22 287/287/287 289/289/289
f 77/77/77 288/288/288 287/287/287
f 76/76/76 289/289/289 288/288/288
f 287/287/287 288/288/288 289/289/289
f 48/48/48 286/286/286 283/283/283
f 76/76/76 288/288/288 286/286/286
f 77/77/77 283/283/283 288/288/288
f 286/286/286 288/288/288 283/283/283
f 21/21/21 282/282/282 272/272/272
f 75/75/75 290/290/290 282/282/282
f 73/73/73 272/272/272 290/290/290
f 282/282/282 290/290/290 272/272/272
f 22/22/22 289/289/289 278/278/278
f 76/76/76 291/291/291 289/289/289
f 75/75/75 278/278/278 291/291/291
f 289/289/289 291/291/291 278/278/278
f 13/13/13 275/275/275 285/285/285
f 73/73/73 292/292/292 275/275/275
f 76/76/76 285/285/285 292/292/292
f 275/275/275 292/292/292 285/285/285
f 75/75/75 291/291/291 290/290/290
f 76/76/76 292/292/292 291/291/291
f 73/73/73 290/290/290 292/292/292
f 291/291/291 292/292/292 290/290/290
f 2/2/2 209/209/209 294/294/294
f 58/58/58 293/293/293 209/209/209
f 79/79/79 294/294/294 293/293/293
f 209/209/209 293/293/293 294/294/294
f 16/16/16 295/295/295 213/213/213
f 78/78/78 296/296/296 295/295/295
f 58/58/58 213/213/213 296/296/296
f 295/295/295 296/296/296 213/213/213
f 24/24/24 297/297/297 299/299/299
f 79/79/79 298/298/298 297/297/297
f 78/78/78 299/299/299 298/298/298
f 297/297/297 298/298/298 299/299/299
f 58/58/58 296/296/296 293/293/293
f 78/78/78 298/298/298 296/296/296
f 79/79/79 293/293/293 298/298/298
f 296/296/296 298/298/298 293/293/293
f 6/6/6 300/300/300 200/200/200
f 80/80/80 301/301/301 300/300/300
f 54/54/54 200/200/200 301/301/301
f 300/300/300 301/301/301 200/200/200
f 23/23/23 302/302/302 304/304/304
f 81/81/81 303/303/303 302/302/302
f 80/80/80 304/304/304 303/303/303
f 302/302/302 303/303/303 304/304/304
f 16/16/16 204/204/204 306/306/306
f 54/54/54 305/305/305 204/204/204
f 81/81/81 306/306/306 305/305/305
f 204/204/204 305/305/305 306/306/306
f 80/80/80 303/303/303 301/301/301
f 81/81/81 305/305/305 303/303/303
f 54/54/54 301/301/301 305/305/305
f 303/303/303 305/305/305 301/301/301
f 10/10/10 307/307/307 309/309/309
f 82/82/82 308/308/308 307/307/307
f 84/84/84 309/309/309 308/308/308
f 307/307/307 308/308/308 309/309/309
f 24/24/24 310/310/310 312/312/312
f 83/83/83 311/311/311 310/310/310
f 82/82/82 312/312/312 311/311/311
f 310/310/310 311/311/311 312/312/312
f 23/23/23 313/313/313 315/315/315
f 84/84/84 314/314/314 313/313/313
f 83/83/83 315/315/315 314/314/314
f 313/313/313 314/314/314 315/315/315
f 82/82/82 311/311/311 308/308/308
f 83/83/83 314/314/314 311/311/311
f 84/84/84 308/308/308 314/314/314
f 311/311/311 314/314/314 308/308/308
f 16/16/16 306/306/306 295/295/295
f 81/81/81 316/316/316 306/306/306
f 78/78/78 295/295/295 316/316/316
f 306/306/306 316/316/316 295/295/295
f 23/23/23 315/315/315 302/302/302
f 83/83/83 317/317/317 315/315/315
f 81/81/81 302/302/302 317/317/317
f 315/315/315 317/317/317 302/302/302
f 24/24/24 299/299/299 310/310/310
f 78/78/78 318/318/318 299/299/299
f 83/83/83 310/310/310 318/318/318
f 299/299/299 318/318/318 310/310/310
f 81/81/81 317/317/317 316/316/316
f 83/83/83 318/318/318 317/317/317
f 78/78/78 316/316/316 318/318/318
f 317/317/317 318/318/318 316/316/316
f 6/6/6 183/183/183 320/320/320
f 51/51/51 319/319/319 183/183/183
f 86/86/86 320/320/320 319/319/319
f 183/183/183 319/319/319 320/320/320
f 14/14/14 321/321/321 187/187/187
f 85/85/85 322/322/322 321/321/321
f 51/51/51 187/187/187 322/322/322
f 321/321/321 322/322/322 187/187/187
f 26/26/26 323/323/323 325/325/325
f 86/86/86 324/324/324 323/323/323
f 85/85/85 325/325/325 324/324/324
f 323/323/323 324/324/324 325/325/325
f 51/51/51 322/322/322 319/319/319
f 85/85/85 324/324/324 322/322/322
f 86/86/86 319/319/319 324/324/324
f 322/322/322 324/324/324 319/319/319
f 12/12/12 326/326/326 172/172/172
f 87/87/87 327/327/327 326/326/326
f 46/46/46 172/172/172 327/327/327
f 326/326/326 327/327/327 172/172/172
f 25/25/25 328/328/328 330/330/330
f 88/88/88 329/329/329 328/328/328
f 87/87/87 330/330/330 329/329/329
f 328/328/328 329/329/329 330/330/330
f 14/14/14 177/177/177 332/332/332
f 46/46/46 331/331/331 177/177/177
f 88/88/88 332/332/332 331/331/331
f 177/177/177 331/331/331 332/332/332
f 87/87/87 329/329/329 327/327/327
f 88/88/88 331/331/331 329/329/329
f 46/46/46 327/327/327 331/331/331
f 329/329/329 331/331/331 327/327/327
f 5/5/5 333/333/333 335/335/335
f 89/89/89 334/334/334 333/333/333
f 91/91/91 335/335/335 334/334/334
f 333/333/333 334/334/334 335/335/335
f 26/26/26 336/336/336 338/338/338
f 90/90/90 337/337/337 336/336/336
f 89/89/89 338/338/338 337/337/337
f 336/336/336 337/337/337 338/338/338
f 25/25/25 339/339/339 341/341/341
f 91/91/91 340/340/340 339/339/339
f 90/90/90 341/341/341 340/340/340
f 339/339/339 340/340/340 341/341/341
f 89/89/89 337/337/337 334/334/334
f 90/90/90 340/340/340 337/337/337
f 91/91/91 334/334/334 340/340/340
f 337/337/337 340/340/340 334/334/334
f 14/14/14 332/332/332 321/321/321
f 88/88/88 342/342/342 332/332/332
f 85/85/85 321/321/321 342/342/342
f 332/332/332 342/342/342 321/321/321
f 25/25/25 341/341/341 328/328/328
f 90/90/90 343/343/343 341/341/341
f 88/88/88 328/328/328 343/343/343
f 341/341/341 343/343/343 328/328/328
f 26/26/26 325/325/325 336/336/336
f 85/85/85 344/344/344 325/325/325
f 90/90/90 336/336/336 344/344/344
f 325/325/325 344/344/344 336/336/336
f 88/88/88 343/343/343 342/342/342
f 90/90/90 344/344/344 343/343/343
f 85/85/85 342/342/342 344/344/344
f 343/343/343 344/344/344 342/342/342
f 12/12/12 284/284/284 346/346/346
f 77/77/77 345/345/345 284/284/284
f 93/93/93 346/346/346 345/345/345
f 284/284/284 345/345/345 346/346/346
f 22/22/22 347/347/347 287/287/287
f 92/92/92 348/348/348 347/347/347
f 77/77/77 287/287/287 348/348/348
f 347/347/347 348/348/348 287/287/287
f 28/28/28 349/349/349 351/351/351
f 93/93/93 350/350/350 349/349/349
f 92/92/92 351/351/351 350/350/350
f 349/349/349 350/350/350 351/351/351
f 77/77/77 348/348/348 345/345/345
f 92/92/92 350/350/350 348/348/348
f 93/93/93 345/345/345 350/350/350
f 348/348/348 350/350/350 345/345/345
f 11/11/11 352/352/352 276/276/276
f 94/94/94 353/353/353 352/352/352
f 74/74/74 276/276/276 353/353/353
f 352/352/352 353/353/353 276/276/276
f 27/27/27 354/354/354 356/356/356
f 95/95/95 355/355/355 354/354/354
f 94/94/94 356/356/356 355/355/355
f 354/354/354 355/355/355 356/356/356
f 22/22/22 280/280/280 358/358/358
f 74/74/74 357/357/357 280/280/280
f 95/95/95 358/358/358 357/357/357
f 280/280/280 357/357/357 358/358/358
f 94/94/94 355/355/355 353/353/353
f 95/95/95 357/357/357 355/355/355
f 74/74/74 353/353/353 357/357/357
f 355/355/355 357/357/357 353/353/353
f 3/3/3 359/359/359 361/361/361
f 96/96/96 360/360/360 359/359/359
f 98/98/98 361/361/361 360/360/360
f 359/359/359 360/360/360 361/361/361
f 28/28/28 362/362/362 364/364/364
f 97/97/97 363/363/363 362/362/362
f 96/96/96 364/364/364 363/363/363
f 362/362/362 363/363/363 364/364/364
f 27/27/27 365/365/365 367/367/367
f 98/98/98 366/366/366 365/365/365
f 97/97/97 367/367/367 366/366/366
f 365/365/365 366/366/366 367/367/367
f 96/96/96 363/363/363 360/360/360
f 97/97/97 366/366/366 363/363/363
f 98/98/98 360/360/360 366/366/366
f 363/363/363 366/366/366 360/360/360
f 22/22/22 358/358/358 347/347/347
f 95/95/95 368/368/368 358/358/358
f 92/92/92 347/347/347 368/368/368
f 358/358/358 368/368/368 347/347/347
f 27/27/27 367/367/367 354/354/354
f 97/97/97 369/369/369 367/367/367
f 95/95/95 354/354/354 369/369/369
f 367/367/367 369/369/369 354/354/354
f 28/28/28 351/351/351 362/362/362
f 92/92/92 370/370/370 351/351/351
f 97/97/97 362/362/362 370/370/370
f 351/351/351 370/370/370 362/362/362
f 95/95/95 369/369/369 368/368/368
f 97/97/97 370/370/370 369/369/369
f 92/92/92 368/368/368 370/370/370
f 369/369/369 370/370/370 368/368/368
f 11/11/11 261/261/261 372/372/372
f 72/72/72 371/371/371 261/261/261
f 100/100/100 372/372/372 371/371/371
f 261/261/261 371/371/371 372/372/372
f 20/20/20 373/373/373 265/265/265
f 99/99/99 374/374/374 373/373/373
f 72/72/72 265/265/265 374/374/374
f 373/373/373 374/374/374 265/265/265
f 30/30/30 375/375/375 377/377/377
f 100/100/100 376/376/376 375/375/375
f 99/99/99 377/377/377 376/376/376
f 375/375/375 376/376/376 377/377/377
f 72/72/72 374/374/374 371/371/371
f 99/99/99 376/376/376 374/374/374
f 100/100/100 371/371/371 376/376/376
f 374/374/374 376/376/376 371/371/371
f 8/8/8 378/378/378 252/252/252
f 101/101/101 379/379/379 378/378/378
f 68/68/68 252/252/252 379/379/379
f 378/378/378 379/379/379 252/252/252
f 29/29/29 380/380/380 382/382/382
f 102/102/102 381/381/381 380/380/380
f 101/101/101 382/382/382 381/381/381
f 380/380/380 381/381/381 382/382/382
f 20/20/20 256/256/256 384/384/384
f 68/68/68 383/383/383 256/256/256
f 102/102/102 384/384/384 383/383/383
f 256/256/256 383/383/383 384/384/384
f 101/101/101 381/381/381 379/379/379
f 102/102/102 383/383/383 381/381/381
f 68/68/68 379/379/379 383/383/383
f 381/381/381 383/383/383 379/379/379
f 7/7/7 385/385/385 387/387/387
f 103/103/103 386/386/386 385/385/385
f 105/105/105 387/387/387 386/386/386
f 385/385/385 386/386/386 387/387/387
f 30/30/30 388/388/388 390/390/390
f 104/104/104 389/389/389 388/388/388
f 103/103/103 390/390/390 389/389/389
f 388/388/388 389/389/389 390/390/390
f 29/29/29 391/391/391 393/393/393
f 105/105/105 392/392/392 391/391/391
f 104/104/104 393/393/393 392/392/392
f 391/391/391 392/392/392 393/393/393
f 103/103/103 389/389/389 386/386/386
f 104/104/104 392/392/392 389/389/389
f 105/105/105 386/386/386 392/392/392
f 389/389/389 392/392/392 386/386/386
f 20/20/20 384/384/384 373/373/373
f 102/102/102 394/394/394 384/384/384
f 99/99/99 373/373/373 394/394/394
f 384/384/384 394/394/394 373/373/373
f 29/29/29 393/393/393 380/380/380
f 104/104/104 395/395/395 393/393/393
f 102/102/102 380/380/380 395/395/395
f 393/393/393 395/395/395 380/380/380
f 30/30/30 377/377/377 388/388/388
f 99/99/99 396/396/396 377/377/377
f 104/104/104 388/388/388 396/396/396
f 377/377/377 396/396/396 388/388/388
f 102/102/102 395/395/395 394/394/394
f 104/104/104 396/396/396 395/395/395
f 99/99/99 394/394/394 396/396/396
f 395/395/395 396/396/396 394/394/394
f 8/8/8 235/235/235 398/398/398
f 65/65/65 397/397/397 235/235/235
f 107/107/107 398/398/398 397/397/397
f 235/235/235 397/397/397 398/398/398
f 18/18/18 399/399/399 239/239/239
f 106/106/106 400/400/400 399/399/399
f 65/65/65 239/239/239 400/400/400
f 399/399/399 400/400/400 239/239/239
f 32/32/32 401/401/401 403/403/403
f 107/107/107 402/402/402 401/401/401
f 106/106/106 403/403/403 402/402/402
f 401/401/401 402/402/402 403/403/403
f 65/65/65 400/400/400 397/397/397
f 106/106/106 402/402/402 400/400/400
f 107/107/107 397/397/397 402/402/402
f 400/400/400 402/402/402 397/397/397
f 2/2/2 404/404/404 226/226/226
f 108/108/108 405/405/405 404/404/404
f 61/61/61 226/226/226 405/405/405
f 404/404/404 405/405/405 226/226/226
f 31/31/31 406/406/406 408/408/408
f 109/109/109 407/407/407 406/406/406
f 108/108/108 408/408/408 407/407/407
f 406/406/406 407/407/407 408/408/408
f 18/18/18 230/230/230 410/410/410
f 61/61/61 409/409/409 230/230/230
f 109/109/109 410/410/410 409/409/409
f 230/230/230 409/409/409 410/410/410
f 108/108/108 407/407/407 405/405/405
f 109/109/109 409/409/409 407/407/407
f 61/61/61 405/405/405 409/409/409
f 407/407/407 409/409/409 405/405/405
f 9/9/9 411/411/411 413/413/413
f 110/110/110 412/412/412 411/411/411
f 112/112/112 413/413/413 412/412/412
f 411/411/411 412/412/412 413/413/413
f 32/32/32 414/414/414 416/416/416
f 111/111/111 415/415/415 414/414/414
f 110/110/110 416/416/416 415/415/415
f 414/414/414 415/415/415 416/416/416
f 31/31/31 417/417/417 419/419/419
f 112/112/112 418/418/418 417/417/417
f 111/111/111 419/419/419 418/418/418
f 417/417/417 418/418/418 419/419/419
f 110/110/110 415/415/415 412/412/412
f 111/111/111 418/418/418 415/415/415
f 112/112/112 412/412/412 418/418/418
f 415/415/415 418/418/418 412/412/412
f 18/18/18 410/410/410 399/399/399
f 109/109/109 420/420/420 410/410/410
f 106/106/106 399/399/399 420/420/420
f 410/410/410 420/420/420 399/399/399
f 31/31/31 419/419/419 406/406/406
f 111/111/111 421/421/421 419/419/419
f 109/109/109 406/406/406 421/421/421
f 419/419/419 421/421/421 406/406/406
f 32/32/32 403/403/403 414/414/414
f 106/106/106 422/422/422 403/403/403
f 111/111/111 414/414/414 422/422/422
f 403/403/403 422/422/422 414/414/414
f 109/109/109 421/421/421 420/420/420
f 111/111/111 422/422/422 421/421/421
f 106/106/106 420/420/420 422/422/422
f 421/421/421 422/422/422 420/420/420
f 4/4/4 423/423/423 425/425/425
f 113/113/113 424/424/424 423/423/423
f 115/115/115 425/425/425 424/424/424
f 423/423/423 424/424/424 425/425/425
f 33/33/33 426/426/426 428/428/428
f 114/114/114 427/427/427 426/426/426
f 113/113/113 428/428/428 427/427/427
f 426/426/426 427/427/427 428/428/428
f 35/35/35 429/429/429 431/431/431
f 115/115/115 430/430/430 429/429/429
f 114/114/114 431/431/431 430/430/430
f 429/429/429 430/430/430 431/431/431
f 113/113/113 427/427/427 424/424/424
f 114/114/114 430/430/430 427/427/427
f 115/115/115 424/424/424 430/430/430
f 427/427/427 430/430/430 424/424/424
f 10/10/10 432/432/432 434/434/434
f 116/116/116 433/433/433 432/432/432
f 118/118/118 434/434/434 433/433/433
f 432/432/432 433/433/433 434/434/434
f 34/34/34 435/435/435 437/437/437
f 117/117/117 436/436/436 435/435/435
f 116/116/116 437/437/437 436/436/436
f 435/435/435 436/436/436 437/437/437
f 33/33/33 438/438/438 440/440/440
f 118/118/118 439/439/439 438/438/438
f 117/117/117 440/440/440 439/439/439
f 438/438/438 439/439/439 440/440/440
f 116/116/116 436/436/436 433/433/433
f 117/117/117 439/439/439 436/436/436
f 118/118/118 433/433/433 439/439/439
f 436/436/436 439/439/439 433/433/433
f 5/5/5 441/441/441 443/443/443
f 119/119/119 442/442/442 441/441/441
f 121/121/121 443/443/443 442/442/442
f 441/441/441 442/442/442 443/443/443
f 35/35/35 444/444/444 446/446/446
f 120/120/120 445/445/445 444/444/444
f 119/119/119 446/446/446 445/445/445
f 444/444/444 445/445/445 446/446/446
f 34/34/34 447/447/447 449/449/449
f 121/121/121 448/448/448 447/447/447
f 120/120/120 449/449/449 448/448/448
f 447/447/447 448/448/448 449/449/449
f 119/119/119 445/445/445 442/442/442
f 120/120/120 448/448/448 445/445/445
f 121/121/121 442/442/442 448/448/448
f 445/445/445 448/448/448 442/442/442
f 33/33/33 440/440/440 426/426/426
f 117/117/117 450/450/450 440/440/440
f 114/114/114 426/426/426 450/450/450
f 440/440/440 450/450/450 426/426/426
f 34/34/34 449/449/449 435/435/435
f 120/120/120 451/451/451 449/449/449
f 117/117/117 435/435/435 451/451/451
f 449/449/449 451/451/451 435/435/435
f 35/35/35 431/431/431 444/444/444
f 114/114/114 452/452/452 431/431/431
f 120/120/120 444/444/444 452/452/452
f 431/431/431 452/452/452 444/444/444
f 117/117/117 451/451/451 450/450/450
f 120/120/120 452/452/452 451/451/451
f 114/114/114 450/450/450 452/452/452
f 451/451/451 452/452/452 450/450/450
f 4/4/4 425/425/425 454/454/454
f 115/115/115 453/453/453 425/425/425
f 123/123/123 454/454/454 453/453/453
f 425/425/425 453/453/453 454/454/454
f 35/35/35 455/455/455 429/429/429
f 122/122/122 456/456/456 455/455/455
f 115/115/115 429/429/429 456/456/456
f 455/455/455 456/456/456 429/429/429
f 37/37/37 457/457/457 459/459/459
f 123/123/123 458/458/458 457/457/457
f 122/122/122 459/459/459 458/458/458
f 457/457/457 458/458/458 459/459/459
f 115/115/115 456/456/456 453/453/453
f 122/122/122 458/458/458 456/456/456
f 123/123/123 453/453/453 458/458/458
f 456/456/456 458/458/458 453/453/453
f 5/5/5 460/460/460 441/441/441
f 124/124/124 461/461/461 460/460/460
f 119/119/119 441/441/441 461/461/461
f 460/460/460 461/461/461 441/441/441
f 36/36/36 462/462/462 464/464/464
f 125/125/125 463/463/463 462/462/462
f 124/124/124 464/464/464 463/463/463
f 462/462/462 463/463/463 464/464/464
f 35/35/35 446/446/446 466/466/466
f 119/119/119 465/465/465 446/446/446
f 125/125/125 466/466/466 465/465/465
f 446/446/446 465/465/465 466/466/466
f 124/124/124 463/463/463 461/461/461
f 125/125/125 465/465/465 463/463/463
f 119/119/119 461/461/461 465/465/465
f 463/463/463 465/465/465 461/461/461
f 3/3/3 467/467/467 469/469/469
f 126/126/126 468/468/468 467/467/467
f 128/128/128 469/469/469 468/468/468
f 467/467/467 468/468/468 469/469/469
f 37/37/37 470/470/470 472/472/472
f 127/127/127 471/471/471 470/470/470
f 126/126/126 472/472/472 471/471/471
f 470/470/470 471/471/471 472/472/472
f 36/36/36 473/473/473 475/475/475
f 128/128/128 474/474/474 473/473/473
f 127/127/127 475/475/475 474/474/474
f 473/473/473 474/474/474 475/475/475
f 126/126/126 471/471/471 468/468/468
f 127/127/127 474/474/474 471/471/471
f 128/128/128 468/468/468 474/474/474
f 471/471/471 474/474/474 468/468/468
f 35/35/35 466/466/466 455/455/455
f 125/125/125 476/476/476 466/466/466
f 122/122/122 455/455/455 476/476/476
f 466/466/466 476/476/476 455/455/455
f 36/36/36 475/475/475 462/462/462
f 127/127/127 477/477/477 475/475/475
f 125/125/125 462/462/462 477/477/477
f 475/475/475 477/477/477 462/462/462
f 37/37/37 459/459/459 470/470/470
f 122/122/122 478/478/478 459/459/459
f 127/127/127 470/470/470 478/478/478
f 459/459/459 478/478/478 470/470/470
f 125/125/125 477/477/477 476/476/476
f 127/127/127 478/478/478 477/477/477
f 122/122/122 476/476/476 478/478/478
f 477/477/477 478/478/478 476/476/476
f 4/4/4 454/454/454 480/480/480
f 123/123/123 479/479/479 454/454/454
f 130/130/130 480/480/480 479/479/479
f 454/454/454 479/479/479 480/480/480
f 37/37/37 481/481/481 457/457/457
f 129/129/129 482/482/482 481/481/481
f 123/123/123 457/457/457 482/482/482
f 481/481/481 482/482/482 457/457/457
f 39/39/39 483/483/483 485/485/485
f 130/130/130 484/484/484 483/483/483
f 129/129/129 485/485/485 484/484/484
f 483/483/483 484/484/484 485/485/485
f 123/123/123 482/482/482 479/479/479
f 129/129/129 484/484/484 482/482/482
f 130/130/130 479/479/479 484/484/484
f 482/482/482 484/484/484 479/479/479
f 3/3/3 486/486/486 467/467/467
f 131/131/131 487/487/487 486/486/486
f 126/126/126 467/467/467 487/487/487
f 486/486/486 487/487/487 467/467/467
f 38/38/38 488/488/488 490/490/490
f 132/132/132 489/489/489 488/488/488
f 131/131/131 490/490/490 489/489/489
f 488/488/488 489/489/489 490/490/490
f 37/37/37 472/472/472 492/492/492
f 126/126/126 491/491/491 472/472/472
f 132/132/132 492/492/492 491/491/491
f 472/472/472 491/491/491 492/492/492
f 131/131/131 489/489/489 487/487/487
f 132/132/132 491/491/491 489/489/489
f 126/126/126 487/487/487 491/491/491
f 489/489/489 491/491/491 487/487/487
f 7/7/7 493/493/493 495/495/495
f 133/133/133 494/494/494 493/493/493
f 135/135/135 495/495/495 494/494/494
f 493/493/493 494/494/494 495/495/495
f 39/39/39 496/496/496 498/498/498
f 134/134/134 497/497/497 496/496/496
f 133/133/133 498/498/498 497/497/497
f 496/496/496 497/497/497 498/498/498
f 38/38/38 499/499/499 501/501/501
f 135/135/135 500/500/500 499/499/499
f 134/134/134 501/501/501 500/500/500
f 499/499/499 500/500/500 501/501/501
f 133/133/133 497/497/497 494/494/494
f 134/134/134 500/500/500 497/497/497
f 135/135/135 494/494/494 500/500/500
f 497/497/497 500/500/500 494/494/494
f 37/37/37 492/492/492 481/481/481
f 132/132/132 502/502/502 492/492/492
f 129/129/129 481/481/481 502/502/502
f 492/492/492 502/502/502 481/481/481
f 38/38/38 501/501/501 488/488/488
f 134/134/134 503/503/503 501/501/501
f 132/132/132 488/488/488 503/503/503
f 501/501/501 503/503/503 488/488/488
f 39/39/39 485/485/485 496/496/496
f 129/129/129 504/504/504 485/485/485
f 134/134/134 496/496/496 504/504/504
f 485/485/485 504/504/504 496/496/496
f 132/132/132 503/503/503 502/502/502
f 134/134/134 504/504/504 503/503/503
f 129/129/129 502/502/502 504/504/504
f 503/503/503 504/504/504 502/502/502
f 4/4/4 480/480/480 506/506/506
f 130/130/130 505/505/505 480/480/480
f 137/137/137 506/506/506 505/505/505
f 480/480/480 505/505/505 506/506/506
f 39/39/39 507/507/507 483/483/483
f 136/136/136 508/508/508 507/507/507
f 130/130/130 483/483/483 508/508/508
f 507/507/507 508/508/508 483/483/483
f 41/41/41 509/509/509 511/511/511
f 137/137/137 510/510/510 509/509/509
f 136/136/136 511/511/511 510/510/510
f 509/509/509 510/510/510 511/511/511
f 130/130/130 508/508/508 505/505/505
f 136/136/136 510/510/510 508/508/508
f 137/137/137 505/505/505 510/510/510
f 508/508/508 510/510/510 505/505/505
f 7/7/7 512/512/512 493/493/493
f 138/138/138 513/513/513 512/512/512
f 133/133/133 493/493/493 513/513/513
f 512/512/512 513/513/513 493/493/493
f 40/40/40 514/514/514 516/516/516
f 139/139/139 515/515/515 514/514/514
f 138/138/138 516/516/516 515/515/515
f 514/514/514 515/515/515 516/516/516
f 39/39/39 498/498/498 518/518/518
f 133/133/133 517/517/517 498/498/498
f 139/139/139 518/518/518 517/517/517
f 498/498/498 517/517/517 518/518/518
f 138/138/138 515/515/515 513/513/513
f 139/139/139 517/517/517 515/515/515
f 133/133/133 513/513/513 517/517/517
f 515/515/515 517/517/517 513/513/513
f 9/9/9 519/519/519 521/521/521
f 140/140/140 520/520/520 519/519/519
f 142/142/142 521/521/521 520/520/520
f 519/519/519 520/520/520 521/521/521
f 41/41/41 522/522/522 524/524/524
f 141/141/141 523/523/523 522/522/522
f 140/140/140 524/524/524 523/523/523
f 522/522/522 523/523/523 524/524/524
f 40/40/40 525/525/525 527/527/527
f 142/142/142 526/526/526 525/525/525
f 141/141/141 527/527/527 526/526/526
f 525/525/525 526/526/526 527/527/527
f 140/140/140 523/523/523 520/520/520
f 141/141/141 526/526/526 523/523/523
f 142/142/142 520/520/520 526/526/526
f 523/523/523 526/526/526 520/520/520
f 39/39/39 518/518/518 507/507/507
f 139/139/139 528/528/528 518/518/518
f 136/136/136 507/507/507 528/528/528
f 518/518/518 528/528/528 507/507/507
f 40/40/40 527/527/527 514/514/514
f 141/141/141 529/529/529 527/527/527
f 139/139/139 514/514/514 529/529/529
f 527/527/527 529/529/529 514/514/514
f 41/41/41 511/511/511 522/522/522
f 136/136/136 530/530/530 511/511/511
f 141/141/141 522/522/522 530/530/530
f 511/511/511 530/530/530 522/522/522
f 139/139/139 529/529/529 528/528/528
f 141/141/141 530/530/530 529/529/529
f 136/136/136 528/528/528 530/530/530
f 529/529/529 530/530/530 528/528/528
f 4/4/4 506/506/506 423/423/423
f 137/137/137 531/531/531 506/506/506
f 113/113/113 423/423/423 531/531/531
f 506/506/506 531/531/531 423/423/423
f 41/41/41 532/532/532 509/509/509
f 143/143/143 533/533/533 532/532/532
f 137/137/137 509/509/509 533/533/533
f 532/532/532 533/533/533 509/509/509
f 33/33/33 428/428/428 535/535/535
f 113/113/113 534/534/534 428/428/428
f 143/143/143 535/535/535 534/534/534
f 428/428/428 534/534/534 535/535/535
f 137/137/137 533/533/533 531/531/531
f 143/143/143 534/534/534 533/533/533
f 113/113/113 531/531/531 534/534/534
f 533/533/533 534/534/534 531/531/531
f 9/9/9 536/536/536 519/519/519
f 144/144/144 537/537/537 536/536/536
f 140/140/140 519/519/519 537/537/537
f 536/536/536 537/537/537 519/519/519
f 42/42/42 538/538/538 540/540/540
f 145/145/145 539/539/539 538/538/538
f 144/144/144 540/540/540 539/539/539
f 538/538/538 539/539/539 540/540/540
f 41/41/41 524/524/524 542/542/542
f 140/140/140 541/541/541 524/524/524
f 145/145/145 542/542/542 541/541/541
f 524/524/524 541/541/541 542/542/542
f 144/144/144 539/539/539 537/537/537
f 145/145/145 541/541/541 539/539/539
f 140/140/140 537/537/537 541/541/541
f 539/539/539 541/541/541 537/537/537
f 10/10/10 434/434/434 544/544/544
f 118/118/118 543/543/543 434/434/434
f 147/147/147 544/544/544 543/543/543
f 434/434/434 543/543/543 544/544/544
f 33/33/33 545/545/545 438/438/438
f 146/146/146 546/546/546 545/545/545
f 118/118/118 438/438/438 546/546/546
f 545/545/545 546/546/546 438/438/438
f 42/42/42 547/547/547 549/549/549
f 147/147/147 548/548/548 547/547/547
f 146/146/146 549/549/549 548/548/548
f 547/547/547 548/548/548 549/549/549
f 118/118/118 546/546/546 543/543/543
f 146/146/146 548/548/548 546/546/546
f 147/147/147 543/543/543 548/548/548
f 546/546/546 548/548/548 543/543/543
f 41/41/41 542/542/542 532/532/532
f 145/145/145 550/550/550 542/542/542
f 143/143/143 532/532/532 550/550/550
f 542/542/542 550/550/550 532/532/532
f 42/42/42 549/549/549 538/538/538
f 146/146/146 551/551/551 549/549/549
f 145/145/145 538/538/538 551/551/551
f 549/549/549 551/551/551 538/538/538
f 33/33/33 535/535/535 545/545/545
f 143/143/143 552/552/552 535/535/535
f 146/146/146 545/545/545 552/552/552
f 535/535/535 552/552/552 545/545/545
f 145/145/145 551/551/551 550/550/550
f 146/146/146 552/552/552 551/551/551
f 143/143/143 550/550/550 552/552/552
f 551/551/551 552/552/552 550/550/550
f 5/5/5 443/443/443 333/333/333
f 121/121/121 553/553/553 443/443/443
f 89/89/89 333/333/333 553/553/553
f 443/443/443 553/553/553 333/333/333
f 34/34/34 554/554/554 447/447/447
f 148/148/148 555/555/555 554/554/554
f 121/121/121 447/447/447 555/555/555
f 554/554/554 555/555/555 447/447/447
f 26/26/26 338/338/338 557/557/557
f 89/89/89 556/556/556 338/338/338
f 148/148/148 557/557/557 556/556/556
f 338/338/338 556/556/556 557/557/557
f 121/121/121 555/555/555 553/553/553
f 148/148/148 556/556/556 555/555/555
f 89/89/89 553/553/553 556/556/556
f 555/555/555 556/556/556 553/553/553
f 10/10/10 309/309/309 432/432/432
f 84/84/84 558/558/558 309/309/309
f 116/116/116 432/432/432 558/558/558
f 309/309/309 558/558/558 432/432/432
f 23/23/23 559/559/559 313/313/313
f 149/149/149 560/560/560 559/559/559
f 84/84/84 313/313/313 560/560/560
f 559/559/559 560/560/560 313/313/313
f 34/34/34 437/437/437 562/562/562
f 116/116/116 561/561/561 437/437/437
f 149/149/149 562/562/562 561/561/561
f 437/437/437 561/561/561 562/562/562
f 84/84/84 560/560/560 558/558/558
f 149/149/149 561/561/561 560/560/560
f 116/116/116 558/558/558 561/561/561
f 560/560/560 561/561/561 558/558/558
f 6/6/6 320/320/320 300/300/300
f 86/86/86 563/563/563 320/320/320
f 80/80/80 300/300/300 563/563/563
f 320/320/320 563/563/563 300/300/300
f 26/26/26 564/564/564 323/323/323
f 150/150/150 565/565/565 564/564/564
f 86/86/86 323/323/323 565/565/565
f 564/564/564 565/565/565 323/323/323
f 23/23/23 304/304/304 567/567/567
f 80/80/80 566/566/566 304/304/304
f 150/150/150 567/567/567 566/566/566
f 304/304/304 566/566/566 567/567/567
f 86/86/86 565/565/565 563/563/563
f 150/150/150 566/566/566 565/565/565
f 80/80/80 563/563/563 566/566/566
f 565/565/565 566/566/566 563/563/563
f 34/34/34 562/562/562 554/554/554
f 149/149/149 568/568/568 562/562/562
f 148/148/148 554/554/554 568/568/568
f 562/562/562 568/568/568 554/554/554
f 23/23/23 567/567/567 559/559/559
f 150/150/150 569/569/569 567/567/567
f 149/149/149 559/559/559 569/569/569
f 567/567/567 569/569/569 559/559/559
f 26/26/26 557/557/557 564/564/564
f 148/148/148 570/570/570 557/557/557
f 150/150/150 564/564/564 570/570/570
f 557/557/557 570/570/570 564/564/564
f 149/149/149 569/569/569 568/568/568
f 150/150/150 570/570/570 569/569/569
f 148/148/148 568/568/568 570/570/570
f 569/569/569 570/570/570 568/568/568
f 3/3/3 469/469/469 359/359/359
f 128/128/128 571/571/571 469/469/469
f 96/96/96 359/359/359 571/571/571
f 469/469/469 571/571/571 359/359/359
f 36/36/36 572/572/572 473/473/473
f 151/151/151 573/573/573 572/572/572
f 128/128/128 473/473/473 573/573/573
f 572/572/572 573/573/573 473/473/473
f 28/28/28 364/364/364 575/575/575
f 96/96/96 574/574/574 364/364/364
f 151/151/151 575/575/575 574/574/574
f 364/364/364 574/574/574 575/575/575
f 128/128/128 573/573/573 571/571/571
f 151/151/151 574/574/574 573/573/573
f 96/96/96 571/571/571 574/574/574
f 573/573/573 574/574/574 571/571/571
f 5/5/5 335/335/335 460/460/460
f 91/91/91 576/576/576 335/335/335
f 124/124/124 460/460/460 576/576/576
f 335/335/335 576/576/576 460/460/460
f 25/25/25 577/577/577 339/339/339
f 152/152/152 578/578/578 577/577/577
f 91/91/91 339/339/339 578/578/578
f 577/577/577 578/578/578 339/339/339
f 36/36/36 464/464/464 580/580/580
f 124/124/124 579/579/579 464/464/464
f 152/152/152 580/580/580 579/579/579
f 464/464/464 579/579/579 580/580/580
f 91/91/91 578/578/578 576/576/576
f 152/152/152 579/579/579 578/578/578
f 124/124/124 576/576/576 579/579/579
f 578/578/578 579/579/579 576/576/576
f 12/12/12 346/346/346 326/326/326
f 93/93/93 581/581/581 346/346/346
f 87/87/87 326/326/326 581/581/581
f 346/346/346 581/581/581 326/326/326
f 28/28/28 582/582/582 349/349/349
f 153/153/153 583/583/583 582/582/582
f 93/93/93 349/349/349 583/583/583
f 582/582/582 583/583/583 349/349/349
f 25/25/25 330/330/330 585/585/585
f 87/87/87 584/584/584 330/330/330
f 153/153/153 585/585/585 584/584/584
f 330/330/330 584/584/584 585/585/585
f 93/93/93 583/583/583 581/581/581
f 153/153/153 584/584/584 583/583/583
f 87/87/87 581/581/581 584/584/584
f 583/583/583 584/584/584 581/581/581
f 36/36/36 580/580/580 572/572/572
f 152/152/152 586/586/586 580/580/580
f 151/151/151 572/572/572 586/586/586
f 580/580/580 586/586/586 572/572/572
f 25/25/25 585/585/585 577/577/577
f 153/153/153 587/587/587 585/585/585
f 152/152/152 577/577/577 587/587/587
f 585/585/585 587/587/587 577/577/577
f 28/28/28 575/575/575 582/582/582
f 151/151/151 588/588/588 575/575/575
f 153/153/153 582/582/582 588/588/588
f 575/575/575 588/588/588 582/582/582
f 152/152/152 587/587/587 586/586/586
f 153/153/153 588/588/588 587/587/587
f 151/151/151 586/586/586 588/588/588
f 587/587/587 588/588/588 586/586/586
f 7/7/7 495/495/495 385/385/385
f 135/135/135 589/589/589 495/495/495
f 103/103/103 385/385/385 589/589/589
f 495/495/495 589/589/589 385/385/385
f 38/38/38 590/590/590 499/499/499
f 154/154/154 591/591/591 590/590/590
f 135/135/135 499/499/499 591/591/591
f 590/590/590 591/591/591 499/499/499
f 30/30/30 390/390/390 593/593/593
f 103/103/103 592/592/592 390/390/390
f 154/154/154 593/593/593 592/592/592
f 390/390/390 592/592/592 593/593/593
f 135/135/135 591/591/591 589/589/589
f 154/154/154 592/592/592 591/591/591
f 103/103/103 589/589/589 592/592/592
f 591/591/591 592/592/592 589/589/589
f 3/3/3 361/361/361 486/486/486
f 98/98/98 594/594/594 361/361/361
f 131/131/131 486/486/486 594/594/594
f 361/361/361 594/594/594 486/486/486
f 27/27/27 595/595/595 365/365/365
f 155/155/155 596/596/596 595/595/595
f 98/98/98 365/365/365 596/596/596
f 595/595/595 596/596/596 365/365/365
f 38/38/38 490/490/490 598/598/598
f 131/131/131 597/597/597 490/490/490
f 155/155/155 598/598/598 597/597/597
f 490/490/490 597/597/597 598/598/598
f 98/98/98 596/596/596 594/594/594
f 155/155/155 597/597/597 596/596/596
f 131/131/131 594/594/594 597/597/597
f 596/596/596 597/597/597 594/594/594
f 11/11/11 372/372/372 352/352/352
f 100/100/100 599/599/599 372/372/372
f 94/94/94 352/352/352 599/599/599
f 372/372/372 599/599/599 352/352/352
f 30/30/30 600/600/600 375/375/375
f 156/156/156 601/601/601 600/600/600
f 100/100/100 375/375/375 601/601/601
f 600/600/600 601/601/601 375/375/375
f 27/27/27 356/356/356 603/603/603
f 94/94/94 602/602/602 356/356/356
f 156/156/156 603/603/603 602/602/602
f 356/356/356 602/602/602 603/603/603
f 100/100/100 601/601/601 599/599/599
f 156/156/156 602/602/602 601/601/601
f 94/94/94 599/599/599 602/602/602
f 601/601/601 602/602/602 599/599/599
f 38/38/38 598/598/598 590/590/590
f 155/155/155 604/604/604 598/598/598
f 154/154/154 590/590/590 604/604/604
f 598/598/598 604/604/604 590/590/590
f 27/27/27 603/603/603 595/595/595
f 156/156/156 605/605/605 603/603/603
f 155/155/155 595/595/595 605/605/605
f 603/603/603 605/605/605 595/595/595
f 30/30/30 593/593/593 600/600/600
f 154/154/154 606/606/606 593/593/593
f 156/156/156 600/600/600 606/606/606
f 593/593/593 606/606/606 600/600/600
f 155/155/155 605/605/605 604/604/604
f 156/156/156 606/606/606 605/605/605
f 154/154/154 604/604/604 606/606/606
f 605/605/605 606/606/606 604/604/604
f 9/9/9 521/521/521 411/411/411
f 142/142/142 607/607/607 521/521/521
f 110/110/110 411/411/411 607/607/607
f 521/521/521 607/607/607 411/411/411
f 40/40/40 608/608/608 525/525/525
f 157/157/157 609/609/609 608/608/608
f 142/142/142 525/525/525 609/609/609
f 608/608/608 609/609/609 525/525/525
f 32/32/32 416/416/416 611/611/611
f 110/110/110 610/610/610 416/416/416
f 157/157/157 611/611/611 610/610/610
f 416/416/416 610/610/610 611/611/611
f 142/142/142 609/609/609 607/607/607
f 157/157/157 610/610/610 609/609/609
f 110/110/110 607/607/607 610/610/610
f 609/609/609 610/610/610 607/607/607
f 7/7/7 387/387/387 512/512/512
f 105/105/105 612/612/612 387/387/387
f 138/138/138 512/512/512 612/612/612
f 387/387/387 612/612/612 512/512/512
f 29/29/29 613/613/613 391/391/391
f 158/158/158 614/614/614 613/613/613
f 105/105/105 391/391/391 614/614/614
f 613/613/613 614/614/614 391/391/391
f 40/40/40 516/516/516 616/616/616
f 138/138/138 615/615/615 516/516/516
f 158/158/158 616/616/616 615/615/615
f 516/516/516 615/615/615 616/616/616
f 105/105/105 614/614/614 612/612/612
f 158/158/158 615/615/615 614/614/614
f 138/138/138 612/612/612 615/615/615
f 614/614/614 615/615/615 612/612/612
f 8/8/8 398/398/398 378/378/378
f 107/107/107 617/617/617 398/398/398
f 101/101/101 378/378/378 617/617/617
f 398/398/398 617/617/617 378/378/378
f 32/32/32 618/618/618 401/401/401
f 159/159/159 619/619/619 618/618/618
f 107/107/107 401/401/401 619/619/619
f 618/618/618 619/619/619 401/401/401
f 29/29/29 382/382/382 621/621/621
f 101/101/101 620/620/620 382/382/382
f 159/159/159 621/621/621 620/620/620
f 382/382/382 620/620/620 621/621/621
f 107/107/107 619/619/619 617/617/617
f 159/159/159 620/620/620 619/619/619
f 101/101/101 617/617/617 620/620/620
f 619/619/619 620/620/620 617/617/617
f 40/40/40 616/616/616 608/608/608
f 158/158/158 622/622/622 616/616/616
f 157/157/157 608/608/608 622/622/622
f 616/616/616 622/622/622 608/608/608
f 29/29/29 621/621/621 613/613/613
f 159/159/159 623/623/623 621/621/621
f 158/158/158 613/613/613 623/623/623
f 621/621/621 623/623/623 613/613/613
f 32/32/32 611/611/611 618/618/618
f 157/157/157 624/624/624 611/611/611
f 159/159/159 618/618/618 624/624/624
f 611/611/611 624/624/624 618/618/618
f 158/158/158 623/623/623 622/622/622
f 159/159/159 624/624/624 623/623/623
f 157/157/157 622/622/622 624/624/624
f 623/623/623 624/624/624 622/622/622
f 10/10/10 544/544/544 307/307/307
f 147/147/147 625/625/625 544/544/544
f 82/82/82 307/307/307 625/625/625
f 544/544/544 625/625/625 307/307/307
f 42/42/42 626/626/626 547/547/547
f 160/160/160 627/627/627 626/626/626
f 147/147/147 547/547/547 627/627/627
f 626/626/626 627/627/627 547/547/547
f 24/24/24 312/312/312 629/629/629
f 82/82/82 628/628/628 312/312/312
f 160/160/160 629/629/629 628/628/628
f 312/312/312 628/628/628 629/629/629
f 147/147/147 627/627/627 625/625/625
f 160/160/160 628/628/628 627/627/627
f 82/82/82 625/625/625 628/628/628
f 627/627/627 628/628/628 625/625/625
f 9/9/9 413/413/413 536/536/536
f 112/112/112 630/630/630 413/413/413
f 144/144/144 536/536/536 630/630/630
f 413/413/413 630/630/630 536/536/536
f 31/31/31 631/631/631 417/417/417
f 161/161/161 632/632/632 631/631/631
f 112/112/112 417/417/417 632/632/632
f 631/631/631 632/632/632 417/417/417
f 42/42/42 540/540/540 634/634/634
f 144/144/144 633/633/633 540/540/540
f 161/161/161 634/634/634 633/633/633
f 540/540/540 633/633/633 634/634/634
f 112/112/112 632/632/632 630/630/630
f 161/161/161 633/633/633 632/632/632
f 144/144/144 630/630/630 633/633/633
f 632/632/632 633/633/633 630/630/630
f 2/2/2 294/294/294 404/404/404
f 79/79/79 635/635/635 294/294/294
f 108/108/108 404/404/404 635/635/635
f 294/294/294 635/635/635 404/404/404
f 24/24/24 636/636/636 297/297/297
f 162/162/162 637/637/637 636/636/636
f 79/79/79 297/297/297 637/637/637
f 636/636/636 637/637/637 297/297/297
f 31/31/31 408/408/408 639/639/639
f 108/108/108 638/638/638 408/408/408
f 162/162/162 639/639/639 638/638/638
f 408/408/408 638/638/638 639/639/639
f 79/79/79 637/637/637 635/635/635
f 162/162/162 638/638/638 637/637/637
f 108/108/108 635/635/635 638/638/638
f 637/637/637 638/638/638 635/635/635
f 42/42/42 634/634/634 626/626/626
f 161/161/161 640/640/640 634/634/634
f 160/160/160 626/626/626 640/640/640
f 634/634/634 640/640/640 626/626/626
f 31/31/31 639/639/639 631/631/631
f 162/162/162 641/641/641 639/639/639
f 161/161/161 631/631/631 641/641/641
f 639/639/639 641/641/641 631/631/631
f 24/24/24 629/629/629 636/636/636
f 160/160/160 642/642/642 629/629/629
f 162/162/162 636/636/636 642/642/642
f 629/629/629 642/642/642 636/636/636
f 161/161/161 641/641/641 640/640/640
f 162/162/162 642/642/642 641/641/641
f 160/160/160 640/640/640 642/642/642
f 641/641/641 642/642/642 640/640/640
