# generated by scripts/make_rocks.py - demonstrator scenery
v -0.62482 0.88184 0.00000
v 0.65476 0.92409 0.00000
v -0.53948 -0.76139 0.00000
v 0.59328 -0.83733 0.00000
v 0.00000 -0.46456 0.34450
v 0.00000 0.58732 0.43553
v 0.00000 -0.43943 -0.32586
v 0.00000 0.45947 -0.34072
v 1.11986 0.00000 -0.27668
v 1.13488 0.00000 0.28039
v -0.88031 0.00000 -0.21750
v -1.03833 0.00000 0.25654
v -0.98693 0.53204 0.15070
v -0.70635 0.38078 0.45689
v -0.39840 0.90979 0.25770
v 0.37766 0.86244 0.24428
v 0.00000 0.96731 0.00000
v 0.36374 0.83064 -0.23528
v -0.32165 0.73453 -0.20805
v -0.44005 0.23723 -0.28464
v -0.89753 0.48385 -0.13705
v -1.06510 0.00000 0.00000
v 0.60487 0.32608 0.39125
v 1.05066 0.56640 0.16043
v -0.54502 -0.29382 0.35254
v 0.00000 0.00000 0.49395
v -0.76193 -0.41075 -0.11634
v -0.83210 -0.44858 0.12706
v 0.00000 0.00000 -0.34950
v -0.47352 -0.25527 -0.30629
v 1.20863 0.65156 -0.18455
v 0.53852 0.29031 -0.34833
v 1.14005 -0.61459 0.17408
v 0.61076 -0.32925 0.39506
v 0.34620 -0.79059 0.22393
v -0.28844 -0.65869 0.18657
v 0.00000 -0.96296 0.00000
v -0.32817 -0.74941 -0.21227
v 0.36274 -0.82835 -0.23463
v 0.57182 -0.30826 -0.36987
v 1.05697 -0.56980 -0.16140
v 1.30933 0.00000 0.00000
v -0.85022 0.75045 0.07869
v -0.72912 0.74463 0.21092
v -0.52112 0.90375 0.12478
v -0.95351 0.19029 0.37669
v -0.93026 0.50149 0.31763
v -1.05334 0.27680 0.21179
v -0.20801 0.78369 0.36345
v -0.54034 0.65134 0.34951
v -0.37195 0.54165 0.49356
v -0.18809 0.96043 0.12166
v -0.31486 0.96678 0.00000
v 0.20161 0.75958 0.35227
v 0.00000 0.89558 0.25367
v 0.29312 0.90003 0.00000
v 0.17897 0.91388 0.11576
v 0.47590 0.82533 0.11396
v -0.18326 0.93577 -0.11854
v -0.50225 0.87103 -0.12027
v 0.53174 0.92217 -0.12733
v 0.18642 0.95191 -0.12058
v -0.16270 0.61298 -0.28428
v 0.00000 0.86675 -0.24551
v 0.18257 0.68785 -0.31900
v -0.60234 0.61514 -0.17424
v -0.80845 0.71358 -0.07482
v -0.22868 0.33301 -0.30344
v -0.39974 0.48186 -0.25856
v -0.88826 0.23342 -0.17860
v -0.63323 0.34137 -0.21621
v -0.68103 0.13591 -0.26905
v -0.99132 0.53441 0.00000
v -1.02434 0.00000 -0.11633
v -1.10963 0.26752 -0.07577
v -1.03844 0.25035 0.07091
v -1.01301 0.00000 0.11504
v 0.69328 0.70802 0.20055
v 0.92054 0.81251 0.08520
v 0.29606 0.43113 0.39285
v 0.50061 0.60346 0.32381
v 1.06087 0.27878 0.21330
v 0.82367 0.44403 0.28123
v 0.84240 0.16811 0.33280
v -0.35748 0.19271 0.51705
v 0.00000 0.29674 0.47873
v -0.83081 -0.16580 0.32822
v -0.72159 0.00000 0.46675
v 0.00000 -0.25341 0.40883
v -0.29638 -0.15977 0.42867
v -0.25139 -0.36608 0.33358
v -0.91889 -0.22153 0.06275
v -0.94711 -0.24888 0.19043
v -0.89166 -0.23431 -0.17928
v -0.94163 -0.22702 -0.06430
v -0.69555 -0.61393 0.06437
v -0.85051 -0.45850 0.00000
v -0.69280 -0.61151 -0.06412
v -0.45877 0.00000 -0.29675
v -0.67806 -0.13532 -0.26787
v 0.00000 0.22202 -0.35819
v -0.22378 0.12064 -0.32366
v -0.25355 -0.36924 -0.33645
v -0.23804 -0.12832 -0.34429
v 0.00000 -0.22386 -0.36115
v 0.52260 0.62996 -0.33803
v 0.28790 0.41926 -0.38204
v 0.90343 0.79742 -0.08361
v 0.76486 0.78112 -0.22125
v 0.88761 0.17714 -0.35066
v 0.89360 0.48173 -0.30511
v 1.14576 0.30109 -0.23037
v 0.85976 -0.75887 0.07957
v 0.72187 -0.73722 0.20882
v 0.49275 -0.85456 0.11799
v 0.96293 -0.19217 0.38041
v 0.90749 -0.48921 0.30985
v 1.19978 -0.31528 0.24123
v 0.15914 -0.59958 0.27806
v 0.47178 -0.56870 0.30516
v 0.27888 -0.40612 0.37006
v 0.17139 -0.87515 0.11086
v 0.31690 -0.97302 0.00000
v -0.15639 -0.58921 0.27326
v 0.00000 -0.75575 0.21407
v -0.28026 -0.86053 0.00000
v -0.15915 -0.81268 0.10294
v -0.42578 -0.73841 0.10195
v 0.19985 -1.02047 -0.12927
v 0.53970 -0.93597 -0.12923
v -0.46447 -0.80552 -0.11122
v -0.18968 -0.96854 -0.12269
v 0.18148 -0.68374 -0.31710
v 0.00000 -0.86019 -0.24365
v -0.16041 -0.60436 -0.28028
v 0.74739 -0.76328 -0.21620
v 0.84208 -0.74327 -0.07794
v 0.27379 -0.39870 -0.36331
v 0.51537 -0.62125 -0.33336
v 1.16531 -0.30622 -0.23430
v 0.87358 -0.47094 -0.29827
v 0.83261 -0.16616 -0.32893
v 1.09053 -0.58789 0.00000
v 1.33045 0.00000 -0.15109
v 1.27286 -0.30687 -0.08692
v 1.32060 -0.31838 0.09018
v 1.23202 0.00000 0.13991
v 0.30691 -0.16545 0.44390
v 0.64340 0.00000 0.41617
v 0.31712 0.17095 0.45867
v -0.59701 -0.60970 0.17270
v -0.42042 -0.50679 0.27194
v -0.72810 -0.39251 0.24860
v -0.43199 -0.52074 -0.27943
v -0.59680 -0.60949 -0.17264
v -0.66432 -0.35813 -0.22683
v 0.54495 0.00000 -0.35249
v 0.24899 -0.13423 -0.36012
v 0.24901 0.13424 -0.36015
v 1.19237 0.28747 0.08142
v 1.41952 0.34223 -0.09694
v 1.15231 0.62120 0.00000
v -0.75518 0.83869 0.03976
v -0.69219 0.83777 0.10319
v -0.56051 0.87291 0.06069
v -0.86979 0.64538 0.18280
v -0.79187 0.74929 0.14474
v -0.93362 0.65138 0.11664
v -0.47459 0.93150 0.19406
v -0.63339 0.83865 0.16982
v -0.58121 0.84638 0.23974
v -1.00268 0.09048 0.31482
v -1.04995 0.24613 0.30250
v -1.09103 0.14436 0.24429
v -0.82076 0.44246 0.38572
v -0.96919 0.35631 0.35716
v -0.83328 0.28398 0.41646
v -1.03279 0.40950 0.18348
v -1.04034 0.40094 0.27398
v -0.96254 0.51890 0.23048
v -0.10986 0.72759 0.42456
v -0.28629 0.66967 0.42587
v -0.18290 0.58907 0.48202
v -0.47975 0.79597 0.31032
v -0.38257 0.72986 0.36286
v -0.29668 0.82807 0.30356
v -0.55078 0.46968 0.48438
v -0.47434 0.61690 0.42918
v -0.62583 0.52906 0.40481
v -0.82611 0.62884 0.26221
v -0.74106 0.58811 0.33947
v -0.66488 0.73042 0.29214
v -0.40903 0.92058 0.06010
v -0.47770 0.94527 0.00000
v -0.29127 0.94844 0.18840
v -0.35658 0.94596 0.12496
v -0.15973 1.00032 0.00000
v -0.24764 0.94834 0.05972
v -0.09293 0.97343 0.06011
v 0.10225 0.67719 0.39516
v 0.00000 0.79850 0.37032
v 0.18973 0.88882 0.25176
v 0.10008 0.83941 0.30583
v 0.29387 0.82023 0.30069
v -0.10230 0.85802 0.31261
v -0.19224 0.90060 0.25509
v 0.45205 0.89451 0.00000
v 0.38031 0.85594 0.05588
v 0.54137 0.84310 0.05861
v 0.09143 0.95774 0.05914
v 0.23521 0.90076 0.05673
v 0.15148 0.94862 0.00000
v 0.44110 0.86577 0.18037
v 0.32990 0.87518 0.11561
v 0.27483 0.89492 0.17777
v -0.09535 0.92242 0.18504
v 0.09165 0.88658 0.17785
v 0.00000 0.95328 0.12076
v -0.43162 0.97142 -0.06341
v -0.57158 0.89015 -0.06188
v -0.09313 0.97562 -0.06024
v -0.25225 0.96599 -0.06083
v -0.39867 0.78250 -0.16302
v -0.34827 0.92393 -0.12205
v -0.25489 0.82998 -0.16487
v 0.61229 0.95355 -0.06629
v 0.42151 0.94866 -0.06193
v 0.29114 0.94802 -0.18832
v 0.36437 0.96663 -0.12769
v 0.45191 0.88700 -0.18479
v 0.23895 0.91508 -0.05763
v 0.09035 0.94650 -0.05844
v -0.07921 0.52459 -0.30611
v 0.00000 0.63946 -0.29656
v 0.08561 0.56697 -0.33084
v -0.17068 0.79962 -0.22649
v -0.09177 0.76972 -0.28044
v -0.25542 0.71291 -0.26135
v 0.28153 0.78580 -0.28806
v 0.09228 0.77399 -0.28200
v 0.18857 0.88341 -0.25023
v 0.00000 0.92176 -0.11676
v 0.09679 0.93628 -0.18782
v -0.09086 0.87894 -0.17631
v -0.66080 0.79978 -0.09851
v -0.73163 0.81253 -0.03852
v -0.45215 0.65843 -0.18650
v -0.55270 0.73181 -0.14819
v -0.83468 0.58236 -0.10428
v -0.70116 0.66346 -0.12816
v -0.75430 0.55968 -0.15853
v -0.12226 0.39376 -0.32220
v -0.19871 0.46481 -0.29559
v -0.41427 0.35022 -0.26797
v -0.31362 0.40788 -0.28376
v -0.33169 0.28285 -0.29170
v -0.29222 0.55750 -0.27717
v -0.37790 0.62699 -0.24444
v -0.86918 0.11500 -0.19461
v -0.75144 0.17615 -0.21649
v -0.79314 0.07157 -0.24903
v -0.76816 0.41411 -0.18394
v -0.75067 0.28930 -0.19769
v -0.93469 0.37061 -0.16605
v -0.55182 0.18805 -0.27579
v -0.63696 0.23417 -0.23473
v -0.52634 0.28374 -0.24735
v -0.50105 0.55045 -0.22015
v -0.50652 0.40198 -0.23203
v -0.62849 0.47841 -0.19949
v -0.86492 0.76342 0.00000
v -0.94518 0.50953 -0.07035
v -0.89403 0.61994 -0.03717
v -0.95795 0.66426 0.03983
v -1.01534 0.54736 0.07557
v -0.94894 0.00000 -0.16722
v -0.99968 0.12420 -0.15489
v -1.10235 0.12955 -0.03669
v -1.10719 0.13271 -0.10082
v -1.07552 0.00000 -0.05989
v -1.04790 0.26345 -0.13774
v -1.03473 0.39119 -0.11081
v -1.02680 0.12757 0.15909
v -1.03604 0.00000 0.18257
v -1.02799 0.38865 0.11008
v -1.01120 0.25422 0.13291
v -1.00511 0.00000 0.05597
v -1.02959 0.12340 0.09375
v -1.06007 0.12458 0.03529
v -1.03153 0.39382 -0.03718
v -1.10310 0.26594 0.00000
v -1.03599 0.39552 0.03734
v 0.68104 0.82428 0.10153
v 0.79659 0.88467 0.04194
v 0.53363 0.77709 0.22011
v 0.59355 0.78589 0.15914
v 1.02081 0.71222 0.12753
v 0.79643 0.75360 0.14557
v 0.89219 0.66199 0.18751
v 0.15552 0.50090 0.40987
v 0.24328 0.56906 0.36188
v 0.55579 0.46985 0.35951
v 0.39917 0.51914 0.36116
v 0.44488 0.37938 0.39125
v 0.34767 0.66329 0.32977
v 0.45404 0.75332 0.29369
v 1.08770 0.14392 0.24354
v 0.98901 0.23184 0.28494
v 0.99568 0.08984 0.31263
v 0.95906 0.51702 0.22965
v 0.97955 0.37751 0.25797
v 1.05396 0.41790 0.18724
v 0.72435 0.24685 0.36202
v 0.83181 0.30580 0.30654
v 0.71927 0.38775 0.33802
v 0.60473 0.66434 0.26571
v 0.67606 0.53652 0.30969
v 0.76931 0.58560 0.24419
v -0.17580 0.41725 0.49341
v 0.00000 0.42981 0.44688
v -0.56112 0.30249 0.51754
v -0.37334 0.37150 0.51782
v 0.00000 0.14988 0.49319
v -0.17124 0.24758 0.49817
v -0.16503 0.08896 0.48966
v -0.92925 -0.08385 0.29177
v -0.89928 0.00000 0.35527
v -0.64058 -0.16833 0.41435
v -0.78180 -0.08921 0.39314
v -0.71572 -0.24391 0.35771
v -0.84644 0.09659 0.42564
v -0.73310 0.19265 0.47419
v 0.00000 -0.36151 0.37587
v -0.13430 -0.31875 0.37693
v -0.13048 -0.42024 0.34387
v -0.15927 -0.08586 0.47258
v -0.14517 -0.20989 0.42233
v 0.00000 -0.14012 0.46105
v -0.38207 -0.32581 0.33601
v -0.26623 -0.26491 0.36926
v -0.42114 -0.22703 0.38843
v -0.55081 0.09898 0.50307
v -0.49220 -0.08845 0.44955
v -0.33597 0.00000 0.48593
v -1.04548 -0.12989 0.16198
v -1.01814 -0.13471 0.22797
v -0.97079 -0.11409 0.03232
v -0.98749 -0.11836 0.08992
v -0.89814 -0.35611 0.15956
v -0.96172 -0.24178 0.12641
v -0.90230 -0.34113 0.09662
v -0.91224 -0.12070 -0.20426
v -0.96488 -0.11988 -0.14949
v -0.87260 -0.32990 -0.09344
v -0.93666 -0.23548 -0.12312
v -0.81423 -0.32284 -0.14465
v -0.98500 -0.11806 -0.08969
v -0.96870 -0.11384 -0.03225
v -0.60090 -0.66735 0.03164
v -0.69996 -0.61783 0.00000
v -0.61838 -0.68675 -0.03256
v -0.88015 -0.47448 0.06551
v -0.80110 -0.55550 0.03331
v -0.79386 -0.55387 0.09918
v -0.73710 -0.51427 -0.09209
v -0.76124 -0.52786 -0.03165
v -0.78488 -0.42312 -0.05842
v -0.89939 -0.21683 0.00000
v -0.90121 -0.34407 -0.03249
v -0.89163 -0.34041 0.03214
v -0.69993 0.00000 -0.27651
v -0.82343 -0.07430 -0.25854
v -0.44936 0.11808 -0.29066
v -0.56630 0.06462 -0.28477
v -0.55412 -0.18884 -0.27694
v -0.56980 -0.06502 -0.28654
v -0.46696 -0.12271 -0.30204
v 0.00000 0.34071 -0.35424
v -0.12067 0.28640 -0.33867
v -0.11112 0.05991 -0.32972
v -0.11518 0.16653 -0.33509
v 0.00000 0.10166 -0.33450
v -0.23038 0.22924 -0.31954
v -0.32790 0.17676 -0.30243
v -0.12488 -0.40219 -0.32910
v -0.12452 -0.29552 -0.34946
v 0.00000 -0.33525 -0.34856
v -0.35697 -0.19244 -0.32924
v -0.24625 -0.24504 -0.34155
v -0.37210 -0.31731 -0.32724
v 0.00000 -0.10704 -0.35221
v -0.12105 -0.17503 -0.35218
v -0.11424 -0.06158 -0.33896
v -0.33711 0.06058 -0.30789
v -0.22338 0.00000 -0.32309
v -0.34669 -0.06230 -0.31664
v 0.24627 0.57605 -0.36633
v 0.14317 0.46111 -0.37731
v 0.45493 0.75480 -0.29426
v 0.35202 0.67157 -0.33389
v 0.40983 0.34949 -0.36042
v 0.41978 0.54594 -0.37981
v 0.53300 0.45059 -0.34476
v 0.79919 0.88756 -0.04208
v 0.72358 0.87576 -0.10787
v 1.03367 0.76697 -0.21725
v 0.85989 0.81365 -0.15717
v 1.06247 0.74129 -0.13274
v 0.63844 0.84533 -0.17118
v 0.53585 0.78033 -0.22103
v 1.00657 0.09083 -0.31605
v 1.02289 0.23979 -0.29470
v 1.15649 0.15302 -0.25894
v 0.71429 0.38506 -0.33568
v 0.90024 0.33096 -0.33175
v 0.68232 0.23253 -0.34101
v 1.21436 0.48150 -0.21574
v 1.05705 0.40738 -0.27838
v 1.09857 0.59222 -0.26305
v 0.65837 0.72327 -0.28928
v 0.92895 0.70712 -0.29486
v 0.70410 0.55878 -0.32254
v 0.71471 -0.79374 0.03763
v 0.68154 -0.82488 0.10160
v 0.55315 -0.86145 0.05989
v 0.92034 -0.68289 0.19343
v 0.80776 -0.76433 0.14764
v 1.00866 -0.70374 0.12601
v 0.42417 -0.83254 0.17344
v 0.61412 -0.81314 0.16466
v 0.51889 -0.75563 0.21403
v 1.09725 -0.09901 0.34451
v 1.09973 -0.25780 0.31684
v 1.17623 -0.15563 0.26336
v 0.79456 -0.42834 0.37340
v 0.98901 -0.36360 0.36447
v 0.80209 -0.27334 0.40087
v 1.16070 -0.46022 0.20621
v 1.08095 -0.41659 0.28468
v 0.98691 -0.53203 0.23632
v 0.08149 -0.53968 0.31492
v 0.21645 -0.50630 0.32197
v 0.13594 -0.43784 0.35827
v 0.41228 -0.68403 0.26668
v 0.30520 -0.58226 0.28948
v 0.24847 -0.69351 0.25423
v 0.43042 -0.36705 0.37853
v 0.38117 -0.49573 0.34488
v 0.55982 -0.47326 0.36211
v 0.81332 -0.61911 0.25816
v 0.69833 -0.55420 0.31990
v 0.59202 -0.65039 0.26013
v 0.40045 -0.90126 0.05883
v 0.47214 -0.93427 0.00000
v 0.26054 -0.84838 0.16853
v 0.32571 -0.86407 0.11414
v 0.15988 -1.00127 0.00000
v 0.24091 -0.92258 0.05810
v 0.08812 -0.92308 0.05700
v -0.08127 -0.53821 0.31406
v 0.00000 -0.59393 0.27545
v -0.15014 -0.70337 0.19923
v -0.07796 -0.65382 0.23821
v -0.22258 -0.62125 0.22774
v 0.08198 -0.68757 0.25051
v 0.16649 -0.77995 0.22092
v -0.41517 -0.82154 0.00000
v -0.36122 -0.81296 0.05307
v -0.48388 -0.75357 0.05239
v -0.08573 -0.89804 0.05545
v -0.22108 -0.84665 0.05332
v -0.14725 -0.92215 0.00000
v -0.35892 -0.70448 0.14677
v -0.29375 -0.77927 0.10294
v -0.23311 -0.75907 0.15079
v 0.08685 -0.84014 0.16853
v -0.08359 -0.80865 0.16221
v 0.00000 -0.85717 0.10858
v 0.44150 -0.99365 -0.06487
v 0.57584 -0.89679 -0.06235
v 0.09852 -1.03205 -0.06373
v 0.26866 -1.02886 -0.06479
v 0.45939 -0.90167 -0.18785
v 0.37364 -0.99121 -0.13093
v 0.28094 -0.91481 -0.18172
v -0.52048 -0.81057 -0.05635
v -0.39814 -0.89606 -0.05850
v -0.27403 -0.89229 -0.17725
v -0.34578 -0.91732 -0.12117
v -0.40682 -0.79849 -0.16635
v -0.24129 -0.92402 -0.05819
v -0.09237 -0.96760 -0.05975
v 0.08451 -0.55968 -0.32658
v 0.00000 -0.63916 -0.29642
v -0.07954 -0.52677 -0.30738
v 0.18297 -0.85717 -0.24279
v 0.09296 -0.77962 -0.28405
v 0.27976 -0.78084 -0.28625
v -0.24498 -0.68378 -0.25067
v -0.08881 -0.74488 -0.27139
v -0.17579 -0.82353 -0.23327
v 0.00000 -0.97699 -0.12376
v -0.09759 -0.94401 -0.18937
v 0.09579 -0.92665 -0.18588
v 0.68701 -0.83150 -0.10242
v 0.71245 -0.79123 -0.03751
v 0.55514 -0.80842 -0.22898
v 0.65441 -0.86648 -0.17546
v 0.94546 -0.65965 -0.11812
v 0.82318 -0.77892 -0.15046
v 0.94588 -0.70184 -0.19880
v 0.13241 -0.42645 -0.34895
v 0.23641 -0.55297 -0.35165
v 0.57167 -0.48327 -0.36977
v 0.40013 -0.52039 -0.36203
v 0.42713 -0.36424 -0.37563
v 0.35103 -0.66969 -0.33295
v 0.43916 -0.72863 -0.28406
v 1.17069 -0.15490 -0.26212
v 0.99428 -0.23308 -0.28646
v 0.97531 -0.08801 -0.30623
v 1.03021 -0.55538 -0.24669
v 1.02947 -0.39675 -0.27112
v 1.12555 -0.44628 -0.19996
v 0.72181 -0.24599 -0.36075
v 0.84698 -0.31138 -0.31212
v 0.74056 -0.39922 -0.34803
v 0.63009 -0.69220 -0.27685
v 0.69856 -0.55438 -0.32000
v 0.83069 -0.63232 -0.26367
v 0.82522 -0.72838 0.00000
v 1.06268 -0.57288 -0.07910
v 0.93992 -0.65176 -0.03908
v 1.00413 -0.69629 0.04175
v 1.14761 -0.61866 0.08542
v 1.27293 0.00000 -0.22431
v 1.28664 -0.15986 -0.19935
v 1.27578 -0.14993 -0.04247
v 1.30057 -0.15588 -0.11842
v 1.32745 0.00000 -0.07391
v 1.23261 -0.30989 -0.16202
v 1.15247 -0.43571 -0.12341
v 1.24659 -0.15488 0.19314
v 1.19566 0.00000 0.21070
v 1.30065 -0.49173 0.13928
v 1.29103 -0.32457 0.16970
v 1.29291 0.00000 0.07199
v 1.34014 -0.16063 0.12203
v 1.31801 -0.15489 0.04387
v 1.17545 -0.44877 -0.04237
v 1.30894 -0.31557 0.00000
v 1.29171 -0.49315 0.04656
v 0.13750 -0.32634 0.38591
v 0.44903 -0.24207 0.41415
v 0.28833 -0.28691 0.39992
v 0.15210 -0.21992 0.44250
v 0.15963 -0.08605 0.47365
v 0.90699 0.00000 0.35831
v 0.63093 0.16580 0.40810
v 0.73637 0.08403 0.37030
v 0.77325 -0.08824 0.38884
v 0.61706 -0.16215 0.39913
v 0.15183 0.36035 0.42613
v 0.16397 0.08840 0.48653
v 0.15684 0.22677 0.45629
v 0.31044 0.30891 0.43058
v 0.45858 0.24722 0.42296
v 0.49073 -0.08818 0.44820
v 0.49479 0.08891 0.45191
v 0.32981 0.00000 0.47702
v -0.56052 -0.67841 0.08356
v -0.45187 -0.65804 0.18639
v -0.51329 -0.67963 0.13762
v -0.65417 -0.61900 0.11957
v -0.71698 -0.53200 0.15069
v -0.20888 -0.48860 0.31072
v -0.47100 -0.39817 0.30466
v -0.33243 -0.43235 0.30078
v -0.28279 -0.53950 0.26823
v -0.35493 -0.58887 0.22958
v -0.91043 -0.21342 0.26230
v -0.78249 -0.42183 0.18737
v -0.84825 -0.32691 0.22339
v -0.79182 -0.29110 0.29180
v -0.65888 -0.35519 0.30964
v -0.51355 -0.56417 0.22564
v -0.60052 -0.47658 0.27509
v -0.67672 -0.51512 0.21480
v -0.20660 -0.48326 -0.30732
v -0.36769 -0.61005 -0.23784
v -0.29370 -0.56031 -0.27857
v -0.34573 -0.44964 -0.31281
v -0.46442 -0.39261 -0.30040
v -0.60889 -0.73696 -0.09077
v -0.68935 -0.51149 -0.14488
v -0.64797 -0.61313 -0.11843
v -0.54449 -0.72094 -0.14599
v -0.46057 -0.67070 -0.18998
v -0.80606 -0.18896 -0.23223
v -0.57642 -0.31074 -0.27089
v -0.66469 -0.24436 -0.24495
v -0.75786 -0.29207 -0.19959
v -0.72625 -0.39151 -0.17390
v -0.51315 -0.56373 -0.22547
v -0.63616 -0.48425 -0.20192
v -0.55035 -0.43677 -0.25211
v 0.86247 0.00000 -0.34072
v 0.56872 -0.14945 -0.36787
v 0.71922 -0.08207 -0.36167
v 0.72343 0.08255 -0.36379
v 0.54724 0.14380 -0.35397
v 0.12570 -0.29833 -0.35278
v 0.11999 -0.06469 -0.35604
v 0.12410 -0.17943 -0.36105
v 0.25575 -0.25448 -0.35472
v 0.39357 -0.21217 -0.36300
v 0.13140 0.31187 -0.36879
v 0.38645 0.20833 -0.35643
v 0.27286 0.27151 -0.37845
v 0.12338 0.17839 -0.35895
v 0.11835 0.06380 -0.35117
v 0.38287 -0.06880 -0.34969
v 0.24364 0.00000 -0.35240
v 0.38828 0.06977 -0.35463
v 1.15029 0.14292 0.17822
v 1.29469 0.15215 0.04310
v 1.21702 0.14587 0.11082
v 1.11222 0.27962 0.14619
v 1.11830 0.42279 0.11975
v 1.29036 0.16032 -0.19992
v 1.37352 0.51928 -0.14709
v 1.30344 0.32769 -0.17133
v 1.34015 0.16063 -0.12203
v 1.32861 0.15614 -0.04423
v 0.93275 0.82330 0.00000
v 1.10119 0.59364 0.08197
v 1.04356 0.72363 0.04339
v 1.02700 0.71214 -0.04270
v 1.21378 0.65433 -0.09035
v 1.36788 0.32978 0.00000
v 1.38543 0.52894 -0.04994
v 1.22906 0.46924 0.04430
vt 2.54433 1.00000
vt 1.95567 1.00000
vt 0.45567 1.00000
vt 1.04433 1.00000
vt 0.75000 0.59379
vt 2.25000 0.59379
vt 0.75000 1.40621
vt 2.25000 1.40621
vt 1.50000 1.15420
vt 1.50000 0.84580
vt 3.00000 1.15420
vt 3.00000 0.84580
vt 2.76393 0.91494
vt 2.76393 0.67049
vt 2.44707 0.83838
vt 2.05293 0.83838
vt 2.25000 1.00000
vt 2.05293 1.16162
vt 2.44707 1.16162
vt 2.76393 1.32951
vt 2.76393 1.08506
vt 3.00000 1.00000
vt 1.73607 0.67049
vt 1.73607 0.91494
vt 0.23607 0.67049
vt 1.50000 0.00000
vt 0.23607 1.08506
vt 0.23607 0.91494
vt 1.50000 2.00000
vt 0.23607 1.32951
vt 1.73607 1.08506
vt 1.73607 1.32951
vt 1.26393 0.91494
vt 1.26393 0.67049
vt 0.94707 0.83838
vt 0.55293 0.83838
vt 0.75000 1.00000
vt 0.55293 1.16162
vt 0.94707 1.16162
vt 1.26393 1.32951
vt 1.26393 1.08506
vt 1.50000 1.00000
vt 2.65472 0.95590
vt 2.61998 0.87288
vt 2.49974 0.92421
vt 2.90595 0.76470
vt 2.76393 0.81413
vt 2.87730 0.87773
vt 2.37387 0.73173
vt 2.58065 0.75067
vt 2.53731 0.58986
vt 2.34234 0.92126
vt 2.40033 1.00000
vt 2.12613 0.73173
vt 2.25000 0.82428
vt 2.09967 1.00000
vt 2.15766 0.92126
vt 2.00026 0.92421
vt 2.34234 1.07874
vt 2.49974 1.07579
vt 2.00026 1.07579
vt 2.15766 1.07874
vt 2.37387 1.26827
vt 2.25000 1.17572
vt 2.12613 1.26827
vt 2.61998 1.12712
vt 2.65472 1.04410
vt 2.53731 1.41014
vt 2.58065 1.24933
vt 2.87730 1.12227
vt 2.76393 1.18587
vt 2.90595 1.23530
vt 2.76393 1.00000
vt 3.00000 1.07199
vt 2.88704 1.04220
vt 2.88704 0.95780
vt 3.00000 0.92801
vt 1.88002 0.87288
vt 1.84528 0.95590
vt 1.96269 0.58986
vt 1.91935 0.75067
vt 1.62270 0.87773
vt 1.73607 0.81413
vt 1.59405 0.76470
vt 2.76393 0.42387
vt 2.25000 0.35325
vt 0.09405 0.76470
vt 3.00000 0.63449
vt 0.75000 0.35325
vt 0.23607 0.42387
vt 0.46269 0.58986
vt 0.11296 0.95780
vt 0.12270 0.87773
vt 0.12270 1.12227
vt 0.11296 1.04220
vt 0.34528 0.95590
vt 0.23607 1.00000
vt 0.34528 1.04410
vt 3.00000 1.36551
vt 0.09405 1.23530
vt 2.25000 1.64675
vt 2.76393 1.57613
vt 0.46269 1.41014
vt 0.23607 1.57613
vt 0.75000 1.64675
vt 1.91935 1.24933
vt 1.96269 1.41014
vt 1.84528 1.04410
vt 1.88002 1.12712
vt 1.59405 1.23530
vt 1.73607 1.18587
vt 1.62270 1.12227
vt 1.15472 0.95590
vt 1.11998 0.87288
vt 0.99974 0.92421
vt 1.40595 0.76470
vt 1.26393 0.81413
vt 1.37730 0.87773
vt 0.87387 0.73173
vt 1.08065 0.75067
vt 1.03731 0.58986
vt 0.84234 0.92126
vt 0.90033 1.00000
vt 0.62613 0.73173
vt 0.75000 0.82428
vt 0.59967 1.00000
vt 0.65766 0.92126
vt 0.50026 0.92421
vt 0.84234 1.07874
vt 0.99974 1.07579
vt 0.50026 1.07579
vt 0.65766 1.07874
vt 0.87387 1.26827
vt 0.75000 1.17572
vt 0.62613 1.26827
vt 1.11998 1.12712
vt 1.15472 1.04410
vt 1.03731 1.41014
vt 1.08065 1.24933
vt 1.37730 1.12227
vt 1.26393 1.18587
vt 1.40595 1.23530
vt 1.26393 1.00000
vt 1.50000 1.07199
vt 1.38704 1.04220
vt 1.38704 0.95780
vt 1.50000 0.92801
vt 1.26393 0.42387
vt 1.50000 0.63449
vt 1.73607 0.42387
vt 0.38002 0.87288
vt 0.41935 0.75067
vt 0.23607 0.81413
vt 0.41935 1.24933
vt 0.38002 1.12712
vt 0.23607 1.18587
vt 1.50000 1.36551
vt 1.26393 1.57613
vt 1.73607 1.57613
vt 1.61296 0.95780
vt 1.61296 1.04220
vt 1.73607 1.00000
vt 2.60001 0.97758
vt 2.57970 0.93973
vt 2.52254 0.96280
vt 2.69521 0.89355
vt 2.63819 0.91597
vt 2.70914 0.93500
vt 2.47499 0.88316
vt 2.55885 0.89801
vt 2.53731 0.85397
vt 2.95703 0.80706
vt 2.89006 0.82590
vt 2.93719 0.86094
vt 2.76393 0.75030
vt 2.83179 0.78800
vt 2.84318 0.71870
vt 2.81976 0.89580
vt 2.82436 0.84660
vt 2.76393 0.86775
vt 2.32156 0.66684
vt 2.44290 0.66315
vt 2.39374 0.57771
vt 2.50899 0.79484
vt 2.48052 0.73593
vt 2.41426 0.78845
vt 2.66286 0.62456
vt 2.56297 0.67914
vt 2.66491 0.70791
vt 2.68935 0.84251
vt 2.67970 0.78068
vt 2.60259 0.81693
vt 2.44964 0.96207
vt 2.47342 1.00000
vt 2.39227 0.88053
vt 2.42212 0.92171
vt 2.32560 1.00000
vt 2.37196 0.96126
vt 2.29544 0.96092
vt 2.17844 0.66684
vt 2.25000 0.72355
vt 2.14959 0.82796
vt 2.19334 0.77901
vt 2.08574 0.78845
vt 2.30666 0.77901
vt 2.35041 0.82796
vt 2.02658 1.00000
vt 2.05036 0.96207
vt 1.97746 0.96280
vt 2.20456 0.96092
vt 2.12804 0.96126
vt 2.17440 1.00000
vt 2.02501 0.88316
vt 2.07788 0.92171
vt 2.10773 0.88053
vt 2.29918 0.87462
vt 2.20082 0.87462
vt 2.25000 0.91978
vt 2.44964 1.03793
vt 2.52254 1.03720
vt 2.29544 1.03908
vt 2.37196 1.03874
vt 2.47499 1.11684
vt 2.42212 1.07829
vt 2.39227 1.11947
vt 1.97746 1.03720
vt 2.05036 1.03793
vt 2.10773 1.11947
vt 2.07788 1.07829
vt 2.02501 1.11684
vt 2.12804 1.03874
vt 2.20456 1.03908
vt 2.32156 1.33316
vt 2.25000 1.27645
vt 2.17844 1.33316
vt 2.35041 1.17204
vt 2.30666 1.22099
vt 2.41426 1.21155
vt 2.08574 1.21155
vt 2.19334 1.22099
vt 2.14959 1.17204
vt 2.25000 1.08022
vt 2.20082 1.12538
vt 2.29918 1.12538
vt 2.57970 1.06027
vt 2.60001 1.02242
vt 2.53731 1.14603
vt 2.55885 1.10199
vt 2.70914 1.06500
vt 2.63819 1.08403
vt 2.69521 1.10645
vt 2.39374 1.42229
vt 2.44290 1.33685
vt 2.66491 1.29209
vt 2.56297 1.32086
vt 2.66286 1.37544
vt 2.48052 1.26407
vt 2.50899 1.20516
vt 2.93719 1.13906
vt 2.89006 1.17410
vt 2.95703 1.19294
vt 2.76393 1.13225
vt 2.82436 1.15340
vt 2.81976 1.10420
vt 2.84318 1.28130
vt 2.83179 1.21200
vt 2.76393 1.24970
vt 2.60259 1.18307
vt 2.67970 1.21932
vt 2.68935 1.15749
vt 2.65472 1.00000
vt 2.76393 1.04165
vt 2.71051 1.02174
vt 2.71051 0.97826
vt 2.76393 0.95835
vt 3.00000 1.11104
vt 2.94098 1.09712
vt 2.94414 1.02104
vt 2.94304 1.05740
vt 3.00000 1.03541
vt 2.88240 1.08072
vt 2.82742 1.06356
vt 2.94098 0.90288
vt 3.00000 0.88896
vt 2.82742 0.93644
vt 2.88240 0.91928
vt 3.00000 0.96459
vt 2.94304 0.94260
vt 2.94414 0.97896
vt 2.82587 1.02143
vt 2.88704 1.00000
vt 2.82587 0.97857
vt 1.92030 0.93973
vt 1.89999 0.97758
vt 1.96269 0.85397
vt 1.94115 0.89801
vt 1.79086 0.93500
vt 1.86181 0.91597
vt 1.80479 0.89355
vt 2.10626 0.57771
vt 2.05710 0.66315
vt 1.83509 0.70791
vt 1.93703 0.67914
vt 1.83714 0.62456
vt 2.01948 0.73593
vt 1.99101 0.79484
vt 1.56281 0.86094
vt 1.60994 0.82590
vt 1.54297 0.80706
vt 1.73607 0.86775
vt 1.67564 0.84660
vt 1.68024 0.89580
vt 1.65682 0.71870
vt 1.66821 0.78800
vt 1.73607 0.75030
vt 1.89741 0.81693
vt 1.82030 0.78068
vt 1.81065 0.84251
vt 2.44040 0.47268
vt 2.25000 0.48761
vt 2.76393 0.56586
vt 2.62618 0.50540
vt 2.25000 0.18783
vt 2.53891 0.34604
vt 2.76393 0.23278
vt 0.04297 0.80706
vt 3.00000 0.76048
vt 0.12270 0.64411
vt 0.05425 0.70502
vt 0.15682 0.71870
vt 2.94575 0.70502
vt 2.87730 0.64411
vt 0.75000 0.48761
vt 0.55960 0.47268
vt 0.60626 0.57771
vt 0.23607 0.23278
vt 0.46109 0.34604
vt 0.75000 0.18783
vt 0.33714 0.62456
vt 0.37382 0.50540
vt 0.23607 0.56586
vt 2.91511 0.53385
vt 0.08489 0.53385
vt 3.00000 0.38511
vt 0.05902 0.90288
vt 0.06281 0.86094
vt 0.05586 0.97896
vt 0.05696 0.94260
vt 0.18024 0.89580
vt 0.11760 0.91928
vt 0.17258 0.93644
vt 0.06281 1.13906
vt 0.05902 1.09712
vt 0.17258 1.06356
vt 0.11760 1.08072
vt 0.18024 1.10420
vt 0.05696 1.05740
vt 0.05586 1.02104
vt 0.39999 0.97758
vt 0.34528 1.00000
vt 0.39999 1.02242
vt 0.23607 0.95835
vt 0.28949 0.97826
vt 0.29086 0.93500
vt 0.29086 1.06500
vt 0.28949 1.02174
vt 0.23607 1.04165
vt 0.11296 1.00000
vt 0.17413 1.02143
vt 0.17413 0.97857
vt 3.00000 1.23952
vt 0.04297 1.19294
vt 2.87730 1.35589
vt 2.94575 1.29498
vt 0.15682 1.28130
vt 0.05425 1.29498
vt 0.12270 1.35589
vt 2.25000 1.51239
vt 2.44040 1.52732
vt 2.76393 1.76722
vt 2.53891 1.65396
vt 2.25000 1.81217
vt 2.62618 1.49460
vt 2.76393 1.43414
vt 0.60626 1.42229
vt 0.55960 1.52732
vt 0.75000 1.51239
vt 0.23607 1.43414
vt 0.37382 1.49460
vt 0.33714 1.37544
vt 0.75000 1.81217
vt 0.46109 1.65396
vt 0.23607 1.76722
vt 2.91511 1.46615
vt 3.00000 1.61489
vt 0.08489 1.46615
vt 2.05710 1.33685
vt 2.10626 1.42229
vt 1.99101 1.20516
vt 2.01948 1.26407
vt 1.83714 1.37544
vt 1.93703 1.32086
vt 1.83509 1.29209
vt 1.89999 1.02242
vt 1.92030 1.06027
vt 1.80479 1.10645
vt 1.86181 1.08403
vt 1.79086 1.06500
vt 1.94115 1.10199
vt 1.96269 1.14603
vt 1.54297 1.19294
vt 1.60994 1.17410
vt 1.56281 1.13906
vt 1.73607 1.24970
vt 1.66821 1.21200
vt 1.65682 1.28130
vt 1.68024 1.10420
vt 1.67564 1.15340
vt 1.73607 1.13225
vt 1.89741 1.18307
vt 1.81065 1.15749
vt 1.82030 1.21932
vt 1.10001 0.97758
vt 1.07970 0.93973
vt 1.02254 0.96280
vt 1.19521 0.89355
vt 1.13819 0.91597
vt 1.20914 0.93500
vt 0.97499 0.88316
vt 1.05885 0.89801
vt 1.03731 0.85397
vt 1.45703 0.80706
vt 1.39006 0.82590
vt 1.43719 0.86094
vt 1.26393 0.75030
vt 1.33179 0.78800
vt 1.34318 0.71870
vt 1.31976 0.89580
vt 1.32436 0.84660
vt 1.26393 0.86775
vt 0.82156 0.66684
vt 0.94290 0.66315
vt 0.89374 0.57771
vt 1.00899 0.79484
vt 0.98052 0.73593
vt 0.91426 0.78845
vt 1.16286 0.62456
vt 1.06297 0.67914
vt 1.16491 0.70791
vt 1.18935 0.84251
vt 1.17970 0.78068
vt 1.10259 0.81693
vt 0.94964 0.96207
vt 0.97342 1.00000
vt 0.89227 0.88053
vt 0.92212 0.92171
vt 0.82560 1.00000
vt 0.87196 0.96126
vt 0.79544 0.96092
vt 0.67844 0.66684
vt 0.75000 0.72355
vt 0.64959 0.82796
vt 0.69334 0.77901
vt 0.58574 0.78845
vt 0.80666 0.77901
vt 0.85041 0.82796
vt 0.52658 1.00000
vt 0.55036 0.96207
vt 0.47746 0.96280
vt 0.70456 0.96092
vt 0.62804 0.96126
vt 0.67440 1.00000
vt 0.52501 0.88316
vt 0.57788 0.92171
vt 0.60773 0.88053
vt 0.79918 0.87462
vt 0.70082 0.87462
vt 0.75000 0.91978
vt 0.94964 1.03793
vt 1.02254 1.03720
vt 0.79544 1.03908
vt 0.87196 1.03874
vt 0.97499 1.11684
vt 0.92212 1.07829
vt 0.89227 1.11947
vt 0.47746 1.03720
vt 0.55036 1.03793
vt 0.60773 1.11947
vt 0.57788 1.07829
vt 0.52501 1.11684
vt 0.62804 1.03874
vt 0.70456 1.03908
vt 0.82156 1.33316
vt 0.75000 1.27645
vt 0.67844 1.33316
vt 0.85041 1.17204
vt 0.80666 1.22099
vt 0.91426 1.21155
vt 0.58574 1.21155
vt 0.69334 1.22099
vt 0.64959 1.17204
vt 0.75000 1.08022
vt 0.70082 1.12538
vt 0.79918 1.12538
vt 1.07970 1.06027
vt 1.10001 1.02242
vt 1.03731 1.14603
vt 1.05885 1.10199
vt 1.20914 1.06500
vt 1.13819 1.08403
vt 1.19521 1.10645
vt 0.89374 1.42229
vt 0.94290 1.33685
vt 1.16491 1.29209
vt 1.06297 1.32086
vt 1.16286 1.37544
vt 0.98052 1.26407
vt 1.00899 1.20516
vt 1.43719 1.13906
vt 1.39006 1.17410
vt 1.45703 1.19294
vt 1.26393 1.13225
vt 1.32436 1.15340
vt 1.31976 1.10420
vt 1.34318 1.28130
vt 1.33179 1.21200
vt 1.26393 1.24970
vt 1.10259 1.18307
vt 1.17970 1.21932
vt 1.18935 1.15749
vt 1.15472 1.00000
vt 1.26393 1.04165
vt 1.21051 1.02174
vt 1.21051 0.97826
vt 1.26393 0.95835
vt 1.50000 1.11104
vt 1.44098 1.09712
vt 1.44414 1.02104
vt 1.44304 1.05740
vt 1.50000 1.03541
vt 1.38240 1.08072
vt 1.32742 1.06356
vt 1.44098 0.90288
vt 1.50000 0.88896
vt 1.32742 0.93644
vt 1.38240 0.91928
vt 1.50000 0.96459
vt 1.44304 0.94260
vt 1.44414 0.97896
vt 1.32587 1.02143
vt 1.38704 1.00000
vt 1.32587 0.97857
vt 0.94040 0.47268
vt 1.26393 0.56586
vt 1.12618 0.50540
vt 1.03891 0.34604
vt 1.26393 0.23278
vt 1.50000 0.76048
vt 1.62270 0.64411
vt 1.55425 0.70502
vt 1.44575 0.70502
vt 1.37730 0.64411
vt 2.05960 0.47268
vt 1.73607 0.23278
vt 1.96109 0.34604
vt 1.87382 0.50540
vt 1.73607 0.56586
vt 1.41511 0.53385
vt 1.58489 0.53385
vt 1.50000 0.38511
vt 0.42030 0.93973
vt 0.46269 0.85397
vt 0.44115 0.89801
vt 0.36181 0.91597
vt 0.30479 0.89355
vt 0.55710 0.66315
vt 0.33509 0.70791
vt 0.43703 0.67914
vt 0.51948 0.73593
vt 0.49101 0.79484
vt 0.10994 0.82590
vt 0.23607 0.86775
vt 0.17564 0.84660
vt 0.16821 0.78800
vt 0.23607 0.75030
vt 0.39741 0.81693
vt 0.32030 0.78068
vt 0.31065 0.84251
vt 0.55710 1.33685
vt 0.49101 1.20516
vt 0.51948 1.26407
vt 0.43703 1.32086
vt 0.33509 1.29209
vt 0.42030 1.06027
vt 0.30479 1.10645
vt 0.36181 1.08403
vt 0.44115 1.10199
vt 0.46269 1.14603
vt 0.10994 1.17410
vt 0.23607 1.24970
vt 0.16821 1.21200
vt 0.17564 1.15340
vt 0.23607 1.13225
vt 0.39741 1.18307
vt 0.31065 1.15749
vt 0.32030 1.21932
vt 1.50000 1.23952
vt 1.37730 1.35589
vt 1.44575 1.29498
vt 1.55425 1.29498
vt 1.62270 1.35589
vt 0.94040 1.52732
vt 1.26393 1.76722
vt 1.03891 1.65396
vt 1.12618 1.49460
vt 1.26393 1.43414
vt 2.05960 1.52732
vt 1.73607 1.43414
vt 1.87382 1.49460
vt 1.96109 1.65396
vt 1.73607 1.76722
vt 1.41511 1.46615
vt 1.50000 1.61489
vt 1.58489 1.46615
vt 1.55902 0.90288
vt 1.55586 0.97896
vt 1.55696 0.94260
vt 1.61760 0.91928
vt 1.67258 0.93644
vt 1.55902 1.09712
vt 1.67258 1.06356
vt 1.61760 1.08072
vt 1.55696 1.05740
vt 1.55586 1.02104
vt 1.84528 1.00000
vt 1.73607 0.95835
vt 1.78949 0.97826
vt 1.78949 1.02174
vt 1.73607 1.04165
vt 1.61296 1.00000
vt 1.67413 1.02143
vt 1.67413 0.97857
vn -0.37987 0.92504 -0.00098
vn 0.02823 0.84238 0.53815
vn -0.54403 -0.67984 0.49178
vn 0.49171 -0.83968 0.23055
vn -0.05485 -0.32336 0.94468
vn 0.22468 0.15423 0.96215
vn -0.10652 -0.15482 -0.98218
vn -0.23156 0.18879 -0.95432
vn 0.29060 -0.00932 -0.95680
vn 0.60210 0.28918 0.74421
vn -0.52598 0.13951 -0.83898
vn -0.75845 -0.28278 0.58719
vn -0.83437 0.42949 0.34550
vn -0.35392 0.26568 0.89675
vn -0.10416 0.66937 0.73559
vn 0.28206 0.77126 0.57062
vn 0.14842 0.98821 -0.03753
vn 0.20681 0.56304 -0.80014
vn -0.34312 0.49771 -0.79659
vn -0.16172 0.14689 -0.97584
vn -0.36193 0.39560 -0.84410
vn -0.82937 -0.38114 0.40851
vn 0.19976 0.20466 0.95823
vn 0.57033 0.26501 0.77749
vn -0.05306 -0.45946 0.88661
vn 0.00315 -0.10064 0.99492
vn -0.68046 -0.47636 -0.55683
vn -0.62098 -0.47173 0.62598
vn -0.08262 0.07368 -0.99385
vn -0.26144 -0.00312 -0.96522
vn 0.55501 0.55335 -0.62111
vn 0.06502 0.02029 -0.99768
vn 0.38821 -0.52372 0.75830
vn 0.00433 -0.14971 0.98872
vn 0.03311 -0.50637 0.86168
vn -0.13545 -0.52385 0.84097
vn -0.19841 -0.78306 0.58944
vn -0.28615 -0.28505 -0.91480
vn 0.09915 -0.53892 -0.83650
vn 0.04908 0.00589 -0.99878
vn 0.77276 -0.62320 -0.12027
vn 0.99045 -0.04814 0.12923
vn -0.57700 0.72304 0.37985
vn -0.54250 0.67727 0.49698
vn -0.33902 0.93581 -0.09661
vn -0.51096 -0.06497 0.85714
vn -0.48266 0.51074 0.71147
vn -0.95793 0.10786 -0.26595
vn -0.13965 0.62290 0.76974
vn -0.26955 0.47481 0.83779
vn -0.05500 0.28138 0.95802
vn -0.01012 0.98008 0.19835
vn -0.12858 0.95487 0.26774
vn 0.22288 0.31898 0.92118
vn 0.07062 0.91283 0.40219
vn 0.11569 0.90584 0.40752
vn 0.19872 0.93918 0.28009
vn 0.20275 0.97108 0.12607
vn -0.03636 0.68591 -0.72678
vn -0.24161 0.42921 -0.87029
vn 0.19064 0.80414 -0.56304
vn -0.06423 0.99552 0.06931
vn -0.11227 0.10320 -0.98830
vn -0.16988 0.58111 -0.79590
vn -0.12282 0.29943 -0.94618
vn -0.21454 0.29157 -0.93218
vn -0.45984 0.38545 -0.79999
vn -0.20205 0.12157 -0.97180
vn -0.26308 0.10429 -0.95912
vn -0.22428 0.06366 -0.97244
vn -0.18978 0.13595 -0.97237
vn -0.21161 0.22500 -0.95110
vn -0.80943 0.35294 -0.46931
vn -0.63506 -0.23926 -0.73448
vn -0.93817 0.25349 -0.23574
vn -0.87020 0.03026 0.49176
vn -0.95654 -0.05247 -0.28684
vn 0.24858 0.54904 0.79798
vn 0.30835 0.71833 0.62363
vn 0.13193 0.25009 0.95919
vn 0.19204 0.30715 0.93208
vn 0.67661 0.23759 0.69696
vn 0.28756 0.26327 0.92087
vn 0.24603 0.18903 0.95065
vn 0.03584 -0.07536 0.99651
vn 0.17459 0.14391 0.97407
vn -0.49664 -0.35004 0.79424
vn -0.21597 -0.24060 0.94629
vn -0.06098 -0.38255 0.92192
vn -0.06864 -0.40978 0.90960
vn -0.16233 -0.30762 0.93756
vn -0.86051 -0.31972 -0.39662
vn -0.71636 -0.55215 0.42657
vn -0.50829 -0.43453 -0.74352
vn -0.90961 -0.37023 0.18851
vn -0.46803 -0.87026 0.15360
vn -0.72253 -0.41615 -0.55206
vn -0.78243 -0.56009 -0.27221
vn -0.11655 0.05311 -0.99176
vn -0.13697 -0.15398 -0.97853
vn -0.10376 -0.07091 -0.99207
vn -0.12320 0.00875 -0.99234
vn -0.05714 -0.14775 -0.98737
vn -0.09895 0.09317 -0.99072
vn -0.02594 -0.02649 -0.99931
vn 0.13806 0.23175 -0.96293
vn 0.01102 -0.00476 -0.99993
vn 0.47208 0.86615 -0.16407
vn 0.04333 0.75558 -0.65362
vn 0.14721 0.05333 -0.98767
vn 0.15019 0.07463 -0.98584
vn 0.38503 0.05853 -0.92105
vn 0.33157 -0.92875 -0.16580
vn 0.14007 -0.54710 0.82527
vn 0.12702 -0.89801 0.42124
vn 0.20246 0.03510 0.97866
vn 0.27066 -0.53108 0.80293
vn 0.59599 -0.14702 0.78942
vn -0.01686 -0.36560 0.93062
vn -0.01128 -0.44695 0.89449
vn -0.01960 -0.29608 0.95496
vn -0.02587 -0.81815 0.57442
vn 0.14894 -0.74807 0.64669
vn -0.14988 -0.52743 0.83628
vn -0.15803 -0.45167 0.87808
vn -0.23969 -0.75961 0.60460
vn -0.23441 -0.74189 0.62821
vn -0.28041 -0.69667 0.66032
vn -0.01568 -0.73527 -0.67760
vn 0.42069 -0.86592 -0.27056
vn -0.50726 -0.66223 -0.55149
vn -0.20823 -0.95985 -0.18794
vn -0.10309 -0.24473 -0.96410
vn -0.05466 -0.46130 -0.88556
vn -0.12576 -0.19933 -0.97183
vn 0.23415 -0.53369 -0.81262
vn 0.53134 -0.80831 0.25360
vn -0.07015 -0.02210 -0.99729
vn 0.12262 -0.35363 -0.92731
vn 0.43107 -0.22657 -0.87341
vn 0.23229 -0.16926 -0.95781
vn 0.23812 -0.08335 -0.96765
vn 0.49716 -0.63639 -0.58978
vn 0.93360 -0.07062 -0.35129
vn 0.87876 -0.37764 -0.29183
vn 0.99547 -0.09497 0.00467
vn 0.72757 0.29318 0.62024
vn 0.07118 -0.25423 0.96452
vn 0.26072 -0.00507 0.96540
vn 0.09943 0.17157 0.98014
vn -0.35183 -0.62184 0.69966
vn -0.06597 -0.41312 0.90829
vn -0.45468 -0.49305 0.74173
vn -0.24993 -0.35248 -0.90183
vn -0.45013 -0.38890 -0.80383
vn -0.41161 -0.23044 -0.88175
vn -0.03092 0.02207 -0.99928
vn 0.00958 0.03060 -0.99949
vn 0.00606 -0.07720 -0.99700
vn 0.50303 0.12412 0.85531
vn 0.96225 -0.13363 -0.23710
vn 0.50796 0.62978 0.58766
vn -0.41086 0.90764 0.08591
vn -0.40987 0.86470 0.29036
vn -0.28054 0.93697 0.20828
vn -0.60654 0.61514 0.50370
vn -0.51949 0.68881 0.50565
vn -0.66647 0.57251 0.47755
vn -0.30366 0.92666 0.22156
vn -0.50005 0.80298 0.32429
vn -0.40638 0.67046 0.62076
vn -0.60474 -0.23187 0.76192
vn -0.79126 0.04041 0.61014
vn -0.99432 -0.07501 0.07546
vn -0.32324 0.34886 0.87967
vn -0.47836 0.19731 0.85571
vn -0.38352 0.12870 0.91452
vn -0.96868 0.23405 -0.08294
vn -0.86430 0.34208 0.36873
vn -0.72760 0.60481 0.32373
vn 0.06204 0.41152 0.90929
vn -0.14022 0.53077 0.83584
vn 0.11243 0.21880 0.96927
vn -0.19006 0.46523 0.86454
vn -0.20567 0.56430 0.79954
vn -0.08719 0.58278 0.80794
vn -0.23688 0.31319 0.91967
vn -0.28627 0.55920 0.77804
vn -0.33410 0.49689 0.80093
vn -0.52092 0.62932 0.57671
vn -0.28682 0.47547 0.83166
vn -0.34502 0.50693 0.78992
vn -0.21708 0.96276 0.16117
vn -0.29672 0.90481 0.30541
vn 0.01803 0.94000 0.34070
vn -0.15479 0.98214 -0.10700
vn -0.03778 0.99617 0.07887
vn -0.15585 0.96915 0.19093
vn 0.02008 0.97781 0.20853
vn 0.24245 0.22531 0.94364
vn 0.09219 0.56358 0.82090
vn 0.06870 0.89941 0.43168
vn 0.09807 0.69201 0.71520
vn 0.17694 0.48053 0.85894
vn -0.02580 0.72695 0.68620
vn 0.02088 0.79429 0.60718
vn -0.02975 0.77633 0.62963
vn 0.17138 0.92650 0.33499
vn -0.03174 0.77746 0.62814
vn 0.20038 0.96529 0.16755
vn 0.31418 0.93680 0.15395
vn 0.24591 0.96927 0.00689
vn 0.36011 0.92897 0.08566
vn 0.26456 0.95613 -0.12582
vn 0.10033 0.98838 0.11418
vn 0.11571 0.90824 0.40213
vn 0.09091 0.95275 0.28985
vn 0.12469 0.88686 0.44490
vn -0.21215 0.89872 -0.38378
vn -0.43405 0.78152 -0.44813
vn 0.07831 0.90039 -0.42797
vn -0.04514 0.91661 -0.39722
vn -0.17483 0.31770 -0.93193
vn -0.08681 0.52508 -0.84662
vn -0.17499 0.49165 -0.85303
vn 0.13240 0.99073 -0.03051
vn -0.01733 0.94443 0.32826
vn 0.10398 0.75451 -0.64800
vn 0.08263 0.99219 -0.09340
vn 0.20763 0.57293 -0.79287
vn 0.03029 0.95751 0.28682
vn 0.10731 0.98011 -0.16692
vn -0.17621 0.18318 -0.96716
vn -0.11840 0.16195 -0.97967
vn -0.21210 0.25804 -0.94256
vn -0.31697 0.63163 -0.70751
vn -0.12254 0.25078 -0.96026
vn -0.24641 0.30087 -0.92128
vn 0.02442 0.42657 -0.90412
vn -0.05976 0.27378 -0.95994
vn 0.03379 0.51116 -0.85882
vn -0.05783 0.91475 -0.39986
vn -0.15666 0.89011 -0.42797
vn -0.22787 0.75722 -0.61213
vn -0.33664 0.42892 -0.83827
vn -0.43215 0.72814 -0.53203
vn -0.26842 0.34947 -0.89768
vn -0.21401 0.27566 -0.93713
vn -0.46804 0.41314 -0.78119
vn -0.29781 0.32190 -0.89872
vn -0.25851 0.29328 -0.92041
vn -0.21705 0.14784 -0.96490
vn -0.15014 0.10670 -0.98289
vn -0.24085 0.13794 -0.96071
vn -0.17640 0.08191 -0.98090
vn -0.16707 0.11477 -0.97924
vn -0.17261 0.10894 -0.97895
vn -0.33611 0.28572 -0.89744
vn -0.35718 0.14671 -0.92244
vn -0.28765 0.26187 -0.92124
vn -0.34153 0.21784 -0.91428
vn -0.18367 0.16275 -0.96942
vn -0.18178 0.10932 -0.97724
vn -0.24272 0.15194 -0.95813
vn -0.15254 0.20138 -0.96756
vn -0.24485 0.27625 -0.92937
vn -0.23718 0.22195 -0.94577
vn -0.27355 0.21065 -0.93851
vn -0.24169 0.11825 -0.96312
vn -0.19916 0.16002 -0.96681
vn -0.63893 0.63473 -0.43462
vn -0.64940 0.52833 -0.54694
vn -0.61718 0.36584 -0.69660
vn -0.80660 0.54558 -0.22746
vn -0.94687 0.30542 0.10081
vn -0.53290 0.00274 -0.84618
vn -0.36742 -0.03679 -0.92933
vn -0.95898 -0.12324 0.25529
vn -0.74107 -0.12815 -0.65909
vn -0.87579 -0.45909 -0.14911
vn -0.42688 0.07833 -0.90091
vn -0.65811 0.45491 -0.59995
vn -0.91794 0.01064 -0.39658
vn -0.97821 -0.08135 -0.19103
vn -0.98596 0.08054 0.14629
vn -0.99683 -0.00072 -0.07956
vn -0.91463 -0.25956 0.30998
vn -0.97147 -0.07135 0.22617
vn -0.81711 -0.12595 0.56256
vn -0.87272 0.47392 -0.11730
vn -0.90930 0.16232 0.38317
vn -0.96781 0.22952 0.10326
vn 0.05350 0.73479 0.67618
vn 0.15215 0.83845 0.52331
vn 0.42381 0.64197 0.63896
vn 0.26706 0.79226 0.54864
vn 0.45175 0.49958 0.73915
vn 0.15006 0.58786 0.79492
vn 0.23745 0.42414 0.87391
vn 0.23565 0.14851 0.96042
vn 0.22251 0.19143 0.95595
vn 0.16718 0.27539 0.94668
vn 0.09734 0.25267 0.96264
vn 0.10034 0.25051 0.96290
vn 0.17069 0.21845 0.96081
vn 0.28634 0.39692 0.87204
vn 0.59158 0.31321 0.74292
vn 0.37088 0.20810 0.90507
vn 0.32785 0.27269 0.90452
vn 0.33380 0.30114 0.89325
vn 0.38990 0.20561 0.89761
vn 0.65895 0.16364 0.73417
vn 0.34537 0.13820 0.92824
vn 0.28938 0.19056 0.93806
vn 0.32295 0.22914 0.91826
vn 0.33583 0.45751 0.82335
vn 0.29047 0.35222 0.88970
vn 0.25788 0.39977 0.87959
vn 0.13538 0.09101 0.98660
vn 0.22739 0.12335 0.96596
vn -0.14426 0.04925 0.98831
vn 0.02398 0.08288 0.99627
vn 0.06577 0.05837 0.99613
vn 0.08898 0.00942 0.99599
vn 0.01992 -0.07956 0.99663
vn -0.51956 -0.29987 0.80009
vn -0.54525 -0.30532 0.78070
vn -0.12732 -0.40848 0.90384
vn -0.44617 -0.35581 0.82118
vn -0.29464 -0.43416 0.85129
vn -0.46052 -0.12517 0.87878
vn -0.29962 0.01785 0.95389
vn -0.05267 -0.28557 0.95691
vn -0.13554 -0.34391 0.92917
vn -0.13918 -0.28974 0.94693
vn -0.05003 -0.24371 0.96856
vn -0.09218 -0.41326 0.90593
vn -0.03422 -0.31094 0.94981
vn -0.03488 -0.40289 0.91458
vn -0.10640 -0.43737 0.89296
vn -0.01733 -0.44721 0.89426
vn -0.08135 -0.15799 0.98408
vn -0.03932 -0.33779 0.94040
vn -0.01253 -0.22845 0.97347
vn -0.94089 -0.27887 -0.19222
vn -0.73300 -0.32988 0.59489
vn -0.86566 -0.50062 -0.00120
vn -0.83574 -0.26410 -0.48145
vn -0.72089 -0.56463 0.40188
vn -0.83704 -0.44066 -0.32432
vn -0.93742 -0.34471 -0.04912
vn -0.55495 -0.12397 -0.82260
vn -0.76714 -0.21206 -0.60541
vn -0.65349 -0.59754 -0.46464
vn -0.77797 -0.49439 -0.38775
vn -0.51923 -0.55435 -0.65045
vn -0.89420 -0.42365 -0.14464
vn -0.81103 -0.55008 0.19911
vn -0.56042 -0.75189 0.34725
vn -0.61809 -0.78233 -0.07701
vn -0.68686 -0.66174 0.30054
vn -0.90299 -0.41822 0.09850
vn -0.64087 -0.71960 -0.26730
vn -0.54317 -0.65204 0.52897
vn -0.75967 -0.38923 -0.52096
vn -0.69502 -0.48041 -0.53492
vn -0.64521 -0.48673 -0.58889
vn -0.94242 -0.30265 0.14232
vn -0.88633 -0.41699 -0.20137
vn -0.97478 -0.17425 -0.13947
vn -0.13130 0.01563 -0.99122
vn -0.28550 -0.05546 -0.95677
vn -0.10651 0.06260 -0.99234
vn -0.08541 0.05298 -0.99494
vn -0.22997 -0.06288 -0.97116
vn -0.11710 -0.03127 -0.99263
vn -0.19231 0.03713 -0.98063
vn -0.16793 0.05834 -0.98407
vn -0.19159 0.06204 -0.97951
vn -0.08337 0.03285 -0.99598
vn -0.11305 -0.05951 -0.99181
vn -0.09354 -0.04682 -0.99451
vn -0.18358 0.06576 -0.98080
vn -0.15206 0.06439 -0.98627
vn -0.03130 -0.20237 -0.97881
vn -0.05252 -0.09125 -0.99444
vn -0.04848 -0.14113 -0.98880
vn -0.16746 0.04375 -0.98491
vn -0.09121 -0.02160 -0.99560
vn -0.15584 -0.06065 -0.98592
vn -0.05383 0.06173 -0.99664
vn -0.06060 0.04039 -0.99734
vn -0.07840 0.10029 -0.99186
vn -0.12753 0.05543 -0.99028
vn -0.09567 0.08528 -0.99175
vn -0.14463 0.10180 -0.98424
vn -0.09230 0.23374 -0.96791
vn -0.14022 0.10352 -0.98469
vn 0.11276 0.56607 -0.81661
vn 0.01051 0.36303 -0.93172
vn 0.13806 -0.05668 -0.98880
vn 0.10760 0.09615 -0.98953
vn 0.13810 0.02353 -0.99014
vn 0.39203 0.89074 -0.22998
vn 0.29722 0.79082 -0.53503
vn 0.32785 0.74340 -0.58299
vn 0.23692 0.92598 -0.29400
vn 0.42134 0.88826 0.18294
vn 0.14660 0.67120 -0.72663
vn 0.12417 0.66962 -0.73225
vn 0.28343 -0.01302 -0.95891
vn 0.35860 0.08295 -0.92980
vn 0.35787 0.10739 -0.92758
vn 0.07188 0.07019 -0.99494
vn 0.14711 0.10570 -0.98346
vn 0.01884 0.08865 -0.99588
vn 0.39804 0.02663 -0.91698
vn 0.31949 0.02727 -0.94720
vn 0.32748 0.14448 -0.93374
vn 0.06392 0.48739 -0.87084
vn 0.12836 0.30046 -0.94512
vn 0.08927 0.10973 -0.98994
vn 0.36648 -0.90400 -0.22018
vn 0.28181 -0.94944 0.13834
vn 0.33381 -0.92185 0.19689
vn 0.25132 -0.54401 0.80056
vn 0.28727 -0.82861 0.48050
vn 0.39783 -0.88333 0.24791
vn 0.09618 -0.76857 0.63250
vn 0.15931 -0.75391 0.63737
vn 0.10644 -0.50670 0.85553
vn 0.39239 0.12783 0.91087
vn 0.50798 -0.12964 0.85156
vn 0.69670 0.04047 0.71622
vn 0.08547 -0.32133 0.94310
vn 0.28521 -0.24811 0.92580
vn 0.06351 -0.04727 0.99686
vn 0.41352 -0.30068 0.85941
vn 0.45529 -0.42881 0.78028
vn 0.29906 -0.43407 0.84979
vn 0.00976 -0.45665 0.88959
vn -0.01885 -0.43137 0.90198
vn -0.00390 -0.33126 0.94353
vn 0.03198 -0.36469 0.93058
vn -0.05416 -0.36995 0.92747
vn -0.04208 -0.30677 0.95085
vn -0.02469 -0.24541 0.96910
vn -0.05113 -0.38339 0.92217
vn -0.01846 -0.33530 0.94193
vn 0.20047 -0.49391 0.84609
vn 0.07815 -0.50000 0.86249
vn 0.06767 -0.47001 0.88006
vn 0.13640 -0.77712 0.61440
vn 0.37185 -0.76654 0.52359
vn 0.00370 -0.79189 0.61065
vn 0.05862 -0.84808 0.52661
vn -0.01254 -0.74923 0.66219
vn 0.05713 -0.69270 0.71896
vn -0.07900 -0.68454 0.72468
vn -0.08264 -0.41870 0.90436
vn -0.04858 -0.47005 0.88130
vn -0.21797 -0.44177 0.87025
vn -0.15109 -0.43590 0.88722
vn -0.18442 -0.54583 0.81735
vn -0.07665 -0.32707 0.94189
vn -0.05933 -0.48127 0.87456
vn -0.32979 -0.73610 0.59110
vn -0.25977 -0.76797 0.58544
vn -0.43587 -0.70841 0.55513
vn -0.18808 -0.69447 0.69451
vn -0.24071 -0.72717 0.64287
vn -0.28071 -0.79196 0.54222
vn -0.17400 -0.64240 0.74635
vn -0.20821 -0.68789 0.69531
vn -0.24743 -0.58722 0.77068
vn -0.10205 -0.73682 0.66835
vn -0.22636 -0.67047 0.70656
vn -0.15307 -0.77506 0.61306
vn 0.34633 -0.90826 0.23479
vn 0.53860 -0.76402 0.35521
vn -0.18396 -0.97834 0.09488
vn 0.12901 -0.97444 0.18389
vn 0.10295 -0.57367 -0.81259
vn 0.15611 -0.75938 -0.63164
vn 0.05606 -0.55039 -0.83303
vn -0.59109 -0.78558 0.18295
vn -0.39523 -0.85258 0.34192
vn -0.28491 -0.50117 -0.81710
vn -0.44771 -0.81252 -0.37332
vn -0.39152 -0.42778 -0.81469
vn -0.24028 -0.85335 0.46266
vn -0.24121 -0.93717 0.25204
vn -0.15295 -0.14990 -0.97680
vn -0.13759 -0.17490 -0.97492
vn -0.10466 -0.18249 -0.97762
vn 0.05531 -0.58297 -0.81061
vn -0.07325 -0.30741 -0.94875
vn 0.05887 -0.45769 -0.88716
vn -0.21170 -0.23485 -0.94870
vn -0.14469 -0.21480 -0.96588
vn -0.19989 -0.33414 -0.92108
vn -0.11878 -0.88322 -0.45366
vn -0.08705 -0.65630 -0.74946
vn 0.01700 -0.64063 -0.76766
vn 0.48806 -0.83660 0.24878
vn 0.45846 -0.85462 0.24380
vn 0.12610 -0.47840 -0.86904
vn 0.33804 -0.75287 -0.56473
vn 0.63303 -0.74971 0.19288
vn 0.51864 -0.85410 -0.03914
vn 0.50462 -0.68597 -0.52422
vn -0.11293 -0.08686 -0.98980
vn -0.08861 -0.13775 -0.98649
vn 0.09700 -0.14157 -0.98517
vn -0.01669 -0.14349 -0.98951
vn -0.03383 0.00479 -0.99942
vn 0.02609 -0.30894 -0.95072
vn 0.13249 -0.48615 -0.86377
vn 0.29966 -0.09382 -0.94942
vn 0.21732 -0.09504 -0.97146
vn 0.21624 -0.08746 -0.97242
vn 0.41479 -0.33532 -0.84588
vn 0.30023 -0.11121 -0.94736
vn 0.69557 -0.40562 -0.59300
vn 0.17468 -0.02828 -0.98422
vn 0.26050 -0.05533 -0.96389
vn 0.21916 -0.10193 -0.97035
vn 0.16422 -0.42930 -0.88810
vn 0.21243 -0.30093 -0.92969
vn 0.20569 -0.36266 -0.90894
vn 0.40632 -0.88030 -0.24491
vn 0.68111 -0.70830 -0.18549
vn 0.51841 -0.81182 -0.26870
vn 0.40691 -0.79294 -0.45351
vn 0.57258 -0.79280 -0.20885
vn 0.48712 0.00935 -0.87328
vn 0.72818 -0.22060 -0.64891
vn 0.99043 -0.08389 -0.10963
vn 0.97038 -0.24069 -0.02057
vn 0.97494 -0.14429 0.16934
vn 0.79251 -0.42811 -0.43435
vn 0.77872 -0.57567 -0.24941
vn 0.67729 0.13323 0.72356
vn 0.75746 0.26871 0.59502
vn 0.75013 -0.41314 0.51635
vn 0.67166 -0.09765 0.73439
vn 0.87727 0.20746 0.43284
vn 0.87587 0.15277 0.45773
vn 0.96920 0.03446 -0.24386
vn 0.63773 -0.51221 -0.57527
vn 0.87300 -0.17610 -0.45482
vn 0.70666 -0.47477 -0.52461
vn -0.01942 -0.32927 0.94403
vn 0.06610 -0.22744 0.97155
vn 0.02393 -0.32167 0.94655
vn 0.00626 -0.35537 0.93470
vn 0.04522 -0.16594 0.98510
vn 0.16968 0.19031 0.96695
vn 0.27059 0.12324 0.95477
vn 0.26598 0.12884 0.95533
vn 0.12550 0.08181 0.98871
vn 0.11101 -0.07544 0.99095
vn 0.15865 0.19804 0.96727
vn 0.07391 0.05715 0.99563
vn 0.11767 0.19567 0.97358
vn 0.09434 0.24487 0.96496
vn 0.13970 0.20435 0.96888
vn 0.16644 -0.14715 0.97501
vn 0.17532 0.09002 0.98039
vn 0.09003 -0.04652 0.99485
vn -0.45464 -0.81586 0.35731
vn -0.12827 -0.58886 0.79800
vn -0.30393 -0.77488 0.55424
vn -0.43418 -0.74894 0.50057
vn -0.50276 -0.54742 0.66901
vn -0.19260 -0.33439 0.92255
vn -0.04254 -0.35292 0.93468
vn -0.10980 -0.32215 0.94030
vn -0.15792 -0.44808 0.87993
vn -0.08714 -0.51401 0.85334
vn -0.52592 -0.41219 0.74398
vn -0.52753 -0.54210 0.65410
vn -0.51930 -0.54272 0.66014
vn -0.43411 -0.48285 0.76053
vn -0.20739 -0.44553 0.87091
vn -0.16046 -0.53622 0.82869
vn -0.19330 -0.43454 0.87966
vn -0.42722 -0.55200 0.71609
vn -0.05339 -0.25279 -0.96605
vn -0.24257 -0.36763 -0.89778
vn -0.12060 -0.32315 -0.93863
vn -0.10914 -0.23105 -0.96680
vn -0.27909 -0.15276 -0.94804
vn -0.67676 -0.63022 -0.38054
vn -0.64989 -0.37526 -0.66093
vn -0.64983 -0.41061 -0.63963
vn -0.43274 -0.45117 -0.78051
vn -0.28604 -0.33463 -0.89789
vn -0.27267 -0.29906 -0.91445
vn -0.33751 -0.10323 -0.93564
vn -0.26175 -0.19457 -0.94532
vn -0.37438 -0.38458 -0.84377
vn -0.58598 -0.37381 -0.71896
vn -0.31792 -0.38053 -0.86841
vn -0.46071 -0.30989 -0.83170
vn -0.37754 -0.25354 -0.89061
vn 0.18763 -0.07945 -0.97902
vn -0.01057 0.05045 -0.99867
vn 0.08935 -0.00507 -0.99599
vn 0.02190 0.03164 -0.99926
vn 0.00705 0.03374 -0.99941
vn -0.02315 -0.03803 -0.99901
vn -0.01875 0.04124 -0.99897
vn -0.00329 -0.00507 -0.99998
vn -0.04271 0.00970 -0.99904
vn -0.03062 0.05248 -0.99815
vn -0.07684 -0.03885 -0.99629
vn 0.06558 -0.03337 -0.99729
vn 0.03037 -0.07325 -0.99685
vn -0.07125 -0.09694 -0.99274
vn -0.05443 0.00207 -0.99852
vn -0.01140 0.04706 -0.99883
vn 0.00610 -0.00096 -0.99998
vn 0.01046 -0.02691 -0.99958
vn 0.71822 0.31732 0.61925
vn 0.74418 0.03016 0.66729
vn 0.65707 0.23504 0.71625
vn 0.68682 0.22022 0.69266
vn 0.63004 0.14803 0.76233
vn 0.56587 0.10271 -0.81807
vn 0.65681 0.30925 -0.68772
vn 0.48280 -0.02657 -0.87533
vn 0.91749 -0.11385 -0.38112
vn 0.93528 -0.20788 0.28641
vn 0.57413 0.81022 -0.11799
vn 0.69457 0.35813 0.62395
vn 0.71650 0.67937 0.15837
vn 0.54058 0.82849 0.14619
vn 0.50913 0.82989 0.22819
vn 0.63638 0.00782 0.77134
vn 0.66694 0.45739 0.58821
vn 0.46645 0.24373 0.85030
f 1/1/1 163/163/163 165/165/165
f 43/43/43 164/164/164 163/163/163
f 45/45/45 165/165/165 164/164/164
f 163/163/163 164/164/164 165/165/165
f 13/13/13 166/166/166 168/168/168
f 44/44/44 167/167/167 166/166/166
f 43/43/43 168/168/168 167/167/167
f 166/166/166 167/167/167 168/168/168
f 15/15/15 169/169/169 171/171/171
f 45/45/45 170/170/170 169/169/169
f 44/44/44 171/171/171 170/170/170
f 169/169/169 170/170/170 171/171/171
f 43/43/43 167/167/167 164/164/164
f 44/44/44 170/170/170 167/167/167
f 45/45/45 164/164/164 170/170/170
f 167/167/167 170/170/170 164/164/164
f 12/12/12 172/172/172 174/174/174
f 46/46/46 173/173/173 172/172/172
f 48/48/48 174/174/174 173/173/173
f 172/172/172 173/173/173 174/174/174
f 14/14/14 175/175/175 177/177/177
f 47/47/47 176/176/176 175/175/175
f 46/46/46 177/177/177 176/176/176
f 175/175/175 176/176/176 177/177/177
f 13/13/13 178/178/178 180/180/180
f 48/48/48 179/179/179 178/178/178
f 47/47/47 180/180/180 179/179/179
f 178/178/178 179/179/179 180/180/180
f 46/46/46 176/176/176 173/173/173
f 47/47/47 179/179/179 176/176/176
f 48/48/48 173/173/173 179/179/179
f 176/176/176 179/179/179 173/173/173
f 6/6/6 181/181/181 183/183/183
f 49/49/49 182/182/182 181/181/181
f 51/51/51 183/183/183 182/182/182
f 181/181/181 182/182/182 183/183/183
f 15/15/15 184/184/184 186/186/186
f 50/50/50 185/185/185 184/184/184
f 49/49/49 186/186/186 185/185/185
f 184/184/184 185/185/185 186/186/186
f 14/14/14 187/187/187 189/189/189
f 51/51/51 188/188/188 187/187/187
f 50/50/50 189/189/189 188/188/188
f 187/187/187 188/188/188 189/189/189
f 49/49/49 185/185/185 182/182/182
f 50/50/50 188/188/188 185/185/185
f 51/51/51 182/182/182 188/188/188
f 185/185/185 188/188/188 182/182/182
f 13/13/13 180/180/180 166/166/166
f 47/47/47 190/190/190 180/180/180
f 44/44/44 166/166/166 190/190/190
f 180/180/180 190/190/190 166/166/166
f 14/14/14 189/189/189 175/175/175
f 50/50/50 191/191/191 189/189/189
f 47/47/47 175/175/175 191/191/191
f 189/189/189 191/191/191 175/175/175
f 15/15/15 171/171/171 184/184/184
f 44/44/44 192/192/192 171/171/171
f 50/50/50 184/184/184 192/192/192
f 171/171/171 192/192/192 184/184/184
f 47/47/47 191/191/191 190/190/190
f 50/50/50 192/192/192 191/191/191
f 44/44/44 190/190/190 192/192/192
f 191/191/191 192/192/192 190/190/190
f 1/1/1 165/165/165 194/194/194
f 45/45/45 193/193/193 165/165/165
f 53/53/53 194/194/194 193/193/193
f 165/165/165 193/193/193 194/194/194
f 15/15/15 195/195/195 169/169/169
f 52/52/52 196/196/196 195/195/195
f 45/45/45 169/169/169 196/196/196
f 195/195/195 196/196/196 169/169/169
f 17/17/17 197/197/197 199/199/199
f 53/53/53 198/198/198 197/197/197
f 52/52/52 199/199/199 198/198/198
f 197/197/197 198/198/198 199/199/199
f 45/45/45 196/196/196 193/193/193
f 52/52/52 198/198/198 196/196/196
f 53/53/53 193/193/193 198/198/198
f 196/196/196 198/198/198 193/193/193
f 6/6/6 200/200/200 181/181/181
f 54/54/54 201/201/201 200/200/200
f 49/49/49 181/181/181 201/201/201
f 200/200/200 201/201/201 181/181/181
f 16/16/16 202/202/202 204/204/204
f 55/55/55 203/203/203 202/202/202
f 54/54/54 204/204/204 203/203/203
f 202/202/202 203/203/203 204/204/204
f 15/15/15 186/186/186 206/206/206
f 49/49/49 205/205/205 186/186/186
f 55/55/55 206/206/206 205/205/205
f 186/186/186 205/205/205 206/206/206
f 54/54/54 203/203/203 201/201/201
f 55/55/55 205/205/205 203/203/203
f 49/49/49 201/201/201 205/205/205
f 203/203/203 205/205/205 201/201/201
f 2/2/2 207/207/207 209/209/209
f 56/56/56 208/208/208 207/207/207
f 58/58/58 209/209/209 208/208/208
f 207/207/207 208/208/208 209/209/209
f 17/17/17 210/210/210 212/212/212
f 57/57/57 211/211/211 210/210/210
f 56/56/56 212/212/212 211/211/211
f 210/210/210 211/211/211 212/212/212
f 16/16/16 213/213/213 215/215/215
f 58/58/58 214/214/214 213/213/213
f 57/57/57 215/215/215 214/214/214
f 213/213/213 214/214/214 215/215/215
f 56/56/56 211/211/211 208/208/208
f 57/57/57 214/214/214 211/211/211
f 58/58/58 208/208/208 214/214/214
f 211/211/211 214/214/214 208/208/208
f 15/15/15 206/206/206 195/195/195
f 55/55/55 216/216/216 206/206/206
f 52/52/52 195/195/195 216/216/216
f 206/206/206 216/216/216 195/195/195
f 16/16/16 215/215/215 202/202/202
f 57/57/57 217/217/217 215/215/215
f 55/55/55 202/202/202 217/217/217
f 215/215/215 217/217/217 202/202/202
f 17/17/17 199/199/199 210/210/210
f 52/52/52 218/218/218 199/199/199
f 57/57/57 210/210/210 218/218/218
f 199/199/199 218/218/218 210/210/210
f 55/55/55 217/217/217 216/216/216
f 57/57/57 218/218/218 217/217/217
f 52/52/52 216/216/216 218/218/218
f 217/217/217 218/218/218 216/216/216
f 1/1/1 194/194/194 220/220/220
f 53/53/53 219/219/219 194/194/194
f 60/60/60 220/220/220 219/219/219
f 194/194/194 219/219/219 220/220/220
f 17/17/17 221/221/221 197/197/197
f 59/59/59 222/222/222 221/221/221
f 53/53/53 197/197/197 222/222/222
f 221/221/221 222/222/222 197/197/197
f 19/19/19 223/223/223 225/225/225
f 60/60/60 224/224/224 223/223/223
f 59/59/59 225/225/225 224/224/224
f 223/223/223 224/224/224 225/225/225
f 53/53/53 222/222/222 219/219/219
f 59/59/59 224/224/224 222/222/222
f 60/60/60 219/219/219 224/224/224
f 222/222/222 224/224/224 219/219/219
f 2/2/2 226/226/226 207/207/207
f 61/61/61 227/227/227 226/226/226
f 56/56/56 207/207/207 227/227/227
f 226/226/226 227/227/227 207/207/207
f 18/18/18 228/228/228 230/230/230
f 62/62/62 229/229/229 228/228/228
f 61/61/61 230/230/230 229/229/229
f 228/228/228 229/229/229 230/230/230
f 17/17/17 212/212/212 232/232/232
f 56/56/56 231/231/231 212/212/212
f 62/62/62 232/232/232 231/231/231
f 212/212/212 231/231/231 232/232/232
f 61/61/61 229/229/229 227/227/227
f 62/62/62 231/231/231 229/229/229
f 56/56/56 227/227/227 231/231/231
f 229/229/229 231/231/231 227/227/227
f 8/8/8 233/233/233 235/235/235
f 63/63/63 234/234/234 233/233/233
f 65/65/65 235/235/235 234/234/234
f 233/233/233 234/234/234 235/235/235
f 19/19/19 236/236/236 238/238/238
f 64/64/64 237/237/237 236/236/236
f 63/63/63 238/238/238 237/237/237
f 236/236/236 237/237/237 238/238/238
f 18/18/18 239/239/239 241/241/241
f 65/65/65 240/240/240 239/239/239
f 64/64/64 241/241/241 240/240/240
f 239/239/239 240/240/240 241/241/241
f 63/63/63 237/237/237 234/234/234
f 64/64/64 240/240/240 237/237/237
f 65/65/65 234/234/234 240/240/240
f 237/237/237 240/240/240 234/234/234
f 17/17/17 232/232/232 221/221/221
f 62/62/62 242/242/242 232/232/232
f 59/59/59 221/221/221 242/242/242
f 232/232/232 242/242/242 221/221/221
f 18/18/18 241/241/241 228/228/228
f 64/64/64 243/243/243 241/241/241
f 62/62/62 228/228/228 243/243/243
f 241/241/241 243/243/243 228/228/228
f 19/19/19 225/225/225 236/236/236
f 59/59/59 244/244/244 225/225/225
f 64/64/64 236/236/236 244/244/244
f 225/225/225 244/244/244 236/236/236
f 62/62/62 243/243/243 242/242/242
f 64/64/64 244/244/244 243/243/243
f 59/59/59 242/242/242 244/244/244
f 243/243/243 244/244/244 242/242/242
f 1/1/1 220/220/220 246/246/246
f 60/60/60 245/245/245 220/220/220
f 67/67/67 246/246/246 245/245/245
f 220/220/220 245/245/245 246/246/246
f 19/19/19 247/247/247 223/223/223
f 66/66/66 248/248/248 247/247/247
f 60/60/60 223/223/223 248/248/248
f 247/247/247 248/248/248 223/223/223
f 21/21/21 249/249/249 251/251/251
f 67/67/67 250/250/250 249/249/249
f 66/66/66 251/251/251 250/250/250
f 249/249/249 250/250/250 251/251/251
f 60/60/60 248/248/248 245/245/245
f 66/66/66 250/250/250 248/248/248
f 67/67/67 245/245/245 250/250/250
f 248/248/248 250/250/250 245/245/245
f 8/8/8 252/252/252 233/233/233
f 68/68/68 253/253/253 252/252/252
f 63/63/63 233/233/233 253/253/253
f 252/252/252 253/253/253 233/233/233
f 20/20/20 254/254/254 256/256/256
f 69/69/69 255/255/255 254/254/254
f 68/68/68 256/256/256 255/255/255
f 254/254/254 255/255/255 256/256/256
f 19/19/19 238/238/238 258/258/258
f 63/63/63 257/257/257 238/238/238
f 69/69/69 258/258/258 257/257/257
f 238/238/238 257/257/257 258/258/258
f 68/68/68 255/255/255 253/253/253
f 69/69/69 257/257/257 255/255/255
f 63/63/63 253/253/253 257/257/257
f 255/255/255 257/257/257 253/253/253
f 11/11/11 259/259/259 261/261/261
f 70/70/70 260/260/260 259/259/259
f 72/72/72 261/261/261 260/260/260
f 259/259/259 260/260/260 261/261/261
f 21/21/21 262/262/262 264/264/264
f 71/71/71 263/263/263 262/262/262
f 70/70/70 264/264/264 263/263/263
f 262/262/262 263/263/263 264/264/264
f 20/20/20 265/265/265 267/267/267
f 72/72/72 266/266/266 265/265/265
f 71/71/71 267/267/267 266/266/266
f 265/265/265 266/266/266 267/267/267
f 70/70/70 263/263/263 260/260/260
f 71/71/71 266/266/266 263/263/263
f 72/72/72 260/260/260 266/266/266
f 263/263/263 266/266/266 260/260/260
f 19/19/19 258/258/258 247/247/247
f 69/69/69 268/268/268 258/258/258
f 66/66/66 247/247/247 268/268/268
f 258/258/258 268/268/268 247/247/247
f 20/20/20 267/267/267 254/254/254
f 71/71/71 269/269/269 267/267/267
f 69/69/69 254/254/254 269/269/269
f 267/267/267 269/269/269 254/254/254
f 21/21/21 251/251/251 262/262/262
f 66/66/66 270/270/270 251/251/251
f 71/71/71 262/262/262 270/270/270
f 251/251/251 270/270/270 262/262/262
f 69/69/69 269/269/269 268/268/268
f 71/71/71 270/270/270 269/269/269
f 66/66/66 268/268/268 270/270/270
f 269/269/269 270/270/270 268/268/268
f 1/1/1 246/246/246 163/163/163
f 67/67/67 271/271/271 246/246/246
f 43/43/43 163/163/163 271/271/271
f 246/246/246 271/271/271 163/163/163
f 21/21/21 272/272/272 249/249/249
f 73/73/73 273/273/273 272/272/272
f 67/67/67 249/249/249 273/273/273
f 272/272/272 273/273/273 249/249/249
f 13/13/13 168/168/168 275/275/275
f 43/43/43 274/274/274 168/168/168
f 73/73/73 275/275/275 274/274/274
f 168/168/168 274/274/274 275/275/275
f 67/67/67 273/273/273 271/271/271
f 73/73/73 274/274/274 273/273/273
f 43/43/43 271/271/271 274/274/274
f 273/273/273 274/274/274 271/271/271
f 11/11/11 276/276/276 259/259/259
f 74/74/74 277/277/277 276/276/276
f 70/70/70 259/259/259 277/277/277
f 276/276/276 277/277/277 259/259/259
f 22/22/22 278/278/278 280/280/280
f 75/75/75 279/279/279 278/278/278
f 74/74/74 280/280/280 279/279/279
f 278/278/278 279/279/279 280/280/280
f 21/21/21 264/264/264 282/282/282
f 70/70/70 281/281/281 264/264/264
f 75/75/75 282/282/282 281/281/281
f 264/264/264 281/281/281 282/282/282
f 74/74/74 279/279/279 277/277/277
f 75/75/75 281/281/281 279/279/279
f 70/70/70 277/277/277 281/281/281
f 279/279/279 281/281/281 277/277/277
f 12/12/12 174/174/174 284/284/284
f 48/48/48 283/283/283 174/174/174
f 77/77/77 284/284/284 283/283/283
f 174/174/174 283/283/283 284/284/284
f 13/13/13 285/285/285 178/178/178
f 76/76/76 286/286/286 285/285/285
f 48/48/48 178/178/178 286/286/286
f 285/285/285 286/286/286 178/178/178
f 22/22/22 287/287/287 289/289/289
f 77/77/77 288/288/288 287/287/287
f 76/76/76 289/289/289 288/288/288
f 287/287/287 288/288/288 289/289/289
f 48/48/48 286/286/286 283/283/283
f 76/76/76 288/288/288 286/286/286
f 77/77/77 283/283/283 288/288/288
f 286/286/286 288/288/288 283/283/283
f 21/21/21 282/282/282 272/272/272
f 75/75/75 290/290/290 282/282/282
f 73/73/73 272/272/272 290/290/290
f 282/282/282 290/290/290 272/272/272
f 22/22/22 289/289/289 278/278/278
f 76/76/76 291/291/291 289/289/289
f 75/75/75 278/278/278 291/291/291
f 289/289/289 291/291/291 278/278/278
f 13/13/13 275/275/275 285/285/285
f 73/73/73 292/292/292 275/275/275
f 76/76/76 285/285/285 292/292/292
f 275/275/275 292/292/292 285/285/285
f 75/75/75 291/291/291 290/290/290
f 76/76/76 292/292/292 291/291/291
f 73/73/73 290/290/290 292/292/292
f 291/291/291 292/292/292 290/290/290
f 2/2/2 209/209/209 294/294/294
f 58/58/58 293/293/293 209/209/209
f 79/79/79 294/294/294 293/293/293
f 209/209/209 293/293/293 294/294/294
f 16/16/16 295/295/295 213/213/213
f 78/78/78 296/296/296 295/295/295
f 58/58/58 213/213/213 296/296/296
f 295/295/295 296/296/296 213/213/213
f 24/24/24 297/297/297 299/299/299
f 79/79/79 298/298/298 297/297/297
f 78/78/78 299/299/299 298/298/298
f 297/297/297 298/298/298 299/299/299
f 58/58/58 296/296/296 293/293/293
f 78/78/78 298/298/298 296/296/296
f 79/79/79 293/293/293 298/298/298
f 296/296/296 298/298/298 293/293/293
f 6/6/6 300/300/300 200/200/200
f 80/80/80 301/301/301 300/300/300
f 54/54/54 200/200/200 301/301/301
f 300/300/300 301/301/301 200/200/200
f 23/23/23 302/302/302 304/304/304
f 81/81/81 303/303/303 302/302/302
f 80/80/80 304/304/304 303/303/303
f 302/302/302 303/303/303 304/304/304
f 16/16/16 204/204/204 306/306/306
f 54/54/54 305/305/305 204/204/204
f 81/81/81 306/306/306 305/305/305
f 204/204/204 305/305/305 306/306/306
f 80/80/80 303/303/303 301/301/301
f 81/81/81 305/305/305 303/303/303
f 54/54/54 301/301/301 305/305/305
f 303/303/303 305/305/305 301/301/301
f 10/10/10 307/307/307 309/309/309
f 82/82/82 308/308/308 307/307/307
f 84/84/84 309/309/309 308/308/308
f 307/307/307 308/308/308 309/309/309
f 24/24/24 310/310/310 312/312/312
f 83/83/83 311/311/311 310/310/310
f 82/82/82 312/312/312 311/311/311
f 310/310/310 311/311/311 312/312/312
f 23/23/23 313/313/313 315/315/315
f 84/84/84 314/314/314 313/313/313
f 83/83/83 315/315/315 314/314/314
f 313/313/313 314/314/314 315/315/315
f 82/82/82 311/311/311 308/308/308
f 83/83/83 314/314/314 311/311/311
f 84/84/84 308/308/308 314/314/314
f 311/311/311 314/314/314 308/308/308
f 16/16/16 306/306/306 295/295/295
f 81/81/81 316/316/316 306/306/306
f 78/78/78 295/295/295 316/316/316
f 306/306/306 316/316/316 295/295/295
f 23/23/23 315/315/315 302/302/302
f 83/83/83 317/317/317 315/315/315
f 81/81/81 302/302/302 317/317/317
f 315/315/315 317/317/317 302/302/302
f 24/24/24 299/299/299 310/310/310
f 78/78/78 318/318/318 299/299/299
f 83/83/83 310/310/310 318/318/318
f 299/299/299 318/318/318 310/310/310
f 81/81/81 317/317/317 316/316/316
f 83/83/83 318/318/318 317/317/317
f 78/78/78 316/316/316 318/318/318
f 317/317/317 318/318/318 316/316/316
f 6/6/6 183/183/183 320/320/320
f 51/51/51 319/319/319 183/183/183
f 86/86/86 320/320/320 319/319/319
f 183/183/183 319/319/319 320/320/320
f 14/14/14 321/321/321 187/187/187
f 85/85/85 322/322/322 321/321/321
f 51/51/51 187/187/187 322/322/322
f 321/321/321 322/322/322 187/187/187
f 26/26/26 323/323/323 325/325/325
f 86/86/86 324/324/324 323/323/323
f 85/85/85 325/325/325 324/324/324
f 323/323/323 324/324/324 325/325/325
f 51/51/51 322/322/322 319/319/319
f 85/85/85 324/324/324 322/322/322
f 86/86/86 319/319/319 324/324/324
f 322/322/322 324/324/324 319/319/319
f 12/12/12 326/326/326 172/172/172
f 87/87/87 327/327/327 326/326/326
f 46/46/46 172/172/172 327/327/327
f 326/326/326 327/327/327 172/172/172
f 25/25/25 328/328/328 330/330/330
f 88/88/88 329/329/329 328/328/328
f 87/87/87 330/330/330 329/329/329
f 328/328/328 329/329/329 330/330/330
f 14/14/14 177/177/177 332/332/332
f 46/46/46 331/331/331 177/177/177
f 88/88/88 332/332/332 331/331/331
f 177/177/177 331/331/331 332/332/332
f 87/87/87 329/329/329 327/327/327
f 88/88/88 331/331/331 329/329/329
f 46/46/46 327/327/327 331/331/331
f 329/329/329 331/331/331 327/327/327
f 5/5/5 333/333/333 335/335/335
f 89/89/89 334/334/334 333/333/333
f 91/91/91 335/335/335 334/334/334
f 333/333/333 334/334/334 335/335/335
f 26/26/26 336/336/336 338/338/338
f 90/90/90 337/337/337 336/336/336
f 89/89/89 338/338/338 337/337/337
f 336/336/336 337/337/337 338/338/338
f 25/25/25 339/339/339 341/341/341
f 91/91/91 340/340/340 339/339/339
f 90/90/90 341/341/341 340/340/340
f 339/339/339 340/340/340 341/341/341
f 89/89/89 337/337/337 334/334/334
f 90/90/90 340/340/340 337/337/337
f 91/91/91 334/334/334 340/340/340
f 337/337/337 340/340/340 334/334/334
f 14/14/14 332/332/332 321/321/321
f 88/88/88 342/342/342 332/332/332
f 85/85/85 321/321/321 342/342/342
f 332/332/332 342/342/342 321/321/321
f 25/25/25 341/341/341 328/328/328
f 90/90/90 343/343/343 341/341/341
f 88/88/88 328/328/328 343/343/343
f 341/341/341 343/343/343 328/328/328
f 26/26/26 325/325/325 336/336/336
f 85/85/85 344/344/344 325/325/325
f 90/90/90 336/336/336 344/344/344
f 325/325/325 344/344/344 336/336/336
f 88/88/88 343/343/343 342/342/342
f 90/90/90 344/344/344 343/343/343
f 85/85/85 342/342/342 344/344/344
f 343/343/343 344/344/344 342/342/342
f 12/12/12 284/284/284 346/346/346
f 77/77/77 345/345/345 284/284/284
f 93/93/93 346/346/346 345/345/345
f 284/284/284 345/345/345 346/346/346
f 22/22/22 347/347/347 287/287/287
f 92/92/92 348/348/348 347/347/347
f 77/77/77 287/287/287 348/348/348
f 347/347/347 348/348/348 287/287/287
f 28/28/28 349/349/349 351/351/351
f 93/93/93 350/350/350 349/349/349
f 92/92/92 351/351/351 350/350/350
f 349/349/349 350/350/350 351/351/351
f 77/77/77 348/348/348 345/345/345
f 92/92/92 350/350/350 348/348/348
f 93/93/93 345/345/345 350/350/350
f 348/348/348 350/350/350 345/345/345
f 11/11/11 352/352/352 276/276/276
f 94/94/94 353/353/353 352/352/352
f 74/74/74 276/276/276 353/353/353
f 352/352/352 353/353/353 276/276/276
f 27/27/27 354/354/354 356/356/356
f 95/95/95 355/355/355 354/354/354
f 94/94/94 356/356/356 355/355/355
f 354/354/354 355/355/355 356/356/356
f 22/22/22 280/280/280 358/358/358
f 74/74/74 357/357/357 280/280/280
f 95/95/95 358/358/358 357/357/357
f 280/280/280 357/357/357 358/358/358
f 94/94/94 355/355/355 353/353/353
f 95/95/95 357/357/357 355/355/355
f 74/74/74 353/353/353 357/357/357
f 355/355/355 357/357/357 353/353/353
f 3/3/3 359/359/359 361/361/361
f 96/96/96 360/360/360 359/359/359
f 98/98/98 361/361/361 360/360/360
f 359/359/359 360/360/360 361/361/361
f 28/28/28 362/362/362 364/364/364
f 97/97/97 363/363/363 362/362/362
f 96/96/96 364/364/364 363/363/363
f 362/362/362 363/363/363 364/364/364
f 27/27/27 365/365/365 367/367/367
f 98/98/98 366/366/366 365/365/365
f 97/97/97 367/367/367 366/366/366
f 365/365/365 366/366/366 367/367/367
f 96/96/96 363/363/363 360/360/360
f 97/97/97 366/366/366 363/363/363
f 98/98/98 360/360/360 366/366/366
f 363/363/363 366/366/366 360/360/360
f 22/22/22 358/358/358 347/347/347
f 95/95/95 368/368/368 358/358/358
f 92/92/92 347/347/347 368/368/368
f 358/358/358 368/368/368 347/347/347
f 27/27/27 367/367/367 354/354/354
f 97/97/97 369/369/369 367/367/367
f 95/95/95 354/354/354 369/369/369
f 367/367/367 369/369/369 354/354/354
f 28/28/28 351/351/351 362/362/362
f 92/92/92 370/370/370 351/351/351
f 97/97/97 362/362/362 370/370/370
f 351/351/351 370/370/370 362/362/362
f 95/95/95 369/369/369 368/368/368
f 97/97/97 370/370/370 369/369/369
f 92/92/92 368/368/368 370/370/370
f 369/369/369 370/370/370 368/368/368
f 11/11/11 261/261/261 372/372/372
f 72/72/72 371/371/371 261/261/261
f 100/100/100 372/372/372 371/371/371
f 261/261/261 371/371/371 372/372/372
f 20/20/20 373/373/373 265/265/265
f 99/99/99 374/374/374 373/373/373
f 72/72/72 265/265/265 374/374/374
f 373/373/373 374/374/374 265/265/265
f 30/30/30 375/375/375 377/377/377
f 100/100/100 376/376/376 375/375/375
f 99/99/99 377/377/377 376/376/376
f 375/375/375 376/376/376 377/377/377
f 72/72/72 374/374/374 371/371/371
f 99/99/99 376/376/376 374/374/374
f 100/100/100 371/371/371 376/376/376
f 374/374/374 376/376/376 371/371/371
f 8/8/8 378/378/378 252/252/252
f 101/101/101 379/379/379 378/378/378
f 68/68/68 252/252/252 379/379/379
f 378/378/378 379/379/379 252/252/252
f 29/29/29 380/380/380 382/382/382
f 102/102/102 381/381/381 380/380/380
f 101/101/101 382/382/382 381/381/381
f 380/380/380 381/381/381 382/382/382
f 20/20/20 256/256/256 384/384/384
f 68/68/68 383/383/383 256/256/256
f 102/102/102 384/384/384 383/383/383
f 256/256/256 383/383/383 384/384/384
f 101/101/101 381/381/381 379/379/379
f 102/102/102 383/383/383 381/381/381
f 68/68/68 379/379/379 383/383/383
f 381/381/381 383/383/383 379/379/379
f 7/7/7 385/385/385 387/387/387
f 103/103/103 386/386/386 385/385/385
f 105/105/105 387/387/387 386/386/386
f 385/385/385 386/386/386 387/387/387
f 30/30/30 388/388/388 390/390/390
f 104/104/104 389/389/389 388/388/388
f 103/103/103 390/390/390 389/389/389
f 388/388/388 389/389/389 390/390/390
f 29/29/29 391/391/391 393/393/393
f 105/105/105 392/392/392 391/391/391
f 104/104/104 393/393/393 392/392/392
f 391/391/391 392/392/392 393/393/393
f 103/103/103 389/389/389 386/386/386
f 104/104/104 392/392/392 389/389/389
f 105/105/105 386/386/386 392/392/392
f 389/389/389 392/392/392 386/386/386
f 20/20/20 384/384/384 373/373/373
f 102/102/102 394/394/394 384/384/384
f 99/99/99 373/373/373 394/394/394
f 384/384/384 394/394/394 373/373/373
f 29/29/29 393/393/393 380/380/380
f 104/104/104 395/395/395 393/393/393
f 102/102/102 380/380/380 395/395/395
f 393/393/393 395/395/395 380/380/380
f 30/30/30 377/377/377 388/388/388
f 99/99/99 396/396/396 377/377/377
f 104/104/104 388/388/388 396/396/396
f 377/377/377 396/396/396 388/388/388
f 102/102/102 395/395/395 394/394/394
f 104/104/104 396/396/396 395/395/395
f 99/99/99 394/394/394 396/396/396
f 395/395/395 396/396/396 394/394/394
f 8/8/8 235/235/235 398/398/398
f 65/65/65 397/397/397 235/235/235
f 107/107/107 398/398/398 397/397/397
f 235/235/235 397/397/397 398/398/398
f 18/18/18 399/399/399 239/239/239
f 106/106/106 400/400/400 399/399/399
f 65/65/65 239/239/239 400/400/400
f 399/399/399 400/400/400 239/239/239
f 32/32/32 401/401/401 403/403/403
f 107/107/107 402/402/402 401/401/401
f 106/106/106 403/403/403 402/402/402
f 401/401/401 402/402/402 403/403/403
f 65/65/65 400/400/400 397/397/397
f 106/106/106 402/402/402 400/400/400
f 107/107/107 397/397/397 402/402/402
f 400/400/400 402/402/402 397/397/397
f 2/2/2 404/404/404 226/226/226
f 108/108/108 405/405/405 404/404/404
f 61/61/61 226/226/226 405/405/405
f 404/404/404 405/405/405 226/226/226
f 31/31/31 406/406/406 408/408/408
f 109/109/109 407/407/407 406/406/406
f 108/108/108 408/408/408 407/407/407
f 406/406/406 407/407/407 408/408/408
f 18/18/18 230/230/230 410/410/410
f 61/61/61 409/409/409 230/230/230
f 109/109/109 410/410/410 409/409/409
f 230/230/230 409/409/409 410/410/410
f 108/108/108 407/407/407 405/405/405
f 109/109/109 409/409/409 407/407/407
f 61/61/61 405/405/405 409/409/409
f 407/407/407 409/409/409 405/405/405
f 9/9/9 411/411/411 413/413/413
f 110/110/110 412/412/412 411/411/411
f 112/112/112 413/413/413 412/412/412
f 411/411/411 412/412/412 413/413/413
f 32/32/32 414/414/414 416/416/416
f 111/111/111 415/415/415 414/414/414
f 110/110/110 416/416/416 415/415/415
f 414/414/414 415/415/415 416/416/416
f 31/31/31 417/417/417 419/419/419
f 112/112/112 418/418/418 417/417/417
f 111/111/111 419/419/419 418/418/418
f 417/417/417 418/418/418 419/419/419
f 110/110/110 415/415/415 412/412/412
f 111/111/111 418/418/418 415/415/415
f 112/112/112 412/412/412 418/418/418
f 415/415/415 418/418/418 412/412/412
f 18/18/18 410/410/410 399/399/399
f 109/109/109 420/420/420 410/410/410
f 106/106/106 399/399/399 420/420/420
f 410/410/410 420/420/420 399/399/399
f 31/31/31 419/419/419 406/406/406
f 111/111/111 421/421/421 419/419/419
f 109/109/109 406/406/406 421/421/421
f 419/419/419 421/421/421 406/406/406
f 32/32/32 403/403/403 414/414/414
f 106/106/106 422/422/422 403/403/403
f 111/111/111 414/414/414 422/422/422
f 403/403/403 422/422/422 414/414/414
f 109/109/109 421/421/421 420/420/420
f 111/111/111 422/422/422 421/421/421
f 106/106/106 420/420/420 422/422/422
f 421/421/421 422/422/422 420/420/420
f 4/4/4 423/423/423 425/425/425
f 113/113/113 424/424/424 423/423/423
f 115/115/115 425/425/425 424/424/424
f 423/423/423 424/424/424 425/425/425
f 33/33/33 426/426/426 428/428/428
f 114/114/114 427/427/427 426/426/426
f 113/113/113 428/428/428 427/427/427
f 426/426/426 427/427/427 428/428/428
f 35/35/35 429/429/429 431/431/431
f 115/115/115 430/430/430 429/429/429
f 114/114/114 431/431/431 430/430/430
f 429/429/429 430/430/430 431/431/431
f 113/113/113 427/427/427 424/424/424
f 114/114/114 430/430/430 427/427/427
f 115/115/115 424/424/424 430/430/430
f 427/427/427 430/430/430 424/424/424
f 10/10/10 432/432/432 434/434/434
f 116/116/116 433/433/433 432/432/432
f 118/118/118 434/434/434 433/433/433
f 432/432/432 433/433/433 434/434/434
f 34/34/34 435/435/435 437/437/437
f 117/117/117 436/436/436 435/435/435
f 116/116/116 437/437/437 436/436/436
f 435/435/435 436/436/436 437/437/437
f 33/33/33 438/438/438 440/440/440
f 118/118/118 439/439/439 438/438/438
f 117/117/117 440/440/440 439/439/439
f 438/438/438 439/439/439 440/440/440
f 116/116/116 436/436/436 433/433/433
f 117/117/117 439/439/439 436/436/436
f 118/118/118 433/433/433 439/439/439
f 436/436/436 439/439/439 433/433/433
f 5/5/5 441/441/441 443/443/443
f 119/119/119 442/442/442 441/441/441
f 121/121/121 443/443/443 442/442/442
f 441/441/441 442/442/442 443/443/443
f 35/35/35 444/444/444 446/446/446
f 120/120/120 445/445/445 444/444/444
f 119/119/119 446/446/446 445/445/445
f 444/444/444 445/445/445 446/446/446
f 34/34/34 447/447/447 449/449/449
f 121/121/121 448/448/448 447/447/447
f 120/120/120 449/449/449 448/448/448
f 447/447/447 448/448/448 449/449/449
f 119/119/119 445/445/445 442/442/442
f 120/120/120 448/448/448 445/445/445
f 121/121/121 442/442/442 448/448/448
f 445/445/445 448/448/448 442/442/442
f 33/33/33 440/440/440 426/426/426
f 117/117/117 450/450/450 440/440/440
f 114/114/114 426/426/426 450/450/450
f 440/440/440 450/450/450 426/426/426
f 34/34/34 449/449/449 435/435/435
f 120/120/120 451/451/451 449/449/449
f 117/117/117 435/435/435 451/451/451
f 449/449/449 451/451/451 435/435/435
f 35/35/35 431/431/431 444/444/444
f 114/114/114 452/452/452 431/431/431
f 120/120/120 444/444/444 452/452/452
f 431/431/431 452/452/452 444/444/444
f 117/117/117 451/451/451 450/450/450
f 120/120/120 452/452/452 451/451/451
f 114/114/114 450/450/450 452/452/452
f 451/451/451 452/452/452 450/450/450
f 4/4/4 425/425/425 454/454/454
f 115/115/115 453/453/453 425/425/425
f 123/123/123 454/454/454 453/453/453
f 425/425/425 453/453/453 454/454/454
f 35/35/35 455/455/455 429/429/429
f 122/122/122 456/456/456 455/455/455
f 115/115/115 429/429/429 456/456/456
f 455/455/455 456/456/456 429/429/429
f 37/37/37 457/457/457 459/459/459
f 123/123/123 458/458/458 457/457/457
f 122/122/122 459/459/459 458/458/458
f 457/457/457 458/458/458 459/459/459
f 115/115/115 456/456/456 453/453/453
f 122/122/122 458/458/458 456/456/456
f 123/123/123 453/453/453 458/458/458
f 456/456/456 458/458/458 453/453/453
f 5/5/5 460/460/460 441/441/441
f 124/124/124 461/461/461 460/460/460
f 119/119/119 441/441/441 461/461/461
f 460/460/460 461/461/461 441/441/441
f 36/36/36 462/462/462 464/464/464
f 125/125/125 463/463/463 462/462/462
f 124/124/124 464/464/464 463/463/463
f 462/462/462 463/463/463 464/464/464
f 35/35/35 446/446/446 466/466/466
f 119/119/119 465/465/465 446/446/446
f 125/125/125 466/466/466 465/465/465
f 446/446/446 465/465/465 466/466/466
f 124/124/124 463/463/463 461/461/461
f 125/125/125 465/465/465 463/463/463
f 119/119/119 461/461/461 465/465/465
f 463/463/463 465/465/465 461/461/461
f 3/3/3 467/467/467 469/469/469
f 126/126/126 468/468/468 467/467/467
f 128/128/128 469/469/469 468/468/468
f 467/467/467 468/468/468 469/469/469
f 37/37/37 470/470/470 472/472/472
f 127/127/127 471/471/471 470/470/470
f 126/126/126 472/472/472 471/471/471
f 470/470/470 471/471/471 472/472/472
f 36/36/36 473/473/473 475/475/475
f 128/128/128 474/474/474 473/473/473
f 127/127/127 475/475/475 474/474/474
f 473/473/473 474/474/474 475/475/475
f 126/126/126 471/471/471 468/468/468
f 127/127/127 474/474/474 471/471/471
f 128/128/128 468/468/468 474/474/474
f 471/471/471 474/474/474 468/468/468
f 35/35/35 466/466/466 455/455/455
f 125/125/125 476/476/476 466/466/466
f 122/122/122 455/455/455 476/476/476
f 466/466/466 476/476/476 455/455/455
f 36/36/36 475/475/475 462/462/462
f 127/127/127 477/477/477 475/475/475
f 125/125/125 462/462/462 477/477/477
f 475/475/475 477/477/477 462/462/462
f 37/37/37 459/459/459 470/470/470
f 122/122/122 478/478/478 459/459/459
f 127/127/127 470/470/470 478/478/478
f 459/459/459 478/478/478 470/470/470
f 125/125/125 477/477/477 476/476/476
f 127/127/127 478/478/478 477/477/477
f 122/122/122 476/476/476 478/478/478
f 477/477/477 478/478/478 476/476/476
f 4/4/4 454/454/454 480/480/480
f 123/123/123 479/479/479 454/454/454
f 130/130/130 480/480/480 479/479/479
f 454/454/454 479/479/479 480/480/480
f 37/37/37 481/481/481 457/457/457
f 129/129/129 482/482/482 481/481/481
f 123/123/123 457/457/457 482/482/482
f 481/481/481 482/482/482 457/457/457
f 39/39/39 483/483/483 485/485/485
f 130/130/130 484/484/484 483/483/483
f 129/129/129 485/485/485 484/484/484
f 483/483/483 484/484/484 485/485/485
f 123/123/123 482/482/482 479/479/479
f 129/129/129 484/484/484 482/482/482
f 130/130/130 479/479/479 484/484/484
f 482/482/482 484/484/484 479/479/479
f 3/3/3 486/486/486 467/467/467
f 131/131/131 487/487/487 486/486/486
f 126/126/126 467/467/467 487/487/487
f 486/486/486 487/487/487 467/467/467
f 38/38/38 488/488/488 490/490/490
f 132/132/132 489/489/489 488/488/488
f 131/131/131 490/490/490 489/489/489
f 488/488/488 489/489/489 490/490/490
f 37/37/37 472/472/472 492/492/492
f 126/126/126 491/491/491 472/472/472
f 132/132/132 492/492/492 491/491/491
f 472/472/472 491/491/491 492/492/492
f 131/131/131 489/489/489 487/487/487
f 132/132/132 491/491/491 489/489/489
f 126/126/126 487/487/487 491/491/491
f 489/489/489 491/491/491 487/487/487
f 7/7/7 493/493/493 495/495/495
f 133/133/133 494/494/494 493/493/493
f 135/135/135 495/495/495 494/494/494
f 493/493/493 494/494/494 495/495/495
f 39/39/39 496/496/496 498/498/498
f 134/134/134 497/497/497 496/496/496
f 133/133/133 498/498/498 497/497/497
f 496/496/496 497/497/497 498/498/498
f 38/38/38 499/499/499 501/501/501
f 135/135/135 500/500/500 499/499/499
f 134/134/134 501/501/501 500/500/500
f 499/499/499 500/500/500 501/501/501
f 133/133/133 497/497/497 494/494/494
f 134/134/134 500/500/500 497/497/497
f 135/135/135 494/494/494 500/500/500
f 497/497/497 500/500/500 494/494/494
f 37/37/37 492/492/492 481/481/481
f 132/132/132 502/502/502 492/492/492
f 129/129/129 481/481/481 502/502/502
f 492/492/492 502/502/502 481/481/481
f 38/38/38 501/501/501 488/488/488
f 134/134/134 503/503/503 501/501/501
f 132/132/132 488/488/488 503/503/503
f 501/501/501 503/503/503 488/488/488
f 39/39/39 485/485/485 496/496/496
f 129/129/129 504/504/504 485/485/485
f 134/134/134 496/496/496 504/504/504
f 485/485/485 504/504/504 496/496/496
f 132/132/132 503/503/503 502/502/502
f 134/134/134 504/504/504 503/503/503
f 129/129/129 502/502/502 504/504/504
f 503/503/503 504/504/504 502/502/502
f 4/4/4 480/480/480 506/506/506
f 130/130/130 505/505/505 480/480/480
f 137/137/137 506/506/506 505/505/505
f 480/480/480 505/505/505 506/506/506
f 39/39/39 507/507/507 483/483/483
f 136/136/136 508/508/508 507/507/507
f 130/130/130 483/483/483 508/508/508
f 507/507/507 508/508/508 483/483/483
f 41/41/41 509/509/509 511/511/511
f 137/137/137 510/510/510 509/509/509
f 136/136/136 511/511/511 510/510/510
f 509/509/509 510/510/510 511/511/511
f 130/130/130 508/508/508 505/505/505
f 136/136/136 510/510/510 508/508/508
f 137/137/137 505/505/505 510/510/510
f 508/508/508 510/510/510 505/505/505
f 7/7/7 512/512/512 493/493/493
f 138/138/138 513/513/513 512/512/512
f 133/133/133 493/493/493 513/513/513
f 512/512/512 513/513/513 493/493/493
f 40/40/40 514/514/514 516/516/516
f 139/139/139 515/515/515 514/514/514
f 138/138/138 516/516/516 515/515/515
f 514/514/514 515/515/515 516/516/516
f 39/39/39 498/498/498 518/518/518
f 133/133/133 517/517/517 498/498/498
f 139/139/139 518/518/518 517/517/517
f 498/498/498 517/517/517 518/518/518
f 138/138/138 515/515/515 513/513/513
f 139/139/139 517/517/517 515/515/515
f 133/133/133 513/513/513 517/517/517
f 515/515/515 517/517/517 513/513/513
f 9/9/9 519/519/519 521/521/521
f 140/140/140 520/520/520 519/519/519
f 142/142/142 521/521/521 520/520/520
f 519/519/519 520/520/520 521/521/521
f 41/41/41 522/522/522 524/524/524
f 141/141/141 523/523/523 522/522/522
f 140/140/140 524/524/524 523/523/523
f 522/522/522 523/523/523 524/524/524
f 40/40/40 525/525/525 527/527/527
f 142/142/142 526/526/526 525/525/525
f 141/141/141 527/527/527 526/526/526
f 525/525/525 526/526/526 527/527/527
f 140/140/140 523/523/523 520/520/520
f 141/141/141 526/526/526 523/523/523
f 142/142/142 520/520/520 526/526/526
f 523/523/523 526/526/526 520/520/520
f 39/39/39 518/518/518 507/507/507
f 139/139/139 528/528/528 518/518/518
f 136/136/136 507/507/507 528/528/528
f 518/518/518 528/528/528 507/507/507
f 40/40/40 527/527/527 514/514/514
f 141/141/141 529/529/529 527/527/527
f 139/139/139 514/514/514 529/529/529
f 527/527/527 529/529/529 514/514/514
f 41/41/41 511/511/511 522/522/522
f 136/136/136 530/530/530 511/511/511
f 141/141/141 522/522/522 530/530/530
f 511/511/511 530/530/530 522/522/522
f 139/139/139 529/529/529 528/528/528
f 141/141/141 530/530/530 529/529/529
f 136/136/136 528/528/528 530/530/530
f 529/529/529 530/530/530 528/528/528
f 4/4/4 506/506/506 423/423/423
f 137/137/137 531/531/531 506/506/506
f 113/113/113 423/423/423 531/531/531
f 506/506/506 531/531/531 423/423/423
f 41/41/41 532/532/532 509/509/509
f 143/143/143 533/533/533 532/532/532
f 137/137/137 509/509/509 533/533/533
f 532/532/532 533/533/533 509/509/509
f 33/33/33 428/428/428 535/535/535
f 113/113/113 534/534/534 428/428/428
f 143/143/143 535/535/535 534/534/534
f 428/428/428 534/534/534 535/535/535
f 137/137/137 533/533/533 531/531/531
f 143/143/143 534/534/534 533/533/533
f 113/113/113 531/531/531 534/534/534
f 533/533/533 534/534/534 531/531/531
f 9/9/9 536/536/536 519/519/519
f 144/144/144 537/537/537 536/536/536
f 140/140/140 519/519/519 537/537/537
f 536/536/536 537/537/537 519/519/519
f 42/42/42 538/538/538 540/540/540
f 145/145/145 539/539/539 538/538/538
f 144/144/144 540/540/540 539/539/539
f 538/538/538 539/539/539 540/540/540
f 41/41/41 524/524/524 542/542/542
f 140/140/140 541/541/541 524/524/524
f 145/145/145 542/542/542 541/541/541
f 524/524/524 541/541/541 542/542/542
f 144/144/144 539/539/539 537/537/537
f 145/145/145 541/541/541 539/539/539
f 140/140/140 537/537/537 541/541/541
f 539/539/539 541/541/541 537/537/537
f 10/10/10 434/434/434 544/544/544
f 118/118/118 543/543/543 434/434/434
f 147/147/147 544/544/544 543/543/543
f 434/434/434 543/543/543 544/544/544
f 33/33/33 545/545/545 438/438/438
f 146/146/146 546/546/546 545/545/545
f 118/118/118 438/438/438 546/546/546
f 545/545/545 546/546/546 438/438/438
f 42/42/42 547/547/547 549/549/549
f 147/147/147 548/548/548 547/547/547
f 146/146/146 549/549/549 548/548/548
f 547/547/547 548/548/548 549/549/549
f 118/118/118 546/546/546 543/543/543
f 146/146/146 548/548/548 546/546/546
f 147/147/147 543/543/543 548/548/548
f 546/546/546 548/548/548 543/543/543
f 41/41/41 542/542/542 532/532/532
f 145/145/145 550/550/550 542/542/542
f 143/143/143 532/532/532 550/550/550
f 542/542/542 550/550/550 532/532/532
f 42/42/42 549/549/549 538/538/538
f 146/146/146 551/551/551 549/549/549
f 145/145/145 538/538/538 551/551/551
f 549/549/549 551/551/551 538/538/538
f 33/33/33 535/535/535 545/545/545
f 143/143/143 552/552/552 535/535/535
f 146/146/146 545/545/545 552/552/552
f 535/535/535 552/552/552 545/545/545
f 145/145/145 551/551/551 550/550/550
f 146/146/146 552/552/552 551/551/551
f 143/143/143 550/550/550 552/552/552
f 551/551/551 552/552/552 550/550/550
f 5/5/5 443/443/443 333/333/333
f 121/121/121 553/553/553 443/443/443
f 89/89/89 333/333/333 553/553/553
f 443/443/443 553/553/553 333/333/333
f 34/34/34 554/554/554 447/447/447
f 148/148/148 555/555/555 554/554/554
f 121/121/121 447/447/447 555/555/555
f 554/554/554 555/555/555 447/447/447
f 26/26/26 338/338/338 557/557/557
f 89/89/89 556/556/556 338/338/338
f 148/148/148 557/557/557 556/556/556
f 338/338/338 556/556/556 557/557/557
f 121/121/121 555/555/555 553/553/553
f 148/148/148 556/556/556 555/555/555
f 89/89/89 553/553/553 556/556/556
f 555/555/555 556/556/556 553/553/553
f 10/10/10 309/309/309 432/432/432
f 84/84/84 558/558/558 309/309/309
f 116/116/116 432/432/432 558/558/558
f 309/309/309 558/558/558 432/432/432
f 23/23/23 559/559/559 313/313/313
f 149/149/149 560/560/560 559/559/559
f 84/84/84 313/313/313 560/560/560
f 559/559/559 560/560/560 313/313/313
f 34/34/34 437/437/437 562/562/562
f 116/116/116 561/561/561 437/437/437
f 149/149/149 562/562/562 561/561/561
f 437/437/437 561/561/561 562/562/562
f 84/84/84 560/560/560 558/558/558
f 149/149/149 561/561/561 560/560/560
f 116/116/116 558/558/558 561/561/561
f 560/560/560 561/561/561 558/558/558
f 6/6/6 320/320/320 300/300/300
f 86/86/86 563/563/563 320/320/320
f 80/80/80 300/300/300 563/563/563
f 320/320/320 563/563/563 300/300/300
f 26/26/26 564/564/564 323/323/323
f 150/150/150 565/565/565 564/564/564
f 86/86/86 323/323/323 565/565/565
f 564/564/564 565/565/565 323/323/323
f 23/23/23 304/304/304 567/567/567
f 80/80/80 566/566/566 304/304/304
f 150/150/150 567/567/567 566/566/566
f 304/304/304 566/566/566 567/567/567
f 86/86/86 565/565/565 563/563/563
f 150/150/150 566/566/566 565/565/565
f 80/80/80 563/563/563 566/566/566
f 565/565/565 566/566/566 563/563/563
f 34/34/34 562/562/562 554/554/554
f 149/149/149 568/568/568 562/562/562
f 148/148/148 554/554/554 568/568/568
f 562/562/562 568/568/568 554/554/554
f 23/23/23 567/567/567 559/559/559
f 150/150/150 569/569/569 567/567/567
f 149/149/149 559/559/559 569/569/569
f 567/567/567 569/569/569 559/559/559
f 26/26/26 557/557/557 564/564/564
f 148/148/148 570/570/570 557/557/557
f 150/150/150 564/564/564 570/570/570
f 557/557/557 570/570/570 564/564/564
f 149/149/149 569/569/569 568/568/568
f 150/150/150 570/570/570 569/569/569
f 148/148/148 568/568/568 570/570/570
f 569/569/569 570/570/570 568/568/568
f 3/3/3 469/469/469 359/359/359
f 128/128/128 571/571/571 469/469/469
f 96/96/96 359/359/359 571/571/571
f 469/469/469 571/571/571 359/359/359
f 36/36/36 572/572/572 473/473/473
f 151/151/151 573/573/573 572/572/572
f 128/128/128 473/473/473 573/573/573
f 572/572/572 573/573/573 473/473/473
f 28/28/28 364/364/364 575/575/575
f 96/96/96 574/574/574 364/364/364
f 151/151/151 575/575/575 574/574/574
f 364/364/364 574/574/574 575/575/575
f 128/128/128 573/573/573 571/571/571
f 151/151/151 574/574/574 573/573/573
f 96/96/96 571/571/571 574/574/574
f 573/573/573 574/574/574 571/571/571
f 5/5/5 335/335/335 460/460/460
f 91/91/91 576/576/576 335/335/335
f 124/124/124 460/460/460 576/576/576
f 335/335/335 576/576/576 460/460/460
f 25/25/25 577/577/577 339/339/339
f 152/152/152 578/578/578 577/577/577
f 91/91/91 339/339/339 578/578/578
f 577/577/577 578/578/578 339/339/339
f 36/36/36 464/464/464 580/580/580
f 124/124/124 579/579/579 464/464/464
f 152/152/152 580/580/580 579/579/579
f 464/464/464 579/579/579 580/580/580
f 91/91/91 578/578/578 576/576/576
f 152/152/152 579/579/579 578/578/578
f 124/124/124 576/576/576 579/579/579
f 578/578/578 579/579/579 576/576/576
f 12/12/12 346/346/346 326/326/326
f 93/93/93 581/581/581 346/346/346
f 87/87/87 326/326/326 581/581/581
f 346/346/346 581/581/581 326/326/326
f 28/28/28 582/582/582 349/349/349
f 153/153/153 583/583/583 582/582/582
f 93/93/93 349/349/349 583/583/583
f 582/582/582 583/583/583 349/349/349
f 25/25/25 330/330/330 585/585/585
f 87/87/87 584/584/584 330/330/330
f 153/153/153 585/585/585 584/584/584
f 330/330/330 584/584/584 585/585/585
f 93/93/93 583/583/583 581/581/581
f 153/153/153 584/584/584 583/583/583
f 87/87/87 581/581/581 584/584/584
f 583/583/583 584/584/584 581/581/581
f 36/36/36 580/580/580 572/572/572
f 152/152/152 586/586/586 580/580/580
f 151/151/151 572/572/572 586/586/586
f 580/580/580 586/586/586 572/572/572
f 25/25/25 585/585/585 577/577/577
f 153/153/153 587/587/587 585/585/585
f 152/152/152 577/577/577 587/587/587
f 585/585/585 587/587/587 577/577/577
f 28/28/28 575/575/575 582/582/582
f 151/151/151 588/588/588 575/575/575
f 153/153/153 582/582/582 588/588/588
f 575/575/575 588/588/588 582/582/582
f 152/152/152 587/587/587 586/586/586
f 153/153/153 588/588/588 587/587/587
f 151/151/151 586/586/586 588/588/588
f 587/587/587 588/588/588 586/586/586
f 7/7/7 495/495/495 385/385/385
f 135/135/135 589/589/589 495/495/495
f 103/103/103 385/385/385 589/589/589
f 495/495/495 589/589/589 385/385/385
f 38/38/38 590/590/590 499/499/499
f 154/154/154 591/591/591 590/590/590
f 135/135/135 499/499/499 591/591/591
f 590/590/590 591/591/591 499/499/499
f 30/30/30 390/390/390 593/593/593
f 103/103/103 592/592/592 390/390/390
f 154/154/154 593/593/593 592/592/592
f 390/390/390 592/592/592 593/593/593
f 135/135/135 591/591/591 589/589/589
f 154/154/154 592/592/592 591/591/591
f 103/103/103 589/589/589 592/592/592
f 591/591/591 592/592/592 589/589/589
f 3/3/3 361/361/361 486/486/486
f 98/98/98 594/594/594 361/361/361
f 131/131/131 486/486/486 594/594/594
f 361/361/361 594/594/594 486/486/486
f 27/27/27 595/595/595 365/365/365
f 155/155/155 596/596/596 595/595/595
f 98/98/98 365/365/365 596/596/596
f 595/595/595 596/596/596 365/365/365
f 38/38/38 490/490/490 598/598/598
f 131/131/131 597/597/597 490/490/490
f 155/155/155 598/598/598 597/597/597
f 490/490/490 597/597/597 598/598/598
f 98/98/98 596/596/596 594/594/594
f 155/155/155 597/597/597 596/596/596
f 131/131/131 594/594/594 597/597/597
f 596/596/596 597/597/597 594/594/594
f 11/11/11 372/372/372 352/352/352
f 100/100/100 599/599/599 372/372/372
f 94/94/94 352/352/352 599/599/599
f 372/372/372 599/599/599 352/352/352
f 30/30/30 600/600/600 375/375/375
f 156/156/156 601/601/601 600/600/600
f 100/100/100 375/375/375 601/601/601
f 600/600/600 601/601/601 375/375/375
f 27/27/27 356/356/356 603/603/603
f 94/94/94 602/602/602 356/356/356
f 156/156/156 603/603/603 602/602/602
f 356/356/356 602/602/602 603/603/603
f 100/100/100 601/601/601 599/599/599
f 156/156/156 602/602/602 601/601/601
f 94/94/94 599/599/599 602/602/602
f 601/601/601 602/602/602 599/599/599
f 38/38/38 598/598/598 590/590/590
f 155/155/155 604/604/604 598/598/598
f 154/154/154 590/590/590 604/604/604
f 598/598/598 604/604/604 590/590/590
f 27/27/27 603/603/603 595/595/595
f 156/156/156 605/605/605 603/603/603
f 155/155/155 595/595/595 605/605/605
f 603/603/603 605/605/605 595/595/595
f 30/30/30 593/593/593 600/600/600
f 154/154/154 606/606/606 593/593/593
f 156/156/156 600/600/600 606/606/606
f 593/593/593 606/606/606 600/600/600
f 155/155/155 605/605/605 604/604/604
f 156/156/156 606/606/606 605/605/605
f 154/154/154 604/604/604 606/606/606
f 605/605/605 606/606/606 604/604/604
f 9/9/9 521/521/521 411/411/411
f 142/142/142 607/607/607 521/521/521
f 110/110/110 411/411/411 607/607/607
f 521/521/521 607/607/607 411/411/411
f 40/40/40 608/608/608 525/525/525
f 157/157/157 609/609/609 608/608/608
f 142/142/142 525/525/525 609/609/609
f 608/608/608 609/609/609 525/525/525
f 32/32/32 416/416/416 611/611/611
f 110/110/110 610/610/610 416/416/416
f 157/157/157 611/611/611 610/610/610
f 416/416/416 610/610/610 611/611/611
f 142/142/142 609/609/609 607/607/607
f 157/157/157 610/610/610 609/609/609
f 110/110/110 607/607/607 610/610/610
f 609/609/609 610/610/610 607/607/607
f 7/7/7 387/387/387 512/512/512
f 105/105/105 612/612/612 387/387/387
f 138/138/138 512/512/512 612/612/612
f 387/387/387 612/612/612 512/512/512
f 29/29/29 613/613/613 391/391/391
f 158/158/158 614/614/614 613/613/613
f 105/105/105 391/391/391 614/614/614
f 613/613/613 614/614/614 391/391/391
f 40/40/40 516/516/516 616/616/616
f 138/138/138 615/615/615 516/516/516
f 158/158/158 616/616/616 615/615/615
f 516/516/516 615/615/615 616/616/616
f 105/105/105 614/614/614 612/612/612
f 158/158/158 615/615/615 614/614/614
f 138/138/138 612/612/612 615/615/615
f 614/614/614 615/615/615 612/612/612
f 8/8/8 398/398/398 378/378/378
f 107/107/107 617/617/617 398/398/398
f 101/101/101 378/378/378 617/617/617
f 398/398/398 617/617/617 378/378/378
f 32/32/32 618/618/618 401/401/401
f 159/159/159 619/619/619 618/618/618
f 107/107/107 401/401/401 619/619/619
f 618/618/618 619/619/619 401/401/401
f 29/29/29 382/382/382 621/621/621
f 101/101/101 620/620/620 382/382/382
f 159/159/159 621/621/621 620/620/620
f 382/382/382 620/620/620 621/621/621
f 107/107/107 619/619/619 617/617/617
f 159/159/159 620/620/620 619/619/619
f 101/101/101 617/617/617 620/620/620
f 619/619/619 620/620/620 617/617/617
f 40/40/40 616/616/616 608/608/608
f 158/158/158 622/622/622 616/616/616
f 157/157/157 608/608/608 622/622/622
f 616/616/616 622/622/622 608/608/608
f 29/29/29 621/621/621 613/613/613
f 159/159/159 623/623/623 621/621/621
f 158/158/158 613/613/613 623/623/623
f 621/621/621 623/623/623 613/613/613
f 32/32/32 611/611/611 618/618/618
f 157/157/157 624/624/624 611/611/611
f 159/159/159 618/618/618 624/624/624
f 611/611/611 624/624/624 618/618/618
f 158/158/158 623/623/623 622/622/622
f 159/159/159 624/624/624 623/623/623
f 157/157/157 622/622/622 624/624/624
f 623/623/623 624/624/624 622/622/622
f 10/10/10 544/544/544 307/307/307
f 147/147/147 625/625/625 544/544/544
f 82/82/82 307/307/307 625/625/625
f 544/544/544 625/625/625 307/307/307
f 42/42/42 626/626/626 547/547/547
f 160/160/160 627/627/627 626/626/626
f 147/147/147 547/547/547 627/627/627
f 626/626/626 627/627/627 547/547/547
f 24/24/24 312/312/312 629/629/629
f 82/82/82 628/628/628 312/312/312
f 160/160/160 629/629/629 628/628/628
f 312/312/312 628/628/628 629/629/629
f 147/147/147 627/627/627 625/625/625
f 160/160/160 628/628/628 627/627/627
f 82/82/82 625/625/625 628/628/628
f 627/627/627 628/628/628 625/625/625
f 9/9/9 413/413/413 536/536/536
f 112/112/112 630/630/630 413/413/413
f 144/144/144 536/536/536 630/630/630
f 413/413/413 630/630/630 536/536/536
f 31/31/31 631/631/631 417/417/417
f 161/161/161 632/632/632 631/631/631
f 112/112/112 417/417/417 632/632/632
f 631/631/631 632/632/632 417/417/417
f 42/42/42 540/540/540 634/634/634
f 144/144/144 633/633/633 540/540/540
f 161/161/161 634/634/634 633/633/633
f 540/540/540 633/633/633 634/634/634
f 112/112/112 632/632/632 630/630/630
f 161/161/161 633/633/633 632/632/632
f 144/144/144 630/630/630 633/633/633
f 632/632/632 633/633/633 630/630/630
f 2/2/2 294/294/294 404/404/404
f 79/79/79 635/635/635 294/294/294
f 108/108/108 404/404/404 635/635/635
f 294/294/294 635/635/635 404/404/404
f 24/24/24 636/636/636 297/297/297
f 162/162/162 637/637/637 636/636/636
f 79/79/79 297/297/297 637/637/637
f 636/636/636 637/637/637 297/297/297
f 31/31/31 408/408/408 639/639/639
f 108/108/108 638/638/638 408/408/408
f 162/162/162 639/639/639 638/638/638
f 408/408/408 638/638/638 639/639/639
f 79/79/79 637/637/637 635/635/635
f 162/162/162 638/638/638 637/637/637
f 108/108/108 635/635/635 638/638/638
f 637/637/637 638/638/638 635/635/635
f 42/42/42 634/634/634 626/626/626
f 161/161/161 640/640/640 634/634/634
f 160/160/160 626/626/626 640/640/640
f 634/634/634 640/640/640 626/626/626
f 31/31/31 639/639/639 631/631/631
f 162/162/162 641/641/641 639/639/639
f 161/161/161 631/631/631 641/641/641
f 639/639/639 641/641/641 631/631/631
f 24/24/24 629/629/629 636/636/636
f 160/160/160 642/642/642 629/629/629
f 162/162/162 636/636/636 642/642/642
f 629/629/629 642/642/642 636/636/636
f 161/161/161 641/641/641 640/640/640
f 162/162/162 642/642/642 641/641/641
f 160/160/160 640/640/640 642/642/642
f 641/641/641 642/642/642 640/640/640
