# generated by scripts/make_scenery.py
v -9.00000 -2.50000 0.00000
v -7.50000 -2.49486 0.00380
v -8.99657 -2.10313 -1.35160
v -7.49658 -2.09881 -1.34502
v -8.99424 -1.03854 -2.27407
v -7.49425 -1.03640 -2.26559
v -8.99373 0.35579 -2.47455
v -7.49374 0.35506 -2.46566
v -8.99521 1.63715 -1.88937
v -7.49522 1.63379 -1.88168
v -8.99821 2.39873 -0.70433
v -7.49822 2.39380 -0.69908
v -9.00179 2.39873 0.70433
v -7.50178 2.39380 0.70668
v -9.00479 1.63715 1.88937
v -7.50478 1.63379 1.88929
v -9.00627 0.35579 2.47455
v -7.50626 0.35506 2.47326
v -9.00576 -1.03854 2.27407
v -7.50575 -1.03640 2.27320
v -9.00343 -2.10313 1.35160
v -7.50342 -2.09881 1.35262
v -7.50000 -2.49486 0.00380
v -6.00000 -2.47287 0.01747
v -7.48771 -2.09881 -1.34496
v -5.98782 -2.08031 -1.31941
v -7.47932 -1.03640 -2.26551
v -5.97950 -1.02727 -2.23184
v -7.47750 0.35506 -2.46556
v -5.97770 0.35193 -2.43013
v -7.48282 1.63379 -1.88161
v -5.98297 1.61938 -1.85132
v -7.49360 2.39380 -0.69905
v -5.99365 2.37270 -0.67919
v -7.50640 2.39380 0.70666
v -6.00635 2.37270 0.71413
v -7.51718 1.63379 1.88921
v -6.01703 1.61938 1.88626
v -7.52250 0.35506 2.47317
v -6.02230 0.35193 2.46507
v -7.52068 -1.03640 2.27311
v -6.02050 -1.02727 2.26678
v -7.51229 -2.09881 1.35257
v -6.01218 -2.08031 1.35435
v -6.00000 -2.47287 0.01747
v -4.50000 -2.42821 0.04263
v -5.97758 -2.08031 -1.31928
v -4.47798 -2.04274 -1.26997
v -5.96228 -1.02727 -2.23161
v -4.46296 -1.00871 -2.16583
v -5.95895 0.35193 -2.42988
v -4.45969 0.34557 -2.36052
v -5.96866 1.61938 -1.85114
v -4.46922 1.59014 -1.79223
v -5.98832 2.37270 -0.67912
v -4.48853 2.32985 -0.64138
v -6.01168 2.37270 0.71406
v -4.51147 2.32985 0.72664
v -6.03134 1.61938 1.88608
v -4.53078 1.59014 1.87749
v -6.04105 0.35193 2.46483
v -4.54031 0.34557 2.44578
v -6.03772 -1.02727 2.26656
v -4.53704 -1.00871 2.25109
v -6.02242 -2.08031 1.35422
v -4.52202 -2.04274 1.35523
v -4.50000 -2.42821 0.04263
v -3.00000 -2.35680 0.08027
v -4.46706 -2.04274 -1.26974
v -2.96803 -1.98267 -1.19351
v -4.44459 -1.00871 -2.16545
v -2.94621 -0.97905 -2.06287
v -4.43970 0.34557 -2.36010
v -2.94147 0.33541 -2.25180
v -4.45396 1.59014 -1.79191
v -2.95531 1.54338 -1.70032
v -4.48284 2.32985 -0.64126
v -2.98334 2.26133 -0.58350
v -4.51716 2.32985 0.72652
v -3.01666 2.26133 0.74405
v -4.54604 1.59014 1.87717
v -3.04469 1.54338 1.86087
v -4.56030 0.34557 2.44536
v -3.05853 0.33541 2.41235
v -4.55541 -1.00871 2.25071
v -3.05379 -0.97905 2.22342
v -4.53294 -2.04274 1.35500
v -3.03197 -1.98267 1.35406
v -3.00000 -2.35680 0.08027
v -1.50000 -2.25536 0.13115
v -2.95681 -1.98267 -1.19318
v -1.45866 -1.89733 -1.08749
v -2.92733 -0.97905 -2.06232
v -1.43045 -0.93691 -1.91922
v -2.92092 0.33541 -2.25120
v -1.42432 0.32097 -2.09997
v -2.93962 1.54338 -1.69985
v -1.44222 1.47695 -1.57236
v -2.97749 2.26133 -0.58333
v -1.47846 2.16400 -0.50389
v -3.02251 2.26133 0.74388
v -1.52154 2.16400 0.76620
v -3.06038 1.54338 1.86040
v -1.55778 1.47695 1.83466
v -3.07908 0.33541 2.41175
v -1.57568 0.32097 2.36228
v -3.07267 -0.97905 2.22286
v -1.56955 -0.93691 2.18152
v -3.04319 -1.98267 1.35372
v -1.54134 -1.89733 1.34979
v -1.50000 -2.25536 0.13115
v 0.00000 -2.12107 0.19587
v -1.44744 -1.89733 -1.08705
v 0.04943 -1.78436 -0.94980
v -1.41156 -0.93691 -1.91849
v 0.08317 -0.88112 -1.73173
v -1.40377 0.32097 -2.09918
v 0.09050 0.30186 -1.90166
v -1.42652 1.47695 -1.57175
v 0.06910 1.38901 -1.40563
v -1.47261 2.16400 -0.50367
v 0.02576 2.03515 -0.40115
v -1.52739 2.16400 0.76597
v -0.02576 2.03515 0.79289
v -1.57348 1.47695 1.83406
v -0.06910 1.38901 1.79738
v -1.59623 0.32097 2.36148
v -0.09050 0.30186 2.29340
v -1.58844 -0.93691 2.18080
v -0.08317 -0.88112 2.12347
v -1.55256 -1.89733 1.34936
v -0.04943 -1.78436 1.34155
v 0.00000 -2.12107 0.19587
v 1.50000 -1.95143 0.27495
v 0.06037 -1.78436 -0.94927
v 1.55554 -1.64165 -0.77861
v 0.10158 -0.88112 -1.73084
v 1.59345 -0.81065 -1.49767
v 0.11053 0.30186 -1.90070
v 1.60169 0.27772 -1.65394
v 0.08439 1.38901 -1.40490
v 1.57764 1.27792 -1.19780
v 0.03146 2.03515 -0.40087
v 1.52894 1.87239 -0.27407
v -0.03146 2.03515 0.79262
v 1.47106 1.87239 0.82397
v -0.08439 1.38901 1.79665
v 1.42236 1.27792 1.74770
v -0.11053 0.30186 2.29244
v 1.39831 0.27772 2.20384
v -0.10158 -0.88112 2.12259
v 1.40655 -0.81065 2.04758
v -0.06037 -1.78436 1.34102
v 1.44446 -1.64165 1.32851
v 1.50000 -1.95143 0.27495
v 3.00000 -1.74419 0.36884
v 1.56591 -1.64165 -0.77801
v 3.05891 -1.46731 -0.57230
v 1.61089 -0.81065 -1.49666
v 3.09911 -0.72456 -1.21463
v 1.62067 0.27772 -1.65284
v 3.10785 0.24822 -1.35422
v 1.59213 1.27792 -1.19696
v 3.08235 1.14220 -0.94676
v 1.53435 1.87239 -0.27375
v 3.03070 1.67354 -0.12159
v 1.46565 1.87239 0.82366
v 2.96930 1.67354 0.85928
v 1.40787 1.27792 1.74687
v 2.91765 1.14220 1.68444
v 1.37933 0.27772 2.20275
v 2.89215 0.24822 2.09191
v 1.38911 -0.81065 2.04657
v 2.90089 -0.72456 1.95232
v 1.43409 -1.64165 1.32792
v 2.94109 -1.46731 1.30998
v 3.00000 -1.74419 0.36884
v 4.50000 -1.49729 0.47794
v 3.06841 -1.46731 -0.57165
v 4.55872 -1.25960 -0.32942
v 3.11509 -0.72456 -1.21355
v 4.59880 -0.62200 -0.88045
v 3.12524 0.24822 -1.35305
v 4.60751 0.21309 -1.00020
v 3.09562 1.14220 -0.94586
v 4.58209 0.98051 -0.65065
v 3.03565 1.67354 -0.12126
v 4.53060 1.43664 0.05722
v 2.96435 1.67354 0.85894
v 4.46940 1.43664 0.89867
v 2.90438 1.14220 1.68354
v 4.41791 0.98051 1.60654
v 2.87476 0.24822 2.09073
v 4.39249 0.21309 1.95609
v 2.88491 -0.72456 1.95124
v 4.40120 -0.62200 1.83634
v 2.93159 -1.46731 1.30934
v 4.44128 -1.25960 1.28531
v 4.50000 -1.49729 0.47794
v 6.00000 -1.20880 0.60262
v 4.56705 -1.25960 -0.32877
v 6.05413 -1.01690 -0.04866
v 4.61282 -0.62200 -0.87935
v 6.09108 -0.50215 -0.49316
v 4.62276 0.21309 -0.99901
v 6.09911 0.17203 -0.58976
v 4.59373 0.98051 -0.64974
v 6.07567 0.79159 -0.30779
v 4.53494 1.43664 0.05756
v 6.02821 1.15983 0.26323
v 4.46506 1.43664 0.89833
v 5.97179 1.15983 0.94201
v 4.40627 0.98051 1.60563
v 5.92433 0.79159 1.51303
v 4.37724 0.21309 1.95490
v 5.90089 0.17203 1.79500
v 4.38718 -0.62200 1.83524
v 5.90892 -0.50215 1.69840
v 4.43295 -1.25960 1.28466
v 5.94587 -1.01690 1.25390
v 6.00000 -1.20880 0.60262
v 7.50000 -0.87693 0.74320
v 6.06098 -1.01690 -0.04805
v 7.54424 -0.73772 0.27117
v 6.10260 -0.50215 -0.49214
v 7.57443 -0.36429 -0.05100
v 6.11165 0.17203 -0.58865
v 7.58100 0.12480 -0.12101
v 6.08525 0.79159 -0.30694
v 7.56184 0.57427 0.08336
v 6.03178 1.15983 0.26355
v 7.52305 0.84141 0.49722
v 5.96822 1.15983 0.94169
v 7.47695 0.84141 0.98918
v 5.91475 0.79159 1.51218
v 7.43816 0.57427 1.40305
v 5.88835 0.17203 1.79389
v 7.41900 0.12480 1.60742
v 5.89740 -0.50215 1.69738
v 7.42557 -0.36429 1.53741
v 5.93902 -1.01690 1.25329
v 7.45576 -0.73772 1.21524
v 7.50000 -0.87693 0.74320
v 9.00000 -0.50000 0.90000
v 7.54929 -0.73772 0.27167
v 9.02810 -0.42063 0.63114
v 7.58293 -0.36429 -0.05016
v 9.04728 -0.20771 0.44765
v 7.59024 0.12480 -0.12010
v 9.05145 0.07116 0.40777
v 7.56890 0.57427 0.08406
v 9.03929 0.32743 0.52417
v 7.52569 0.84141 0.49748
v 9.01465 0.47975 0.75990
v 7.47431 0.84141 0.98892
v 8.98535 0.47975 1.04010
v 7.43110 0.57427 1.40235
v 8.96071 0.32743 1.27583
v 7.40976 0.12480 1.60650
v 8.94855 0.07116 1.39223
v 7.41707 -0.36429 1.53656
v 8.95272 -0.20771 1.35235
v 7.45071 -0.73772 1.21474
v 8.97190 -0.42063 1.16886
v -9.00000 -2.38095 1.00000
v 8.37000 -0.83333 1.70000
v -8.94817 -2.00298 -0.28620
v 8.38814 -0.70104 1.24983
v -8.91279 -0.98908 -1.16403
v 8.40052 -0.34618 0.94259
v -8.90510 0.33884 -1.35481
v 8.40321 0.11860 0.87582
v -8.92754 1.55919 -0.79794
v 8.39536 0.54572 1.07072
v -8.97299 2.28451 0.32975
v 8.37945 0.79958 1.46541
v -9.02701 2.28451 1.67025
v 8.36055 0.79958 1.93459
v -9.07246 1.55919 2.79794
v 8.34464 0.54572 2.32928
v -9.09490 0.33884 3.35481
v 8.33679 0.11860 2.52418
v -9.08721 -0.98908 3.16403
v 8.33948 -0.34618 2.45741
v -9.05183 -2.00298 2.28620
v 8.35186 -0.70104 2.15017
v -2.20000 1.90000 1.70000
v -2.20000 1.70000 3.60000
v -4.10000 0.00000 1.70000
v -3.90000 0.00000 3.60000
v -2.20000 -1.90000 1.70000
v -2.20000 -1.70000 3.60000
v -0.30000 -0.00000 1.70000
v -0.50000 -0.00000 3.60000
v -2.60000 1.40000 3.60000
v -2.60000 1.20000 4.90000
v -4.00000 0.00000 3.60000
v -3.80000 0.00000 4.90000
v -2.60000 -1.40000 3.60000
v -2.60000 -1.20000 4.90000
v -1.20000 -0.00000 3.60000
v -1.40000 -0.00000 4.90000
v -2.60000 0.10000 4.90000
v -2.60000 0.06000 7.20000
v -2.70000 0.00000 4.90000
v -2.66000 0.00000 7.20000
v -2.60000 -0.10000 4.90000
v -2.60000 -0.06000 7.20000
v -2.50000 -0.00000 4.90000
v -2.54000 -0.00000 7.20000
v -8.40000 -1.77000 1.60000
v -9.90000 -1.79000 4.40000
v -8.50898 -1.85983 1.54162
v -9.99222 -1.86601 4.35060
v -8.46736 -2.00517 1.56392
v -9.95699 -1.98899 4.36947
v -8.33264 -2.00517 1.63608
v -9.84301 -1.98899 4.43053
v -8.29102 -1.85983 1.65838
v -9.80778 -1.86601 4.44940
v -8.40000 2.03000 1.60000
v -9.90000 2.01000 4.40000
v -8.50898 1.94017 1.54162
v -9.99222 1.93399 4.35060
v -8.46736 1.79483 1.56392
v -9.95699 1.81101 4.36947
v -8.33264 1.79483 1.63608
v -9.84301 1.81101 4.43053
v -8.29102 1.94017 1.65838
v -9.80778 1.93399 4.44940
v -9.79000 -1.90000 4.40000
v -9.79000 1.90000 4.40000
v -9.86601 -1.90000 4.29538
v -9.86601 1.90000 4.29538
v -9.98899 -1.90000 4.33534
v -9.98899 1.90000 4.33534
v -9.98899 -1.90000 4.46466
v -9.98899 1.90000 4.46466
v -9.86601 -1.90000 4.50462
v -9.86601 1.90000 4.50462
vn -0.00366 0.99525 0.09727
vn -0.00316 0.99523 -0.09755
vn -0.00498 0.78467 0.61990
vn -0.00457 0.88997 0.45599
vn -0.00581 0.32496 0.94571
vn -0.00560 0.50216 0.86476
vn -0.00587 -0.23793 0.97127
vn -0.00594 -0.04509 0.99897
vn -0.00516 -0.72527 0.68845
vn -0.00548 -0.57802 0.81601
vn -0.00388 -0.98234 0.18705
vn -0.00436 -0.92743 0.37397
vn -0.00246 -0.92753 -0.37374
vn -0.00294 -0.98239 -0.18680
vn -0.00134 -0.57823 -0.81587
vn -0.00167 -0.72545 -0.68827
vn -0.00088 -0.04535 -0.99897
vn -0.00095 -0.23818 -0.97122
vn -0.00122 0.50193 -0.86491
vn -0.00101 0.32470 -0.94582
vn -0.00225 0.88985 -0.45625
vn -0.00184 0.78450 -0.62012
vn -0.01547 0.99519 0.09669
vn -0.01369 0.99508 -0.09810
vn -0.02023 0.78486 0.61934
vn -0.01874 0.89008 0.45541
vn -0.02320 0.32534 0.94531
vn -0.02246 0.50249 0.86429
vn -0.02344 -0.23748 0.97111
vn -0.02369 -0.04464 0.99872
vn -0.02086 -0.72489 0.68854
vn -0.02202 -0.57760 0.81602
vn -0.01630 -0.98216 0.18733
vn -0.01800 -0.92717 0.37420
vn -0.01119 -0.92760 -0.37340
vn -0.01289 -0.98238 -0.18647
vn -0.00716 -0.57853 -0.81563
vn -0.00832 -0.72568 -0.68798
vn -0.00549 -0.04579 -0.99894
vn -0.00574 -0.23859 -0.97110
vn -0.00671 0.50150 -0.86513
vn -0.00597 0.32426 -0.94595
vn -0.01043 0.88956 -0.45670
vn -0.00893 0.78415 -0.62051
vn -0.03123 0.99492 0.09569
vn -0.02796 0.99469 -0.09903
vn -0.03999 0.78497 0.61824
vn -0.03724 0.89006 0.45431
vn -0.04546 0.32580 0.94435
vn -0.04410 0.50285 0.86325
vn -0.04590 -0.23681 0.97047
vn -0.04636 -0.04402 0.99795
vn -0.04117 -0.72424 0.68832
vn -0.04330 -0.57691 0.81566
vn -0.03277 -0.98172 0.18748
vn -0.03589 -0.92664 0.37424
vn -0.02337 -0.92752 -0.37305
vn -0.02649 -0.98216 -0.18616
vn -0.01595 -0.57883 -0.81529
vn -0.01808 -0.72586 -0.68761
vn -0.01287 -0.04637 -0.99884
vn -0.01333 -0.23910 -0.97090
vn -0.01511 0.50081 -0.86542
vn -0.01375 0.32357 -0.94610
vn -0.02195 0.88899 -0.45740
vn -0.01920 0.78351 -0.62108
vn -0.04970 0.99431 0.09418
vn -0.04480 0.99394 -0.10038
vn -0.06280 0.78490 0.61643
vn -0.05867 0.88980 0.45256
vn -0.07099 0.32628 0.94260
vn -0.06893 0.50316 0.86144
vn -0.07165 -0.23593 0.96913
vn -0.07232 -0.04323 0.99644
vn -0.06459 -0.72323 0.68758
vn -0.06776 -0.57590 0.81471
vn -0.05203 -0.98091 0.18736
vn -0.05670 -0.92572 0.37393
vn -0.03798 -0.92716 -0.37273
vn -0.04265 -0.98163 -0.18595
vn -0.02688 -0.57904 -0.81485
vn -0.03007 -0.72588 -0.68716
vn -0.02227 -0.04708 -0.99864
vn -0.02296 -0.23967 -0.97058
vn -0.02561 0.49983 -0.86575
vn -0.02357 0.32264 -0.94623
vn -0.03583 0.88804 -0.45836
vn -0.03171 0.78251 -0.62183
vn -0.07029 0.99327 0.09206
vn -0.06367 0.99272 -0.10225
vn -0.08799 0.78456 0.61378
vn -0.08240 0.88921 0.45002
vn -0.09905 0.32676 0.93990
vn -0.09626 0.50338 0.85868
vn -0.09997 -0.23478 0.96689
vn -0.10085 -0.04226 0.99400
vn -0.09045 -0.72179 0.68618
vn -0.09471 -0.57449 0.81301
vn -0.07351 -0.97963 0.18689
vn -0.07979 -0.92432 0.37317
vn -0.05454 -0.92644 -0.37246
vn -0.06083 -0.98069 -0.18587
vn -0.03955 -0.57912 -0.81428
vn -0.04384 -0.72569 -0.68662
vn -0.03331 -0.04793 -0.99830
vn -0.03423 -0.24029 -0.97010
vn -0.03779 0.49848 -0.86608
vn -0.03504 0.32140 -0.94630
vn -0.05158 0.88662 -0.45961
vn -0.04601 0.78105 -0.62278
vn -0.09263 0.99169 0.08922
vn -0.08420 0.99093 -0.10472
vn -0.11511 0.78392 0.61010
vn -0.10798 0.88823 0.44653
vn -0.12917 0.32725 0.93607
vn -0.12560 0.50352 0.85481
vn -0.13036 -0.23332 0.96362
vn -0.13145 -0.04106 0.99047
vn -0.11830 -0.71981 0.68402
vn -0.12368 -0.57259 0.81046
vn -0.09681 -0.97776 0.18603
vn -0.10476 -0.92234 0.37191
vn -0.07272 -0.92529 -0.37223
vn -0.08069 -0.97925 -0.18592
vn -0.05368 -0.57904 -0.81353
vn -0.05912 -0.72525 -0.68594
vn -0.04573 -0.04895 -0.99775
vn -0.04689 -0.24099 -0.96939
vn -0.05140 0.49668 -0.86641
vn -0.04789 0.31978 -0.94628
vn -0.06888 0.88462 -0.46120
vn -0.06179 0.77902 -0.62395
vn -0.11642 0.98951 0.08553
vn -0.10610 0.98848 -0.10793
vn -0.14381 0.78294 0.60525
vn -0.13509 0.88681 0.44194
vn -0.16098 0.32779 0.93093
vn -0.15658 0.50359 0.84963
vn -0.16247 -0.23143 0.95919
vn -0.16376 -0.03952 0.98571
vn -0.14781 -0.71718 0.68104
vn -0.15433 -0.57008 0.80696
vn -0.12165 -0.97522 0.18479
vn -0.13130 -0.91965 0.37015
vn -0.09230 -0.92364 -0.37199
vn -0.10198 -0.97723 -0.18606
vn -0.06907 -0.57881 -0.81253
vn -0.07567 -0.72455 -0.68505
vn -0.05935 -0.05021 -0.99697
vn -0.06073 -0.24183 -0.96842
vn -0.06621 0.49433 -0.86675
vn -0.06191 0.31767 -0.94618
vn -0.08749 0.88192 -0.46321
vn -0.07882 0.77631 -0.62540
vn -0.14137 0.98665 0.08081
vn -0.12911 0.98528 -0.11207
vn -0.17381 0.78165 0.59901
vn -0.16342 0.88498 0.43602
vn -0.19417 0.32848 0.92434
vn -0.18889 0.50370 0.84297
vn -0.19600 -0.22899 0.95349
vn -0.19744 -0.03749 0.97960
vn -0.17870 -0.71375 0.67722
vn -0.18636 -0.56679 0.80251
vn -0.14779 -0.97190 0.18324
vn -0.15916 -0.91613 0.36794
vn -0.11305 -0.92148 -0.37162
vn -0.12447 -0.97461 -0.18615
vn -0.08554 -0.57849 -0.81119
vn -0.09332 -0.72365 -0.68383
vn -0.07398 -0.05184 -0.99591
vn -0.07559 -0.24295 -0.96709
vn -0.08204 0.49127 -0.86714
vn -0.07691 0.31490 -0.94600
vn -0.10716 0.87840 -0.46575
vn -0.09686 0.77276 -0.62726
vn -0.16726 0.98308 0.07475
vn -0.15297 0.98123 -0.11745
vn -0.20481 0.78015 0.59112
vn -0.19268 0.88279 0.42843
vn -0.22845 0.32953 0.91609
vn -0.22222 0.50408 0.83458
vn -0.23066 -0.22571 0.94649
vn -0.23222 -0.03468 0.97205
vn -0.21075 -0.70929 0.67267
vn -0.21950 -0.56242 0.79718
vn -0.17502 -0.96768 0.18157
vn -0.18810 -0.91160 0.36551
vn -0.13484 -0.91883 -0.37090
vn -0.14799 -0.97136 -0.18592
vn -0.10295 -0.57826 -0.80933
vn -0.11191 -0.72271 -0.68203
vn -0.08948 -0.05410 -0.99452
vn -0.09130 -0.24461 -0.96531
vn -0.09871 0.48724 -0.86767
vn -0.09272 0.31115 -0.94583
vn -0.12770 0.87388 -0.46906
vn -0.11571 0.76813 -0.62976
vn -0.19380 0.97876 0.06682
vn -0.17738 0.97620 -0.12475
vn -0.23654 0.77871 0.58109
vn -0.22254 0.88050 0.41856
vn -0.26354 0.33141 0.90593
vn -0.25624 0.50525 0.82405
vn -0.26622 -0.22110 0.93821
vn -0.26779 -0.03042 0.96300
vn -0.24374 -0.70341 0.66768
vn -0.25352 -0.55643 0.79128
vn -0.20322 -0.96240 0.18024
vn -0.21796 -0.90577 0.36341
vn -0.15754 -0.91583 -0.36937
vn -0.17239 -0.96755 -0.18476
vn -0.12120 -0.57849 -0.80663
vn -0.13130 -0.72213 -0.67918
vn -0.10573 -0.05749 -0.99273
vn -0.10772 -0.24744 -0.96290
vn -0.11605 0.48177 -0.86858
vn -0.10914 0.30581 -0.94582
vn -0.14888 0.86807 -0.47359
vn -0.13511 0.76197 -0.63337
vn -0.22066 0.97375 0.05576
vn -0.20189 0.96997 -0.13564
vn -0.26866 0.77803 0.56788
vn -0.25254 0.87882 0.40485
vn -0.29916 0.33528 0.89336
vn -0.29056 0.50864 0.81047
vn -0.30249 -0.21391 0.92884
vn -0.30386 -0.02302 0.95244
vn -0.27758 -0.69519 0.66307
vn -0.28824 -0.54737 0.78569
vn -0.23235 -0.95575 0.18042
vn -0.24864 -0.89794 0.36315
vn -0.18115 -0.91287 -0.36586
vn -0.19764 -0.96342 -0.18101
vn -0.14024 -0.58016 -0.80234
vn -0.15143 -0.72302 -0.67403
vn -0.12261 -0.06325 -0.99044
vn -0.12469 -0.25306 -0.95938
vn -0.13386 0.47374 -0.87043
vn -0.12590 0.29724 -0.94647
vn -0.17041 0.86032 -0.48043
vn -0.15468 0.75317 -0.63939
vn -0.24723 0.96823 0.03757
vn -0.22533 0.96168 -0.15620
vn -0.30061 0.78043 0.54824
vn -0.28156 0.88034 0.38173
vn -0.33496 0.34485 0.87686
vn -0.32429 0.51950 0.79054
vn -0.33938 -0.20022 0.91909
vn -0.33996 -0.00627 0.94042
vn -0.31245 -0.68172 0.66154
vn -0.32359 -0.53006 0.78379
vn -0.26274 -0.94678 0.18596
vn -0.28037 -0.88556 0.37038
vn -0.20602 -0.91124 -0.35665
vn -0.22404 -0.95989 -0.16856
vn -0.16030 -0.58639 -0.79401
vn -0.17247 -0.72947 -0.66191
vn -0.14010 -0.07537 -0.98726
vn -0.14203 -0.26745 -0.95305
vn -0.15183 0.45959 -0.87506
vn -0.14240 0.27949 -0.94953
vn -0.19177 0.84862 -0.49302
vn -0.17345 0.73769 -0.65248
vn -0.09027 0.99512 0.03992
vn -0.08049 0.98164 -0.17293
vn -0.11166 0.81362 0.57058
vn -0.10295 0.91747 0.38425
vn -0.12570 0.37380 0.91895
vn -0.12044 0.56202 0.81831
vn -0.12793 -0.18470 0.97443
vn -0.12742 0.02812 0.99145
vn -0.11765 -0.68455 0.71941
vn -0.12166 -0.51470 0.84869
vn -0.09813 -0.96707 0.23484
vn -0.10501 -0.89411 0.43537
vn -0.07555 -0.94255 -0.32542
vn -0.08273 -0.98964 -0.11730
vn -0.05709 -0.61877 -0.78349
vn -0.06192 -0.77097 -0.63385
vn -0.04861 -0.09854 -0.99394
vn -0.04917 -0.30753 -0.95027
vn -0.05280 0.45297 -0.88996
vn -0.04853 0.25356 -0.96610
vn -0.06833 0.86067 -0.50455
vn -0.06021 0.73414 -0.67632
vn 0.29382 -0.95061 -0.10006
vn -0.33582 -0.93675 -0.09861
vn 0.95061 0.29382 -0.10006
vn 0.93675 -0.33582 -0.09861
vn -0.29382 0.95061 -0.10006
vn 0.33582 0.93675 -0.09861
vn -0.95061 -0.29382 -0.10006
vn -0.93675 0.33582 -0.09861
vn 0.28428 -0.94759 -0.14578
vn -0.34216 -0.92872 -0.14288
vn 0.94759 0.28428 -0.14578
vn 0.92872 -0.34216 -0.14288
vn -0.28428 0.94759 -0.14578
vn 0.34216 0.92872 -0.14288
vn -0.94759 -0.28428 -0.14578
vn -0.92872 0.34216 -0.14288
vn 0.22483 -0.97425 -0.01694
vn -0.41375 -0.91025 -0.01583
vn 0.97425 0.22483 -0.01694
vn 0.91025 -0.41375 -0.01583
vn -0.22483 0.97425 -0.01694
vn 0.41375 0.91025 -0.01583
vn -0.97425 -0.22483 -0.01694
vn -0.91025 0.41375 -0.01583
vn 0.18901 -0.97744 0.09427
vn -0.22678 -0.96545 -0.12839
vn 0.87984 -0.10125 0.46436
vn 0.74127 -0.54612 0.39021
vn 0.35878 0.91486 0.18522
vn 0.68888 0.62792 0.36215
vn -0.65409 0.66667 -0.35739
vn -0.31155 0.93420 -0.17380
vn -0.75901 -0.50284 -0.41359
vn -0.87747 -0.05056 -0.47697
vn 0.18901 -0.97744 0.09427
vn -0.22678 -0.96545 -0.12839
vn 0.87984 -0.10125 0.46436
vn 0.74127 -0.54612 0.39021
vn 0.35878 0.91486 0.18522
vn 0.68888 0.62792 0.36215
vn -0.65409 0.66667 -0.35739
vn -0.31155 0.93420 -0.17380
vn -0.75901 -0.50284 -0.41359
vn -0.87747 -0.05056 -0.47697
vn -0.97190 0.00000 0.23538
vn -0.97190 0.00000 -0.23538
vn -0.07648 0.00000 0.99707
vn -0.52419 0.00000 0.85160
vn 0.92464 0.00000 0.38085
vn 0.64794 0.00000 0.76169
vn 0.64794 0.00000 -0.76169
vn 0.92464 0.00000 -0.38085
vn -0.52419 0.00000 -0.85160
vn -0.07648 0.00000 -0.99707
f 1//1 2//2 4//4
f 1//1 4//4 3//3
f 3//3 4//4 6//6
f 3//3 6//6 5//5
f 5//5 6//6 8//8
f 5//5 8//8 7//7
f 7//7 8//8 10//10
f 7//7 10//10 9//9
f 9//9 10//10 12//12
f 9//9 12//12 11//11
f 11//11 12//12 14//14
f 11//11 14//14 13//13
f 13//13 14//14 16//16
f 13//13 16//16 15//15
f 15//15 16//16 18//18
f 15//15 18//18 17//17
f 17//17 18//18 20//20
f 17//17 20//20 19//19
f 19//19 20//20 22//22
f 19//19 22//22 21//21
f 21//21 22//22 2//2
f 21//21 2//2 1//1
f 23//23 24//24 26//26
f 23//23 26//26 25//25
f 25//25 26//26 28//28
f 25//25 28//28 27//27
f 27//27 28//28 30//30
f 27//27 30//30 29//29
f 29//29 30//30 32//32
f 29//29 32//32 31//31
f 31//31 32//32 34//34
f 31//31 34//34 33//33
f 33//33 34//34 36//36
f 33//33 36//36 35//35
f 35//35 36//36 38//38
f 35//35 38//38 37//37
f 37//37 38//38 40//40
f 37//37 40//40 39//39
f 39//39 40//40 42//42
f 39//39 42//42 41//41
f 41//41 42//42 44//44
f 41//41 44//44 43//43
f 43//43 44//44 24//24
f 43//43 24//24 23//23
f 45//45 46//46 48//48
f 45//45 48//48 47//47
f 47//47 48//48 50//50
f 47//47 50//50 49//49
f 49//49 50//50 52//52
f 49//49 52//52 51//51
f 51//51 52//52 54//54
f 51//51 54//54 53//53
f 53//53 54//54 56//56
f 53//53 56//56 55//55
f 55//55 56//56 58//58
f 55//55 58//58 57//57
f 57//57 58//58 60//60
f 57//57 60//60 59//59
f 59//59 60//60 62//62
f 59//59 62//62 61//61
f 61//61 62//62 64//64
f 61//61 64//64 63//63
f 63//63 64//64 66//66
f 63//63 66//66 65//65
f 65//65 66//66 46//46
f 65//65 46//46 45//45
f 67//67 68//68 70//70
f 67//67 70//70 69//69
f 69//69 70//70 72//72
f 69//69 72//72 71//71
f 71//71 72//72 74//74
f 71//71 74//74 73//73
f 73//73 74//74 76//76
f 73//73 76//76 75//75
f 75//75 76//76 78//78
f 75//75 78//78 77//77
f 77//77 78//78 80//80
f 77//77 80//80 79//79
f 79//79 80//80 82//82
f 79//79 82//82 81//81
f 81//81 82//82 84//84
f 81//81 84//84 83//83
f 83//83 84//84 86//86
f 83//83 86//86 85//85
f 85//85 86//86 88//88
f 85//85 88//88 87//87
f 87//87 88//88 68//68
f 87//87 68//68 67//67
f 89//89 90//90 92//92
f 89//89 92//92 91//91
f 91//91 92//92 94//94
f 91//91 94//94 93//93
f 93//93 94//94 96//96
f 93//93 96//96 95//95
f 95//95 96//96 98//98
f 95//95 98//98 97//97
f 97//97 98//98 100//100
f 97//97 100//100 99//99
f 99//99 100//100 102//102
f 99//99 102//102 101//101
f 101//101 102//102 104//104
f 101//101 104//104 103//103
f 103//103 104//104 106//106
f 103//103 106//106 105//105
f 105//105 106//106 108//108
f 105//105 108//108 107//107
f 107//107 108//108 110//110
f 107//107 110//110 109//109
f 109//109 110//110 90//90
f 109//109 90//90 89//89
f 111//111 112//112 114//114
f 111//111 114//114 113//113
f 113//113 114//114 116//116
f 113//113 116//116 115//115
f 115//115 116//116 118//118
f 115//115 118//118 117//117
f 117//117 118//118 120//120
f 117//117 120//120 119//119
f 119//119 120//120 122//122
f 119//119 122//122 121//121
f 121//121 122//122 124//124
f 121//121 124//124 123//123
f 123//123 124//124 126//126
f 123//123 126//126 125//125
f 125//125 126//126 128//128
f 125//125 128//128 127//127
f 127//127 128//128 130//130
f 127//127 130//130 129//129
f 129//129 130//130 132//132
f 129//129 132//132 131//131
f 131//131 132//132 112//112
f 131//131 112//112 111//111
f 133//133 134//134 136//136
f 133//133 136//136 135//135
f 135//135 136//136 138//138
f 135//135 138//138 137//137
f 137//137 138//138 140//140
f 137//137 140//140 139//139
f 139//139 140//140 142//142
f 139//139 142//142 141//141
f 141//141 142//142 144//144
f 141//141 144//144 143//143
f 143//143 144//144 146//146
f 143//143 146//146 145//145
f 145//145 146//146 148//148
f 145//145 148//148 147//147
f 147//147 148//148 150//150
f 147//147 150//150 149//149
f 149//149 150//150 152//152
f 149//149 152//152 151//151
f 151//151 152//152 154//154
f 151//151 154//154 153//153
f 153//153 154//154 134//134
f 153//153 134//134 133//133
f 155//155 156//156 158//158
f 155//155 158//158 157//157
f 157//157 158//158 160//160
f 157//157 160//160 159//159
f 159//159 160//160 162//162
f 159//159 162//162 161//161
f 161//161 162//162 164//164
f 161//161 164//164 163//163
f 163//163 164//164 166//166
f 163//163 166//166 165//165
f 165//165 166//166 168//168
f 165//165 168//168 167//167
f 167//167 168//168 170//170
f 167//167 170//170 169//169
f 169//169 170//170 172//172
f 169//169 172//172 171//171
f 171//171 172//172 174//174
f 171//171 174//174 173//173
f 173//173 174//174 176//176
f 173//173 176//176 175//175
f 175//175 176//176 156//156
f 175//175 156//156 155//155
f 177//177 178//178 180//180
f 177//177 180//180 179//179
f 179//179 180//180 182//182
f 179//179 182//182 181//181
f 181//181 182//182 184//184
f 181//181 184//184 183//183
f 183//183 184//184 186//186
f 183//183 186//186 185//185
f 185//185 186//186 188//188
f 185//185 188//188 187//187
f 187//187 188//188 190//190
f 187//187 190//190 189//189
f 189//189 190//190 192//192
f 189//189 192//192 191//191
f 191//191 192//192 194//194
f 191//191 194//194 193//193
f 193//193 194//194 196//196
f 193//193 196//196 195//195
f 195//195 196//196 198//198
f 195//195 198//198 197//197
f 197//197 198//198 178//178
f 197//197 178//178 177//177
f 199//199 200//200 202//202
f 199//199 202//202 201//201
f 201//201 202//202 204//204
f 201//201 204//204 203//203
f 203//203 204//204 206//206
f 203//203 206//206 205//205
f 205//205 206//206 208//208
f 205//205 208//208 207//207
f 207//207 208//208 210//210
f 207//207 210//210 209//209
f 209//209 210//210 212//212
f 209//209 212//212 211//211
f 211//211 212//212 214//214
f 211//211 214//214 213//213
f 213//213 214//214 216//216
f 213//213 216//216 215//215
f 215//215 216//216 218//218
f 215//215 218//218 217//217
f 217//217 218//218 220//220
f 217//217 220//220 219//219
f 219//219 220//220 200//200
f 219//219 200//200 199//199
f 221//221 222//222 224//224
f 221//221 224//224 223//223
f 223//223 224//224 226//226
f 223//223 226//226 225//225
f 225//225 226//226 228//228
f 225//225 228//228 227//227
f 227//227 228//228 230//230
f 227//227 230//230 229//229
f 229//229 230//230 232//232
f 229//229 232//232 231//231
f 231//231 232//232 234//234
f 231//231 234//234 233//233
f 233//233 234//234 236//236
f 233//233 236//236 235//235
f 235//235 236//236 238//238
f 235//235 238//238 237//237
f 237//237 238//238 240//240
f 237//237 240//240 239//239
f 239//239 240//240 242//242
f 239//239 242//242 241//241
f 241//241 242//242 222//222
f 241//241 222//222 221//221
f 243//243 244//244 246//246
f 243//243 246//246 245//245
f 245//245 246//246 248//248
f 245//245 248//248 247//247
f 247//247 248//248 250//250
f 247//247 250//250 249//249
f 249//249 250//250 252//252
f 249//249 252//252 251//251
f 251//251 252//252 254//254
f 251//251 254//254 253//253
f 253//253 254//254 256//256
f 253//253 256//256 255//255
f 255//255 256//256 258//258
f 255//255 258//258 257//257
f 257//257 258//258 260//260
f 257//257 260//260 259//259
f 259//259 260//260 262//262
f 259//259 262//262 261//261
f 261//261 262//262 264//264
f 261//261 264//264 263//263
f 263//263 264//264 244//244
f 263//263 244//244 243//243
f 265//265 266//266 268//268
f 265//265 268//268 267//267
f 267//267 268//268 270//270
f 267//267 270//270 269//269
f 269//269 270//270 272//272
f 269//269 272//272 271//271
f 271//271 272//272 274//274
f 271//271 274//274 273//273
f 273//273 274//274 276//276
f 273//273 276//276 275//275
f 275//275 276//276 278//278
f 275//275 278//278 277//277
f 277//277 278//278 280//280
f 277//277 280//280 279//279
f 279//279 280//280 282//282
f 279//279 282//282 281//281
f 281//281 282//282 284//284
f 281//281 284//284 283//283
f 283//283 284//284 286//286
f 283//283 286//286 285//285
f 285//285 286//286 266//266
f 285//285 266//266 265//265
f 287//287 288//288 290//290
f 287//287 290//290 289//289
f 289//289 290//290 292//292
f 289//289 292//292 291//291
f 291//291 292//292 294//294
f 291//291 294//294 293//293
f 293//293 294//294 288//288
f 293//293 288//288 287//287
f 295//295 296//296 298//298
f 295//295 298//298 297//297
f 297//297 298//298 300//300
f 297//297 300//300 299//299
f 299//299 300//300 302//302
f 299//299 302//302 301//301
f 301//301 302//302 296//296
f 301//301 296//296 295//295
f 303//303 304//304 306//306
f 303//303 306//306 305//305
f 305//305 306//306 308//308
f 305//305 308//308 307//307
f 307//307 308//308 310//310
f 307//307 310//310 309//309
f 309//309 310//310 304//304
f 309//309 304//304 303//303
f 311//311 312//312 314//314
f 311//311 314//314 313//313
f 313//313 314//314 316//316
f 313//313 316//316 315//315
f 315//315 316//316 318//318
f 315//315 318//318 317//317
f 317//317 318//318 320//320
f 317//317 320//320 319//319
f 319//319 320//320 312//312
f 319//319 312//312 311//311
f 321//321 322//322 324//324
f 321//321 324//324 323//323
f 323//323 324//324 326//326
f 323//323 326//326 325//325
f 325//325 326//326 328//328
f 325//325 328//328 327//327
f 327//327 328//328 330//330
f 327//327 330//330 329//329
f 329//329 330//330 322//322
f 329//329 322//322 321//321
f 331//331 332//332 334//334
f 331//331 334//334 333//333
f 333//333 334//334 336//336
f 333//333 336//336 335//335
f 335//335 336//336 338//338
f 335//335 338//338 337//337
f 337//337 338//338 340//340
f 337//337 340//340 339//339
f 339//339 340//340 332//332
f 339//339 332//332 331//331
