# generated by scripts/make_scenery.py
v -3.10000 -0.85000 0.00000
v -2.32500 -0.84137 0.00000
v -3.10000 -0.65114 -0.54637
v -2.32500 -0.64452 -0.54082
v -3.10000 -0.14760 -0.83709
v -2.32500 -0.14610 -0.82858
v -3.10000 0.42500 -0.73612
v -2.32500 0.42068 -0.72865
v -3.10000 0.79874 -0.29072
v -2.32500 0.79063 -0.28776
v -3.10000 0.79874 0.29072
v -2.32500 0.79063 0.28776
v -3.10000 0.42500 0.73612
v -2.32500 0.42068 0.72865
v -3.10000 -0.14760 0.83709
v -2.32500 -0.14610 0.82858
v -3.10000 -0.65114 0.54637
v -2.32500 -0.64452 0.54082
v -2.32500 -0.84137 0.00000
v -1.55000 -0.81547 0.00000
v -2.32500 -0.64452 -0.54082
v -1.55000 -0.62469 -0.52417
v -2.32500 -0.14610 -0.82858
v -1.55000 -0.14160 -0.80308
v -2.32500 0.42068 -0.72865
v -1.55000 0.40773 -0.70622
v -2.32500 0.79063 -0.28776
v -1.55000 0.76629 -0.27891
v -2.32500 0.79063 0.28776
v -1.55000 0.76629 0.27891
v -2.32500 0.42068 0.72865
v -1.55000 0.40773 0.70622
v -2.32500 -0.14610 0.82858
v -1.55000 -0.14160 0.80308
v -2.32500 -0.64452 0.54082
v -1.55000 -0.62469 0.52417
v -1.55000 -0.81547 0.00000
v -0.77500 -0.77230 0.00000
v -1.55000 -0.62469 -0.52417
v -0.77500 -0.59162 -0.49643
v -1.55000 -0.14160 -0.80308
v -0.77500 -0.13411 -0.76057
v -1.55000 0.40773 -0.70622
v -0.77500 0.38615 -0.66884
v -1.55000 0.76629 -0.27891
v -0.77500 0.72573 -0.26414
v -1.55000 0.76629 0.27891
v -0.77500 0.72573 0.26414
v -1.55000 0.40773 0.70622
v -0.77500 0.38615 0.66884
v -1.55000 -0.14160 0.80308
v -0.77500 -0.13411 0.76057
v -1.55000 -0.62469 0.52417
v -0.77500 -0.59162 0.49643
v -0.77500 -0.77230 0.00000
v 0.00000 -0.71188 0.00000
v -0.77500 -0.59162 -0.49643
v 0.00000 -0.54533 -0.45758
v -0.77500 -0.13411 -0.76057
v 0.00000 -0.12362 -0.70106
v -0.77500 0.38615 -0.66884
v 0.00000 0.35594 -0.61650
v -0.77500 0.72573 -0.26414
v 0.00000 0.66894 -0.24348
v -0.77500 0.72573 0.26414
v 0.00000 0.66894 0.24348
v -0.77500 0.38615 0.66884
v 0.00000 0.35594 0.61650
v -0.77500 -0.13411 0.76057
v 0.00000 -0.12362 0.70106
v -0.77500 -0.59162 0.49643
v 0.00000 -0.54533 0.45758
v 0.00000 -0.71188 0.00000
v 0.77500 -0.63418 0.00000
v 0.00000 -0.54533 -0.45758
v 0.77500 -0.48581 -0.40764
v 0.00000 -0.12362 -0.70106
v 0.77500 -0.11012 -0.62455
v 0.00000 0.35594 -0.61650
v 0.77500 0.31709 -0.54922
v 0.00000 0.66894 -0.24348
v 0.77500 0.59593 -0.21690
v 0.00000 0.66894 0.24348
v 0.77500 0.59593 0.21690
v 0.00000 0.35594 0.61650
v 0.77500 0.31709 0.54922
v 0.00000 -0.12362 0.70106
v 0.77500 -0.11012 0.62455
v 0.00000 -0.54533 0.45758
v 0.77500 -0.48581 0.40764
v 0.77500 -0.63418 0.00000
v 1.55000 -0.53922 0.00000
v 0.77500 -0.48581 -0.40764
v 1.55000 -0.41307 -0.34660
v 0.77500 -0.11012 -0.62455
v 1.55000 -0.09363 -0.53103
v 0.77500 0.31709 -0.54922
v 1.55000 0.26961 -0.46698
v 0.77500 0.59593 -0.21690
v 1.55000 0.50670 -0.18442
v 0.77500 0.59593 0.21690
v 1.55000 0.50670 0.18442
v 0.77500 0.31709 0.54922
v 1.55000 0.26961 0.46698
v 0.77500 -0.11012 0.62455
v 1.55000 -0.09363 0.53103
v 0.77500 -0.48581 0.40764
v 1.55000 -0.41307 0.34660
v 1.55000 -0.53922 0.00000
v 2.32500 -0.42699 0.00000
v 1.55000 -0.41307 -0.34660
v 2.32500 -0.32709 -0.27447
v 1.55000 -0.09363 -0.53103
v 2.32500 -0.07415 -0.42051
v 1.55000 0.26961 -0.46698
v 2.32500 0.21350 -0.36979
v 1.55000 0.50670 -0.18442
v 2.32500 0.40124 -0.14604
v 1.55000 0.50670 0.18442
v 2.32500 0.40124 0.14604
v 1.55000 0.26961 0.46698
v 2.32500 0.21350 0.36979
v 1.55000 -0.09363 0.53103
v 2.32500 -0.07415 0.42051
v 1.55000 -0.41307 0.34660
v 2.32500 -0.32709 0.27447
v 2.32500 -0.42699 0.00000
v 3.10000 -0.29750 0.00000
v 2.32500 -0.32709 -0.27447
v 3.10000 -0.22790 -0.19123
v 2.32500 -0.07415 -0.42051
v 3.10000 -0.05166 -0.29298
v 2.32500 0.21350 -0.36979
v 3.10000 0.14875 -0.25764
v 2.32500 0.40124 -0.14604
v 3.10000 0.27956 -0.10175
v 2.32500 0.40124 0.14604
v 3.10000 0.27956 0.10175
v 2.32500 0.21350 0.36979
v 3.10000 0.14875 0.25764
v 2.32500 -0.07415 0.42051
v 3.10000 -0.05166 0.29298
v 2.32500 -0.32709 0.27447
v 3.10000 -0.22790 0.19123
v 3.10000 -0.29750 0.00000
v 3.87500 -0.15074 0.00000
v 3.10000 -0.22790 -0.19123
v 3.87500 -0.11548 -0.09690
v 3.10000 -0.05166 -0.29298
v 3.87500 -0.02618 -0.14845
v 3.10000 0.14875 -0.25764
v 3.87500 0.07537 -0.13055
v 3.10000 0.27956 -0.10175
v 3.87500 0.14165 -0.05156
v 3.10000 0.27956 0.10175
v 3.87500 0.14165 0.05156
v 3.10000 0.14875 0.25764
v 3.87500 0.07537 0.13055
v 3.10000 -0.05166 0.29298
v 3.87500 -0.02618 0.14845
v 3.10000 -0.22790 0.19123
v 3.87500 -0.11548 0.09690
v -3.10000 -0.16000 -0.67500
v 2.79000 -0.10000 -0.52500
v -3.09647 -0.08000 -0.81352
v 2.79220 -0.05000 -0.61157
v -3.09647 0.08000 -0.81352
v 2.79220 0.05000 -0.61157
v -3.10000 0.16000 -0.67500
v 2.79000 0.10000 -0.52500
v -3.10353 0.08000 -0.53648
v 2.78780 0.05000 -0.43843
v -3.10353 -0.08000 -0.53648
v 2.78780 -0.05000 -0.43843
v -1.86000 -0.66171 -0.01705
v -1.86000 -0.47672 0.61496
v -1.91231 -0.69784 -0.00527
v -1.89329 -0.49972 0.62246
v -1.89233 -0.75630 0.01379
v -1.88057 -0.53692 0.63459
v -1.82767 -0.75630 0.01379
v -1.83943 -0.53692 0.63459
v -1.80769 -0.69784 -0.00527
v -1.82671 -0.49972 0.62246
v -1.86000 0.76434 0.02215
v -1.86000 0.50804 0.55506
v -1.91231 0.72956 0.00684
v -1.89329 0.48590 0.54532
v -1.89233 0.67327 -0.01792
v -1.88057 0.45008 0.52956
v -1.82767 0.67327 -0.01792
v -1.83943 0.45008 0.52956
v -1.80769 0.72956 0.00684
v -1.82671 0.48590 0.54532
v -1.44000 -0.66303 -0.02066
v -1.44000 -0.47756 0.49025
v -1.49231 -0.69825 -0.00638
v -1.47329 -0.49998 0.49933
v -1.47233 -0.75524 0.01671
v -1.46057 -0.53624 0.51403
v -1.40767 -0.75524 0.01671
v -1.41943 -0.53624 0.51403
v -1.38769 -0.69825 -0.00638
v -1.40671 -0.49998 0.49933
v -1.49500 0.71400 0.00000
v -1.47500 0.47600 0.39082
v -1.45700 0.66932 -0.02721
v -1.45082 0.44757 0.37351
v -1.39550 0.68639 -0.01681
v -1.41168 0.45843 0.38012
v -1.39550 0.74161 0.01681
v -1.41168 0.49357 0.40152
v -1.45700 0.75868 0.02721
v -1.45082 0.50443 0.40814
v -1.02000 -0.66125 -0.01556
v -1.02000 -0.47643 0.68151
v -1.07231 -0.69770 -0.00481
v -1.05329 -0.49963 0.68835
v -1.05233 -0.75668 0.01259
v -1.04057 -0.53716 0.69942
v -0.98767 -0.75668 0.01259
v -0.99943 -0.53716 0.69942
v -0.96769 -0.69770 -0.00481
v -0.98671 -0.49963 0.68835
v -1.07500 0.71400 0.00000
v -1.05500 0.47600 0.39267
v -1.03700 0.66927 -0.02711
v -1.03082 0.44753 0.37542
v -0.97550 0.68635 -0.01676
v -0.99168 0.45841 0.38201
v -0.97550 0.74165 0.01676
v -0.99168 0.49359 0.40333
v -1.03700 0.75873 0.02711
v -1.03082 0.50447 0.40992
v -0.60000 -0.66029 -0.01185
v -0.60000 -0.47582 0.91699
v -0.65231 -0.69740 -0.00366
v -0.63329 -0.49944 0.92220
v -0.63233 -0.75745 0.00959
v -0.62057 -0.53765 0.93063
v -0.56767 -0.75745 0.00959
v -0.57943 -0.53765 0.93063
v -0.54769 -0.69740 -0.00366
v -0.56671 -0.49944 0.92220
v -0.60000 0.76663 0.01597
v -0.60000 0.50949 0.79439
v -0.65231 0.73026 0.00494
v -0.63329 0.48635 0.78736
v -0.63233 0.67142 -0.01292
v -0.62057 0.44890 0.77600
v -0.56767 0.67142 -0.01292
v -0.57943 0.44890 0.77600
v -0.54769 0.73026 0.00494
v -0.56671 0.48635 0.78736
v -0.18000 -0.65992 -0.01004
v -0.18000 -0.47559 1.09265
v -0.23231 -0.69729 -0.00310
v -0.21329 -0.49937 1.09706
v -0.21233 -0.75775 0.00812
v -0.20057 -0.53784 1.10420
v -0.14767 -0.75775 0.00812
v -0.15943 -0.53784 1.10420
v -0.12769 -0.69729 -0.00310
v -0.14671 -0.49937 1.09706
v -0.18000 0.76615 0.01746
v -0.18000 0.50919 0.72184
v -0.23231 0.73012 0.00540
v -0.21329 0.48626 0.71416
v -0.21233 0.67181 -0.01413
v -0.20057 0.44915 0.70174
v -0.14767 0.67181 -0.01413
v -0.15943 0.44915 0.70174
v -0.12769 0.73012 0.00540
v -0.14671 0.48626 0.71416
v 0.24000 -0.66260 -0.01958
v 0.24000 -0.47729 0.52300
v 0.18769 -0.69812 -0.00605
v 0.20671 -0.49989 0.53161
v 0.20767 -0.75558 0.01584
v 0.21943 -0.53646 0.54554
v 0.27233 -0.75558 0.01584
v 0.26057 -0.53646 0.54554
v 0.29231 -0.69812 -0.00605
v 0.27329 -0.49989 0.53161
v 0.18500 0.71400 0.00000
v 0.20500 0.47600 0.33587
v 0.22300 0.67132 -0.03024
v 0.22918 0.44884 0.31663
v 0.28450 0.68762 -0.01869
v 0.26832 0.45921 0.32398
v 0.28450 0.74038 0.01869
v 0.26832 0.49279 0.34777
v 0.22300 0.75668 0.03024
v 0.22918 0.50316 0.35512
v 0.66000 -0.66034 -0.01205
v 0.66000 -0.47585 0.90091
v 0.60769 -0.69742 -0.00372
v 0.62671 -0.49945 0.90621
v 0.62767 -0.75742 0.00975
v 0.63943 -0.53763 0.91479
v 0.69233 -0.75742 0.00975
v 0.68057 -0.53763 0.91479
v 0.71231 -0.69742 -0.00372
v 0.69329 -0.49945 0.90621
v 0.66000 0.76564 0.01893
v 0.66000 0.50886 0.66148
v 0.60769 0.72996 0.00585
v 0.62671 0.48616 0.65316
v 0.62767 0.67222 -0.01531
v 0.63943 0.44941 0.63970
v 0.69233 0.67222 -0.01531
v 0.68057 0.44941 0.63970
v 0.71231 0.72996 0.00585
v 0.69329 0.48616 0.65316
v 1.01672 -0.08654 0.45000
v 3.10436 0.55673 0.15000
v 0.99416 -0.04618 0.37278
v 3.09308 0.57691 0.11139
v 0.96944 0.04035 0.37278
v 3.08072 0.62018 0.11139
v 0.96728 0.08654 0.45000
v 3.07964 0.64327 0.15000
v 0.98984 0.04618 0.52722
v 3.09092 0.62309 0.18861
v 1.01456 -0.04035 0.52722
v 3.10328 0.57982 0.18861
vn -0.01106 0.99276 0.11963
vn -0.01106 0.99256 -0.12124
vn -0.01106 0.68360 0.72977
vn -0.01106 0.83828 0.54513
vn -0.01106 0.05458 0.99845
vn -0.01106 0.29176 0.95643
vn -0.01106 -0.59998 0.79994
vn -0.01106 -0.39128 0.92020
vn -0.01106 -0.97380 0.22713
vn -0.01106 -0.89124 0.45341
vn -0.01106 -0.89197 -0.45196
vn -0.01106 -0.97417 -0.22555
vn -0.01106 -0.39278 -0.91957
vn -0.01106 -0.60128 -0.79896
vn -0.01106 0.29020 -0.95690
vn -0.01106 0.05296 -0.99854
vn -0.01106 0.83739 -0.54649
vn -0.01106 0.68241 -0.73088
vn -0.03317 0.99247 0.11791
vn -0.03315 0.99187 -0.12286
vn -0.03317 0.68448 0.72827
vn -0.03315 0.83879 0.54345
vn -0.03317 0.05622 0.99787
vn -0.03315 0.29323 0.95547
vn -0.03317 -0.59835 0.80055
vn -0.03315 -0.38954 0.92041
vn -0.03317 -0.97295 0.22864
vn -0.03315 -0.89003 0.45469
vn -0.03317 -0.89229 -0.45025
vn -0.03315 -0.97407 -0.22379
vn -0.03317 -0.39412 -0.91846
vn -0.03315 -0.60233 -0.79756
vn -0.03317 0.28846 -0.95692
vn -0.03315 0.05124 -0.99814
vn -0.03317 0.83607 -0.54762
vn -0.03315 0.68085 -0.73168
vn -0.05523 0.99171 0.11600
vn -0.05518 0.99067 -0.12459
vn -0.05523 0.68514 0.72632
vn -0.05518 0.83898 0.54135
vn -0.05523 0.05798 0.99679
vn -0.05518 0.29472 0.95399
vn -0.05523 -0.59631 0.80085
vn -0.05518 -0.38744 0.92024
vn -0.05523 -0.97158 0.23019
vn -0.05518 -0.88832 0.45590
vn -0.05523 -0.89223 -0.44819
vn -0.05518 -0.97354 -0.22176
vn -0.05523 -0.39540 -0.91685
vn -0.05518 -0.60323 -0.79565
vn -0.05523 0.28644 -0.95650
vn -0.05518 0.04933 -0.99726
vn -0.05523 0.83426 -0.54860
vn -0.05518 0.67882 -0.73223
vn -0.07723 0.99050 0.11373
vn -0.07711 0.98895 -0.12659
vn -0.07723 0.68566 0.72381
vn -0.07711 0.83895 0.53872
vn -0.07723 0.05999 0.99521
vn -0.07711 0.29639 0.95195
vn -0.07723 -0.59375 0.80093
vn -0.07711 -0.38485 0.91975
vn -0.07723 -0.96967 0.23190
vn -0.07711 -0.88602 0.45719
vn -0.07723 -0.89187 -0.44565
vn -0.07711 -0.97261 -0.21929
vn -0.07723 -0.39675 -0.91467
vn -0.07711 -0.60410 -0.79317
vn -0.07723 0.28401 -0.95571
vn -0.07711 0.04707 -0.99591
vn -0.07723 0.83188 -0.54956
vn -0.07711 0.67621 -0.73266
vn -0.09914 0.98887 0.11091
vn -0.09892 0.98669 -0.12910
vn -0.09914 0.68623 0.72060
vn -0.09892 0.83883 0.53533
vn -0.09914 0.06249 0.99311
vn -0.09892 0.29848 0.94928
vn -0.09914 -0.59049 0.80093
vn -0.09892 -0.38154 0.91905
vn -0.09914 -0.96717 0.23399
vn -0.09892 -0.88303 0.45878
vn -0.09914 -0.89130 -0.44244
vn -0.09892 -0.97134 -0.21615
vn -0.09914 -0.39838 -0.91185
vn -0.09892 -0.60515 -0.78994
vn -0.09914 0.28095 -0.95459
vn -0.09892 0.04420 -0.99411
vn -0.09914 0.82882 -0.55067
vn -0.09892 0.67286 -0.73313
vn -0.12092 0.98686 0.10715
vn -0.12055 0.98381 -0.13260
vn -0.12092 0.68711 0.71642
vn -0.12055 0.83888 0.53081
vn -0.12092 0.06585 0.99048
vn -0.12055 0.30142 0.94584
vn -0.12092 -0.58623 0.80107
vn -0.12055 -0.37707 0.91830
vn -0.12092 -0.96399 0.23684
vn -0.12055 -0.87913 0.46108
vn -0.12092 -0.89070 -0.43821
vn -0.12055 -0.96983 -0.21188
vn -0.12092 -0.40064 -0.90822
vn -0.12055 -0.60674 -0.78571
vn -0.12092 0.27689 -0.95326
vn -0.12055 0.04026 -0.99189
vn -0.12092 0.82485 -0.55226
vn -0.12055 0.66841 -0.73396
vn -0.14257 0.98455 0.10164
vn -0.14194 0.98020 -0.13808
vn -0.14257 0.68888 0.71072
vn -0.14194 0.83963 0.52428
vn -0.14257 0.07087 0.98724
vn -0.14194 0.30619 0.94133
vn -0.14257 -0.58030 0.80183
vn -0.14194 -0.37052 0.91792
vn -0.14257 -0.95994 0.24123
vn -0.14194 -0.87386 0.46500
vn -0.14257 -0.89041 -0.43225
vn -0.14194 -0.96831 -0.20549
vn -0.14257 -0.40425 -0.90347
vn -0.14194 -0.60968 -0.77984
vn -0.14257 0.27106 -0.95194
vn -0.14194 0.03423 -0.98928
vn -0.14257 0.81954 -0.55500
vn -0.14194 0.66212 -0.73583
vn -0.16410 0.98211 0.09235
vn -0.16298 0.97542 -0.14833
vn -0.16410 0.69298 0.70204
vn -0.16298 0.84256 0.51336
vn -0.16410 0.07959 0.98323
vn -0.16298 0.31546 0.93484
vn -0.16410 -0.57104 0.80436
vn -0.16298 -0.35925 0.91890
vn -0.16410 -0.95447 0.24912
vn -0.16298 -0.86586 0.47300
vn -0.16410 -0.89130 -0.42269
vn -0.16298 -0.96732 -0.19423
vn -0.16410 -0.41107 -0.89671
vn -0.16298 -0.61617 -0.77057
vn -0.16410 0.26149 -0.95115
vn -0.16298 0.02330 -0.98635
vn -0.16410 0.81170 -0.56054
vn -0.16298 0.65187 -0.74061
vn -0.18557 0.97998 0.07210
vn -0.18319 0.96740 -0.17488
vn -0.18557 0.70437 0.68515
vn -0.18319 0.85348 0.48786
vn -0.18557 0.09917 0.97761
vn -0.18319 0.34021 0.92233
vn -0.18557 -0.55243 0.81264
vn -0.18319 -0.33225 0.92523
vn -0.18557 -0.94554 0.26742
vn -0.18319 -0.84924 0.49520
vn -0.18557 -0.89622 -0.40292
vn -0.18319 -0.96887 -0.16654
vn -0.18557 -0.42755 -0.88474
vn -0.18319 -0.63515 -0.75035
vn -0.18557 0.24118 -0.95257
vn -0.18319 -0.00424 -0.98307
vn -0.18557 0.79705 -0.57469
vn -0.18319 0.62866 -0.75580
vn -0.01355 0.99063 0.13588
vn -0.00353 0.96857 -0.24871
vn -0.03366 0.37738 0.92544
vn -0.02805 0.69952 0.71406
vn -0.03019 -0.61325 0.78931
vn -0.03438 -0.26905 0.96251
vn -0.00662 -0.99063 -0.13639
vn -0.01619 -0.96857 0.24820
vn 0.01349 -0.37738 -0.92596
vn 0.00833 -0.69952 -0.71456
vn 0.01002 0.61325 -0.78983
vn 0.01466 0.26905 -0.96302
vn 0.17266 -0.94532 0.27669
vn -0.30437 -0.91420 0.26758
vn 0.98970 -0.14240 0.01496
vn 0.81146 -0.56392 0.15340
vn 0.43901 0.84450 -0.30675
vn 0.80588 0.55329 -0.21079
vn -0.71837 0.65152 -0.24384
vn -0.31340 0.89348 -0.32168
vn -0.88299 -0.45465 0.11674
vn -0.99957 -0.01348 -0.02603
vn 0.17264 -0.88766 -0.42692
vn -0.30434 -0.85844 -0.41287
vn 0.98959 -0.11474 -0.08688
vn 0.81138 -0.52124 -0.26452
vn 0.43896 0.83528 0.33109
vn 0.80580 0.55422 0.20863
vn -0.71830 0.64951 0.24936
vn -0.31337 0.88170 0.35271
vn -0.88289 -0.41532 -0.21912
vn -0.99947 0.00863 -0.03140
vn 0.17262 -0.92587 0.33610
vn -0.30431 -0.89540 0.32504
vn 0.98949 -0.14336 0.01899
vn 0.81130 -0.55402 0.18670
vn 0.43891 0.81846 -0.37079
vn 0.80572 0.53481 -0.25455
vn -0.71822 0.63038 -0.29457
vn -0.31334 0.86635 -0.38891
vn -0.88280 -0.44767 0.14231
vn -0.99937 -0.01756 -0.03070
vn 0.98406 0.16977 0.05302
vn 0.95169 -0.23821 -0.19376
vn 0.13996 0.86726 0.47778
vn 0.58343 0.71439 0.38634
vn -0.89756 0.39714 0.19149
vn -0.59111 0.70962 0.38344
vn -0.69468 -0.59090 -0.41020
vn -0.94876 -0.24592 -0.19846
vn 0.46822 -0.73142 -0.49577
vn 0.00474 -0.83171 -0.55519
vn 0.17267 -0.95208 0.25243
vn -0.30439 -0.92073 0.24412
vn 0.98977 -0.14204 0.01343
vn 0.81152 -0.56735 0.13985
vn 0.43904 0.85361 -0.28034
vn 0.80594 0.55976 -0.19270
vn -0.71843 0.65892 -0.22290
vn -0.31342 0.90297 -0.29396
vn -0.88305 -0.45706 0.10637
vn -0.99964 -0.01203 -0.02399
vn 0.98406 0.16980 0.05280
vn 0.95169 -0.23869 -0.19314
vn 0.13996 0.86819 0.47609
vn 0.58344 0.71512 0.38497
vn -0.89756 0.39747 0.19079
vn -0.59111 0.71036 0.38208
vn -0.69469 -0.59183 -0.40883
vn -0.94876 -0.24641 -0.19782
vn 0.46822 -0.73254 -0.49412
vn 0.00474 -0.83295 -0.55333
vn 0.17270 -0.96611 0.19187
vn -0.30444 -0.93429 0.18555
vn 0.98992 -0.14125 0.00986
vn 0.81163 -0.57444 0.10615
vn 0.43911 0.87261 -0.21385
vn 0.80605 0.57327 -0.14710
vn -0.71854 0.67436 -0.17010
vn -0.31347 0.92275 -0.22421
vn -0.88319 -0.46203 0.08065
vn -0.99979 -0.00897 -0.01862
vn 0.17269 -0.93527 -0.30895
vn -0.30442 -0.90447 -0.29878
vn 0.98985 -0.12704 -0.06367
vn 0.81158 -0.55187 -0.19177
vn 0.43908 0.86640 0.23783
vn 0.80600 0.57272 0.14953
vn -0.71849 0.67214 0.17887
vn -0.31344 0.91516 0.25345
vn -0.88313 -0.44135 -0.15906
vn -0.99972 0.00221 -0.02362
vn 0.17271 -0.97149 0.16240
vn -0.30445 -0.93949 0.15705
vn 0.98999 -0.14093 0.00824
vn 0.81168 -0.57716 0.08980
vn 0.43914 0.87995 -0.18125
vn 0.80610 0.57849 -0.12471
vn -0.71858 0.68032 -0.14420
vn -0.31348 0.93039 -0.19003
vn -0.88324 -0.46393 0.06819
vn -0.99984 -0.00778 -0.01589
vn 0.17268 -0.92533 -0.33757
vn -0.30440 -0.89486 -0.32645
vn 0.98980 -0.12445 -0.06938
vn 0.81154 -0.54547 -0.20945
vn 0.43905 0.85994 0.26026
vn 0.80596 0.56889 0.16371
vn -0.71845 0.66745 0.19580
vn -0.31343 0.90821 0.27734
vn -0.88308 -0.43590 -0.17368
vn -0.99967 0.00357 -0.02560
vn 0.17263 -0.93212 0.31835
vn -0.30433 -0.90144 0.30787
vn 0.98955 -0.14307 0.01774
vn 0.81135 -0.55721 0.17673
vn 0.43894 0.82680 -0.35176
vn 0.80577 0.54072 -0.24156
vn -0.71827 0.63715 -0.27951
vn -0.31336 0.87504 -0.36893
vn -0.88286 -0.44992 0.13464
vn -0.99944 -0.01626 -0.02936
vn 0.98384 0.16841 0.06075
vn 0.95149 -0.22145 -0.21358
vn 0.13993 0.83459 0.53281
vn 0.58331 0.68838 0.43113
vn -0.89736 0.38558 0.21464
vn -0.59099 0.68383 0.42791
vn -0.69453 -0.55809 -0.45405
vn -0.94856 -0.22881 -0.21880
vn 0.46812 -0.69231 -0.54916
vn 0.00474 -0.78831 -0.61526
vn 0.17270 -0.96546 0.19509
vn -0.30443 -0.93366 0.18867
vn 0.98992 -0.14129 0.01005
vn 0.81163 -0.57411 0.10794
vn 0.43911 0.87174 -0.21740
vn 0.80605 0.57265 -0.14954
vn -0.71854 0.67365 -0.17293
vn -0.31346 0.92184 -0.22794
vn -0.88318 -0.46180 0.08201
vn -0.99978 -0.00911 -0.01892
vn 0.17267 -0.91465 -0.36551
vn -0.30438 -0.88454 -0.35348
vn 0.98974 -0.12169 -0.07491
vn 0.81149 -0.53860 -0.22670
vn 0.43903 0.85298 0.28227
vn 0.80591 0.56476 0.17764
vn -0.71840 0.66240 0.21243
vn -0.31341 0.90073 0.30077
vn -0.88302 -0.43006 -0.18793
vn -0.99961 0.00502 -0.02748
vn -0.27716 0.95375 0.11638
vn -0.31885 0.90792 -0.27205
vn -0.00840 0.41077 0.91170
vn -0.12589 0.71330 0.68946
vn 0.24944 -0.54849 0.79808
vn 0.17429 -0.19996 0.96418
vn 0.23853 -0.96479 -0.11086
vn 0.28150 -0.91859 0.27739
vn -0.03022 -0.42181 -0.90618
vn 0.08853 -0.72397 -0.68412
vn -0.28807 0.53746 -0.79256
vn -0.21164 0.18929 -0.95884
f 1//1 2//2 4//4
f 1//1 4//4 3//3
f 3//3 4//4 6//6
f 3//3 6//6 5//5
f 5//5 6//6 8//8
f 5//5 8//8 7//7
f 7//7 8//8 10//10
f 7//7 10//10 9//9
f 9//9 10//10 12//12
f 9//9 12//12 11//11
f 11//11 12//12 14//14
f 11//11 14//14 13//13
f 13//13 14//14 16//16
f 13//13 16//16 15//15
f 15//15 16//16 18//18
f 15//15 18//18 17//17
f 17//17 18//18 2//2
f 17//17 2//2 1//1
f 19//19 20//20 22//22
f 19//19 22//22 21//21
f 21//21 22//22 24//24
f 21//21 24//24 23//23
f 23//23 24//24 26//26
f 23//23 26//26 25//25
f 25//25 26//26 28//28
f 25//25 28//28 27//27
f 27//27 28//28 30//30
f 27//27 30//30 29//29
f 29//29 30//30 32//32
f 29//29 32//32 31//31
f 31//31 32//32 34//34
f 31//31 34//34 33//33
f 33//33 34//34 36//36
f 33//33 36//36 35//35
f 35//35 36//36 20//20
f 35//35 20//20 19//19
f 37//37 38//38 40//40
f 37//37 40//40 39//39
f 39//39 40//40 42//42
f 39//39 42//42 41//41
f 41//41 42//42 44//44
f 41//41 44//44 43//43
f 43//43 44//44 46//46
f 43//43 46//46 45//45
f 45//45 46//46 48//48
f 45//45 48//48 47//47
f 47//47 48//48 50//50
f 47//47 50//50 49//49
f 49//49 50//50 52//52
f 49//49 52//52 51//51
f 51//51 52//52 54//54
f 51//51 54//54 53//53
f 53//53 54//54 38//38
f 53//53 38//38 37//37
f 55//55 56//56 58//58
f 55//55 58//58 57//57
f 57//57 58//58 60//60
f 57//57 60//60 59//59
f 59//59 60//60 62//62
f 59//59 62//62 61//61
f 61//61 62//62 64//64
f 61//61 64//64 63//63
f 63//63 64//64 66//66
f 63//63 66//66 65//65
f 65//65 66//66 68//68
f 65//65 68//68 67//67
f 67//67 68//68 70//70
f 67//67 70//70 69//69
f 69//69 70//70 72//72
f 69//69 72//72 71//71
f 71//71 72//72 56//56
f 71//71 56//56 55//55
f 73//73 74//74 76//76
f 73//73 76//76 75//75
f 75//75 76//76 78//78
f 75//75 78//78 77//77
f 77//77 78//78 80//80
f 77//77 80//80 79//79
f 79//79 80//80 82//82
f 79//79 82//82 81//81
f 81//81 82//82 84//84
f 81//81 84//84 83//83
f 83//83 84//84 86//86
f 83//83 86//86 85//85
f 85//85 86//86 88//88
f 85//85 88//88 87//87
f 87//87 88//88 90//90
f 87//87 90//90 89//89
f 89//89 90//90 74//74
f 89//89 74//74 73//73
f 91//91 92//92 94//94
f 91//91 94//94 93//93
f 93//93 94//94 96//96
f 93//93 96//96 95//95
f 95//95 96//96 98//98
f 95//95 98//98 97//97
f 97//97 98//98 100//100
f 97//97 100//100 99//99
f 99//99 100//100 102//102
f 99//99 102//102 101//101
f 101//101 102//102 104//104
f 101//101 104//104 103//103
f 103//103 104//104 106//106
f 103//103 106//106 105//105
f 105//105 106//106 108//108
f 105//105 108//108 107//107
f 107//107 108//108 92//92
f 107//107 92//92 91//91
f 109//109 110//110 112//112
f 109//109 112//112 111//111
f 111//111 112//112 114//114
f 111//111 114//114 113//113
f 113//113 114//114 116//116
f 113//113 116//116 115//115
f 115//115 116//116 118//118
f 115//115 118//118 117//117
f 117//117 118//118 120//120
f 117//117 120//120 119//119
f 119//119 120//120 122//122
f 119//119 122//122 121//121
f 121//121 122//122 124//124
f 121//121 124//124 123//123
f 123//123 124//124 126//126
f 123//123 126//126 125//125
f 125//125 126//126 110//110
f 125//125 110//110 109//109
f 127//127 128//128 130//130
f 127//127 130//130 129//129
f 129//129 130//130 132//132
f 129//129 132//132 131//131
f 131//131 132//132 134//134
f 131//131 134//134 133//133
f 133//133 134//134 136//136
f 133//133 136//136 135//135
f 135//135 136//136 138//138
f 135//135 138//138 137//137
f 137//137 138//138 140//140
f 137//137 140//140 139//139
f 139//139 140//140 142//142
f 139//139 142//142 141//141
f 141//141 142//142 144//144
f 141//141 144//144 143//143
f 143//143 144//144 128//128
f 143//143 128//128 127//127
f 145//145 146//146 148//148
f 145//145 148//148 147//147
f 147//147 148//148 150//150
f 147//147 150//150 149//149
f 149//149 150//150 152//152
f 149//149 152//152 151//151
f 151//151 152//152 154//154
f 151//151 154//154 153//153
f 153//153 154//154 156//156
f 153//153 156//156 155//155
f 155//155 156//156 158//158
f 155//155 158//158 157//157
f 157//157 158//158 160//160
f 157//157 160//160 159//159
f 159//159 160//160 162//162
f 159//159 162//162 161//161
f 161//161 162//162 146//146
f 161//161 146//146 145//145
f 163//163 164//164 166//166
f 163//163 166//166 165//165
f 165//165 166//166 168//168
f 165//165 168//168 167//167
f 167//167 168//168 170//170
f 167//167 170//170 169//169
f 169//169 170//170 172//172
f 169//169 172//172 171//171
f 171//171 172//172 174//174
f 171//171 174//174 173//173
f 173//173 174//174 164//164
f 173//173 164//164 163//163
f 175//175 176//176 178//178
f 175//175 178//178 177//177
f 177//177 178//178 180//180
f 177//177 180//180 179//179
f 179//179 180//180 182//182
f 179//179 182//182 181//181
f 181//181 182//182 184//184
f 181//181 184//184 183//183
f 183//183 184//184 176//176
f 183//183 176//176 175//175
f 185//185 186//186 188//188
f 185//185 188//188 187//187
f 187//187 188//188 190//190
f 187//187 190//190 189//189
f 189//189 190//190 192//192
f 189//189 192//192 191//191
f 191//191 192//192 194//194
f 191//191 194//194 193//193
f 193//193 194//194 186//186
f 193//193 186//186 185//185
f 195//195 196//196 198//198
f 195//195 198//198 197//197
f 197//197 198//198 200//200
f 197//197 200//200 199//199
f 199//199 200//200 202//202
f 199//199 202//202 201//201
f 201//201 202//202 204//204
f 201//201 204//204 203//203
f 203//203 204//204 196//196
f 203//203 196//196 195//195
f 205//205 206//206 208//208
f 205//205 208//208 207//207
f 207//207 208//208 210//210
f 207//207 210//210 209//209
f 209//209 210//210 212//212
f 209//209 212//212 211//211
f 211//211 212//212 214//214
f 211//211 214//214 213//213
f 213//213 214//214 206//206
f 213//213 206//206 205//205
f 215//215 216//216 218//218
f 215//215 218//218 217//217
f 217//217 218//218 220//220
f 217//217 220//220 219//219
f 219//219 220//220 222//222
f 219//219 222//222 221//221
f 221//221 222//222 224//224
f 221//221 224//224 223//223
f 223//223 224//224 216//216
f 223//223 216//216 215//215
f 225//225 226//226 228//228
f 225//225 228//228 227//227
f 227//227 228//228 230//230
f 227//227 230//230 229//229
f 229//229 230//230 232//232
f 229//229 232//232 231//231
f 231//231 232//232 234//234
f 231//231 234//234 233//233
f 233//233 234//234 226//226
f 233//233 226//226 225//225
f 235//235 236//236 238//238
f 235//235 238//238 237//237
f 237//237 238//238 240//240
f 237//237 240//240 239//239
f 239//239 240//240 242//242
f 239//239 242//242 241//241
f 241//241 242//242 244//244
f 241//241 244//244 243//243
f 243//243 244//244 236//236
f 243//243 236//236 235//235
f 245//245 246//246 248//248
f 245//245 248//248 247//247
f 247//247 248//248 250//250
f 247//247 250//250 249//249
f 249//249 250//250 252//252
f 249//249 252//252 251//251
f 251//251 252//252 254//254
f 251//251 254//254 253//253
f 253//253 254//254 246//246
f 253//253 246//246 245//245
f 255//255 256//256 258//258
f 255//255 258//258 257//257
f 257//257 258//258 260//260
f 257//257 260//260 259//259
f 259//259 260//260 262//262
f 259//259 262//262 261//261
f 261//261 262//262 264//264
f 261//261 264//264 263//263
f 263//263 264//264 256//256
f 263//263 256//256 255//255
f 265//265 266//266 268//268
f 265//265 268//268 267//267
f 267//267 268//268 270//270
f 267//267 270//270 269//269
f 269//269 270//270 272//272
f 269//269 272//272 271//271
f 271//271 272//272 274//274
f 271//271 274//274 273//273
f 273//273 274//274 266//266
f 273//273 266//266 265//265
f 275//275 276//276 278//278
f 275//275 278//278 277//277
f 277//277 278//278 280//280
f 277//277 280//280 279//279
f 279//279 280//280 282//282
f 279//279 282//282 281//281
f 281//281 282//282 284//284
f 281//281 284//284 283//283
f 283//283 284//284 276//276
f 283//283 276//276 275//275
f 285//285 286//286 288//288
f 285//285 288//288 287//287
f 287//287 288//288 290//290
f 287//287 290//290 289//289
f 289//289 290//290 292//292
f 289//289 292//292 291//291
f 291//291 292//292 294//294
f 291//291 294//294 293//293
f 293//293 294//294 286//286
f 293//293 286//286 285//285
f 295//295 296//296 298//298
f 295//295 298//298 297//297
f 297//297 298//298 300//300
f 297//297 300//300 299//299
f 299//299 300//300 302//302
f 299//299 302//302 301//301
f 301//301 302//302 304//304
f 301//301 304//304 303//303
f 303//303 304//304 296//296
f 303//303 296//296 295//295
f 305//305 306//306 308//308
f 305//305 308//308 307//307
f 307//307 308//308 310//310
f 307//307 310//310 309//309
f 309//309 310//310 312//312
f 309//309 312//312 311//311
f 311//311 312//312 314//314
f 311//311 314//314 313//313
f 313//313 314//314 306//306
f 313//313 306//306 305//305
f 315//315 316//316 318//318
f 315//315 318//318 317//317
f 317//317 318//318 320//320
f 317//317 320//320 319//319
f 319//319 320//320 322//322
f 319//319 322//322 321//321
f 321//321 322//322 324//324
f 321//321 324//324 323//323
f 323//323 324//324 326//326
f 323//323 326//326 325//325
f 325//325 326//326 316//316
f 325//325 316//316 315//315
