{"accessors": [{"bufferView": 2, "componentType": 5126, "count": 65532, "max": [0.21526768803596497, -0.046708133071660995, -0.021826259791851044], "min": [-0.654460072517395, -0.12597349286079407, -0.8841949701309204], "type": "VEC3"}, {"bufferView": 2, "byteOffset": 786384, "componentType": 5126, "count": 65532, "max": [0.998420238494873, 0.9999984502792358, 0.9997010827064514], "min": [-0.9079508781433105, -0.7687696218490601, -0.8574901223182678], "type": "VEC3"}, {"bufferView": 1, "componentType": 5126, "count": 65532, "max": [0.9604601860046387, 0.9995569586753845], "min": [0.0002709920227061957, 0.02913755178451538], "type": "VEC2"}, {"bufferView": 0, "componentType": 5125, "count": 343983, "type": "SCALAR"}, {"bufferView": 2, "byteOffset": 1572768, "componentType": 5126, "count": 65532, "max": [0.5387807488441467, -0.060818374156951904, -0.06908203661441803], "min": [-0.652995228767395, -0.12572845816612244, -0.8917115330696106], "type": "VEC3"}, {"bufferView": 2, "byteOffset": 2359152, "componentType": 5126, "count": 65532, "max": [0.998420238494873, 0.9999997019767761, 0.9994663596153259], "min": [-0.9630643725395203, -0.9167356491088867, -0.9724242687225342], "type": "VEC3"}, {"bufferView": 1, "byteOffset": 524256, "componentType": 5126, "count": 65532, "max": [0.9838976860046387, 0.9997093677520752], "min": [0.000244140625, 0.02758800983428955], "type": "VEC2"}, {"bufferView": 0, "byteOffset": 1375932, "componentType": 5125, "count": 329640, "type": "SCALAR"}, {"bufferView": 2, "byteOffset": 3145536, "componentType": 5126, "count": 65532, "max": [0.5390155911445618, -0.07983925193548203, 0.07698280364274979], "min": [0.03401971235871315, -0.12693968415260315, -0.8792458176612854], "type": "VEC3"}, {"bufferView": 2, "byteOffset": 3931920, "componentType": 5126, "count": 65532, "max": [0.7457635402679443, 0.9999996423721313, 0.9929652810096741], "min": [-0.9288749694824219, -0.24843740463256836, -0.9875929355621338], "type": "VEC3"}, {"bufferView": 1, "byteOffset": 1048512, "componentType": 5126, "count": 65532, "max": [0.9878786206245422, 0.9994152784347534], "min": [0.00025888255913741887, 0.03540050983428955], "type": "VEC2"}, {"bufferView": 0, "byteOffset": 2694492, "componentType": 5125, "count": 351531, "type": "SCALAR"}, {"bufferView": 2, "byteOffset": 4718304, "componentType": 5126, "count": 65532, "max": [0.5387645959854126, -0.06751393526792526, 0.6977494359016418], "min": [-0.3042120039463043, -0.11522796005010605, -0.1633107215166092], "type": "VEC3"}, {"bufferView": 2, "byteOffset": 5504688, "componentType": 5126, "count": 65532, "max": [0.9598803520202637, 0.9999997019767761, 0.8719394207000732], "min": [-0.7680881023406982, -0.04235506057739258, -0.8380884528160095], "type": "VEC3"}, {"bufferView": 1, "byteOffset": 1572768, "componentType": 5126, "count": 65532, "max": [0.9988635778427124, 0.9993957877159119], "min": [0.24007299542427063, 0.20789867639541626], "type": "VEC2"}, {"bufferView": 0, "byteOffset": 4100616, "componentType": 5125, "count": 336879, "type": "SCALAR"}, {"bufferView": 2, "byteOffset": 6291072, "componentType": 5126, "count": 65532, "max": [0.46061578392982483, -0.06555696576833725, 0.6969175338745117], "min": [-0.19546642899513245, -0.11516471952199936, -0.1283589005470276], "type": "VEC3"}, {"bufferView": 2, "byteOffset": 7077456, "componentType": 5126, "count": 65532, "max": [0.9211708307266235, 0.9999997019767761, 0.7830721139907837], "min": [-0.7127488851547241, 0.16394902765750885, -0.9671211242675781], "type": "VEC3"}, {"bufferView": 1, "byteOffset": 2097024, "componentType": 5126, "count": 65532, "max": [0.9642387628555298, 0.9996271133422852], "min": [0.17368324100971222, 0.15654534101486206], "type": "VEC2"}, {"bufferView": 0, "byteOffset": 5448132, "componentType": 5125, "count": 337938, "type": "SCALAR"}, {"bufferView": 2, "byteOffset": 7863840, "componentType": 5126, "count": 65532, "max": [0.532860279083252, -0.06027161329984665, 0.6759946942329407], "min": [-0.5101338624954224, -0.11392416805028915, -0.14722341299057007], "type": "VEC3"}, {"bufferView": 2, "byteOffset": 8650224, "componentType": 5126, "count": 65532, "max": [0.9151825308799744, 0.9999992251396179, 0.8533133268356323], "min": [-0.7060195207595825, -0.126154363155365, -0.9617880582809448], "type": "VEC3"}, {"bufferView": 1, "byteOffset": 2621280, "componentType": 5126, "count": 65532, "max": [0.9769486784934998, 0.9993374943733215], "min": [0.06697449833154678, 0.1936187744140625], "type": "VEC2"}, {"bufferView": 0, "byteOffset": 6799884, "componentType": 5125, "count": 308181, "type": "SCALAR"}, {"bufferView": 2, "byteOffset": 9436608, "componentType": 5126, "count": 65532, "max": [-0.03561611473560333, -0.05832605063915253, 0.6976954936981201], "min": [-0.6544148325920105, -0.1083693727850914, -0.13992808759212494], "type": "VEC3"}, {"bufferView": 2, "byteOffset": 10222992, "componentType": 5126, "count": 65532, "max": [0.9904245734214783, 0.9999999403953552, 0.9943948984146118], "min": [-0.8616658449172974, -0.6586943864822388, -0.9778129458427429], "type": "VEC3"}, {"bufferView": 1, "byteOffset": 3145536, "componentType": 5126, "count": 65532, "max": [0.9967911839485168, 0.999753475189209], "min": [0.0554671585559845, 0.048934828490018845], "type": "VEC2"}, {"bufferView": 0, "byteOffset": 8032608, "componentType": 5125, "count": 355029, "type": "SCALAR"}, {"bufferView": 2, "byteOffset": 11009376, "componentType": 5126, "count": 11741, "max": [0.5378723740577698, -0.06434699147939682, 0.37515348196029663], "min": [-0.4272370934486389, -0.12673619389533997, -0.8391122817993164], "type": "VEC3"}, {"bufferView": 2, "byteOffset": 11150268, "componentType": 5126, "count": 11741, "max": [0.9559903144836426, 0.999993085861206, 0.9947710633277893], "min": [-0.9915981888771057, -0.23865146934986115, -0.9694443345069885], "type": "VEC3"}, {"bufferView": 1, "byteOffset": 3669792, "componentType": 5126, "count": 11741, "max": [0.9808568954467773, 0.9997318387031555], "min": [0.0015385029837489128, 0.04358178377151489], "type": "VEC2"}, {"bufferView": 0, "byteOffset": 9452724, "componentType": 5125, "count": 33204, "type": "SCALAR"}], "asset": {"extras": {"author": "DEEP C (https://sketchfab.com/deepc326)", "license": "SKETCHFAB Standard (https://sketchfab.com/licenses)", "source": "https://sketchfab.com/3d-models/beach-001-49d3a0ccbad44d039556bf7c142af25b", "title": "Beach 001"}, "generator": "Sketchfab-16.67.0", "version": "2.0"}, "bufferViews": [{"buffer": 0, "byteLength": 9585540, "name": "floatBufferViews", "target": 34963}, {"buffer": 0, "byteLength": 3763720, "byteOffset": 9585540, "byteStride": 8, "name": "floatBufferViews", "target": 34962}, {"buffer": 0, "byteLength": 11291160, "byteOffset": 13349260, "byteStride": 12, "name": "floatBufferViews", "target": 34962}], "buffers": [{"byteLength": 24640420, "uri": "scene.bin"}], "extensionsUsed": ["KHR_materials_unlit"], "images": [{"uri": "default_tex0_baseColor.jpeg"}], "materials": [{"doubleSided": true, "extensions": {"KHR_materials_unlit": {}}, "name": "default_tex0", "pbrMetallicRoughness": {"baseColorTexture": {"index": 0}, "metallicFactor": 0.0}}], "meshes": [{"name": "Object_0", "primitives": [{"attributes": {"NORMAL": 1, "POSITION": 0, "TEXCOORD_0": 2}, "indices": 3, "material": 0, "mode": 4}]}, {"name": "Object_1", "primitives": [{"attributes": {"NORMAL": 5, "POSITION": 4, "TEXCOORD_0": 6}, "indices": 7, "material": 0, "mode": 4}]}, {"name": "Object_2", "primitives": [{"attributes": {"NORMAL": 9, "POSITION": 8, "TEXCOORD_0": 10}, "indices": 11, "material": 0, "mode": 4}]}, {"name": "Object_3", "primitives": [{"attributes": {"NORMAL": 13, "POSITION": 12, "TEXCOORD_0": 14}, "indices": 15, "material": 0, "mode": 4}]}, {"name": "Object_4", "primitives": [{"attributes": {"NORMAL": 17, "POSITION": 16, "TEXCOORD_0": 18}, "indices": 19, "material": 0, "mode": 4}]}, {"name": "Object_5", "primitives": [{"attributes": {"NORMAL": 21, "POSITION": 20, "TEXCOORD_0": 22}, "indices": 23, "material": 0, "mode": 4}]}, {"name": "Object_6", "primitives": [{"attributes": {"NORMAL": 25, "POSITION": 24, "TEXCOORD_0": 26}, "indices": 27, "material": 0, "mode": 4}]}, {"name": "Object_7", "primitives": [{"attributes": {"NORMAL": 29, "POSITION": 28, "TEXCOORD_0": 30}, "indices": 31, "material": 0, "mode": 4}]}], "nodes": [{"children": [1], "matrix": [1.0, 0.0, 0.0, 0.0, 0.0, 2.220446049250313e-16, -1.0, 0.0, 0.0, 1.0, 2.220446049250313e-16, 0.0, 0.0, 0.0, 0.0, 1.0], "name": "Sketchfab_model"}, {"children": [2], "name": "root"}, {"children": [3], "matrix": [1.0, 0.0, 0.0, 0.0, 0.0, 2.220446049250313e-16, 1.0, 0.0, 0.0, -1.0, 2.220446049250313e-16, 0.0, 0.0, 0.0, 0.0, 1.0], "name": "GLTF_SceneRootNode"}, {"children": [4, 5, 6, 7, 8, 9, 10, 11], "name": "_0"}, {"mesh": 0, "name": "Object_4"}, {"mesh": 1, "name": "Object_5"}, {"mesh": 2, "name": "Object_6"}, {"mesh": 3, "name": "Object_7"}, {"mesh": 4, "name": "Object_8"}, {"mesh": 5, "name": "Object_9"}, {"mesh": 6, "name": "Object_10"}, {"mesh": 7, "name": "Object_11"}], "samplers": [{"magFilter": 9729, "minFilter": 9729, "wrapS": 33071, "wrapT": 33071}], "scene": 0, "scenes": [{"name": "Sketchfab_Scene", "nodes": [0]}], "textures": [{"sampler": 0, "source": 0}]}