{"accessors": [{"bufferView": 2, "componentType": 5126, "count": 24, "max": [1.0, 1.0, 1.0], "min": [-1.0, -1.0, -1.0], "type": "VEC3"}, {"bufferView": 2, "byteOffset": 288, "componentType": 5126, "count": 24, "max": [1.0, 1.0, 1.0], "min": [-1.0, -1.0, -1.0], "type": "VEC3"}, {"bufferView": 1, "componentType": 5126, "count": 24, "max": [0.7499567270278931, 0.9999133944511414], "min": [8.658754813950509e-05, 8.660554885864258e-05], "type": "VEC2"}, {"bufferView": 0, "componentType": 5125, "count": 36, "type": "SCALAR"}, {"bufferView": 2, "byteOffset": 576, "componentType": 5126, "count": 65532, "max": [6.368680000305176, 2.736806869506836, 3.4687845706939697], "min": [-8.980242729187012, -2.493626594543457, -3.4953653812408447], "type": "VEC3"}, {"bufferView": 2, "byteOffset": 786960, "componentType": 5126, "count": 65532, "max": [1.0, 1.0, 1.0], "min": [-1.0, -0.996871829032898, -1.0], "type": "VEC3"}, {"bufferView": 1, "byteOffset": 192, "componentType": 5126, "count": 65532, "max": [0.9988589882850647, 0.9989219903945923], "min": [0.0003020000003743917, 0.0004799962043762207], "type": "VEC2"}, {"bufferView": 0, "byteOffset": 144, "componentType": 5125, "count": 304896, "type": "SCALAR"}, {"bufferView": 2, "byteOffset": 1573344, "componentType": 5126, "count": 65534, "max": [6.371232032775879, 2.765378952026367, 3.5045247077941895], "min": [-10.386221885681152, -2.4797468185424805, -3.439709424972534], "type": "VEC3"}, {"bufferView": 2, "byteOffset": 2359752, "componentType": 5126, "count": 65534, "max": [0.9995490312576294, 0.9994142651557922, 0.999214231967926], "min": [-0.9711456894874573, -0.9996423125267029, -0.9999118447303772], "type": "VEC3"}, {"bufferView": 1, "byteOffset": 524448, "componentType": 5126, "count": 65534, "max": [0.9947320222854614, 0.9969300031661987], "min": [0.00038400001358240843, 0.0004140138626098633], "type": "VEC2"}, {"bufferView": 0, "byteOffset": 1219728, "componentType": 5125, "count": 296175, "type": "SCALAR"}, {"bufferView": 2, "byteOffset": 3146160, "componentType": 5126, "count": 65532, "max": [6.364834308624268, 2.769926071166992, 3.497135639190674], "min": [-9.51949405670166, -2.4792327880859375, -3.4425432682037354], "type": "VEC3"}, {"bufferView": 2, "byteOffset": 3932544, "componentType": 5126, "count": 65532, "max": [0.9978092908859253, 0.9995309710502625, 0.9927774667739868], "min": [-0.991740345954895, -0.9983738660812378, -0.9998781085014343], "type": "VEC3"}, {"bufferView": 1, "byteOffset": 1048720, "componentType": 5126, "count": 65532, "max": [0.998399019241333, 0.9950219988822937], "min": [0.005781000014394522, 0.0003839731216430664], "type": "VEC2"}, {"bufferView": 0, "byteOffset": 2404428, "componentType": 5125, "count": 283743, "type": "SCALAR"}, {"bufferView": 2, "byteOffset": 4718928, "componentType": 5126, "count": 65532, "max": [6.364834308624268, 2.81256103515625, 3.4816336631774902], "min": [-9.649561882019043, -2.4862756729125977, -3.47769832611084], "type": "VEC3"}, {"bufferView": 2, "byteOffset": 5505312, "componentType": 5126, "count": 65532, "max": [0.9978092908859253, 0.9993898868560791, 0.9996885061264038], "min": [-0.9989960193634033, -0.9997824430465698, -0.9999783039093018], "type": "VEC3"}, {"bufferView": 1, "byteOffset": 1572976, "componentType": 5126, "count": 65532, "max": [0.9943869709968567, 0.9979239702224731], "min": [0.0003370000049471855, 0.00032401084899902344], "type": "VEC2"}, {"bufferView": 0, "byteOffset": 3539400, "componentType": 5125, "count": 261948, "type": "SCALAR"}, {"bufferView": 2, "byteOffset": 6291696, "componentType": 5126, "count": 65532, "max": [6.371125221252441, 2.7961864471435547, 3.4963185787200928], "min": [-9.702363967895508, -2.4956493377685547, -3.443207263946533], "type": "VEC3"}, {"bufferView": 2, "byteOffset": 7078080, "componentType": 5126, "count": 65532, "max": [0.9992069005966187, 0.9999436736106873, 0.9988016486167908], "min": [-0.9992419481277466, -0.9983662962913513, -0.9999698400497437], "type": "VEC3"}, {"bufferView": 1, "byteOffset": 2097232, "componentType": 5126, "count": 65532, "max": [0.9954710006713867, 0.9993410110473633], "min": [0.00029399999766610563, 0.00030601024627685547], "type": "VEC2"}, {"bufferView": 0, "byteOffset": 4587192, "componentType": 5125, "count": 210150, "type": "SCALAR"}, {"bufferView": 2, "byteOffset": 7864464, "componentType": 5126, "count": 64442, "max": [6.37134313583374, 2.8105812072753906, 3.5005626678466797], "min": [-10.360111236572266, -2.54140567779541, -3.4958152770996094], "type": "VEC3"}, {"bufferView": 2, "byteOffset": 8637768, "componentType": 5126, "count": 64442, "max": [1.0, 0.9999436736106873, 1.0], "min": [-1.0, -1.0, -0.999877393245697], "type": "VEC3"}, {"bufferView": 1, "byteOffset": 2621488, "componentType": 5126, "count": 64442, "max": [0.9982370138168335, 0.9995070099830627], "min": [0.00029299999005161226, 0.00030297040939331055], "type": "VEC2"}, {"bufferView": 0, "byteOffset": 5427792, "componentType": 5125, "count": 120333, "type": "SCALAR"}, {"bufferView": 2, "byteOffset": 9411072, "componentType": 5126, "count": 65532, "max": [6.37227201461792, 2.7742481231689453, 3.490410566329956], "min": [-9.488759994506836, -2.54140567779541, -3.4958152770996094], "type": "VEC3"}, {"bufferView": 2, "byteOffset": 10197456, "componentType": 5126, "count": 65532, "max": [1.0, 1.0, 0.9993155598640442], "min": [-1.0, -0.9999817609786987, -0.999969482421875], "type": "VEC3"}, {"bufferView": 1, "byteOffset": 3137024, "componentType": 5126, "count": 65532, "max": [1.9920070171356201, 0.9848009943962097], "min": [1.0003039836883545, 0.0002949833869934082], "type": "VEC2"}, {"bufferView": 0, "byteOffset": 5909124, "componentType": 5125, "count": 288831, "type": "SCALAR"}, {"bufferView": 2, "byteOffset": 10983840, "componentType": 5126, "count": 65532, "max": [6.371570110321045, 2.81256103515625, 3.4978156089782715], "min": [-10.095359802246094, -2.5148353576660156, -3.47784423828125], "type": "VEC3"}, {"bufferView": 2, "byteOffset": 11770224, "componentType": 5126, "count": 65532, "max": [0.9994851350784302, 0.9995564222335815, 0.999232292175293], "min": [-0.9681642055511475, -0.999951183795929, -0.9999302625656128], "type": "VEC3"}, {"bufferView": 1, "byteOffset": 3661280, "componentType": 5126, "count": 65532, "max": [1.9932910203933716, 0.984129011631012], "min": [1.0002950429916382, 0.0003280043601989746], "type": "VEC2"}, {"bufferView": 0, "byteOffset": 7064448, "componentType": 5125, "count": 284337, "type": "SCALAR"}, {"bufferView": 2, "byteOffset": 12556608, "componentType": 5126, "count": 65532, "max": [6.371954917907715, 2.766305923461914, 3.491732597351074], "min": [-10.20289421081543, -2.493626594543457, -3.435394287109375], "type": "VEC3"}, {"bufferView": 2, "byteOffset": 13342992, "componentType": 5126, "count": 65532, "max": [0.9997860193252563, 0.9977982640266418, 0.9999527335166931], "min": [-0.9989995360374451, -0.999976634979248, -0.9998661875724792], "type": "VEC3"}, {"bufferView": 1, "byteOffset": 4185536, "componentType": 5126, "count": 65532, "max": [1.9975939989089966, 0.9835780262947083], "min": [1.0003000497817993, 0.00030499696731567383], "type": "VEC2"}, {"bufferView": 0, "byteOffset": 8201796, "componentType": 5125, "count": 236667, "type": "SCALAR"}, {"bufferView": 2, "byteOffset": 14129376, "componentType": 5126, "count": 65532, "max": [6.372371196746826, 2.81256103515625, 3.502598762512207], "min": [-10.386221885681152, -2.5102882385253906, -3.4860363006591797], "type": "VEC3"}, {"bufferView": 2, "byteOffset": 14915760, "componentType": 5126, "count": 65532, "max": [1.0, 0.9999595880508423, 0.9999698996543884], "min": [-1.0, -0.9999327063560486, -0.999987781047821], "type": "VEC3"}, {"bufferView": 1, "byteOffset": 4709792, "componentType": 5126, "count": 65532, "max": [1.9943519830703735, 0.9861220121383667], "min": [1.0002959966659546, 0.0002980232238769531], "type": "VEC2"}, {"bufferView": 0, "byteOffset": 9148464, "componentType": 5125, "count": 160467, "type": "SCALAR"}, {"bufferView": 2, "byteOffset": 15702144, "componentType": 5126, "count": 17779, "max": [6.367350101470947, 2.774320602416992, 3.5027596950531006], "min": [-10.18290901184082, -2.54140567779541, -3.445446252822876], "type": "VEC3"}, {"bufferView": 2, "byteOffset": 15915492, "componentType": 5126, "count": 17779, "max": [1.0, 0.9995607137680054, 0.997061550617218], "min": [-0.9997926354408264, -0.9996393322944641, -0.9950354099273682], "type": "VEC3"}, {"bufferView": 1, "byteOffset": 5234048, "componentType": 5126, "count": 17779, "max": [1.9902549982070923, 0.9857590198516846], "min": [1.0002950429916382, 0.00029599666595458984], "type": "VEC2"}, {"bufferView": 0, "byteOffset": 9790332, "componentType": 5125, "count": 22968, "type": "SCALAR"}, {"bufferView": 2, "byteOffset": 16128840, "componentType": 5126, "count": 65532, "max": [6.367059230804443, 2.8105812072753906, 3.4682016372680664], "min": [-10.390731811523438, -2.4862756729125977, -3.4958152770996094], "type": "VEC3"}, {"bufferView": 2, "byteOffset": 16915224, "componentType": 5126, "count": 65532, "max": [0.9999874234199524, 0.9999749660491943, 0.9996858239173889], "min": [-1.0, -0.9998759031295776, -0.9999423623085022], "type": "VEC3"}, {"bufferView": 1, "byteOffset": 5376280, "componentType": 5126, "count": 65532, "max": [2.9834980964660645, 0.9988160133361816], "min": [2.0003509521484375, 0.0003229975700378418], "type": "VEC2"}, {"bufferView": 0, "byteOffset": 9882204, "componentType": 5125, "count": 289812, "type": "SCALAR"}, {"bufferView": 2, "byteOffset": 17701608, "componentType": 5126, "count": 65532, "max": [6.372818946838379, 2.7741050720214844, 3.4953975677490234], "min": [-10.272148132324219, -2.5148353576660156, -3.47769832611084], "type": "VEC3"}, {"bufferView": 2, "byteOffset": 18487992, "componentType": 5126, "count": 65532, "max": [0.9999523758888245, 0.9999749660491943, 0.9999968409538269], "min": [-0.998673677444458, -0.9999991655349731, -0.9994699358940125], "type": "VEC3"}, {"bufferView": 1, "byteOffset": 5900536, "componentType": 5126, "count": 65532, "max": [2.985605001449585, 0.9984800219535828], "min": [2.0003271102905273, 0.0002949833869934082], "type": "VEC2"}, {"bufferView": 0, "byteOffset": 11041452, "componentType": 5125, "count": 259899, "type": "SCALAR"}, {"bufferView": 2, "byteOffset": 19274376, "componentType": 5126, "count": 65534, "max": [6.37074089050293, 2.8091087341308594, 3.4980506896972656], "min": [-10.216511726379395, -2.4861984252929688, -3.4813714027404785], "type": "VEC3"}, {"bufferView": 2, "byteOffset": 20060784, "componentType": 5126, "count": 65534, "max": [0.9974389672279358, 0.9999618530273438, 0.9998424053192139], "min": [-0.9979232549667358, -0.9999871850013733, -0.9999614357948303], "type": "VEC3"}, {"bufferView": 1, "byteOffset": 6424792, "componentType": 5126, "count": 65534, "max": [2.985382080078125, 0.9985979795455933], "min": [2.0002970695495605, 0.00029200315475463867], "type": "VEC2"}, {"bufferView": 0, "byteOffset": 12081048, "componentType": 5125, "count": 211296, "type": "SCALAR"}, {"bufferView": 2, "byteOffset": 20847192, "componentType": 5126, "count": 55195, "max": [6.3727569580078125, 2.7992706298828125, 3.5045247077941895], "min": [-10.390731811523438, -2.54140567779541, -3.4958152770996094], "type": "VEC3"}, {"bufferView": 2, "byteOffset": 21509532, "componentType": 5126, "count": 55195, "max": [1.0, 0.9999853372573853, 0.9996460676193237], "min": [-1.0, -0.9999871850013733, -0.9995532631874084], "type": "VEC3"}, {"bufferView": 1, "byteOffset": 6949064, "componentType": 5126, "count": 55195, "max": [2.983999013900757, 0.9985629916191101], "min": [2.0003020763397217, 0.0002930164337158203], "type": "VEC2"}, {"bufferView": 0, "byteOffset": 12926232, "componentType": 5125, "count": 85044, "type": "SCALAR"}], "asset": {"extras": {"author": "ffish.asia / floraZia.com (https://sketchfab.com/ffishAsia-and-floraZia)", "license": "CC0-1.0 (http://creativecommons.org/publicdomain/zero/1.0/)", "source": "https://sketchfab.com/3d-models/cc0-harvest-fish-pampus-punctatissimus-3cbb84f762004b808a2d142f575c7c3d", "title": "CC0 \u30de\u30ca\u30ac\u30c4\u30aa \ud83d\udc1f Harvest Fish, Pampus punctatissimus"}, "generator": "Sketchfab-16.62.0", "version": "2.0"}, "bufferViews": [{"buffer": 0, "byteLength": 13266408, "name": "floatBufferViews", "target": 34963}, {"buffer": 0, "byteLength": 7390624, "byteOffset": 13266408, "byteStride": 8, "name": "floatBufferViews", "target": 34962}, {"buffer": 0, "byteLength": 22171872, "byteOffset": 20657032, "byteStride": 12, "name": "floatBufferViews", "target": 34962}], "buffers": [{"byteLength": 42828904, "uri": "scene.bin"}], "extensionsUsed": ["KHR_materials_unlit"], "images": [{"uri": "Material.001_baseColor.jpeg"}, {"uri": "Q11769-1all-4_tex0_baseColor.jpeg"}, {"uri": "Q11769-1all-4_tex1_baseColor.jpeg"}, {"uri": "Q11769-1all-4_tex2_baseColor.jpeg"}], "materials": [{"doubleSided": true, "extensions": {"KHR_materials_unlit": {}}, "name": "Material.001", "pbrMetallicRoughness": {"baseColorTexture": {"index": 0}, "metallicFactor": 0.0}}, {"doubleSided": true, "extensions": {"KHR_materials_unlit": {}}, "name": "Q11769-1all-4_tex0", "pbrMetallicRoughness": {"baseColorTexture": {"index": 1}, "metallicFactor": 0.0}}, {"doubleSided": true, "extensions": {"KHR_materials_unlit": {}}, "name": "Q11769-1all-4_tex1", "pbrMetallicRoughness": {"baseColorTexture": {"index": 2}, "metallicFactor": 0.0}}, {"doubleSided": true, "extensions": {"KHR_materials_unlit": {}}, "name": "Q11769-1all-4_tex2", "pbrMetallicRoughness": {"baseColorTexture": {"index": 3}, "metallicFactor": 0.0}}], "meshes": [{"name": "Object_0", "primitives": [{"attributes": {"NORMAL": 1, "POSITION": 0, "TEXCOORD_0": 2}, "indices": 3, "material": 0, "mode": 4}]}, {"name": "Object_1", "primitives": [{"attributes": {"NORMAL": 5, "POSITION": 4, "TEXCOORD_0": 6}, "indices": 7, "material": 1, "mode": 4}]}, {"name": "Object_2", "primitives": [{"attributes": {"NORMAL": 9, "POSITION": 8, "TEXCOORD_0": 10}, "indices": 11, "material": 1, "mode": 4}]}, {"name": "Object_3", "primitives": [{"attributes": {"NORMAL": 13, "POSITION": 12, "TEXCOORD_0": 14}, "indices": 15, "material": 1, "mode": 4}]}, {"name": "Object_4", "primitives": [{"attributes": {"NORMAL": 17, "POSITION": 16, "TEXCOORD_0": 18}, "indices": 19, "material": 1, "mode": 4}]}, {"name": "Object_5", "primitives": [{"attributes": {"NORMAL": 21, "POSITION": 20, "TEXCOORD_0": 22}, "indices": 23, "material": 1, "mode": 4}]}, {"name": "Object_6", "primitives": [{"attributes": {"NORMAL": 25, "POSITION": 24, "TEXCOORD_0": 26}, "indices": 27, "material": 1, "mode": 4}]}, {"name": "Object_7", "primitives": [{"attributes": {"NORMAL": 29, "POSITION": 28, "TEXCOORD_0": 30}, "indices": 31, "material": 2, "mode": 4}]}, {"name": "Object_8", "primitives": [{"attributes": {"NORMAL": 33, "POSITION": 32, "TEXCOORD_0": 34}, "indices": 35, "material": 2, "mode": 4}]}, {"name": "Object_9", "primitives": [{"attributes": {"NORMAL": 37, "POSITION": 36, "TEXCOORD_0": 38}, "indices": 39, "material": 2, "mode": 4}]}, {"name": "Object_10", "primitives": [{"attributes": {"NORMAL": 41, "POSITION": 40, "TEXCOORD_0": 42}, "indices": 43, "material": 2, "mode": 4}]}, {"name": "Object_11", "primitives": [{"attributes": {"NORMAL": 45, "POSITION": 44, "TEXCOORD_0": 46}, "indices": 47, "material": 2, "mode": 4}]}, {"name": "Object_12", "primitives": [{"attributes": {"NORMAL": 49, "POSITION": 48, "TEXCOORD_0": 50}, "indices": 51, "material": 3, "mode": 4}]}, {"name": "Object_13", "primitives": [{"attributes": {"NORMAL": 53, "POSITION": 52, "TEXCOORD_0": 54}, "indices": 55, "material": 3, "mode": 4}]}, {"name": "Object_14", "primitives": [{"attributes": {"NORMAL": 57, "POSITION": 56, "TEXCOORD_0": 58}, "indices": 59, "material": 3, "mode": 4}]}, {"name": "Object_15", "primitives": [{"attributes": {"NORMAL": 61, "POSITION": 60, "TEXCOORD_0": 62}, "indices": 63, "material": 3, "mode": 4}]}], "nodes": [{"children": [1], "matrix": [1.0, 0.0, 0.0, 0.0, 0.0, 2.220446049250313e-16, -1.0, 0.0, 0.0, 1.0, 2.220446049250313e-16, 0.0, 0.0, 0.0, 0.0, 1.0], "name": "Sketchfab_model"}, {"children": [2], "name": "root"}, {"children": [3, 5], "matrix": [1.0, 0.0, 0.0, 0.0, 0.0, 2.220446049250313e-16, 1.0, 0.0, 0.0, -1.0, 2.220446049250313e-16, 0.0, 0.0, 0.0, 0.0, 1.0], "name": "GLTF_SceneRootNode"}, {"children": [4], "matrix": [-0.0005856575373445708, -0.3161779140066512, 0.0011277388623564062, 0.0, 0.0014596920399003066, -0.001130432643839546, -0.31617510711993413, 0.0, 0.31617661534466646, -0.0005804412962424863, 0.0014617742763506681, 0.0, 8.986361503601074, -3.347151279449463, -0.00019199540838599205, 1.0], "name": "Cube_2"}, {"mesh": 0, "name": "Object_4"}, {"children": [6, 7, 8, 9, 10, 11, 12, 13, 14, 15, 16, 17, 18, 19, 20], "matrix": [-0.9944646025176274, 0.10498221217117713, 0.0043462014568375965, 0.0, 0.05739051269900776, 0.5773614351879469, -0.8144692150166629, 0.0, -0.0880141090485071, -0.8097113734444886, -0.5801904931339683, 0.0, 0.0, 0.0, 0.0, 1.0], "name": "Q11769-1all-4_5"}, {"mesh": 1, "name": "Object_6"}, {"mesh": 2, "name": "Object_7"}, {"mesh": 3, "name": "Object_8"}, {"mesh": 4, "name": "Object_9"}, {"mesh": 5, "name": "Object_10"}, {"mesh": 6, "name": "Object_11"}, {"mesh": 7, "name": "Object_12"}, {"mesh": 8, "name": "Object_13"}, {"mesh": 9, "name": "Object_14"}, {"mesh": 10, "name": "Object_15"}, {"mesh": 11, "name": "Object_16"}, {"mesh": 12, "name": "Object_17"}, {"mesh": 13, "name": "Object_18"}, {"mesh": 14, "name": "Object_19"}, {"mesh": 15, "name": "Object_20"}], "samplers": [{"magFilter": 9729, "minFilter": 9987, "wrapS": 10497, "wrapT": 10497}], "scene": 0, "scenes": [{"name": "Sketchfab_Scene", "nodes": [0]}], "textures": [{"sampler": 0, "source": 0}, {"sampler": 0, "source": 1}, {"sampler": 0, "source": 2}, {"sampler": 0, "source": 3}]}