{"accessors": [{"bufferView": 2, "componentType": 5126, "count": 3053, "max": [7.607291221618652, 22.230709075927734, 6.171417236328125], "min": [-8.687776565551758, 0.06661400198936462, -6.529245853424072], "type": "VEC3"}, {"bufferView": 2, "byteOffset": 36636, "componentType": 5126, "count": 3053, "max": [0.9999449849128723, 0.4521220028400421, 0.9999842643737793], "min": [-0.998961865901947, -0.9989502429962158, -0.9999077320098877], "type": "VEC3"}, {"bufferView": 3, "componentType": 5126, "count": 3053, "max": [0.9999781847000122, 0.9938076138496399, 0.9985741972923279, 1.0], "min": [-0.9999395608901978, -0.9922376871109009, -0.999101996421814, 1.0], "type": "VEC4"}, {"bufferView": 1, "componentType": 5126, "count": 3053, "max": [0.8874800205230713, 0.9617999792098999], "min": [0.04520000144839287, 0.01868000067770481], "type": "VEC2"}, {"bufferView": 0, "componentType": 5125, "count": 17067, "type": "SCALAR"}, {"bufferView": 2, "byteOffset": 73272, "componentType": 5126, "count": 7399, "max": [10.470455169677734, 49.15894317626953, 6.964529991149902], "min": [-15.526668548583984, 20.4013729095459, -7.284611225128174], "type": "VEC3"}, {"bufferView": 2, "byteOffset": 162060, "componentType": 5126, "count": 7399, "max": [0.9997246265411377, 0.9995012283325195, 0.9999955296516418], "min": [-0.9999290108680725, -0.9407866597175598, -0.9997071027755737], "type": "VEC3"}, {"bufferView": 3, "byteOffset": 48848, "componentType": 5126, "count": 7399, "max": [0.9999386668205261, 0.9699807167053223, 0.9998019933700562, 1.0], "min": [-0.9998996257781982, -0.9837381839752197, -0.9982326626777649, -1.0], "type": "VEC4"}, {"bufferView": 1, "byteOffset": 24424, "componentType": 5126, "count": 7399, "max": [0.9741500020027161, 0.9890999794006348], "min": [0.013170000165700912, 0.015540000051259995], "type": "VEC2"}, {"bufferView": 0, "byteOffset": 68268, "componentType": 5125, "count": 42417, "type": "SCALAR"}], "asset": {"extras": {"author": "assetfactory (https://sketchfab.com/assetfactory)", "license": "SKETCHFAB Standard (https://sketchfab.com/licenses)", "source": "https://sketchfab.com/3d-models/greek-underwater-broken-statue-1-7098d62953b44879bd8f1bfbdc55f4b3", "title": "Greek underwater broken statue 1"}, "generator": "Sketchfab-16.33.0", "version": "2.0"}, "bufferViews": [{"buffer": 0, "byteLength": 237936, "name": "floatBufferViews", "target": 34963}, {"buffer": 0, "byteLength": 83616, "byteOffset": 237936, "byteStride": 8, "name": "floatBufferViews", "target": 34962}, {"buffer": 0, "byteLength": 250848, "byteOffset": 321552, "byteStride": 12, "name": "floatBufferViews", "target": 34962}, {"buffer": 0, "byteLength": 167232, "byteOffset": 572400, "byteStride": 16, "name": "floatBufferViews", "target": 34962}], "buffers": [{"byteLength": 739632, "uri": "scene.bin"}], "images": [{"uri": "part_02SG_baseColor.jpeg"}, {"uri": "part_02SG_metallicRoughness.png"}, {"uri": "part_02SG_normal.png"}, {"uri": "part_01SG_baseColor.jpeg"}, {"uri": "part_01SG_metallicRoughness.png"}, {"uri": "part_01SG_normal.png"}], "materials": [{"doubleSided": true, "name": "part_02SG", "normalTexture": {"index": 2}, "occlusionTexture": {"index": 1}, "pbrMetallicRoughness": {"baseColorTexture": {"index": 0}, "metallicFactor": 0.0, "roughnessFactor": 0.85}}, {"doubleSided": true, "name": "part_01SG", "normalTexture": {"index": 5}, "occlusionTexture": {"index": 4}, "pbrMetallicRoughness": {"baseColorTexture": {"index": 3}, "metallicFactor": 0.0, "roughnessFactor": 0.85}}], "meshes": [{"name": "defaultMaterial", "primitives": [{"attributes": {"NORMAL": 1, "POSITION": 0, "TANGENT": 2, "TEXCOORD_0": 3}, "indices": 4, "material": 0, "mode": 4}]}, {"name": "defaultMaterial", "primitives": [{"attributes": {"NORMAL": 6, "POSITION": 5, "TANGENT": 7, "TEXCOORD_0": 8}, "indices": 9, "material": 1, "mode": 4}]}], "nodes": [{"children": [1], "matrix": [1.0, 0.0, 0.0, 0.0, 0.0, 2.220446049250313e-16, -1.0, 0.0, 0.0, 1.0, 2.220446049250313e-16, 0.0, 0.0, 0.0, 0.0, 1.0], "name": "Sketchfab_model"}, {"children": [2], "matrix": [1.0, 0.0, 0.0, 0.0, 0.0, -4.371139006309477e-08, 0.999999999999999, 0.0, 0.0, -0.999999999999999, -4.371139006309477e-08, 0.0, 0.0, 0.0, 0.0, 1.0], "name": "Collada visual scene group"}, {"children": [3, 4], "name": "Statue"}, {"mesh": 0, "name": "defaultMaterial"}, {"mesh": 1, "name": "defaultMaterial"}], "samplers": [{"magFilter": 9729, "minFilter": 9987, "wrapS": 10497, "wrapT": 10497}], "scene": 0, "scenes": [{"name": "Sketchfab_Scene", "nodes": [0]}], "textures": [{"sampler": 0, "source": 0}, {"sampler": 0, "source": 1}, {"sampler": 0, "source": 2}, {"sampler": 0, "source": 3}, {"sampler": 0, "source": 4}, {"sampler": 0, "source": 5}]}