{"accessors": [{"bufferView": 2, "componentType": 5126, "count": 65532, "max": [0.45805832743644714, 0.05244201421737671, 0.3654600977897644], "min": [0.08521390706300735, -0.06863749772310257, -0.2592000663280487], "type": "VEC3"}, {"bufferView": 2, "byteOffset": 786384, "componentType": 5126, "count": 65532, "max": [0.9999768137931824, 0.9999998807907104, 0.9999918937683105], "min": [-0.9999457001686096, -0.97508305311203, -0.9998936057090759], "type": "VEC3"}, {"bufferView": 1, "componentType": 5126, "count": 65532, "max": [0.9993332624435425, 0.9997080564498901], "min": [0.0024787599686533213, 0.03247082233428955], "type": "VEC2"}, {"bufferView": 0, "componentType": 5125, "count": 334410, "type": "SCALAR"}, {"bufferView": 2, "byteOffset": 1572768, "componentType": 5126, "count": 65532, "max": [0.4609917998313904, 0.04814058542251587, 0.17306271195411682], "min": [-0.020643770694732666, -0.05904306471347809, -0.21267902851104736], "type": "VEC3"}, {"bufferView": 2, "byteOffset": 2359152, "componentType": 5126, "count": 65532, "max": [0.9999679327011108, 0.9999991655349731, 0.9999918937683105], "min": [-0.999976634979248, -0.996280312538147, -0.9998939037322998], "type": "VEC3"}, {"bufferView": 1, "byteOffset": 524256, "componentType": 5126, "count": 65532, "max": [0.9995808005332947, 0.9994306564331055], "min": [0.000244140625, 0.02270519733428955], "type": "VEC2"}, {"bufferView": 0, "byteOffset": 1337640, "componentType": 5125, "count": 307647, "type": "SCALAR"}, {"bufferView": 2, "byteOffset": 3145536, "componentType": 5126, "count": 65532, "max": [0.3363252282142639, 0.051988884806632996, 0.36617547273635864], "min": [-0.1697823703289032, -0.07434308528900146, -0.3263876736164093], "type": "VEC3"}, {"bufferView": 2, "byteOffset": 3931920, "componentType": 5126, "count": 65532, "max": [0.9999909400939941, 0.9999993443489075, 0.9997925162315369], "min": [-0.999974250793457, -0.9691284894943237, -0.9991530179977417], "type": "VEC3"}, {"bufferView": 1, "byteOffset": 1048512, "componentType": 5126, "count": 65532, "max": [0.9965216517448425, 0.9997499585151672], "min": [0.002197265625, 0.01977550983428955], "type": "VEC2"}, {"bufferView": 0, "byteOffset": 2568228, "componentType": 5125, "count": 307329, "type": "SCALAR"}, {"bufferView": 2, "byteOffset": 4718304, "componentType": 5126, "count": 65532, "max": [0.4044225513935089, 0.005590230226516724, -0.09266773611307144], "min": [-0.15257088840007782, -0.07510434091091156, -0.33370262384414673], "type": "VEC3"}, {"bufferView": 2, "byteOffset": 5504688, "componentType": 5126, "count": 65532, "max": [0.9999858736991882, 0.9999986886978149, 0.9998884797096252], "min": [-0.9999831318855286, -0.8991912603378296, -0.9999856948852539], "type": "VEC3"}, {"bufferView": 1, "byteOffset": 1572768, "componentType": 5126, "count": 65532, "max": [0.9997231960296631, 0.9997499585151672], "min": [0.000244140625, 0.037014007568359375], "type": "VEC2"}, {"bufferView": 0, "byteOffset": 3797544, "componentType": 5125, "count": 322965, "type": "SCALAR"}, {"bufferView": 2, "byteOffset": 6291072, "componentType": 5126, "count": 65533, "max": [0.39609208703041077, 0.059543997049331665, 0.3388751447200775], "min": [-0.15941260755062103, -0.07054464519023895, -0.33371198177337646], "type": "VEC3"}, {"bufferView": 2, "byteOffset": 7077468, "componentType": 5126, "count": 65533, "max": [0.9999491572380066, 0.9999997019767761, 0.9999352693557739], "min": [-0.999974250793457, -0.9144158959388733, -0.9999997019767761], "type": "VEC3"}, {"bufferView": 1, "byteOffset": 2097024, "componentType": 5126, "count": 65533, "max": [0.998873770236969, 0.9997520446777344], "min": [0.000244140625, 0.03292316198348999], "type": "VEC2"}, {"bufferView": 0, "byteOffset": 5089404, "componentType": 5125, "count": 316872, "type": "SCALAR"}, {"bufferView": 2, "byteOffset": 7863864, "componentType": 5126, "count": 65532, "max": [0.39767780900001526, 0.05244201421737671, 0.2054750621318817], "min": [-0.20102594792842865, -0.07244637608528137, -0.1368294656276703], "type": "VEC3"}, {"bufferView": 2, "byteOffset": 8650248, "componentType": 5126, "count": 65532, "max": [0.9997608065605164, 0.9999997615814209, 0.9966515898704529], "min": [-0.9999375343322754, -0.9185376167297363, -0.9998745918273926], "type": "VEC3"}, {"bufferView": 1, "byteOffset": 2621288, "componentType": 5126, "count": 65532, "max": [0.9988354444503784, 0.9996698498725891], "min": [0.000244140625, 0.031256675720214844], "type": "VEC2"}, {"bufferView": 0, "byteOffset": 6356892, "componentType": 5125, "count": 324960, "type": "SCALAR"}, {"bufferView": 2, "byteOffset": 9436632, "componentType": 5126, "count": 4165, "max": [0.40960851311683655, 0.051992595195770264, 0.08743784576654434], "min": [0.18399471044540405, -0.0512668639421463, -0.13565656542778015], "type": "VEC3"}, {"bufferView": 2, "byteOffset": 9486612, "componentType": 5126, "count": 4165, "max": [0.9998258352279663, 0.9998548030853271, 0.9966853260993958], "min": [-0.9071062207221985, -0.9798973202705383, -0.9992393255233765], "type": "VEC3"}, {"bufferView": 1, "byteOffset": 3145544, "componentType": 5126, "count": 4165, "max": [0.9984216690063477, 0.9995836615562439], "min": [0.06844406574964523, 0.04952061176300049], "type": "VEC2"}, {"bufferView": 0, "byteOffset": 7656732, "componentType": 5125, "count": 12117, "type": "SCALAR"}], "asset": {"extras": {"author": "DEEP C (https://sketchfab.com/deepc326)", "license": "SKETCHFAB Standard (https://sketchfab.com/licenses)", "source": "https://sketchfab.com/3d-models/beach-rocks-002-c196c8dfd9dc47f2b0c659a7d4cdddb3", "title": "Beach Rocks 002"}, "generator": "Sketchfab-16.67.0", "version": "2.0"}, "bufferViews": [{"buffer": 0, "byteLength": 7705200, "name": "floatBufferViews", "target": 34963}, {"buffer": 0, "byteLength": 3178864, "byteOffset": 7705200, "byteStride": 8, "name": "floatBufferViews", "target": 34962}, {"buffer": 0, "byteLength": 9536592, "byteOffset": 10884064, "byteStride": 12, "name": "floatBufferViews", "target": 34962}], "buffers": [{"byteLength": 20420656, "uri": "scene.bin"}], "extensionsUsed": ["KHR_materials_unlit"], "images": [{"uri": "default_tex0_baseColor.jpeg"}], "materials": [{"doubleSided": true, "extensions": {"KHR_materials_unlit": {}}, "name": "default_tex0", "pbrMetallicRoughness": {"baseColorTexture": {"index": 0}, "metallicFactor": 0.0}}], "meshes": [{"name": "Object_0", "primitives": [{"attributes": {"NORMAL": 1, "POSITION": 0, "TEXCOORD_0": 2}, "indices": 3, "material": 0, "mode": 4}]}, {"name": "Object_1", "primitives": [{"attributes": {"NORMAL": 5, "POSITION": 4, "TEXCOORD_0": 6}, "indices": 7, "material": 0, "mode": 4}]}, {"name": "Object_2", "primitives": [{"attributes": {"NORMAL": 9, "POSITION": 8, "TEXCOORD_0": 10}, "indices": 11, "material": 0, "mode": 4}]}, {"name": "Object_3", "primitives": [{"attributes": {"NORMAL": 13, "POSITION": 12, "TEXCOORD_0": 14}, "indices": 15, "material": 0, "mode": 4}]}, {"name": "Object_4", "primitives": [{"attributes": {"NORMAL": 17, "POSITION": 16, "TEXCOORD_0": 18}, "indices": 19, "material": 0, "mode": 4}]}, {"name": "Object_5", "primitives": [{"attributes": {"NORMAL": 21, "POSITION": 20, "TEXCOORD_0": 22}, "indices": 23, "material": 0, "mode": 4}]}, {"name": "Object_6", "primitives": [{"attributes": {"NORMAL": 25, "POSITION": 24, "TEXCOORD_0": 26}, "indices": 27, "material": 0, "mode": 4}]}], "nodes": [{"children": [1], "matrix": [1.0, 0.0, 0.0, 0.0, 0.0, 2.220446049250313e-16, -1.0, 0.0, 0.0, 1.0, 2.220446049250313e-16, 0.0, 0.0, 0.0, 0.0, 1.0], "name": "Sketchfab_model"}, {"children": [2], "name": "root"}, {"children": [3], "matrix": [1.0, 0.0, 0.0, 0.0, 0.0, 2.220446049250313e-16, 1.0, 0.0, 0.0, -1.0, 2.220446049250313e-16, 0.0, 0.0, 0.0, 0.0, 1.0], "name": "GLTF_SceneRootNode"}, {"children": [4, 5, 6, 7, 8, 9, 10], "name": "_0"}, {"mesh": 0, "name": "Object_4"}, {"mesh": 1, "name": "Object_5"}, {"mesh": 2, "name": "Object_6"}, {"mesh": 3, "name": "Object_7"}, {"mesh": 4, "name": "Object_8"}, {"mesh": 5, "name": "Object_9"}, {"mesh": 6, "name": "Object_10"}], "samplers": [{"magFilter": 9729, "minFilter": 9729, "wrapS": 33071, "wrapT": 33071}], "scene": 0, "scenes": [{"name": "Sketchfab_Scene", "nodes": [0]}], "textures": [{"sampler": 0, "source": 0}]}